%TF.GenerationSoftware,Altium Limited,Altium Designer,24.7.2 (38)*%
G04 Layer_Color=16711935*
%FSLAX45Y45*%
%MOMM*%
%TF.SameCoordinates,D742685A-2339-4544-926D-89149080589D*%
%TF.FilePolarity,Positive*%
%TF.FileFunction,Other,Bottom_Courtyard*%
%TF.Part,Single*%
G01*
G75*
%TA.AperFunction,NonConductor*%
%ADD45C,0.10000*%
%ADD46C,0.05000*%
%ADD76C,0.01000*%
%ADD77C,0.02000*%
D45*
X-100000Y2000000D02*
G03*
X-100000Y2000000I-100000J0D01*
G01*
X500000D02*
G03*
X500000Y2000000I-100000J0D01*
G01*
X1100000Y2800000D02*
G03*
X1100000Y2800000I-100000J0D01*
G01*
Y2400000D02*
G03*
X1100000Y2400000I-100000J0D01*
G01*
X-400000Y1200000D02*
G03*
X-400000Y1200000I-100000J0D01*
G01*
Y900000D02*
G03*
X-400000Y900000I-100000J0D01*
G01*
X200000Y500000D02*
G03*
X200000Y500000I-100000J0D01*
G01*
X450000D02*
G03*
X450000Y500000I-100000J0D01*
G01*
X700000D02*
G03*
X700000Y500000I-100000J0D01*
G01*
Y1200000D02*
G03*
X700000Y1200000I-100000J0D01*
G01*
X-900000Y600000D02*
G03*
X-900000Y600000I-100000J0D01*
G01*
X-700000Y1300000D02*
G03*
X-700000Y1300000I-100000J0D01*
G01*
X-400000Y600000D02*
G03*
X-400000Y600000I-100000J0D01*
G01*
X950000Y500000D02*
G03*
X950000Y500000I-100000J0D01*
G01*
X1200000D02*
G03*
X1200000Y500000I-100000J0D01*
G01*
X-1000000Y2000000D02*
G03*
X-1000000Y2000000I-100000J0D01*
G01*
X-700000D02*
G03*
X-700000Y2000000I-100000J0D01*
G01*
X-400000D02*
G03*
X-400000Y2000000I-100000J0D01*
G01*
X-1000000Y1600000D02*
G03*
X-1000000Y1600000I-100000J0D01*
G01*
X-700000D02*
G03*
X-700000Y1600000I-100000J0D01*
G01*
X-1480000Y2319500D02*
Y3639500D01*
X80000D01*
Y2319500D02*
Y3639500D01*
X-1480000Y2319500D02*
X80000D01*
D46*
X1035000Y4030800D02*
X1265000D01*
Y3569200D02*
Y4030800D01*
X1035000Y3569200D02*
X1265000D01*
X1035000D02*
Y4030800D01*
X435000D02*
X665000D01*
Y3569200D02*
Y4030800D01*
X435000Y3569200D02*
X665000D01*
X435000D02*
Y4030800D01*
D76*
X887500Y3766750D02*
Y4016750D01*
X1012500Y3766750D02*
Y4016750D01*
X950000Y3866750D02*
Y3916750D01*
X925000Y3891750D02*
X975000D01*
X887500Y3766750D02*
X1012500D01*
X887500Y4016750D02*
X1012500D01*
X175000Y3267686D02*
Y3342686D01*
Y3267686D02*
X325000D01*
X175000Y3342686D02*
X325000D01*
X225000Y3305186D02*
X275000D01*
X250000Y3280186D02*
Y3330186D01*
X325000Y3267686D02*
Y3342686D01*
X175000Y3029749D02*
Y3104749D01*
Y3029749D02*
X325000D01*
X175000Y3104749D02*
X325000D01*
X225000Y3067249D02*
X275000D01*
X250000Y3042249D02*
Y3092249D01*
X325000Y3029749D02*
Y3104749D01*
X175000Y2712500D02*
Y2787500D01*
Y2712500D02*
X325000D01*
X175000Y2787500D02*
X325000D01*
X225000Y2750000D02*
X275000D01*
X250000Y2725000D02*
Y2775000D01*
X325000Y2712500D02*
Y2787500D01*
X175000Y2871125D02*
Y2946125D01*
Y2871125D02*
X325000D01*
X175000Y2946125D02*
X325000D01*
X225000Y2908625D02*
X275000D01*
X250000Y2883625D02*
Y2933625D01*
X325000Y2871125D02*
Y2946125D01*
X687500Y3766750D02*
Y4016750D01*
X812500Y3766750D02*
Y4016750D01*
X750000Y3866750D02*
Y3916750D01*
X725000Y3891750D02*
X775000D01*
X687500Y3766750D02*
X812500D01*
X687500Y4016750D02*
X812500D01*
D77*
X325000Y3347498D02*
Y3422498D01*
X175000D02*
X325000D01*
X175000Y3347498D02*
X325000D01*
X225000Y3384998D02*
X275000D01*
X250000Y3359998D02*
Y3409998D01*
X175000Y3347498D02*
Y3422498D01*
X325000Y3188874D02*
Y3263874D01*
X175000D02*
X325000D01*
X175000Y3188874D02*
X325000D01*
X225000Y3226374D02*
X275000D01*
X250000Y3201374D02*
Y3251374D01*
X175000Y3188874D02*
Y3263874D01*
X325000Y3109561D02*
Y3184562D01*
X175000D02*
X325000D01*
X175000Y3109561D02*
X325000D01*
X225000Y3147062D02*
X275000D01*
X250000Y3122062D02*
Y3172061D01*
X175000Y3109561D02*
Y3184562D01*
X325000Y2792312D02*
Y2867313D01*
X175000D02*
X325000D01*
X175000Y2792312D02*
X325000D01*
X225000Y2829812D02*
X275000D01*
X250000Y2804813D02*
Y2854812D01*
X175000Y2792312D02*
Y2867313D01*
X325000Y2950937D02*
Y3025937D01*
X175000D02*
X325000D01*
X175000Y2950937D02*
X325000D01*
X225000Y2988437D02*
X275000D01*
X250000Y2963437D02*
Y3013437D01*
X175000Y2950937D02*
Y3025937D01*
X577500Y4025000D02*
X652500D01*
X590000Y4100000D02*
X640000D01*
X615000Y4075000D02*
Y4125000D01*
X652500Y4025000D02*
Y4175000D01*
X577500Y4025000D02*
Y4175000D01*
X652500D01*
X1177500Y4025000D02*
X1252500D01*
X1190000Y4100000D02*
X1240000D01*
X1215000Y4075000D02*
Y4125000D01*
X1252500Y4025000D02*
Y4175000D01*
X1177500Y4025000D02*
Y4175000D01*
X1252500D01*
%TF.MD5,7ce9d88650ac541e9c85718ce1f25d2f*%
M02*
