%TF.GenerationSoftware,Altium Limited,Altium Designer,24.7.2 (38)*%
G04 Layer_Color=255*
%FSLAX45Y45*%
%MOMM*%
%TF.SameCoordinates,2A579CD1-804B-4D3D-919F-F2E92879442A*%
%TF.FilePolarity,Positive*%
%TF.FileFunction,Pads,Bot*%
%TF.Part,Single*%
G01*
G75*
%TA.AperFunction,SMDPad,CuDef*%
%ADD16R,0.52000X0.47000*%
%TA.AperFunction,ConnectorPad*%
%ADD17R,0.60000X2.30000*%
%TA.AperFunction,SMDPad,CuDef*%
%ADD25R,0.47000X0.52000*%
%TA.AperFunction,ViaPad*%
%ADD31C,0.75000*%
%ADD32R,5.30000X5.30000*%
%TA.AperFunction,TestPad*%
%ADD35C,1.50000*%
%TA.AperFunction,SMDPad,CuDef*%
%ADD36R,1.00000X0.70000*%
%TA.AperFunction,ConnectorPad*%
%ADD37R,1.15000X0.65000*%
%ADD38R,1.70000X1.30000*%
%ADD39R,1.30000X0.45000*%
%TA.AperFunction,SMDPad,CuDef*%
%ADD40R,1.82000X1.16000*%
D16*
X615000Y4057000D02*
D03*
Y4143000D02*
D03*
X1215000Y4057000D02*
D03*
Y4143000D02*
D03*
D17*
X1179998Y140000D02*
D03*
X1099998D02*
D03*
X1019998D02*
D03*
X939998D02*
D03*
X859998D02*
D03*
X779998D02*
D03*
X699998D02*
D03*
X619999D02*
D03*
X539998D02*
D03*
X459998D02*
D03*
X379998D02*
D03*
X299998D02*
D03*
X219998D02*
D03*
X139998D02*
D03*
X59998D02*
D03*
X-20002D02*
D03*
X-100002D02*
D03*
X-180002D02*
D03*
X-580002D02*
D03*
X-660001D02*
D03*
X-740002D02*
D03*
X-820002D02*
D03*
X-900002D02*
D03*
X-980002D02*
D03*
X-1060001D02*
D03*
X-1140002D02*
D03*
D25*
X293000Y3384998D02*
D03*
X207000D02*
D03*
X293000Y3226374D02*
D03*
X207000D02*
D03*
X293000Y3147062D02*
D03*
X207000D02*
D03*
X293000Y2829812D02*
D03*
X207000D02*
D03*
X293000Y2988437D02*
D03*
X207000D02*
D03*
Y3305186D02*
D03*
X293000D02*
D03*
X207000Y3067249D02*
D03*
X293000D02*
D03*
X207000Y2750000D02*
D03*
X293000D02*
D03*
X207000Y2908625D02*
D03*
X293000D02*
D03*
D31*
X-1425000Y400000D02*
D03*
Y500000D02*
D03*
Y600000D02*
D03*
Y700000D02*
D03*
Y800000D02*
D03*
Y900000D02*
D03*
Y1100000D02*
D03*
Y1200000D02*
D03*
Y1300000D02*
D03*
Y1000000D02*
D03*
Y1400000D02*
D03*
Y1500000D02*
D03*
X1425000Y400000D02*
D03*
Y600000D02*
D03*
Y500000D02*
D03*
Y1500000D02*
D03*
Y1100000D02*
D03*
Y1400000D02*
D03*
Y1300000D02*
D03*
Y1200000D02*
D03*
Y700000D02*
D03*
Y1000000D02*
D03*
Y900000D02*
D03*
Y800000D02*
D03*
D32*
X-1210001Y4805000D02*
D03*
X1209999D02*
D03*
D35*
X-200000Y2000000D02*
D03*
X400000D02*
D03*
X1000000Y2800000D02*
D03*
Y2400000D02*
D03*
X-500000Y1200000D02*
D03*
Y900000D02*
D03*
X100000Y500000D02*
D03*
X350000D02*
D03*
X600000D02*
D03*
Y1200000D02*
D03*
X-1000000Y600000D02*
D03*
X-800000Y1300000D02*
D03*
X-500000Y600000D02*
D03*
X850000Y500000D02*
D03*
X1100000D02*
D03*
X-1100000Y2000000D02*
D03*
X-800000D02*
D03*
X-500000D02*
D03*
X-1100000Y1600000D02*
D03*
X-800000D02*
D03*
D36*
X950000Y3813000D02*
D03*
Y3970500D02*
D03*
X750000Y3813000D02*
D03*
Y3970500D02*
D03*
D37*
X18000Y2749500D02*
D03*
Y2876500D02*
D03*
Y3003500D02*
D03*
Y3130500D02*
D03*
Y3257500D02*
D03*
Y3384500D02*
D03*
D38*
X-1355000Y2389500D02*
D03*
Y3575500D02*
D03*
D39*
X-399000Y2354500D02*
D03*
X-199000D02*
D03*
X-399000Y3608500D02*
D03*
X-199000D02*
D03*
D40*
X1150000Y3652500D02*
D03*
Y3947500D02*
D03*
X550000Y3652500D02*
D03*
Y3947500D02*
D03*
%TF.MD5,51d5773230fbf02549f73ef0d338161b*%
M02*
