%TF.GenerationSoftware,Altium Limited,Altium Designer,24.7.2 (38)*%
G04 Layer_Color=128*
%FSLAX45Y45*%
%MOMM*%
%TF.SameCoordinates,CAFE24DF-D469-44F1-ACF2-037F3FFA2229*%
%TF.FilePolarity,Positive*%
%TF.FileFunction,Paste,Bot*%
%TF.Part,Single*%
G01*
G75*
%TA.AperFunction,SMDPad,CuDef*%
%ADD16R,0.52000X0.47000*%
%ADD17R,0.47000X0.52000*%
%TA.AperFunction,TestPad*%
%ADD36C,1.50000*%
%TA.AperFunction,ConnectorPad*%
%ADD37R,1.30000X0.45000*%
%ADD38R,1.70000X1.30000*%
%ADD39R,1.15000X0.65000*%
%TA.AperFunction,SMDPad,CuDef*%
%ADD40R,1.00000X0.70000*%
%ADD41R,1.82000X1.16000*%
D16*
X1215000Y4143000D02*
D03*
Y4057000D02*
D03*
X615000Y4143000D02*
D03*
Y4057000D02*
D03*
D17*
X293000Y2908625D02*
D03*
X207000D02*
D03*
X293000Y2750000D02*
D03*
X207000D02*
D03*
X293000Y3067249D02*
D03*
X207000D02*
D03*
X293000Y3305186D02*
D03*
X207000D02*
D03*
Y3384998D02*
D03*
X293000D02*
D03*
X207000Y3226374D02*
D03*
X293000D02*
D03*
X207000Y3147062D02*
D03*
X293000D02*
D03*
X207000Y2829812D02*
D03*
X293000D02*
D03*
X207000Y2988437D02*
D03*
X293000D02*
D03*
D36*
X-200000Y2000000D02*
D03*
X-800000Y1600000D02*
D03*
X-1100000D02*
D03*
X-500000Y2000000D02*
D03*
X-800000D02*
D03*
X-1100000D02*
D03*
X1100000Y500000D02*
D03*
X850000D02*
D03*
X-500000Y600000D02*
D03*
X-800000Y1300000D02*
D03*
X-1000000Y600000D02*
D03*
X600000Y1200000D02*
D03*
Y500000D02*
D03*
X350000D02*
D03*
X100000D02*
D03*
X-500000Y900000D02*
D03*
Y1200000D02*
D03*
X1000000Y2400000D02*
D03*
Y2800000D02*
D03*
X400000Y2000000D02*
D03*
D37*
X-199000Y3608500D02*
D03*
X-399000D02*
D03*
X-199000Y2354500D02*
D03*
X-399000D02*
D03*
D38*
X-1355000Y3575500D02*
D03*
Y2389500D02*
D03*
D39*
X18000Y3384500D02*
D03*
Y3257500D02*
D03*
Y3130500D02*
D03*
Y3003500D02*
D03*
Y2876500D02*
D03*
Y2749500D02*
D03*
D40*
X950000Y3970500D02*
D03*
Y3813000D02*
D03*
X750000Y3970500D02*
D03*
Y3813000D02*
D03*
D41*
X1150000Y3947500D02*
D03*
Y3652500D02*
D03*
X550000Y3947500D02*
D03*
Y3652500D02*
D03*
%TF.MD5,6c86453a6f9b784ae39c5cafaadcf1c3*%
M02*
