M48
;Layer_Color=9474304
;FILE_FORMAT=4:4
METRIC,LZ
;TYPE=PLATED
T01F00S00C0.2000
T02F00S00C0.5000
T03F00S00C2.6000
%
T01
X-00114Y0004
X-00106
X-00098
X-0009Y0003
X-00074
X-00066
X-0005475Y0003925
X-0008075Y0003775
X-0007825Y00071
X-00078Y000857
X-000636Y000793
X-000557Y0007575
X-00095Y0008
X-00105
Y0009
X-001Y00085
X-00095Y0009
X-001139Y00099
X-00117Y0010625
X-00115Y0013
X-00105
X-00095
X-0006775Y001225
X-0007025Y0010775
X-00065Y0014675
X-00081Y0017
X-00099
X-00081Y00188
X-000625Y0018775
X-00045Y00188
X-00027Y00188
X-0002725Y002235
X-00063Y00206
X-00117Y00224
X-000995Y0027775
X-00081Y00296
X-0002875Y00045
X-00014Y0003
X-00006
X00014
X00022
X0003
X00038
X00046
X0004275Y000615
X0002Y0008225
Y0010175
Y0010825
Y0011475
Y0012125
Y00127625
Y0014075
X0001Y0014
X0001375Y00159
X00027Y00188
X00045
X00063
X000625Y0017175
X00056Y0015875
X000557Y00132625
X0007875Y0013625
X0008125Y0012436
X000814Y0009086
X0007125Y0009775
X000614Y0009086
X00007Y000915
X0000675Y0011475
X-0002Y0011475
Y0010825
Y0012125
Y0012775
X-00015Y001335
X-0002Y0014075
X-0001475Y0009875
X-0002Y0008875
X-0001175Y00069
X001093Y0006636
X001025Y000355
X001325Y0008275
X00112Y001045
X001093Y0011636
X001325Y0013275
X0011475Y0015875
X00117Y00188
Y00206
Y00224
Y00242
X0009875Y00206
X000985Y0017925
X00081Y00188
X000843Y0015636
X00063Y00206
X000275Y0020825
X0000875Y00206
X-0001Y0027495
Y0028765
X00081Y00278
X0005675Y0024625
X00081Y00332
X00082Y0036925
X00076
X00088
X00094
X00099Y00413
Y00419
Y00425
Y00431
X00072Y00425
Y00419
X00027Y00386
X000205Y0036
X-0001Y0032575
Y0030035
X-0002525Y0029625
X-000245Y003435
X-00081Y0035175
X-0007825Y00332
X-001Y00335
Y00315
X-00117Y0035
Y00368
Y00386
X-000995Y00374
X-000635Y0040325
T02
X-001425Y0004
Y0005
Y0006
Y0007
Y0008
Y0009
Y001
Y0011
Y0012
Y0013
Y0014
Y0015
Y0016
Y0017
Y0018
Y0019
Y002
Y0021
Y0022
X001425
Y0021
Y002
Y0019
Y0018
Y0017
Y0016
Y0015
Y0014
Y0013
Y0012
Y0011
Y001
Y0009
Y0008
Y0007
Y0006
Y0005
Y0004
Y0023
Y0024
Y0025
Y0026
Y0027
Y0028
Y0029
Y003
Y0031
Y0032
Y0033
Y0034
Y0035
Y0036
Y0037
Y0038
Y0039
Y004
Y0041
Y0042
Y0043
Y0044
Y0045
X-001425
Y0044
Y0043
Y0042
Y0041
Y004
Y0039
Y0038
Y0037
T03
X00121Y004805
X-00121
M30
