M48
;Layer_Color=9474304
;FILE_FORMAT=4:4
METRIC,LZ
;TYPE=PLATED
T01F00S00C0.2000
T02F00S00C0.5000
T03F00S00C2.6000
%
T01
X-00114Y0004
X-00106
X-00098
X-0009Y0003
X-00074
X-00066
X-0005475Y0003925
X-0008075Y0003775
X-0007825Y00071
X-00078Y000857
X-000636Y000793
X-000557Y0007575
X-00069Y0010375
X-0008725Y00107
X-00095Y0009
X-001Y00085
X-00105Y0008
Y0009
X-001139Y00099
X-00117Y0010625
X-00115Y0013
X-00125
X-00105
X-00099Y0017
X-00081
X-00081Y00188
X-000625Y0018775
X-00045Y00188
X-00027Y00188
X-0002725Y002235
X-00117Y00224
X-000995Y0027775
X-00095Y0008
X-0002875Y00045
X-00014Y0003
X-00006
X00014
X00022
X0003
X00038
X00046
X0004275Y000615
X0002Y0008225
Y0010175
Y0010825
Y0011475
Y0012125
Y00127625
X0000875Y0013425
Y0011475
Y000915
X-0001475Y0009875
X-0002Y0010825
Y0011475
Y0012125
Y0012775
X-00015Y001335
X-0002Y0013925
X0000875Y001595
Y00206
X000275Y0020825
X00027Y00188
X00045
X00063
X000625Y0017175
X00056Y00163893
X000557Y00132625
X00082182Y00139682
X0008125Y0012436
X000814Y0009086
X0007125Y0009775
X000614Y0009086
X00112Y001045
X001093Y0011636
X001325Y0013275
X0011475Y001595
X000907Y0016276
X000985Y0017925
X00081Y00188
X0009875Y00206
X00117Y00206
Y00188
Y00224
Y00242
X0005675Y0024625
X00063Y00206
X00081Y00278
X-0001Y0027495
Y0028765
X-0002Y0008875
X-0001175Y00069
X001093Y0006636
X001025Y000355
X001325Y0008275
X00094Y0036925
X00088
X00082
X00076
X00072Y00419
Y00425
X00099
Y00419
Y00413
Y00431
X00045Y00452
Y00459
Y00466
X00043Y0047275
X000395Y0047875
X000345Y0048375
X00028Y004875
X0002175Y0048875
X00018Y0047
X00011
X00004
X-00003
X-0001
X-00017
Y0049
X-0001
X-00003
X00025Y00466
X00027Y00459
Y00452
X000205Y0036
X-0001Y0032575
Y0030035
X-0002525Y0029625
X-000245Y003435
X-00081Y0035175
X-0007825Y00332
X-00081Y00314
X-001Y00315
Y00335
X-00117Y0035
Y00368
Y00386
X-000995Y00374
X-000635Y0040325
X-00045Y0047
X-00038
X-00031
X-00024
X-00045Y0049
T02
X-001425Y0004
Y0005
Y0006
Y0007
Y0008
Y0009
Y001
Y0011
Y0012
Y0013
Y0014
Y0015
X001425Y0015
Y0014
Y0013
Y0012
Y0011
Y001
Y0009
Y0008
Y0007
Y0006
Y0005
Y0004
T03
X00121Y004805
X-00121
M30
