M48
;Layer_Color=9474304
;FILE_FORMAT=2:5
INCH,LZ
;TYPE=PLATED
T1F00S00C0.00787
T2F00S00C0.10236
%
T01
X0004Y0017
X0017324Y0015748
X0026772
X0029921
X0027953Y0012598
X003189
X0035157Y001941
X0037Y00275
X0029528Y0025591
Y0029528
Y0033465
X0025315Y0029528
X002Y003
X0021654Y0032579
X001378Y0031496
X001Y0036
X001002Y0041339
X0003Y0038
Y00555
X00095
X00145Y0059
X0012992Y006811
X0012992Y0075197
X002Y00755
X0020079Y006811
X0027165
X0034252
X0048425Y006811
X0048425Y0082284
X0041339
X0034252Y0082315
X0037Y00955
X0043Y0116
X00055Y01035
X0005906Y0091732
Y0081496
X0025315Y0054838
X0029854Y0057323
X003Y00445
X0034Y0038
X00385Y00525
X00485Y0017
X0055118Y0015748
X0058268
X0064567
X0067716
X0070866
X0074016
X0077165
X0080315
X0086614
X0085016Y0025268
Y0033142
X0085Y0041
X0088779Y00445
X00905Y00545
X0090453Y0061024
X0090945Y006811
X0098032
X0105118Y006811
X0105Y0062992
X0097539Y0060039
X01085Y00535
X01145Y0054
Y00415
X01075Y00435
X0106201Y003937
X01075Y00355
X0106201Y0031496
X0106Y00275
X0106201Y0023622
X0108Y0016
X0114Y0028
X0068307Y0028445
Y0031004
X0068332Y0033538
X0068307Y0036122
Y0038681
Y0041228
X0065Y0037
X00635Y0031
X0052756Y0031004
Y0028445
Y0033563
Y0036122
Y0038681
X0057323Y003937
X0052756Y0023327
X0068307
X0072Y0054
X00755Y00605
X0076772Y006811
Y0075197
X0069685Y0082284
X0062598
X0055512
X0055512Y006811
X0062598Y006811
X0050394Y0054134
X007874Y0049213
X00715Y0091
X0072Y00995
X0081Y0096
X00815Y01065
X0090945Y0103543
X0091Y01105
X0112205Y0099248
X0112205Y008937
X0112205Y00835
X0112205Y0075197
X0098Y0082
X0105118Y008937
X00635Y00955
X00505Y00995
X0054Y01285
X0066Y01365
X0072Y01335
X0076772Y0138976
X00815Y0136
X00795Y0125
X0083858Y0124803
X0098Y0118
X0105118Y0117717
X0098Y0139
X01055Y0146
X0110596Y0162239
X0109774Y0165279
X0107898Y0167809
X0105239Y0169497
X0102156Y0170142
X0099007Y0170148
X0095857
X0092734Y0170556
X008986Y0171845
X0087541Y0173976
X0085932Y0176684
X0082677Y0179
X0092943Y0177926
X0095903Y0176852
X0099053
X0102203Y0176854
X0105327Y0176459
X0108317Y0175468
X0111046Y0173896
X0113375Y0171774
X0115233Y0169231
X0091Y01605
X00835Y016
X007658Y0166898
X0076178Y0169839
X0074925Y017253
X0072862Y0174664
X007024Y0176056
X0067316Y0176569
X0067595Y0169831
X0064627Y0169877
X0061658
X005869
X0055721
X0053345
X0050969
X0053543Y017658
X0057087
X0069798Y0167841
X0048001Y0169877
X0045033
X0042064
X0039096Y0169936
X0036246Y0170765
X0033925Y0172616
X0032481Y017521
X0032081Y0178151
X0038785Y0178047
X0041365Y017658
X00275Y016
X0027Y0139
X0038Y01365
X0027Y01245
X0027165Y0117717
X0012992Y0117717
Y0124803
Y013189
Y0138976
Y0146063
X00055Y01385
Y0118
T02
X0106693Y0189173
X0011417
M30
