%TF.GenerationSoftware,Altium Limited,Altium Designer,24.7.2 (38)*%
G04 Layer_Color=8388736*
%FSLAX45Y45*%
%MOMM*%
%TF.SameCoordinates,B8AFC5B3-5861-4094-B1FF-722A8CFB8141*%
%TF.FilePolarity,Negative*%
%TF.FileFunction,Soldermask,Top*%
%TF.Part,Single*%
G01*
G75*
%TA.AperFunction,NonConductor*%
%ADD48R,1.00000X42.00000*%
%ADD49R,26.20000X2.92500*%
%TA.AperFunction,SMDPad,CuDef*%
%ADD50R,0.49000X0.54000*%
%ADD51R,0.54000X0.49000*%
%ADD52R,1.22000X1.02000*%
G04:AMPARAMS|DCode=53|XSize=0.34mm|YSize=0.7mm|CornerRadius=0.1004mm|HoleSize=0mm|Usage=FLASHONLY|Rotation=0.000|XOffset=0mm|YOffset=0mm|HoleType=Round|Shape=RoundedRectangle|*
%AMROUNDEDRECTD53*
21,1,0.34000,0.49920,0,0,0.0*
21,1,0.13920,0.70000,0,0,0.0*
1,1,0.20080,0.06960,-0.24960*
1,1,0.20080,-0.06960,-0.24960*
1,1,0.20080,-0.06960,0.24960*
1,1,0.20080,0.06960,0.24960*
%
%ADD53ROUNDEDRECTD53*%
G04:AMPARAMS|DCode=54|XSize=0.34mm|YSize=0.7mm|CornerRadius=0.1004mm|HoleSize=0mm|Usage=FLASHONLY|Rotation=270.000|XOffset=0mm|YOffset=0mm|HoleType=Round|Shape=RoundedRectangle|*
%AMROUNDEDRECTD54*
21,1,0.34000,0.49920,0,0,270.0*
21,1,0.13920,0.70000,0,0,270.0*
1,1,0.20080,-0.24960,-0.06960*
1,1,0.20080,-0.24960,0.06960*
1,1,0.20080,0.24960,0.06960*
1,1,0.20080,0.24960,-0.06960*
%
%ADD54ROUNDEDRECTD54*%
G04:AMPARAMS|DCode=55|XSize=1.78mm|YSize=1.78mm|CornerRadius=0.092mm|HoleSize=0mm|Usage=FLASHONLY|Rotation=270.000|XOffset=0mm|YOffset=0mm|HoleType=Round|Shape=RoundedRectangle|*
%AMROUNDEDRECTD55*
21,1,1.78000,1.59600,0,0,270.0*
21,1,1.59600,1.78000,0,0,270.0*
1,1,0.18400,-0.79800,-0.79800*
1,1,0.18400,-0.79800,0.79800*
1,1,0.18400,0.79800,0.79800*
1,1,0.18400,0.79800,-0.79800*
%
%ADD55ROUNDEDRECTD55*%
%ADD56R,0.42000X0.42000*%
%ADD57R,0.82000X0.32000*%
%ADD58R,0.52000X0.62000*%
%ADD59R,0.72000X1.02000*%
%ADD60R,2.72000X0.82000*%
%ADD61R,1.02000X1.02000*%
%ADD62R,2.22000X1.07000*%
%TA.AperFunction,ConnectorPad*%
%ADD63R,0.62000X2.32000*%
%TA.AperFunction,SMDPad,CuDef*%
G04:AMPARAMS|DCode=64|XSize=0.72mm|YSize=0.72mm|CornerRadius=0.08mm|HoleSize=0mm|Usage=FLASHONLY|Rotation=0.000|XOffset=0mm|YOffset=0mm|HoleType=Round|Shape=RoundedRectangle|*
%AMROUNDEDRECTD64*
21,1,0.72000,0.56000,0,0,0.0*
21,1,0.56000,0.72000,0,0,0.0*
1,1,0.16000,0.28000,-0.28000*
1,1,0.16000,-0.28000,-0.28000*
1,1,0.16000,-0.28000,0.28000*
1,1,0.16000,0.28000,0.28000*
%
%ADD64ROUNDEDRECTD64*%
%TA.AperFunction,ViaPad*%
%ADD65C,0.77000*%
%ADD66R,5.32000X5.32000*%
D48*
X-1425000Y2445000D02*
D03*
X1425000D02*
D03*
D49*
X-2Y121250D02*
D03*
D50*
X-849500Y475000D02*
D03*
X-763500D02*
D03*
X993000Y1563600D02*
D03*
X907000D02*
D03*
X493000Y1007500D02*
D03*
X407000D02*
D03*
X593000Y588600D02*
D03*
X507000D02*
D03*
X993000Y1088600D02*
D03*
X907000D02*
D03*
X993000Y988600D02*
D03*
X907000D02*
D03*
X993000Y1163600D02*
D03*
X907000D02*
D03*
X407000Y1326250D02*
D03*
X493000D02*
D03*
Y1082500D02*
D03*
X407000D02*
D03*
X493000Y1488600D02*
D03*
X407000D02*
D03*
X493000Y1245000D02*
D03*
X407000D02*
D03*
X493000Y1407400D02*
D03*
X407000D02*
D03*
X493000Y1163750D02*
D03*
X407000D02*
D03*
X907000Y1488600D02*
D03*
X993000D02*
D03*
Y1413600D02*
D03*
X907000D02*
D03*
X907000Y738600D02*
D03*
X993000D02*
D03*
X993000Y588600D02*
D03*
X907000D02*
D03*
X993000Y663600D02*
D03*
X907000D02*
D03*
X-407000Y1326250D02*
D03*
X-493000D02*
D03*
Y1407500D02*
D03*
X-407000D02*
D03*
X-493000Y1245000D02*
D03*
X-407000D02*
D03*
X-407000Y757500D02*
D03*
X-493000D02*
D03*
X-407000Y1082500D02*
D03*
X-493000D02*
D03*
Y1163750D02*
D03*
X-407000D02*
D03*
X-1302500Y1550000D02*
D03*
X-1216500D02*
D03*
X-998501D02*
D03*
X-1084501D02*
D03*
X793000Y588600D02*
D03*
X707000D02*
D03*
X507000Y738600D02*
D03*
X593000D02*
D03*
X707000D02*
D03*
X793000D02*
D03*
X593000Y663600D02*
D03*
X507000D02*
D03*
X793000D02*
D03*
X707000D02*
D03*
X-57000Y4800000D02*
D03*
X-143000D02*
D03*
D51*
X407000Y908500D02*
D03*
Y822500D02*
D03*
X-660001Y543000D02*
D03*
Y457000D02*
D03*
X299998Y543000D02*
D03*
Y457000D02*
D03*
X-140001Y543000D02*
D03*
Y457000D02*
D03*
X219998Y543000D02*
D03*
Y457000D02*
D03*
X139998Y543000D02*
D03*
Y457000D02*
D03*
X-700000Y857000D02*
D03*
Y943000D02*
D03*
Y707000D02*
D03*
Y793000D02*
D03*
X-1225000D02*
D03*
Y707000D02*
D03*
X-1300000Y857000D02*
D03*
Y943000D02*
D03*
X-1225000Y857000D02*
D03*
Y943000D02*
D03*
X-60001Y543000D02*
D03*
Y457000D02*
D03*
X150000Y4886000D02*
D03*
Y4800000D02*
D03*
X50000Y4886000D02*
D03*
Y4800000D02*
D03*
X-250000Y4886000D02*
D03*
Y4800000D02*
D03*
X-350000Y4886000D02*
D03*
Y4800000D02*
D03*
D52*
X-775000Y1430000D02*
D03*
Y1170000D02*
D03*
D53*
X-925000Y990000D02*
D03*
X-1025000Y710000D02*
D03*
X-975000D02*
D03*
X-1075000D02*
D03*
Y990000D02*
D03*
X-1025000D02*
D03*
X-975000D02*
D03*
X-925000Y710000D02*
D03*
D54*
X-1140000Y925000D02*
D03*
Y875000D02*
D03*
Y825000D02*
D03*
Y775000D02*
D03*
X-860000Y925000D02*
D03*
Y875000D02*
D03*
Y825000D02*
D03*
Y775000D02*
D03*
D55*
X-1000000Y850000D02*
D03*
D56*
X950000Y908600D02*
D03*
X987500Y818600D02*
D03*
X912500D02*
D03*
X950000Y1333600D02*
D03*
X987500Y1243600D02*
D03*
X912500D02*
D03*
X712500Y818600D02*
D03*
X787500D02*
D03*
X750000Y908600D02*
D03*
X512500Y818600D02*
D03*
X587500D02*
D03*
X550000Y908600D02*
D03*
D57*
X300000Y1082500D02*
D03*
Y1147500D02*
D03*
Y1212500D02*
D03*
Y1017500D02*
D03*
Y952500D02*
D03*
Y887500D02*
D03*
Y822500D02*
D03*
Y1277500D02*
D03*
X-300000Y1082500D02*
D03*
Y1147500D02*
D03*
Y1212500D02*
D03*
Y1017500D02*
D03*
Y952500D02*
D03*
Y887500D02*
D03*
Y822500D02*
D03*
Y1277500D02*
D03*
Y1342500D02*
D03*
Y757500D02*
D03*
X300000Y1342500D02*
D03*
Y757500D02*
D03*
X-300000Y1407500D02*
D03*
Y692500D02*
D03*
X300000D02*
D03*
Y1407500D02*
D03*
D58*
X1163500Y1327500D02*
D03*
X1253500D02*
D03*
X1163500Y827500D02*
D03*
X1253500D02*
D03*
D59*
X-925000Y600000D02*
D03*
X-775000D02*
D03*
X-1075000D02*
D03*
X-1225000D02*
D03*
D60*
X-1150501Y1430000D02*
D03*
Y1170000D02*
D03*
D61*
X-550000Y4800000D02*
D03*
X-850000Y4800000D02*
D03*
D62*
X-700000Y4947500D02*
D03*
Y4652500D02*
D03*
D63*
X1139999Y140000D02*
D03*
X1059999D02*
D03*
X979999D02*
D03*
X899999D02*
D03*
X819999D02*
D03*
X739999D02*
D03*
X659999D02*
D03*
X579999D02*
D03*
X499998D02*
D03*
X419999D02*
D03*
X339999D02*
D03*
X259999D02*
D03*
X179999D02*
D03*
X99999D02*
D03*
X19999D02*
D03*
X-60001D02*
D03*
X-140001D02*
D03*
X-220001D02*
D03*
X-620002D02*
D03*
X-700001D02*
D03*
X-780001D02*
D03*
X-860002D02*
D03*
X-940001D02*
D03*
X-1020002D02*
D03*
X-1100001D02*
D03*
X-1180001D02*
D03*
D64*
X359999Y2330000D02*
D03*
X539999D02*
D03*
X-1D02*
D03*
X179999D02*
D03*
X-360001D02*
D03*
X-180001D02*
D03*
X-540000D02*
D03*
X719999Y3589999D02*
D03*
Y3409999D02*
D03*
Y3049999D02*
D03*
Y3229999D02*
D03*
Y2689999D02*
D03*
Y2510000D02*
D03*
Y2869999D02*
D03*
X539999Y3769999D02*
D03*
X359999D02*
D03*
X179999D02*
D03*
X-1D02*
D03*
X-360001D02*
D03*
X-180001D02*
D03*
X-540000D02*
D03*
X-720000Y2516600D02*
D03*
Y2689999D02*
D03*
Y2869999D02*
D03*
Y3049999D02*
D03*
Y3229999D02*
D03*
Y3409999D02*
D03*
Y3589999D02*
D03*
X1079999Y4309998D02*
D03*
X1259998Y4129999D02*
D03*
X1079999D02*
D03*
X1259998Y3769999D02*
D03*
Y3949999D02*
D03*
X899999Y4129999D02*
D03*
X1079999Y3949999D02*
D03*
X899999Y4309998D02*
D03*
X1079999Y3769999D02*
D03*
X899999Y3949999D02*
D03*
X1259998Y3589999D02*
D03*
Y3409999D02*
D03*
X1079999Y3589999D02*
D03*
X1259998Y3049999D02*
D03*
Y3229999D02*
D03*
X899999Y3589999D02*
D03*
X1079999Y3409999D02*
D03*
X899999Y3769999D02*
D03*
X1079999Y3229999D02*
D03*
X899999Y3409999D02*
D03*
X539999Y4309998D02*
D03*
X719999D02*
D03*
X359999D02*
D03*
X719999Y4129999D02*
D03*
X539999D02*
D03*
X179999Y4309998D02*
D03*
X359999Y4129999D02*
D03*
X-1Y4309998D02*
D03*
X179999Y4129999D02*
D03*
X-180001D02*
D03*
X719999Y3949999D02*
D03*
Y3769999D02*
D03*
X539999Y3949999D02*
D03*
X899999Y3049999D02*
D03*
Y3229999D02*
D03*
X359999Y3949999D02*
D03*
X-1Y4129999D02*
D03*
X179999Y3949999D02*
D03*
X-1D02*
D03*
X1259998Y2689999D02*
D03*
Y2510000D02*
D03*
Y2869999D02*
D03*
X1079999D02*
D03*
Y2689999D02*
D03*
Y3049999D02*
D03*
Y2510000D02*
D03*
X899999Y2689999D02*
D03*
X1259998Y2330000D02*
D03*
Y2150000D02*
D03*
X1079999Y2330000D02*
D03*
X1259998Y1970000D02*
D03*
X1079999Y1790000D02*
D03*
X899999Y2330000D02*
D03*
X1079999Y2150000D02*
D03*
X899999Y2510000D02*
D03*
X1079999Y1970000D02*
D03*
X899999Y1790000D02*
D03*
Y2869999D02*
D03*
Y2150000D02*
D03*
X719999Y2330000D02*
D03*
Y1970000D02*
D03*
Y2150000D02*
D03*
X359999D02*
D03*
X539999D02*
D03*
X-1D02*
D03*
X539999Y1970000D02*
D03*
X179999Y2150000D02*
D03*
X899999Y1970000D02*
D03*
X719999Y1790000D02*
D03*
X359999Y1970000D02*
D03*
X539999Y1790000D02*
D03*
X359999D02*
D03*
X179999Y1970000D02*
D03*
X-1D02*
D03*
X179999Y1790000D02*
D03*
X-1D02*
D03*
X-360001Y4309998D02*
D03*
X-180001D02*
D03*
X-540000D02*
D03*
X-360001Y4129999D02*
D03*
X-540000D02*
D03*
X-720000Y4309998D02*
D03*
Y4129999D02*
D03*
X-900000Y4309998D02*
D03*
X-360001Y3949999D02*
D03*
X-180001D02*
D03*
X-540000D02*
D03*
X-720000Y3769999D02*
D03*
Y3949999D02*
D03*
X-900000D02*
D03*
Y3409999D02*
D03*
Y4129999D02*
D03*
Y3049999D02*
D03*
Y3229999D02*
D03*
X-1080000Y4129999D02*
D03*
Y3949999D02*
D03*
Y4309998D02*
D03*
X-900000Y3589999D02*
D03*
Y3769999D02*
D03*
X-1260000Y4129999D02*
D03*
Y3949999D02*
D03*
X-1080000Y3769999D02*
D03*
X-1260000D02*
D03*
X-1080000Y3409999D02*
D03*
Y3229999D02*
D03*
Y3589999D02*
D03*
X-900000Y2869999D02*
D03*
X-1080000Y3049999D02*
D03*
X-1260000Y3409999D02*
D03*
Y3589999D02*
D03*
Y3049999D02*
D03*
Y3229999D02*
D03*
X-360001Y2150000D02*
D03*
X-180001D02*
D03*
X-720000Y2330000D02*
D03*
X-180001Y1970000D02*
D03*
X-540000Y2150000D02*
D03*
X-900000Y2330000D02*
D03*
X-720000Y2150000D02*
D03*
X-900000Y2689999D02*
D03*
X-360001Y1970000D02*
D03*
X-180001Y1790000D02*
D03*
X-540000Y1970000D02*
D03*
X-360001Y1790000D02*
D03*
X-540000D02*
D03*
X-720000D02*
D03*
Y1970000D02*
D03*
X-1080000Y2689999D02*
D03*
X-900000Y2510000D02*
D03*
X-1080000Y2869999D02*
D03*
Y2330000D02*
D03*
Y2510000D02*
D03*
X-1260000Y2689999D02*
D03*
Y2510000D02*
D03*
Y2869999D02*
D03*
X-900000Y2150000D02*
D03*
Y1970000D02*
D03*
X-1080000Y2150000D02*
D03*
X-900000Y1790000D02*
D03*
X-1080000D02*
D03*
X-1260000Y2150000D02*
D03*
Y2330000D02*
D03*
X-1080000Y1970000D02*
D03*
X-1260000D02*
D03*
X-180000Y3049999D02*
D03*
Y3230000D02*
D03*
Y2870000D02*
D03*
X180000Y3230000D02*
D03*
X-1Y3049999D02*
D03*
Y3230000D02*
D03*
X180000Y2870000D02*
D03*
Y3049999D02*
D03*
X-1Y2870000D02*
D03*
D65*
X-1425000Y400000D02*
D03*
Y500000D02*
D03*
Y600000D02*
D03*
Y700000D02*
D03*
Y800000D02*
D03*
Y900000D02*
D03*
Y1100000D02*
D03*
Y1200000D02*
D03*
Y1300000D02*
D03*
Y1000000D02*
D03*
Y1400000D02*
D03*
Y1500000D02*
D03*
Y1600000D02*
D03*
Y1700000D02*
D03*
Y1900000D02*
D03*
Y2000000D02*
D03*
Y2100000D02*
D03*
Y1800000D02*
D03*
Y2200000D02*
D03*
Y3700000D02*
D03*
Y4200000D02*
D03*
Y4300000D02*
D03*
Y4400000D02*
D03*
Y4100000D02*
D03*
Y4000000D02*
D03*
Y3900000D02*
D03*
Y3800000D02*
D03*
Y4500000D02*
D03*
X1425000Y400000D02*
D03*
Y600000D02*
D03*
Y500000D02*
D03*
Y1500000D02*
D03*
Y1700000D02*
D03*
Y1600000D02*
D03*
Y1100000D02*
D03*
Y1400000D02*
D03*
Y1300000D02*
D03*
Y1200000D02*
D03*
Y700000D02*
D03*
Y1000000D02*
D03*
Y900000D02*
D03*
Y800000D02*
D03*
Y2600000D02*
D03*
Y2800000D02*
D03*
Y2700000D02*
D03*
Y2200000D02*
D03*
Y2500000D02*
D03*
Y2400000D02*
D03*
Y2300000D02*
D03*
Y1800000D02*
D03*
Y2100000D02*
D03*
Y2000000D02*
D03*
Y1900000D02*
D03*
Y3000000D02*
D03*
Y3100000D02*
D03*
Y3200000D02*
D03*
Y2900000D02*
D03*
Y3400000D02*
D03*
Y3500000D02*
D03*
Y3600000D02*
D03*
Y3300000D02*
D03*
Y3800000D02*
D03*
Y3900000D02*
D03*
Y4000000D02*
D03*
Y3700000D02*
D03*
Y4100000D02*
D03*
Y4400000D02*
D03*
Y4300000D02*
D03*
Y4200000D02*
D03*
Y4500000D02*
D03*
D66*
X-1210001Y4805000D02*
D03*
X1209999D02*
D03*
%TF.MD5,317337b1084bd35c318b27451a15fd29*%
M02*
