%TF.GenerationSoftware,Altium Limited,Altium Designer,24.7.2 (38)*%
G04 Layer_Color=32768*
%FSLAX45Y45*%
%MOMM*%
%TF.SameCoordinates,C0BC2148-C002-44BE-A607-E05F38BB16A2*%
%TF.FilePolarity,Positive*%
%TF.FileFunction,Other,Bottom_Assembly*%
%TF.Part,Single*%
G01*
G75*
%TA.AperFunction,NonConductor*%
%ADD43C,0.05000*%
%ADD44C,0.10000*%
%ADD73C,0.01000*%
%ADD74C,0.02000*%
D43*
X1240000Y3630000D02*
Y3970000D01*
X1060000Y3630000D02*
X1240000D01*
X1060000Y3970000D02*
X1240000D01*
X1060000Y3630000D02*
Y3970000D01*
X640000Y3630000D02*
Y3970000D01*
X460000Y3630000D02*
X640000D01*
X460000Y3970000D02*
X640000D01*
X460000Y3630000D02*
Y3970000D01*
D44*
X-1000000Y1600000D02*
G03*
X-1000000Y1600000I-100000J0D01*
G01*
X-700000D02*
G03*
X-700000Y1600000I-100000J0D01*
G01*
X-100000Y2000000D02*
G03*
X-100000Y2000000I-100000J0D01*
G01*
X1200000Y500000D02*
G03*
X1200000Y500000I-100000J0D01*
G01*
X950000D02*
G03*
X950000Y500000I-100000J0D01*
G01*
X-700000Y2000000D02*
G03*
X-700000Y2000000I-100000J0D01*
G01*
X-400000D02*
G03*
X-400000Y2000000I-100000J0D01*
G01*
X700000Y1200000D02*
G03*
X700000Y1200000I-100000J0D01*
G01*
Y500000D02*
G03*
X700000Y500000I-100000J0D01*
G01*
X450000D02*
G03*
X450000Y500000I-100000J0D01*
G01*
X200000D02*
G03*
X200000Y500000I-100000J0D01*
G01*
X-1000000Y2000000D02*
G03*
X-1000000Y2000000I-100000J0D01*
G01*
X1100000Y3300000D02*
G03*
X1100000Y3300000I-100000J0D01*
G01*
X200000Y3900000D02*
G03*
X200000Y3900000I-100000J0D01*
G01*
X-700000Y1300000D02*
G03*
X-700000Y1300000I-100000J0D01*
G01*
X-900000Y600000D02*
G03*
X-900000Y600000I-100000J0D01*
G01*
X-400000D02*
G03*
X-400000Y600000I-100000J0D01*
G01*
Y900000D02*
G03*
X-400000Y900000I-100000J0D01*
G01*
Y1200000D02*
G03*
X-400000Y1200000I-100000J0D01*
G01*
X1100000Y2400000D02*
G03*
X1100000Y2400000I-100000J0D01*
G01*
Y2800000D02*
G03*
X1100000Y2800000I-100000J0D01*
G01*
X500000Y2000000D02*
G03*
X500000Y2000000I-100000J0D01*
G01*
X-1480000Y2279500D02*
X120000D01*
Y3689500D01*
X-1480000D02*
X120000D01*
X-1480000Y2279500D02*
Y3689500D01*
D73*
X887500Y3766750D02*
X1012500D01*
X887500D02*
Y4016750D01*
X1012500Y3766750D02*
Y4016750D01*
X887500D02*
X1012500D01*
X687500Y3766750D02*
X812500D01*
X687500D02*
Y4016750D01*
X812500Y3766750D02*
Y4016750D01*
X687500D02*
X812500D01*
D74*
X325000Y3347498D02*
Y3422498D01*
X175000Y3347498D02*
Y3422498D01*
X325000D01*
X175000Y3347498D02*
X325000D01*
X175000Y3267686D02*
Y3342686D01*
X325000Y3267686D02*
Y3342686D01*
X175000Y3267686D02*
X325000D01*
X175000Y3342686D02*
X325000D01*
Y3188874D02*
Y3263874D01*
X175000Y3188874D02*
Y3263874D01*
X325000D01*
X175000Y3188874D02*
X325000D01*
Y3109561D02*
Y3184562D01*
X175000Y3109561D02*
Y3184562D01*
X325000D01*
X175000Y3109561D02*
X325000D01*
X175000Y3029749D02*
Y3104749D01*
X325000Y3029749D02*
Y3104749D01*
X175000Y3029749D02*
X325000D01*
X175000Y3104749D02*
X325000D01*
Y2950937D02*
Y3025937D01*
X175000Y2950937D02*
Y3025937D01*
X325000D01*
X175000Y2950937D02*
X325000D01*
X175000Y2871125D02*
Y2946125D01*
X325000Y2871125D02*
Y2946125D01*
X175000Y2871125D02*
X325000D01*
X175000Y2946125D02*
X325000D01*
Y2792312D02*
Y2867313D01*
X175000Y2792312D02*
Y2867313D01*
X325000D01*
X175000Y2792312D02*
X325000D01*
X175000Y2712500D02*
Y2787500D01*
X325000Y2712500D02*
Y2787500D01*
X175000Y2712500D02*
X325000D01*
X175000Y2787500D02*
X325000D01*
X1177500Y4175000D02*
X1252500D01*
X1177500Y4025000D02*
X1252500D01*
X1177500D02*
Y4175000D01*
X1252500Y4025000D02*
Y4175000D01*
X577500D02*
X652500D01*
X577500Y4025000D02*
X652500D01*
X577500D02*
Y4175000D01*
X652500Y4025000D02*
Y4175000D01*
%TF.MD5,63d842a4ba6e0f61e1177a3308d05c82*%
M02*
