%TF.GenerationSoftware,Altium Limited,Altium Designer,24.7.2 (38)*%
G04 Layer_Color=128*
%FSLAX45Y45*%
%MOMM*%
%TF.SameCoordinates,C0BC2148-C002-44BE-A607-E05F38BB16A2*%
%TF.FilePolarity,Positive*%
%TF.FileFunction,Paste,Bot*%
%TF.Part,Single*%
G01*
G75*
%TA.AperFunction,SMDPad,CuDef*%
%ADD14R,0.47000X0.52000*%
%ADD15R,0.52000X0.47000*%
%ADD33R,1.82000X1.16000*%
%ADD34R,1.00000X0.70000*%
%TA.AperFunction,TestPad*%
%ADD35C,1.50000*%
%TA.AperFunction,ConnectorPad*%
%ADD36R,1.30000X0.45000*%
%ADD37R,1.70000X1.30000*%
%ADD38R,1.15000X0.65000*%
D14*
X293000Y3384998D02*
D03*
X207000D02*
D03*
Y3305186D02*
D03*
X293000D02*
D03*
Y3226374D02*
D03*
X207000D02*
D03*
X293000Y3147062D02*
D03*
X207000D02*
D03*
Y3067249D02*
D03*
X293000D02*
D03*
Y2988437D02*
D03*
X207000D02*
D03*
Y2908625D02*
D03*
X293000D02*
D03*
Y2829812D02*
D03*
X207000D02*
D03*
Y2750000D02*
D03*
X293000D02*
D03*
D15*
X1215000Y4143000D02*
D03*
Y4057000D02*
D03*
X615000Y4143000D02*
D03*
Y4057000D02*
D03*
D33*
X1150000Y3947500D02*
D03*
Y3652500D02*
D03*
X550000Y3947500D02*
D03*
Y3652500D02*
D03*
D34*
X950000Y3813000D02*
D03*
Y3970500D02*
D03*
X750000Y3813000D02*
D03*
Y3970500D02*
D03*
D35*
X-1100000Y1600000D02*
D03*
X-800000D02*
D03*
X-200000Y2000000D02*
D03*
X1100000Y500000D02*
D03*
X850000D02*
D03*
X-800000Y2000000D02*
D03*
X-500000D02*
D03*
X600000Y1200000D02*
D03*
Y500000D02*
D03*
X350000D02*
D03*
X100000D02*
D03*
X-1100000Y2000000D02*
D03*
X1000000Y3300000D02*
D03*
X100000Y3900000D02*
D03*
X-800000Y1300000D02*
D03*
X-1000000Y600000D02*
D03*
X-500000D02*
D03*
Y900000D02*
D03*
Y1200000D02*
D03*
X1000000Y2400000D02*
D03*
Y2800000D02*
D03*
X400000Y2000000D02*
D03*
D36*
X-199000Y3608500D02*
D03*
X-399000D02*
D03*
X-199000Y2354500D02*
D03*
X-399000D02*
D03*
D37*
X-1355000Y3575500D02*
D03*
Y2389500D02*
D03*
D38*
X18000Y3384500D02*
D03*
Y3257500D02*
D03*
Y3130500D02*
D03*
Y3003500D02*
D03*
Y2876500D02*
D03*
Y2749500D02*
D03*
%TF.MD5,9eb1de93bfaad06ba7211fd822261e2f*%
M02*
