%TF.GenerationSoftware,Altium Limited,Altium Designer,24.7.2 (38)*%
G04 Layer_Color=32896*
%FSLAX45Y45*%
%MOMM*%
%TF.SameCoordinates,C0BC2148-C002-44BE-A607-E05F38BB16A2*%
%TF.FilePolarity,Positive*%
%TF.FileFunction,Other,Top_Courtyard*%
%TF.Part,Single*%
G01*
G75*
%TA.AperFunction,NonConductor*%
%ADD43C,0.05000*%
%ADD73C,0.01000*%
%ADD74C,0.02000*%
D43*
X-1409700Y1640300D02*
Y4459700D01*
Y1640300D02*
X1409700D01*
Y4459700D01*
X-1409700D02*
X1409700D01*
X-30000Y3050000D02*
X30000D01*
X0Y3020000D02*
Y3080000D01*
D73*
X-1150000Y700000D02*
X-850000D01*
X-1150000Y1000000D02*
X-850000D01*
X-1150000Y700000D02*
Y1000000D01*
X-850000Y700000D02*
Y1000000D01*
X-1000000Y825000D02*
Y875000D01*
X-1025000Y850000D02*
X-975000D01*
X550000Y563600D02*
Y613600D01*
X525000Y588600D02*
X575000D01*
X475000Y626100D02*
X625000D01*
X475000Y551100D02*
X625000D01*
Y626100D01*
X475000Y551100D02*
Y626100D01*
X950000Y963600D02*
Y1013600D01*
X925000Y988600D02*
X975000D01*
X875000Y1026100D02*
X1025000D01*
X875000Y951100D02*
X1025000D01*
Y1026100D01*
X875000Y951100D02*
Y1026100D01*
X950000Y1138600D02*
Y1188600D01*
X925000Y1163600D02*
X975000D01*
X875000Y1201100D02*
X1025000D01*
X875000Y1126100D02*
X1025000D01*
Y1201100D01*
X875000Y1126100D02*
Y1201100D01*
X950000Y838600D02*
Y888600D01*
X925000Y863600D02*
X975000D01*
X890000Y788600D02*
X1010000D01*
X890000D02*
Y938600D01*
X1010000D01*
Y788600D02*
Y938600D01*
X0Y1025000D02*
Y1075000D01*
X-25000Y1050000D02*
X25000D01*
X-400000Y1450000D02*
X400000D01*
Y650000D02*
Y1450000D01*
X-400000Y650000D02*
Y1450000D01*
Y650000D02*
X400000D01*
X375000Y1288750D02*
Y1363750D01*
X525000Y1288750D02*
Y1363750D01*
X375000Y1288750D02*
X525000D01*
X375000Y1363750D02*
X525000D01*
X425000Y1326250D02*
X475000D01*
X450000Y1301250D02*
Y1351250D01*
X950000Y1388600D02*
Y1438600D01*
X925000Y1413600D02*
X975000D01*
X875000Y1451100D02*
X1025000D01*
X875000Y1376100D02*
X1025000D01*
Y1451100D01*
X875000Y1376100D02*
Y1451100D01*
X950000Y1263600D02*
Y1313600D01*
X925000Y1288600D02*
X975000D01*
X890000Y1213600D02*
X1010000D01*
X890000D02*
Y1363600D01*
X1010000D01*
Y1213600D02*
Y1363600D01*
X1183500Y1327500D02*
X1233500D01*
X1208500Y1302500D02*
Y1352500D01*
X1133500Y1290000D02*
Y1365000D01*
X1283500Y1290000D02*
Y1365000D01*
X1133500Y1290000D02*
X1283500D01*
X1133500Y1365000D02*
X1283500D01*
X950000Y1538600D02*
Y1588600D01*
X925000Y1563600D02*
X975000D01*
X875000Y1526100D02*
X1025000D01*
X875000Y1601100D02*
X1025000D01*
X875000Y1526100D02*
Y1601100D01*
X1025000Y1526100D02*
Y1601100D01*
X1183500Y827500D02*
X1233500D01*
X1208500Y802500D02*
Y852500D01*
X1133500Y790000D02*
Y865000D01*
X1283500Y790000D02*
Y865000D01*
X1133500Y790000D02*
X1283500D01*
X1133500Y865000D02*
X1283500D01*
X950000Y713600D02*
Y763600D01*
X925000Y738600D02*
X975000D01*
X875000Y701100D02*
X1025000D01*
X875000Y776100D02*
X1025000D01*
X875000Y701100D02*
Y776100D01*
X1025000Y701100D02*
Y776100D01*
X950000Y638600D02*
Y688600D01*
X925000Y663600D02*
X975000D01*
X875000Y701100D02*
X1025000D01*
X875000Y626100D02*
X1025000D01*
Y701100D01*
X875000Y626100D02*
Y701100D01*
X-450000Y1301250D02*
Y1351250D01*
X-475000Y1326250D02*
X-425000D01*
X-525000Y1363750D02*
X-375000D01*
X-525000Y1288750D02*
X-375000D01*
Y1363750D01*
X-525000Y1288750D02*
Y1363750D01*
Y1207500D02*
Y1282500D01*
X-375000Y1207500D02*
Y1282500D01*
X-525000Y1207500D02*
X-375000D01*
X-525000Y1282500D02*
X-375000D01*
X-475000Y1245000D02*
X-425000D01*
X-450000Y1220000D02*
Y1270000D01*
X-375000Y720000D02*
Y795000D01*
X-525000Y720000D02*
Y795000D01*
X-375000D01*
X-525000Y720000D02*
X-375000D01*
X-475000Y757500D02*
X-425000D01*
X-450000Y732500D02*
Y782500D01*
X-450000Y1057500D02*
Y1107500D01*
X-475000Y1082500D02*
X-425000D01*
X-525000Y1120000D02*
X-375000D01*
X-525000Y1045000D02*
X-375000D01*
Y1120000D01*
X-525000Y1045000D02*
Y1120000D01*
Y1126250D02*
Y1201250D01*
X-375000Y1126250D02*
Y1201250D01*
X-525000Y1126250D02*
X-375000D01*
X-525000Y1201250D02*
X-375000D01*
X-475000Y1163750D02*
X-425000D01*
X-450000Y1138750D02*
Y1188750D01*
X-725000Y900000D02*
X-675000D01*
X-700000Y875000D02*
Y925000D01*
X-662500Y825000D02*
Y975000D01*
X-737500Y825000D02*
Y975000D01*
Y825000D02*
X-662500D01*
X-737500Y975000D02*
X-662500D01*
X-975000Y662500D02*
X-725000D01*
X-975000Y537500D02*
X-725000D01*
X-875000Y600000D02*
X-825000D01*
X-850000Y575000D02*
Y625000D01*
X-725000Y537500D02*
Y662500D01*
X-975000Y537500D02*
Y662500D01*
X-1275000Y537500D02*
X-1025000D01*
X-1275000Y662500D02*
X-1025000D01*
X-1175000Y600000D02*
X-1125000D01*
X-1150000Y575000D02*
Y625000D01*
X-1275000Y537500D02*
Y662500D01*
X-1025000Y537500D02*
Y662500D01*
X-1325000Y900000D02*
X-1275000D01*
X-1300000Y875000D02*
Y925000D01*
X-1262500Y825000D02*
Y975000D01*
X-1337500Y825000D02*
Y975000D01*
Y825000D02*
X-1262500D01*
X-1337500Y975000D02*
X-1262500D01*
X-1017500Y1300000D02*
X-967500D01*
X-992500Y1275000D02*
Y1325000D01*
X-1172500Y1500000D02*
X-812500D01*
X-1172500Y1100000D02*
X-812500D01*
X-1172500D02*
Y1500000D01*
X-812500Y1100000D02*
Y1500000D01*
X-1262500Y825000D02*
X-1187500D01*
X-1262500Y975000D02*
X-1187500D01*
Y825000D02*
Y975000D01*
X-1262500Y825000D02*
Y975000D01*
X-1225000Y875000D02*
Y925000D01*
X-1250000Y900000D02*
X-1200000D01*
X750000Y563600D02*
Y613600D01*
X725000Y588600D02*
X775000D01*
X675000Y626100D02*
X825000D01*
X675000Y551100D02*
X825000D01*
Y626100D01*
X675000Y551100D02*
Y626100D01*
X550000Y713600D02*
Y763600D01*
X525000Y738600D02*
X575000D01*
X475000Y701100D02*
X625000D01*
X475000Y776100D02*
X625000D01*
X475000Y701100D02*
Y776100D01*
X625000Y701100D02*
Y776100D01*
X750000Y713600D02*
Y763600D01*
X725000Y738600D02*
X775000D01*
X675000Y701100D02*
X825000D01*
X675000Y776100D02*
X825000D01*
X675000Y701100D02*
Y776100D01*
X825000Y701100D02*
Y776100D01*
X810000Y788600D02*
Y938600D01*
X690000D02*
X810000D01*
X690000Y788600D02*
Y938600D01*
Y788600D02*
X810000D01*
X725000Y863600D02*
X775000D01*
X750000Y838600D02*
Y888600D01*
X112500Y4918000D02*
X187500D01*
Y4768000D02*
Y4918000D01*
X112500Y4768000D02*
Y4918000D01*
X150000Y4818000D02*
Y4868000D01*
X125000Y4843000D02*
X175000D01*
X112500Y4768000D02*
X187500D01*
X-100000Y4775000D02*
Y4825000D01*
X-125000Y4800000D02*
X-75000D01*
X-175000Y4837500D02*
X-25000D01*
X-175000Y4762500D02*
X-25000D01*
Y4837500D01*
X-175000Y4762500D02*
Y4837500D01*
X-387500Y4918000D02*
X-312500D01*
Y4768000D02*
Y4918000D01*
X-387500Y4768000D02*
Y4918000D01*
X-350000Y4818000D02*
Y4868000D01*
X-375000Y4843000D02*
X-325000D01*
X-387500Y4768000D02*
X-312500D01*
X610000Y788600D02*
Y938600D01*
X490000D02*
X610000D01*
X490000Y788600D02*
Y938600D01*
Y788600D02*
X610000D01*
X525000Y863600D02*
X575000D01*
X550000Y838600D02*
Y888600D01*
X-900000Y4600000D02*
Y5000000D01*
X-500000D01*
Y4600000D02*
Y5000000D01*
X-900000Y4600000D02*
X-500000D01*
X-725000Y4800000D02*
X-675000D01*
X-700000Y4775000D02*
Y4825000D01*
D74*
X-697502Y575000D02*
X-622501D01*
Y425000D02*
Y575000D01*
X-697502Y425000D02*
Y575000D01*
X-660001Y475000D02*
Y525000D01*
X-685001Y500000D02*
X-635002D01*
X-697502Y425000D02*
X-622501D01*
X1025000Y1051100D02*
Y1126100D01*
X875000Y1051100D02*
X1025000D01*
X875000Y1126100D02*
X1025000D01*
X925000Y1088600D02*
X975000D01*
X950000Y1063600D02*
Y1113600D01*
X875000Y1051100D02*
Y1126100D01*
X525000Y1045000D02*
Y1120000D01*
X375000Y1045000D02*
X525000D01*
X375000Y1120000D02*
X525000D01*
X425000Y1082500D02*
X475000D01*
X450000Y1057500D02*
Y1107500D01*
X375000Y1045000D02*
Y1120000D01*
X525000Y1451100D02*
Y1526100D01*
X375000Y1451100D02*
X525000D01*
X375000Y1526100D02*
X525000D01*
X425000Y1488600D02*
X475000D01*
X450000Y1463600D02*
Y1513600D01*
X375000Y1451100D02*
Y1526100D01*
X525000Y1207500D02*
Y1282500D01*
X375000Y1207500D02*
X525000D01*
X375000Y1282500D02*
X525000D01*
X425000Y1245000D02*
X475000D01*
X450000Y1220000D02*
Y1270000D01*
X375000Y1207500D02*
Y1282500D01*
X525000Y1369900D02*
Y1444900D01*
X375000Y1369900D02*
X525000D01*
X375000Y1444900D02*
X525000D01*
X425000Y1407400D02*
X475000D01*
X450000Y1382400D02*
Y1432400D01*
X375000Y1369900D02*
Y1444900D01*
X525000Y1126250D02*
Y1201250D01*
X375000Y1126250D02*
X525000D01*
X375000Y1201250D02*
X525000D01*
X425000Y1163750D02*
X475000D01*
X450000Y1138750D02*
Y1188750D01*
X375000Y1126250D02*
Y1201250D01*
X875000Y1451100D02*
Y1526100D01*
X1025000D01*
X875000Y1451100D02*
X1025000D01*
X925000Y1488600D02*
X975000D01*
X950000Y1463600D02*
Y1513600D01*
X1025000Y1451100D02*
Y1526100D01*
Y551100D02*
Y626100D01*
X875000Y551100D02*
X1025000D01*
X875000Y626100D02*
X1025000D01*
X925000Y588600D02*
X975000D01*
X950000Y563600D02*
Y613600D01*
X875000Y551100D02*
Y626100D01*
X-525000Y1370000D02*
Y1445000D01*
X-375000D01*
X-525000Y1370000D02*
X-375000D01*
X-475000Y1407500D02*
X-425000D01*
X-450000Y1382500D02*
Y1432500D01*
X-375000Y1370000D02*
Y1445000D01*
X262498Y575000D02*
X337498D01*
Y425000D02*
Y575000D01*
X262498Y425000D02*
Y575000D01*
X299998Y475000D02*
Y525000D01*
X274998Y500000D02*
X324998D01*
X262498Y425000D02*
X337498D01*
X-177501Y575000D02*
X-102501D01*
Y425000D02*
Y575000D01*
X-177501Y425000D02*
Y575000D01*
X-140001Y475000D02*
Y525000D01*
X-165001Y500000D02*
X-115001D01*
X-177501Y425000D02*
X-102501D01*
X182498Y575000D02*
X257498D01*
Y425000D02*
Y575000D01*
X182498Y425000D02*
Y575000D01*
X219998Y475000D02*
Y525000D01*
X194998Y500000D02*
X244998D01*
X182498Y425000D02*
X257498D01*
X102498Y575000D02*
X177499D01*
Y425000D02*
Y575000D01*
X102498Y425000D02*
Y575000D01*
X139998Y475000D02*
Y525000D01*
X114999Y500000D02*
X164998D01*
X102498Y425000D02*
X177499D01*
X-737500Y675000D02*
X-662500D01*
X-737500D02*
Y825000D01*
X-662500Y675000D02*
Y825000D01*
X-700000Y725000D02*
Y775000D01*
X-725000Y750000D02*
X-675000D01*
X-737500Y825000D02*
X-662500D01*
X-1262500D02*
X-1187500D01*
Y675000D02*
Y825000D01*
X-1262500Y675000D02*
Y825000D01*
X-1225000Y725000D02*
Y775000D01*
X-1250000Y750000D02*
X-1200000D01*
X-1262500Y675000D02*
X-1187500D01*
X-1350000Y1262500D02*
Y1337500D01*
X-1200000D01*
X-1350000Y1262500D02*
X-1200000D01*
X-1300000Y1300000D02*
X-1250000D01*
X-1275000Y1275000D02*
Y1325000D01*
X-1200000Y1262500D02*
Y1337500D01*
Y1132500D02*
Y1207500D01*
X-1350000Y1132500D02*
X-1200000D01*
X-1350000Y1207500D02*
X-1200000D01*
X-1300000Y1170000D02*
X-1250000D01*
X-1275000Y1145000D02*
Y1195000D01*
X-1350000Y1132500D02*
Y1207500D01*
Y1392500D02*
Y1467500D01*
X-1200000D01*
X-1350000Y1392500D02*
X-1200000D01*
X-1300000Y1430000D02*
X-1250000D01*
X-1275000Y1405000D02*
Y1455000D01*
X-1200000Y1392500D02*
Y1467500D01*
X-731500Y437500D02*
Y512500D01*
X-881500Y437500D02*
X-731500D01*
X-881500Y512500D02*
X-731500D01*
X-831500Y475000D02*
X-781500D01*
X-806500Y450000D02*
Y500000D01*
X-881500Y437500D02*
Y512500D01*
X625000Y626100D02*
Y701100D01*
X475000Y626100D02*
X625000D01*
X475000Y701100D02*
X625000D01*
X525000Y663600D02*
X575000D01*
X550000Y638600D02*
Y688600D01*
X475000Y626100D02*
Y701100D01*
X825000Y626100D02*
Y701100D01*
X675000Y626100D02*
X825000D01*
X675000Y701100D02*
X825000D01*
X725000Y663600D02*
X775000D01*
X750000Y638600D02*
Y688600D01*
X675000Y626100D02*
Y701100D01*
X-97501Y575000D02*
X-22501D01*
Y425000D02*
Y575000D01*
X-97501Y425000D02*
Y575000D01*
X-60001Y475000D02*
Y525000D01*
X-85001Y500000D02*
X-35001D01*
X-97501Y425000D02*
X-22501D01*
X12500Y4918000D02*
X87500D01*
Y4768000D02*
Y4918000D01*
X12500Y4768000D02*
Y4918000D01*
X50000Y4818000D02*
Y4868000D01*
X25000Y4843000D02*
X75000D01*
X12500Y4768000D02*
X87500D01*
X-287500Y4918000D02*
X-212500D01*
Y4768000D02*
Y4918000D01*
X-287500Y4768000D02*
Y4918000D01*
X-250000Y4818000D02*
Y4868000D01*
X-275000Y4843000D02*
X-225000D01*
X-287500Y4768000D02*
X-212500D01*
X369500Y790500D02*
X444500D01*
X382000Y865500D02*
X432000D01*
X407000Y840500D02*
Y890500D01*
X369500Y790500D02*
Y940500D01*
X444500Y790500D02*
Y940500D01*
X369500D02*
X444500D01*
X375000Y970000D02*
Y1045000D01*
X450000Y982500D02*
Y1032500D01*
X425000Y1007500D02*
X475000D01*
X375000Y1045000D02*
X525000D01*
X375000Y970000D02*
X525000D01*
Y1045000D01*
%TF.MD5,5953dc2cfcff9f05439acdd31a7c120c*%
M02*
