%TF.GenerationSoftware,Altium Limited,Altium Designer,24.7.2 (38)*%
G04 Layer_Color=8421504*
%FSLAX45Y45*%
%MOMM*%
%TF.SameCoordinates,C0BC2148-C002-44BE-A607-E05F38BB16A2*%
%TF.FilePolarity,Positive*%
%TF.FileFunction,Paste,Top*%
%TF.Part,Single*%
G01*
G75*
%TA.AperFunction,SMDPad,CuDef*%
G04:AMPARAMS|DCode=11|XSize=0.24mm|YSize=0.6mm|CornerRadius=0.0504mm|HoleSize=0mm|Usage=FLASHONLY|Rotation=0.000|XOffset=0mm|YOffset=0mm|HoleType=Round|Shape=RoundedRectangle|*
%AMROUNDEDRECTD11*
21,1,0.24000,0.49920,0,0,0.0*
21,1,0.13920,0.60000,0,0,0.0*
1,1,0.10080,0.06960,-0.24960*
1,1,0.10080,-0.06960,-0.24960*
1,1,0.10080,-0.06960,0.24960*
1,1,0.10080,0.06960,0.24960*
%
%ADD11ROUNDEDRECTD11*%
G04:AMPARAMS|DCode=12|XSize=0.24mm|YSize=0.6mm|CornerRadius=0.0504mm|HoleSize=0mm|Usage=FLASHONLY|Rotation=270.000|XOffset=0mm|YOffset=0mm|HoleType=Round|Shape=RoundedRectangle|*
%AMROUNDEDRECTD12*
21,1,0.24000,0.49920,0,0,270.0*
21,1,0.13920,0.60000,0,0,270.0*
1,1,0.10080,-0.24960,-0.06960*
1,1,0.10080,-0.24960,0.06960*
1,1,0.10080,0.24960,0.06960*
1,1,0.10080,0.24960,-0.06960*
%
%ADD12ROUNDEDRECTD12*%
G04:AMPARAMS|DCode=13|XSize=1.68mm|YSize=1.68mm|CornerRadius=0.042mm|HoleSize=0mm|Usage=FLASHONLY|Rotation=270.000|XOffset=0mm|YOffset=0mm|HoleType=Round|Shape=RoundedRectangle|*
%AMROUNDEDRECTD13*
21,1,1.68000,1.59600,0,0,270.0*
21,1,1.59600,1.68000,0,0,270.0*
1,1,0.08400,-0.79800,-0.79800*
1,1,0.08400,-0.79800,0.79800*
1,1,0.08400,0.79800,0.79800*
1,1,0.08400,0.79800,-0.79800*
%
%ADD13ROUNDEDRECTD13*%
%ADD14R,0.47000X0.52000*%
%ADD15R,0.52000X0.47000*%
%ADD16R,0.40000X0.40000*%
%ADD17R,0.80000X0.30000*%
%ADD18R,0.50000X0.60000*%
%ADD19R,0.70000X1.00000*%
%ADD20R,2.70000X0.80000*%
%ADD21R,1.00000X1.00000*%
%ADD22R,2.20000X1.05000*%
G04:AMPARAMS|DCode=24|XSize=0.7mm|YSize=0.7mm|CornerRadius=0.07mm|HoleSize=0mm|Usage=FLASHONLY|Rotation=0.000|XOffset=0mm|YOffset=0mm|HoleType=Round|Shape=RoundedRectangle|*
%AMROUNDEDRECTD24*
21,1,0.70000,0.56000,0,0,0.0*
21,1,0.56000,0.70000,0,0,0.0*
1,1,0.14000,0.28000,-0.28000*
1,1,0.14000,-0.28000,-0.28000*
1,1,0.14000,-0.28000,0.28000*
1,1,0.14000,0.28000,0.28000*
%
%ADD24ROUNDEDRECTD24*%
D11*
X-925000Y990000D02*
D03*
X-1025000Y710000D02*
D03*
X-975000D02*
D03*
X-1075000D02*
D03*
Y990000D02*
D03*
X-1025000D02*
D03*
X-975000D02*
D03*
X-925000Y710000D02*
D03*
D12*
X-1140000Y925000D02*
D03*
Y875000D02*
D03*
Y825000D02*
D03*
Y775000D02*
D03*
X-860000Y925000D02*
D03*
Y875000D02*
D03*
Y825000D02*
D03*
Y775000D02*
D03*
D13*
X-1000000Y850000D02*
D03*
D14*
X593000Y588600D02*
D03*
X507000D02*
D03*
X993000Y1088600D02*
D03*
X907000D02*
D03*
X993000Y988600D02*
D03*
X907000D02*
D03*
X993000Y1163600D02*
D03*
X907000D02*
D03*
X407000Y1326250D02*
D03*
X493000D02*
D03*
Y1082500D02*
D03*
X407000D02*
D03*
X493000Y1488600D02*
D03*
X407000D02*
D03*
X493000Y1245000D02*
D03*
X407000D02*
D03*
X493000Y1407400D02*
D03*
X407000D02*
D03*
X493000Y1163750D02*
D03*
X407000D02*
D03*
X907000Y1488600D02*
D03*
X993000D02*
D03*
Y1413600D02*
D03*
X907000D02*
D03*
X907000Y1563600D02*
D03*
X993000D02*
D03*
X907000Y738600D02*
D03*
X993000D02*
D03*
X993000Y588600D02*
D03*
X907000D02*
D03*
X993000Y663600D02*
D03*
X907000D02*
D03*
X-407000Y1326250D02*
D03*
X-493000D02*
D03*
Y1407500D02*
D03*
X-407000D02*
D03*
X-493000Y1245000D02*
D03*
X-407000D02*
D03*
X-407000Y757500D02*
D03*
X-493000D02*
D03*
X-407000Y1082500D02*
D03*
X-493000D02*
D03*
Y1163750D02*
D03*
X-407000D02*
D03*
X-1318000Y1300000D02*
D03*
X-1232000D02*
D03*
Y1170000D02*
D03*
X-1318000D02*
D03*
Y1430000D02*
D03*
X-1232000D02*
D03*
X793000Y588600D02*
D03*
X707000D02*
D03*
X507000Y738600D02*
D03*
X593000D02*
D03*
X-763500Y475000D02*
D03*
X-849500D02*
D03*
X707000Y738600D02*
D03*
X793000D02*
D03*
X593000Y663600D02*
D03*
X507000D02*
D03*
X793000D02*
D03*
X707000D02*
D03*
X-57000Y4800000D02*
D03*
X-143000D02*
D03*
X407000Y1007500D02*
D03*
X493000D02*
D03*
D15*
X-660001Y543000D02*
D03*
Y457000D02*
D03*
X299998Y543000D02*
D03*
Y457000D02*
D03*
X-140001Y543000D02*
D03*
Y457000D02*
D03*
X219998Y543000D02*
D03*
Y457000D02*
D03*
X139998Y543000D02*
D03*
Y457000D02*
D03*
X-700000Y857000D02*
D03*
Y943000D02*
D03*
Y707000D02*
D03*
Y793000D02*
D03*
X-1225000D02*
D03*
Y707000D02*
D03*
X-1300000Y857000D02*
D03*
Y943000D02*
D03*
X-1225000Y857000D02*
D03*
Y943000D02*
D03*
X-60001Y543000D02*
D03*
Y457000D02*
D03*
X150000Y4886000D02*
D03*
Y4800000D02*
D03*
X50000Y4886000D02*
D03*
Y4800000D02*
D03*
X-250000Y4886000D02*
D03*
Y4800000D02*
D03*
X-350000Y4886000D02*
D03*
Y4800000D02*
D03*
X407000Y822500D02*
D03*
Y908500D02*
D03*
D16*
X950000Y908600D02*
D03*
X987500Y818600D02*
D03*
X912500D02*
D03*
X950000Y1333600D02*
D03*
X987500Y1243600D02*
D03*
X912500D02*
D03*
X712500Y818600D02*
D03*
X787500D02*
D03*
X750000Y908600D02*
D03*
X512500Y818600D02*
D03*
X587500D02*
D03*
X550000Y908600D02*
D03*
D17*
X300000Y1082500D02*
D03*
Y1147500D02*
D03*
Y1212500D02*
D03*
Y1017500D02*
D03*
Y952500D02*
D03*
Y887500D02*
D03*
Y822500D02*
D03*
Y1277500D02*
D03*
X-300000Y1082500D02*
D03*
Y1147500D02*
D03*
Y1212500D02*
D03*
Y1017500D02*
D03*
Y952500D02*
D03*
Y887500D02*
D03*
Y822500D02*
D03*
Y1277500D02*
D03*
Y1342500D02*
D03*
Y757500D02*
D03*
X300000Y1342500D02*
D03*
Y757500D02*
D03*
X-300000Y1407500D02*
D03*
Y692500D02*
D03*
X300000D02*
D03*
Y1407500D02*
D03*
D18*
X1163500Y1327500D02*
D03*
X1253500D02*
D03*
X1163500Y827500D02*
D03*
X1253500D02*
D03*
D19*
X-925000Y600000D02*
D03*
X-775000D02*
D03*
X-1075000D02*
D03*
X-1225000D02*
D03*
D20*
X-992500Y1430000D02*
D03*
Y1170000D02*
D03*
D21*
X-550000Y4800000D02*
D03*
X-850000Y4800000D02*
D03*
D22*
X-700000Y4947500D02*
D03*
Y4652500D02*
D03*
D24*
X359999Y2330000D02*
D03*
X539999D02*
D03*
X-1D02*
D03*
X179999D02*
D03*
X-360001D02*
D03*
X-180001D02*
D03*
X-540000D02*
D03*
X719999Y3589999D02*
D03*
Y3409999D02*
D03*
Y3049999D02*
D03*
Y3229999D02*
D03*
Y2689999D02*
D03*
Y2510000D02*
D03*
Y2869999D02*
D03*
X539999Y3769999D02*
D03*
X359999D02*
D03*
X179999D02*
D03*
X-1D02*
D03*
X-360001D02*
D03*
X-180001D02*
D03*
X-540000D02*
D03*
X-720000Y2516600D02*
D03*
Y2689999D02*
D03*
Y2869999D02*
D03*
Y3049999D02*
D03*
Y3229999D02*
D03*
Y3409999D02*
D03*
Y3589999D02*
D03*
X1079999Y4309998D02*
D03*
X1259998Y4129999D02*
D03*
X1079999D02*
D03*
X1259998Y3769999D02*
D03*
Y3949999D02*
D03*
X899999Y4129999D02*
D03*
X1079999Y3949999D02*
D03*
X899999Y4309998D02*
D03*
X1079999Y3769999D02*
D03*
X899999Y3949999D02*
D03*
X1259998Y3589999D02*
D03*
Y3409999D02*
D03*
X1079999Y3589999D02*
D03*
X1259998Y3049999D02*
D03*
Y3229999D02*
D03*
X899999Y3589999D02*
D03*
X1079999Y3409999D02*
D03*
X899999Y3769999D02*
D03*
X1079999Y3229999D02*
D03*
X899999Y3409999D02*
D03*
X539999Y4309998D02*
D03*
X719999D02*
D03*
X359999D02*
D03*
X719999Y4129999D02*
D03*
X539999D02*
D03*
X179999Y4309998D02*
D03*
X359999Y4129999D02*
D03*
X-1Y4309998D02*
D03*
X179999Y4129999D02*
D03*
X-180001D02*
D03*
X719999Y3949999D02*
D03*
Y3769999D02*
D03*
X539999Y3949999D02*
D03*
X899999Y3049999D02*
D03*
Y3229999D02*
D03*
X359999Y3949999D02*
D03*
X-1Y4129999D02*
D03*
X179999Y3949999D02*
D03*
X-1D02*
D03*
X1259998Y2689999D02*
D03*
Y2510000D02*
D03*
Y2869999D02*
D03*
X1079999D02*
D03*
Y2689999D02*
D03*
Y3049999D02*
D03*
Y2510000D02*
D03*
X899999Y2689999D02*
D03*
X1259998Y2330000D02*
D03*
Y2150000D02*
D03*
X1079999Y2330000D02*
D03*
X1259998Y1970000D02*
D03*
X1079999Y1790000D02*
D03*
X899999Y2330000D02*
D03*
X1079999Y2150000D02*
D03*
X899999Y2510000D02*
D03*
X1079999Y1970000D02*
D03*
X899999Y1790000D02*
D03*
Y2869999D02*
D03*
Y2150000D02*
D03*
X719999Y2330000D02*
D03*
Y1970000D02*
D03*
Y2150000D02*
D03*
X359999D02*
D03*
X539999D02*
D03*
X-1D02*
D03*
X539999Y1970000D02*
D03*
X179999Y2150000D02*
D03*
X899999Y1970000D02*
D03*
X719999Y1790000D02*
D03*
X359999Y1970000D02*
D03*
X539999Y1790000D02*
D03*
X359999D02*
D03*
X179999Y1970000D02*
D03*
X-1D02*
D03*
X179999Y1790000D02*
D03*
X-1D02*
D03*
X-360001Y4309998D02*
D03*
X-180001D02*
D03*
X-540000D02*
D03*
X-360001Y4129999D02*
D03*
X-540000D02*
D03*
X-720000Y4309998D02*
D03*
Y4129999D02*
D03*
X-900000Y4309998D02*
D03*
X-360001Y3949999D02*
D03*
X-180001D02*
D03*
X-540000D02*
D03*
X-720000Y3769999D02*
D03*
Y3949999D02*
D03*
X-900000D02*
D03*
Y3409999D02*
D03*
Y4129999D02*
D03*
Y3049999D02*
D03*
Y3229999D02*
D03*
X-1080000Y4129999D02*
D03*
Y3949999D02*
D03*
Y4309998D02*
D03*
X-900000Y3589999D02*
D03*
Y3769999D02*
D03*
X-1260000Y4129999D02*
D03*
Y3949999D02*
D03*
X-1080000Y3769999D02*
D03*
X-1260000D02*
D03*
X-1080000Y3409999D02*
D03*
Y3229999D02*
D03*
Y3589999D02*
D03*
X-900000Y2869999D02*
D03*
X-1080000Y3049999D02*
D03*
X-1260000Y3409999D02*
D03*
Y3589999D02*
D03*
Y3049999D02*
D03*
Y3229999D02*
D03*
X-360001Y2150000D02*
D03*
X-180001D02*
D03*
X-720000Y2330000D02*
D03*
X-180001Y1970000D02*
D03*
X-540000Y2150000D02*
D03*
X-900000Y2330000D02*
D03*
X-720000Y2150000D02*
D03*
X-900000Y2689999D02*
D03*
X-360001Y1970000D02*
D03*
X-180001Y1790000D02*
D03*
X-540000Y1970000D02*
D03*
X-360001Y1790000D02*
D03*
X-540000D02*
D03*
X-720000D02*
D03*
Y1970000D02*
D03*
X-1080000Y2689999D02*
D03*
X-900000Y2510000D02*
D03*
X-1080000Y2869999D02*
D03*
Y2330000D02*
D03*
Y2510000D02*
D03*
X-1260000Y2689999D02*
D03*
Y2510000D02*
D03*
Y2869999D02*
D03*
X-900000Y2150000D02*
D03*
Y1970000D02*
D03*
X-1080000Y2150000D02*
D03*
X-900000Y1790000D02*
D03*
X-1080000D02*
D03*
X-1260000Y2150000D02*
D03*
Y2330000D02*
D03*
X-1080000Y1970000D02*
D03*
X-1260000D02*
D03*
X-180000Y3049999D02*
D03*
Y3230000D02*
D03*
Y2870000D02*
D03*
X180000Y3230000D02*
D03*
X-1Y3049999D02*
D03*
Y3230000D02*
D03*
X180000Y2870000D02*
D03*
Y3049999D02*
D03*
X-1Y2870000D02*
D03*
%TF.MD5,cc468f3bb08c11580be379f9ce54d24e*%
M02*
