G04*
G04 #@! TF.GenerationSoftware,Altium Limited,Altium Designer,24.7.2 (38)*
G04*
G04 Layer_Color=255*
%FSLAX44Y44*%
%MOMM*%
G71*
G04*
G04 #@! TF.SameCoordinates,FCCF736A-BA14-4BF7-92F5-BE178D1D1943*
G04*
G04*
G04 #@! TF.FilePolarity,Positive*
G04*
G01*
G75*
%ADD19R,0.5200X0.4700*%
%ADD20R,0.4700X0.5200*%
%ADD48R,0.6000X2.3000*%
%ADD53C,0.7500*%
%ADD54R,5.3000X5.3000*%
%ADD57C,1.5000*%
%ADD58R,1.3000X0.4500*%
%ADD59R,1.7000X1.3000*%
%ADD60R,1.1500X0.6500*%
%ADD61R,1.0000X0.7000*%
%ADD62R,1.8200X1.1600*%
D19*
X121500Y414300D02*
D03*
Y405700D02*
D03*
X61500Y414300D02*
D03*
Y405700D02*
D03*
D20*
X29300Y290863D02*
D03*
X20700D02*
D03*
X29300Y275000D02*
D03*
X20700D02*
D03*
X29300Y306725D02*
D03*
X20700D02*
D03*
X29300Y330519D02*
D03*
X20700D02*
D03*
Y338500D02*
D03*
X29300D02*
D03*
X20700Y322637D02*
D03*
X29300D02*
D03*
X20700Y314706D02*
D03*
X29300D02*
D03*
X20700Y282981D02*
D03*
X29300D02*
D03*
X20700Y298844D02*
D03*
X29300D02*
D03*
D48*
X-114000Y14000D02*
D03*
X-106000D02*
D03*
X-98000D02*
D03*
X-90000D02*
D03*
X-82000D02*
D03*
X-74000D02*
D03*
X-66000D02*
D03*
X-58000D02*
D03*
X-18000D02*
D03*
X-10000D02*
D03*
X-2000D02*
D03*
X6000D02*
D03*
X14000D02*
D03*
X22000D02*
D03*
X30000D02*
D03*
X38000D02*
D03*
X46000D02*
D03*
X54000D02*
D03*
X62000D02*
D03*
X70000D02*
D03*
X78000D02*
D03*
X86000D02*
D03*
X94000D02*
D03*
X102000D02*
D03*
X110000D02*
D03*
X118000D02*
D03*
D53*
X-142500Y40000D02*
D03*
Y50000D02*
D03*
Y60000D02*
D03*
Y70000D02*
D03*
Y80000D02*
D03*
Y90000D02*
D03*
Y110000D02*
D03*
Y120000D02*
D03*
Y130000D02*
D03*
Y100000D02*
D03*
Y140000D02*
D03*
Y150000D02*
D03*
X142500Y40000D02*
D03*
Y60000D02*
D03*
Y50000D02*
D03*
Y150000D02*
D03*
Y110000D02*
D03*
Y140000D02*
D03*
Y130000D02*
D03*
Y120000D02*
D03*
Y70000D02*
D03*
Y100000D02*
D03*
Y90000D02*
D03*
Y80000D02*
D03*
D54*
X-121000Y480500D02*
D03*
X121000D02*
D03*
D57*
X-20000Y200000D02*
D03*
X-80000Y160000D02*
D03*
X-110000D02*
D03*
X-50000Y200000D02*
D03*
X-80000D02*
D03*
X-110000D02*
D03*
X110000Y50000D02*
D03*
X85000D02*
D03*
X-50000Y60000D02*
D03*
X-80000Y130000D02*
D03*
X-100000Y60000D02*
D03*
X60000Y120000D02*
D03*
Y50000D02*
D03*
X35000D02*
D03*
X10000D02*
D03*
X-50000Y90000D02*
D03*
Y120000D02*
D03*
X100000Y240000D02*
D03*
Y280000D02*
D03*
X40000Y200000D02*
D03*
D58*
X-19900Y360850D02*
D03*
X-39900D02*
D03*
X-19900Y235450D02*
D03*
X-39900D02*
D03*
D59*
X-135500Y357550D02*
D03*
Y238950D02*
D03*
D60*
X1800Y338450D02*
D03*
Y325750D02*
D03*
Y313050D02*
D03*
Y300350D02*
D03*
Y287650D02*
D03*
Y274950D02*
D03*
D61*
X95000Y397050D02*
D03*
Y381300D02*
D03*
X75000Y397050D02*
D03*
Y381300D02*
D03*
D62*
X115000Y394750D02*
D03*
Y365250D02*
D03*
X55000Y394750D02*
D03*
Y365250D02*
D03*
M02*
