G04*
G04 #@! TF.GenerationSoftware,Altium Limited,Altium Designer,24.7.2 (38)*
G04*
G04 Layer_Physical_Order=3*
G04 Layer_Color=16440176*
%FSLAX44Y44*%
%MOMM*%
G71*
G04*
G04 #@! TF.SameCoordinates,FCCF736A-BA14-4BF7-92F5-BE178D1D1943*
G04*
G04*
G04 #@! TF.FilePolarity,Positive*
G04*
G01*
G75*
%ADD10C,0.2000*%
%ADD53C,0.7500*%
%ADD54R,5.3000X5.3000*%
%ADD55C,0.5000*%
G36*
X147451Y34549D02*
X136500D01*
X136438Y34536D01*
X136375Y34546D01*
X135591Y34507D01*
X135407Y34461D01*
X135218D01*
X133680Y34155D01*
X133448Y34059D01*
X133202Y34010D01*
X131753Y33410D01*
X131545Y33271D01*
X131313Y33175D01*
X130009Y32303D01*
X129831Y32126D01*
X129622Y31986D01*
X128513Y30877D01*
X128374Y30669D01*
X128196Y30491D01*
X127325Y29187D01*
X127229Y28955D01*
X127090Y28747D01*
X126489Y27298D01*
X126440Y27051D01*
X126344Y26820D01*
X126039Y25281D01*
Y25092D01*
X125993Y24909D01*
X125954Y24125D01*
X125963Y24062D01*
X125951Y24000D01*
Y2549D01*
X-28451D01*
X-28451Y32500D01*
X-28468Y32583D01*
X-28457Y32667D01*
X-28521Y33646D01*
X-28586Y33888D01*
X-28602Y34139D01*
X-29109Y36030D01*
X-29257Y36329D01*
X-29364Y36645D01*
X-30343Y38340D01*
X-30562Y38591D01*
X-30748Y38868D01*
X-32132Y40252D01*
X-32409Y40438D01*
X-32660Y40658D01*
X-34356Y41637D01*
X-34671Y41744D01*
X-34970Y41891D01*
X-36862Y42398D01*
X-37194Y42420D01*
X-37521Y42485D01*
X-39479D01*
X-39806Y42420D01*
X-40139Y42398D01*
X-42030Y41891D01*
X-42329Y41744D01*
X-42645Y41636D01*
X-44340Y40658D01*
X-44591Y40438D01*
X-44868Y40252D01*
X-46253Y38868D01*
X-46438Y38591D01*
X-46658Y38340D01*
X-47637Y36645D01*
X-47744Y36329D01*
X-47891Y36030D01*
X-48398Y34139D01*
X-48414Y33888D01*
X-48479Y33646D01*
X-48544Y32667D01*
X-48533Y32583D01*
X-48549Y32500D01*
Y2549D01*
X-125951D01*
Y24000D01*
X-125964Y24062D01*
X-125954Y24125D01*
X-125993Y24909D01*
X-126039Y25092D01*
Y25281D01*
X-126345Y26820D01*
X-126441Y27051D01*
X-126490Y27298D01*
X-127090Y28747D01*
X-127229Y28955D01*
X-127325Y29187D01*
X-128197Y30491D01*
X-128374Y30669D01*
X-128514Y30877D01*
X-129623Y31986D01*
X-129831Y32126D01*
X-130009Y32303D01*
X-131313Y33175D01*
X-131545Y33271D01*
X-131754Y33410D01*
X-133202Y34010D01*
X-133449Y34059D01*
X-133681Y34155D01*
X-135219Y34461D01*
X-135408D01*
X-135591Y34507D01*
X-136375Y34546D01*
X-136438Y34536D01*
X-136500Y34549D01*
X-147451D01*
Y506951D01*
X147451D01*
Y34549D01*
D02*
G37*
%LPC*%
G36*
X99000Y433039D02*
X98220Y432884D01*
X97558Y432442D01*
X97116Y431780D01*
X96961Y431000D01*
X97116Y430220D01*
X97558Y429558D01*
X98220Y429116D01*
X99000Y428961D01*
X99780Y429116D01*
X100442Y429558D01*
X100884Y430220D01*
X101039Y431000D01*
X100884Y431780D01*
X100442Y432442D01*
X99780Y432884D01*
X99000Y433039D01*
D02*
G37*
G36*
X17840Y485554D02*
Y485547D01*
X-55000D01*
X-57123Y485124D01*
X-58922Y483922D01*
X-60124Y482123D01*
X-60547Y480000D01*
X-60124Y477877D01*
X-58922Y476078D01*
X-57123Y474876D01*
X-55000Y474453D01*
X17840D01*
X18107Y474506D01*
X21128Y474109D01*
X24191Y472840D01*
X26821Y470821D01*
X28840Y468191D01*
X30109Y465127D01*
X30506Y462107D01*
X30453Y461840D01*
Y431000D01*
X30875Y428877D01*
X32078Y427078D01*
X33877Y425876D01*
X36000Y425453D01*
X38122Y425876D01*
X39922Y427078D01*
X41124Y428877D01*
X41547Y431000D01*
Y461839D01*
X41547Y461840D01*
X41554D01*
X41099Y466466D01*
X39749Y470915D01*
X37558Y475015D01*
X34609Y478609D01*
X31015Y481558D01*
X26915Y483749D01*
X22466Y485098D01*
X17840Y485554D01*
D02*
G37*
G36*
X99000Y427039D02*
X98220Y426884D01*
X97558Y426442D01*
X97116Y425780D01*
X96961Y425000D01*
X97116Y424220D01*
X97558Y423558D01*
X98220Y423116D01*
X99000Y422961D01*
X99780Y423116D01*
X100442Y423558D01*
X100884Y424220D01*
X101039Y425000D01*
X100884Y425780D01*
X100442Y426442D01*
X99780Y426884D01*
X99000Y427039D01*
D02*
G37*
G36*
X72000D02*
X71220Y426884D01*
X70558Y426442D01*
X70116Y425780D01*
X69961Y425000D01*
X70116Y424220D01*
X70558Y423558D01*
X71220Y423116D01*
X72000Y422961D01*
X72780Y423116D01*
X73442Y423558D01*
X73884Y424220D01*
X74039Y425000D01*
X73884Y425780D01*
X73442Y426442D01*
X72780Y426884D01*
X72000Y427039D01*
D02*
G37*
G36*
X99000Y421039D02*
X98220Y420884D01*
X97558Y420442D01*
X97116Y419780D01*
X96961Y419000D01*
X97116Y418220D01*
X97558Y417558D01*
X98220Y417116D01*
X99000Y416961D01*
X99780Y417116D01*
X100442Y417558D01*
X100884Y418220D01*
X101039Y419000D01*
X100884Y419780D01*
X100442Y420442D01*
X99780Y420884D01*
X99000Y421039D01*
D02*
G37*
G36*
X72000D02*
X71220Y420884D01*
X70558Y420442D01*
X70116Y419780D01*
X69961Y419000D01*
X70116Y418220D01*
X70558Y417558D01*
X71220Y417116D01*
X72000Y416961D01*
X72780Y417116D01*
X73442Y417558D01*
X73884Y418220D01*
X74039Y419000D01*
X73884Y419780D01*
X73442Y420442D01*
X72780Y420884D01*
X72000Y421039D01*
D02*
G37*
G36*
X99000Y415039D02*
X98220Y414884D01*
X97558Y414442D01*
X97116Y413780D01*
X96961Y413000D01*
X97116Y412220D01*
X97558Y411558D01*
X98220Y411116D01*
X99000Y410961D01*
X99780Y411116D01*
X100442Y411558D01*
X100884Y412220D01*
X101039Y413000D01*
X100884Y413780D01*
X100442Y414442D01*
X99780Y414884D01*
X99000Y415039D01*
D02*
G37*
G36*
X94000Y371289D02*
X93220Y371134D01*
X92558Y370692D01*
X92116Y370030D01*
X91961Y369250D01*
X92116Y368470D01*
X92558Y367808D01*
X93220Y367366D01*
X94000Y367211D01*
X94780Y367366D01*
X95442Y367808D01*
X95884Y368470D01*
X96039Y369250D01*
X95884Y370030D01*
X95442Y370692D01*
X94780Y371134D01*
X94000Y371289D01*
D02*
G37*
G36*
X88000D02*
X87220Y371134D01*
X86558Y370692D01*
X86116Y370030D01*
X85961Y369250D01*
X86116Y368470D01*
X86558Y367808D01*
X87220Y367366D01*
X88000Y367211D01*
X88780Y367366D01*
X89442Y367808D01*
X89884Y368470D01*
X90039Y369250D01*
X89884Y370030D01*
X89442Y370692D01*
X88780Y371134D01*
X88000Y371289D01*
D02*
G37*
G36*
X82000D02*
X81220Y371134D01*
X80558Y370692D01*
X80116Y370030D01*
X79961Y369250D01*
X80116Y368470D01*
X80558Y367808D01*
X81220Y367366D01*
X82000Y367211D01*
X82780Y367366D01*
X83442Y367808D01*
X83884Y368470D01*
X84039Y369250D01*
X83884Y370030D01*
X83442Y370692D01*
X82780Y371134D01*
X82000Y371289D01*
D02*
G37*
G36*
X76000D02*
X75220Y371134D01*
X74558Y370692D01*
X74116Y370030D01*
X73961Y369250D01*
X74116Y368470D01*
X74558Y367808D01*
X75220Y367366D01*
X76000Y367211D01*
X76780Y367366D01*
X77442Y367808D01*
X77884Y368470D01*
X78039Y369250D01*
X77884Y370030D01*
X77442Y370692D01*
X76780Y371134D01*
X76000Y371289D01*
D02*
G37*
G36*
X-117000Y389568D02*
X-118366Y389297D01*
X-119523Y388523D01*
X-120297Y387365D01*
X-120569Y386000D01*
X-120297Y384634D01*
X-119523Y383476D01*
X-118366Y382703D01*
X-117000Y382431D01*
X-115634Y382703D01*
X-114537Y383436D01*
X-114475Y383459D01*
X-114358Y383569D01*
X-114271Y383637D01*
X-114177Y383698D01*
X-114077Y383751D01*
X-113966Y383798D01*
X-113843Y383838D01*
X-113707Y383871D01*
X-113557Y383896D01*
X-113390Y383911D01*
X-113176Y383918D01*
X-113081Y383961D01*
X-95594D01*
X-89039Y377405D01*
Y346582D01*
X-90212Y346096D01*
X-95558Y351442D01*
X-96219Y351884D01*
X-97000Y352039D01*
X-113081D01*
X-113176Y352082D01*
X-113390Y352088D01*
X-113557Y352104D01*
X-113707Y352129D01*
X-113843Y352162D01*
X-113966Y352202D01*
X-114077Y352249D01*
X-114177Y352302D01*
X-114270Y352362D01*
X-114358Y352430D01*
X-114475Y352540D01*
X-114537Y352564D01*
X-115634Y353297D01*
X-117000Y353568D01*
X-118366Y353297D01*
X-119523Y352523D01*
X-120297Y351365D01*
X-120569Y350000D01*
X-120297Y348634D01*
X-119523Y347476D01*
X-118366Y346703D01*
X-117000Y346431D01*
X-115634Y346703D01*
X-114537Y347436D01*
X-114475Y347459D01*
X-114358Y347569D01*
X-114271Y347637D01*
X-114177Y347698D01*
X-114077Y347751D01*
X-113966Y347798D01*
X-113843Y347838D01*
X-113707Y347871D01*
X-113557Y347896D01*
X-113390Y347911D01*
X-113176Y347918D01*
X-113081Y347961D01*
X-97844D01*
X-92039Y342155D01*
Y335082D01*
X-93212Y334596D01*
X-94919Y336303D01*
X-95581Y336745D01*
X-96146Y336857D01*
X-96345Y336943D01*
X-96557Y336946D01*
X-96909Y336970D01*
X-97014Y336985D01*
X-97095Y337001D01*
X-97130Y337011D01*
X-97137Y337015D01*
X-97477Y337523D01*
X-98634Y338297D01*
X-100000Y338569D01*
X-101366Y338297D01*
X-102523Y337523D01*
X-103297Y336366D01*
X-103569Y335000D01*
X-103297Y333634D01*
X-102523Y332477D01*
X-101366Y331703D01*
X-100000Y331431D01*
X-98634Y331703D01*
X-97477Y332477D01*
X-96314Y331930D01*
X-95039Y330655D01*
Y315927D01*
X-95051Y315907D01*
X-96309Y315200D01*
X-96343Y315221D01*
X-96521Y315450D01*
X-96703Y316366D01*
X-97477Y317523D01*
X-98634Y318297D01*
X-100000Y318569D01*
X-101366Y318297D01*
X-102523Y317523D01*
X-103297Y316366D01*
X-103569Y315000D01*
X-103297Y313634D01*
X-102523Y312477D01*
X-101366Y311703D01*
X-100071Y311446D01*
X-100011Y311418D01*
X-99851Y311413D01*
X-99740Y311399D01*
X-99632Y311376D01*
X-99523Y311343D01*
X-99411Y311297D01*
X-99296Y311239D01*
X-99177Y311166D01*
X-99053Y311077D01*
X-98924Y310971D01*
X-98768Y310824D01*
X-98671Y310787D01*
X-98039Y310155D01*
Y287015D01*
X-97884Y286234D01*
X-97442Y285573D01*
X-86177Y274308D01*
X-85516Y273866D01*
X-84735Y273711D01*
X-46080D01*
X-38677Y266308D01*
X-38677Y266308D01*
X-38016Y265866D01*
X-37235Y265711D01*
X-37235Y265711D01*
X-10500D01*
X-9720Y265866D01*
X-9058Y266308D01*
X-3558Y271808D01*
X-3558Y271808D01*
X-3116Y272470D01*
X-2961Y273250D01*
X-2961Y273250D01*
Y290750D01*
X-3116Y291530D01*
X-3558Y292192D01*
X-3558Y292192D01*
X-7917Y296551D01*
X-7912Y296740D01*
X-7896Y296907D01*
X-7871Y297057D01*
X-7838Y297193D01*
X-7798Y297316D01*
X-7751Y297427D01*
X-7698Y297527D01*
X-7638Y297621D01*
X-7569Y297708D01*
X-7459Y297825D01*
X-7436Y297887D01*
X-6703Y298984D01*
X-6431Y300350D01*
X-6703Y301716D01*
X-7477Y302873D01*
X-8634Y303647D01*
X-10000Y303919D01*
X-11366Y303647D01*
X-12191Y303096D01*
X-13294Y303518D01*
X-13461Y303658D01*
Y319405D01*
X-11329Y321537D01*
X-11232Y321574D01*
X-11076Y321721D01*
X-10947Y321827D01*
X-10823Y321916D01*
X-10704Y321989D01*
X-10588Y322047D01*
X-10477Y322093D01*
X-10368Y322126D01*
X-10260Y322150D01*
X-10149Y322163D01*
X-9989Y322168D01*
X-9929Y322196D01*
X-8634Y322453D01*
X-7477Y323227D01*
X-6703Y324384D01*
X-6431Y325750D01*
X-6703Y327116D01*
X-7477Y328273D01*
X-8634Y329047D01*
X-10000Y329319D01*
X-11366Y329047D01*
X-12523Y328273D01*
X-13297Y327116D01*
X-13554Y325821D01*
X-13582Y325761D01*
X-13587Y325601D01*
X-13601Y325490D01*
X-13624Y325382D01*
X-13657Y325273D01*
X-13703Y325162D01*
X-13761Y325046D01*
X-13834Y324927D01*
X-13923Y324803D01*
X-14029Y324674D01*
X-14176Y324518D01*
X-14213Y324421D01*
X-16942Y321692D01*
X-17384Y321030D01*
X-17539Y320250D01*
Y287237D01*
X-25987Y278789D01*
X-32663D01*
X-40065Y286192D01*
X-40727Y286634D01*
X-41507Y286789D01*
X-80163D01*
X-84961Y291587D01*
Y311342D01*
X-83691Y311727D01*
X-83523Y311477D01*
X-82366Y310703D01*
X-81000Y310431D01*
X-79634Y310703D01*
X-78477Y311477D01*
X-77703Y312634D01*
X-77431Y314000D01*
X-77703Y315366D01*
X-78436Y316463D01*
X-78459Y316525D01*
X-78569Y316642D01*
X-78637Y316729D01*
X-78698Y316822D01*
X-78751Y316923D01*
X-78798Y317034D01*
X-78838Y317157D01*
X-78871Y317293D01*
X-78896Y317443D01*
X-78912Y317610D01*
X-78918Y317824D01*
X-78961Y317919D01*
Y320500D01*
X-79116Y321280D01*
X-79558Y321942D01*
X-79558Y321942D01*
X-81961Y324345D01*
Y339155D01*
X-72405Y348711D01*
X117655D01*
X128711Y337655D01*
Y251082D01*
X127537Y250596D01*
X125442Y252692D01*
X124780Y253134D01*
X124000Y253289D01*
X69250D01*
X68470Y253134D01*
X67808Y252692D01*
X67808Y252692D01*
X61558Y246442D01*
X61116Y245780D01*
X60961Y245000D01*
Y209919D01*
X60918Y209824D01*
X60912Y209610D01*
X60896Y209443D01*
X60871Y209293D01*
X60838Y209157D01*
X60798Y209034D01*
X60751Y208923D01*
X60698Y208823D01*
X60638Y208729D01*
X60569Y208642D01*
X60459Y208525D01*
X60436Y208463D01*
X59703Y207366D01*
X59431Y206000D01*
X59703Y204634D01*
X60477Y203477D01*
X61634Y202703D01*
X63000Y202431D01*
X64366Y202703D01*
X65523Y203477D01*
X66297Y204634D01*
X66569Y206000D01*
X66297Y207366D01*
X65564Y208463D01*
X65541Y208525D01*
X65431Y208642D01*
X65363Y208729D01*
X65302Y208823D01*
X65249Y208923D01*
X65202Y209034D01*
X65162Y209157D01*
X65129Y209293D01*
X65104Y209443D01*
X65088Y209610D01*
X65082Y209824D01*
X65039Y209919D01*
Y244155D01*
X70095Y249211D01*
X123155D01*
X125711Y246655D01*
Y201832D01*
X124537Y201346D01*
X121213Y204671D01*
X121176Y204768D01*
X121029Y204924D01*
X120923Y205053D01*
X120834Y205177D01*
X120761Y205296D01*
X120702Y205411D01*
X120657Y205523D01*
X120624Y205632D01*
X120600Y205740D01*
X120587Y205851D01*
X120581Y206011D01*
X120554Y206071D01*
X120297Y207366D01*
X119523Y208523D01*
X118365Y209297D01*
X117000Y209569D01*
X115770Y209324D01*
X115393Y209409D01*
X114500Y209886D01*
Y218616D01*
X115671Y219787D01*
X115768Y219824D01*
X115924Y219971D01*
X116052Y220077D01*
X116177Y220166D01*
X116296Y220239D01*
X116411Y220297D01*
X116523Y220343D01*
X116632Y220376D01*
X116740Y220399D01*
X116850Y220413D01*
X117011Y220418D01*
X117071Y220446D01*
X118365Y220703D01*
X119523Y221477D01*
X120297Y222634D01*
X120568Y224000D01*
X120297Y225366D01*
X119523Y226523D01*
X118365Y227297D01*
X117000Y227568D01*
X115634Y227297D01*
X114476Y226523D01*
X113703Y225366D01*
X113445Y224071D01*
X113418Y224011D01*
X113413Y223851D01*
X113399Y223740D01*
X113376Y223632D01*
X113348Y223542D01*
X113324Y223507D01*
X112765Y223031D01*
X111500Y223401D01*
Y233616D01*
X115671Y237787D01*
X115768Y237824D01*
X115924Y237971D01*
X116052Y238077D01*
X116177Y238166D01*
X116296Y238239D01*
X116411Y238297D01*
X116523Y238342D01*
X116632Y238376D01*
X116740Y238399D01*
X116850Y238413D01*
X117011Y238418D01*
X117071Y238445D01*
X118365Y238703D01*
X119523Y239477D01*
X120297Y240634D01*
X120568Y242000D01*
X120297Y243366D01*
X119523Y244523D01*
X118365Y245297D01*
X117000Y245569D01*
X115634Y245297D01*
X114476Y244523D01*
X113703Y243366D01*
X113445Y242071D01*
X113418Y242011D01*
X113413Y241851D01*
X113399Y241740D01*
X113376Y241632D01*
X113342Y241523D01*
X113297Y241411D01*
X113239Y241296D01*
X113166Y241177D01*
X113077Y241053D01*
X112971Y240924D01*
X112824Y240768D01*
X112787Y240671D01*
X108019Y235903D01*
X107577Y235241D01*
X107422Y234461D01*
Y204056D01*
X100905Y197539D01*
X25750D01*
X24970Y197384D01*
X24308Y196942D01*
X24308Y196942D01*
X20308Y192942D01*
X19866Y192280D01*
X19711Y191500D01*
Y186000D01*
X19866Y185220D01*
X20308Y184558D01*
X26711Y178155D01*
Y124837D01*
X25163Y123289D01*
X23919D01*
X23824Y123332D01*
X23610Y123338D01*
X23443Y123354D01*
X23293Y123379D01*
X23157Y123412D01*
X23034Y123452D01*
X22923Y123499D01*
X22823Y123552D01*
X22729Y123612D01*
X22642Y123681D01*
X22463Y124744D01*
Y125061D01*
X22523Y125102D01*
X23297Y126259D01*
X23569Y127625D01*
X23297Y128991D01*
X22523Y130148D01*
X21366Y130922D01*
X20000Y131194D01*
X18634Y130922D01*
X17759Y130337D01*
X17603Y130287D01*
X17478Y130181D01*
X17383Y130112D01*
X17281Y130051D01*
X17171Y129998D01*
X17052Y129950D01*
X16921Y129910D01*
X16778Y129878D01*
X16622Y129853D01*
X16452Y129838D01*
X16236Y129832D01*
X16141Y129789D01*
X3595D01*
X-211Y133595D01*
Y143891D01*
X-366Y144672D01*
X-808Y145333D01*
X-10358Y154883D01*
X-11019Y155325D01*
X-11799Y155480D01*
X-30827D01*
X-30827Y155480D01*
X-31607Y155325D01*
X-32269Y154883D01*
X-32269Y154883D01*
X-42981Y144171D01*
X-43423Y143509D01*
X-43578Y142729D01*
Y53056D01*
X-48345Y48289D01*
X-59750D01*
X-59750Y48289D01*
X-60531Y48134D01*
X-61192Y47692D01*
X-61192Y47692D01*
X-67442Y41442D01*
X-67884Y40780D01*
X-68039Y40000D01*
Y33919D01*
X-68082Y33824D01*
X-68088Y33610D01*
X-68104Y33443D01*
X-68129Y33293D01*
X-68162Y33157D01*
X-68202Y33034D01*
X-68249Y32923D01*
X-68302Y32823D01*
X-68363Y32729D01*
X-68431Y32642D01*
X-68541Y32525D01*
X-68564Y32463D01*
X-69297Y31366D01*
X-69353Y31086D01*
X-70648D01*
X-70703Y31366D01*
X-71437Y32463D01*
X-71460Y32525D01*
X-71569Y32642D01*
X-71638Y32729D01*
X-71698Y32823D01*
X-71751Y32923D01*
X-71798Y33034D01*
X-71838Y33157D01*
X-71871Y33293D01*
X-71896Y33443D01*
X-71912Y33610D01*
X-71918Y33824D01*
X-71961Y33919D01*
Y47905D01*
X-62158Y57708D01*
X-62158Y57708D01*
X-61716Y58370D01*
X-61561Y59150D01*
Y75381D01*
X-61518Y75476D01*
X-61512Y75690D01*
X-61496Y75857D01*
X-61471Y76007D01*
X-61438Y76143D01*
X-61398Y76266D01*
X-61351Y76377D01*
X-61298Y76477D01*
X-61238Y76571D01*
X-61169Y76658D01*
X-61059Y76775D01*
X-61036Y76837D01*
X-60303Y77934D01*
X-60031Y79300D01*
X-60303Y80666D01*
X-61077Y81823D01*
X-62234Y82597D01*
X-63600Y82869D01*
X-64966Y82597D01*
X-66123Y81823D01*
X-66897Y80666D01*
X-67168Y79300D01*
X-66897Y77934D01*
X-66164Y76837D01*
X-66140Y76775D01*
X-66031Y76658D01*
X-65963Y76571D01*
X-65902Y76477D01*
X-65849Y76377D01*
X-65802Y76266D01*
X-65762Y76143D01*
X-65729Y76007D01*
X-65704Y75857D01*
X-65688Y75690D01*
X-65682Y75476D01*
X-65639Y75381D01*
Y59995D01*
X-75442Y50192D01*
X-75884Y49530D01*
X-76039Y48750D01*
Y33919D01*
X-76082Y33824D01*
X-76089Y33610D01*
X-76104Y33443D01*
X-76129Y33293D01*
X-76162Y33157D01*
X-76202Y33034D01*
X-76249Y32923D01*
X-76302Y32823D01*
X-76363Y32729D01*
X-76431Y32642D01*
X-76541Y32525D01*
X-76564Y32463D01*
X-77297Y31366D01*
X-77569Y30000D01*
X-77297Y28634D01*
X-76523Y27477D01*
X-75366Y26703D01*
X-74000Y26431D01*
X-72635Y26703D01*
X-71477Y27477D01*
X-70703Y28634D01*
X-70648Y28914D01*
X-69353D01*
X-69297Y28634D01*
X-68524Y27477D01*
X-67366Y26703D01*
X-66000Y26431D01*
X-64634Y26703D01*
X-63477Y27477D01*
X-62703Y28634D01*
X-62432Y30000D01*
X-62703Y31366D01*
X-63436Y32463D01*
X-63460Y32525D01*
X-63569Y32642D01*
X-63638Y32729D01*
X-63698Y32823D01*
X-63751Y32923D01*
X-63798Y33034D01*
X-63838Y33157D01*
X-63871Y33293D01*
X-63896Y33443D01*
X-63912Y33610D01*
X-63918Y33824D01*
X-63961Y33919D01*
Y39155D01*
X-58906Y44211D01*
X-47500D01*
X-46720Y44366D01*
X-46058Y44808D01*
X-40097Y50769D01*
X-39655Y51431D01*
X-39500Y52211D01*
X-39500Y52211D01*
Y62651D01*
X-38327Y63137D01*
X-16039Y40850D01*
Y33919D01*
X-16082Y33824D01*
X-16089Y33610D01*
X-16104Y33443D01*
X-16129Y33293D01*
X-16162Y33157D01*
X-16202Y33034D01*
X-16249Y32923D01*
X-16302Y32823D01*
X-16363Y32729D01*
X-16431Y32642D01*
X-16541Y32525D01*
X-16564Y32463D01*
X-17297Y31366D01*
X-17569Y30000D01*
X-17297Y28634D01*
X-16523Y27477D01*
X-15366Y26703D01*
X-14000Y26431D01*
X-12635Y26703D01*
X-11477Y27477D01*
X-10703Y28634D01*
X-10648Y28914D01*
X-9353D01*
X-9297Y28634D01*
X-8523Y27477D01*
X-7366Y26703D01*
X-6000Y26431D01*
X-4635Y26703D01*
X-3477Y27477D01*
X-2703Y28634D01*
X-2432Y30000D01*
X-2703Y31366D01*
X-3436Y32463D01*
X-3460Y32525D01*
X-3569Y32642D01*
X-3638Y32729D01*
X-3698Y32823D01*
X-3751Y32923D01*
X-3798Y33034D01*
X-3838Y33157D01*
X-3871Y33293D01*
X-3896Y33443D01*
X-3912Y33610D01*
X-3918Y33824D01*
X-3961Y33919D01*
Y41058D01*
X-4116Y41839D01*
X-4558Y42500D01*
X-4558Y42500D01*
X-6154Y44096D01*
X-5668Y45269D01*
X8362D01*
X11961Y41670D01*
Y33919D01*
X11918Y33824D01*
X11911Y33610D01*
X11896Y33443D01*
X11871Y33293D01*
X11838Y33157D01*
X11798Y33034D01*
X11751Y32923D01*
X11698Y32823D01*
X11637Y32729D01*
X11569Y32642D01*
X11459Y32525D01*
X11436Y32463D01*
X10703Y31366D01*
X10431Y30000D01*
X10703Y28634D01*
X11477Y27477D01*
X12634Y26703D01*
X14000Y26431D01*
X15366Y26703D01*
X16523Y27477D01*
X17297Y28634D01*
X17352Y28914D01*
X18647D01*
X18703Y28634D01*
X19476Y27477D01*
X20634Y26703D01*
X22000Y26431D01*
X23365Y26703D01*
X24523Y27477D01*
X25297Y28634D01*
X25352Y28914D01*
X26647D01*
X26703Y28634D01*
X27476Y27477D01*
X28634Y26703D01*
X30000Y26431D01*
X31365Y26703D01*
X32523Y27477D01*
X33297Y28634D01*
X33568Y30000D01*
X33297Y31366D01*
X32564Y32463D01*
X32540Y32525D01*
X32431Y32642D01*
X32362Y32729D01*
X32302Y32823D01*
X32249Y32923D01*
X32202Y33034D01*
X32162Y33157D01*
X32129Y33293D01*
X32104Y33443D01*
X32088Y33610D01*
X32082Y33824D01*
X32039Y33919D01*
Y35000D01*
X31884Y35780D01*
X31442Y36442D01*
X12692Y55192D01*
X12030Y55634D01*
X11250Y55789D01*
X-8241D01*
X-24500Y72049D01*
Y86498D01*
X-24297Y86635D01*
X-22572Y86300D01*
X-22523Y86227D01*
X-21366Y85453D01*
X-20000Y85181D01*
X-18634Y85453D01*
X-17537Y86186D01*
X-17475Y86209D01*
X-17358Y86319D01*
X-17271Y86388D01*
X-17177Y86448D01*
X-17077Y86501D01*
X-16966Y86548D01*
X-16843Y86588D01*
X-16707Y86621D01*
X-16557Y86646D01*
X-16390Y86662D01*
X-16176Y86668D01*
X-16081Y86711D01*
X-11250D01*
X-10470Y86866D01*
X-9808Y87308D01*
X-4058Y93058D01*
X-4058Y93058D01*
X-3616Y93720D01*
X-3461Y94500D01*
Y129418D01*
X-2288Y129904D01*
X1308Y126308D01*
X1308Y126308D01*
X1970Y125866D01*
X2750Y125711D01*
X16012D01*
X16099Y125669D01*
X16112Y125674D01*
X16124Y125668D01*
X16337Y125661D01*
X16500Y125645D01*
X16645Y125620D01*
X16774Y125587D01*
X16889Y125548D01*
X16990Y125502D01*
X17082Y125450D01*
X17165Y125391D01*
X17244Y125324D01*
X17353Y125212D01*
X17520Y124780D01*
Y123802D01*
X17477Y123773D01*
X16703Y122616D01*
X16431Y121250D01*
X16703Y119884D01*
X17477Y118727D01*
X17614Y118635D01*
Y117365D01*
X17477Y117273D01*
X16703Y116116D01*
X16431Y114750D01*
X16703Y113384D01*
X17477Y112227D01*
X17614Y112135D01*
Y110865D01*
X17477Y110773D01*
X16703Y109616D01*
X16431Y108250D01*
X16703Y106884D01*
X17477Y105727D01*
X17614Y105635D01*
Y104365D01*
X17477Y104273D01*
X16703Y103116D01*
X16431Y101750D01*
X16703Y100384D01*
X17477Y99227D01*
X18634Y98453D01*
X20000Y98181D01*
X21366Y98453D01*
X22463Y99186D01*
X22525Y99209D01*
X22642Y99319D01*
X22729Y99388D01*
X22823Y99448D01*
X22923Y99501D01*
X23034Y99548D01*
X23157Y99588D01*
X23293Y99621D01*
X23443Y99646D01*
X23610Y99662D01*
X23824Y99668D01*
X23919Y99711D01*
X24000D01*
X24780Y99866D01*
X25442Y100308D01*
X37538Y112404D01*
X38711Y111918D01*
Y97345D01*
X25655Y84289D01*
X23919D01*
X23824Y84332D01*
X23610Y84338D01*
X23443Y84354D01*
X23293Y84379D01*
X23157Y84412D01*
X23034Y84452D01*
X22923Y84499D01*
X22823Y84552D01*
X22729Y84612D01*
X22642Y84681D01*
X22525Y84791D01*
X22463Y84814D01*
X21366Y85547D01*
X20000Y85819D01*
X18634Y85547D01*
X17477Y84773D01*
X16703Y83616D01*
X16431Y82250D01*
X16703Y80884D01*
X17477Y79727D01*
X18634Y78953D01*
X20000Y78681D01*
X21366Y78953D01*
X22463Y79686D01*
X22525Y79709D01*
X22642Y79819D01*
X22729Y79887D01*
X22823Y79948D01*
X22923Y80001D01*
X23034Y80048D01*
X23157Y80088D01*
X23293Y80121D01*
X23443Y80146D01*
X23610Y80162D01*
X23824Y80168D01*
X23919Y80211D01*
X26500D01*
X27280Y80366D01*
X27942Y80808D01*
X42192Y95058D01*
X42192Y95058D01*
X42634Y95720D01*
X42789Y96500D01*
Y166928D01*
X57323Y181461D01*
X68412D01*
X69192Y181616D01*
X69854Y182058D01*
X73757Y185961D01*
X77081D01*
X77176Y185918D01*
X77390Y185912D01*
X77557Y185896D01*
X77707Y185871D01*
X77843Y185838D01*
X77966Y185798D01*
X78077Y185751D01*
X78177Y185698D01*
X78270Y185638D01*
X78358Y185569D01*
X78475Y185459D01*
X78537Y185436D01*
X79634Y184703D01*
X81000Y184431D01*
X82366Y184703D01*
X83523Y185477D01*
X84297Y186635D01*
X84568Y188000D01*
X84332Y189191D01*
X84629Y189987D01*
X84882Y190461D01*
X111655D01*
X112787Y189329D01*
X112824Y189232D01*
X112971Y189076D01*
X113077Y188947D01*
X113166Y188823D01*
X113239Y188703D01*
X113297Y188588D01*
X113342Y188477D01*
X113376Y188368D01*
X113399Y188260D01*
X113413Y188149D01*
X113418Y187989D01*
X113445Y187929D01*
X113703Y186634D01*
X114476Y185477D01*
X115634Y184703D01*
X117000Y184431D01*
X118365Y184703D01*
X118441Y184753D01*
X119711Y184075D01*
Y178323D01*
X116178Y174789D01*
X84250D01*
X83470Y174634D01*
X82808Y174192D01*
X82808Y174192D01*
X68519Y159903D01*
X68077Y159241D01*
X67922Y158461D01*
Y108055D01*
X59958Y100092D01*
X59516Y99430D01*
X59361Y98650D01*
Y94779D01*
X59318Y94684D01*
X59312Y94470D01*
X59296Y94303D01*
X59271Y94153D01*
X59238Y94017D01*
X59198Y93894D01*
X59151Y93783D01*
X59098Y93683D01*
X59038Y93590D01*
X58969Y93502D01*
X58860Y93385D01*
X58836Y93323D01*
X58103Y92226D01*
X57832Y90860D01*
X58103Y89494D01*
X58877Y88337D01*
X60034Y87563D01*
X61400Y87291D01*
X62766Y87563D01*
X63923Y88337D01*
X64697Y89494D01*
X64969Y90860D01*
X64697Y92226D01*
X63964Y93323D01*
X63941Y93385D01*
X63831Y93502D01*
X63762Y93589D01*
X63702Y93683D01*
X63649Y93783D01*
X63602Y93894D01*
X63562Y94017D01*
X63529Y94153D01*
X63504Y94303D01*
X63488Y94470D01*
X63482Y94684D01*
X63439Y94779D01*
Y97805D01*
X70650Y105016D01*
X71421Y105754D01*
X72365Y105001D01*
X79361Y98005D01*
Y94779D01*
X79318Y94684D01*
X79312Y94470D01*
X79296Y94303D01*
X79271Y94153D01*
X79238Y94017D01*
X79198Y93894D01*
X79151Y93783D01*
X79098Y93683D01*
X79038Y93590D01*
X78969Y93502D01*
X78860Y93385D01*
X78836Y93323D01*
X78103Y92226D01*
X77832Y90860D01*
X78103Y89494D01*
X78877Y88337D01*
X80034Y87563D01*
X81400Y87291D01*
X82766Y87563D01*
X83923Y88337D01*
X84697Y89494D01*
X84969Y90860D01*
X84697Y92226D01*
X83964Y93323D01*
X83940Y93385D01*
X83831Y93502D01*
X83763Y93589D01*
X83702Y93683D01*
X83649Y93783D01*
X83602Y93894D01*
X83562Y94017D01*
X83529Y94153D01*
X83504Y94303D01*
X83488Y94470D01*
X83482Y94684D01*
X83439Y94779D01*
Y98850D01*
X83439Y98850D01*
X83284Y99630D01*
X82842Y100292D01*
X82842Y100292D01*
X75000Y108134D01*
Y156374D01*
X86337Y167711D01*
X89761D01*
X90478Y166546D01*
X90475Y166441D01*
X90236Y166236D01*
X89334Y166057D01*
X88177Y165283D01*
X87403Y164126D01*
X87131Y162760D01*
X87403Y161394D01*
X88177Y160237D01*
X89334Y159463D01*
X90700Y159192D01*
X92066Y159463D01*
X93223Y160237D01*
X93997Y161394D01*
X94254Y162689D01*
X94282Y162749D01*
X94287Y162909D01*
X94301Y163020D01*
X94324Y163128D01*
X94357Y163237D01*
X94403Y163349D01*
X94461Y163464D01*
X94534Y163583D01*
X94623Y163707D01*
X94729Y163836D01*
X94876Y163992D01*
X94913Y164089D01*
X95535Y164711D01*
X118378D01*
X118961Y164000D01*
Y72595D01*
X114765Y68399D01*
X113219D01*
X113124Y68442D01*
X112910Y68448D01*
X112743Y68464D01*
X112593Y68489D01*
X112457Y68522D01*
X112334Y68562D01*
X112223Y68609D01*
X112123Y68662D01*
X112029Y68722D01*
X111942Y68791D01*
X111825Y68901D01*
X111763Y68924D01*
X110666Y69657D01*
X109300Y69929D01*
X107934Y69657D01*
X106777Y68883D01*
X106003Y67726D01*
X105731Y66360D01*
X106003Y64994D01*
X106777Y63837D01*
X107934Y63063D01*
X109300Y62791D01*
X110666Y63063D01*
X111763Y63796D01*
X111825Y63819D01*
X111942Y63929D01*
X112029Y63998D01*
X112123Y64058D01*
X112223Y64111D01*
X112334Y64158D01*
X112457Y64198D01*
X112593Y64231D01*
X112743Y64256D01*
X112910Y64272D01*
X113124Y64278D01*
X113219Y64321D01*
X115610D01*
X116390Y64476D01*
X117052Y64918D01*
X122442Y70308D01*
X122884Y70970D01*
X123039Y71750D01*
Y163155D01*
X132192Y172308D01*
X132634Y172970D01*
X132789Y173750D01*
Y338500D01*
X132634Y339280D01*
X132192Y339942D01*
X119942Y352192D01*
X119280Y352634D01*
X118500Y352789D01*
X-73250D01*
X-74030Y352634D01*
X-74692Y352192D01*
X-83787Y343096D01*
X-84961Y343582D01*
Y378250D01*
X-84961Y378250D01*
X-85116Y379030D01*
X-85558Y379692D01*
X-93308Y387442D01*
X-93969Y387884D01*
X-94750Y388039D01*
X-113081D01*
X-113176Y388082D01*
X-113390Y388088D01*
X-113557Y388104D01*
X-113707Y388129D01*
X-113843Y388162D01*
X-113966Y388202D01*
X-114077Y388249D01*
X-114177Y388302D01*
X-114270Y388362D01*
X-114358Y388430D01*
X-114475Y388540D01*
X-114537Y388563D01*
X-115634Y389297D01*
X-117000Y389568D01*
D02*
G37*
G36*
X81000Y280039D02*
X80219Y279884D01*
X79558Y279442D01*
X79116Y278780D01*
X78961Y278000D01*
X79116Y277220D01*
X79558Y276558D01*
X80219Y276116D01*
X81000Y275961D01*
X81780Y276116D01*
X82442Y276558D01*
X82884Y277220D01*
X83039Y278000D01*
X82884Y278780D01*
X82442Y279442D01*
X81780Y279884D01*
X81000Y280039D01*
D02*
G37*
G36*
X-117000Y226039D02*
X-117780Y225884D01*
X-118442Y225442D01*
X-118884Y224780D01*
X-119039Y224000D01*
X-118884Y223220D01*
X-118442Y222558D01*
X-117780Y222116D01*
X-117000Y221961D01*
X-116220Y222116D01*
X-115558Y222558D01*
X-115116Y223220D01*
X-114961Y224000D01*
X-115116Y224780D01*
X-115558Y225442D01*
X-116220Y225884D01*
X-117000Y226039D01*
D02*
G37*
G36*
X-81000Y190039D02*
X-81780Y189884D01*
X-82442Y189442D01*
X-82884Y188780D01*
X-83039Y188000D01*
X-82884Y187220D01*
X-82442Y186558D01*
X-81780Y186116D01*
X-81000Y185961D01*
X-80220Y186116D01*
X-79558Y186558D01*
X-79116Y187220D01*
X-78961Y188000D01*
X-79116Y188780D01*
X-79558Y189442D01*
X-80220Y189884D01*
X-81000Y190039D01*
D02*
G37*
G36*
X-45000Y190039D02*
X-45780Y189884D01*
X-46442Y189442D01*
X-46884Y188780D01*
X-47039Y188000D01*
X-46884Y187220D01*
X-46442Y186558D01*
X-45780Y186116D01*
X-45000Y185961D01*
X-44220Y186116D01*
X-43558Y186558D01*
X-43116Y187220D01*
X-42961Y188000D01*
X-43116Y188780D01*
X-43558Y189442D01*
X-44220Y189884D01*
X-45000Y190039D01*
D02*
G37*
G36*
X-27000Y190039D02*
X-27780Y189884D01*
X-28442Y189442D01*
X-28884Y188780D01*
X-29039Y188000D01*
X-28884Y187220D01*
X-28442Y186558D01*
X-27780Y186116D01*
X-27000Y185961D01*
X-26220Y186116D01*
X-25558Y186558D01*
X-25116Y187220D01*
X-24961Y188000D01*
X-25116Y188780D01*
X-25558Y189442D01*
X-26220Y189884D01*
X-27000Y190039D01*
D02*
G37*
G36*
X-81000Y172039D02*
X-81780Y171884D01*
X-82442Y171442D01*
X-82884Y170780D01*
X-83039Y170000D01*
X-82884Y169219D01*
X-82442Y168558D01*
X-81780Y168116D01*
X-81000Y167961D01*
X-80220Y168116D01*
X-79558Y168558D01*
X-79116Y169219D01*
X-78961Y170000D01*
X-79116Y170780D01*
X-79558Y171442D01*
X-80220Y171884D01*
X-81000Y172039D01*
D02*
G37*
G36*
X-99000D02*
X-99780Y171884D01*
X-100442Y171442D01*
X-100884Y170780D01*
X-101039Y170000D01*
X-100884Y169219D01*
X-100442Y168558D01*
X-99780Y168116D01*
X-99000Y167961D01*
X-98220Y168116D01*
X-97558Y168558D01*
X-97116Y169219D01*
X-96961Y170000D01*
X-97116Y170780D01*
X-97558Y171442D01*
X-98220Y171884D01*
X-99000Y172039D01*
D02*
G37*
G36*
X132500Y134789D02*
X131720Y134634D01*
X131058Y134192D01*
X130616Y133530D01*
X130461Y132750D01*
X130616Y131970D01*
X131058Y131308D01*
X131720Y130866D01*
X132500Y130711D01*
X133280Y130866D01*
X133942Y131308D01*
X134384Y131970D01*
X134539Y132750D01*
X134384Y133530D01*
X133942Y134192D01*
X133280Y134634D01*
X132500Y134789D01*
D02*
G37*
G36*
X55700Y134664D02*
X54920Y134509D01*
X54258Y134067D01*
X53816Y133405D01*
X53661Y132625D01*
X53816Y131845D01*
X54258Y131183D01*
X54920Y130741D01*
X55700Y130586D01*
X56480Y130741D01*
X57142Y131183D01*
X57584Y131845D01*
X57739Y132625D01*
X57584Y133405D01*
X57142Y134067D01*
X56480Y134509D01*
X55700Y134664D01*
D02*
G37*
G36*
X-105000Y132039D02*
X-105780Y131884D01*
X-106442Y131442D01*
X-106884Y130780D01*
X-107039Y130000D01*
X-106884Y129220D01*
X-106442Y128558D01*
X-105780Y128116D01*
X-105000Y127961D01*
X-104220Y128116D01*
X-103558Y128558D01*
X-103116Y129220D01*
X-102961Y130000D01*
X-103116Y130780D01*
X-103558Y131442D01*
X-104220Y131884D01*
X-105000Y132039D01*
D02*
G37*
G36*
X-115000D02*
X-115780Y131884D01*
X-116442Y131442D01*
X-116884Y130780D01*
X-117039Y130000D01*
X-116884Y129220D01*
X-116442Y128558D01*
X-115780Y128116D01*
X-115000Y127961D01*
X-114220Y128116D01*
X-113558Y128558D01*
X-113116Y129220D01*
X-112961Y130000D01*
X-113116Y130780D01*
X-113558Y131442D01*
X-114220Y131884D01*
X-115000Y132039D01*
D02*
G37*
G36*
X-125000D02*
X-125780Y131884D01*
X-126442Y131442D01*
X-126884Y130780D01*
X-127039Y130000D01*
X-126884Y129220D01*
X-126442Y128558D01*
X-125780Y128116D01*
X-125000Y127961D01*
X-124220Y128116D01*
X-123558Y128558D01*
X-123116Y129220D01*
X-122961Y130000D01*
X-123116Y130780D01*
X-123558Y131442D01*
X-124220Y131884D01*
X-125000Y132039D01*
D02*
G37*
G36*
X81250Y126399D02*
X80470Y126244D01*
X79808Y125802D01*
X79366Y125140D01*
X79211Y124360D01*
X79366Y123580D01*
X79808Y122918D01*
X80470Y122476D01*
X81250Y122321D01*
X82030Y122476D01*
X82692Y122918D01*
X83134Y123580D01*
X83289Y124360D01*
X83134Y125140D01*
X82692Y125802D01*
X82030Y126244D01*
X81250Y126399D01*
D02*
G37*
G36*
X109300Y118399D02*
X108520Y118244D01*
X107858Y117802D01*
X107416Y117140D01*
X107261Y116360D01*
X107416Y115580D01*
X107858Y114918D01*
X108520Y114476D01*
X109300Y114321D01*
X110080Y114476D01*
X110742Y114918D01*
X111184Y115580D01*
X111339Y116360D01*
X111184Y117140D01*
X110742Y117802D01*
X110080Y118244D01*
X109300Y118399D01*
D02*
G37*
G36*
X-113900Y101039D02*
X-114680Y100884D01*
X-115342Y100442D01*
X-115784Y99780D01*
X-115939Y99000D01*
X-115784Y98220D01*
X-115342Y97558D01*
X-114680Y97116D01*
X-113900Y96961D01*
X-113120Y97116D01*
X-112458Y97558D01*
X-112016Y98220D01*
X-111861Y99000D01*
X-112016Y99780D01*
X-112458Y100442D01*
X-113120Y100884D01*
X-113900Y101039D01*
D02*
G37*
G36*
X-96270Y94886D02*
X-96966Y94748D01*
X-98634Y93634D01*
X-99236Y92732D01*
X-100764D01*
X-101366Y93634D01*
X-103034Y94748D01*
X-103730Y94886D01*
Y90000D01*
X-105000D01*
Y88730D01*
X-109886D01*
X-109748Y88034D01*
X-108634Y86366D01*
X-107732Y85764D01*
Y84236D01*
X-108634Y83634D01*
X-109748Y81966D01*
X-109886Y81270D01*
X-105000D01*
Y80000D01*
X-103730D01*
Y75114D01*
X-103034Y75252D01*
X-101366Y76366D01*
X-100764Y77268D01*
X-99236D01*
X-98634Y76366D01*
X-96966Y75252D01*
X-96270Y75114D01*
Y80000D01*
X-95000D01*
Y81270D01*
X-90114D01*
X-90252Y81966D01*
X-91366Y83634D01*
X-92268Y84236D01*
Y85764D01*
X-91366Y86366D01*
X-90252Y88034D01*
X-90114Y88730D01*
X-95000D01*
Y90000D01*
X-96270D01*
Y94886D01*
D02*
G37*
G36*
X-93730D02*
Y91270D01*
X-90114D01*
X-90252Y91966D01*
X-91366Y93634D01*
X-93034Y94748D01*
X-93730Y94886D01*
D02*
G37*
G36*
X-106270D02*
X-106966Y94748D01*
X-108634Y93634D01*
X-109748Y91966D01*
X-109886Y91270D01*
X-106270D01*
Y94886D01*
D02*
G37*
G36*
X-78000Y87739D02*
X-78780Y87584D01*
X-79442Y87142D01*
X-79884Y86480D01*
X-80039Y85700D01*
X-79884Y84920D01*
X-79442Y84258D01*
X-78780Y83816D01*
X-78000Y83661D01*
X-77220Y83816D01*
X-76558Y84258D01*
X-76116Y84920D01*
X-75961Y85700D01*
X-76116Y86480D01*
X-76558Y87142D01*
X-77220Y87584D01*
X-78000Y87739D01*
D02*
G37*
G36*
X132500Y84789D02*
X131720Y84634D01*
X131058Y84192D01*
X130616Y83530D01*
X130461Y82750D01*
X130616Y81970D01*
X131058Y81308D01*
X131720Y80866D01*
X132500Y80711D01*
X133280Y80866D01*
X133942Y81308D01*
X134384Y81970D01*
X134539Y82750D01*
X134384Y83530D01*
X133942Y84192D01*
X133280Y84634D01*
X132500Y84789D01*
D02*
G37*
G36*
X-90114Y78730D02*
X-93730D01*
Y75114D01*
X-93034Y75252D01*
X-91366Y76366D01*
X-90252Y78033D01*
X-90114Y78730D01*
D02*
G37*
G36*
X-106270D02*
X-109886D01*
X-109748Y78033D01*
X-108634Y76366D01*
X-106966Y75252D01*
X-106270Y75114D01*
Y78730D01*
D02*
G37*
G36*
X-55700Y77789D02*
X-56480Y77634D01*
X-57142Y77192D01*
X-57584Y76530D01*
X-57739Y75750D01*
X-57584Y74970D01*
X-57142Y74308D01*
X-56480Y73866D01*
X-55700Y73711D01*
X-54920Y73866D01*
X-54258Y74308D01*
X-53816Y74970D01*
X-53661Y75750D01*
X-53816Y76530D01*
X-54258Y77192D01*
X-54920Y77634D01*
X-55700Y77789D01*
D02*
G37*
G36*
X-98000Y42039D02*
X-98780Y41884D01*
X-99442Y41442D01*
X-99884Y40780D01*
X-100039Y40000D01*
X-99884Y39220D01*
X-99442Y38558D01*
X-98780Y38116D01*
X-98000Y37961D01*
X-97220Y38116D01*
X-96558Y38558D01*
X-96116Y39220D01*
X-95961Y40000D01*
X-96116Y40780D01*
X-96558Y41442D01*
X-97220Y41884D01*
X-98000Y42039D01*
D02*
G37*
G36*
X-106000D02*
X-106781Y41884D01*
X-107442Y41442D01*
X-107884Y40780D01*
X-108039Y40000D01*
X-107884Y39220D01*
X-107442Y38558D01*
X-106781Y38116D01*
X-106000Y37961D01*
X-105220Y38116D01*
X-104558Y38558D01*
X-104116Y39220D01*
X-103961Y40000D01*
X-104116Y40780D01*
X-104558Y41442D01*
X-105220Y41884D01*
X-106000Y42039D01*
D02*
G37*
G36*
X-114000D02*
X-114781Y41884D01*
X-115442Y41442D01*
X-115884Y40780D01*
X-116039Y40000D01*
X-115884Y39220D01*
X-115442Y38558D01*
X-114781Y38116D01*
X-114000Y37961D01*
X-113220Y38116D01*
X-112558Y38558D01*
X-112116Y39220D01*
X-111961Y40000D01*
X-112116Y40780D01*
X-112558Y41442D01*
X-113220Y41884D01*
X-114000Y42039D01*
D02*
G37*
G36*
X46000Y32039D02*
X45219Y31884D01*
X44558Y31442D01*
X44116Y30780D01*
X43961Y30000D01*
X44116Y29220D01*
X44558Y28558D01*
X45219Y28116D01*
X46000Y27961D01*
X46780Y28116D01*
X47442Y28558D01*
X47884Y29220D01*
X48039Y30000D01*
X47884Y30780D01*
X47442Y31442D01*
X46780Y31884D01*
X46000Y32039D01*
D02*
G37*
G36*
X38000D02*
X37220Y31884D01*
X36558Y31442D01*
X36116Y30780D01*
X35961Y30000D01*
X36116Y29220D01*
X36558Y28558D01*
X37220Y28116D01*
X38000Y27961D01*
X38780Y28116D01*
X39442Y28558D01*
X39884Y29220D01*
X40039Y30000D01*
X39884Y30780D01*
X39442Y31442D01*
X38780Y31884D01*
X38000Y32039D01*
D02*
G37*
G36*
X-90000D02*
X-90780Y31884D01*
X-91442Y31442D01*
X-91884Y30780D01*
X-92039Y30000D01*
X-91884Y29220D01*
X-91442Y28558D01*
X-90780Y28116D01*
X-90000Y27961D01*
X-89220Y28116D01*
X-88558Y28558D01*
X-88116Y29220D01*
X-87961Y30000D01*
X-88116Y30780D01*
X-88558Y31442D01*
X-89220Y31884D01*
X-90000Y32039D01*
D02*
G37*
%LPD*%
G36*
X-115062Y387607D02*
X-114899Y387480D01*
X-114725Y387367D01*
X-114541Y387270D01*
X-114346Y387187D01*
X-114140Y387120D01*
X-113923Y387067D01*
X-113696Y387030D01*
X-113457Y387007D01*
X-113209Y387000D01*
Y385000D01*
X-113457Y384992D01*
X-113696Y384970D01*
X-113923Y384932D01*
X-114140Y384880D01*
X-114346Y384812D01*
X-114541Y384730D01*
X-114725Y384632D01*
X-114899Y384520D01*
X-115062Y384392D01*
X-115215Y384250D01*
Y387750D01*
X-115062Y387607D01*
D02*
G37*
G36*
Y351607D02*
X-114899Y351480D01*
X-114725Y351367D01*
X-114541Y351270D01*
X-114346Y351187D01*
X-114140Y351120D01*
X-113923Y351067D01*
X-113696Y351030D01*
X-113457Y351007D01*
X-113209Y351000D01*
Y349000D01*
X-113457Y348992D01*
X-113696Y348970D01*
X-113923Y348932D01*
X-114140Y348880D01*
X-114346Y348812D01*
X-114541Y348730D01*
X-114725Y348632D01*
X-114899Y348520D01*
X-115062Y348392D01*
X-115215Y348250D01*
Y351750D01*
X-115062Y351607D01*
D02*
G37*
G36*
X-97765Y336147D02*
X-97694Y336087D01*
X-97601Y336034D01*
X-97488Y335988D01*
X-97353Y335949D01*
X-97197Y335917D01*
X-97020Y335893D01*
X-96602Y335864D01*
X-96361Y335861D01*
Y333861D01*
X-96626Y333858D01*
X-97280Y333811D01*
X-97452Y333783D01*
X-97601Y333749D01*
X-97726Y333709D01*
X-97828Y333663D01*
X-97907Y333610D01*
X-97963Y333551D01*
X-97814Y336214D01*
X-97765Y336147D01*
D02*
G37*
G36*
X-10025Y323250D02*
X-10234Y323243D01*
X-10439Y323218D01*
X-10641Y323175D01*
X-10841Y323113D01*
X-11037Y323033D01*
X-11231Y322935D01*
X-11421Y322819D01*
X-11608Y322685D01*
X-11793Y322533D01*
X-11974Y322362D01*
X-13388Y323776D01*
X-13217Y323957D01*
X-13065Y324142D01*
X-12931Y324329D01*
X-12815Y324519D01*
X-12717Y324713D01*
X-12637Y324909D01*
X-12575Y325109D01*
X-12532Y325311D01*
X-12507Y325517D01*
X-12500Y325725D01*
X-10025Y323250D01*
D02*
G37*
G36*
X-79992Y317542D02*
X-79970Y317304D01*
X-79932Y317077D01*
X-79880Y316860D01*
X-79812Y316654D01*
X-79730Y316459D01*
X-79632Y316275D01*
X-79520Y316101D01*
X-79392Y315938D01*
X-79250Y315785D01*
X-82750D01*
X-82607Y315938D01*
X-82480Y316101D01*
X-82367Y316275D01*
X-82270Y316459D01*
X-82187Y316654D01*
X-82120Y316860D01*
X-82067Y317077D01*
X-82030Y317304D01*
X-82007Y317542D01*
X-82000Y317791D01*
X-80000D01*
X-79992Y317542D01*
D02*
G37*
G36*
X-97493Y314767D02*
X-97468Y314561D01*
X-97425Y314359D01*
X-97363Y314159D01*
X-97283Y313963D01*
X-97185Y313769D01*
X-97069Y313579D01*
X-96935Y313392D01*
X-96783Y313207D01*
X-96612Y313026D01*
X-98026Y311612D01*
X-98208Y311783D01*
X-98392Y311935D01*
X-98579Y312069D01*
X-98769Y312185D01*
X-98963Y312283D01*
X-99159Y312363D01*
X-99359Y312425D01*
X-99561Y312468D01*
X-99767Y312493D01*
X-99975Y312500D01*
X-97500Y314975D01*
X-97493Y314767D01*
D02*
G37*
G36*
X-8393Y298412D02*
X-8520Y298249D01*
X-8633Y298075D01*
X-8730Y297891D01*
X-8813Y297696D01*
X-8880Y297490D01*
X-8932Y297273D01*
X-8970Y297046D01*
X-8992Y296807D01*
X-9000Y296559D01*
X-11000D01*
X-11007Y296807D01*
X-11030Y297046D01*
X-11068Y297273D01*
X-11120Y297490D01*
X-11187Y297696D01*
X-11270Y297891D01*
X-11367Y298075D01*
X-11480Y298249D01*
X-11608Y298412D01*
X-11750Y298565D01*
X-8250D01*
X-8393Y298412D01*
D02*
G37*
G36*
X-10025Y285150D02*
X-10234Y285143D01*
X-10439Y285118D01*
X-10641Y285075D01*
X-10841Y285013D01*
X-11037Y284933D01*
X-11231Y284835D01*
X-11421Y284719D01*
X-11608Y284585D01*
X-11793Y284433D01*
X-11974Y284262D01*
X-13388Y285676D01*
X-13217Y285858D01*
X-13065Y286042D01*
X-12931Y286229D01*
X-12815Y286419D01*
X-12717Y286613D01*
X-12637Y286809D01*
X-12575Y287009D01*
X-12532Y287211D01*
X-12507Y287416D01*
X-12500Y287625D01*
X-10025Y285150D01*
D02*
G37*
G36*
X-11785Y273200D02*
X-11938Y273342D01*
X-12101Y273470D01*
X-12275Y273582D01*
X-12459Y273680D01*
X-12654Y273762D01*
X-12860Y273830D01*
X-13077Y273883D01*
X-13304Y273920D01*
X-13542Y273943D01*
X-13791Y273950D01*
Y275950D01*
X-13542Y275958D01*
X-13304Y275980D01*
X-13077Y276017D01*
X-12860Y276070D01*
X-12654Y276138D01*
X-12459Y276220D01*
X-12275Y276318D01*
X-12101Y276430D01*
X-11938Y276558D01*
X-11785Y276700D01*
Y273200D01*
D02*
G37*
G36*
X116975Y239500D02*
X116766Y239493D01*
X116561Y239468D01*
X116358Y239425D01*
X116159Y239363D01*
X115962Y239283D01*
X115769Y239185D01*
X115579Y239069D01*
X115392Y238935D01*
X115207Y238783D01*
X115026Y238612D01*
X113612Y240026D01*
X113782Y240207D01*
X113935Y240392D01*
X114069Y240579D01*
X114185Y240769D01*
X114283Y240963D01*
X114363Y241159D01*
X114424Y241359D01*
X114468Y241561D01*
X114493Y241766D01*
X114500Y241975D01*
X116975Y239500D01*
D02*
G37*
G36*
Y221500D02*
X116766Y221493D01*
X116561Y221468D01*
X116358Y221425D01*
X116159Y221363D01*
X115962Y221283D01*
X115769Y221185D01*
X115579Y221069D01*
X115392Y220935D01*
X115207Y220783D01*
X115026Y220612D01*
X113612Y222026D01*
X113782Y222208D01*
X113935Y222392D01*
X114069Y222579D01*
X114185Y222769D01*
X114283Y222963D01*
X114363Y223159D01*
X114424Y223358D01*
X114468Y223561D01*
X114493Y223766D01*
X114500Y223975D01*
X116975Y221500D01*
D02*
G37*
G36*
X64008Y209543D02*
X64030Y209304D01*
X64068Y209077D01*
X64120Y208860D01*
X64187Y208654D01*
X64270Y208459D01*
X64367Y208275D01*
X64480Y208101D01*
X64608Y207938D01*
X64750Y207785D01*
X61250D01*
X61392Y207938D01*
X61520Y208101D01*
X61632Y208275D01*
X61730Y208459D01*
X61813Y208654D01*
X61880Y208860D01*
X61933Y209077D01*
X61970Y209304D01*
X61993Y209543D01*
X62000Y209791D01*
X64000D01*
X64008Y209543D01*
D02*
G37*
G36*
X119507Y205766D02*
X119532Y205561D01*
X119575Y205359D01*
X119637Y205159D01*
X119716Y204963D01*
X119814Y204769D01*
X119930Y204579D01*
X120065Y204392D01*
X120217Y204207D01*
X120388Y204026D01*
X118974Y202612D01*
X118792Y202783D01*
X118608Y202935D01*
X118421Y203069D01*
X118230Y203185D01*
X118037Y203283D01*
X117841Y203363D01*
X117641Y203425D01*
X117439Y203468D01*
X117233Y203493D01*
X117025Y203500D01*
X119500Y205975D01*
X119507Y205766D01*
D02*
G37*
G36*
X115207Y191217D02*
X115392Y191065D01*
X115579Y190931D01*
X115769Y190814D01*
X115962Y190717D01*
X116159Y190637D01*
X116358Y190575D01*
X116561Y190532D01*
X116766Y190507D01*
X116975Y190500D01*
X114500Y188025D01*
X114493Y188234D01*
X114468Y188439D01*
X114424Y188641D01*
X114363Y188841D01*
X114283Y189037D01*
X114185Y189231D01*
X114069Y189421D01*
X113935Y189608D01*
X113782Y189792D01*
X113612Y189974D01*
X115026Y191388D01*
X115207Y191217D01*
D02*
G37*
G36*
X79215Y186250D02*
X79062Y186393D01*
X78899Y186520D01*
X78725Y186633D01*
X78541Y186730D01*
X78345Y186813D01*
X78140Y186880D01*
X77923Y186933D01*
X77695Y186970D01*
X77457Y186993D01*
X77209Y187000D01*
Y189000D01*
X77457Y189008D01*
X77695Y189030D01*
X77923Y189068D01*
X78140Y189120D01*
X78345Y189188D01*
X78541Y189270D01*
X78725Y189368D01*
X78899Y189480D01*
X79062Y189608D01*
X79215Y189750D01*
Y186250D01*
D02*
G37*
G36*
X61214D02*
X61062Y186393D01*
X60899Y186520D01*
X60725Y186633D01*
X60541Y186730D01*
X60346Y186813D01*
X60139Y186880D01*
X59923Y186933D01*
X59696Y186970D01*
X59457Y186993D01*
X59209Y187000D01*
Y189000D01*
X59457Y189008D01*
X59696Y189030D01*
X59923Y189068D01*
X60139Y189120D01*
X60346Y189188D01*
X60541Y189270D01*
X60725Y189368D01*
X60899Y189480D01*
X61062Y189608D01*
X61214Y189750D01*
Y186250D01*
D02*
G37*
G36*
X29507Y187767D02*
X29532Y187561D01*
X29575Y187359D01*
X29637Y187159D01*
X29716Y186963D01*
X29814Y186770D01*
X29931Y186579D01*
X30065Y186392D01*
X30217Y186208D01*
X30388Y186026D01*
X28974Y184612D01*
X28792Y184783D01*
X28608Y184935D01*
X28421Y185070D01*
X28231Y185186D01*
X28037Y185284D01*
X27841Y185363D01*
X27641Y185425D01*
X27439Y185468D01*
X27233Y185493D01*
X27025Y185500D01*
X29500Y187975D01*
X29507Y187767D01*
D02*
G37*
G36*
X94088Y164734D02*
X93917Y164553D01*
X93765Y164368D01*
X93631Y164181D01*
X93514Y163991D01*
X93417Y163797D01*
X93337Y163601D01*
X93275Y163402D01*
X93232Y163199D01*
X93207Y162994D01*
X93200Y162785D01*
X90725Y165260D01*
X90934Y165267D01*
X91139Y165292D01*
X91341Y165335D01*
X91541Y165397D01*
X91737Y165477D01*
X91931Y165575D01*
X92121Y165691D01*
X92308Y165825D01*
X92493Y165977D01*
X92674Y166148D01*
X94088Y164734D01*
D02*
G37*
G36*
X-21785Y126000D02*
X-21938Y126143D01*
X-22101Y126270D01*
X-22275Y126383D01*
X-22459Y126480D01*
X-22654Y126562D01*
X-22860Y126630D01*
X-23077Y126683D01*
X-23304Y126720D01*
X-23542Y126742D01*
X-23791Y126750D01*
Y128750D01*
X-23542Y128757D01*
X-23304Y128780D01*
X-23077Y128818D01*
X-22860Y128870D01*
X-22654Y128938D01*
X-22459Y129020D01*
X-22275Y129117D01*
X-22101Y129230D01*
X-21938Y129358D01*
X-21785Y129500D01*
Y126000D01*
D02*
G37*
G36*
X18129Y125966D02*
X17985Y126115D01*
X17828Y126249D01*
X17660Y126366D01*
X17480Y126468D01*
X17289Y126554D01*
X17086Y126625D01*
X16872Y126679D01*
X16645Y126719D01*
X16408Y126742D01*
X16158Y126750D01*
X16267Y128750D01*
X16516Y128757D01*
X16754Y128778D01*
X16982Y128814D01*
X17201Y128864D01*
X17409Y128928D01*
X17608Y129006D01*
X17797Y129099D01*
X17976Y129206D01*
X18145Y129327D01*
X18304Y129462D01*
X18129Y125966D01*
D02*
G37*
G36*
X21938Y122858D02*
X22101Y122730D01*
X22275Y122618D01*
X22459Y122520D01*
X22654Y122437D01*
X22860Y122370D01*
X23077Y122317D01*
X23304Y122280D01*
X23542Y122257D01*
X23791Y122250D01*
Y120250D01*
X23542Y120243D01*
X23304Y120220D01*
X23077Y120183D01*
X22860Y120130D01*
X22654Y120063D01*
X22459Y119980D01*
X22275Y119882D01*
X22101Y119770D01*
X21938Y119642D01*
X21785Y119500D01*
Y123000D01*
X21938Y122858D01*
D02*
G37*
G36*
X-21785Y119500D02*
X-21938Y119642D01*
X-22101Y119770D01*
X-22275Y119882D01*
X-22459Y119980D01*
X-22654Y120063D01*
X-22860Y120130D01*
X-23077Y120183D01*
X-23304Y120220D01*
X-23542Y120243D01*
X-23791Y120250D01*
Y122250D01*
X-23542Y122257D01*
X-23304Y122280D01*
X-23077Y122317D01*
X-22860Y122370D01*
X-22654Y122437D01*
X-22459Y122520D01*
X-22275Y122618D01*
X-22101Y122730D01*
X-21938Y122858D01*
X-21785Y123000D01*
Y119500D01*
D02*
G37*
G36*
X21510Y116761D02*
X21693Y116669D01*
X21884Y116588D01*
X22082Y116518D01*
X22289Y116459D01*
X22503Y116410D01*
X22726Y116372D01*
X23196Y116329D01*
X23442Y116324D01*
X23963Y114324D01*
X23711Y114315D01*
X23475Y114289D01*
X23253Y114246D01*
X23048Y114185D01*
X22858Y114107D01*
X22683Y114012D01*
X22524Y113899D01*
X22380Y113769D01*
X22252Y113622D01*
X22139Y113457D01*
X21336Y116863D01*
X21510Y116761D01*
D02*
G37*
G36*
X-21785Y113000D02*
X-21938Y113142D01*
X-22101Y113270D01*
X-22275Y113383D01*
X-22459Y113480D01*
X-22654Y113562D01*
X-22860Y113630D01*
X-23077Y113682D01*
X-23304Y113720D01*
X-23542Y113743D01*
X-23791Y113750D01*
Y115750D01*
X-23542Y115758D01*
X-23304Y115780D01*
X-23077Y115817D01*
X-22860Y115870D01*
X-22654Y115938D01*
X-22459Y116020D01*
X-22275Y116117D01*
X-22101Y116230D01*
X-21938Y116357D01*
X-21785Y116500D01*
Y113000D01*
D02*
G37*
G36*
X-10539Y140811D02*
Y112595D01*
X-12845Y110289D01*
X-16081D01*
X-16176Y110332D01*
X-16390Y110338D01*
X-16557Y110354D01*
X-16707Y110379D01*
X-16843Y110412D01*
X-16966Y110452D01*
X-17077Y110499D01*
X-17177Y110552D01*
X-17270Y110612D01*
X-17358Y110681D01*
X-17419Y110738D01*
X-17489Y110834D01*
X-17614Y111229D01*
Y112135D01*
X-17477Y112227D01*
X-16703Y113384D01*
X-16431Y114750D01*
X-16703Y116116D01*
X-17477Y117273D01*
X-17614Y117365D01*
Y118635D01*
X-17477Y118727D01*
X-16703Y119884D01*
X-16431Y121250D01*
X-16703Y122616D01*
X-17477Y123773D01*
X-17614Y123865D01*
Y125135D01*
X-17477Y125227D01*
X-16703Y126384D01*
X-16431Y127750D01*
X-16703Y129116D01*
X-17477Y130273D01*
X-18634Y131047D01*
X-20000Y131319D01*
X-21366Y131047D01*
X-22463Y130314D01*
X-22525Y130290D01*
X-22642Y130181D01*
X-22729Y130112D01*
X-22823Y130052D01*
X-22923Y129999D01*
X-23034Y129952D01*
X-23157Y129912D01*
X-23293Y129879D01*
X-23443Y129854D01*
X-23610Y129838D01*
X-23824Y129832D01*
X-23919Y129789D01*
X-28000D01*
X-28780Y129634D01*
X-29442Y129192D01*
X-29442Y129192D01*
X-32327Y126307D01*
X-33500Y126793D01*
Y139399D01*
X-27497Y145402D01*
X-15129D01*
X-10539Y140811D01*
D02*
G37*
G36*
X21938Y109858D02*
X22101Y109730D01*
X22275Y109618D01*
X22459Y109520D01*
X22654Y109438D01*
X22860Y109370D01*
X23077Y109318D01*
X23304Y109280D01*
X23542Y109257D01*
X23791Y109250D01*
Y107250D01*
X23542Y107242D01*
X23304Y107220D01*
X23077Y107183D01*
X22860Y107130D01*
X22654Y107063D01*
X22459Y106980D01*
X22275Y106882D01*
X22101Y106770D01*
X21938Y106643D01*
X21785Y106500D01*
Y110000D01*
X21938Y109858D01*
D02*
G37*
G36*
X-18062D02*
X-17899Y109730D01*
X-17725Y109618D01*
X-17541Y109520D01*
X-17346Y109438D01*
X-17140Y109370D01*
X-16923Y109318D01*
X-16696Y109280D01*
X-16458Y109257D01*
X-16209Y109250D01*
Y107250D01*
X-16458Y107242D01*
X-16696Y107220D01*
X-16923Y107183D01*
X-17140Y107130D01*
X-17346Y107063D01*
X-17541Y106980D01*
X-17725Y106882D01*
X-17899Y106770D01*
X-18062Y106643D01*
X-18215Y106500D01*
Y110000D01*
X-18062Y109858D01*
D02*
G37*
G36*
X-7539Y108168D02*
Y95345D01*
X-12095Y90789D01*
X-16081D01*
X-16176Y90832D01*
X-16390Y90838D01*
X-16557Y90854D01*
X-16707Y90879D01*
X-16843Y90912D01*
X-16966Y90952D01*
X-17077Y90999D01*
X-17177Y91052D01*
X-17270Y91112D01*
X-17358Y91181D01*
X-17475Y91291D01*
X-17537Y91314D01*
X-18634Y92047D01*
X-20000Y92319D01*
X-21366Y92047D01*
X-22523Y91273D01*
X-22572Y91200D01*
X-24297Y90865D01*
X-24500Y91002D01*
Y105998D01*
X-24297Y106135D01*
X-22572Y105800D01*
X-22523Y105727D01*
X-21366Y104953D01*
X-20000Y104681D01*
X-18634Y104953D01*
X-17537Y105686D01*
X-17475Y105709D01*
X-17358Y105819D01*
X-17271Y105887D01*
X-17177Y105948D01*
X-17077Y106001D01*
X-16966Y106048D01*
X-16843Y106088D01*
X-16707Y106121D01*
X-16557Y106146D01*
X-16390Y106162D01*
X-16176Y106168D01*
X-16081Y106211D01*
X-12000D01*
X-11220Y106366D01*
X-10558Y106808D01*
X-8712Y108654D01*
X-7539Y108168D01*
D02*
G37*
G36*
X21938Y103357D02*
X22101Y103230D01*
X22275Y103118D01*
X22459Y103020D01*
X22654Y102937D01*
X22860Y102870D01*
X23077Y102817D01*
X23304Y102780D01*
X23542Y102758D01*
X23791Y102750D01*
Y100750D01*
X23542Y100743D01*
X23304Y100720D01*
X23077Y100682D01*
X22860Y100630D01*
X22654Y100562D01*
X22459Y100480D01*
X22275Y100382D01*
X22101Y100270D01*
X21938Y100142D01*
X21785Y100000D01*
Y103500D01*
X21938Y103357D01*
D02*
G37*
G36*
X82408Y94403D02*
X82430Y94164D01*
X82467Y93937D01*
X82520Y93720D01*
X82587Y93514D01*
X82670Y93319D01*
X82767Y93135D01*
X82880Y92961D01*
X83007Y92798D01*
X83150Y92645D01*
X79650D01*
X79793Y92798D01*
X79920Y92961D01*
X80033Y93135D01*
X80130Y93319D01*
X80212Y93514D01*
X80280Y93720D01*
X80333Y93937D01*
X80370Y94164D01*
X80393Y94403D01*
X80400Y94651D01*
X82400D01*
X82408Y94403D01*
D02*
G37*
G36*
X62407D02*
X62430Y94164D01*
X62467Y93937D01*
X62520Y93720D01*
X62587Y93514D01*
X62670Y93319D01*
X62768Y93135D01*
X62880Y92961D01*
X63007Y92798D01*
X63150Y92645D01*
X59650D01*
X59792Y92798D01*
X59920Y92961D01*
X60033Y93135D01*
X60130Y93319D01*
X60212Y93514D01*
X60280Y93720D01*
X60332Y93937D01*
X60370Y94164D01*
X60392Y94403D01*
X60400Y94651D01*
X62400D01*
X62407Y94403D01*
D02*
G37*
G36*
X-18062Y90358D02*
X-17899Y90230D01*
X-17725Y90118D01*
X-17541Y90020D01*
X-17346Y89937D01*
X-17140Y89870D01*
X-16923Y89817D01*
X-16696Y89780D01*
X-16458Y89757D01*
X-16209Y89750D01*
Y87750D01*
X-16458Y87743D01*
X-16696Y87720D01*
X-16923Y87683D01*
X-17140Y87630D01*
X-17346Y87563D01*
X-17541Y87480D01*
X-17725Y87382D01*
X-17899Y87270D01*
X-18062Y87142D01*
X-18215Y87000D01*
Y90500D01*
X-18062Y90358D01*
D02*
G37*
G36*
X21938Y83857D02*
X22101Y83730D01*
X22275Y83617D01*
X22459Y83520D01*
X22654Y83438D01*
X22860Y83370D01*
X23077Y83317D01*
X23304Y83280D01*
X23542Y83258D01*
X23791Y83250D01*
Y81250D01*
X23542Y81243D01*
X23304Y81220D01*
X23077Y81182D01*
X22860Y81130D01*
X22654Y81062D01*
X22459Y80980D01*
X22275Y80883D01*
X22101Y80770D01*
X21938Y80642D01*
X21785Y80500D01*
Y84000D01*
X21938Y83857D01*
D02*
G37*
G36*
X-61993Y77362D02*
X-62120Y77199D01*
X-62232Y77025D01*
X-62330Y76841D01*
X-62413Y76646D01*
X-62480Y76440D01*
X-62533Y76223D01*
X-62570Y75996D01*
X-62593Y75757D01*
X-62600Y75509D01*
X-64600D01*
X-64608Y75757D01*
X-64630Y75996D01*
X-64668Y76223D01*
X-64720Y76440D01*
X-64788Y76646D01*
X-64870Y76841D01*
X-64967Y77025D01*
X-65080Y77199D01*
X-65208Y77362D01*
X-65350Y77515D01*
X-61850D01*
X-61993Y77362D01*
D02*
G37*
G36*
X111238Y67968D02*
X111401Y67840D01*
X111575Y67727D01*
X111759Y67630D01*
X111954Y67547D01*
X112160Y67480D01*
X112377Y67428D01*
X112604Y67390D01*
X112843Y67368D01*
X113091Y67360D01*
Y65360D01*
X112843Y65353D01*
X112604Y65330D01*
X112377Y65293D01*
X112160Y65240D01*
X111954Y65173D01*
X111759Y65090D01*
X111575Y64992D01*
X111401Y64880D01*
X111238Y64752D01*
X111085Y64610D01*
Y68110D01*
X111238Y67968D01*
D02*
G37*
G36*
X31007Y33542D02*
X31030Y33304D01*
X31067Y33077D01*
X31120Y32860D01*
X31187Y32654D01*
X31270Y32459D01*
X31367Y32275D01*
X31480Y32101D01*
X31607Y31938D01*
X31750Y31785D01*
X28250D01*
X28392Y31938D01*
X28520Y32101D01*
X28632Y32275D01*
X28730Y32459D01*
X28812Y32654D01*
X28880Y32860D01*
X28932Y33077D01*
X28970Y33304D01*
X28992Y33542D01*
X29000Y33791D01*
X31000D01*
X31007Y33542D01*
D02*
G37*
G36*
X23007D02*
X23030Y33304D01*
X23067Y33077D01*
X23120Y32860D01*
X23187Y32654D01*
X23270Y32459D01*
X23367Y32275D01*
X23480Y32101D01*
X23607Y31938D01*
X23750Y31785D01*
X20250D01*
X20392Y31938D01*
X20520Y32101D01*
X20632Y32275D01*
X20730Y32459D01*
X20812Y32654D01*
X20880Y32860D01*
X20932Y33077D01*
X20970Y33304D01*
X20992Y33542D01*
X21000Y33791D01*
X23000D01*
X23007Y33542D01*
D02*
G37*
G36*
X15007D02*
X15030Y33304D01*
X15067Y33077D01*
X15120Y32860D01*
X15187Y32654D01*
X15270Y32459D01*
X15367Y32275D01*
X15480Y32101D01*
X15607Y31938D01*
X15750Y31785D01*
X12250D01*
X12392Y31938D01*
X12520Y32101D01*
X12632Y32275D01*
X12730Y32459D01*
X12812Y32654D01*
X12880Y32860D01*
X12932Y33077D01*
X12970Y33304D01*
X12992Y33542D01*
X13000Y33791D01*
X15000D01*
X15007Y33542D01*
D02*
G37*
G36*
X-4993D02*
X-4970Y33304D01*
X-4933Y33077D01*
X-4880Y32860D01*
X-4813Y32654D01*
X-4730Y32459D01*
X-4633Y32275D01*
X-4520Y32101D01*
X-4393Y31938D01*
X-4250Y31785D01*
X-7750D01*
X-7608Y31938D01*
X-7480Y32101D01*
X-7368Y32275D01*
X-7270Y32459D01*
X-7188Y32654D01*
X-7120Y32860D01*
X-7068Y33077D01*
X-7030Y33304D01*
X-7008Y33542D01*
X-7000Y33791D01*
X-5000D01*
X-4993Y33542D01*
D02*
G37*
G36*
X-12993D02*
X-12970Y33304D01*
X-12933Y33077D01*
X-12880Y32860D01*
X-12813Y32654D01*
X-12730Y32459D01*
X-12633Y32275D01*
X-12520Y32101D01*
X-12393Y31938D01*
X-12250Y31785D01*
X-15750D01*
X-15608Y31938D01*
X-15480Y32101D01*
X-15368Y32275D01*
X-15270Y32459D01*
X-15188Y32654D01*
X-15120Y32860D01*
X-15068Y33077D01*
X-15030Y33304D01*
X-15008Y33542D01*
X-15000Y33791D01*
X-13000D01*
X-12993Y33542D01*
D02*
G37*
G36*
X-64993D02*
X-64970Y33304D01*
X-64933Y33077D01*
X-64880Y32860D01*
X-64813Y32654D01*
X-64730Y32459D01*
X-64633Y32275D01*
X-64520Y32101D01*
X-64393Y31938D01*
X-64250Y31785D01*
X-67750D01*
X-67608Y31938D01*
X-67480Y32101D01*
X-67368Y32275D01*
X-67270Y32459D01*
X-67188Y32654D01*
X-67120Y32860D01*
X-67068Y33077D01*
X-67030Y33304D01*
X-67008Y33542D01*
X-67000Y33791D01*
X-65000D01*
X-64993Y33542D01*
D02*
G37*
G36*
X-72993D02*
X-72970Y33304D01*
X-72933Y33077D01*
X-72880Y32860D01*
X-72813Y32654D01*
X-72730Y32459D01*
X-72633Y32275D01*
X-72520Y32101D01*
X-72393Y31938D01*
X-72250Y31785D01*
X-75750D01*
X-75608Y31938D01*
X-75480Y32101D01*
X-75368Y32275D01*
X-75270Y32459D01*
X-75188Y32654D01*
X-75120Y32860D01*
X-75068Y33077D01*
X-75030Y33304D01*
X-75008Y33542D01*
X-75000Y33791D01*
X-73000D01*
X-72993Y33542D01*
D02*
G37*
%LPC*%
G36*
X-20000Y141289D02*
X-20780Y141134D01*
X-21442Y140692D01*
X-21884Y140030D01*
X-22039Y139250D01*
X-21884Y138470D01*
X-21442Y137808D01*
X-20780Y137366D01*
X-20000Y137211D01*
X-19220Y137366D01*
X-18558Y137808D01*
X-18116Y138470D01*
X-17961Y139250D01*
X-18116Y140030D01*
X-18558Y140692D01*
X-19220Y141134D01*
X-20000Y141289D01*
D02*
G37*
%LPD*%
D10*
X19875Y127750D02*
X20000Y127625D01*
X2750Y127750D02*
X19875D01*
X63000Y206000D02*
Y245000D01*
X69250Y251250D01*
X124000D01*
X127750Y247500D01*
X117000Y206000D02*
X124750Y198250D01*
X117022Y172750D02*
X121750Y177478D01*
X121000Y164000D02*
X130750Y173750D01*
Y338500D01*
X119507Y166750D02*
X127750Y174993D01*
X121750Y177478D02*
Y193000D01*
X124750Y176235D02*
Y198250D01*
X118500Y350750D02*
X130750Y338500D01*
X127750Y174993D02*
Y247500D01*
X112461Y202289D02*
X121750Y193000D01*
X118265Y169750D02*
X124750Y176235D01*
X56993Y192500D02*
X112500D01*
X117000Y188000D01*
X-73250Y350750D02*
X118500D01*
X109461Y234461D02*
X117000Y242000D01*
X112461Y219461D02*
X117000Y224000D01*
X112461Y202289D02*
Y219461D01*
X101750Y195500D02*
X109461Y203211D01*
Y234461D01*
X25750Y195500D02*
X101750D01*
X21750Y191500D02*
X25750Y195500D01*
X21750Y186000D02*
Y191500D01*
X-24750Y114750D02*
X-20000D01*
X-26539Y112961D02*
X-24750Y114750D01*
X-26539Y71204D02*
Y112961D01*
X-38539Y141486D02*
X-29584Y150441D01*
X-28342Y147441D02*
X-14285D01*
X-35539Y140243D02*
X-28342Y147441D01*
X-41539Y142729D02*
X-30827Y153441D01*
X-11799D01*
X-2250Y143891D01*
X-13042Y150441D02*
X-5500Y142899D01*
X-29584Y150441D02*
X-13042D01*
X-14285Y147441D02*
X-8500Y141656D01*
X-2250Y132750D02*
Y143891D01*
X-5500Y94500D02*
Y142899D01*
X-8500Y111750D02*
Y141656D01*
X90700Y162760D02*
X94690Y166750D01*
X119507D01*
X-100000Y335000D02*
X-99861Y334861D01*
X-93000Y291993D02*
Y331500D01*
X-99861Y334861D02*
X-96361D01*
X-93000Y331500D01*
X-84000Y323500D02*
Y340000D01*
X-81000Y314000D02*
Y320500D01*
X-84000Y323500D02*
X-81000Y320500D01*
X21750Y186000D02*
X28750Y179000D01*
X27000Y188000D02*
X31750Y183250D01*
X115172Y169750D02*
X118265D01*
X121000Y71750D02*
Y164000D01*
X84250Y172750D02*
X117022D01*
X-84000Y340000D02*
X-73250Y350750D01*
X-93000Y288257D02*
X-83493Y278750D01*
X-96000Y287015D02*
X-84735Y275750D01*
X-87000Y290743D02*
X-81007Y284750D01*
X-90000Y289500D02*
X-82250Y281750D01*
X-93000Y288257D02*
Y291993D01*
X-100000Y315000D02*
X-96000Y311000D01*
Y287015D02*
Y311000D01*
X-94750Y386000D02*
X-87000Y378250D01*
Y290743D02*
Y378250D01*
X-97000Y350000D02*
X-90000Y343000D01*
Y289500D02*
Y343000D01*
X115610Y66360D02*
X121000Y71750D01*
X109300Y66360D02*
X115610D01*
X-25143Y276750D02*
X-15500Y286393D01*
Y320250D02*
X-10000Y325750D01*
X-15500Y286393D02*
Y320250D01*
X-33507Y276750D02*
X-25143D01*
X-41507Y284750D02*
X-33507Y276750D01*
X-81007Y284750D02*
X-41507D01*
X-42750Y281750D02*
X-34750Y273750D01*
X-45235Y275750D02*
X-37235Y267750D01*
X-84735Y275750D02*
X-45235D01*
X-79757Y278750D02*
X-43993D01*
X-82250Y281750D02*
X-42750D01*
X-43993Y278750D02*
X-35993Y270750D01*
X-117000Y386000D02*
X-94750D01*
X-83493Y278750D02*
X-79757D01*
X-117000Y350000D02*
X-97000D01*
X-10500Y267750D02*
X-5000Y273250D01*
X-37235Y267750D02*
X-10500D01*
X-5000Y273250D02*
Y290750D01*
X-18300Y274950D02*
X-10000D01*
Y295750D02*
X-5000Y290750D01*
X-10000Y295750D02*
Y300350D01*
X-23900Y273750D02*
X-10000Y287650D01*
X-22500Y270750D02*
X-18300Y274950D01*
X-35993Y270750D02*
X-22500D01*
X-34750Y273750D02*
X-23900D01*
X85493Y169750D02*
X115172D01*
X72961Y157218D02*
X85493Y169750D01*
X69961Y158461D02*
X84250Y172750D01*
X69961Y107211D02*
Y158461D01*
X72961Y107289D02*
Y157218D01*
X61400Y98650D02*
X69961Y107211D01*
X61400Y90860D02*
Y98650D01*
X72961Y107289D02*
X81400Y98850D01*
X68412Y183500D02*
X72912Y188000D01*
X56478Y183500D02*
X68412D01*
X81400Y90860D02*
Y98850D01*
X28750Y123993D02*
Y179000D01*
X20000Y101750D02*
X24000D01*
X37750Y115500D02*
Y169015D01*
X24000Y101750D02*
X37750Y115500D01*
X24250Y108250D02*
X34750Y118750D01*
X20000Y108250D02*
X24250D01*
X34750Y118750D02*
Y170257D01*
X20574Y115324D02*
X24324D01*
X31750Y122750D02*
Y183250D01*
X26007Y121250D02*
X28750Y123993D01*
X24324Y115324D02*
X31750Y122750D01*
X20000Y121250D02*
X26007D01*
X26500Y82250D02*
X40750Y96500D01*
Y167772D02*
X56478Y183500D01*
X34750Y170257D02*
X56993Y192500D01*
X37750Y169015D02*
X56735Y188000D01*
X40750Y96500D02*
Y167772D01*
X72912Y188000D02*
X81000D01*
X56735D02*
X63000D01*
X20000Y114750D02*
X20574Y115324D01*
X20000Y82250D02*
X26500D01*
X-66000Y30000D02*
Y40000D01*
X-47500Y46250D02*
X-41539Y52211D01*
Y142729D01*
X-38539Y66234D02*
X-14000Y41694D01*
X-35539Y67476D02*
X-12371Y44308D01*
X-35539Y67476D02*
Y140243D01*
X-29539Y69962D02*
X-9886Y50308D01*
X-29539Y69962D02*
Y118211D01*
X-32539Y68719D02*
X-11128Y47308D01*
X-38539Y66234D02*
Y141486D01*
X-26539Y71204D02*
X-9085Y53750D01*
X-32539Y68719D02*
Y123211D01*
X-59750Y46250D02*
X-47500D01*
X-66000Y40000D02*
X-59750Y46250D01*
X-2250Y132750D02*
X2750Y127750D01*
X-28000D02*
X-20000D01*
X-32539Y123211D02*
X-28000Y127750D01*
X-26500Y121250D02*
X-20000D01*
X-29539Y118211D02*
X-26500Y121250D01*
X-20000Y108250D02*
X-12000D01*
X-63600Y59150D02*
Y79300D01*
X-74000Y48750D02*
X-63600Y59150D01*
X-74000Y30000D02*
Y48750D01*
X-20000Y88750D02*
X-11250D01*
X-5500Y94500D01*
X-12000Y108250D02*
X-8500Y111750D01*
X-14000Y30000D02*
Y41694D01*
X-9085Y53750D02*
X11250D01*
X-11128Y47308D02*
X9207D01*
X-9886Y50308D02*
X10449D01*
X-12371Y44308D02*
X-9250D01*
X-6000Y30000D02*
Y41058D01*
X-9250Y44308D02*
X-6000Y41058D01*
X22000Y30000D02*
Y38758D01*
X10449Y50308D02*
X22000Y38758D01*
X9207Y47308D02*
X14000Y42515D01*
X11250Y53750D02*
X30000Y35000D01*
Y30000D02*
Y35000D01*
X14000Y30000D02*
Y42515D01*
D53*
X-142500Y40000D02*
D03*
Y50000D02*
D03*
Y60000D02*
D03*
Y70000D02*
D03*
Y80000D02*
D03*
Y90000D02*
D03*
Y110000D02*
D03*
Y120000D02*
D03*
Y130000D02*
D03*
Y100000D02*
D03*
Y140000D02*
D03*
Y150000D02*
D03*
X142500Y40000D02*
D03*
Y60000D02*
D03*
Y50000D02*
D03*
Y150000D02*
D03*
Y110000D02*
D03*
Y140000D02*
D03*
Y130000D02*
D03*
Y120000D02*
D03*
Y70000D02*
D03*
Y100000D02*
D03*
Y90000D02*
D03*
Y80000D02*
D03*
D54*
X-121000Y480500D02*
D03*
X121000D02*
D03*
D55*
X-95000Y90000D02*
D03*
X-100000Y85000D02*
D03*
X-105000Y80000D02*
D03*
Y90000D02*
D03*
X-95000Y80000D02*
D03*
X20000Y127625D02*
D03*
X56000Y163893D02*
D03*
X8750Y159500D02*
D03*
X-87250Y107000D02*
D03*
X-69000Y103750D02*
D03*
X117000Y188000D02*
D03*
X-62500Y187750D02*
D03*
X8750Y134250D02*
D03*
X82182Y139682D02*
D03*
X90700Y162760D02*
D03*
X114750Y159500D02*
D03*
X-81000Y314000D02*
D03*
X21750Y488750D02*
D03*
X28000Y487500D02*
D03*
X34500Y483750D02*
D03*
X39500Y478750D02*
D03*
X43000Y472750D02*
D03*
X25000Y466000D02*
D03*
X45000Y466000D02*
D03*
Y459000D02*
D03*
Y452000D02*
D03*
X27000Y459000D02*
D03*
Y452000D02*
D03*
X-17000Y490000D02*
D03*
X-10000D02*
D03*
X-3000D02*
D03*
X18000Y470000D02*
D03*
X11000D02*
D03*
X4000D02*
D03*
X-3000D02*
D03*
X-10000D02*
D03*
X-17000D02*
D03*
X-24000D02*
D03*
X-31000D02*
D03*
X-38000D02*
D03*
X-45000D02*
D03*
Y490000D02*
D03*
X27000Y188000D02*
D03*
X-81000Y351750D02*
D03*
X-99500Y277750D02*
D03*
X-117000Y106250D02*
D03*
X-99500Y374000D02*
D03*
X-63500Y403250D02*
D03*
X20500Y360000D02*
D03*
X-78250Y332000D02*
D03*
X-24500Y343500D02*
D03*
X-25250Y296250D02*
D03*
X56750Y246250D02*
D03*
X-27250Y223500D02*
D03*
X8750Y206000D02*
D03*
X27500Y208250D02*
D03*
X98500Y179250D02*
D03*
X98750Y206000D02*
D03*
X62500Y171750D02*
D03*
X102500Y35500D02*
D03*
X-28750Y45000D02*
D03*
X-54750Y39250D02*
D03*
X-80750Y37750D02*
D03*
X-78250Y71000D02*
D03*
X-15000Y133500D02*
D03*
X-14750Y98750D02*
D03*
X-11750Y69000D02*
D03*
X42750Y61500D02*
D03*
X112000Y104500D02*
D03*
X71250Y97750D02*
D03*
X8750Y91500D02*
D03*
Y114750D02*
D03*
X-100000Y315000D02*
D03*
X-10000Y274950D02*
D03*
Y287650D02*
D03*
X-20000Y114750D02*
D03*
Y121250D02*
D03*
Y108250D02*
D03*
X61400Y90860D02*
D03*
X81400D02*
D03*
X-63600Y79300D02*
D03*
X-66000Y30000D02*
D03*
X-74000D02*
D03*
X20000Y108250D02*
D03*
Y121250D02*
D03*
Y114750D02*
D03*
Y101750D02*
D03*
Y82250D02*
D03*
X-20000Y127750D02*
D03*
Y88750D02*
D03*
X109300Y66360D02*
D03*
X-10000Y325750D02*
D03*
Y300350D02*
D03*
X-100000Y335000D02*
D03*
X63000Y206000D02*
D03*
X-6000Y30000D02*
D03*
X-14000D02*
D03*
X30000D02*
D03*
X22000D02*
D03*
X14000D02*
D03*
X-117000Y368000D02*
D03*
Y350000D02*
D03*
X117000Y206000D02*
D03*
Y224000D02*
D03*
Y242000D02*
D03*
X-117000Y386000D02*
D03*
X63000Y188000D02*
D03*
X81000D02*
D03*
M02*
