G04*
G04 #@! TF.GenerationSoftware,Altium Limited,Altium Designer,24.7.2 (38)*
G04*
G04 Layer_Color=16711935*
%FSLAX44Y44*%
%MOMM*%
G71*
G04*
G04 #@! TF.SameCoordinates,0CC62651-4E98-4C2C-A616-4BC4541718FC*
G04*
G04*
G04 #@! TF.FilePolarity,Negative*
G04*
G01*
G75*
%ADD28R,26.2000X2.9250*%
%ADD29R,1.0000X42.0000*%
%ADD35R,0.5400X0.4900*%
%ADD36R,0.6200X2.3200*%
%ADD44R,0.4900X0.5400*%
%ADD45C,0.7700*%
%ADD46R,5.3200X5.3200*%
%ADD63R,1.6800X1.6800*%
%ADD65R,1.0000X8.8500*%
%ADD66R,1.0000X19.6500*%
%ADD67C,1.5200*%
%ADD68R,1.0200X0.7200*%
%ADD69R,1.2500X0.7500*%
%ADD70R,1.8000X1.4000*%
%ADD71R,1.4000X0.5500*%
%ADD72R,1.8400X1.1800*%
D28*
X-0Y12125D02*
D03*
D29*
X142500Y244500D02*
D03*
D35*
X61500Y405700D02*
D03*
Y414300D02*
D03*
X121500Y405700D02*
D03*
Y414300D02*
D03*
D36*
X118000Y14000D02*
D03*
X110000D02*
D03*
X102000D02*
D03*
X94000D02*
D03*
X86000D02*
D03*
X78000D02*
D03*
X70000D02*
D03*
X62000D02*
D03*
X54000D02*
D03*
X46000D02*
D03*
X38000D02*
D03*
X30000D02*
D03*
X22000D02*
D03*
X14000D02*
D03*
X6000D02*
D03*
X-2000D02*
D03*
X-10000D02*
D03*
X-18000D02*
D03*
X-58000D02*
D03*
X-66000D02*
D03*
X-74000D02*
D03*
X-82000D02*
D03*
X-90000D02*
D03*
X-98000D02*
D03*
X-106000D02*
D03*
X-114000D02*
D03*
D44*
X29300Y338500D02*
D03*
X20700D02*
D03*
X29300Y322637D02*
D03*
X20700D02*
D03*
X29300Y314706D02*
D03*
X20700D02*
D03*
X29300Y282981D02*
D03*
X20700D02*
D03*
X29300Y298844D02*
D03*
X20700D02*
D03*
Y330519D02*
D03*
X29300D02*
D03*
X20700Y306725D02*
D03*
X29300D02*
D03*
X20700Y275000D02*
D03*
X29300D02*
D03*
X20700Y290863D02*
D03*
X29300D02*
D03*
D45*
X-142500Y40000D02*
D03*
Y50000D02*
D03*
Y60000D02*
D03*
Y70000D02*
D03*
Y80000D02*
D03*
Y90000D02*
D03*
Y110000D02*
D03*
Y120000D02*
D03*
Y130000D02*
D03*
Y100000D02*
D03*
Y140000D02*
D03*
Y150000D02*
D03*
X142500Y40000D02*
D03*
Y60000D02*
D03*
Y50000D02*
D03*
Y150000D02*
D03*
Y110000D02*
D03*
Y140000D02*
D03*
Y130000D02*
D03*
Y120000D02*
D03*
Y70000D02*
D03*
Y100000D02*
D03*
Y90000D02*
D03*
Y80000D02*
D03*
D46*
X-121000Y480500D02*
D03*
X121000D02*
D03*
D63*
X-100000Y85000D02*
D03*
D65*
X-142500Y410250D02*
D03*
D66*
X-142500Y132750D02*
D03*
D67*
X-20000Y200000D02*
D03*
X40000D02*
D03*
X100000Y280000D02*
D03*
Y240000D02*
D03*
X-50000Y120000D02*
D03*
Y90000D02*
D03*
X10000Y50000D02*
D03*
X35000D02*
D03*
X60000D02*
D03*
Y120000D02*
D03*
X-100000Y60000D02*
D03*
X-80000Y130000D02*
D03*
X-50000Y60000D02*
D03*
X85000Y50000D02*
D03*
X110000D02*
D03*
X-110000Y200000D02*
D03*
X-80000D02*
D03*
X-50000D02*
D03*
X-110000Y160000D02*
D03*
X-80000D02*
D03*
D68*
X95000Y381300D02*
D03*
Y397050D02*
D03*
X75000Y381300D02*
D03*
Y397050D02*
D03*
D69*
X1800Y274950D02*
D03*
Y287650D02*
D03*
Y300350D02*
D03*
Y313050D02*
D03*
Y325750D02*
D03*
Y338450D02*
D03*
D70*
X-135500Y238950D02*
D03*
Y357550D02*
D03*
D71*
X-39900Y235450D02*
D03*
X-19900D02*
D03*
X-39900Y360850D02*
D03*
X-19900D02*
D03*
D72*
X115000Y365250D02*
D03*
Y394750D02*
D03*
X55000Y365250D02*
D03*
Y394750D02*
D03*
M02*
