G04*
G04 #@! TF.GenerationSoftware,Altium Limited,Altium Designer,24.7.2 (38)*
G04*
G04 Layer_Color=8388736*
%FSLAX44Y44*%
%MOMM*%
G71*
G04*
G04 #@! TF.SameCoordinates,A75C48B7-FB71-4035-B4F6-A3BD68B30F85*
G04*
G04*
G04 #@! TF.FilePolarity,Positive*
G04*
G01*
G75*
%ADD13C,0.0500*%
%ADD74C,0.0100*%
%ADD75C,0.0200*%
D13*
X-90000Y460000D02*
X-50000D01*
X-90000Y500000D02*
X-50000D01*
X-90000Y460000D02*
Y500000D01*
X-50000Y460000D02*
Y500000D01*
X-86500Y113000D02*
Y147000D01*
Y113000D02*
X-68500D01*
X-86500Y147000D02*
X-68500D01*
Y113000D02*
Y147000D01*
D74*
X-118000Y67000D02*
Y103000D01*
X-82000Y67000D02*
Y103000D01*
X-118000Y67000D02*
X-82000D01*
X-118000Y103000D02*
X-82000D01*
X-40000Y65000D02*
X40000D01*
X-40000Y145000D02*
X40000D01*
Y65000D02*
Y145000D01*
X-40000Y65000D02*
Y145000D01*
X61000Y78860D02*
Y93860D01*
X49000D02*
X61000D01*
X49000Y78860D02*
Y93860D01*
Y78860D02*
X61000D01*
X-126250Y97500D02*
X-118750D01*
X-126250Y82500D02*
Y97500D01*
X-118750Y82500D02*
Y97500D01*
X-126250Y82500D02*
X-118750D01*
X-97050Y110000D02*
Y150000D01*
X-133050Y110000D02*
Y150000D01*
X-97050D01*
X-133050Y110000D02*
X-97050D01*
X113350Y129000D02*
X128350D01*
X113350Y136500D02*
X128350D01*
X113350Y129000D02*
Y136500D01*
X128350Y129000D02*
Y136500D01*
X-97500Y53750D02*
Y66250D01*
Y53750D02*
X-72500D01*
X-97500Y66250D02*
X-72500D01*
Y53750D02*
Y66250D01*
X-102500Y53750D02*
Y66250D01*
X-127500D02*
X-102500D01*
X-127500Y53750D02*
X-102500D01*
X-127500D02*
Y66250D01*
X113350Y79000D02*
X128350D01*
X113350Y86500D02*
X128350D01*
X113350Y79000D02*
Y86500D01*
X128350Y79000D02*
Y86500D01*
X101000Y121360D02*
Y136360D01*
X89000D02*
X101000D01*
X89000Y121360D02*
Y136360D01*
Y121360D02*
X101000D01*
Y78860D02*
Y93860D01*
X89000D02*
X101000D01*
X89000Y78860D02*
Y93860D01*
Y78860D02*
X101000D01*
X81000D02*
Y93860D01*
X69000D02*
X81000D01*
X69000Y78860D02*
Y93860D01*
Y78860D02*
X81000D01*
X102500Y95110D02*
Y102610D01*
X87500D02*
X102500D01*
X87500Y95110D02*
X102500D01*
X87500D02*
Y102610D01*
X102500Y62610D02*
Y70110D01*
X87500D02*
X102500D01*
X87500Y62610D02*
X102500D01*
X87500D02*
Y70110D01*
X87500D02*
Y77610D01*
Y70110D02*
X102500D01*
X87500Y77610D02*
X102500D01*
Y70110D02*
Y77610D01*
X-2500Y476250D02*
Y483750D01*
X-17500D02*
X-2500D01*
X-17500Y476250D02*
X-2500D01*
X-17500D02*
Y483750D01*
X-37500Y104500D02*
Y112000D01*
X-52500D02*
X-37500D01*
X-52500Y104500D02*
X-37500D01*
X-52500D02*
Y112000D01*
X-37500Y128875D02*
Y136375D01*
X-52500D02*
X-37500D01*
X-52500Y128875D02*
X-37500D01*
X-52500D02*
Y136375D01*
X87500Y152610D02*
Y160110D01*
Y152610D02*
X102500D01*
X87500Y160110D02*
X102500D01*
Y152610D02*
Y160110D01*
X102500Y137610D02*
Y145110D01*
X87500D02*
X102500D01*
X87500Y137610D02*
X102500D01*
X87500D02*
Y145110D01*
X102500Y112610D02*
Y120110D01*
X87500D02*
X102500D01*
X87500Y112610D02*
X102500D01*
X87500D02*
Y120110D01*
X-133750Y82500D02*
X-126250D01*
Y97500D01*
X-133750Y82500D02*
Y97500D01*
X-126250D01*
X-73750Y82500D02*
X-66250D01*
Y97500D01*
X-73750Y82500D02*
Y97500D01*
X-66250D01*
X62500Y55110D02*
Y62610D01*
X47500D02*
X62500D01*
X47500Y55110D02*
X62500D01*
X47500D02*
Y62610D01*
Y70110D02*
Y77610D01*
Y70110D02*
X62500D01*
X47500Y77610D02*
X62500D01*
Y70110D02*
Y77610D01*
X82500Y55110D02*
Y62610D01*
X67500D02*
X82500D01*
X67500Y55110D02*
X82500D01*
X67500D02*
Y62610D01*
Y70110D02*
Y77610D01*
Y70110D02*
X82500D01*
X67500Y77610D02*
X82500D01*
Y70110D02*
Y77610D01*
X52500Y128875D02*
Y136375D01*
X37500D02*
X52500D01*
X37500Y128875D02*
X52500D01*
X37500D02*
Y136375D01*
X-52500Y72000D02*
Y79500D01*
Y72000D02*
X-37500D01*
X-52500Y79500D02*
X-37500D01*
Y72000D02*
Y79500D01*
X-37500Y120750D02*
Y128250D01*
X-52500D02*
X-37500D01*
X-52500Y120750D02*
X-37500D01*
X-52500D02*
Y128250D01*
X-37500Y112625D02*
Y120125D01*
X-52500D02*
X-37500D01*
X-52500Y112625D02*
X-37500D01*
X-52500D02*
Y120125D01*
D75*
X-38750Y491800D02*
X-31250D01*
X-38750Y476800D02*
X-31250D01*
Y491800D01*
X-38750Y476800D02*
Y491800D01*
X-111650Y158750D02*
X-96650D01*
X-111650Y151250D02*
X-96650D01*
X-111650D02*
Y158750D01*
X-96650Y151250D02*
Y158750D01*
X102500Y55110D02*
Y62610D01*
X87500Y55110D02*
Y62610D01*
Y55110D02*
X102500D01*
X87500Y62610D02*
X102500D01*
X-52500Y137000D02*
X-37500D01*
X-52500Y144500D02*
X-37500D01*
Y137000D02*
Y144500D01*
X-52500Y137000D02*
Y144500D01*
X1250Y491800D02*
X8750D01*
X1250Y476800D02*
X8750D01*
Y491800D01*
X1250Y476800D02*
Y491800D01*
X-28750D02*
X-21250D01*
X-28750Y476800D02*
X-21250D01*
Y491800D01*
X-28750Y476800D02*
Y491800D01*
X26250Y44300D02*
Y59300D01*
X33750Y44300D02*
Y59300D01*
X26250Y44300D02*
X33750D01*
X26250Y59300D02*
X33750D01*
X-9750Y44300D02*
Y59300D01*
X-2250Y44300D02*
Y59300D01*
X-9750Y44300D02*
X-2250D01*
X-9750Y59300D02*
X-2250D01*
X-17750Y44300D02*
Y59300D01*
X-10250Y44300D02*
Y59300D01*
X-17750Y44300D02*
X-10250D01*
X-17750Y59300D02*
X-10250D01*
X-69750Y44300D02*
Y59300D01*
X-62250Y44300D02*
Y59300D01*
X-69750Y44300D02*
X-62250D01*
X-69750Y59300D02*
X-62250D01*
X37500Y128250D02*
X52500D01*
X37500Y120750D02*
X52500D01*
X37500D02*
Y128250D01*
X52500Y120750D02*
Y128250D01*
X37500Y120125D02*
X52500D01*
X37500Y112625D02*
X52500D01*
X37500D02*
Y120125D01*
X52500Y112625D02*
Y120125D01*
X37500Y112000D02*
X52500D01*
X37500Y104500D02*
X52500D01*
X37500D02*
Y112000D01*
X52500Y104500D02*
Y112000D01*
X37500Y104500D02*
X52500D01*
X37500Y97000D02*
X52500D01*
X37500D02*
Y104500D01*
X52500Y97000D02*
Y104500D01*
X36950Y79050D02*
Y94050D01*
X44450Y79050D02*
Y94050D01*
X36950Y79050D02*
X44450D01*
X36950Y94050D02*
X44450D01*
X102500Y105110D02*
Y112610D01*
X87500Y105110D02*
Y112610D01*
Y105110D02*
X102500D01*
X87500Y112610D02*
X102500D01*
X87500Y145110D02*
Y152610D01*
X102500Y145110D02*
Y152610D01*
X87500D02*
X102500D01*
X87500Y145110D02*
X102500D01*
X-72500Y43750D02*
Y51250D01*
X-87500Y43750D02*
Y51250D01*
Y43750D02*
X-72500D01*
X-87500Y51250D02*
X-72500D01*
X-66250Y67500D02*
Y82500D01*
X-73750Y67500D02*
Y82500D01*
X-66250D01*
X-73750Y67500D02*
X-66250D01*
X-126250D02*
Y82500D01*
X-118750Y67500D02*
Y82500D01*
X-126250Y67500D02*
X-118750D01*
X-126250Y82500D02*
X-118750D01*
X-133450Y151250D02*
X-118450D01*
X-133450Y158750D02*
X-118450D01*
Y151250D02*
Y158750D01*
X-133450Y151250D02*
Y158750D01*
X47500Y70110D02*
X62500D01*
X47500Y62610D02*
X62500D01*
X47500D02*
Y70110D01*
X62500Y62610D02*
Y70110D01*
X67500D02*
X82500D01*
X67500Y62610D02*
X82500D01*
X67500D02*
Y70110D01*
X82500Y62610D02*
Y70110D01*
X11250Y491800D02*
X18750D01*
X11250Y476800D02*
X18750D01*
Y491800D01*
X11250Y476800D02*
Y491800D01*
X10250Y44300D02*
Y59300D01*
X17750Y44300D02*
Y59300D01*
X10250Y44300D02*
X17750D01*
X10250Y59300D02*
X17750D01*
X18250Y44300D02*
Y59300D01*
X25750Y44300D02*
Y59300D01*
X18250Y44300D02*
X25750D01*
X18250Y59300D02*
X25750D01*
M02*
