G04*
G04 #@! TF.GenerationSoftware,Altium Limited,Altium Designer,24.7.2 (38)*
G04*
G04 Layer_Color=8388736*
%FSLAX44Y44*%
%MOMM*%
G71*
G04*
G04 #@! TF.SameCoordinates,0CC62651-4E98-4C2C-A616-4BC4541718FC*
G04*
G04*
G04 #@! TF.FilePolarity,Positive*
G04*
G01*
G75*
%ADD12C,0.1000*%
D12*
X136500Y32000D02*
G03*
X128500Y24000I0J-8000D01*
G01*
X-128500D02*
G03*
X-136500Y32000I-8000J0D01*
G01*
X-31000Y32500D02*
G03*
X-46000Y32500I-7500J0D01*
G01*
X-31000D02*
G03*
X-46000Y32500I-7500J0D01*
G01*
X-128500Y24000D02*
G03*
X-136500Y32000I-8000J0D01*
G01*
X136500D02*
G03*
X128500Y24000I0J-8000D01*
G01*
X-128500Y0D02*
X-46000D01*
X128500D02*
Y24000D01*
X136500Y32000D02*
X150000D01*
X-150000D02*
X-136500D01*
X-31000Y0D02*
Y32500D01*
X-46000Y0D02*
Y32500D01*
X-128500Y0D02*
Y24000D01*
X-31000Y0D02*
X128500D01*
X136500Y32000D02*
X150000D01*
X-31000Y0D02*
X128500D01*
X-128500D02*
X-46000D01*
X-31000Y0D02*
Y32500D01*
X-150000Y32000D02*
X-136500D01*
X128500Y0D02*
Y24000D01*
X-46000Y0D02*
Y32500D01*
X-150000Y32000D02*
Y509500D01*
X150000Y32000D02*
Y509500D01*
X-128500Y0D02*
Y24000D01*
X-150000Y509500D02*
X150000D01*
M02*
