G04*
G04 #@! TF.GenerationSoftware,Altium Limited,Altium Designer,24.7.2 (38)*
G04*
G04 Layer_Color=32768*
%FSLAX44Y44*%
%MOMM*%
G71*
G04*
G04 #@! TF.SameCoordinates,0CC62651-4E98-4C2C-A616-4BC4541718FC*
G04*
G04*
G04 #@! TF.FilePolarity,Positive*
G04*
G01*
G75*
%ADD12C,0.1000*%
%ADD13C,0.0500*%
%ADD74C,0.0100*%
%ADD75C,0.0200*%
D12*
X-10000Y200000D02*
G03*
X-10000Y200000I-10000J0D01*
G01*
X50000D02*
G03*
X50000Y200000I-10000J0D01*
G01*
X110000Y280000D02*
G03*
X110000Y280000I-10000J0D01*
G01*
Y240000D02*
G03*
X110000Y240000I-10000J0D01*
G01*
X-40000Y120000D02*
G03*
X-40000Y120000I-10000J0D01*
G01*
Y90000D02*
G03*
X-40000Y90000I-10000J0D01*
G01*
X20000Y50000D02*
G03*
X20000Y50000I-10000J0D01*
G01*
X45000D02*
G03*
X45000Y50000I-10000J0D01*
G01*
X70000D02*
G03*
X70000Y50000I-10000J0D01*
G01*
Y120000D02*
G03*
X70000Y120000I-10000J0D01*
G01*
X-90000Y60000D02*
G03*
X-90000Y60000I-10000J0D01*
G01*
X-70000Y130000D02*
G03*
X-70000Y130000I-10000J0D01*
G01*
X-40000Y60000D02*
G03*
X-40000Y60000I-10000J0D01*
G01*
X95000Y50000D02*
G03*
X95000Y50000I-10000J0D01*
G01*
X120000D02*
G03*
X120000Y50000I-10000J0D01*
G01*
X-100000Y200000D02*
G03*
X-100000Y200000I-10000J0D01*
G01*
X-70000D02*
G03*
X-70000Y200000I-10000J0D01*
G01*
X-40000D02*
G03*
X-40000Y200000I-10000J0D01*
G01*
X-100000Y160000D02*
G03*
X-100000Y160000I-10000J0D01*
G01*
X-70000D02*
G03*
X-70000Y160000I-10000J0D01*
G01*
X-148000Y227950D02*
Y368950D01*
X12000D01*
Y227950D02*
Y368950D01*
X-148000Y227950D02*
X12000D01*
D13*
X106000Y363000D02*
Y397000D01*
X124000D01*
X106000Y363000D02*
X124000D01*
Y397000D01*
X46000Y363000D02*
Y397000D01*
X64000D01*
X46000Y363000D02*
X64000D01*
Y397000D01*
D74*
X88750Y376675D02*
X101250D01*
X88750D02*
Y401675D01*
X101250Y376675D02*
Y401675D01*
X88750D02*
X101250D01*
X68750Y376675D02*
X81250D01*
X68750D02*
Y401675D01*
X81250Y376675D02*
Y401675D01*
X68750D02*
X81250D01*
D75*
X32500Y334750D02*
Y342250D01*
X17500Y334750D02*
Y342250D01*
X32500D01*
X17500Y334750D02*
X32500D01*
Y318887D02*
Y326387D01*
X17500Y318887D02*
Y326387D01*
X32500D01*
X17500Y318887D02*
X32500D01*
Y310956D02*
Y318456D01*
X17500Y310956D02*
Y318456D01*
X32500D01*
X17500Y310956D02*
X32500D01*
Y279231D02*
Y286731D01*
X17500Y279231D02*
Y286731D01*
X32500D01*
X17500Y279231D02*
X32500D01*
Y295094D02*
Y302594D01*
X17500Y295094D02*
Y302594D01*
X32500D01*
X17500Y295094D02*
X32500D01*
X65250Y402500D02*
Y417500D01*
X57750Y402500D02*
Y417500D01*
Y402500D02*
X65250D01*
X57750Y417500D02*
X65250D01*
X125250Y402500D02*
Y417500D01*
X117750Y402500D02*
Y417500D01*
Y402500D02*
X125250D01*
X117750Y417500D02*
X125250D01*
X17500Y326769D02*
Y334269D01*
X32500Y326769D02*
Y334269D01*
X17500Y326769D02*
X32500D01*
X17500Y334269D02*
X32500D01*
X17500Y302975D02*
Y310475D01*
X32500Y302975D02*
Y310475D01*
X17500Y302975D02*
X32500D01*
X17500Y310475D02*
X32500D01*
X17500Y271250D02*
Y278750D01*
X32500Y271250D02*
Y278750D01*
X17500Y271250D02*
X32500D01*
X17500Y278750D02*
X32500D01*
X17500Y287113D02*
Y294613D01*
X32500Y287113D02*
Y294613D01*
X17500Y287113D02*
X32500D01*
X17500Y294613D02*
X32500D01*
M02*
