G04*
G04 #@! TF.GenerationSoftware,Altium Limited,Altium Designer,24.7.2 (38)*
G04*
G04 Layer_Color=255*
%FSLAX44Y44*%
%MOMM*%
G71*
G04*
G04 #@! TF.SameCoordinates,0CC62651-4E98-4C2C-A616-4BC4541718FC*
G04*
G04*
G04 #@! TF.FilePolarity,Positive*
G04*
G01*
G75*
%ADD19R,0.5200X0.4700*%
%ADD27R,0.4700X0.5200*%
%ADD48R,0.6000X2.3000*%
%ADD53C,0.7500*%
%ADD54R,5.3000X5.3000*%
%ADD57C,1.5000*%
%ADD58R,1.0000X0.7000*%
%ADD59R,1.1500X0.6500*%
%ADD60R,1.7000X1.3000*%
%ADD61R,1.3000X0.4500*%
%ADD62R,1.8200X1.1600*%
D19*
X61500Y405700D02*
D03*
Y414300D02*
D03*
X121500Y405700D02*
D03*
Y414300D02*
D03*
D27*
X29300Y338500D02*
D03*
X20700D02*
D03*
X29300Y322637D02*
D03*
X20700D02*
D03*
X29300Y314706D02*
D03*
X20700D02*
D03*
X29300Y282981D02*
D03*
X20700D02*
D03*
X29300Y298844D02*
D03*
X20700D02*
D03*
Y330519D02*
D03*
X29300D02*
D03*
X20700Y306725D02*
D03*
X29300D02*
D03*
X20700Y275000D02*
D03*
X29300D02*
D03*
X20700Y290863D02*
D03*
X29300D02*
D03*
D48*
X118000Y14000D02*
D03*
X110000D02*
D03*
X102000D02*
D03*
X94000D02*
D03*
X86000D02*
D03*
X78000D02*
D03*
X70000D02*
D03*
X62000D02*
D03*
X54000D02*
D03*
X46000D02*
D03*
X38000D02*
D03*
X30000D02*
D03*
X22000D02*
D03*
X14000D02*
D03*
X6000D02*
D03*
X-2000D02*
D03*
X-10000D02*
D03*
X-18000D02*
D03*
X-58000D02*
D03*
X-66000D02*
D03*
X-74000D02*
D03*
X-82000D02*
D03*
X-90000D02*
D03*
X-98000D02*
D03*
X-106000D02*
D03*
X-114000D02*
D03*
D53*
X-142500Y40000D02*
D03*
Y50000D02*
D03*
Y60000D02*
D03*
Y70000D02*
D03*
Y80000D02*
D03*
Y90000D02*
D03*
Y110000D02*
D03*
Y120000D02*
D03*
Y130000D02*
D03*
Y100000D02*
D03*
Y140000D02*
D03*
Y150000D02*
D03*
X142500Y40000D02*
D03*
Y60000D02*
D03*
Y50000D02*
D03*
Y150000D02*
D03*
Y110000D02*
D03*
Y140000D02*
D03*
Y130000D02*
D03*
Y120000D02*
D03*
Y70000D02*
D03*
Y100000D02*
D03*
Y90000D02*
D03*
Y80000D02*
D03*
D54*
X-121000Y480500D02*
D03*
X121000D02*
D03*
D57*
X-20000Y200000D02*
D03*
X40000D02*
D03*
X100000Y280000D02*
D03*
Y240000D02*
D03*
X-50000Y120000D02*
D03*
Y90000D02*
D03*
X10000Y50000D02*
D03*
X35000D02*
D03*
X60000D02*
D03*
Y120000D02*
D03*
X-100000Y60000D02*
D03*
X-80000Y130000D02*
D03*
X-50000Y60000D02*
D03*
X85000Y50000D02*
D03*
X110000D02*
D03*
X-110000Y200000D02*
D03*
X-80000D02*
D03*
X-50000D02*
D03*
X-110000Y160000D02*
D03*
X-80000D02*
D03*
D58*
X95000Y381300D02*
D03*
Y397050D02*
D03*
X75000Y381300D02*
D03*
Y397050D02*
D03*
D59*
X1800Y274950D02*
D03*
Y287650D02*
D03*
Y300350D02*
D03*
Y313050D02*
D03*
Y325750D02*
D03*
Y338450D02*
D03*
D60*
X-135500Y238950D02*
D03*
Y357550D02*
D03*
D61*
X-39900Y235450D02*
D03*
X-19900D02*
D03*
X-39900Y360850D02*
D03*
X-19900D02*
D03*
D62*
X115000Y365250D02*
D03*
Y394750D02*
D03*
X55000Y365250D02*
D03*
Y394750D02*
D03*
M02*
