G04*
G04 #@! TF.GenerationSoftware,Altium Limited,Altium Designer,24.7.2 (38)*
G04*
G04 Layer_Color=8388736*
%FSLAX44Y44*%
%MOMM*%
G71*
G04*
G04 #@! TF.SameCoordinates,0CC62651-4E98-4C2C-A616-4BC4541718FC*
G04*
G04*
G04 #@! TF.FilePolarity,Negative*
G04*
G01*
G75*
%ADD28R,26.2000X2.9250*%
%ADD29R,1.0000X42.0000*%
G04:AMPARAMS|DCode=30|XSize=0.34mm|YSize=0.7mm|CornerRadius=0.1004mm|HoleSize=0mm|Usage=FLASHONLY|Rotation=0.000|XOffset=0mm|YOffset=0mm|HoleType=Round|Shape=RoundedRectangle|*
%AMROUNDEDRECTD30*
21,1,0.3400,0.4992,0,0,0.0*
21,1,0.1392,0.7000,0,0,0.0*
1,1,0.2008,0.0696,-0.2496*
1,1,0.2008,-0.0696,-0.2496*
1,1,0.2008,-0.0696,0.2496*
1,1,0.2008,0.0696,0.2496*
%
%ADD30ROUNDEDRECTD30*%
G04:AMPARAMS|DCode=31|XSize=0.34mm|YSize=0.7mm|CornerRadius=0.1004mm|HoleSize=0mm|Usage=FLASHONLY|Rotation=270.000|XOffset=0mm|YOffset=0mm|HoleType=Round|Shape=RoundedRectangle|*
%AMROUNDEDRECTD31*
21,1,0.3400,0.4992,0,0,270.0*
21,1,0.1392,0.7000,0,0,270.0*
1,1,0.2008,-0.2496,-0.0696*
1,1,0.2008,-0.2496,0.0696*
1,1,0.2008,0.2496,0.0696*
1,1,0.2008,0.2496,-0.0696*
%
%ADD31ROUNDEDRECTD31*%
G04:AMPARAMS|DCode=32|XSize=1.78mm|YSize=1.78mm|CornerRadius=0.092mm|HoleSize=0mm|Usage=FLASHONLY|Rotation=270.000|XOffset=0mm|YOffset=0mm|HoleType=Round|Shape=RoundedRectangle|*
%AMROUNDEDRECTD32*
21,1,1.7800,1.5960,0,0,270.0*
21,1,1.5960,1.7800,0,0,270.0*
1,1,0.1840,-0.7980,-0.7980*
1,1,0.1840,-0.7980,0.7980*
1,1,0.1840,0.7980,0.7980*
1,1,0.1840,0.7980,-0.7980*
%
%ADD32ROUNDEDRECTD32*%
%ADD33R,0.8200X0.3200*%
%ADD34R,0.4200X0.4200*%
%ADD35R,0.5400X0.4900*%
%ADD36R,0.6200X2.3200*%
%ADD37R,2.7200X0.8200*%
%ADD38R,0.5200X0.6200*%
G04:AMPARAMS|DCode=39|XSize=0.9mm|YSize=0.9mm|CornerRadius=0.17mm|HoleSize=0mm|Usage=FLASHONLY|Rotation=0.000|XOffset=0mm|YOffset=0mm|HoleType=Round|Shape=RoundedRectangle|*
%AMROUNDEDRECTD39*
21,1,0.9000,0.5600,0,0,0.0*
21,1,0.5600,0.9000,0,0,0.0*
1,1,0.3400,0.2800,-0.2800*
1,1,0.3400,-0.2800,-0.2800*
1,1,0.3400,-0.2800,0.2800*
1,1,0.3400,0.2800,0.2800*
%
%ADD39ROUNDEDRECTD39*%
%ADD40R,1.0200X1.0200*%
%ADD41R,2.2200X1.0700*%
%ADD42R,1.2200X1.0200*%
%ADD43R,0.7200X1.0200*%
%ADD44R,0.4900X0.5400*%
%ADD45C,0.7700*%
%ADD46R,5.3200X5.3200*%
D28*
X-0Y12125D02*
D03*
D29*
X-142500Y244500D02*
D03*
X142500D02*
D03*
D30*
X-92500Y99000D02*
D03*
X-102500Y71000D02*
D03*
X-97500D02*
D03*
X-107500D02*
D03*
Y99000D02*
D03*
X-102500D02*
D03*
X-97500D02*
D03*
X-92500Y71000D02*
D03*
D31*
X-114000Y92500D02*
D03*
Y87500D02*
D03*
Y82500D02*
D03*
Y77500D02*
D03*
X-86000Y92500D02*
D03*
Y87500D02*
D03*
Y82500D02*
D03*
Y77500D02*
D03*
D32*
X-100000Y85000D02*
D03*
D33*
X30000Y108250D02*
D03*
Y114750D02*
D03*
Y121250D02*
D03*
Y101750D02*
D03*
Y95250D02*
D03*
Y88750D02*
D03*
Y82250D02*
D03*
Y127750D02*
D03*
X-30000Y108250D02*
D03*
Y114750D02*
D03*
Y121250D02*
D03*
Y101750D02*
D03*
Y95250D02*
D03*
Y88750D02*
D03*
Y82250D02*
D03*
Y127750D02*
D03*
Y134250D02*
D03*
Y75750D02*
D03*
X30000Y134250D02*
D03*
Y75750D02*
D03*
X-30000Y140750D02*
D03*
Y69250D02*
D03*
X30000D02*
D03*
Y140750D02*
D03*
D34*
X55000Y90860D02*
D03*
X58750Y81860D02*
D03*
X51250D02*
D03*
X95000Y133360D02*
D03*
X98750Y124360D02*
D03*
X91250D02*
D03*
X95000Y90860D02*
D03*
X98750Y81860D02*
D03*
X91250D02*
D03*
X75000Y90860D02*
D03*
X78750Y81860D02*
D03*
X71250D02*
D03*
D35*
X-122500Y94300D02*
D03*
Y85700D02*
D03*
X-35000Y488600D02*
D03*
Y480000D02*
D03*
X5000Y488600D02*
D03*
Y480000D02*
D03*
X-25000Y488600D02*
D03*
Y480000D02*
D03*
X30000Y47500D02*
D03*
Y56100D02*
D03*
X-6000Y47500D02*
D03*
Y56100D02*
D03*
X-14000Y47500D02*
D03*
Y56100D02*
D03*
X-66000Y47500D02*
D03*
Y56100D02*
D03*
X40700Y82250D02*
D03*
Y90850D02*
D03*
X-70000Y79300D02*
D03*
Y70700D02*
D03*
X-122500D02*
D03*
Y79300D02*
D03*
X15000Y488600D02*
D03*
Y480000D02*
D03*
X-130000Y85700D02*
D03*
Y94300D02*
D03*
X-70000Y85700D02*
D03*
Y94300D02*
D03*
X14000Y47500D02*
D03*
Y56100D02*
D03*
X22000Y47500D02*
D03*
Y56100D02*
D03*
D36*
X114000Y14000D02*
D03*
X106000D02*
D03*
X98000D02*
D03*
X90000D02*
D03*
X82000D02*
D03*
X74000D02*
D03*
X66000D02*
D03*
X58000D02*
D03*
X50000D02*
D03*
X42000D02*
D03*
X34000D02*
D03*
X26000D02*
D03*
X18000D02*
D03*
X10000D02*
D03*
X2000D02*
D03*
X-6000D02*
D03*
X-14000D02*
D03*
X-22000D02*
D03*
X-62000D02*
D03*
X-70000D02*
D03*
X-78000D02*
D03*
X-86000D02*
D03*
X-94000D02*
D03*
X-102000D02*
D03*
X-110000D02*
D03*
X-118000D02*
D03*
D37*
X-115050Y143000D02*
D03*
Y117000D02*
D03*
D38*
X116350Y132750D02*
D03*
X125350D02*
D03*
X116350Y82750D02*
D03*
X125350D02*
D03*
D39*
X-0Y287000D02*
D03*
X18000Y305000D02*
D03*
Y287000D02*
D03*
X-0Y323000D02*
D03*
Y305000D02*
D03*
X18000Y323000D02*
D03*
X-18000Y287000D02*
D03*
Y323000D02*
D03*
Y305000D02*
D03*
X-126000Y197000D02*
D03*
X-108000D02*
D03*
X-126000Y233000D02*
D03*
Y215000D02*
D03*
X-108000Y179000D02*
D03*
X-90000D02*
D03*
X-108000Y215000D02*
D03*
X-90000Y197000D02*
D03*
Y215000D02*
D03*
X-126000Y287000D02*
D03*
Y251000D02*
D03*
Y269000D02*
D03*
X-108000Y251000D02*
D03*
Y233000D02*
D03*
Y287000D02*
D03*
X-90000Y251000D02*
D03*
X-108000Y269000D02*
D03*
X-72000Y197000D02*
D03*
Y179000D02*
D03*
X-54000D02*
D03*
X-36000D02*
D03*
X-54000Y197000D02*
D03*
X-18000Y179000D02*
D03*
X-36000Y197000D02*
D03*
X-90000Y269000D02*
D03*
X-72000Y215000D02*
D03*
X-90000Y233000D02*
D03*
X-54000Y215000D02*
D03*
X-18000Y197000D02*
D03*
X-72000Y233000D02*
D03*
X-18000Y215000D02*
D03*
X-36000D02*
D03*
X-126000Y323000D02*
D03*
Y305000D02*
D03*
Y359000D02*
D03*
Y341000D02*
D03*
X-108000Y305000D02*
D03*
X-90000Y287000D02*
D03*
X-108000Y359000D02*
D03*
Y323000D02*
D03*
Y341000D02*
D03*
X-126000Y377000D02*
D03*
X-108000D02*
D03*
X-126000Y395000D02*
D03*
Y413000D02*
D03*
X-90000Y377000D02*
D03*
Y359000D02*
D03*
X-108000Y431000D02*
D03*
Y395000D02*
D03*
Y413000D02*
D03*
X-90000Y323000D02*
D03*
Y305000D02*
D03*
Y413000D02*
D03*
Y341000D02*
D03*
Y395000D02*
D03*
X-72000D02*
D03*
Y377000D02*
D03*
X-54000Y395000D02*
D03*
X-18000D02*
D03*
X-36000D02*
D03*
X-90000Y431000D02*
D03*
X-72000Y413000D02*
D03*
Y431000D02*
D03*
X-54000Y413000D02*
D03*
X-36000D02*
D03*
X-54000Y431000D02*
D03*
X-18000D02*
D03*
X-36000D02*
D03*
X-0Y179000D02*
D03*
X18000D02*
D03*
X-0Y197000D02*
D03*
X18000D02*
D03*
X36000Y179000D02*
D03*
X54000D02*
D03*
X36000Y197000D02*
D03*
X72000Y179000D02*
D03*
X90000Y197000D02*
D03*
X18000Y215000D02*
D03*
X54000Y197000D02*
D03*
X-0Y215000D02*
D03*
X54000D02*
D03*
X36000D02*
D03*
X72000D02*
D03*
Y197000D02*
D03*
Y233000D02*
D03*
X90000Y215000D02*
D03*
Y287000D02*
D03*
Y179000D02*
D03*
X108000Y197000D02*
D03*
X90000Y251000D02*
D03*
X108000Y215000D02*
D03*
X90000Y233000D02*
D03*
X108000Y179000D02*
D03*
X126000Y197000D02*
D03*
X108000Y233000D02*
D03*
X126000Y215000D02*
D03*
Y233000D02*
D03*
X90000Y269000D02*
D03*
X108000Y251000D02*
D03*
Y305000D02*
D03*
Y269000D02*
D03*
Y287000D02*
D03*
X126000D02*
D03*
Y251000D02*
D03*
Y269000D02*
D03*
X-0Y395000D02*
D03*
X18000D02*
D03*
X-0Y413000D02*
D03*
X36000Y395000D02*
D03*
X90000Y323000D02*
D03*
Y305000D02*
D03*
X54000Y395000D02*
D03*
X72000Y377000D02*
D03*
Y395000D02*
D03*
X-18000Y413000D02*
D03*
X18000D02*
D03*
X-0Y431000D02*
D03*
X36000Y413000D02*
D03*
X18000Y431000D02*
D03*
X54000Y413000D02*
D03*
X72000D02*
D03*
X36000Y431000D02*
D03*
X72000D02*
D03*
X54000D02*
D03*
X90000Y341000D02*
D03*
X108000Y323000D02*
D03*
X90000Y377000D02*
D03*
X108000Y341000D02*
D03*
X90000Y359000D02*
D03*
X126000Y323000D02*
D03*
Y305000D02*
D03*
X108000Y359000D02*
D03*
X126000Y341000D02*
D03*
Y359000D02*
D03*
X90000Y395000D02*
D03*
X108000Y377000D02*
D03*
X90000Y431000D02*
D03*
X108000Y395000D02*
D03*
X90000Y413000D02*
D03*
X126000Y395000D02*
D03*
Y377000D02*
D03*
X108000Y413000D02*
D03*
X126000D02*
D03*
X108000Y431000D02*
D03*
X-72000Y359000D02*
D03*
Y341000D02*
D03*
Y323000D02*
D03*
Y305000D02*
D03*
Y287000D02*
D03*
Y269000D02*
D03*
Y251660D02*
D03*
X-54000Y377000D02*
D03*
X-18000D02*
D03*
X-36000D02*
D03*
X-0D02*
D03*
X18000D02*
D03*
X36000D02*
D03*
X54000D02*
D03*
X72000Y287000D02*
D03*
Y251000D02*
D03*
Y269000D02*
D03*
Y323000D02*
D03*
Y305000D02*
D03*
Y341000D02*
D03*
Y359000D02*
D03*
X-54000Y233000D02*
D03*
X-18000D02*
D03*
X-36000D02*
D03*
X18000D02*
D03*
X-0D02*
D03*
X54000D02*
D03*
X36000D02*
D03*
D40*
X-55000Y480000D02*
D03*
X-85000Y480000D02*
D03*
D41*
X-70000Y494750D02*
D03*
Y465250D02*
D03*
D42*
X-77500Y143000D02*
D03*
Y117000D02*
D03*
D43*
Y60000D02*
D03*
X-92500D02*
D03*
X-122500D02*
D03*
X-107500D02*
D03*
D44*
X-108450Y155000D02*
D03*
X-99850D02*
D03*
X99300Y58860D02*
D03*
X90700D02*
D03*
X-40700Y140750D02*
D03*
X-49300D02*
D03*
X40700Y124500D02*
D03*
X49300D02*
D03*
X40700Y116375D02*
D03*
X49300D02*
D03*
X40700Y108250D02*
D03*
X49300D02*
D03*
X40700Y100750D02*
D03*
X49300D02*
D03*
X99300Y108860D02*
D03*
X90700D02*
D03*
Y148860D02*
D03*
X99300D02*
D03*
X-75700Y47500D02*
D03*
X-84300D02*
D03*
X-121650Y155000D02*
D03*
X-130250D02*
D03*
X50700Y66360D02*
D03*
X59300D02*
D03*
X70700D02*
D03*
X79300D02*
D03*
X99300Y98860D02*
D03*
X90700D02*
D03*
X99300Y66360D02*
D03*
X90700D02*
D03*
X90700Y73860D02*
D03*
X99300D02*
D03*
X-5700Y480000D02*
D03*
X-14300D02*
D03*
X-40700Y108250D02*
D03*
X-49300D02*
D03*
X-40700Y132625D02*
D03*
X-49300D02*
D03*
X90700Y156360D02*
D03*
X99300D02*
D03*
X99300Y141360D02*
D03*
X90700D02*
D03*
X99300Y116360D02*
D03*
X90700D02*
D03*
X59300Y58860D02*
D03*
X50700D02*
D03*
Y73860D02*
D03*
X59300D02*
D03*
X79300Y58860D02*
D03*
X70700D02*
D03*
Y73860D02*
D03*
X79300D02*
D03*
X49300Y132625D02*
D03*
X40700D02*
D03*
X-49300Y75750D02*
D03*
X-40700D02*
D03*
X-40700Y124500D02*
D03*
X-49300D02*
D03*
X-40700Y116375D02*
D03*
X-49300D02*
D03*
D45*
X-142500Y40000D02*
D03*
Y50000D02*
D03*
Y60000D02*
D03*
Y70000D02*
D03*
Y80000D02*
D03*
Y90000D02*
D03*
Y110000D02*
D03*
Y120000D02*
D03*
Y130000D02*
D03*
Y100000D02*
D03*
Y140000D02*
D03*
Y150000D02*
D03*
X142500Y40000D02*
D03*
Y60000D02*
D03*
Y50000D02*
D03*
Y150000D02*
D03*
Y110000D02*
D03*
Y140000D02*
D03*
Y130000D02*
D03*
Y120000D02*
D03*
Y70000D02*
D03*
Y100000D02*
D03*
Y90000D02*
D03*
Y80000D02*
D03*
D46*
X-121000Y480500D02*
D03*
X121000D02*
D03*
M02*
