G04*
G04 #@! TF.GenerationSoftware,Altium Limited,Altium Designer,24.7.2 (38)*
G04*
G04 Layer_Physical_Order=1*
G04 Layer_Color=255*
%FSLAX44Y44*%
%MOMM*%
G71*
G04*
G04 #@! TF.SameCoordinates,B0AE272E-27A3-47FD-914A-DD41DDC77624*
G04*
G04*
G04 #@! TF.FilePolarity,Positive*
G04*
G01*
G75*
%ADD10C,0.2000*%
G04:AMPARAMS|DCode=14|XSize=0.24mm|YSize=0.6mm|CornerRadius=0.0504mm|HoleSize=0mm|Usage=FLASHONLY|Rotation=0.000|XOffset=0mm|YOffset=0mm|HoleType=Round|Shape=RoundedRectangle|*
%AMROUNDEDRECTD14*
21,1,0.2400,0.4992,0,0,0.0*
21,1,0.1392,0.6000,0,0,0.0*
1,1,0.1008,0.0696,-0.2496*
1,1,0.1008,-0.0696,-0.2496*
1,1,0.1008,-0.0696,0.2496*
1,1,0.1008,0.0696,0.2496*
%
%ADD14ROUNDEDRECTD14*%
G04:AMPARAMS|DCode=15|XSize=0.24mm|YSize=0.6mm|CornerRadius=0.0504mm|HoleSize=0mm|Usage=FLASHONLY|Rotation=270.000|XOffset=0mm|YOffset=0mm|HoleType=Round|Shape=RoundedRectangle|*
%AMROUNDEDRECTD15*
21,1,0.2400,0.4992,0,0,270.0*
21,1,0.1392,0.6000,0,0,270.0*
1,1,0.1008,-0.2496,-0.0696*
1,1,0.1008,-0.2496,0.0696*
1,1,0.1008,0.2496,0.0696*
1,1,0.1008,0.2496,-0.0696*
%
%ADD15ROUNDEDRECTD15*%
G04:AMPARAMS|DCode=16|XSize=1.68mm|YSize=1.68mm|CornerRadius=0.042mm|HoleSize=0mm|Usage=FLASHONLY|Rotation=270.000|XOffset=0mm|YOffset=0mm|HoleType=Round|Shape=RoundedRectangle|*
%AMROUNDEDRECTD16*
21,1,1.6800,1.5960,0,0,270.0*
21,1,1.5960,1.6800,0,0,270.0*
1,1,0.0840,-0.7980,-0.7980*
1,1,0.0840,-0.7980,0.7980*
1,1,0.0840,0.7980,0.7980*
1,1,0.0840,0.7980,-0.7980*
%
%ADD16ROUNDEDRECTD16*%
%ADD17R,0.4700X0.5200*%
%ADD18R,0.5200X0.4700*%
%ADD19R,0.4000X0.4000*%
%ADD20R,0.8000X0.3000*%
%ADD21R,0.5000X0.6000*%
%ADD22R,0.7000X1.0000*%
%ADD23R,2.7000X0.8000*%
%ADD24R,1.0000X1.0000*%
%ADD25R,2.2000X1.0500*%
G04:AMPARAMS|DCode=26|XSize=0.7mm|YSize=0.7mm|CornerRadius=0.07mm|HoleSize=0mm|Usage=FLASHONLY|Rotation=0.000|XOffset=0mm|YOffset=0mm|HoleType=Round|Shape=RoundedRectangle|*
%AMROUNDEDRECTD26*
21,1,0.7000,0.5600,0,0,0.0*
21,1,0.5600,0.7000,0,0,0.0*
1,1,0.1400,0.2800,-0.2800*
1,1,0.1400,-0.2800,-0.2800*
1,1,0.1400,-0.2800,0.2800*
1,1,0.1400,0.2800,0.2800*
%
%ADD26ROUNDEDRECTD26*%
%ADD45C,0.7700*%
%ADD46R,0.6000X2.3000*%
%ADD47C,0.2500*%
%ADD48C,0.3000*%
%ADD49C,0.4000*%
%ADD50C,0.3810*%
%ADD51C,0.7500*%
%ADD52R,5.3000X5.3000*%
%ADD53C,0.5000*%
G36*
X147451Y34549D02*
X136500D01*
X136438Y34536D01*
X136375Y34546D01*
X135591Y34507D01*
X135407Y34461D01*
X135218D01*
X133680Y34155D01*
X133448Y34059D01*
X133202Y34010D01*
X131753Y33410D01*
X131545Y33271D01*
X131313Y33175D01*
X130009Y32303D01*
X129831Y32126D01*
X129622Y31986D01*
X128513Y30877D01*
X128374Y30669D01*
X128196Y30491D01*
X127325Y29187D01*
X127229Y28955D01*
X127090Y28747D01*
X126607Y27582D01*
X50005D01*
X49340Y28852D01*
X49568Y30000D01*
X49297Y31366D01*
X48523Y32523D01*
X48039Y32847D01*
Y39663D01*
X51087Y42711D01*
X72500D01*
X73280Y42866D01*
X73942Y43308D01*
X80742Y50108D01*
X80742Y50108D01*
X81184Y50770D01*
X81339Y51550D01*
X81339Y51550D01*
Y55260D01*
X82650D01*
Y61490D01*
X82650Y62460D01*
X82650Y63730D01*
Y65360D01*
X79300D01*
X75950D01*
Y63730D01*
X75950Y62760D01*
X75950Y61490D01*
Y55260D01*
X77261D01*
Y52395D01*
X71655Y46789D01*
X59332D01*
X58846Y47962D01*
X60742Y49858D01*
X60742Y49858D01*
X61184Y50520D01*
X61339Y51300D01*
X61339Y51300D01*
Y55260D01*
X62650D01*
Y61490D01*
X62650Y62460D01*
X62650Y63730D01*
Y65360D01*
X59300D01*
X55950D01*
Y63730D01*
X55950Y62760D01*
X55950Y61490D01*
Y55260D01*
X57261D01*
Y52145D01*
X54905Y49789D01*
X49000D01*
X49000Y49789D01*
X48220Y49634D01*
X47558Y49192D01*
X36558Y38192D01*
X36116Y37530D01*
X35961Y36750D01*
Y32847D01*
X35477Y32523D01*
X34703Y31366D01*
X34647Y31086D01*
X33352D01*
X33297Y31366D01*
X32523Y32523D01*
X32039Y32847D01*
Y42350D01*
X33600D01*
Y49050D01*
X26400D01*
Y49050D01*
X25600D01*
Y49050D01*
X18400D01*
Y49050D01*
X17600D01*
Y49050D01*
X10400D01*
Y42350D01*
X11961D01*
Y32847D01*
X11477Y32523D01*
X10703Y31366D01*
X10431Y30000D01*
X10660Y28852D01*
X9995Y27582D01*
X-1995D01*
X-2660Y28852D01*
X-2432Y30000D01*
X-2703Y31366D01*
X-3477Y32523D01*
X-3961Y32847D01*
Y42350D01*
X-2400D01*
Y49050D01*
X-9600D01*
Y49050D01*
X-10400D01*
Y49050D01*
X-17600D01*
Y42350D01*
X-16039D01*
Y32847D01*
X-16523Y32523D01*
X-17297Y31366D01*
X-17569Y30000D01*
X-17340Y28852D01*
X-18005Y27582D01*
X-28451D01*
Y32500D01*
X-28468Y32583D01*
X-28457Y32667D01*
X-28521Y33646D01*
X-28586Y33888D01*
X-28602Y34139D01*
X-29109Y36030D01*
X-29257Y36329D01*
X-29364Y36645D01*
X-30343Y38340D01*
X-30562Y38591D01*
X-30748Y38868D01*
X-32132Y40252D01*
X-32409Y40438D01*
X-32660Y40658D01*
X-34356Y41637D01*
X-34671Y41744D01*
X-34970Y41891D01*
X-36862Y42398D01*
X-37194Y42420D01*
X-37521Y42485D01*
X-39479D01*
X-39806Y42420D01*
X-40139Y42398D01*
X-42030Y41891D01*
X-42329Y41744D01*
X-42645Y41636D01*
X-44340Y40658D01*
X-44591Y40438D01*
X-44868Y40252D01*
X-46253Y38868D01*
X-46438Y38591D01*
X-46658Y38340D01*
X-47637Y36645D01*
X-47744Y36329D01*
X-47891Y36030D01*
X-48398Y34139D01*
X-48414Y33888D01*
X-48479Y33646D01*
X-48544Y32667D01*
X-48533Y32583D01*
X-48549Y32500D01*
Y27582D01*
X-61995D01*
X-62660Y28852D01*
X-62432Y30000D01*
X-62703Y31366D01*
X-63477Y32523D01*
X-63961Y32847D01*
Y42350D01*
X-62400D01*
Y49050D01*
X-69600D01*
Y42350D01*
X-68039D01*
Y32847D01*
X-68524Y32523D01*
X-69297Y31366D01*
X-69353Y31086D01*
X-70648D01*
X-70703Y31366D01*
X-71477Y32523D01*
X-72635Y33297D01*
X-74000Y33569D01*
X-75366Y33297D01*
X-76523Y32523D01*
X-77297Y31366D01*
X-77569Y30000D01*
X-77340Y28852D01*
X-78005Y27582D01*
X-85995D01*
X-86660Y28852D01*
X-86432Y30000D01*
X-86703Y31366D01*
X-87477Y32523D01*
X-88635Y33297D01*
X-90000Y33569D01*
X-90755Y33418D01*
X-91380Y34589D01*
X-82069Y43900D01*
X-81600D01*
Y44560D01*
X-81418Y45000D01*
Y50250D01*
X-81600Y50690D01*
Y51100D01*
X-81939D01*
X-82500Y51332D01*
X-87302D01*
X-87918Y51948D01*
X-87918Y70524D01*
X-87960Y70627D01*
X-87938Y70735D01*
X-88114Y70998D01*
X-88235Y71290D01*
X-88337Y71332D01*
X-88399Y71424D01*
X-88575Y71542D01*
X-88735Y71574D01*
X-88862Y71678D01*
X-88906Y71673D01*
X-89607Y71982D01*
X-90176Y72704D01*
Y73496D01*
X-90653Y74647D01*
X-90567Y75567D01*
X-89647Y75653D01*
X-88496Y75176D01*
X-83504D01*
X-83432Y75206D01*
X-78900D01*
X-78022Y75381D01*
X-77278Y75878D01*
X-76150Y77006D01*
X-73600D01*
Y75950D01*
X-66400D01*
X-66400Y75950D01*
Y75950D01*
X-65130Y76113D01*
X-64966Y76003D01*
X-63600Y75731D01*
X-62234Y76003D01*
X-61077Y76777D01*
X-60303Y77934D01*
X-60031Y79300D01*
X-60303Y80666D01*
X-61077Y81823D01*
X-62234Y82597D01*
X-63600Y82869D01*
X-64966Y82597D01*
X-65130Y82487D01*
X-66400Y83166D01*
Y89050D01*
X-73600D01*
Y87534D01*
X-74870Y87315D01*
X-75477Y88223D01*
X-76634Y88997D01*
X-78000Y89269D01*
X-79366Y88997D01*
X-80523Y88223D01*
X-81297Y87066D01*
X-81569Y85700D01*
X-81550Y85604D01*
X-82472Y84539D01*
X-82817D01*
X-83504Y84824D01*
X-88496D01*
X-89647Y84347D01*
X-89903Y83729D01*
X-91290Y83531D01*
X-91307Y83544D01*
X-91366Y83634D01*
X-91667Y83835D01*
X-92268Y84319D01*
Y85764D01*
X-91366Y86366D01*
X-90252Y88034D01*
X-90114Y88730D01*
X-95000D01*
Y91270D01*
X-90114D01*
X-90252Y91966D01*
X-91366Y93634D01*
X-91387Y93648D01*
X-91308Y94381D01*
X-91097Y94981D01*
X-90485Y95235D01*
X-90168Y96000D01*
Y107052D01*
X-85219Y112000D01*
X-84750D01*
Y112801D01*
X-84668Y113000D01*
Y121000D01*
X-84750Y121199D01*
Y122000D01*
X-85551D01*
X-85750Y122082D01*
X-112750D01*
X-112949Y122000D01*
X-113750D01*
Y121199D01*
X-113832Y121000D01*
Y111050D01*
X-113833Y111050D01*
X-113515Y110285D01*
X-113515Y110285D01*
X-107625Y104394D01*
X-108151Y103124D01*
X-108196D01*
X-109347Y102647D01*
X-109824Y101496D01*
Y101039D01*
X-111053D01*
X-111377Y101523D01*
X-112534Y102297D01*
X-113900Y102569D01*
X-115266Y102297D01*
X-116423Y101523D01*
X-117197Y100366D01*
X-117469Y99000D01*
X-117261Y97955D01*
X-117886Y97168D01*
X-118249Y96923D01*
X-118900Y97086D01*
Y97650D01*
X-126100D01*
Y97650D01*
X-126400Y97650D01*
Y97650D01*
X-132561D01*
Y100705D01*
X-132055Y101211D01*
X-127500D01*
X-126720Y101366D01*
X-126058Y101808D01*
X-121758Y106108D01*
X-121758Y106108D01*
X-121316Y106770D01*
X-121161Y107550D01*
X-121161Y107550D01*
Y112318D01*
X-119850D01*
X-119085Y112635D01*
X-118768Y113400D01*
Y125318D01*
X-93100D01*
X-93100Y125318D01*
X-92335Y125635D01*
X-83985Y133985D01*
X-83668Y134750D01*
Y148000D01*
X-83985Y148765D01*
X-84750Y149082D01*
X-125150D01*
X-125150Y149082D01*
X-125915Y148765D01*
Y148765D01*
X-127315Y147365D01*
X-127406Y147146D01*
X-128450Y146600D01*
X-128902Y146600D01*
X-130800D01*
Y143000D01*
Y139400D01*
X-128902D01*
X-128450Y139400D01*
X-127632Y138469D01*
Y134531D01*
X-128450Y133600D01*
X-128902Y133600D01*
X-130800D01*
Y130000D01*
Y126400D01*
X-128902D01*
X-128450Y126400D01*
X-127632Y125469D01*
Y121531D01*
X-128450Y120600D01*
X-128902Y120600D01*
X-130800D01*
Y117000D01*
Y113400D01*
X-128902D01*
X-128450Y113400D01*
X-127406Y112854D01*
X-127315Y112635D01*
X-126550Y112318D01*
X-125239D01*
Y108395D01*
X-128345Y105289D01*
X-132900D01*
X-133680Y105134D01*
X-134342Y104692D01*
X-136042Y102992D01*
X-136484Y102330D01*
X-136639Y101550D01*
Y88750D01*
X-136484Y87970D01*
X-136042Y87308D01*
X-134342Y85608D01*
X-133680Y85166D01*
X-133600Y85150D01*
Y82350D01*
X-126400D01*
Y89050D01*
X-131153D01*
X-131350Y89089D01*
X-132055D01*
X-132561Y89595D01*
Y90950D01*
X-126400D01*
Y90950D01*
X-126100Y90950D01*
Y90950D01*
X-118900D01*
X-118900Y90950D01*
Y90950D01*
X-117700Y90781D01*
X-117647Y90653D01*
X-116496Y90176D01*
X-111504D01*
X-111380Y90227D01*
X-111163Y90188D01*
X-110022Y89415D01*
X-109748Y88034D01*
X-108634Y86366D01*
X-107732Y85764D01*
Y84236D01*
X-108634Y83634D01*
X-109748Y81966D01*
X-109886Y81270D01*
X-105000D01*
Y78730D01*
X-109886D01*
X-109748Y78033D01*
X-108634Y76366D01*
X-108530Y76297D01*
X-108729Y74903D01*
X-109347Y74647D01*
X-109824Y73496D01*
Y73399D01*
X-118900D01*
Y74050D01*
X-126100D01*
Y67350D01*
X-118900D01*
Y68301D01*
X-111374D01*
X-111250Y67082D01*
X-112015Y66765D01*
X-112332Y66000D01*
Y50488D01*
X-121415Y41405D01*
X-121732Y40640D01*
X-121732Y28852D01*
X-122829Y27582D01*
X-126608D01*
X-127090Y28747D01*
X-127229Y28955D01*
X-127325Y29187D01*
X-128197Y30491D01*
X-128374Y30669D01*
X-128514Y30877D01*
X-129623Y31986D01*
X-129831Y32126D01*
X-130009Y32303D01*
X-131313Y33175D01*
X-131545Y33271D01*
X-131754Y33410D01*
X-133202Y34010D01*
X-133449Y34059D01*
X-133681Y34155D01*
X-135219Y34461D01*
X-135408D01*
X-135591Y34507D01*
X-136375Y34546D01*
X-136438Y34536D01*
X-136500Y34549D01*
X-147451D01*
Y506951D01*
X147451D01*
Y34549D01*
D02*
G37*
G36*
X-84750Y134750D02*
X-93100Y126400D01*
X-119850D01*
Y113400D01*
X-126550D01*
Y146600D01*
X-125150Y148000D01*
X-84750D01*
Y134750D01*
D02*
G37*
G36*
X-85750Y113000D02*
X-91250Y107500D01*
Y96000D01*
X-104000D01*
Y102300D01*
X-112750Y111050D01*
Y121000D01*
X-85750D01*
Y113000D01*
D02*
G37*
G36*
X-91500Y67002D02*
X-90653Y67353D01*
X-90176Y68504D01*
Y70107D01*
X-89176Y70642D01*
X-89000Y70524D01*
X-89000Y51500D01*
X-87750Y50250D01*
X-82500D01*
Y45000D01*
X-99500Y28000D01*
X-120650D01*
X-120650Y40640D01*
X-111250Y50040D01*
Y66000D01*
X-106250D01*
X-104806Y67444D01*
X-104347Y67353D01*
X-103500Y67002D01*
Y71000D01*
X-101500D01*
Y67002D01*
X-100653Y67353D01*
X-100541Y67622D01*
X-99459D01*
X-99347Y67353D01*
X-98500Y67002D01*
Y71000D01*
X-96500D01*
Y67002D01*
X-95653Y67353D01*
X-95541Y67622D01*
X-94459D01*
X-94347Y67353D01*
X-93500Y67002D01*
Y71000D01*
X-91500D01*
Y67002D01*
D02*
G37*
%LPC*%
G36*
X-58000Y501000D02*
X-69000D01*
Y495750D01*
X-58000D01*
Y501000D01*
D02*
G37*
G36*
X-71000D02*
X-82000D01*
Y495750D01*
X-71000D01*
Y501000D01*
D02*
G37*
G36*
X8600Y491950D02*
X6000D01*
Y489600D01*
X8600D01*
Y491950D01*
D02*
G37*
G36*
X-21400D02*
X-24000D01*
Y489600D01*
X-21400D01*
Y491950D01*
D02*
G37*
G36*
X-31400D02*
X-34000D01*
Y489600D01*
X-31400D01*
Y491950D01*
D02*
G37*
G36*
X4000D02*
X1400D01*
Y489600D01*
X4000D01*
Y491950D01*
D02*
G37*
G36*
X-26000D02*
X-28600D01*
Y489600D01*
X-26000D01*
Y491950D01*
D02*
G37*
G36*
X-36000D02*
X-38600D01*
Y489600D01*
X-36000D01*
Y491950D01*
D02*
G37*
G36*
X18600D02*
X16000D01*
Y489600D01*
X18600D01*
Y491950D01*
D02*
G37*
G36*
X14000D02*
X11400D01*
Y489600D01*
X14000D01*
Y491950D01*
D02*
G37*
G36*
X-86000Y486000D02*
X-91000D01*
Y481000D01*
X-86000D01*
Y486000D01*
D02*
G37*
G36*
Y479000D02*
X-91000D01*
Y474000D01*
X-86000D01*
Y479000D01*
D02*
G37*
G36*
X-58000Y464250D02*
X-69000D01*
Y459000D01*
X-58000D01*
Y464250D01*
D02*
G37*
G36*
X-71000D02*
X-82000D01*
Y459000D01*
X-71000D01*
Y464250D01*
D02*
G37*
G36*
X-58000Y493750D02*
X-70000D01*
X-82000D01*
Y490199D01*
X-82082Y490000D01*
Y486000D01*
X-84000D01*
Y480000D01*
Y474000D01*
X-82082D01*
Y470000D01*
X-82000Y469801D01*
Y466250D01*
X-70000D01*
X-58000D01*
Y469801D01*
X-57918Y470000D01*
Y474000D01*
X-49000D01*
Y474453D01*
X17840D01*
X18107Y474506D01*
X21128Y474109D01*
X24191Y472840D01*
X26821Y470821D01*
X28840Y468191D01*
X30109Y465127D01*
X30506Y462107D01*
X30453Y461840D01*
Y439737D01*
X29280Y439251D01*
X25452Y443079D01*
X24686Y443396D01*
X23921Y443079D01*
X23921Y443079D01*
X23306Y442464D01*
X23282Y442406D01*
X23227Y442376D01*
X22138Y441020D01*
X22120Y440960D01*
X22069Y440925D01*
X21133Y439458D01*
X21122Y439397D01*
X21075Y439356D01*
X20304Y437797D01*
X20300Y437735D01*
X20257Y437689D01*
X19958Y436872D01*
X19961Y436803D01*
X19897Y436511D01*
X19892Y436500D01*
X19280Y435778D01*
X19000Y435578D01*
Y431000D01*
Y426441D01*
X19270Y426246D01*
X19722Y425715D01*
X19905Y425466D01*
X19954Y425349D01*
X19976Y425196D01*
X19972Y425091D01*
X20574Y423459D01*
X20656Y423369D01*
X20678Y423249D01*
X22556Y420318D01*
X22656Y420249D01*
X22703Y420136D01*
X25166Y417678D01*
X25279Y417631D01*
X25349Y417532D01*
X28284Y415660D01*
X28404Y415639D01*
X28494Y415557D01*
X30128Y414958D01*
X30197Y414961D01*
X30488Y414897D01*
X30500Y414893D01*
X31221Y414280D01*
X31421Y414000D01*
X40559D01*
X40753Y414270D01*
X41285Y414723D01*
X41533Y414905D01*
X41650Y414953D01*
X41803Y414976D01*
X41908Y414972D01*
X43541Y415574D01*
X43631Y415657D01*
X43751Y415678D01*
X46681Y417556D01*
X46751Y417656D01*
X46863Y417703D01*
X49322Y420166D01*
X49368Y420279D01*
X49468Y420349D01*
X51339Y423284D01*
X51361Y423404D01*
X51443Y423493D01*
X52041Y425128D01*
X52038Y425196D01*
X52102Y425488D01*
X52107Y425500D01*
X52720Y426222D01*
X53000Y426421D01*
Y431000D01*
Y435558D01*
X52730Y435754D01*
X52098Y436496D01*
X52095Y436501D01*
X52095Y436535D01*
X52095Y436535D01*
X52046Y436653D01*
X52024Y436803D01*
X52028Y436908D01*
X51729Y437720D01*
X51687Y437766D01*
X51682Y437827D01*
X50912Y439377D01*
X50865Y439418D01*
X50855Y439479D01*
X49922Y440937D01*
X49871Y440972D01*
X49854Y441031D01*
X48769Y442380D01*
X48714Y442410D01*
X48691Y442467D01*
X48079Y443079D01*
X47314Y443396D01*
X46548Y443079D01*
Y443079D01*
X42720Y439250D01*
X41547Y439737D01*
Y461839D01*
X41547Y461840D01*
X41554D01*
X41099Y466466D01*
X39749Y470915D01*
X37558Y475015D01*
X34609Y478609D01*
X31015Y481558D01*
X26915Y483749D01*
X22466Y485098D01*
X18600Y485479D01*
Y487600D01*
X15000D01*
X11400D01*
Y485547D01*
X8600D01*
Y487600D01*
X5000D01*
X1400D01*
Y485547D01*
X-21400D01*
Y487600D01*
X-25000D01*
X-28600D01*
Y485547D01*
X-31400D01*
Y487600D01*
X-35000D01*
X-38600D01*
Y485547D01*
X-49000D01*
Y486000D01*
X-57918D01*
Y490000D01*
X-58000Y490199D01*
Y493750D01*
D02*
G37*
G36*
X56800Y435533D02*
X55000D01*
Y432000D01*
X58533D01*
Y433800D01*
X58401Y434463D01*
X58025Y435025D01*
X57463Y435401D01*
X56800Y435533D01*
D02*
G37*
G36*
X17000D02*
X15200D01*
X14537Y435401D01*
X13974Y435025D01*
X13599Y434463D01*
X13467Y433800D01*
Y432000D01*
X17000D01*
Y435533D01*
D02*
G37*
G36*
X2800D02*
X1000D01*
Y432000D01*
X4533D01*
Y433800D01*
X4401Y434463D01*
X4026Y435025D01*
X3463Y435401D01*
X2800Y435533D01*
D02*
G37*
G36*
X-1000D02*
X-2800D01*
X-3463Y435401D01*
X-4026Y435025D01*
X-4401Y434463D01*
X-4533Y433800D01*
Y432000D01*
X-1000D01*
Y435533D01*
D02*
G37*
G36*
X-15200D02*
X-17000D01*
Y432000D01*
X-13467D01*
Y433800D01*
X-13599Y434463D01*
X-13974Y435025D01*
X-14537Y435401D01*
X-15200Y435533D01*
D02*
G37*
G36*
X-55000D02*
X-56800D01*
X-57463Y435401D01*
X-58026Y435025D01*
X-58401Y434463D01*
X-58533Y433800D01*
Y432000D01*
X-55000D01*
Y435533D01*
D02*
G37*
G36*
X58533Y430000D02*
X55000D01*
Y426467D01*
X56800D01*
X57463Y426599D01*
X58025Y426974D01*
X58401Y427537D01*
X58533Y428200D01*
Y430000D01*
D02*
G37*
G36*
X17000D02*
X13467D01*
Y428200D01*
X13599Y427537D01*
X13974Y426974D01*
X14537Y426599D01*
X15200Y426467D01*
X17000D01*
Y430000D01*
D02*
G37*
G36*
X4533D02*
X1000D01*
Y426467D01*
X2800D01*
X3463Y426599D01*
X4026Y426974D01*
X4401Y427537D01*
X4533Y428200D01*
Y430000D01*
D02*
G37*
G36*
X-1000D02*
X-4533D01*
Y428200D01*
X-4401Y427537D01*
X-4026Y426974D01*
X-3463Y426599D01*
X-2800Y426467D01*
X-1000D01*
Y430000D01*
D02*
G37*
G36*
X-13467D02*
X-17000D01*
Y426467D01*
X-15200D01*
X-14537Y426599D01*
X-13974Y426974D01*
X-13599Y427537D01*
X-13467Y428200D01*
Y430000D01*
D02*
G37*
G36*
X-55000D02*
X-58533D01*
Y428200D01*
X-58401Y427537D01*
X-58026Y426974D01*
X-57463Y426599D01*
X-56800Y426467D01*
X-55000D01*
Y430000D01*
D02*
G37*
G36*
X-69200Y435533D02*
X-74800D01*
X-75463Y435401D01*
X-76026Y435025D01*
X-76401Y434463D01*
X-76533Y433800D01*
Y428200D01*
X-76401Y427537D01*
X-76026Y426974D01*
X-75463Y426599D01*
X-74800Y426467D01*
X-69200D01*
X-68537Y426599D01*
X-67974Y426974D01*
X-67599Y427537D01*
X-67467Y428200D01*
Y433800D01*
X-67599Y434463D01*
X-67974Y435025D01*
X-68537Y435401D01*
X-69200Y435533D01*
D02*
G37*
G36*
X-87200D02*
X-92800D01*
X-93463Y435401D01*
X-94026Y435025D01*
X-94401Y434463D01*
X-94533Y433800D01*
Y428200D01*
X-94401Y427537D01*
X-94026Y426974D01*
X-93463Y426599D01*
X-92800Y426467D01*
X-87200D01*
X-86537Y426599D01*
X-85974Y426974D01*
X-85599Y427537D01*
X-85467Y428200D01*
Y433800D01*
X-85599Y434463D01*
X-85974Y435025D01*
X-86537Y435401D01*
X-87200Y435533D01*
D02*
G37*
G36*
X-105200D02*
X-110800D01*
X-111463Y435401D01*
X-112026Y435025D01*
X-112401Y434463D01*
X-112533Y433800D01*
Y428200D01*
X-112401Y427537D01*
X-112026Y426974D01*
X-111463Y426599D01*
X-110800Y426467D01*
X-105200D01*
X-104537Y426599D01*
X-103974Y426974D01*
X-103599Y427537D01*
X-103467Y428200D01*
Y433800D01*
X-103599Y434463D01*
X-103974Y435025D01*
X-104537Y435401D01*
X-105200Y435533D01*
D02*
G37*
G36*
X-47314Y443396D02*
X-48079Y443079D01*
X-48079Y443079D01*
X-48694Y442464D01*
X-48718Y442406D01*
X-48773Y442376D01*
X-49862Y441020D01*
X-49880Y440960D01*
X-49931Y440925D01*
X-50867Y439458D01*
X-50878Y439397D01*
X-50925Y439356D01*
X-51696Y437797D01*
X-51700Y437735D01*
X-51743Y437689D01*
X-52042Y436872D01*
X-52039Y436803D01*
X-52103Y436511D01*
X-52107Y436500D01*
X-52720Y435778D01*
X-53000Y435578D01*
Y431000D01*
Y426441D01*
X-52730Y426246D01*
X-52277Y425715D01*
X-52095Y425466D01*
X-52046Y425349D01*
X-52024Y425196D01*
X-52028Y425091D01*
X-51426Y423459D01*
X-51343Y423369D01*
X-51322Y423249D01*
X-49444Y420318D01*
X-49344Y420249D01*
X-49297Y420136D01*
X-46834Y417678D01*
X-46721Y417631D01*
X-46651Y417532D01*
X-43716Y415660D01*
X-43596Y415639D01*
X-43506Y415557D01*
X-41872Y414958D01*
X-41803Y414961D01*
X-41512Y414897D01*
X-41500Y414892D01*
X-40779Y414280D01*
X-40578Y414000D01*
X-31442D01*
X-31247Y414270D01*
X-30715Y414723D01*
X-30467Y414905D01*
X-30350Y414953D01*
X-30197Y414976D01*
X-30092Y414972D01*
X-28459Y415574D01*
X-28369Y415657D01*
X-28249Y415678D01*
X-25319Y417556D01*
X-25249Y417656D01*
X-25136Y417703D01*
X-22678Y420166D01*
X-22632Y420279D01*
X-22532Y420349D01*
X-20661Y423284D01*
X-20640Y423404D01*
X-20557Y423493D01*
X-19959Y425128D01*
X-19962Y425196D01*
X-19898Y425488D01*
X-19893Y425500D01*
X-19280Y426222D01*
X-19000Y426421D01*
Y431000D01*
Y435558D01*
X-19270Y435754D01*
X-19902Y436496D01*
X-19905Y436501D01*
X-19905Y436535D01*
X-19905Y436535D01*
X-19954Y436653D01*
X-19976Y436803D01*
X-19972Y436908D01*
X-20271Y437720D01*
X-20313Y437766D01*
X-20318Y437827D01*
X-21088Y439377D01*
X-21135Y439418D01*
X-21145Y439479D01*
X-22078Y440937D01*
X-22129Y440972D01*
X-22146Y441031D01*
X-23231Y442380D01*
X-23286Y442410D01*
X-23309Y442467D01*
X-23921Y443079D01*
X-24686Y443396D01*
X-25452Y443079D01*
Y443079D01*
X-31265Y437265D01*
X-31582Y436500D01*
Y436291D01*
X-31894Y436000D01*
X-32852Y435464D01*
X-33200Y435533D01*
X-38800D01*
X-39148Y435464D01*
X-40106Y436000D01*
X-40418Y436291D01*
Y436500D01*
X-40418Y436500D01*
X-40735Y437265D01*
X-46548Y443079D01*
X-46901Y443225D01*
X-46913Y443230D01*
X-46913D01*
X-47314Y443396D01*
D02*
G37*
G36*
X128800Y417533D02*
X127000D01*
Y414000D01*
X130533D01*
Y415800D01*
X130401Y416463D01*
X130026Y417025D01*
X129463Y417401D01*
X128800Y417533D01*
D02*
G37*
G36*
X125000D02*
X123200D01*
X122537Y417401D01*
X121974Y417025D01*
X121599Y416463D01*
X121467Y415800D01*
Y414000D01*
X125000D01*
Y417533D01*
D02*
G37*
G36*
X56800D02*
X55000D01*
Y414000D01*
X58533D01*
Y415800D01*
X58401Y416463D01*
X58025Y417025D01*
X57463Y417401D01*
X56800Y417533D01*
D02*
G37*
G36*
X53000D02*
X51200D01*
X50537Y417401D01*
X49974Y417025D01*
X49598Y416463D01*
X49467Y415800D01*
Y414000D01*
X53000D01*
Y417533D01*
D02*
G37*
G36*
X20800D02*
X19000D01*
Y414000D01*
X22533D01*
Y415800D01*
X22401Y416463D01*
X22025Y417025D01*
X21463Y417401D01*
X20800Y417533D01*
D02*
G37*
G36*
X17000D02*
X15200D01*
X14537Y417401D01*
X13974Y417025D01*
X13599Y416463D01*
X13467Y415800D01*
Y414000D01*
X17000D01*
Y417533D01*
D02*
G37*
G36*
X2800D02*
X1000D01*
Y414000D01*
X4533D01*
Y415800D01*
X4401Y416463D01*
X4026Y417025D01*
X3463Y417401D01*
X2800Y417533D01*
D02*
G37*
G36*
X-1000D02*
X-2800D01*
X-3463Y417401D01*
X-4026Y417025D01*
X-4401Y416463D01*
X-4533Y415800D01*
Y414000D01*
X-1000D01*
Y417533D01*
D02*
G37*
G36*
X-15200D02*
X-17000D01*
Y414000D01*
X-13467D01*
Y415800D01*
X-13599Y416463D01*
X-13974Y417025D01*
X-14537Y417401D01*
X-15200Y417533D01*
D02*
G37*
G36*
X-19000D02*
X-20800D01*
X-21463Y417401D01*
X-22026Y417025D01*
X-22401Y416463D01*
X-22533Y415800D01*
Y414000D01*
X-19000D01*
Y417533D01*
D02*
G37*
G36*
X-51200D02*
X-53000D01*
Y414000D01*
X-49467D01*
Y415800D01*
X-49599Y416463D01*
X-49974Y417025D01*
X-50537Y417401D01*
X-51200Y417533D01*
D02*
G37*
G36*
X-55000D02*
X-56800D01*
X-57463Y417401D01*
X-58026Y417025D01*
X-58401Y416463D01*
X-58533Y415800D01*
Y414000D01*
X-55000D01*
Y417533D01*
D02*
G37*
G36*
X-123200D02*
X-125000D01*
Y414000D01*
X-121467D01*
Y415800D01*
X-121599Y416463D01*
X-121974Y417025D01*
X-122537Y417401D01*
X-123200Y417533D01*
D02*
G37*
G36*
X-127000D02*
X-128800D01*
X-129463Y417401D01*
X-130026Y417025D01*
X-130401Y416463D01*
X-130533Y415800D01*
Y414000D01*
X-127000D01*
Y417533D01*
D02*
G37*
G36*
X130533Y412000D02*
X127000D01*
Y408467D01*
X128800D01*
X129463Y408599D01*
X130026Y408974D01*
X130401Y409537D01*
X130533Y410200D01*
Y412000D01*
D02*
G37*
G36*
X125000D02*
X121467D01*
Y410200D01*
X121599Y409537D01*
X121974Y408974D01*
X122537Y408599D01*
X123200Y408467D01*
X125000D01*
Y412000D01*
D02*
G37*
G36*
X58533D02*
X55000D01*
Y408467D01*
X56800D01*
X57463Y408599D01*
X58025Y408974D01*
X58401Y409537D01*
X58533Y410200D01*
Y412000D01*
D02*
G37*
G36*
X53000D02*
X49467D01*
Y410200D01*
X49598Y409537D01*
X49974Y408974D01*
X50537Y408599D01*
X51200Y408467D01*
X53000D01*
Y412000D01*
D02*
G37*
G36*
X40533D02*
X37000D01*
Y408467D01*
X38800D01*
X39463Y408599D01*
X40026Y408974D01*
X40401Y409537D01*
X40533Y410200D01*
Y412000D01*
D02*
G37*
G36*
X35000D02*
X31467D01*
Y410200D01*
X31598Y409537D01*
X31974Y408974D01*
X32537Y408599D01*
X33200Y408467D01*
X35000D01*
Y412000D01*
D02*
G37*
G36*
X22533D02*
X19000D01*
Y408467D01*
X20800D01*
X21463Y408599D01*
X22025Y408974D01*
X22401Y409537D01*
X22533Y410200D01*
Y412000D01*
D02*
G37*
G36*
X17000D02*
X13467D01*
Y410200D01*
X13599Y409537D01*
X13974Y408974D01*
X14537Y408599D01*
X15200Y408467D01*
X17000D01*
Y412000D01*
D02*
G37*
G36*
X4533D02*
X1000D01*
Y408467D01*
X2800D01*
X3463Y408599D01*
X4026Y408974D01*
X4401Y409537D01*
X4533Y410200D01*
Y412000D01*
D02*
G37*
G36*
X-1000D02*
X-4533D01*
Y410200D01*
X-4401Y409537D01*
X-4026Y408974D01*
X-3463Y408599D01*
X-2800Y408467D01*
X-1000D01*
Y412000D01*
D02*
G37*
G36*
X-13467D02*
X-17000D01*
Y408467D01*
X-15200D01*
X-14537Y408599D01*
X-13974Y408974D01*
X-13599Y409537D01*
X-13467Y410200D01*
Y412000D01*
D02*
G37*
G36*
X-19000D02*
X-22533D01*
Y410200D01*
X-22401Y409537D01*
X-22026Y408974D01*
X-21463Y408599D01*
X-20800Y408467D01*
X-19000D01*
Y412000D01*
D02*
G37*
G36*
X-31467D02*
X-35000D01*
Y408467D01*
X-33200D01*
X-32537Y408599D01*
X-31974Y408974D01*
X-31599Y409537D01*
X-31467Y410200D01*
Y412000D01*
D02*
G37*
G36*
X-37000D02*
X-40533D01*
Y410200D01*
X-40401Y409537D01*
X-40026Y408974D01*
X-39463Y408599D01*
X-38800Y408467D01*
X-37000D01*
Y412000D01*
D02*
G37*
G36*
X-49467D02*
X-53000D01*
Y408467D01*
X-51200D01*
X-50537Y408599D01*
X-49974Y408974D01*
X-49599Y409537D01*
X-49467Y410200D01*
Y412000D01*
D02*
G37*
G36*
X-55000D02*
X-58533D01*
Y410200D01*
X-58401Y409537D01*
X-58026Y408974D01*
X-57463Y408599D01*
X-56800Y408467D01*
X-55000D01*
Y412000D01*
D02*
G37*
G36*
X-69200Y417533D02*
X-74800D01*
X-75463Y417401D01*
X-76026Y417025D01*
X-76401Y416463D01*
X-76533Y415800D01*
Y410200D01*
X-76401Y409537D01*
X-76026Y408974D01*
X-75463Y408599D01*
X-74800Y408467D01*
X-69200D01*
X-68537Y408599D01*
X-67974Y408974D01*
X-67599Y409537D01*
X-67467Y410200D01*
Y415800D01*
X-67599Y416463D01*
X-67974Y417025D01*
X-68537Y417401D01*
X-69200Y417533D01*
D02*
G37*
G36*
X-87200D02*
X-92800D01*
X-93463Y417401D01*
X-94026Y417025D01*
X-94401Y416463D01*
X-94533Y415800D01*
Y410200D01*
X-94401Y409537D01*
X-94026Y408974D01*
X-93463Y408599D01*
X-92800Y408467D01*
X-87200D01*
X-86537Y408599D01*
X-85974Y408974D01*
X-85599Y409537D01*
X-85467Y410200D01*
Y415800D01*
X-85599Y416463D01*
X-85974Y417025D01*
X-86537Y417401D01*
X-87200Y417533D01*
D02*
G37*
G36*
X-105200D02*
X-110800D01*
X-111463Y417401D01*
X-112026Y417025D01*
X-112401Y416463D01*
X-112533Y415800D01*
Y410200D01*
X-112401Y409537D01*
X-112026Y408974D01*
X-111463Y408599D01*
X-110800Y408467D01*
X-105200D01*
X-104537Y408599D01*
X-103974Y408974D01*
X-103599Y409537D01*
X-103467Y410200D01*
Y415800D01*
X-103599Y416463D01*
X-103974Y417025D01*
X-104537Y417401D01*
X-105200Y417533D01*
D02*
G37*
G36*
X-121467Y412000D02*
X-125000D01*
Y408467D01*
X-123200D01*
X-122537Y408599D01*
X-121974Y408974D01*
X-121599Y409537D01*
X-121467Y410200D01*
Y412000D01*
D02*
G37*
G36*
X-127000D02*
X-130533D01*
Y410200D01*
X-130401Y409537D01*
X-130026Y408974D01*
X-129463Y408599D01*
X-128800Y408467D01*
X-127000D01*
Y412000D01*
D02*
G37*
G36*
X112025Y436108D02*
X85974D01*
X85209Y435791D01*
X84892Y435025D01*
Y408974D01*
X85209Y408209D01*
X85974Y407892D01*
X112025D01*
X112791Y408209D01*
X113108Y408974D01*
Y435025D01*
X112791Y435791D01*
X112025Y436108D01*
D02*
G37*
G36*
X76026D02*
X67974D01*
X67209Y435791D01*
X66892Y435025D01*
Y408974D01*
X67209Y408209D01*
X67974Y407892D01*
X76026D01*
X76791Y408209D01*
X77108Y408974D01*
Y435025D01*
X76791Y435791D01*
X76026Y436108D01*
D02*
G37*
G36*
X128800Y399533D02*
X127000D01*
Y396000D01*
X130533D01*
Y397800D01*
X130401Y398463D01*
X130026Y399025D01*
X129463Y399401D01*
X128800Y399533D01*
D02*
G37*
G36*
X125000D02*
X123200D01*
X122537Y399401D01*
X121974Y399025D01*
X121599Y398463D01*
X121467Y397800D01*
Y396000D01*
X125000D01*
Y399533D01*
D02*
G37*
G36*
X110800D02*
X109000D01*
Y396000D01*
X112533D01*
Y397800D01*
X112401Y398463D01*
X112025Y399025D01*
X111463Y399401D01*
X110800Y399533D01*
D02*
G37*
G36*
X107000D02*
X105200D01*
X104537Y399401D01*
X103974Y399025D01*
X103598Y398463D01*
X103467Y397800D01*
Y396000D01*
X107000D01*
Y399533D01*
D02*
G37*
G36*
X92800D02*
X91000D01*
Y396000D01*
X94533D01*
Y397800D01*
X94401Y398463D01*
X94025Y399025D01*
X93463Y399401D01*
X92800Y399533D01*
D02*
G37*
G36*
X89000D02*
X87200D01*
X86537Y399401D01*
X85974Y399025D01*
X85598Y398463D01*
X85467Y397800D01*
Y396000D01*
X89000D01*
Y399533D01*
D02*
G37*
G36*
X74800D02*
X73000D01*
Y396000D01*
X76533D01*
Y397800D01*
X76401Y398463D01*
X76026Y399025D01*
X75463Y399401D01*
X74800Y399533D01*
D02*
G37*
G36*
X71000D02*
X69200D01*
X68537Y399401D01*
X67974Y399025D01*
X67599Y398463D01*
X67467Y397800D01*
Y396000D01*
X71000D01*
Y399533D01*
D02*
G37*
G36*
X130533Y394000D02*
X127000D01*
Y390467D01*
X128800D01*
X129463Y390598D01*
X130026Y390974D01*
X130401Y391537D01*
X130533Y392200D01*
Y394000D01*
D02*
G37*
G36*
X125000D02*
X121467D01*
Y392200D01*
X121599Y391537D01*
X121974Y390974D01*
X122537Y390598D01*
X123200Y390467D01*
X125000D01*
Y394000D01*
D02*
G37*
G36*
X112533D02*
X109000D01*
Y390467D01*
X110800D01*
X111463Y390598D01*
X112025Y390974D01*
X112401Y391537D01*
X112533Y392200D01*
Y394000D01*
D02*
G37*
G36*
X107000D02*
X103467D01*
Y392200D01*
X103598Y391537D01*
X103974Y390974D01*
X104537Y390598D01*
X105200Y390467D01*
X107000D01*
Y394000D01*
D02*
G37*
G36*
X94533D02*
X91000D01*
Y390467D01*
X92800D01*
X93463Y390598D01*
X94025Y390974D01*
X94401Y391537D01*
X94533Y392200D01*
Y394000D01*
D02*
G37*
G36*
X89000D02*
X85467D01*
Y392200D01*
X85598Y391537D01*
X85974Y390974D01*
X86537Y390598D01*
X87200Y390467D01*
X89000D01*
Y394000D01*
D02*
G37*
G36*
X76533D02*
X73000D01*
Y390467D01*
X74800D01*
X75463Y390598D01*
X76026Y390974D01*
X76401Y391537D01*
X76533Y392200D01*
Y394000D01*
D02*
G37*
G36*
X71000D02*
X67467D01*
Y392200D01*
X67599Y391537D01*
X67974Y390974D01*
X68537Y390598D01*
X69200Y390467D01*
X71000D01*
Y394000D01*
D02*
G37*
G36*
X56800Y399533D02*
X51200D01*
X50537Y399401D01*
X49974Y399025D01*
X49598Y398463D01*
X49467Y397800D01*
Y392200D01*
X49598Y391537D01*
X49974Y390974D01*
X50537Y390598D01*
X51200Y390467D01*
X56800D01*
X57463Y390598D01*
X58025Y390974D01*
X58401Y391537D01*
X58533Y392200D01*
Y397800D01*
X58401Y398463D01*
X58025Y399025D01*
X57463Y399401D01*
X56800Y399533D01*
D02*
G37*
G36*
X38800D02*
X33200D01*
X32537Y399401D01*
X31974Y399025D01*
X31598Y398463D01*
X31467Y397800D01*
Y392200D01*
X31598Y391537D01*
X31974Y390974D01*
X32537Y390598D01*
X33200Y390467D01*
X38800D01*
X39463Y390598D01*
X40026Y390974D01*
X40401Y391537D01*
X40533Y392200D01*
Y397800D01*
X40401Y398463D01*
X40026Y399025D01*
X39463Y399401D01*
X38800Y399533D01*
D02*
G37*
G36*
X20800D02*
X15200D01*
X14537Y399401D01*
X13974Y399025D01*
X13599Y398463D01*
X13467Y397800D01*
Y392200D01*
X13599Y391537D01*
X13974Y390974D01*
X14537Y390598D01*
X15200Y390467D01*
X20800D01*
X21463Y390598D01*
X22025Y390974D01*
X22401Y391537D01*
X22533Y392200D01*
Y397800D01*
X22401Y398463D01*
X22025Y399025D01*
X21463Y399401D01*
X20800Y399533D01*
D02*
G37*
G36*
X2800D02*
X-2800D01*
X-3463Y399401D01*
X-4026Y399025D01*
X-4401Y398463D01*
X-4533Y397800D01*
Y392200D01*
X-4401Y391537D01*
X-4026Y390974D01*
X-3463Y390598D01*
X-2800Y390467D01*
X2800D01*
X3463Y390598D01*
X4026Y390974D01*
X4401Y391537D01*
X4533Y392200D01*
Y397800D01*
X4401Y398463D01*
X4026Y399025D01*
X3463Y399401D01*
X2800Y399533D01*
D02*
G37*
G36*
X-15200D02*
X-20800D01*
X-21463Y399401D01*
X-22026Y399025D01*
X-22401Y398463D01*
X-22533Y397800D01*
Y392200D01*
X-22401Y391537D01*
X-22026Y390974D01*
X-21463Y390598D01*
X-20800Y390467D01*
X-15200D01*
X-14537Y390598D01*
X-13974Y390974D01*
X-13599Y391537D01*
X-13467Y392200D01*
Y397800D01*
X-13599Y398463D01*
X-13974Y399025D01*
X-14537Y399401D01*
X-15200Y399533D01*
D02*
G37*
G36*
X-33200D02*
X-38800D01*
X-39463Y399401D01*
X-40026Y399025D01*
X-40401Y398463D01*
X-40533Y397800D01*
Y392200D01*
X-40401Y391537D01*
X-40026Y390974D01*
X-39463Y390598D01*
X-38800Y390467D01*
X-33200D01*
X-32537Y390598D01*
X-31974Y390974D01*
X-31599Y391537D01*
X-31467Y392200D01*
Y397800D01*
X-31599Y398463D01*
X-31974Y399025D01*
X-32537Y399401D01*
X-33200Y399533D01*
D02*
G37*
G36*
X-51200D02*
X-56800D01*
X-57463Y399401D01*
X-58026Y399025D01*
X-58401Y398463D01*
X-58533Y397800D01*
Y392200D01*
X-58401Y391537D01*
X-58026Y390974D01*
X-57463Y390598D01*
X-56800Y390467D01*
X-51200D01*
X-50537Y390598D01*
X-49974Y390974D01*
X-49599Y391537D01*
X-49467Y392200D01*
Y397800D01*
X-49599Y398463D01*
X-49974Y399025D01*
X-50537Y399401D01*
X-51200Y399533D01*
D02*
G37*
G36*
X-69200D02*
X-74800D01*
X-75463Y399401D01*
X-76026Y399025D01*
X-76401Y398463D01*
X-76533Y397800D01*
Y392200D01*
X-76401Y391537D01*
X-76026Y390974D01*
X-75463Y390598D01*
X-74800Y390467D01*
X-69200D01*
X-68537Y390598D01*
X-67974Y390974D01*
X-67599Y391537D01*
X-67467Y392200D01*
Y397800D01*
X-67599Y398463D01*
X-67974Y399025D01*
X-68537Y399401D01*
X-69200Y399533D01*
D02*
G37*
G36*
X-87200D02*
X-92800D01*
X-93463Y399401D01*
X-94026Y399025D01*
X-94401Y398463D01*
X-94533Y397800D01*
Y392200D01*
X-94401Y391537D01*
X-94026Y390974D01*
X-93463Y390598D01*
X-92800Y390467D01*
X-87200D01*
X-86537Y390598D01*
X-85974Y390974D01*
X-85599Y391537D01*
X-85467Y392200D01*
Y397800D01*
X-85599Y398463D01*
X-85974Y399025D01*
X-86537Y399401D01*
X-87200Y399533D01*
D02*
G37*
G36*
X-105200D02*
X-110800D01*
X-111463Y399401D01*
X-112026Y399025D01*
X-112401Y398463D01*
X-112533Y397800D01*
Y392200D01*
X-112401Y391537D01*
X-112026Y390974D01*
X-111463Y390598D01*
X-110800Y390467D01*
X-105200D01*
X-104537Y390598D01*
X-103974Y390974D01*
X-103599Y391537D01*
X-103467Y392200D01*
Y397800D01*
X-103599Y398463D01*
X-103974Y399025D01*
X-104537Y399401D01*
X-105200Y399533D01*
D02*
G37*
G36*
X-123200D02*
X-128800D01*
X-129463Y399401D01*
X-130026Y399025D01*
X-130401Y398463D01*
X-130533Y397800D01*
Y392200D01*
X-130401Y391537D01*
X-130026Y390974D01*
X-129463Y390598D01*
X-128800Y390467D01*
X-124351D01*
X-120455Y386571D01*
X-120569Y386000D01*
X-120297Y384634D01*
X-119523Y383476D01*
X-118366Y382703D01*
X-117000Y382431D01*
X-115634Y382703D01*
X-114477Y383476D01*
X-113703Y384634D01*
X-113431Y386000D01*
X-113703Y387365D01*
X-114477Y388523D01*
X-115634Y389297D01*
X-117000Y389568D01*
X-117571Y389455D01*
X-121467Y393350D01*
Y397800D01*
X-121599Y398463D01*
X-121974Y399025D01*
X-122537Y399401D01*
X-123200Y399533D01*
D02*
G37*
G36*
X110800Y381533D02*
X109000D01*
Y378000D01*
X112533D01*
Y379800D01*
X112401Y380463D01*
X112025Y381026D01*
X111463Y381401D01*
X110800Y381533D01*
D02*
G37*
G36*
X107000D02*
X105200D01*
X104537Y381401D01*
X103974Y381026D01*
X103598Y380463D01*
X103467Y379800D01*
Y378000D01*
X107000D01*
Y381533D01*
D02*
G37*
G36*
X92800D02*
X91000D01*
Y378000D01*
X94533D01*
Y379800D01*
X94401Y380463D01*
X94025Y381026D01*
X93463Y381401D01*
X92800Y381533D01*
D02*
G37*
G36*
X89000D02*
X87200D01*
X86537Y381401D01*
X85974Y381026D01*
X85598Y380463D01*
X85467Y379800D01*
Y378000D01*
X89000D01*
Y381533D01*
D02*
G37*
G36*
X74800D02*
X73000D01*
Y378000D01*
X76533D01*
Y379800D01*
X76401Y380463D01*
X76026Y381026D01*
X75463Y381401D01*
X74800Y381533D01*
D02*
G37*
G36*
X71000D02*
X69200D01*
X68537Y381401D01*
X67974Y381026D01*
X67599Y380463D01*
X67467Y379800D01*
Y378000D01*
X71000D01*
Y381533D01*
D02*
G37*
G36*
X-69200D02*
X-71000D01*
Y378000D01*
X-67467D01*
Y379800D01*
X-67599Y380463D01*
X-67974Y381026D01*
X-68537Y381401D01*
X-69200Y381533D01*
D02*
G37*
G36*
X-73000D02*
X-74800D01*
X-75463Y381401D01*
X-76026Y381026D01*
X-76401Y380463D01*
X-76533Y379800D01*
Y378000D01*
X-73000D01*
Y381533D01*
D02*
G37*
G36*
X-123200D02*
X-125000D01*
Y378000D01*
X-121467D01*
Y379800D01*
X-121599Y380463D01*
X-121974Y381026D01*
X-122537Y381401D01*
X-123200Y381533D01*
D02*
G37*
G36*
X-127000D02*
X-128800D01*
X-129463Y381401D01*
X-130026Y381026D01*
X-130401Y380463D01*
X-130533Y379800D01*
Y378000D01*
X-127000D01*
Y381533D01*
D02*
G37*
G36*
X128800D02*
X123200D01*
X122537Y381401D01*
X121974Y381026D01*
X121599Y380463D01*
X121467Y379800D01*
Y374200D01*
X121599Y373537D01*
X121974Y372974D01*
X122537Y372598D01*
X123200Y372467D01*
X128800D01*
X129463Y372598D01*
X130026Y372974D01*
X130401Y373537D01*
X130533Y374200D01*
Y379800D01*
X130401Y380463D01*
X130026Y381026D01*
X129463Y381401D01*
X128800Y381533D01*
D02*
G37*
G36*
X112533Y376000D02*
X109000D01*
Y372467D01*
X110800D01*
X111463Y372598D01*
X112025Y372974D01*
X112401Y373537D01*
X112533Y374200D01*
Y376000D01*
D02*
G37*
G36*
X107000D02*
X103467D01*
Y374200D01*
X103598Y373537D01*
X103974Y372974D01*
X104537Y372598D01*
X105200Y372467D01*
X107000D01*
Y376000D01*
D02*
G37*
G36*
X56800Y381533D02*
X51200D01*
X50537Y381401D01*
X49974Y381026D01*
X49598Y380463D01*
X49467Y379800D01*
Y374200D01*
X49598Y373537D01*
X49974Y372974D01*
X50537Y372598D01*
X51200Y372467D01*
X56800D01*
X57463Y372598D01*
X58025Y372974D01*
X58401Y373537D01*
X58533Y374200D01*
Y379800D01*
X58401Y380463D01*
X58025Y381026D01*
X57463Y381401D01*
X56800Y381533D01*
D02*
G37*
G36*
X27000Y389569D02*
X25634Y389297D01*
X24476Y388523D01*
X23703Y387366D01*
X23431Y386000D01*
X23703Y384634D01*
X24476Y383477D01*
X25634Y382703D01*
X27000Y382431D01*
X27571Y382545D01*
X31467Y378649D01*
Y374200D01*
X31598Y373537D01*
X31974Y372974D01*
X32537Y372598D01*
X33200Y372467D01*
X38800D01*
X39463Y372598D01*
X40026Y372974D01*
X40401Y373537D01*
X40533Y374200D01*
Y379800D01*
X40401Y380463D01*
X40026Y381026D01*
X39463Y381401D01*
X38800Y381533D01*
X34351D01*
X30455Y385429D01*
X30568Y386000D01*
X30297Y387366D01*
X29523Y388523D01*
X28365Y389297D01*
X27000Y389569D01*
D02*
G37*
G36*
X20800Y381533D02*
X15200D01*
X14537Y381401D01*
X13974Y381026D01*
X13599Y380463D01*
X13467Y379800D01*
Y374200D01*
X13599Y373537D01*
X13974Y372974D01*
X14537Y372598D01*
X15200Y372467D01*
X20800D01*
X21463Y372598D01*
X22025Y372974D01*
X22401Y373537D01*
X22533Y374200D01*
Y379800D01*
X22401Y380463D01*
X22025Y381026D01*
X21463Y381401D01*
X20800Y381533D01*
D02*
G37*
G36*
X2800D02*
X-2800D01*
X-3463Y381401D01*
X-4026Y381026D01*
X-4401Y380463D01*
X-4533Y379800D01*
Y374200D01*
X-4401Y373537D01*
X-4026Y372974D01*
X-3463Y372598D01*
X-2800Y372467D01*
X2800D01*
X3463Y372598D01*
X4026Y372974D01*
X4401Y373537D01*
X4533Y374200D01*
Y379800D01*
X4401Y380463D01*
X4026Y381026D01*
X3463Y381401D01*
X2800Y381533D01*
D02*
G37*
G36*
X-15200D02*
X-20800D01*
X-21463Y381401D01*
X-22026Y381026D01*
X-22401Y380463D01*
X-22533Y379800D01*
Y374200D01*
X-22401Y373537D01*
X-22026Y372974D01*
X-21463Y372598D01*
X-20800Y372467D01*
X-15200D01*
X-14537Y372598D01*
X-13974Y372974D01*
X-13599Y373537D01*
X-13467Y374200D01*
Y379800D01*
X-13599Y380463D01*
X-13974Y381026D01*
X-14537Y381401D01*
X-15200Y381533D01*
D02*
G37*
G36*
X-33200D02*
X-38800D01*
X-39463Y381401D01*
X-40026Y381026D01*
X-40401Y380463D01*
X-40533Y379800D01*
Y374200D01*
X-40401Y373537D01*
X-40026Y372974D01*
X-39463Y372598D01*
X-38800Y372467D01*
X-33200D01*
X-32537Y372598D01*
X-31974Y372974D01*
X-31599Y373537D01*
X-31467Y374200D01*
Y379800D01*
X-31599Y380463D01*
X-31974Y381026D01*
X-32537Y381401D01*
X-33200Y381533D01*
D02*
G37*
G36*
X-51200D02*
X-56800D01*
X-57463Y381401D01*
X-58026Y381026D01*
X-58401Y380463D01*
X-58533Y379800D01*
Y374200D01*
X-58401Y373537D01*
X-58026Y372974D01*
X-57463Y372598D01*
X-56800Y372467D01*
X-51200D01*
X-50537Y372598D01*
X-49974Y372974D01*
X-49599Y373537D01*
X-49467Y374200D01*
Y379800D01*
X-49599Y380463D01*
X-49974Y381026D01*
X-50537Y381401D01*
X-51200Y381533D01*
D02*
G37*
G36*
X-67467Y376000D02*
X-71000D01*
Y372467D01*
X-69200D01*
X-68537Y372598D01*
X-67974Y372974D01*
X-67599Y373537D01*
X-67467Y374200D01*
Y376000D01*
D02*
G37*
G36*
X-73000D02*
X-76533D01*
Y374200D01*
X-76401Y373537D01*
X-76026Y372974D01*
X-75463Y372598D01*
X-74800Y372467D01*
X-73000D01*
Y376000D01*
D02*
G37*
G36*
X-87200Y381533D02*
X-92800D01*
X-93463Y381401D01*
X-94026Y381026D01*
X-94401Y380463D01*
X-94533Y379800D01*
Y374200D01*
X-94401Y373537D01*
X-94026Y372974D01*
X-93463Y372598D01*
X-92800Y372467D01*
X-87200D01*
X-86537Y372598D01*
X-85974Y372974D01*
X-85599Y373537D01*
X-85467Y374200D01*
Y379800D01*
X-85599Y380463D01*
X-85974Y381026D01*
X-86537Y381401D01*
X-87200Y381533D01*
D02*
G37*
G36*
X-105200D02*
X-110800D01*
X-111463Y381401D01*
X-112026Y381026D01*
X-112401Y380463D01*
X-112533Y379800D01*
Y374200D01*
X-112401Y373537D01*
X-112026Y372974D01*
X-111463Y372598D01*
X-110800Y372467D01*
X-105200D01*
X-104537Y372598D01*
X-103974Y372974D01*
X-103599Y373537D01*
X-103467Y374200D01*
Y379800D01*
X-103599Y380463D01*
X-103974Y381026D01*
X-104537Y381401D01*
X-105200Y381533D01*
D02*
G37*
G36*
X-121467Y376000D02*
X-125000D01*
Y372467D01*
X-123200D01*
X-122537Y372598D01*
X-121974Y372974D01*
X-121599Y373537D01*
X-121467Y374200D01*
Y376000D01*
D02*
G37*
G36*
X-127000D02*
X-130533D01*
Y374200D01*
X-130401Y373537D01*
X-130026Y372974D01*
X-129463Y372598D01*
X-128800Y372467D01*
X-127000D01*
Y376000D01*
D02*
G37*
G36*
X94533D02*
X85467D01*
Y374200D01*
X85598Y373537D01*
X85656Y373451D01*
X85388Y372207D01*
X84628Y371942D01*
X84307Y371918D01*
X83366Y372547D01*
X82000Y372819D01*
X80634Y372547D01*
X79477Y371773D01*
X78523D01*
X77366Y372547D01*
X77279Y372564D01*
X76401Y373537D01*
X76533Y374200D01*
Y376000D01*
X67467D01*
Y374200D01*
X67599Y373537D01*
X67974Y372974D01*
X68537Y372598D01*
X69200Y372467D01*
X72412D01*
X73091Y371197D01*
X72703Y370616D01*
X72432Y369250D01*
X72703Y367884D01*
X73477Y366727D01*
X74634Y365953D01*
X76000Y365681D01*
X77366Y365953D01*
X78523Y366727D01*
X79477D01*
X80634Y365953D01*
X82000Y365681D01*
X83366Y365953D01*
X84523Y366727D01*
X85477D01*
X86634Y365953D01*
X88000Y365681D01*
X89366Y365953D01*
X90523Y366727D01*
X91477D01*
X92634Y365953D01*
X94000Y365681D01*
X95366Y365953D01*
X96523Y366727D01*
X97297Y367884D01*
X97569Y369250D01*
X97297Y370616D01*
X96523Y371773D01*
X95366Y372547D01*
X95279Y372564D01*
X94401Y373537D01*
X94533Y374200D01*
Y376000D01*
D02*
G37*
G36*
X128800Y363533D02*
X127000D01*
Y360000D01*
X130533D01*
Y361800D01*
X130401Y362463D01*
X130026Y363026D01*
X129463Y363401D01*
X128800Y363533D01*
D02*
G37*
G36*
X125000D02*
X123200D01*
X122537Y363401D01*
X121974Y363026D01*
X121599Y362463D01*
X121467Y361800D01*
Y360000D01*
X125000D01*
Y363533D01*
D02*
G37*
G36*
X110800D02*
X109000D01*
Y360000D01*
X112533D01*
Y361800D01*
X112401Y362463D01*
X112025Y363026D01*
X111463Y363401D01*
X110800Y363533D01*
D02*
G37*
G36*
X107000D02*
X105200D01*
X104537Y363401D01*
X103974Y363026D01*
X103598Y362463D01*
X103467Y361800D01*
Y360000D01*
X107000D01*
Y363533D01*
D02*
G37*
G36*
X92800D02*
X91000D01*
Y360000D01*
X94533D01*
Y361800D01*
X94401Y362463D01*
X94025Y363026D01*
X93463Y363401D01*
X92800Y363533D01*
D02*
G37*
G36*
X89000D02*
X87200D01*
X86537Y363401D01*
X85974Y363026D01*
X85598Y362463D01*
X85467Y361800D01*
Y360000D01*
X89000D01*
Y363533D01*
D02*
G37*
G36*
X130533Y358000D02*
X127000D01*
Y354467D01*
X128800D01*
X129463Y354599D01*
X130026Y354974D01*
X130401Y355537D01*
X130533Y356200D01*
Y358000D01*
D02*
G37*
G36*
X125000D02*
X121467D01*
Y356200D01*
X121599Y355537D01*
X121974Y354974D01*
X122537Y354599D01*
X123200Y354467D01*
X125000D01*
Y358000D01*
D02*
G37*
G36*
X112533D02*
X109000D01*
Y354467D01*
X110800D01*
X111463Y354599D01*
X112025Y354974D01*
X112401Y355537D01*
X112533Y356200D01*
Y358000D01*
D02*
G37*
G36*
X107000D02*
X103467D01*
Y356200D01*
X103598Y355537D01*
X103974Y354974D01*
X104537Y354599D01*
X105200Y354467D01*
X107000D01*
Y358000D01*
D02*
G37*
G36*
X94533D02*
X91000D01*
Y354467D01*
X92800D01*
X93463Y354599D01*
X94025Y354974D01*
X94401Y355537D01*
X94533Y356200D01*
Y358000D01*
D02*
G37*
G36*
X89000D02*
X85467D01*
Y356200D01*
X85598Y355537D01*
X85974Y354974D01*
X86537Y354599D01*
X87200Y354467D01*
X89000D01*
Y358000D01*
D02*
G37*
G36*
X74800Y363533D02*
X69200D01*
X68537Y363401D01*
X67974Y363026D01*
X67599Y362463D01*
X67467Y361800D01*
Y356200D01*
X67599Y355537D01*
X67974Y354974D01*
X68537Y354599D01*
X69200Y354467D01*
X74800D01*
X75463Y354599D01*
X76026Y354974D01*
X76401Y355537D01*
X76533Y356200D01*
Y361800D01*
X76401Y362463D01*
X76026Y363026D01*
X75463Y363401D01*
X74800Y363533D01*
D02*
G37*
G36*
X-69200D02*
X-74800D01*
X-75463Y363401D01*
X-76026Y363026D01*
X-76401Y362463D01*
X-76533Y361800D01*
Y356200D01*
X-76401Y355537D01*
X-76026Y354974D01*
X-75463Y354599D01*
X-74800Y354467D01*
X-69200D01*
X-68537Y354599D01*
X-67974Y354974D01*
X-67599Y355537D01*
X-67467Y356200D01*
Y361800D01*
X-67599Y362463D01*
X-67974Y363026D01*
X-68537Y363401D01*
X-69200Y363533D01*
D02*
G37*
G36*
X-87200D02*
X-92800D01*
X-93463Y363401D01*
X-94026Y363026D01*
X-94401Y362463D01*
X-94533Y361800D01*
Y356200D01*
X-94401Y355537D01*
X-94026Y354974D01*
X-93463Y354599D01*
X-92800Y354467D01*
X-87200D01*
X-86537Y354599D01*
X-85974Y354974D01*
X-85599Y355537D01*
X-85467Y356200D01*
Y361800D01*
X-85599Y362463D01*
X-85974Y363026D01*
X-86537Y363401D01*
X-87200Y363533D01*
D02*
G37*
G36*
X-105200D02*
X-110800D01*
X-111463Y363401D01*
X-112026Y363026D01*
X-112401Y362463D01*
X-112533Y361800D01*
Y356200D01*
X-112401Y355537D01*
X-112026Y354974D01*
X-111463Y354599D01*
X-110800Y354467D01*
X-105200D01*
X-104537Y354599D01*
X-103974Y354974D01*
X-103599Y355537D01*
X-103467Y356200D01*
Y361800D01*
X-103599Y362463D01*
X-103974Y363026D01*
X-104537Y363401D01*
X-105200Y363533D01*
D02*
G37*
G36*
X-123200D02*
X-128800D01*
X-129463Y363401D01*
X-130026Y363026D01*
X-130401Y362463D01*
X-130533Y361800D01*
Y356200D01*
X-130401Y355537D01*
X-130026Y354974D01*
X-129463Y354599D01*
X-128800Y354467D01*
X-124351D01*
X-120455Y350571D01*
X-120569Y350000D01*
X-120297Y348634D01*
X-119523Y347476D01*
X-118366Y346703D01*
X-117000Y346431D01*
X-115634Y346703D01*
X-114477Y347476D01*
X-113703Y348634D01*
X-113431Y350000D01*
X-113703Y351365D01*
X-114477Y352523D01*
X-115634Y353297D01*
X-117000Y353568D01*
X-117571Y353455D01*
X-121467Y357351D01*
Y361800D01*
X-121599Y362463D01*
X-121974Y363026D01*
X-122537Y363401D01*
X-123200Y363533D01*
D02*
G37*
G36*
X128800Y345533D02*
X127000D01*
Y342000D01*
X130533D01*
Y343800D01*
X130401Y344463D01*
X130026Y345025D01*
X129463Y345401D01*
X128800Y345533D01*
D02*
G37*
G36*
X125000D02*
X123200D01*
X122537Y345401D01*
X121974Y345025D01*
X121599Y344463D01*
X121467Y343800D01*
Y342000D01*
X125000D01*
Y345533D01*
D02*
G37*
G36*
X110800D02*
X109000D01*
Y342000D01*
X112533D01*
Y343800D01*
X112401Y344463D01*
X112025Y345025D01*
X111463Y345401D01*
X110800Y345533D01*
D02*
G37*
G36*
X107000D02*
X105200D01*
X104537Y345401D01*
X103974Y345025D01*
X103598Y344463D01*
X103467Y343800D01*
Y342000D01*
X107000D01*
Y345533D01*
D02*
G37*
G36*
X92800D02*
X91000D01*
Y342000D01*
X94533D01*
Y343800D01*
X94401Y344463D01*
X94025Y345025D01*
X93463Y345401D01*
X92800Y345533D01*
D02*
G37*
G36*
X89000D02*
X87200D01*
X86537Y345401D01*
X85974Y345025D01*
X85598Y344463D01*
X85467Y343800D01*
Y342000D01*
X89000D01*
Y345533D01*
D02*
G37*
G36*
X-105200D02*
X-110800D01*
X-111463Y345401D01*
X-112026Y345025D01*
X-112401Y344463D01*
X-112533Y343800D01*
Y338200D01*
X-113480Y337039D01*
X-120520D01*
X-121467Y338200D01*
Y343800D01*
X-121599Y344463D01*
X-121974Y345025D01*
X-122537Y345401D01*
X-123200Y345533D01*
X-128800D01*
X-129463Y345401D01*
X-130026Y345025D01*
X-130401Y344463D01*
X-130533Y343800D01*
Y338200D01*
X-130401Y337537D01*
X-130026Y336974D01*
X-129463Y336599D01*
X-128800Y336467D01*
X-126035D01*
Y336172D01*
X-125880Y335391D01*
X-125438Y334730D01*
X-124266Y333558D01*
X-124266Y333558D01*
X-123604Y333116D01*
X-122824Y332961D01*
X-122824Y332961D01*
X-102847D01*
X-102523Y332477D01*
X-101366Y331703D01*
X-100000Y331431D01*
X-98634Y331703D01*
X-97477Y332477D01*
X-96703Y333634D01*
X-96431Y335000D01*
X-96703Y336366D01*
X-97477Y337523D01*
X-98634Y338297D01*
X-100000Y338569D01*
X-101366Y338297D01*
X-102273Y337691D01*
X-103207Y338089D01*
X-103467Y338304D01*
Y343800D01*
X-103599Y344463D01*
X-103974Y345025D01*
X-104537Y345401D01*
X-105200Y345533D01*
D02*
G37*
G36*
X130533Y340000D02*
X127000D01*
Y336467D01*
X128800D01*
X129463Y336599D01*
X130026Y336974D01*
X130401Y337537D01*
X130533Y338200D01*
Y340000D01*
D02*
G37*
G36*
X125000D02*
X121467D01*
Y338200D01*
X121599Y337537D01*
X121974Y336974D01*
X122537Y336599D01*
X123200Y336467D01*
X125000D01*
Y340000D01*
D02*
G37*
G36*
X112533D02*
X109000D01*
Y336467D01*
X110800D01*
X111463Y336599D01*
X112025Y336974D01*
X112401Y337537D01*
X112533Y338200D01*
Y340000D01*
D02*
G37*
G36*
X107000D02*
X103467D01*
Y338200D01*
X103598Y337537D01*
X103974Y336974D01*
X104537Y336599D01*
X105200Y336467D01*
X107000D01*
Y340000D01*
D02*
G37*
G36*
X94533D02*
X91000D01*
Y336467D01*
X92800D01*
X93463Y336599D01*
X94025Y336974D01*
X94401Y337537D01*
X94533Y338200D01*
Y340000D01*
D02*
G37*
G36*
X89000D02*
X85467D01*
Y338200D01*
X85598Y337537D01*
X85974Y336974D01*
X86537Y336599D01*
X87200Y336467D01*
X89000D01*
Y340000D01*
D02*
G37*
G36*
X-69200Y345533D02*
X-74800D01*
X-75463Y345401D01*
X-76026Y345025D01*
X-76401Y344463D01*
X-76533Y343800D01*
Y338200D01*
X-76401Y337537D01*
X-76026Y336974D01*
X-75463Y336599D01*
X-74800Y336467D01*
X-69200D01*
X-68537Y336599D01*
X-67974Y336974D01*
X-67599Y337537D01*
X-67467Y338200D01*
Y343800D01*
X-67599Y344463D01*
X-67974Y345025D01*
X-68537Y345401D01*
X-69200Y345533D01*
D02*
G37*
G36*
X-87200D02*
X-92800D01*
X-93463Y345401D01*
X-94026Y345025D01*
X-94401Y344463D01*
X-94533Y343800D01*
Y338200D01*
X-94401Y337537D01*
X-94026Y336974D01*
X-93463Y336599D01*
X-92800Y336467D01*
X-87200D01*
X-86537Y336599D01*
X-85974Y336974D01*
X-85599Y337537D01*
X-85467Y338200D01*
Y343800D01*
X-85599Y344463D01*
X-85974Y345025D01*
X-86537Y345401D01*
X-87200Y345533D01*
D02*
G37*
G36*
X74800D02*
X69200D01*
X68537Y345401D01*
X67974Y345025D01*
X67599Y344463D01*
X67467Y343800D01*
Y338200D01*
X67599Y337537D01*
X67974Y336974D01*
X68537Y336599D01*
X69200Y336467D01*
X73649D01*
X77545Y332571D01*
X77431Y332000D01*
X77703Y330634D01*
X78477Y329476D01*
X79634Y328703D01*
X81000Y328431D01*
X82366Y328703D01*
X83523Y329476D01*
X84297Y330634D01*
X84569Y332000D01*
X84297Y333365D01*
X83523Y334523D01*
X82366Y335297D01*
X81000Y335568D01*
X80429Y335455D01*
X76533Y339351D01*
Y343800D01*
X76401Y344463D01*
X76026Y345025D01*
X75463Y345401D01*
X74800Y345533D01*
D02*
G37*
G36*
X-10000Y329319D02*
X-11366Y329047D01*
X-12523Y328273D01*
X-12902Y327707D01*
X-13072Y327599D01*
X-14368Y327357D01*
X-14523Y327392D01*
X-14537Y327401D01*
X-15200Y327533D01*
X-17000D01*
Y323000D01*
Y318467D01*
X-15200D01*
X-14537Y318599D01*
X-13974Y318974D01*
X-13599Y319537D01*
X-13467Y320200D01*
Y322446D01*
X-13287Y322595D01*
X-12197Y323008D01*
X-11366Y322453D01*
X-10000Y322181D01*
X-8634Y322453D01*
X-7477Y323227D01*
X-6703Y324384D01*
X-6431Y325750D01*
X-6703Y327116D01*
X-7477Y328273D01*
X-8634Y329047D01*
X-10000Y329319D01*
D02*
G37*
G36*
X20800Y327533D02*
X19000D01*
Y324000D01*
X22533D01*
Y325800D01*
X22401Y326463D01*
X22026Y327026D01*
X21463Y327401D01*
X20800Y327533D01*
D02*
G37*
G36*
X17000D02*
X15200D01*
X14537Y327401D01*
X13974Y327026D01*
X13599Y326463D01*
X13467Y325800D01*
Y324000D01*
X17000D01*
Y327533D01*
D02*
G37*
G36*
X2800D02*
X1000D01*
Y324000D01*
X4533D01*
Y325800D01*
X4401Y326463D01*
X4026Y327026D01*
X3463Y327401D01*
X2800Y327533D01*
D02*
G37*
G36*
X-1000D02*
X-2800D01*
X-3463Y327401D01*
X-4026Y327026D01*
X-4401Y326463D01*
X-4533Y325800D01*
Y324000D01*
X-1000D01*
Y327533D01*
D02*
G37*
G36*
X-19000D02*
X-20800D01*
X-21463Y327401D01*
X-22026Y327026D01*
X-22401Y326463D01*
X-22533Y325800D01*
Y324000D01*
X-19000D01*
Y327533D01*
D02*
G37*
G36*
X22533Y322000D02*
X19000D01*
Y318467D01*
X20800D01*
X21463Y318599D01*
X22026Y318974D01*
X22401Y319537D01*
X22533Y320200D01*
Y322000D01*
D02*
G37*
G36*
X17000D02*
X13467D01*
Y320200D01*
X13599Y319537D01*
X13974Y318974D01*
X14537Y318599D01*
X15200Y318467D01*
X17000D01*
Y322000D01*
D02*
G37*
G36*
X4533D02*
X1000D01*
Y318467D01*
X2800D01*
X3463Y318599D01*
X4026Y318974D01*
X4401Y319537D01*
X4533Y320200D01*
Y322000D01*
D02*
G37*
G36*
X-1000D02*
X-4533D01*
Y320200D01*
X-4401Y319537D01*
X-4026Y318974D01*
X-3463Y318599D01*
X-2800Y318467D01*
X-1000D01*
Y322000D01*
D02*
G37*
G36*
X-19000D02*
X-22533D01*
Y320200D01*
X-22401Y319537D01*
X-22026Y318974D01*
X-21463Y318599D01*
X-20800Y318467D01*
X-19000D01*
Y322000D01*
D02*
G37*
G36*
X128800Y327533D02*
X123200D01*
X122537Y327401D01*
X121974Y327025D01*
X121599Y326463D01*
X121467Y325800D01*
Y320200D01*
X121599Y319537D01*
X121974Y318974D01*
X122537Y318598D01*
X123200Y318467D01*
X128800D01*
X129463Y318598D01*
X130026Y318974D01*
X130401Y319537D01*
X130533Y320200D01*
Y325800D01*
X130401Y326463D01*
X130026Y327025D01*
X129463Y327401D01*
X128800Y327533D01*
D02*
G37*
G36*
X110800D02*
X105200D01*
X104537Y327401D01*
X103974Y327025D01*
X103598Y326463D01*
X103467Y325800D01*
Y320200D01*
X103598Y319537D01*
X103974Y318974D01*
X104537Y318598D01*
X105200Y318467D01*
X110800D01*
X111463Y318598D01*
X112025Y318974D01*
X112401Y319537D01*
X112533Y320200D01*
Y325800D01*
X112401Y326463D01*
X112025Y327025D01*
X111463Y327401D01*
X110800Y327533D01*
D02*
G37*
G36*
X92800D02*
X87200D01*
X86537Y327401D01*
X85974Y327025D01*
X85598Y326463D01*
X85467Y325800D01*
Y320200D01*
X85598Y319537D01*
X85974Y318974D01*
X86537Y318598D01*
X87200Y318467D01*
X92800D01*
X93463Y318598D01*
X94025Y318974D01*
X94401Y319537D01*
X94533Y320200D01*
Y325800D01*
X94401Y326463D01*
X94025Y327025D01*
X93463Y327401D01*
X92800Y327533D01*
D02*
G37*
G36*
X74800D02*
X69200D01*
X68537Y327401D01*
X67974Y327025D01*
X67599Y326463D01*
X67467Y325800D01*
Y320200D01*
X67599Y319537D01*
X67974Y318974D01*
X68537Y318598D01*
X69200Y318467D01*
X74800D01*
X75463Y318598D01*
X76026Y318974D01*
X76401Y319537D01*
X76533Y320200D01*
Y325800D01*
X76401Y326463D01*
X76026Y327025D01*
X75463Y327401D01*
X74800Y327533D01*
D02*
G37*
G36*
X-69200D02*
X-74800D01*
X-75463Y327401D01*
X-76026Y327025D01*
X-76401Y326463D01*
X-76533Y325800D01*
Y320200D01*
X-76401Y319537D01*
X-76026Y318974D01*
X-75463Y318598D01*
X-74800Y318467D01*
X-69200D01*
X-68537Y318598D01*
X-67974Y318974D01*
X-67599Y319537D01*
X-67467Y320200D01*
Y325800D01*
X-67599Y326463D01*
X-67974Y327025D01*
X-68537Y327401D01*
X-69200Y327533D01*
D02*
G37*
G36*
X-87200D02*
X-92800D01*
X-93463Y327401D01*
X-94026Y327025D01*
X-94401Y326463D01*
X-94533Y325800D01*
Y320200D01*
X-94401Y319537D01*
X-94026Y318974D01*
X-93463Y318598D01*
X-92800Y318467D01*
X-87200D01*
X-86537Y318598D01*
X-85974Y318974D01*
X-85599Y319537D01*
X-85467Y320200D01*
Y325800D01*
X-85599Y326463D01*
X-85974Y327025D01*
X-86537Y327401D01*
X-87200Y327533D01*
D02*
G37*
G36*
X-105200D02*
X-110800D01*
X-111463Y327401D01*
X-112026Y327025D01*
X-112401Y326463D01*
X-112533Y325800D01*
Y320200D01*
X-112401Y319537D01*
X-112026Y318974D01*
X-111463Y318598D01*
X-110800Y318467D01*
X-105200D01*
X-104537Y318598D01*
X-103974Y318974D01*
X-103599Y319537D01*
X-103467Y320200D01*
Y325800D01*
X-103599Y326463D01*
X-103974Y327025D01*
X-104537Y327401D01*
X-105200Y327533D01*
D02*
G37*
G36*
X-123200D02*
X-128800D01*
X-129463Y327401D01*
X-130026Y327025D01*
X-130401Y326463D01*
X-130533Y325800D01*
Y320200D01*
X-130401Y319537D01*
X-130026Y318974D01*
X-129463Y318598D01*
X-128800Y318467D01*
X-126065D01*
Y318142D01*
X-125910Y317361D01*
X-125468Y316700D01*
X-122326Y313558D01*
X-122326Y313558D01*
X-121664Y313116D01*
X-120884Y312961D01*
X-102847D01*
X-102523Y312477D01*
X-101366Y311703D01*
X-100000Y311431D01*
X-98634Y311703D01*
X-97477Y312477D01*
X-96703Y313634D01*
X-96431Y315000D01*
X-96703Y316366D01*
X-97477Y317523D01*
X-98634Y318297D01*
X-100000Y318569D01*
X-101366Y318297D01*
X-102523Y317523D01*
X-102847Y317039D01*
X-120039D01*
X-121076Y318076D01*
X-121974Y318974D01*
X-121599Y319537D01*
X-121467Y320200D01*
Y325800D01*
X-121599Y326463D01*
X-121974Y327025D01*
X-122537Y327401D01*
X-123200Y327533D01*
D02*
G37*
G36*
X-81000Y317568D02*
X-82366Y317297D01*
X-83523Y316523D01*
X-84297Y315366D01*
X-84569Y314000D01*
X-84455Y313429D01*
X-88351Y309533D01*
X-92800D01*
X-93463Y309401D01*
X-94026Y309025D01*
X-94401Y308463D01*
X-94533Y307800D01*
Y302200D01*
X-94401Y301537D01*
X-94026Y300974D01*
X-93463Y300599D01*
X-92800Y300467D01*
X-87200D01*
X-86537Y300599D01*
X-85974Y300974D01*
X-85599Y301537D01*
X-85467Y302200D01*
Y306649D01*
X-81571Y310545D01*
X-81000Y310431D01*
X-79634Y310703D01*
X-78477Y311477D01*
X-77703Y312634D01*
X-77431Y314000D01*
X-77703Y315366D01*
X-78477Y316523D01*
X-79634Y317297D01*
X-81000Y317568D01*
D02*
G37*
G36*
X128800Y309533D02*
X127000D01*
Y306000D01*
X130533D01*
Y307800D01*
X130401Y308463D01*
X130026Y309025D01*
X129463Y309401D01*
X128800Y309533D01*
D02*
G37*
G36*
X125000D02*
X123200D01*
X122537Y309401D01*
X121974Y309025D01*
X121599Y308463D01*
X121467Y307800D01*
Y306000D01*
X125000D01*
Y309533D01*
D02*
G37*
G36*
X110800D02*
X109000D01*
Y306000D01*
X112533D01*
Y307800D01*
X112401Y308463D01*
X112025Y309025D01*
X111463Y309401D01*
X110800Y309533D01*
D02*
G37*
G36*
X107000D02*
X105200D01*
X104537Y309401D01*
X103974Y309025D01*
X103598Y308463D01*
X103467Y307800D01*
Y306000D01*
X107000D01*
Y309533D01*
D02*
G37*
G36*
X20800D02*
X19000D01*
Y306000D01*
X22533D01*
Y307800D01*
X22401Y308463D01*
X22026Y309025D01*
X21463Y309401D01*
X20800Y309533D01*
D02*
G37*
G36*
X17000D02*
X15200D01*
X14537Y309401D01*
X13974Y309025D01*
X13599Y308463D01*
X13467Y307800D01*
Y306000D01*
X17000D01*
Y309533D01*
D02*
G37*
G36*
X2800D02*
X1000D01*
Y306000D01*
X4533D01*
Y307800D01*
X4401Y308463D01*
X4026Y309025D01*
X3463Y309401D01*
X2800Y309533D01*
D02*
G37*
G36*
X-1000D02*
X-2800D01*
X-3463Y309401D01*
X-4026Y309025D01*
X-4401Y308463D01*
X-4533Y307800D01*
Y306000D01*
X-1000D01*
Y309533D01*
D02*
G37*
G36*
X-15200D02*
X-17000D01*
Y306000D01*
X-13467D01*
Y307800D01*
X-13599Y308463D01*
X-13974Y309025D01*
X-14537Y309401D01*
X-15200Y309533D01*
D02*
G37*
G36*
X-19000D02*
X-20800D01*
X-21463Y309401D01*
X-22026Y309025D01*
X-22401Y308463D01*
X-22533Y307800D01*
Y306000D01*
X-19000D01*
Y309533D01*
D02*
G37*
G36*
X130578Y304000D02*
X121441D01*
X121246Y303729D01*
X120500Y303095D01*
X120466D01*
X120466Y303095D01*
X120348Y303046D01*
X120197Y303024D01*
X120091Y303028D01*
X118458Y302426D01*
X118369Y302343D01*
X118249Y302322D01*
X115318Y300444D01*
X115249Y300344D01*
X115136Y300297D01*
X112678Y297833D01*
X112631Y297721D01*
X112531Y297651D01*
X110660Y294716D01*
X110639Y294596D01*
X110557Y294506D01*
X109958Y292872D01*
X109961Y292803D01*
X109897Y292512D01*
X109892Y292500D01*
Y292500D01*
X109280Y291779D01*
X109000Y291578D01*
Y287000D01*
Y282441D01*
X109270Y282246D01*
X109723Y281715D01*
X109905Y281467D01*
X109953Y281349D01*
X109976Y281197D01*
X109972Y281091D01*
X110574Y279459D01*
X110656Y279369D01*
X110678Y279249D01*
X112556Y276319D01*
X112656Y276249D01*
X112703Y276136D01*
X115166Y273678D01*
X115279Y273631D01*
X115349Y273532D01*
X118284Y271660D01*
X118404Y271639D01*
X118493Y271557D01*
X120128Y270958D01*
X120197Y270961D01*
X120488Y270897D01*
X120500Y270893D01*
X121221Y270280D01*
X121421Y270000D01*
X130558D01*
X130754Y270271D01*
X131500Y270905D01*
X131534D01*
X131652Y270954D01*
X131803Y270976D01*
X131908Y270972D01*
X132720Y271271D01*
X132766Y271313D01*
X132828Y271318D01*
X134377Y272088D01*
X134418Y272134D01*
X134479Y272145D01*
X135937Y273078D01*
X135972Y273129D01*
X136032Y273146D01*
X137380Y274231D01*
X137410Y274285D01*
X137467Y274309D01*
X138079Y274921D01*
X138079Y274921D01*
X138396Y275686D01*
X138079Y276452D01*
X138079Y276452D01*
X132265Y282265D01*
X131500Y282582D01*
X131291D01*
X131000Y282894D01*
X130464Y283852D01*
X130533Y284200D01*
Y289800D01*
X130464Y290147D01*
X131000Y291106D01*
X131291Y291418D01*
X131500D01*
X131500Y291418D01*
X132265Y291735D01*
X138079Y297548D01*
X138396Y298314D01*
X138079Y299079D01*
X138079Y299079D01*
X137464Y299694D01*
X137406Y299718D01*
X137376Y299772D01*
X136020Y300862D01*
X135960Y300879D01*
X135925Y300931D01*
X134458Y301867D01*
X134397Y301877D01*
X134356Y301924D01*
X132797Y302696D01*
X132735Y302700D01*
X132689Y302742D01*
X131872Y303041D01*
X131803Y303039D01*
X131511Y303102D01*
X131500Y303107D01*
X131500D01*
X130778Y303720D01*
X130578Y304000D01*
D02*
G37*
G36*
X112533D02*
X109000D01*
Y300467D01*
X110800D01*
X111463Y300599D01*
X112025Y300974D01*
X112401Y301537D01*
X112533Y302200D01*
Y304000D01*
D02*
G37*
G36*
X107000D02*
X103467D01*
Y302200D01*
X103598Y301537D01*
X103974Y300974D01*
X104537Y300599D01*
X105200Y300467D01*
X107000D01*
Y304000D01*
D02*
G37*
G36*
X92800Y309533D02*
X87200D01*
X86537Y309401D01*
X85974Y309025D01*
X85598Y308463D01*
X85467Y307800D01*
Y302200D01*
X85598Y301537D01*
X85974Y300974D01*
X86537Y300599D01*
X87200Y300467D01*
X92800D01*
X93463Y300599D01*
X94025Y300974D01*
X94401Y301537D01*
X94533Y302200D01*
Y307800D01*
X94401Y308463D01*
X94025Y309025D01*
X93463Y309401D01*
X92800Y309533D01*
D02*
G37*
G36*
X74800D02*
X69200D01*
X68537Y309401D01*
X67974Y309025D01*
X67599Y308463D01*
X67467Y307800D01*
Y302200D01*
X67599Y301537D01*
X67974Y300974D01*
X68537Y300599D01*
X69200Y300467D01*
X74800D01*
X75463Y300599D01*
X76026Y300974D01*
X76401Y301537D01*
X76533Y302200D01*
Y307800D01*
X76401Y308463D01*
X76026Y309025D01*
X75463Y309401D01*
X74800Y309533D01*
D02*
G37*
G36*
X22533Y304000D02*
X19000D01*
Y300467D01*
X20800D01*
X21463Y300599D01*
X22026Y300974D01*
X22401Y301537D01*
X22533Y302200D01*
Y304000D01*
D02*
G37*
G36*
X17000D02*
X13467D01*
Y302200D01*
X13599Y301537D01*
X13974Y300974D01*
X14537Y300599D01*
X15200Y300467D01*
X17000D01*
Y304000D01*
D02*
G37*
G36*
X4533D02*
X1000D01*
Y300467D01*
X2800D01*
X3463Y300599D01*
X4026Y300974D01*
X4401Y301537D01*
X4533Y302200D01*
Y304000D01*
D02*
G37*
G36*
X-1000D02*
X-4533D01*
Y302200D01*
X-4401Y301537D01*
X-4026Y300974D01*
X-3463Y300599D01*
X-2800Y300467D01*
X-1000D01*
Y304000D01*
D02*
G37*
G36*
X-19000D02*
X-22533D01*
Y302200D01*
X-22401Y301537D01*
X-22026Y300974D01*
X-21463Y300599D01*
X-20800Y300467D01*
X-19000D01*
Y304000D01*
D02*
G37*
G36*
X-69200Y309533D02*
X-74800D01*
X-75463Y309401D01*
X-76026Y309025D01*
X-76401Y308463D01*
X-76533Y307800D01*
Y302200D01*
X-76401Y301537D01*
X-76026Y300974D01*
X-75463Y300599D01*
X-74800Y300467D01*
X-69200D01*
X-68537Y300599D01*
X-67974Y300974D01*
X-67599Y301537D01*
X-67467Y302200D01*
Y307800D01*
X-67599Y308463D01*
X-67974Y309025D01*
X-68537Y309401D01*
X-69200Y309533D01*
D02*
G37*
G36*
X-105200D02*
X-110800D01*
X-111463Y309401D01*
X-112026Y309025D01*
X-112401Y308463D01*
X-112533Y307800D01*
Y302200D01*
X-112401Y301537D01*
X-112026Y300974D01*
X-111463Y300599D01*
X-110800Y300467D01*
X-105200D01*
X-104537Y300599D01*
X-103974Y300974D01*
X-103599Y301537D01*
X-103467Y302200D01*
Y307800D01*
X-103599Y308463D01*
X-103974Y309025D01*
X-104537Y309401D01*
X-105200Y309533D01*
D02*
G37*
G36*
X-123200D02*
X-128800D01*
X-129463Y309401D01*
X-130026Y309025D01*
X-130401Y308463D01*
X-130533Y307800D01*
Y302200D01*
X-130401Y301537D01*
X-130026Y300974D01*
X-129463Y300599D01*
X-128800Y300467D01*
X-123200D01*
X-122537Y300599D01*
X-121974Y300974D01*
X-121599Y301537D01*
X-121467Y302200D01*
Y307800D01*
X-121599Y308463D01*
X-121974Y309025D01*
X-122537Y309401D01*
X-123200Y309533D01*
D02*
G37*
G36*
X-13467Y304000D02*
X-17000D01*
Y300467D01*
X-15200D01*
X-14804Y300545D01*
X-14375Y300478D01*
X-13458Y299792D01*
X-13297Y298984D01*
X-12523Y297827D01*
X-11366Y297053D01*
X-10000Y296781D01*
X-8634Y297053D01*
X-7477Y297827D01*
X-6703Y298984D01*
X-6431Y300350D01*
X-6703Y301716D01*
X-7477Y302873D01*
X-8634Y303647D01*
X-10000Y303919D01*
X-11366Y303647D01*
X-12197Y303092D01*
X-13287Y303505D01*
X-13467Y303654D01*
Y304000D01*
D02*
G37*
G36*
X20800Y291533D02*
X19000D01*
Y288000D01*
X22533D01*
Y289800D01*
X22401Y290463D01*
X22026Y291026D01*
X21463Y291401D01*
X20800Y291533D01*
D02*
G37*
G36*
X17000D02*
X15200D01*
X14537Y291401D01*
X13974Y291026D01*
X13599Y290463D01*
X13467Y289800D01*
Y288000D01*
X17000D01*
Y291533D01*
D02*
G37*
G36*
X2800D02*
X1000D01*
Y288000D01*
X4533D01*
Y289800D01*
X4401Y290463D01*
X4026Y291026D01*
X3463Y291401D01*
X2800Y291533D01*
D02*
G37*
G36*
X-1000D02*
X-2800D01*
X-3463Y291401D01*
X-4026Y291026D01*
X-4401Y290463D01*
X-4533Y289800D01*
Y288000D01*
X-1000D01*
Y291533D01*
D02*
G37*
G36*
X-19000D02*
X-20800D01*
X-21463Y291401D01*
X-22026Y291026D01*
X-22401Y290463D01*
X-22533Y289800D01*
Y288000D01*
X-19000D01*
Y291533D01*
D02*
G37*
G36*
X107000Y291533D02*
X105200D01*
X104537Y291401D01*
X103974Y291026D01*
X103598Y290463D01*
X103467Y289800D01*
Y288000D01*
X107000D01*
Y291533D01*
D02*
G37*
G36*
X-15200Y291533D02*
X-17000D01*
Y287000D01*
Y282467D01*
X-15200D01*
X-14537Y282599D01*
X-13974Y282974D01*
X-13599Y283537D01*
X-13467Y284200D01*
Y284346D01*
X-13287Y284495D01*
X-12197Y284908D01*
X-11366Y284353D01*
X-10000Y284081D01*
X-8634Y284353D01*
X-7477Y285127D01*
X-6703Y286284D01*
X-6431Y287650D01*
X-6703Y289016D01*
X-7477Y290173D01*
X-8634Y290947D01*
X-10000Y291219D01*
X-11366Y290947D01*
X-12279Y290337D01*
X-13135Y290419D01*
X-13728Y290657D01*
X-13974Y291026D01*
X-14537Y291401D01*
X-15200Y291533D01*
D02*
G37*
G36*
X22533Y286000D02*
X19000D01*
Y282467D01*
X20800D01*
X21463Y282599D01*
X22026Y282974D01*
X22401Y283537D01*
X22533Y284200D01*
Y286000D01*
D02*
G37*
G36*
X17000D02*
X13467D01*
Y284200D01*
X13599Y283537D01*
X13974Y282974D01*
X14537Y282599D01*
X15200Y282467D01*
X17000D01*
Y286000D01*
D02*
G37*
G36*
X4533D02*
X1000D01*
Y282467D01*
X2800D01*
X3463Y282599D01*
X4026Y282974D01*
X4401Y283537D01*
X4533Y284200D01*
Y286000D01*
D02*
G37*
G36*
X-1000D02*
X-4533D01*
Y284200D01*
X-4401Y283537D01*
X-4026Y282974D01*
X-3463Y282599D01*
X-2800Y282467D01*
X-1000D01*
Y286000D01*
D02*
G37*
G36*
X-19000D02*
X-22533D01*
Y284200D01*
X-22401Y283537D01*
X-22026Y282974D01*
X-21463Y282599D01*
X-20800Y282467D01*
X-19000D01*
Y286000D01*
D02*
G37*
G36*
X107000Y286000D02*
X103467D01*
Y284200D01*
X103598Y283537D01*
X103974Y282974D01*
X104537Y282599D01*
X105200Y282467D01*
X107000D01*
Y286000D01*
D02*
G37*
G36*
X92800Y291533D02*
X87200D01*
X86537Y291401D01*
X85974Y291026D01*
X85598Y290463D01*
X85467Y289800D01*
Y284200D01*
X85598Y283537D01*
X85974Y282974D01*
X86537Y282599D01*
X87200Y282467D01*
X92800D01*
X93463Y282599D01*
X94025Y282974D01*
X94401Y283537D01*
X94533Y284200D01*
Y289800D01*
X94401Y290463D01*
X94025Y291026D01*
X93463Y291401D01*
X92800Y291533D01*
D02*
G37*
G36*
X-69200D02*
X-74800D01*
X-75463Y291401D01*
X-76026Y291026D01*
X-76401Y290463D01*
X-76533Y289800D01*
Y284200D01*
X-76401Y283537D01*
X-76026Y282974D01*
X-75463Y282599D01*
X-74800Y282467D01*
X-69200D01*
X-68537Y282599D01*
X-67974Y282974D01*
X-67599Y283537D01*
X-67467Y284200D01*
Y289800D01*
X-67599Y290463D01*
X-67974Y291026D01*
X-68537Y291401D01*
X-69200Y291533D01*
D02*
G37*
G36*
X-87200D02*
X-92800D01*
X-93463Y291401D01*
X-94026Y291026D01*
X-94401Y290463D01*
X-94533Y289800D01*
Y284200D01*
X-94401Y283537D01*
X-94026Y282974D01*
X-93463Y282599D01*
X-92800Y282467D01*
X-87200D01*
X-86537Y282599D01*
X-85974Y282974D01*
X-85599Y283537D01*
X-85467Y284200D01*
Y289800D01*
X-85599Y290463D01*
X-85974Y291026D01*
X-86537Y291401D01*
X-87200Y291533D01*
D02*
G37*
G36*
X-105200D02*
X-110800D01*
X-111463Y291401D01*
X-112026Y291026D01*
X-112401Y290463D01*
X-112533Y289800D01*
Y284200D01*
X-112401Y283537D01*
X-112026Y282974D01*
X-111463Y282599D01*
X-110800Y282467D01*
X-105200D01*
X-104537Y282599D01*
X-103974Y282974D01*
X-103599Y283537D01*
X-103467Y284200D01*
Y289800D01*
X-103599Y290463D01*
X-103974Y291026D01*
X-104537Y291401D01*
X-105200Y291533D01*
D02*
G37*
G36*
X-123200D02*
X-128800D01*
X-129463Y291401D01*
X-130026Y291026D01*
X-130401Y290463D01*
X-130533Y289800D01*
Y284200D01*
X-130401Y283537D01*
X-130026Y282974D01*
X-129463Y282599D01*
X-128800Y282467D01*
X-123200D01*
X-122537Y282599D01*
X-121974Y282974D01*
X-121599Y283537D01*
X-121467Y284200D01*
Y289800D01*
X-121599Y290463D01*
X-121974Y291026D01*
X-122537Y291401D01*
X-123200Y291533D01*
D02*
G37*
G36*
X74800D02*
X69200D01*
X68537Y291401D01*
X67974Y291026D01*
X67599Y290463D01*
X67467Y289800D01*
Y284200D01*
X67599Y283537D01*
X67974Y282974D01*
X68537Y282599D01*
X69200Y282467D01*
X73649D01*
X77545Y278571D01*
X77431Y278000D01*
X77703Y276634D01*
X78477Y275476D01*
X79634Y274703D01*
X81000Y274431D01*
X82366Y274703D01*
X83523Y275476D01*
X84297Y276634D01*
X84569Y278000D01*
X84297Y279366D01*
X83523Y280523D01*
X82366Y281297D01*
X81000Y281568D01*
X80429Y281455D01*
X76533Y285350D01*
Y289800D01*
X76401Y290463D01*
X76026Y291026D01*
X75463Y291401D01*
X74800Y291533D01*
D02*
G37*
G36*
X-10000Y278519D02*
X-11366Y278247D01*
X-12523Y277473D01*
X-13297Y276316D01*
X-13569Y274950D01*
X-13297Y273584D01*
X-12523Y272427D01*
X-11366Y271653D01*
X-10000Y271381D01*
X-8634Y271653D01*
X-7477Y272427D01*
X-6703Y273584D01*
X-6431Y274950D01*
X-6703Y276316D01*
X-7477Y277473D01*
X-8634Y278247D01*
X-10000Y278519D01*
D02*
G37*
G36*
X110800Y273533D02*
X109000D01*
Y270000D01*
X112533D01*
Y271800D01*
X112401Y272463D01*
X112025Y273026D01*
X111463Y273401D01*
X110800Y273533D01*
D02*
G37*
G36*
X107000D02*
X105200D01*
X104537Y273401D01*
X103974Y273026D01*
X103598Y272463D01*
X103467Y271800D01*
Y270000D01*
X107000D01*
Y273533D01*
D02*
G37*
G36*
X130533Y268000D02*
X127000D01*
Y264467D01*
X128800D01*
X129463Y264599D01*
X130026Y264974D01*
X130401Y265537D01*
X130533Y266200D01*
Y268000D01*
D02*
G37*
G36*
X125000D02*
X121467D01*
Y266200D01*
X121599Y265537D01*
X121974Y264974D01*
X122537Y264599D01*
X123200Y264467D01*
X125000D01*
Y268000D01*
D02*
G37*
G36*
X112533D02*
X109000D01*
Y264467D01*
X110800D01*
X111463Y264599D01*
X112025Y264974D01*
X112401Y265537D01*
X112533Y266200D01*
Y268000D01*
D02*
G37*
G36*
X107000D02*
X103467D01*
Y266200D01*
X103598Y265537D01*
X103974Y264974D01*
X104537Y264599D01*
X105200Y264467D01*
X107000D01*
Y268000D01*
D02*
G37*
G36*
X92800Y273533D02*
X87200D01*
X86537Y273401D01*
X85974Y273026D01*
X85598Y272463D01*
X85467Y271800D01*
Y266200D01*
X85598Y265537D01*
X85974Y264974D01*
X86537Y264599D01*
X87200Y264467D01*
X92800D01*
X93463Y264599D01*
X94025Y264974D01*
X94401Y265537D01*
X94533Y266200D01*
Y271800D01*
X94401Y272463D01*
X94025Y273026D01*
X93463Y273401D01*
X92800Y273533D01*
D02*
G37*
G36*
X74800D02*
X69200D01*
X68537Y273401D01*
X67974Y273026D01*
X67599Y272463D01*
X67467Y271800D01*
Y266200D01*
X67599Y265537D01*
X67974Y264974D01*
X68537Y264599D01*
X69200Y264467D01*
X74800D01*
X75463Y264599D01*
X76026Y264974D01*
X76401Y265537D01*
X76533Y266200D01*
Y271800D01*
X76401Y272463D01*
X76026Y273026D01*
X75463Y273401D01*
X74800Y273533D01*
D02*
G37*
G36*
X-69200D02*
X-74800D01*
X-75463Y273401D01*
X-76026Y273026D01*
X-76401Y272463D01*
X-76533Y271800D01*
Y266200D01*
X-76401Y265537D01*
X-76026Y264974D01*
X-75463Y264599D01*
X-74800Y264467D01*
X-69200D01*
X-68537Y264599D01*
X-67974Y264974D01*
X-67599Y265537D01*
X-67467Y266200D01*
Y271800D01*
X-67599Y272463D01*
X-67974Y273026D01*
X-68537Y273401D01*
X-69200Y273533D01*
D02*
G37*
G36*
X-87200D02*
X-92800D01*
X-93463Y273401D01*
X-94026Y273026D01*
X-94401Y272463D01*
X-94533Y271800D01*
Y266200D01*
X-94401Y265537D01*
X-94026Y264974D01*
X-93463Y264599D01*
X-92800Y264467D01*
X-87200D01*
X-86537Y264599D01*
X-85974Y264974D01*
X-85599Y265537D01*
X-85467Y266200D01*
Y271800D01*
X-85599Y272463D01*
X-85974Y273026D01*
X-86537Y273401D01*
X-87200Y273533D01*
D02*
G37*
G36*
X-105200D02*
X-110800D01*
X-111463Y273401D01*
X-112026Y273026D01*
X-112401Y272463D01*
X-112533Y271800D01*
Y266200D01*
X-112401Y265537D01*
X-112026Y264974D01*
X-111463Y264599D01*
X-110800Y264467D01*
X-105200D01*
X-104537Y264599D01*
X-103974Y264974D01*
X-103599Y265537D01*
X-103467Y266200D01*
Y271800D01*
X-103599Y272463D01*
X-103974Y273026D01*
X-104537Y273401D01*
X-105200Y273533D01*
D02*
G37*
G36*
X-123200D02*
X-128800D01*
X-129463Y273401D01*
X-130026Y273026D01*
X-130401Y272463D01*
X-130533Y271800D01*
Y266200D01*
X-130401Y265537D01*
X-130026Y264974D01*
X-129463Y264599D01*
X-128800Y264467D01*
X-123200D01*
X-122537Y264599D01*
X-121974Y264974D01*
X-121599Y265537D01*
X-121467Y266200D01*
Y271800D01*
X-121599Y272463D01*
X-121974Y273026D01*
X-122537Y273401D01*
X-123200Y273533D01*
D02*
G37*
G36*
X-69200Y256193D02*
X-74800D01*
X-75463Y256061D01*
X-76026Y255686D01*
X-76401Y255123D01*
X-76533Y254460D01*
Y248860D01*
X-76401Y248197D01*
X-76026Y247634D01*
X-75463Y247259D01*
X-74800Y247127D01*
X-69200D01*
X-68537Y247259D01*
X-67974Y247634D01*
X-67599Y248197D01*
X-67467Y248860D01*
Y254460D01*
X-67599Y255123D01*
X-67974Y255686D01*
X-68537Y256061D01*
X-69200Y256193D01*
D02*
G37*
G36*
X110800Y255533D02*
X105200D01*
X104537Y255401D01*
X103974Y255026D01*
X103598Y254463D01*
X103467Y253800D01*
Y248200D01*
X103598Y247537D01*
X103974Y246974D01*
X104537Y246599D01*
X105200Y246467D01*
X110800D01*
X111463Y246599D01*
X112025Y246974D01*
X112401Y247537D01*
X112533Y248200D01*
Y253800D01*
X112401Y254463D01*
X112025Y255026D01*
X111463Y255401D01*
X110800Y255533D01*
D02*
G37*
G36*
X92800D02*
X87200D01*
X86537Y255401D01*
X85974Y255026D01*
X85598Y254463D01*
X85467Y253800D01*
Y248200D01*
X85598Y247537D01*
X85974Y246974D01*
X86537Y246599D01*
X87200Y246467D01*
X92800D01*
X93463Y246599D01*
X94025Y246974D01*
X94401Y247537D01*
X94533Y248200D01*
Y253800D01*
X94401Y254463D01*
X94025Y255026D01*
X93463Y255401D01*
X92800Y255533D01*
D02*
G37*
G36*
X74800D02*
X69200D01*
X68537Y255401D01*
X67974Y255026D01*
X67599Y254463D01*
X67467Y253800D01*
Y248200D01*
X67599Y247537D01*
X67974Y246974D01*
X68537Y246599D01*
X69200Y246467D01*
X74800D01*
X75463Y246599D01*
X76026Y246974D01*
X76401Y247537D01*
X76533Y248200D01*
Y253800D01*
X76401Y254463D01*
X76026Y255026D01*
X75463Y255401D01*
X74800Y255533D01*
D02*
G37*
G36*
X-87200D02*
X-92800D01*
X-93463Y255401D01*
X-94026Y255026D01*
X-94401Y254463D01*
X-94533Y253800D01*
Y248200D01*
X-94401Y247537D01*
X-94026Y246974D01*
X-93463Y246599D01*
X-92800Y246467D01*
X-87200D01*
X-86537Y246599D01*
X-85974Y246974D01*
X-85599Y247537D01*
X-85467Y248200D01*
Y253800D01*
X-85599Y254463D01*
X-85974Y255026D01*
X-86537Y255401D01*
X-87200Y255533D01*
D02*
G37*
G36*
X-105200D02*
X-110800D01*
X-111463Y255401D01*
X-112026Y255026D01*
X-112401Y254463D01*
X-112533Y253800D01*
Y248200D01*
X-112401Y247537D01*
X-112026Y246974D01*
X-111463Y246599D01*
X-110800Y246467D01*
X-105200D01*
X-104537Y246599D01*
X-103974Y246974D01*
X-103599Y247537D01*
X-103467Y248200D01*
Y253800D01*
X-103599Y254463D01*
X-103974Y255026D01*
X-104537Y255401D01*
X-105200Y255533D01*
D02*
G37*
G36*
X-123200D02*
X-128800D01*
X-129463Y255401D01*
X-130026Y255026D01*
X-130401Y254463D01*
X-130533Y253800D01*
Y248200D01*
X-130401Y247537D01*
X-130026Y246974D01*
X-129463Y246599D01*
X-128800Y246467D01*
X-123200D01*
X-122537Y246599D01*
X-121974Y246974D01*
X-121599Y247537D01*
X-121467Y248200D01*
Y253800D01*
X-121599Y254463D01*
X-121974Y255026D01*
X-122537Y255401D01*
X-123200Y255533D01*
D02*
G37*
G36*
X128800D02*
X123200D01*
X122537Y255401D01*
X121974Y255026D01*
X121599Y254463D01*
X121467Y253800D01*
Y249350D01*
X117571Y245455D01*
X117000Y245569D01*
X115634Y245297D01*
X114476Y244523D01*
X113703Y243366D01*
X113431Y242000D01*
X113703Y240634D01*
X114476Y239477D01*
X115634Y238703D01*
X117000Y238431D01*
X118365Y238703D01*
X119523Y239477D01*
X120297Y240634D01*
X120568Y242000D01*
X120455Y242571D01*
X124350Y246467D01*
X128800D01*
X129463Y246599D01*
X130026Y246974D01*
X130401Y247537D01*
X130533Y248200D01*
Y253800D01*
X130401Y254463D01*
X130026Y255026D01*
X129463Y255401D01*
X128800Y255533D01*
D02*
G37*
G36*
X74800Y237533D02*
X73000D01*
Y234000D01*
X76533D01*
Y235800D01*
X76401Y236463D01*
X76026Y237026D01*
X75463Y237401D01*
X74800Y237533D01*
D02*
G37*
G36*
X71000D02*
X69200D01*
X68537Y237401D01*
X67974Y237026D01*
X67599Y236463D01*
X67467Y235800D01*
Y234000D01*
X71000D01*
Y237533D01*
D02*
G37*
G36*
X110800D02*
X105200D01*
X104537Y237401D01*
X103974Y237026D01*
X103598Y236463D01*
X103467Y235800D01*
Y230200D01*
X103598Y229537D01*
X103974Y228974D01*
X104537Y228599D01*
X105200Y228467D01*
X110800D01*
X111463Y228599D01*
X112025Y228974D01*
X112401Y229537D01*
X112533Y230200D01*
Y235800D01*
X112401Y236463D01*
X112025Y237026D01*
X111463Y237401D01*
X110800Y237533D01*
D02*
G37*
G36*
X92800D02*
X87200D01*
X86537Y237401D01*
X85974Y237026D01*
X85598Y236463D01*
X85467Y235800D01*
Y230200D01*
X85598Y229537D01*
X85974Y228974D01*
X86537Y228599D01*
X87200Y228467D01*
X92800D01*
X93463Y228599D01*
X94025Y228974D01*
X94401Y229537D01*
X94533Y230200D01*
Y235800D01*
X94401Y236463D01*
X94025Y237026D01*
X93463Y237401D01*
X92800Y237533D01*
D02*
G37*
G36*
X76533Y232000D02*
X73000D01*
Y228467D01*
X74800D01*
X75463Y228599D01*
X76026Y228974D01*
X76401Y229537D01*
X76533Y230200D01*
Y232000D01*
D02*
G37*
G36*
X71000D02*
X67467D01*
Y230200D01*
X67599Y229537D01*
X67974Y228974D01*
X68537Y228599D01*
X69200Y228467D01*
X71000D01*
Y232000D01*
D02*
G37*
G36*
X56800Y237533D02*
X51200D01*
X50537Y237401D01*
X49974Y237026D01*
X49598Y236463D01*
X49467Y235800D01*
Y230200D01*
X49598Y229537D01*
X49974Y228974D01*
X50537Y228599D01*
X51200Y228467D01*
X56800D01*
X57463Y228599D01*
X58025Y228974D01*
X58401Y229537D01*
X58533Y230200D01*
Y235800D01*
X58401Y236463D01*
X58025Y237026D01*
X57463Y237401D01*
X56800Y237533D01*
D02*
G37*
G36*
X38800D02*
X33200D01*
X32537Y237401D01*
X31974Y237026D01*
X31598Y236463D01*
X31467Y235800D01*
Y230200D01*
X31598Y229537D01*
X31974Y228974D01*
X32537Y228599D01*
X33200Y228467D01*
X38800D01*
X39463Y228599D01*
X40026Y228974D01*
X40401Y229537D01*
X40533Y230200D01*
Y235800D01*
X40401Y236463D01*
X40026Y237026D01*
X39463Y237401D01*
X38800Y237533D01*
D02*
G37*
G36*
X20800D02*
X15200D01*
X14537Y237401D01*
X13974Y237026D01*
X13599Y236463D01*
X13467Y235800D01*
Y230200D01*
X13599Y229537D01*
X13974Y228974D01*
X14537Y228599D01*
X15200Y228467D01*
X20800D01*
X21463Y228599D01*
X22025Y228974D01*
X22401Y229537D01*
X22533Y230200D01*
Y235800D01*
X22401Y236463D01*
X22025Y237026D01*
X21463Y237401D01*
X20800Y237533D01*
D02*
G37*
G36*
X2800D02*
X-2800D01*
X-3463Y237401D01*
X-4026Y237026D01*
X-4401Y236463D01*
X-4533Y235800D01*
Y230200D01*
X-4401Y229537D01*
X-4026Y228974D01*
X-3463Y228599D01*
X-2800Y228467D01*
X2800D01*
X3463Y228599D01*
X4026Y228974D01*
X4401Y229537D01*
X4533Y230200D01*
Y235800D01*
X4401Y236463D01*
X4026Y237026D01*
X3463Y237401D01*
X2800Y237533D01*
D02*
G37*
G36*
X-15200D02*
X-20800D01*
X-21463Y237401D01*
X-22026Y237026D01*
X-22401Y236463D01*
X-22533Y235800D01*
Y230200D01*
X-22401Y229537D01*
X-22026Y228974D01*
X-21463Y228599D01*
X-20800Y228467D01*
X-15200D01*
X-14537Y228599D01*
X-13974Y228974D01*
X-13599Y229537D01*
X-13467Y230200D01*
Y235800D01*
X-13599Y236463D01*
X-13974Y237026D01*
X-14537Y237401D01*
X-15200Y237533D01*
D02*
G37*
G36*
X-33200D02*
X-38800D01*
X-39463Y237401D01*
X-40026Y237026D01*
X-40401Y236463D01*
X-40533Y235800D01*
Y230200D01*
X-40401Y229537D01*
X-40026Y228974D01*
X-39463Y228599D01*
X-38800Y228467D01*
X-33200D01*
X-32537Y228599D01*
X-31974Y228974D01*
X-31599Y229537D01*
X-31467Y230200D01*
Y235800D01*
X-31599Y236463D01*
X-31974Y237026D01*
X-32537Y237401D01*
X-33200Y237533D01*
D02*
G37*
G36*
X-51200D02*
X-56800D01*
X-57463Y237401D01*
X-58026Y237026D01*
X-58401Y236463D01*
X-58533Y235800D01*
Y230200D01*
X-58401Y229537D01*
X-58026Y228974D01*
X-57463Y228599D01*
X-56800Y228467D01*
X-51200D01*
X-50537Y228599D01*
X-49974Y228974D01*
X-49599Y229537D01*
X-49467Y230200D01*
Y235800D01*
X-49599Y236463D01*
X-49974Y237026D01*
X-50537Y237401D01*
X-51200Y237533D01*
D02*
G37*
G36*
X-69200D02*
X-74800D01*
X-75463Y237401D01*
X-76026Y237026D01*
X-76401Y236463D01*
X-76533Y235800D01*
Y230200D01*
X-76401Y229537D01*
X-76026Y228974D01*
X-75463Y228599D01*
X-74800Y228467D01*
X-69200D01*
X-68537Y228599D01*
X-67974Y228974D01*
X-67599Y229537D01*
X-67467Y230200D01*
Y235800D01*
X-67599Y236463D01*
X-67974Y237026D01*
X-68537Y237401D01*
X-69200Y237533D01*
D02*
G37*
G36*
X-87200D02*
X-92800D01*
X-93463Y237401D01*
X-94026Y237026D01*
X-94401Y236463D01*
X-94533Y235800D01*
Y230200D01*
X-94401Y229537D01*
X-94026Y228974D01*
X-93463Y228599D01*
X-92800Y228467D01*
X-87200D01*
X-86537Y228599D01*
X-85974Y228974D01*
X-85599Y229537D01*
X-85467Y230200D01*
Y235800D01*
X-85599Y236463D01*
X-85974Y237026D01*
X-86537Y237401D01*
X-87200Y237533D01*
D02*
G37*
G36*
X-105200D02*
X-110800D01*
X-111463Y237401D01*
X-112026Y237026D01*
X-112401Y236463D01*
X-112533Y235800D01*
Y230200D01*
X-112401Y229537D01*
X-112026Y228974D01*
X-111463Y228599D01*
X-110800Y228467D01*
X-105200D01*
X-104537Y228599D01*
X-103974Y228974D01*
X-103599Y229537D01*
X-103467Y230200D01*
Y235800D01*
X-103599Y236463D01*
X-103974Y237026D01*
X-104537Y237401D01*
X-105200Y237533D01*
D02*
G37*
G36*
X-123200D02*
X-128800D01*
X-129463Y237401D01*
X-130026Y237026D01*
X-130401Y236463D01*
X-130533Y235800D01*
Y230200D01*
X-130401Y229537D01*
X-130026Y228974D01*
X-129463Y228599D01*
X-128800Y228467D01*
X-123200D01*
X-122537Y228599D01*
X-121974Y228974D01*
X-121599Y229537D01*
X-121467Y230200D01*
Y235800D01*
X-121599Y236463D01*
X-121974Y237026D01*
X-122537Y237401D01*
X-123200Y237533D01*
D02*
G37*
G36*
X128800D02*
X123200D01*
X122537Y237401D01*
X121974Y237026D01*
X121599Y236463D01*
X121467Y235800D01*
Y231350D01*
X117571Y227455D01*
X117000Y227568D01*
X115634Y227297D01*
X114476Y226523D01*
X113703Y225366D01*
X113431Y224000D01*
X113703Y222634D01*
X114476Y221477D01*
X115634Y220703D01*
X117000Y220431D01*
X118365Y220703D01*
X119523Y221477D01*
X120297Y222634D01*
X120568Y224000D01*
X120455Y224571D01*
X124350Y228467D01*
X128800D01*
X129463Y228599D01*
X130026Y228974D01*
X130401Y229537D01*
X130533Y230200D01*
Y235800D01*
X130401Y236463D01*
X130026Y237026D01*
X129463Y237401D01*
X128800Y237533D01*
D02*
G37*
G36*
X-117000Y227569D02*
X-118365Y227297D01*
X-119523Y226523D01*
X-120297Y225366D01*
X-120569Y224000D01*
X-120455Y223429D01*
X-124351Y219533D01*
X-128800D01*
X-129463Y219401D01*
X-130026Y219026D01*
X-130401Y218463D01*
X-130533Y217800D01*
Y212200D01*
X-130401Y211537D01*
X-130026Y210974D01*
X-129463Y210599D01*
X-128800Y210467D01*
X-123200D01*
X-122537Y210599D01*
X-121974Y210974D01*
X-121599Y211537D01*
X-121467Y212200D01*
Y216649D01*
X-117571Y220545D01*
X-117000Y220431D01*
X-115634Y220703D01*
X-114476Y221477D01*
X-113703Y222634D01*
X-113431Y224000D01*
X-113703Y225366D01*
X-114476Y226523D01*
X-115634Y227297D01*
X-117000Y227569D01*
D02*
G37*
G36*
X110800Y219533D02*
X109000D01*
Y216000D01*
X112533D01*
Y217800D01*
X112401Y218463D01*
X112025Y219026D01*
X111463Y219401D01*
X110800Y219533D01*
D02*
G37*
G36*
X107000D02*
X105200D01*
X104537Y219401D01*
X103974Y219026D01*
X103598Y218463D01*
X103467Y217800D01*
Y216000D01*
X107000D01*
Y219533D01*
D02*
G37*
G36*
X-105200D02*
X-107000D01*
Y216000D01*
X-103467D01*
Y217800D01*
X-103599Y218463D01*
X-103974Y219026D01*
X-104537Y219401D01*
X-105200Y219533D01*
D02*
G37*
G36*
X-109000D02*
X-110800D01*
X-111463Y219401D01*
X-112026Y219026D01*
X-112401Y218463D01*
X-112533Y217800D01*
Y216000D01*
X-109000D01*
Y219533D01*
D02*
G37*
G36*
X112533Y214000D02*
X109000D01*
Y210467D01*
X110800D01*
X111463Y210599D01*
X112025Y210974D01*
X112401Y211537D01*
X112533Y212200D01*
Y214000D01*
D02*
G37*
G36*
X107000D02*
X103467D01*
Y212200D01*
X103598Y211537D01*
X103974Y210974D01*
X104537Y210599D01*
X105200Y210467D01*
X107000D01*
Y214000D01*
D02*
G37*
G36*
X92800Y219533D02*
X87200D01*
X86537Y219401D01*
X85974Y219026D01*
X85598Y218463D01*
X85467Y217800D01*
Y212200D01*
X85598Y211537D01*
X85974Y210974D01*
X86537Y210599D01*
X87200Y210467D01*
X92800D01*
X93463Y210599D01*
X94025Y210974D01*
X94401Y211537D01*
X94533Y212200D01*
Y217800D01*
X94401Y218463D01*
X94025Y219026D01*
X93463Y219401D01*
X92800Y219533D01*
D02*
G37*
G36*
X74800D02*
X69200D01*
X68537Y219401D01*
X67974Y219026D01*
X67599Y218463D01*
X67467Y217800D01*
Y212200D01*
X67599Y211537D01*
X67974Y210974D01*
X68537Y210599D01*
X69200Y210467D01*
X74800D01*
X75463Y210599D01*
X76026Y210974D01*
X76401Y211537D01*
X76533Y212200D01*
Y217800D01*
X76401Y218463D01*
X76026Y219026D01*
X75463Y219401D01*
X74800Y219533D01*
D02*
G37*
G36*
X56800D02*
X51200D01*
X50537Y219401D01*
X49974Y219026D01*
X49598Y218463D01*
X49467Y217800D01*
Y212200D01*
X49598Y211537D01*
X49974Y210974D01*
X50537Y210599D01*
X51200Y210467D01*
X56800D01*
X57463Y210599D01*
X58025Y210974D01*
X58401Y211537D01*
X58533Y212200D01*
Y217800D01*
X58401Y218463D01*
X58025Y219026D01*
X57463Y219401D01*
X56800Y219533D01*
D02*
G37*
G36*
X38800D02*
X33200D01*
X32537Y219401D01*
X31974Y219026D01*
X31598Y218463D01*
X31467Y217800D01*
Y212200D01*
X31598Y211537D01*
X31974Y210974D01*
X32537Y210599D01*
X33200Y210467D01*
X38800D01*
X39463Y210599D01*
X40026Y210974D01*
X40401Y211537D01*
X40533Y212200D01*
Y217800D01*
X40401Y218463D01*
X40026Y219026D01*
X39463Y219401D01*
X38800Y219533D01*
D02*
G37*
G36*
X20800D02*
X15200D01*
X14537Y219401D01*
X13974Y219026D01*
X13599Y218463D01*
X13467Y217800D01*
Y212200D01*
X13599Y211537D01*
X13974Y210974D01*
X14537Y210599D01*
X15200Y210467D01*
X20800D01*
X21463Y210599D01*
X22025Y210974D01*
X22401Y211537D01*
X22533Y212200D01*
Y217800D01*
X22401Y218463D01*
X22025Y219026D01*
X21463Y219401D01*
X20800Y219533D01*
D02*
G37*
G36*
X2800D02*
X-2800D01*
X-3463Y219401D01*
X-4026Y219026D01*
X-4401Y218463D01*
X-4533Y217800D01*
Y212200D01*
X-4401Y211537D01*
X-4026Y210974D01*
X-3463Y210599D01*
X-2800Y210467D01*
X2800D01*
X3463Y210599D01*
X4026Y210974D01*
X4401Y211537D01*
X4533Y212200D01*
Y217800D01*
X4401Y218463D01*
X4026Y219026D01*
X3463Y219401D01*
X2800Y219533D01*
D02*
G37*
G36*
X-15200D02*
X-20800D01*
X-21463Y219401D01*
X-22026Y219026D01*
X-22401Y218463D01*
X-22533Y217800D01*
Y212200D01*
X-22401Y211537D01*
X-22026Y210974D01*
X-21463Y210599D01*
X-20800Y210467D01*
X-15200D01*
X-14537Y210599D01*
X-13974Y210974D01*
X-13599Y211537D01*
X-13467Y212200D01*
Y217800D01*
X-13599Y218463D01*
X-13974Y219026D01*
X-14537Y219401D01*
X-15200Y219533D01*
D02*
G37*
G36*
X-33200D02*
X-38800D01*
X-39463Y219401D01*
X-40026Y219026D01*
X-40401Y218463D01*
X-40533Y217800D01*
Y212200D01*
X-40401Y211537D01*
X-40026Y210974D01*
X-39463Y210599D01*
X-38800Y210467D01*
X-33200D01*
X-32537Y210599D01*
X-31974Y210974D01*
X-31599Y211537D01*
X-31467Y212200D01*
Y217800D01*
X-31599Y218463D01*
X-31974Y219026D01*
X-32537Y219401D01*
X-33200Y219533D01*
D02*
G37*
G36*
X-69200D02*
X-74800D01*
X-75463Y219401D01*
X-76026Y219026D01*
X-76401Y218463D01*
X-76533Y217800D01*
Y212200D01*
X-76401Y211537D01*
X-76026Y210974D01*
X-75463Y210599D01*
X-74800Y210467D01*
X-69200D01*
X-68537Y210599D01*
X-67974Y210974D01*
X-67599Y211537D01*
X-67467Y212200D01*
Y217800D01*
X-67599Y218463D01*
X-67974Y219026D01*
X-68537Y219401D01*
X-69200Y219533D01*
D02*
G37*
G36*
X-87200D02*
X-92800D01*
X-93463Y219401D01*
X-94026Y219026D01*
X-94401Y218463D01*
X-94533Y217800D01*
Y212200D01*
X-94401Y211537D01*
X-94026Y210974D01*
X-93463Y210599D01*
X-92800Y210467D01*
X-87200D01*
X-86537Y210599D01*
X-85974Y210974D01*
X-85599Y211537D01*
X-85467Y212200D01*
Y217800D01*
X-85599Y218463D01*
X-85974Y219026D01*
X-86537Y219401D01*
X-87200Y219533D01*
D02*
G37*
G36*
X-103467Y214000D02*
X-107000D01*
Y210467D01*
X-105200D01*
X-104537Y210599D01*
X-103974Y210974D01*
X-103599Y211537D01*
X-103467Y212200D01*
Y214000D01*
D02*
G37*
G36*
X-109000D02*
X-112533D01*
Y212200D01*
X-112401Y211537D01*
X-112026Y210974D01*
X-111463Y210599D01*
X-110800Y210467D01*
X-109000D01*
Y214000D01*
D02*
G37*
G36*
X128800Y219533D02*
X123200D01*
X122537Y219401D01*
X121974Y219026D01*
X121599Y218463D01*
X121467Y217800D01*
Y213351D01*
X117571Y209455D01*
X117000Y209569D01*
X115634Y209297D01*
X114476Y208523D01*
X113703Y207366D01*
X113431Y206000D01*
X113703Y204634D01*
X114476Y203477D01*
X115634Y202703D01*
X117000Y202431D01*
X118365Y202703D01*
X119523Y203477D01*
X120297Y204634D01*
X120568Y206000D01*
X120455Y206571D01*
X124350Y210467D01*
X128800D01*
X129463Y210599D01*
X130026Y210974D01*
X130401Y211537D01*
X130533Y212200D01*
Y217800D01*
X130401Y218463D01*
X130026Y219026D01*
X129463Y219401D01*
X128800Y219533D01*
D02*
G37*
G36*
X-51200D02*
X-56800D01*
X-57463Y219401D01*
X-58026Y219026D01*
X-58401Y218463D01*
X-58533Y217800D01*
Y213351D01*
X-62429Y209455D01*
X-63000Y209569D01*
X-64366Y209297D01*
X-65524Y208523D01*
X-66297Y207366D01*
X-66569Y206000D01*
X-66297Y204634D01*
X-65524Y203477D01*
X-64366Y202703D01*
X-63000Y202431D01*
X-61634Y202703D01*
X-60477Y203477D01*
X-59703Y204634D01*
X-59432Y206000D01*
X-59545Y206571D01*
X-55649Y210467D01*
X-51200D01*
X-50537Y210599D01*
X-49974Y210974D01*
X-49599Y211537D01*
X-49467Y212200D01*
Y217800D01*
X-49599Y218463D01*
X-49974Y219026D01*
X-50537Y219401D01*
X-51200Y219533D01*
D02*
G37*
G36*
X63000Y209569D02*
X61634Y209297D01*
X60477Y208523D01*
X59703Y207366D01*
X59431Y206000D01*
X59545Y205429D01*
X55649Y201533D01*
X51200D01*
X50537Y201401D01*
X49974Y201026D01*
X49598Y200463D01*
X49467Y199800D01*
Y194200D01*
X49598Y193537D01*
X49974Y192974D01*
X50537Y192599D01*
X51200Y192467D01*
X56800D01*
X57463Y192599D01*
X58025Y192974D01*
X58401Y193537D01*
X58533Y194200D01*
Y198649D01*
X62429Y202545D01*
X63000Y202431D01*
X64366Y202703D01*
X65523Y203477D01*
X66297Y204634D01*
X66569Y206000D01*
X66297Y207366D01*
X65523Y208523D01*
X64366Y209297D01*
X63000Y209569D01*
D02*
G37*
G36*
X-51200Y201533D02*
X-53000D01*
Y198000D01*
X-49467D01*
Y199800D01*
X-49599Y200463D01*
X-49974Y201026D01*
X-50537Y201401D01*
X-51200Y201533D01*
D02*
G37*
G36*
X-55000D02*
X-56800D01*
X-57463Y201401D01*
X-58026Y201026D01*
X-58401Y200463D01*
X-58533Y199800D01*
Y198000D01*
X-55000D01*
Y201533D01*
D02*
G37*
G36*
X110800D02*
X105200D01*
X104537Y201401D01*
X103974Y201026D01*
X103598Y200463D01*
X103467Y199800D01*
Y194200D01*
X103598Y193537D01*
X103974Y192974D01*
X104537Y192599D01*
X105200Y192467D01*
X110800D01*
X111463Y192599D01*
X112025Y192974D01*
X112401Y193537D01*
X112533Y194200D01*
Y199800D01*
X112401Y200463D01*
X112025Y201026D01*
X111463Y201401D01*
X110800Y201533D01*
D02*
G37*
G36*
X92800D02*
X87200D01*
X86537Y201401D01*
X85974Y201026D01*
X85598Y200463D01*
X85467Y199800D01*
Y194200D01*
X85598Y193537D01*
X85974Y192974D01*
X86537Y192599D01*
X87200Y192467D01*
X92800D01*
X93463Y192599D01*
X94025Y192974D01*
X94401Y193537D01*
X94533Y194200D01*
Y199800D01*
X94401Y200463D01*
X94025Y201026D01*
X93463Y201401D01*
X92800Y201533D01*
D02*
G37*
G36*
X74800D02*
X69200D01*
X68537Y201401D01*
X67974Y201026D01*
X67599Y200463D01*
X67467Y199800D01*
Y194200D01*
X67599Y193537D01*
X67974Y192974D01*
X68537Y192599D01*
X69200Y192467D01*
X74800D01*
X75463Y192599D01*
X76026Y192974D01*
X76401Y193537D01*
X76533Y194200D01*
Y199800D01*
X76401Y200463D01*
X76026Y201026D01*
X75463Y201401D01*
X74800Y201533D01*
D02*
G37*
G36*
X38800D02*
X33200D01*
X32537Y201401D01*
X31974Y201026D01*
X31598Y200463D01*
X31467Y199800D01*
Y194200D01*
X31598Y193537D01*
X31974Y192974D01*
X32537Y192599D01*
X33200Y192467D01*
X38800D01*
X39463Y192599D01*
X40026Y192974D01*
X40401Y193537D01*
X40533Y194200D01*
Y199800D01*
X40401Y200463D01*
X40026Y201026D01*
X39463Y201401D01*
X38800Y201533D01*
D02*
G37*
G36*
X20800D02*
X15200D01*
X14537Y201401D01*
X13974Y201026D01*
X13599Y200463D01*
X13467Y199800D01*
Y194200D01*
X13599Y193537D01*
X13974Y192974D01*
X14537Y192599D01*
X15200Y192467D01*
X20800D01*
X21463Y192599D01*
X22025Y192974D01*
X22401Y193537D01*
X22533Y194200D01*
Y199800D01*
X22401Y200463D01*
X22025Y201026D01*
X21463Y201401D01*
X20800Y201533D01*
D02*
G37*
G36*
X2800D02*
X-2800D01*
X-3463Y201401D01*
X-4026Y201026D01*
X-4401Y200463D01*
X-4533Y199800D01*
Y194200D01*
X-4401Y193537D01*
X-4026Y192974D01*
X-3463Y192599D01*
X-2800Y192467D01*
X2800D01*
X3463Y192599D01*
X4026Y192974D01*
X4401Y193537D01*
X4533Y194200D01*
Y199800D01*
X4401Y200463D01*
X4026Y201026D01*
X3463Y201401D01*
X2800Y201533D01*
D02*
G37*
G36*
X-15200D02*
X-20800D01*
X-21463Y201401D01*
X-22026Y201026D01*
X-22401Y200463D01*
X-22533Y199800D01*
Y194200D01*
X-22401Y193537D01*
X-22026Y192974D01*
X-21463Y192599D01*
X-20800Y192467D01*
X-15200D01*
X-14537Y192599D01*
X-13974Y192974D01*
X-13599Y193537D01*
X-13467Y194200D01*
Y199800D01*
X-13599Y200463D01*
X-13974Y201026D01*
X-14537Y201401D01*
X-15200Y201533D01*
D02*
G37*
G36*
X-49467Y196000D02*
X-53000D01*
Y192467D01*
X-51200D01*
X-50537Y192599D01*
X-49974Y192974D01*
X-49599Y193537D01*
X-49467Y194200D01*
Y196000D01*
D02*
G37*
G36*
X-55000D02*
X-58533D01*
Y194200D01*
X-58401Y193537D01*
X-58026Y192974D01*
X-57463Y192599D01*
X-56800Y192467D01*
X-55000D01*
Y196000D01*
D02*
G37*
G36*
X-69200Y201533D02*
X-74800D01*
X-75463Y201401D01*
X-76026Y201026D01*
X-76401Y200463D01*
X-76533Y199800D01*
Y194200D01*
X-76401Y193537D01*
X-76026Y192974D01*
X-75463Y192599D01*
X-74800Y192467D01*
X-69200D01*
X-68537Y192599D01*
X-67974Y192974D01*
X-67599Y193537D01*
X-67467Y194200D01*
Y199800D01*
X-67599Y200463D01*
X-67974Y201026D01*
X-68537Y201401D01*
X-69200Y201533D01*
D02*
G37*
G36*
X-87200D02*
X-92800D01*
X-93463Y201401D01*
X-94026Y201026D01*
X-94401Y200463D01*
X-94533Y199800D01*
Y194200D01*
X-94401Y193537D01*
X-94026Y192974D01*
X-93463Y192599D01*
X-92800Y192467D01*
X-87200D01*
X-86537Y192599D01*
X-85974Y192974D01*
X-85599Y193537D01*
X-85467Y194200D01*
Y199800D01*
X-85599Y200463D01*
X-85974Y201026D01*
X-86537Y201401D01*
X-87200Y201533D01*
D02*
G37*
G36*
X-105200D02*
X-110800D01*
X-111463Y201401D01*
X-112026Y201026D01*
X-112401Y200463D01*
X-112533Y199800D01*
Y194200D01*
X-112401Y193537D01*
X-112026Y192974D01*
X-111463Y192599D01*
X-110800Y192467D01*
X-105200D01*
X-104537Y192599D01*
X-103974Y192974D01*
X-103599Y193537D01*
X-103467Y194200D01*
Y199800D01*
X-103599Y200463D01*
X-103974Y201026D01*
X-104537Y201401D01*
X-105200Y201533D01*
D02*
G37*
G36*
X-123200D02*
X-128800D01*
X-129463Y201401D01*
X-130026Y201026D01*
X-130401Y200463D01*
X-130533Y199800D01*
Y194200D01*
X-130401Y193537D01*
X-130026Y192974D01*
X-129463Y192599D01*
X-128800Y192467D01*
X-123200D01*
X-122537Y192599D01*
X-121974Y192974D01*
X-121599Y193537D01*
X-121467Y194200D01*
Y199800D01*
X-121599Y200463D01*
X-121974Y201026D01*
X-122537Y201401D01*
X-123200Y201533D01*
D02*
G37*
G36*
X128800D02*
X123200D01*
X122537Y201401D01*
X121974Y201026D01*
X121599Y200463D01*
X121467Y199800D01*
Y195350D01*
X117571Y191455D01*
X117000Y191569D01*
X115634Y191297D01*
X114476Y190523D01*
X113703Y189366D01*
X113431Y188000D01*
X113703Y186634D01*
X114476Y185477D01*
X115634Y184703D01*
X117000Y184431D01*
X118365Y184703D01*
X119523Y185477D01*
X120297Y186634D01*
X120568Y188000D01*
X120455Y188571D01*
X124350Y192467D01*
X128800D01*
X129463Y192599D01*
X130026Y192974D01*
X130401Y193537D01*
X130533Y194200D01*
Y199800D01*
X130401Y200463D01*
X130026Y201026D01*
X129463Y201401D01*
X128800Y201533D01*
D02*
G37*
G36*
X-45000Y191569D02*
X-46366Y191297D01*
X-47523Y190523D01*
X-48297Y189366D01*
X-48569Y188000D01*
X-48455Y187429D01*
X-52351Y183533D01*
X-56800D01*
X-57463Y183401D01*
X-58026Y183026D01*
X-58401Y182463D01*
X-58533Y181800D01*
Y176200D01*
X-58401Y175537D01*
X-58026Y174974D01*
X-57463Y174599D01*
X-56800Y174467D01*
X-51200D01*
X-50537Y174599D01*
X-49974Y174974D01*
X-49599Y175537D01*
X-49467Y176200D01*
Y180649D01*
X-45571Y184545D01*
X-45000Y184431D01*
X-43634Y184703D01*
X-42477Y185477D01*
X-41703Y186634D01*
X-41431Y188000D01*
X-41703Y189366D01*
X-42477Y190523D01*
X-43634Y191297D01*
X-45000Y191569D01*
D02*
G37*
G36*
X-33200Y201533D02*
X-38800D01*
X-39463Y201401D01*
X-40026Y201026D01*
X-40401Y200463D01*
X-40533Y199800D01*
Y194200D01*
X-40401Y193537D01*
X-40026Y192974D01*
X-39463Y192599D01*
X-38800Y192467D01*
X-34351D01*
X-30455Y188571D01*
X-30569Y188000D01*
X-30297Y186634D01*
X-29523Y185476D01*
X-28366Y184703D01*
X-27000Y184431D01*
X-25634Y184703D01*
X-24477Y185476D01*
X-23703Y186634D01*
X-23431Y188000D01*
X-23703Y189366D01*
X-24477Y190523D01*
X-25634Y191297D01*
X-27000Y191569D01*
X-27571Y191455D01*
X-31467Y195351D01*
Y199800D01*
X-31599Y200463D01*
X-31974Y201026D01*
X-32537Y201401D01*
X-33200Y201533D01*
D02*
G37*
G36*
X110800Y183533D02*
X105200D01*
X104537Y183401D01*
X103974Y183026D01*
X103598Y182463D01*
X103467Y181800D01*
Y176200D01*
X103598Y175537D01*
X103974Y174974D01*
X104537Y174599D01*
X105200Y174467D01*
X110800D01*
X111463Y174599D01*
X112025Y174974D01*
X112401Y175537D01*
X112533Y176200D01*
Y181800D01*
X112401Y182463D01*
X112025Y183026D01*
X111463Y183401D01*
X110800Y183533D01*
D02*
G37*
G36*
X81000Y191569D02*
X79634Y191297D01*
X78477Y190523D01*
X77703Y189366D01*
X77431Y188000D01*
X77703Y186635D01*
X78477Y185477D01*
X79634Y184703D01*
X81000Y184431D01*
X81571Y184545D01*
X85467Y180649D01*
Y176200D01*
X85598Y175537D01*
X85974Y174974D01*
X86537Y174599D01*
X87200Y174467D01*
X92800D01*
X93463Y174599D01*
X94025Y174974D01*
X94401Y175537D01*
X94533Y176200D01*
Y181800D01*
X94401Y182463D01*
X94025Y183026D01*
X93463Y183401D01*
X92800Y183533D01*
X88350D01*
X84455Y187429D01*
X84568Y188000D01*
X84297Y189366D01*
X83523Y190523D01*
X82366Y191297D01*
X81000Y191569D01*
D02*
G37*
G36*
X63000D02*
X61634Y191297D01*
X60476Y190523D01*
X59703Y189366D01*
X59431Y188000D01*
X59703Y186635D01*
X60476Y185477D01*
X61634Y184703D01*
X63000Y184431D01*
X63571Y184545D01*
X67467Y180649D01*
Y176200D01*
X67599Y175537D01*
X67974Y174974D01*
X68537Y174599D01*
X69200Y174467D01*
X74800D01*
X75463Y174599D01*
X76026Y174974D01*
X76401Y175537D01*
X76533Y176200D01*
Y181800D01*
X76401Y182463D01*
X76026Y183026D01*
X75463Y183401D01*
X74800Y183533D01*
X70350D01*
X66455Y187429D01*
X66568Y188000D01*
X66297Y189366D01*
X65523Y190523D01*
X64366Y191297D01*
X63000Y191569D01*
D02*
G37*
G36*
X45000D02*
X43634Y191297D01*
X42477Y190523D01*
X41703Y189366D01*
X41431Y188000D01*
X41703Y186635D01*
X42477Y185477D01*
X43634Y184703D01*
X45000Y184431D01*
X45571Y184545D01*
X49467Y180649D01*
Y176200D01*
X49598Y175537D01*
X49974Y174974D01*
X50537Y174599D01*
X51200Y174467D01*
X56800D01*
X57463Y174599D01*
X58025Y174974D01*
X58401Y175537D01*
X58533Y176200D01*
Y181800D01*
X58401Y182463D01*
X58025Y183026D01*
X57463Y183401D01*
X56800Y183533D01*
X52350D01*
X48455Y187429D01*
X48569Y188000D01*
X48297Y189366D01*
X47523Y190523D01*
X46365Y191297D01*
X45000Y191569D01*
D02*
G37*
G36*
X27000D02*
X25634Y191297D01*
X24476Y190523D01*
X23703Y189366D01*
X23431Y188000D01*
X23703Y186635D01*
X24476Y185477D01*
X25634Y184703D01*
X27000Y184431D01*
X27571Y184545D01*
X31467Y180649D01*
Y176200D01*
X31598Y175537D01*
X31974Y174974D01*
X32537Y174599D01*
X33200Y174467D01*
X38800D01*
X39463Y174599D01*
X40026Y174974D01*
X40401Y175537D01*
X40533Y176200D01*
Y181800D01*
X40401Y182463D01*
X40026Y183026D01*
X39463Y183401D01*
X38800Y183533D01*
X34351D01*
X30455Y187429D01*
X30568Y188000D01*
X30297Y189366D01*
X29523Y190523D01*
X28365Y191297D01*
X27000Y191569D01*
D02*
G37*
G36*
X20800Y183533D02*
X15200D01*
X14537Y183401D01*
X13974Y183026D01*
X13599Y182463D01*
X13467Y181800D01*
Y176200D01*
X13599Y175537D01*
X13974Y174974D01*
X14537Y174599D01*
X15200Y174467D01*
X20800D01*
X21463Y174599D01*
X22025Y174974D01*
X22401Y175537D01*
X22533Y176200D01*
Y181800D01*
X22401Y182463D01*
X22025Y183026D01*
X21463Y183401D01*
X20800Y183533D01*
D02*
G37*
G36*
X2800D02*
X-2800D01*
X-3463Y183401D01*
X-4026Y183026D01*
X-4401Y182463D01*
X-4533Y181800D01*
Y176200D01*
X-4401Y175537D01*
X-4026Y174974D01*
X-3463Y174599D01*
X-2800Y174467D01*
X2800D01*
X3463Y174599D01*
X4026Y174974D01*
X4401Y175537D01*
X4533Y176200D01*
Y181800D01*
X4401Y182463D01*
X4026Y183026D01*
X3463Y183401D01*
X2800Y183533D01*
D02*
G37*
G36*
X-15200D02*
X-20800D01*
X-21463Y183401D01*
X-22026Y183026D01*
X-22401Y182463D01*
X-22533Y181800D01*
Y176200D01*
X-22401Y175537D01*
X-22026Y174974D01*
X-21463Y174599D01*
X-20800Y174467D01*
X-15200D01*
X-14537Y174599D01*
X-13974Y174974D01*
X-13599Y175537D01*
X-13467Y176200D01*
Y181800D01*
X-13599Y182463D01*
X-13974Y183026D01*
X-14537Y183401D01*
X-15200Y183533D01*
D02*
G37*
G36*
X-33200D02*
X-38800D01*
X-39463Y183401D01*
X-40026Y183026D01*
X-40401Y182463D01*
X-40533Y181800D01*
Y176200D01*
X-40401Y175537D01*
X-40026Y174974D01*
X-39463Y174599D01*
X-38800Y174467D01*
X-33200D01*
X-32537Y174599D01*
X-31974Y174974D01*
X-31599Y175537D01*
X-31467Y176200D01*
Y181800D01*
X-31599Y182463D01*
X-31974Y183026D01*
X-32537Y183401D01*
X-33200Y183533D01*
D02*
G37*
G36*
X-81000Y191569D02*
X-82366Y191297D01*
X-83523Y190523D01*
X-84297Y189366D01*
X-84569Y188000D01*
X-84297Y186635D01*
X-83523Y185477D01*
X-82366Y184703D01*
X-81000Y184431D01*
X-80429Y184545D01*
X-76533Y180649D01*
Y176200D01*
X-76401Y175537D01*
X-76026Y174974D01*
X-75463Y174599D01*
X-74800Y174467D01*
X-69200D01*
X-68537Y174599D01*
X-67974Y174974D01*
X-67599Y175537D01*
X-67467Y176200D01*
Y181800D01*
X-67599Y182463D01*
X-67974Y183026D01*
X-68537Y183401D01*
X-69200Y183533D01*
X-73650D01*
X-77545Y187429D01*
X-77432Y188000D01*
X-77703Y189366D01*
X-78477Y190523D01*
X-79634Y191297D01*
X-81000Y191569D01*
D02*
G37*
G36*
X-87200Y183533D02*
X-92800D01*
X-93463Y183401D01*
X-94026Y183026D01*
X-94401Y182463D01*
X-94533Y181800D01*
Y176200D01*
X-94401Y175537D01*
X-94026Y174974D01*
X-93463Y174599D01*
X-92800Y174467D01*
X-89656D01*
X-84415Y169226D01*
X-84297Y168634D01*
X-83523Y167477D01*
X-82366Y166703D01*
X-81000Y166431D01*
X-79634Y166703D01*
X-78477Y167477D01*
X-77703Y168634D01*
X-77431Y170000D01*
X-77703Y171366D01*
X-78477Y172523D01*
X-79634Y173297D01*
X-80226Y173414D01*
X-85467Y178655D01*
Y181800D01*
X-85599Y182463D01*
X-85974Y183026D01*
X-86537Y183401D01*
X-87200Y183533D01*
D02*
G37*
G36*
X-105200D02*
X-110800D01*
X-111463Y183401D01*
X-112026Y183026D01*
X-112401Y182463D01*
X-112533Y181800D01*
Y176200D01*
X-112401Y175537D01*
X-112026Y174974D01*
X-111463Y174599D01*
X-110800Y174467D01*
X-107655D01*
X-102415Y169226D01*
X-102297Y168634D01*
X-101523Y167477D01*
X-100366Y166703D01*
X-99000Y166431D01*
X-97634Y166703D01*
X-96477Y167477D01*
X-95703Y168634D01*
X-95431Y170000D01*
X-95703Y171366D01*
X-96477Y172523D01*
X-97634Y173297D01*
X-98226Y173414D01*
X-103467Y178655D01*
Y181800D01*
X-103599Y182463D01*
X-103974Y183026D01*
X-104537Y183401D01*
X-105200Y183533D01*
D02*
G37*
G36*
X102650Y159960D02*
X100300D01*
Y157360D01*
X102650D01*
Y159960D01*
D02*
G37*
G36*
X98300D02*
X95950D01*
Y157360D01*
X98300D01*
Y159960D01*
D02*
G37*
G36*
X90700Y166329D02*
X89334Y166057D01*
X88177Y165283D01*
X87403Y164126D01*
X87131Y162760D01*
X87403Y161394D01*
X87513Y161230D01*
X87350Y159960D01*
X87350D01*
X87350Y159960D01*
Y153730D01*
X87350Y152460D01*
X87350Y151490D01*
Y149860D01*
X94050D01*
Y151490D01*
X94050Y152760D01*
X94050Y153730D01*
Y159960D01*
X94050Y159960D01*
X94050D01*
X93887Y161230D01*
X93997Y161394D01*
X94269Y162760D01*
X93997Y164126D01*
X93223Y165283D01*
X92066Y166057D01*
X90700Y166329D01*
D02*
G37*
G36*
X52650Y152460D02*
X50300D01*
Y149860D01*
X52650D01*
Y152460D01*
D02*
G37*
G36*
X48300D02*
X45950D01*
Y149860D01*
X48300D01*
Y152460D01*
D02*
G37*
G36*
X-132800Y146600D02*
X-135150D01*
Y144000D01*
X-132800D01*
Y146600D01*
D02*
G37*
G36*
X44050Y152460D02*
X37350D01*
Y145260D01*
X37350D01*
Y144340D01*
X37350D01*
Y142784D01*
X35000D01*
Y143250D01*
X25000D01*
Y142789D01*
X23656D01*
X23537Y142909D01*
X23297Y144116D01*
X22523Y145273D01*
X21366Y146047D01*
X20000Y146319D01*
X18634Y146047D01*
X17477Y145273D01*
X16703Y144116D01*
X16431Y142750D01*
X16703Y141384D01*
X17477Y140227D01*
X18634Y139453D01*
X20000Y139181D01*
X21248Y139430D01*
X21370Y139308D01*
X21370Y139308D01*
X22031Y138866D01*
X22812Y138711D01*
X22812Y138711D01*
X25000D01*
Y138250D01*
X27961D01*
Y136750D01*
X25000D01*
Y131750D01*
X30678D01*
X31357Y130480D01*
X31203Y130250D01*
X25000D01*
Y129727D01*
X22805D01*
X22523Y130148D01*
X21366Y130922D01*
X20000Y131194D01*
X18634Y130922D01*
X17477Y130148D01*
X16703Y128991D01*
X16431Y127625D01*
X16703Y126259D01*
X17477Y125102D01*
X17520Y125072D01*
Y123802D01*
X17477Y123773D01*
X16703Y122616D01*
X16431Y121250D01*
X16703Y119884D01*
X17477Y118727D01*
X17614Y118635D01*
Y117365D01*
X17477Y117273D01*
X16703Y116116D01*
X16431Y114750D01*
X16703Y113384D01*
X17477Y112227D01*
X17614Y112135D01*
Y110865D01*
X17477Y110773D01*
X16703Y109616D01*
X16431Y108250D01*
X16703Y106884D01*
X17477Y105727D01*
X17614Y105635D01*
Y104365D01*
X17477Y104273D01*
X16703Y103116D01*
X16431Y101750D01*
X16703Y100384D01*
X17477Y99227D01*
X18634Y98453D01*
X20000Y98181D01*
X21366Y98453D01*
X22523Y99227D01*
X22847Y99711D01*
X25000D01*
Y99250D01*
X30303D01*
X30500Y99211D01*
X30500Y99211D01*
X37350D01*
Y97150D01*
X44050D01*
Y104350D01*
X44050D01*
Y104650D01*
X44050D01*
Y111850D01*
X44050Y111850D01*
Y112775D01*
X44050D01*
X44050Y113120D01*
Y119975D01*
X44050Y119975D01*
Y120900D01*
X44050D01*
X44050Y121245D01*
Y128100D01*
X44050Y128100D01*
Y129025D01*
X44050D01*
X44050Y129370D01*
Y136225D01*
X44050D01*
Y137140D01*
X44050D01*
Y144340D01*
X44050D01*
Y145260D01*
X44050D01*
Y152460D01*
D02*
G37*
G36*
X-45950Y144350D02*
X-48300D01*
Y141750D01*
X-45950D01*
Y144350D01*
D02*
G37*
G36*
X-50300D02*
X-52650D01*
Y141750D01*
X-50300D01*
Y144350D01*
D02*
G37*
G36*
X52650Y147860D02*
X49300D01*
X45950D01*
Y145610D01*
X45950Y145260D01*
Y144340D01*
X45950Y143990D01*
Y141740D01*
X49300D01*
X52650D01*
Y143990D01*
X52650Y144340D01*
Y145260D01*
X52650Y145610D01*
Y147860D01*
D02*
G37*
G36*
X-132800Y142000D02*
X-135150D01*
Y139400D01*
X-132800D01*
Y142000D01*
D02*
G37*
G36*
X-37350Y144350D02*
X-44050D01*
Y137495D01*
X-44050Y137150D01*
Y136225D01*
X-44050Y135880D01*
Y129025D01*
X-44050Y129025D01*
Y128100D01*
X-44050D01*
X-44050Y127755D01*
Y120900D01*
X-44050Y120900D01*
Y119975D01*
X-44050D01*
X-44050Y119630D01*
Y112775D01*
X-44050Y112775D01*
Y111850D01*
X-44050D01*
X-44050Y111505D01*
Y104650D01*
X-37350D01*
Y108966D01*
X-36270Y110046D01*
X-35000Y109520D01*
Y105750D01*
X-25000D01*
Y106211D01*
X-22847D01*
X-22523Y105727D01*
X-21366Y104953D01*
X-20000Y104681D01*
X-18634Y104953D01*
X-17477Y105727D01*
X-16703Y106884D01*
X-16431Y108250D01*
X-16703Y109616D01*
X-17477Y110773D01*
X-17614Y110865D01*
Y112135D01*
X-17477Y112227D01*
X-16703Y113384D01*
X-16431Y114750D01*
X-16703Y116116D01*
X-17477Y117273D01*
X-17614Y117365D01*
Y118635D01*
X-17477Y118727D01*
X-16703Y119884D01*
X-16431Y121250D01*
X-16703Y122616D01*
X-17477Y123773D01*
X-17614Y123865D01*
Y125135D01*
X-17477Y125227D01*
X-16703Y126384D01*
X-16431Y127750D01*
X-16703Y129116D01*
X-17477Y130273D01*
X-18634Y131047D01*
X-20000Y131319D01*
X-21366Y131047D01*
X-22523Y130273D01*
X-22847Y129789D01*
X-25000D01*
Y130250D01*
X-35000D01*
Y129789D01*
X-37350D01*
Y132211D01*
X-35000D01*
Y131750D01*
X-25000D01*
Y136750D01*
X-35000D01*
Y136289D01*
X-36437D01*
X-37350Y137150D01*
X-37350Y137441D01*
X-37064Y138711D01*
X-35000D01*
Y138250D01*
X-25000D01*
Y138711D01*
X-23461D01*
X-23297Y137884D01*
X-22523Y136727D01*
X-21366Y135953D01*
X-20000Y135681D01*
X-18634Y135953D01*
X-17477Y136727D01*
X-16703Y137884D01*
X-16431Y139250D01*
X-16703Y140616D01*
X-17477Y141773D01*
X-18634Y142547D01*
X-20000Y142819D01*
X-21366Y142547D01*
X-21383Y142535D01*
X-21531Y142634D01*
X-22312Y142789D01*
X-25000D01*
Y143250D01*
X-35000D01*
Y142789D01*
X-37350D01*
Y144350D01*
D02*
G37*
G36*
X-45950Y139750D02*
X-52650D01*
Y137495D01*
X-52650Y137150D01*
Y136225D01*
X-52650Y135880D01*
Y133625D01*
X-45950D01*
Y135880D01*
X-45950Y136225D01*
Y137150D01*
X-45950Y137495D01*
Y139750D01*
D02*
G37*
G36*
X-132800Y133600D02*
X-135150D01*
Y131000D01*
X-132800D01*
Y133600D01*
D02*
G37*
G36*
X94050Y147860D02*
X87350D01*
Y146230D01*
X87350Y145260D01*
X87350Y143990D01*
Y137760D01*
X89132D01*
Y137188D01*
X89288Y136408D01*
X89730Y135746D01*
X92000Y133476D01*
Y130360D01*
X98000D01*
Y136360D01*
X94884D01*
X94558Y136686D01*
X94050Y137760D01*
X94050D01*
X94050Y137760D01*
Y143990D01*
X94050Y144960D01*
X94050Y146230D01*
Y147860D01*
D02*
G37*
G36*
X128850Y136750D02*
X121850D01*
Y128750D01*
X128850D01*
Y129627D01*
X129488Y129967D01*
X130120Y130131D01*
X131134Y129453D01*
X132500Y129181D01*
X133866Y129453D01*
X135023Y130227D01*
X135797Y131384D01*
X136069Y132750D01*
X135797Y134116D01*
X135023Y135273D01*
X133866Y136047D01*
X132500Y136319D01*
X131134Y136047D01*
X130120Y135369D01*
X129488Y135533D01*
X128850Y135873D01*
Y136750D01*
D02*
G37*
G36*
X52650Y139740D02*
X49300D01*
X45950D01*
Y137495D01*
X45950Y137140D01*
Y136225D01*
X45950Y135870D01*
Y129370D01*
X45950Y129025D01*
Y128100D01*
X45950Y127755D01*
Y125500D01*
X49300D01*
X52650D01*
Y127755D01*
X52650Y128100D01*
Y129025D01*
X53920Y129605D01*
X54334Y129328D01*
X55700Y129056D01*
X57066Y129328D01*
X58223Y130102D01*
X58997Y131259D01*
X59269Y132625D01*
X58997Y133991D01*
X58223Y135148D01*
X57066Y135922D01*
X55700Y136194D01*
X54334Y135922D01*
X53920Y135645D01*
X52650Y136225D01*
Y137140D01*
X52650Y137495D01*
Y139740D01*
D02*
G37*
G36*
X102650Y155360D02*
X99300D01*
X95950D01*
Y153730D01*
X95950Y152460D01*
X95950Y151490D01*
Y145260D01*
X95950D01*
Y144960D01*
X95950D01*
Y137760D01*
X102650D01*
Y139321D01*
X107395D01*
X112850Y133866D01*
Y128750D01*
X119850D01*
Y136750D01*
X115734D01*
X109682Y142802D01*
X109020Y143244D01*
X108240Y143399D01*
X102650D01*
Y144960D01*
X102650D01*
Y145260D01*
X102650D01*
Y151490D01*
X102650Y152760D01*
X102650Y153730D01*
Y155360D01*
D02*
G37*
G36*
X-132800Y129000D02*
X-135150D01*
Y126400D01*
X-132800D01*
Y129000D01*
D02*
G37*
G36*
X-45950Y131625D02*
X-52650D01*
Y129370D01*
X-52650Y129025D01*
Y128100D01*
X-52650Y127755D01*
Y125500D01*
X-45950D01*
Y127755D01*
X-45950Y128100D01*
Y129025D01*
X-45950Y129370D01*
Y131625D01*
D02*
G37*
G36*
X101750Y127360D02*
X99750D01*
Y125360D01*
X101750D01*
Y127360D01*
D02*
G37*
G36*
X97750D02*
X95750D01*
Y125360D01*
X97750D01*
Y127360D01*
D02*
G37*
G36*
X101750Y123360D02*
X99750D01*
Y121360D01*
X101750D01*
Y123360D01*
D02*
G37*
G36*
X97750D02*
X95750D01*
Y121360D01*
X97750D01*
Y123360D01*
D02*
G37*
G36*
X-132800Y120600D02*
X-135150D01*
Y118000D01*
X-132800D01*
Y120600D01*
D02*
G37*
G36*
X-45950Y123500D02*
X-52650D01*
Y121245D01*
X-52650Y120900D01*
Y119975D01*
X-52650Y119630D01*
Y117375D01*
X-45950D01*
Y119630D01*
X-45950Y119975D01*
Y120900D01*
X-45950Y121245D01*
Y123500D01*
D02*
G37*
G36*
X52650D02*
X49300D01*
X45950D01*
Y121245D01*
X45950Y120900D01*
Y119975D01*
X45950Y119630D01*
Y117375D01*
X49300D01*
X52650D01*
Y119630D01*
X52650Y119975D01*
Y120900D01*
X52650Y121245D01*
Y123500D01*
D02*
G37*
G36*
X-132800Y116000D02*
X-135150D01*
Y113400D01*
X-132800D01*
Y116000D01*
D02*
G37*
G36*
X102650Y119960D02*
X95950D01*
Y113730D01*
X95950Y112760D01*
X95950Y111490D01*
Y109860D01*
X99300D01*
X102650D01*
Y111490D01*
X102650Y112460D01*
X102650Y113423D01*
X103548Y114321D01*
X106453D01*
X106777Y113837D01*
X107934Y113063D01*
X109300Y112791D01*
X110666Y113063D01*
X111823Y113837D01*
X112597Y114994D01*
X112869Y116360D01*
X112597Y117726D01*
X111823Y118883D01*
X110666Y119657D01*
X109300Y119929D01*
X107934Y119657D01*
X106777Y118883D01*
X106453Y118399D01*
X102650D01*
Y119960D01*
D02*
G37*
G36*
X-45950Y115375D02*
X-52650D01*
Y113120D01*
X-52650Y112775D01*
Y111850D01*
X-52650Y111505D01*
Y109250D01*
X-45950D01*
Y111505D01*
X-45950Y111850D01*
Y112775D01*
X-45950Y113120D01*
Y115375D01*
D02*
G37*
G36*
X52650D02*
X49300D01*
X45950D01*
Y113120D01*
X45950Y112775D01*
Y111850D01*
X45950Y111505D01*
Y109250D01*
X49300D01*
X52650D01*
Y111505D01*
X52650Y111850D01*
Y112775D01*
X52650Y113120D01*
Y115375D01*
D02*
G37*
G36*
X102650Y107860D02*
X100300D01*
Y105260D01*
X102650D01*
Y107860D01*
D02*
G37*
G36*
X98300D02*
X95950D01*
Y105260D01*
X98300D01*
Y107860D01*
D02*
G37*
G36*
X81250Y127929D02*
X79884Y127657D01*
X78727Y126883D01*
X77953Y125726D01*
X77681Y124360D01*
X77953Y122994D01*
X78727Y121837D01*
X79884Y121063D01*
X81250Y120792D01*
X82616Y121063D01*
X83773Y121837D01*
X84097Y122321D01*
X88250D01*
Y121360D01*
X88936D01*
Y119960D01*
X87350D01*
Y112760D01*
X87350D01*
Y112460D01*
X87350D01*
Y105260D01*
X94050D01*
Y112460D01*
X94050D01*
Y112760D01*
X94050D01*
Y119960D01*
X93014D01*
Y121360D01*
X94250D01*
Y127360D01*
X88250D01*
Y126399D01*
X84097D01*
X83773Y126883D01*
X82616Y127657D01*
X81250Y127929D01*
D02*
G37*
G36*
X-45950Y107250D02*
X-48300D01*
Y104650D01*
X-45950D01*
Y107250D01*
D02*
G37*
G36*
X-50300D02*
X-52650D01*
Y104650D01*
X-50300D01*
Y107250D01*
D02*
G37*
G36*
X52650D02*
X49300D01*
X45950D01*
Y105620D01*
X45950Y104650D01*
X45950Y103380D01*
Y101750D01*
X49300D01*
X52650D01*
Y103380D01*
X52650Y104350D01*
X52650Y105620D01*
Y107250D01*
D02*
G37*
G36*
X-25000Y104250D02*
X-35000D01*
Y99250D01*
X-25000D01*
Y104250D01*
D02*
G37*
G36*
X52650Y99750D02*
X50300D01*
Y97150D01*
X52650D01*
Y99750D01*
D02*
G37*
G36*
X48300D02*
X45950D01*
Y97150D01*
X48300D01*
Y99750D01*
D02*
G37*
G36*
X-66400Y97650D02*
X-69000D01*
Y95300D01*
X-66400D01*
Y97650D01*
D02*
G37*
G36*
X-71000D02*
X-73600D01*
Y95300D01*
X-71000D01*
Y97650D01*
D02*
G37*
G36*
X81400Y94429D02*
X80034Y94157D01*
X79270Y93646D01*
X78000Y93860D01*
Y93860D01*
X72000D01*
Y87860D01*
X78000D01*
X78000Y87860D01*
X79270Y88074D01*
X80034Y87563D01*
X81400Y87291D01*
X82766Y87563D01*
X83923Y88337D01*
X84697Y89494D01*
X84969Y90860D01*
X84697Y92226D01*
X83923Y93383D01*
X82766Y94157D01*
X81400Y94429D01*
D02*
G37*
G36*
X61400D02*
X60034Y94157D01*
X59270Y93646D01*
X58000Y93860D01*
Y93860D01*
X52000D01*
Y87860D01*
X58000D01*
X58000Y87860D01*
X59270Y88074D01*
X60034Y87563D01*
X61400Y87291D01*
X62766Y87563D01*
X63923Y88337D01*
X64697Y89494D01*
X64969Y90860D01*
X64697Y92226D01*
X63923Y93383D01*
X62766Y94157D01*
X61400Y94429D01*
D02*
G37*
G36*
X35000Y97750D02*
X25000D01*
Y92750D01*
X35000D01*
Y97750D01*
D02*
G37*
G36*
X-25000D02*
X-35000D01*
Y92750D01*
X-25000D01*
Y97750D01*
D02*
G37*
G36*
X44300Y94200D02*
X41700D01*
Y91850D01*
X44300D01*
Y94200D01*
D02*
G37*
G36*
X39700D02*
X37100D01*
Y91850D01*
X39700D01*
Y94200D01*
D02*
G37*
G36*
X-66400Y93300D02*
X-69000D01*
Y90950D01*
X-66400D01*
Y93300D01*
D02*
G37*
G36*
X-71000D02*
X-73600D01*
Y90950D01*
X-71000D01*
Y93300D01*
D02*
G37*
G36*
X-20000Y92319D02*
X-21366Y92047D01*
X-22523Y91273D01*
X-22847Y90789D01*
X-25000D01*
Y91250D01*
X-35000D01*
Y86250D01*
X-25000D01*
Y86711D01*
X-22847D01*
X-22523Y86227D01*
X-21366Y85453D01*
X-20000Y85181D01*
X-18634Y85453D01*
X-17477Y86227D01*
X-16703Y87384D01*
X-16431Y88750D01*
X-16703Y90116D01*
X-17477Y91273D01*
X-18634Y92047D01*
X-20000Y92319D01*
D02*
G37*
G36*
X94050Y102460D02*
X87350D01*
Y95260D01*
X89132D01*
Y94688D01*
X89288Y93908D01*
X89730Y93246D01*
X92000Y90976D01*
Y87860D01*
X98000D01*
Y93860D01*
X94884D01*
X94558Y94186D01*
X94050Y95260D01*
X94050D01*
X94050Y95260D01*
Y102460D01*
D02*
G37*
G36*
X44300Y89850D02*
X41700D01*
Y87500D01*
X44300D01*
Y89850D01*
D02*
G37*
G36*
X39700D02*
X37100D01*
Y87500D01*
X39700D01*
Y89850D01*
D02*
G37*
G36*
X35000Y91250D02*
X25000D01*
Y86250D01*
X35000D01*
Y91250D01*
D02*
G37*
G36*
X81750Y84860D02*
X79750D01*
Y82860D01*
X81750D01*
Y84860D01*
D02*
G37*
G36*
X61750D02*
X59750D01*
Y82860D01*
X61750D01*
Y84860D01*
D02*
G37*
G36*
X101750D02*
X99750D01*
Y82860D01*
X101750D01*
Y84860D01*
D02*
G37*
G36*
X97750D02*
X95750D01*
Y82860D01*
X97750D01*
Y84860D01*
D02*
G37*
G36*
X77750D02*
X75750D01*
Y82860D01*
X77750D01*
Y84860D01*
D02*
G37*
G36*
X57750D02*
X55750D01*
Y82860D01*
X57750D01*
Y84860D01*
D02*
G37*
G36*
X-25000Y84750D02*
X-35000D01*
Y79750D01*
X-25000D01*
Y84750D01*
D02*
G37*
G36*
X128850Y86750D02*
X121850D01*
Y78750D01*
X128850D01*
Y79627D01*
X129488Y79967D01*
X130120Y80131D01*
X131134Y79453D01*
X132500Y79181D01*
X133866Y79453D01*
X135023Y80227D01*
X135797Y81384D01*
X136069Y82750D01*
X135797Y84116D01*
X135023Y85273D01*
X133866Y86047D01*
X132500Y86319D01*
X131134Y86047D01*
X130120Y85369D01*
X129488Y85533D01*
X128850Y85873D01*
Y86750D01*
D02*
G37*
G36*
X20000Y85819D02*
X18634Y85547D01*
X17477Y84773D01*
X16703Y83616D01*
X16431Y82250D01*
X16703Y80884D01*
X17477Y79727D01*
X18634Y78953D01*
X20000Y78681D01*
X21366Y78953D01*
X22523Y79727D01*
X22847Y80211D01*
X25000D01*
Y79750D01*
X35000D01*
Y80211D01*
X37100D01*
Y78900D01*
X44300D01*
Y85600D01*
X37100D01*
Y84289D01*
X35000D01*
Y84750D01*
X25000D01*
Y84289D01*
X22847D01*
X22523Y84773D01*
X21366Y85547D01*
X20000Y85819D01*
D02*
G37*
G36*
X101750Y80860D02*
X99750D01*
Y78860D01*
X101750D01*
Y80860D01*
D02*
G37*
G36*
X97750D02*
X95750D01*
Y78860D01*
X97750D01*
Y80860D01*
D02*
G37*
G36*
X81750D02*
X79750D01*
Y78860D01*
X81750D01*
Y80860D01*
D02*
G37*
G36*
X77750D02*
X75750D01*
Y78860D01*
X77750D01*
Y80860D01*
D02*
G37*
G36*
X61750D02*
X59750D01*
Y78860D01*
X61750D01*
Y80860D01*
D02*
G37*
G36*
X57750D02*
X55750D01*
Y78860D01*
X57750D01*
Y80860D01*
D02*
G37*
G36*
X-52650Y79350D02*
X-53920Y78770D01*
X-54334Y79047D01*
X-55700Y79319D01*
X-57066Y79047D01*
X-58223Y78273D01*
X-58997Y77116D01*
X-59269Y75750D01*
X-58997Y74384D01*
X-58223Y73227D01*
X-57066Y72453D01*
X-55700Y72181D01*
X-54334Y72453D01*
X-53920Y72730D01*
X-52650Y72150D01*
Y72150D01*
X-45950D01*
Y79350D01*
X-52650D01*
Y79350D01*
D02*
G37*
G36*
X102650Y102460D02*
X95950D01*
Y95260D01*
X102650D01*
Y96821D01*
X108545D01*
X114311Y91055D01*
Y86750D01*
X112850D01*
Y78750D01*
X119850D01*
Y86750D01*
X118389D01*
Y91900D01*
X118389Y91900D01*
X118234Y92680D01*
X117792Y93342D01*
X117792Y93342D01*
X110832Y100302D01*
X110170Y100744D01*
X109390Y100899D01*
X102650D01*
Y102460D01*
D02*
G37*
G36*
X102650Y77460D02*
X100300D01*
Y74860D01*
X102650D01*
Y77460D01*
D02*
G37*
G36*
X62650D02*
X60300D01*
Y74860D01*
X62650D01*
Y77460D01*
D02*
G37*
G36*
X82650D02*
X80300D01*
Y74860D01*
X82650D01*
Y77460D01*
D02*
G37*
G36*
X78300D02*
X75950D01*
Y74860D01*
X78300D01*
Y77460D01*
D02*
G37*
G36*
X98300D02*
X95950D01*
Y74860D01*
X98300D01*
Y77460D01*
D02*
G37*
G36*
X58300D02*
X55950D01*
Y74860D01*
X58300D01*
Y77460D01*
D02*
G37*
G36*
X35000Y78250D02*
X25000D01*
Y73250D01*
X35000D01*
Y78250D01*
D02*
G37*
G36*
X-37350Y79350D02*
X-44050D01*
Y72150D01*
X-37350D01*
Y73711D01*
X-35000D01*
Y73250D01*
X-25000D01*
Y78250D01*
X-35000D01*
Y77789D01*
X-37350D01*
Y79350D01*
D02*
G37*
G36*
X-66400Y74050D02*
X-69000D01*
Y71700D01*
X-66400D01*
Y74050D01*
D02*
G37*
G36*
X-71000D02*
X-73600D01*
Y71700D01*
X-71000D01*
Y74050D01*
D02*
G37*
G36*
X35000Y71750D02*
X31000D01*
Y70250D01*
X35000D01*
Y71750D01*
D02*
G37*
G36*
X29000D02*
X25000D01*
Y70250D01*
X29000D01*
Y71750D01*
D02*
G37*
G36*
X-25000D02*
X-29000D01*
Y70250D01*
X-25000D01*
Y71750D01*
D02*
G37*
G36*
X-31000D02*
X-35000D01*
Y70250D01*
X-31000D01*
Y71750D01*
D02*
G37*
G36*
X82650Y72860D02*
X79300D01*
X75950D01*
Y71230D01*
X75950Y70260D01*
X75950Y68990D01*
Y67360D01*
X79300D01*
X82650D01*
Y68990D01*
X82650Y69960D01*
X82650Y71230D01*
Y72860D01*
D02*
G37*
G36*
X62650D02*
X59300D01*
X55950D01*
Y71230D01*
X55950Y70260D01*
X55950Y68990D01*
Y67360D01*
X59300D01*
X62650D01*
Y68990D01*
X62650Y69960D01*
X62650Y71230D01*
Y72860D01*
D02*
G37*
G36*
X-66400Y69700D02*
X-69000D01*
Y67350D01*
X-66400D01*
Y69700D01*
D02*
G37*
G36*
X-71000D02*
X-73600D01*
Y67350D01*
X-71000D01*
Y69700D01*
D02*
G37*
G36*
X35000Y68250D02*
X31000D01*
Y66750D01*
X35000D01*
Y68250D01*
D02*
G37*
G36*
X29000D02*
X25000D01*
Y66750D01*
X29000D01*
Y68250D01*
D02*
G37*
G36*
X-25000D02*
X-29000D01*
Y66750D01*
X-25000D01*
Y68250D01*
D02*
G37*
G36*
X-31000D02*
X-35000D01*
Y66750D01*
X-31000D01*
Y68250D01*
D02*
G37*
G36*
X102650Y72860D02*
X99300D01*
X95950D01*
Y71230D01*
X95950Y69960D01*
X95950Y68990D01*
Y63730D01*
X95950Y62760D01*
X95950Y61490D01*
Y59860D01*
X99300D01*
X102650D01*
Y61490D01*
X102650Y62460D01*
X102650Y63423D01*
X103548Y64321D01*
X106453D01*
X106777Y63837D01*
X107934Y63063D01*
X109300Y62791D01*
X110666Y63063D01*
X111823Y63837D01*
X112597Y64994D01*
X112869Y66360D01*
X112597Y67726D01*
X111823Y68883D01*
X110666Y69657D01*
X109300Y69929D01*
X107934Y69657D01*
X106777Y68883D01*
X106453Y68399D01*
X103548D01*
X102650Y69297D01*
X102650Y70260D01*
X102650Y71230D01*
Y72860D01*
D02*
G37*
G36*
X-73000Y66000D02*
X-76500D01*
Y61000D01*
X-73000D01*
Y66000D01*
D02*
G37*
G36*
X-118000D02*
X-121500D01*
Y61000D01*
X-118000D01*
Y66000D01*
D02*
G37*
G36*
X-123500D02*
X-127000D01*
Y61000D01*
X-123500D01*
Y66000D01*
D02*
G37*
G36*
X-78500D02*
X-82000D01*
Y61000D01*
X-78500D01*
Y66000D01*
D02*
G37*
G36*
X25600Y57650D02*
X25130Y57650D01*
X23000D01*
Y54300D01*
Y50950D01*
X25130D01*
X26400Y50950D01*
X26870Y50950D01*
X29000D01*
Y54300D01*
Y57650D01*
X25600D01*
D02*
G37*
G36*
X31000Y57650D02*
Y55300D01*
X33600D01*
Y57650D01*
X31000D01*
D02*
G37*
G36*
X-5000D02*
Y55300D01*
X-2400D01*
Y57650D01*
X-5000D01*
D02*
G37*
G36*
X-62400D02*
X-65000D01*
Y55300D01*
X-62400D01*
Y57650D01*
D02*
G37*
G36*
X-15000D02*
X-17600D01*
Y55300D01*
X-15000D01*
Y57650D01*
D02*
G37*
G36*
X-67000D02*
X-69600D01*
Y55300D01*
X-67000D01*
Y57650D01*
D02*
G37*
G36*
X13000D02*
X10400D01*
Y55300D01*
X13000D01*
Y57650D01*
D02*
G37*
G36*
X102650Y57860D02*
X100300D01*
Y55260D01*
X102650D01*
Y57860D01*
D02*
G37*
G36*
X98300D02*
X95950D01*
Y55260D01*
X98300D01*
Y57860D01*
D02*
G37*
G36*
X94250Y84860D02*
X88250D01*
Y78860D01*
X88936D01*
Y77460D01*
X87350D01*
Y70260D01*
X87350D01*
X87350Y69960D01*
X87350D01*
Y62760D01*
X87350D01*
Y62460D01*
X87350D01*
Y55260D01*
X94050D01*
Y61490D01*
X94050Y62460D01*
X94050D01*
Y62760D01*
X94050D01*
Y69960D01*
X94050D01*
X94050Y70260D01*
X94050D01*
Y77460D01*
X93014D01*
Y78860D01*
X94250D01*
Y84860D01*
D02*
G37*
G36*
X74250D02*
X68250D01*
Y78860D01*
X68936D01*
Y77460D01*
X67350D01*
Y70260D01*
X67350D01*
Y69960D01*
X67350D01*
Y62760D01*
X67350D01*
Y62460D01*
X67350D01*
Y55260D01*
X74050D01*
Y61490D01*
X74050Y62460D01*
X74050D01*
Y62760D01*
X74050D01*
Y68990D01*
X74050Y69960D01*
X74050D01*
Y70260D01*
X74050D01*
Y77460D01*
X73014D01*
Y78860D01*
X74250D01*
Y84860D01*
D02*
G37*
G36*
X54250D02*
X48250D01*
Y78860D01*
X48936D01*
Y77460D01*
X47350D01*
Y70260D01*
X47350D01*
Y69960D01*
X47350D01*
Y62760D01*
X47350D01*
Y62460D01*
X47350D01*
Y55260D01*
X54050D01*
Y61490D01*
X54050Y62460D01*
X54050D01*
Y62760D01*
X54050D01*
Y68990D01*
X54050Y69960D01*
X54050D01*
Y70260D01*
X54050D01*
Y77460D01*
X53014D01*
Y78860D01*
X54250D01*
Y84860D01*
D02*
G37*
G36*
X-73000Y59000D02*
X-76500D01*
Y54000D01*
X-73000D01*
Y59000D01*
D02*
G37*
G36*
X-78500D02*
X-82000D01*
Y54000D01*
X-78500D01*
Y59000D01*
D02*
G37*
G36*
X-118000D02*
X-121500D01*
Y54000D01*
X-118000D01*
Y59000D01*
D02*
G37*
G36*
X-123500D02*
X-127000D01*
Y54000D01*
X-123500D01*
Y59000D01*
D02*
G37*
G36*
X33600Y53300D02*
X31000D01*
Y50950D01*
X33600D01*
Y53300D01*
D02*
G37*
G36*
X-2400D02*
X-5000D01*
Y50950D01*
X-2400D01*
Y53300D01*
D02*
G37*
G36*
X-62400D02*
X-65000D01*
Y50950D01*
X-62400D01*
Y53300D01*
D02*
G37*
G36*
X-67000D02*
X-69600D01*
Y50950D01*
X-67000D01*
Y53300D01*
D02*
G37*
G36*
X17600Y57650D02*
X17130Y57650D01*
X15000D01*
Y54300D01*
Y50950D01*
X17130D01*
X18400Y50950D01*
X18870Y50950D01*
X21000D01*
Y54300D01*
Y57650D01*
X18870D01*
X17600Y57650D01*
D02*
G37*
G36*
X13000Y53300D02*
X10400D01*
Y50950D01*
X13000D01*
Y53300D01*
D02*
G37*
G36*
X-15000Y53300D02*
X-17600D01*
Y50950D01*
X-15000D01*
Y53300D01*
D02*
G37*
G36*
X-10400Y57650D02*
X-10870Y57650D01*
X-13000D01*
Y54300D01*
Y50950D01*
X-10870D01*
X-9600Y50950D01*
X-9130Y50950D01*
X-7000D01*
Y54300D01*
Y57650D01*
X-10400D01*
D02*
G37*
G36*
X-73000Y51100D02*
X-75350D01*
Y48500D01*
X-73000D01*
Y51100D01*
D02*
G37*
G36*
X-77350D02*
X-79700D01*
Y48500D01*
X-77350D01*
Y51100D01*
D02*
G37*
G36*
X-73000Y46500D02*
X-75350D01*
Y43900D01*
X-73000D01*
Y46500D01*
D02*
G37*
G36*
X-77350D02*
X-79700D01*
Y43900D01*
X-77350D01*
Y46500D01*
D02*
G37*
%LPD*%
G36*
X112025Y408974D02*
X85974D01*
Y435025D01*
X112025D01*
Y408974D01*
D02*
G37*
G36*
X76026D02*
X67974D01*
Y435025D01*
X76026D01*
Y408974D01*
D02*
G37*
D10*
X117000Y188000D02*
X126000Y197000D01*
X20000Y142750D02*
X20812D01*
X22812Y140750D01*
X30000D01*
X-20812Y139250D02*
X-20000D01*
X-22312Y140750D02*
X-20812Y139250D01*
X90700Y156360D02*
Y162760D01*
X89634Y157426D02*
X90700Y156360D01*
X-40700Y140750D02*
X-22312D01*
X-90000Y305000D02*
X-81000Y314000D01*
X27000Y188000D02*
X36000Y179000D01*
X-132900Y87050D02*
X-131350D01*
X-134600Y88750D02*
Y101550D01*
X-132900Y103250D01*
X-131350Y87050D02*
X-130000Y85700D01*
X-134600Y88750D02*
X-132900Y87050D01*
Y103250D02*
X-127500D01*
X125350Y82750D02*
X132500D01*
X20000Y127625D02*
X20062Y127688D01*
X29938D02*
X30000Y127750D01*
X20062Y127688D02*
X29938D01*
X-120884Y315000D02*
X-100000D01*
X-30000Y121250D02*
X-20000D01*
X-30000Y108250D02*
X-20000D01*
X-30000Y114750D02*
X-20000D01*
X50975Y59135D02*
Y81585D01*
X50700Y58860D02*
X50975Y59135D01*
Y81585D02*
X51250Y81860D01*
X70975Y59135D02*
Y81585D01*
X70700Y58860D02*
X70975Y59135D01*
Y81585D02*
X71250Y81860D01*
X38000Y36750D02*
X49000Y47750D01*
X55750D01*
X50243Y44750D02*
X72500D01*
X46000Y30000D02*
Y40507D01*
X38000Y30000D02*
Y36750D01*
X46000Y40507D02*
X50243Y44750D01*
X55750Y47750D02*
X59300Y51300D01*
X72500Y44750D02*
X79300Y51550D01*
X59300Y51300D02*
Y58860D01*
X79300Y51550D02*
Y58860D01*
X55000Y90860D02*
X61400D01*
X75000D02*
X81400D01*
X-66000Y30000D02*
Y45700D01*
X-70000Y79300D02*
X-63600D01*
X49300Y132625D02*
X55700D01*
X-55700Y75750D02*
X-49300D01*
X-92000Y27188D02*
X-90000Y29188D01*
X-94000Y14000D02*
X-92000Y16000D01*
Y27188D01*
X-90000Y29188D02*
Y30000D01*
X-36000Y197000D02*
X-27000Y188000D01*
X-126000Y215000D02*
X-117000Y224000D01*
X30000Y82250D02*
X40700D01*
X40200Y101250D02*
X40700Y100750D01*
X30000Y101750D02*
X30500Y101250D01*
X40200D01*
X20000Y82250D02*
X30000D01*
X20000Y114750D02*
X30000D01*
X20000Y101750D02*
X30000D01*
X20000Y108250D02*
X30000D01*
X20000Y121250D02*
X30000D01*
X90700Y98860D02*
X91172Y98388D01*
Y94688D02*
Y98388D01*
X99300Y98860D02*
X99678Y98482D01*
X91172Y94688D02*
X95000Y90860D01*
X90975Y81585D02*
X91250Y81860D01*
X116350Y82750D02*
Y91900D01*
X109390Y98860D02*
X116350Y91900D01*
X99300Y98860D02*
X109390D01*
X30000Y108250D02*
X40700D01*
X30000Y121250D02*
X37700D01*
X39325Y114750D02*
X40700Y116125D01*
X30000Y114750D02*
X39325D01*
X40700Y116125D02*
Y116375D01*
X99300Y66360D02*
X109300D01*
X90700Y58860D02*
X90975Y59135D01*
Y81585D01*
X-40700Y132875D02*
X-39350Y134225D01*
X-30000Y127750D02*
X-20000D01*
X-37700D02*
X-30000D01*
X-39075Y134250D02*
X-30000D01*
X-39100Y134225D02*
X-39075Y134250D01*
X-40700Y132625D02*
Y132875D01*
X-39350Y134225D02*
X-39100D01*
X-40700Y124750D02*
X-37700Y127750D01*
X-40700Y124500D02*
Y124750D01*
Y116375D02*
Y116625D01*
X-30000Y75750D02*
X-30000Y75750D01*
X-40700Y75750D02*
X-30000D01*
X-30000Y88750D02*
X-20000D01*
X-34950Y114250D02*
X-30500D01*
Y120750D02*
X-30000Y121250D01*
X-36575Y120750D02*
X-30500D01*
Y114250D02*
X-30000Y114750D01*
X-40700Y116625D02*
X-36575Y120750D01*
X-40700Y108250D02*
Y108500D01*
X-34950Y114250D01*
X90975Y124085D02*
X91250Y124360D01*
X81250D02*
X91250D01*
X40700Y140750D02*
Y148860D01*
X40695Y140745D02*
X40700Y140750D01*
X90700Y108860D02*
X90975Y109135D01*
X99300Y116360D02*
X109300D01*
X90975Y109135D02*
Y124085D01*
X91172Y137188D02*
X95000Y133360D01*
X91172Y137188D02*
Y140888D01*
X99300Y141360D02*
Y148860D01*
X90700Y141360D02*
X91172Y140888D01*
X108240Y141360D02*
X116350Y133250D01*
X99300Y141360D02*
X108240D01*
X30000Y140750D02*
X30005Y140745D01*
X35775Y131025D02*
X39350D01*
X40700Y132375D01*
Y132625D01*
X30005Y140745D02*
X40695D01*
X30000Y134250D02*
Y140750D01*
X37700Y121250D02*
X40700Y124250D01*
X32500Y127750D02*
X35775Y131025D01*
X40700Y124250D02*
Y124500D01*
X30000Y127750D02*
X32500D01*
X116350Y132750D02*
Y133250D01*
X125350Y132750D02*
X132500D01*
X30000Y30000D02*
Y45700D01*
X22000Y30000D02*
Y45700D01*
X14000Y30000D02*
Y45700D01*
X-6000Y30000D02*
Y45700D01*
X-14000Y30000D02*
Y45700D01*
X-123200Y107550D02*
Y117000D01*
X-127500Y103250D02*
X-123200Y107550D01*
X-113900Y99000D02*
X-107500D01*
X-86000Y82500D02*
X-81200D01*
X-78000Y85700D01*
X-116000Y92700D02*
X-115800Y92500D01*
X-114000D01*
X-116000Y92700D02*
Y93128D01*
X-117172Y94300D02*
X-116000Y93128D01*
X-122500Y94300D02*
X-117172D01*
X-122500Y94300D02*
X-122500Y94300D01*
X-130000Y94300D02*
X-122500D01*
X-122824Y335000D02*
X-100000D01*
X-126000Y341000D02*
X-123996Y338996D01*
Y336172D02*
Y338996D01*
Y336172D02*
X-122824Y335000D01*
X-124026Y318142D02*
X-120884Y315000D01*
X-126000Y323000D02*
X-124026Y321026D01*
Y318142D02*
Y321026D01*
X27000Y386000D02*
X36000Y377000D01*
X72000Y341000D02*
X81000Y332000D01*
X72000Y287000D02*
X81000Y278000D01*
X-54000Y179000D02*
X-45000Y188000D01*
X-81000D02*
X-72000Y179000D01*
X54000Y197000D02*
X63000Y206000D01*
X45000Y188000D02*
X54000Y179000D01*
X-126000Y377000D02*
X-117000Y368000D01*
X-126000Y359000D02*
X-117000Y350000D01*
X117000Y206000D02*
X126000Y215000D01*
X117000Y224000D02*
X126000Y233000D01*
X117000Y242000D02*
X126000Y251000D01*
X-63000Y206000D02*
X-54000Y215000D01*
X-126000Y395000D02*
X-117000Y386000D01*
X63000Y188000D02*
X72000Y179000D01*
X81000Y188000D02*
X90000Y179000D01*
D14*
X-92500Y99000D02*
D03*
X-102500Y71000D02*
D03*
X-97500D02*
D03*
X-107500D02*
D03*
Y99000D02*
D03*
X-102500D02*
D03*
X-97500D02*
D03*
X-92500Y71000D02*
D03*
D15*
X-114000Y92500D02*
D03*
Y87500D02*
D03*
Y82500D02*
D03*
Y77500D02*
D03*
X-86000Y92500D02*
D03*
Y87500D02*
D03*
Y82500D02*
D03*
Y77500D02*
D03*
D16*
X-100000Y85000D02*
D03*
D17*
X59300Y58860D02*
D03*
X50700D02*
D03*
X99300Y108860D02*
D03*
X90700D02*
D03*
X99300Y98860D02*
D03*
X90700D02*
D03*
X99300Y116360D02*
D03*
X90700D02*
D03*
X40700Y132625D02*
D03*
X49300D02*
D03*
Y108250D02*
D03*
X40700D02*
D03*
X49300Y148860D02*
D03*
X40700D02*
D03*
X49300Y124500D02*
D03*
X40700D02*
D03*
X49300Y140740D02*
D03*
X40700D02*
D03*
X49300Y116375D02*
D03*
X40700D02*
D03*
X90700Y148860D02*
D03*
X99300D02*
D03*
Y141360D02*
D03*
X90700D02*
D03*
X90700Y156360D02*
D03*
X99300D02*
D03*
X90700Y73860D02*
D03*
X99300D02*
D03*
X99300Y58860D02*
D03*
X90700D02*
D03*
X99300Y66360D02*
D03*
X90700D02*
D03*
X-40700Y132625D02*
D03*
X-49300D02*
D03*
Y140750D02*
D03*
X-40700D02*
D03*
X-49300Y124500D02*
D03*
X-40700D02*
D03*
X-40700Y75750D02*
D03*
X-49300D02*
D03*
X-40700Y108250D02*
D03*
X-49300D02*
D03*
Y116375D02*
D03*
X-40700D02*
D03*
X-131800Y130000D02*
D03*
X-123200D02*
D03*
Y117000D02*
D03*
X-131800D02*
D03*
Y143000D02*
D03*
X-123200D02*
D03*
X79300Y58860D02*
D03*
X70700D02*
D03*
X50700Y73860D02*
D03*
X59300D02*
D03*
X-76350Y47500D02*
D03*
X-84950D02*
D03*
X70700Y73860D02*
D03*
X79300D02*
D03*
X59300Y66360D02*
D03*
X50700D02*
D03*
X79300D02*
D03*
X70700D02*
D03*
X-5700Y480000D02*
D03*
X-14300D02*
D03*
X40700Y100750D02*
D03*
X49300D02*
D03*
D18*
X-66000Y54300D02*
D03*
Y45700D02*
D03*
X30000Y54300D02*
D03*
Y45700D02*
D03*
X-14000Y54300D02*
D03*
Y45700D02*
D03*
X22000Y54300D02*
D03*
Y45700D02*
D03*
X14000Y54300D02*
D03*
Y45700D02*
D03*
X-70000Y85700D02*
D03*
Y94300D02*
D03*
Y70700D02*
D03*
Y79300D02*
D03*
X-122500D02*
D03*
Y70700D02*
D03*
X-130000Y85700D02*
D03*
Y94300D02*
D03*
X-122500Y85700D02*
D03*
Y94300D02*
D03*
X-6000Y54300D02*
D03*
Y45700D02*
D03*
X15000Y488600D02*
D03*
Y480000D02*
D03*
X5000Y488600D02*
D03*
Y480000D02*
D03*
X-25000Y488600D02*
D03*
Y480000D02*
D03*
X-35000Y488600D02*
D03*
Y480000D02*
D03*
X40700Y82250D02*
D03*
Y90850D02*
D03*
D19*
X95000Y90860D02*
D03*
X98750Y81860D02*
D03*
X91250D02*
D03*
X95000Y133360D02*
D03*
X98750Y124360D02*
D03*
X91250D02*
D03*
X71250Y81860D02*
D03*
X78750D02*
D03*
X75000Y90860D02*
D03*
X51250Y81860D02*
D03*
X58750D02*
D03*
X55000Y90860D02*
D03*
D20*
X30000Y108250D02*
D03*
Y114750D02*
D03*
Y121250D02*
D03*
Y101750D02*
D03*
Y95250D02*
D03*
Y88750D02*
D03*
Y82250D02*
D03*
Y127750D02*
D03*
X-30000Y108250D02*
D03*
Y114750D02*
D03*
Y121250D02*
D03*
Y101750D02*
D03*
Y95250D02*
D03*
Y88750D02*
D03*
Y82250D02*
D03*
Y127750D02*
D03*
Y134250D02*
D03*
Y75750D02*
D03*
X30000Y134250D02*
D03*
Y75750D02*
D03*
X-30000Y140750D02*
D03*
Y69250D02*
D03*
X30000D02*
D03*
Y140750D02*
D03*
D21*
X116350Y132750D02*
D03*
X125350D02*
D03*
X116350Y82750D02*
D03*
X125350D02*
D03*
D22*
X-92500Y60000D02*
D03*
X-77500D02*
D03*
X-107500D02*
D03*
X-122500D02*
D03*
D23*
X-99250Y143000D02*
D03*
Y117000D02*
D03*
D24*
X-55000Y480000D02*
D03*
X-85000Y480000D02*
D03*
D25*
X-70000Y494750D02*
D03*
Y465250D02*
D03*
D26*
X36000Y233000D02*
D03*
X54000D02*
D03*
X-0D02*
D03*
X18000D02*
D03*
X-36000D02*
D03*
X-18000D02*
D03*
X-54000D02*
D03*
X72000Y359000D02*
D03*
Y341000D02*
D03*
Y305000D02*
D03*
Y323000D02*
D03*
Y269000D02*
D03*
Y251000D02*
D03*
Y287000D02*
D03*
X54000Y377000D02*
D03*
X36000D02*
D03*
X18000D02*
D03*
X-0D02*
D03*
X-36000D02*
D03*
X-18000D02*
D03*
X-54000D02*
D03*
X-72000Y251660D02*
D03*
Y269000D02*
D03*
Y287000D02*
D03*
Y305000D02*
D03*
Y323000D02*
D03*
Y341000D02*
D03*
Y359000D02*
D03*
X108000Y431000D02*
D03*
X126000Y413000D02*
D03*
X108000D02*
D03*
X126000Y377000D02*
D03*
Y395000D02*
D03*
X90000Y413000D02*
D03*
X108000Y395000D02*
D03*
X90000Y431000D02*
D03*
X108000Y377000D02*
D03*
X90000Y395000D02*
D03*
X126000Y359000D02*
D03*
Y341000D02*
D03*
X108000Y359000D02*
D03*
X126000Y305000D02*
D03*
Y323000D02*
D03*
X90000Y359000D02*
D03*
X108000Y341000D02*
D03*
X90000Y377000D02*
D03*
X108000Y323000D02*
D03*
X90000Y341000D02*
D03*
X54000Y431000D02*
D03*
X72000D02*
D03*
X36000D02*
D03*
X72000Y413000D02*
D03*
X54000D02*
D03*
X18000Y431000D02*
D03*
X36000Y413000D02*
D03*
X-0Y431000D02*
D03*
X18000Y413000D02*
D03*
X-18000D02*
D03*
X72000Y395000D02*
D03*
Y377000D02*
D03*
X54000Y395000D02*
D03*
X90000Y305000D02*
D03*
Y323000D02*
D03*
X36000Y395000D02*
D03*
X-0Y413000D02*
D03*
X18000Y395000D02*
D03*
X-0D02*
D03*
X126000Y269000D02*
D03*
Y251000D02*
D03*
Y287000D02*
D03*
X108000D02*
D03*
Y269000D02*
D03*
Y305000D02*
D03*
Y251000D02*
D03*
X90000Y269000D02*
D03*
X126000Y233000D02*
D03*
Y215000D02*
D03*
X108000Y233000D02*
D03*
X126000Y197000D02*
D03*
X108000Y179000D02*
D03*
X90000Y233000D02*
D03*
X108000Y215000D02*
D03*
X90000Y251000D02*
D03*
X108000Y197000D02*
D03*
X90000Y179000D02*
D03*
Y287000D02*
D03*
Y215000D02*
D03*
X72000Y233000D02*
D03*
Y197000D02*
D03*
Y215000D02*
D03*
X36000D02*
D03*
X54000D02*
D03*
X-0D02*
D03*
X54000Y197000D02*
D03*
X18000Y215000D02*
D03*
X90000Y197000D02*
D03*
X72000Y179000D02*
D03*
X36000Y197000D02*
D03*
X54000Y179000D02*
D03*
X36000D02*
D03*
X18000Y197000D02*
D03*
X-0D02*
D03*
X18000Y179000D02*
D03*
X-0D02*
D03*
X-36000Y431000D02*
D03*
X-18000D02*
D03*
X-54000D02*
D03*
X-36000Y413000D02*
D03*
X-54000D02*
D03*
X-72000Y431000D02*
D03*
Y413000D02*
D03*
X-90000Y431000D02*
D03*
X-36000Y395000D02*
D03*
X-18000D02*
D03*
X-54000D02*
D03*
X-72000Y377000D02*
D03*
Y395000D02*
D03*
X-90000D02*
D03*
Y341000D02*
D03*
Y413000D02*
D03*
Y305000D02*
D03*
Y323000D02*
D03*
X-108000Y413000D02*
D03*
Y395000D02*
D03*
Y431000D02*
D03*
X-90000Y359000D02*
D03*
Y377000D02*
D03*
X-126000Y413000D02*
D03*
Y395000D02*
D03*
X-108000Y377000D02*
D03*
X-126000D02*
D03*
X-108000Y341000D02*
D03*
Y323000D02*
D03*
Y359000D02*
D03*
X-90000Y287000D02*
D03*
X-108000Y305000D02*
D03*
X-126000Y341000D02*
D03*
Y359000D02*
D03*
Y305000D02*
D03*
Y323000D02*
D03*
X-36000Y215000D02*
D03*
X-18000D02*
D03*
X-72000Y233000D02*
D03*
X-18000Y197000D02*
D03*
X-54000Y215000D02*
D03*
X-90000Y233000D02*
D03*
X-72000Y215000D02*
D03*
X-90000Y269000D02*
D03*
X-36000Y197000D02*
D03*
X-18000Y179000D02*
D03*
X-54000Y197000D02*
D03*
X-36000Y179000D02*
D03*
X-54000D02*
D03*
X-72000D02*
D03*
Y197000D02*
D03*
X-108000Y269000D02*
D03*
X-90000Y251000D02*
D03*
X-108000Y287000D02*
D03*
Y233000D02*
D03*
Y251000D02*
D03*
X-126000Y269000D02*
D03*
Y251000D02*
D03*
Y287000D02*
D03*
X-90000Y215000D02*
D03*
Y197000D02*
D03*
X-108000Y215000D02*
D03*
X-90000Y179000D02*
D03*
X-108000D02*
D03*
X-126000Y215000D02*
D03*
Y233000D02*
D03*
X-108000Y197000D02*
D03*
X-126000D02*
D03*
X-18000Y305000D02*
D03*
Y323000D02*
D03*
Y287000D02*
D03*
X18000Y323000D02*
D03*
X-0Y305000D02*
D03*
Y323000D02*
D03*
X18000Y287000D02*
D03*
Y305000D02*
D03*
X-0Y287000D02*
D03*
D45*
X36000Y461840D02*
G03*
X17840Y480000I-18160J0D01*
G01*
X36000Y433000D02*
Y461840D01*
X5000Y480000D02*
X17840D01*
X-4000D02*
X5000D01*
X-55000D02*
X-16000D01*
D46*
X114000Y14000D02*
D03*
X106000D02*
D03*
X98000D02*
D03*
X90000D02*
D03*
X82000D02*
D03*
X74000D02*
D03*
X66000D02*
D03*
X58000D02*
D03*
X50000D02*
D03*
X42000D02*
D03*
X34000D02*
D03*
X26000D02*
D03*
X18000D02*
D03*
X10000D02*
D03*
X2000D02*
D03*
X-6000D02*
D03*
X-14000D02*
D03*
X-22000D02*
D03*
X-62000D02*
D03*
X-70000D02*
D03*
X-78000D02*
D03*
X-86000D02*
D03*
X-94000D02*
D03*
X-102000D02*
D03*
X-110000D02*
D03*
X-118000D02*
D03*
D47*
X-86000Y77500D02*
X-78900D01*
X-77100Y79300D01*
X-70000D01*
Y85700D01*
D48*
X-122350Y70850D02*
X-108000D01*
X-122500Y70700D02*
X-122350Y70850D01*
D49*
X-102000Y14000D02*
Y35000D01*
X-110000Y14000D02*
Y35000D01*
X-118000Y14000D02*
Y35000D01*
X-62000Y21820D02*
X-54610Y29210D01*
X-62000Y14000D02*
Y21820D01*
X-22000Y14000D02*
Y35000D01*
X2000Y14000D02*
Y35000D01*
X74000Y14000D02*
Y35000D01*
X90000Y14000D02*
Y35000D01*
X114000Y14000D02*
Y35000D01*
D50*
X-108000Y179000D02*
X-99000Y170000D01*
X-90000Y179000D02*
X-81000Y170000D01*
D51*
X-142500Y40000D02*
D03*
Y50000D02*
D03*
Y60000D02*
D03*
Y70000D02*
D03*
Y80000D02*
D03*
Y90000D02*
D03*
Y110000D02*
D03*
Y120000D02*
D03*
Y130000D02*
D03*
Y100000D02*
D03*
Y140000D02*
D03*
Y150000D02*
D03*
Y160000D02*
D03*
Y170000D02*
D03*
Y190000D02*
D03*
Y200000D02*
D03*
Y210000D02*
D03*
Y180000D02*
D03*
Y220000D02*
D03*
Y370000D02*
D03*
Y420000D02*
D03*
Y430000D02*
D03*
Y440000D02*
D03*
Y410000D02*
D03*
Y400000D02*
D03*
Y390000D02*
D03*
Y380000D02*
D03*
Y450000D02*
D03*
X142500Y40000D02*
D03*
Y60000D02*
D03*
Y50000D02*
D03*
Y150000D02*
D03*
Y170000D02*
D03*
Y160000D02*
D03*
Y110000D02*
D03*
Y140000D02*
D03*
Y130000D02*
D03*
Y120000D02*
D03*
Y70000D02*
D03*
Y100000D02*
D03*
Y90000D02*
D03*
Y80000D02*
D03*
Y260000D02*
D03*
Y280000D02*
D03*
Y270000D02*
D03*
Y220000D02*
D03*
Y250000D02*
D03*
Y240000D02*
D03*
Y230000D02*
D03*
Y180000D02*
D03*
Y210000D02*
D03*
Y200000D02*
D03*
Y190000D02*
D03*
Y300000D02*
D03*
Y310000D02*
D03*
Y320000D02*
D03*
Y290000D02*
D03*
Y340000D02*
D03*
Y350000D02*
D03*
Y360000D02*
D03*
Y330000D02*
D03*
Y380000D02*
D03*
Y390000D02*
D03*
Y400000D02*
D03*
Y370000D02*
D03*
Y410000D02*
D03*
Y440000D02*
D03*
Y430000D02*
D03*
Y420000D02*
D03*
Y450000D02*
D03*
D52*
X-121000Y480500D02*
D03*
X121000D02*
D03*
D53*
X117000Y188000D02*
D03*
X-62500Y187750D02*
D03*
X20000Y142750D02*
D03*
X10000Y134250D02*
D03*
X82182Y139682D02*
D03*
X90700Y162760D02*
D03*
X13750Y159500D02*
D03*
X56000D02*
D03*
X114750D02*
D03*
X-65178Y146928D02*
D03*
X-20000Y139250D02*
D03*
X-81000Y314000D02*
D03*
X21750Y488750D02*
D03*
X28000Y487500D02*
D03*
X34500Y483750D02*
D03*
X39500Y478750D02*
D03*
X43000Y472750D02*
D03*
X25000Y466000D02*
D03*
X45000Y466000D02*
D03*
Y459000D02*
D03*
Y452000D02*
D03*
X27000Y459000D02*
D03*
Y452000D02*
D03*
Y445000D02*
D03*
X45000D02*
D03*
X-17000Y490000D02*
D03*
X-10000D02*
D03*
X-3000D02*
D03*
X18000Y470000D02*
D03*
X11000D02*
D03*
X4000D02*
D03*
X-3000D02*
D03*
X-10000D02*
D03*
X-17000D02*
D03*
X-24000D02*
D03*
X-31000D02*
D03*
X-38000D02*
D03*
X-45000D02*
D03*
Y490000D02*
D03*
X-95000Y80000D02*
D03*
X-105000Y90000D02*
D03*
Y80000D02*
D03*
X-100000Y85000D02*
D03*
X-95000Y90000D02*
D03*
X27000Y188000D02*
D03*
X-81000Y351750D02*
D03*
X-99500Y277750D02*
D03*
X-117000Y106250D02*
D03*
X-99500Y374000D02*
D03*
X-63500Y403250D02*
D03*
X20500Y360000D02*
D03*
X-78250Y332000D02*
D03*
X-24500Y343500D02*
D03*
X-25250Y296250D02*
D03*
X56750Y246250D02*
D03*
X-27250Y223500D02*
D03*
X8750Y206000D02*
D03*
X27500Y208250D02*
D03*
X98500Y179250D02*
D03*
X98750Y206000D02*
D03*
X62500Y171750D02*
D03*
X102500Y35500D02*
D03*
X-28750Y45000D02*
D03*
X-54750Y39250D02*
D03*
X-80750Y37750D02*
D03*
X-78250Y71000D02*
D03*
X-70250Y107750D02*
D03*
X-15000Y133500D02*
D03*
X-14750Y98750D02*
D03*
X-11750Y69000D02*
D03*
X42750Y61500D02*
D03*
X112000Y104500D02*
D03*
X71250Y97750D02*
D03*
X7000Y91500D02*
D03*
X6750Y114750D02*
D03*
X76000Y369250D02*
D03*
X82000D02*
D03*
X88000D02*
D03*
X94000D02*
D03*
X20000Y127625D02*
D03*
X-100000Y315000D02*
D03*
X-10000Y274950D02*
D03*
Y287650D02*
D03*
X-20000Y114750D02*
D03*
Y121250D02*
D03*
Y108250D02*
D03*
X61400Y90860D02*
D03*
X81400D02*
D03*
X-63600Y79300D02*
D03*
X55700Y132625D02*
D03*
X-55700Y75750D02*
D03*
X-90000Y30000D02*
D03*
X-66000D02*
D03*
X-74000D02*
D03*
X-27000Y188000D02*
D03*
X-117000Y224000D02*
D03*
X20000Y108250D02*
D03*
Y121250D02*
D03*
Y114750D02*
D03*
Y101750D02*
D03*
Y82250D02*
D03*
X-20000Y127750D02*
D03*
Y88750D02*
D03*
X109300Y66360D02*
D03*
Y116360D02*
D03*
X132500Y132750D02*
D03*
Y82750D02*
D03*
X81250Y124360D02*
D03*
X-115000Y130000D02*
D03*
X-105000D02*
D03*
X-95000D02*
D03*
X-98000Y40000D02*
D03*
X-106000D02*
D03*
X-114000D02*
D03*
X-113900Y99000D02*
D03*
X-78000Y85700D02*
D03*
X-10000Y325750D02*
D03*
Y300350D02*
D03*
X-100000Y335000D02*
D03*
X27000Y386000D02*
D03*
X81000Y332000D02*
D03*
Y278000D02*
D03*
X99000Y413000D02*
D03*
Y419000D02*
D03*
Y425000D02*
D03*
Y431000D02*
D03*
X72000Y419000D02*
D03*
Y425000D02*
D03*
X-45000Y188000D02*
D03*
X-81000Y188000D02*
D03*
X63000Y206000D02*
D03*
X45000Y188000D02*
D03*
X-6000Y30000D02*
D03*
X-14000D02*
D03*
X46000D02*
D03*
X38000D02*
D03*
X30000D02*
D03*
X22000D02*
D03*
X14000D02*
D03*
X-117000Y368000D02*
D03*
Y350000D02*
D03*
X-99000Y170000D02*
D03*
X-81000D02*
D03*
X117000Y206000D02*
D03*
Y224000D02*
D03*
Y242000D02*
D03*
X-63000Y206000D02*
D03*
X-117000Y386000D02*
D03*
X63000Y188000D02*
D03*
X81000D02*
D03*
M02*
