G04*
G04 #@! TF.GenerationSoftware,Altium Limited,Altium Designer,24.7.2 (38)*
G04*
G04 Layer_Color=255*
%FSLAX44Y44*%
%MOMM*%
G71*
G04*
G04 #@! TF.SameCoordinates,B0AE272E-27A3-47FD-914A-DD41DDC77624*
G04*
G04*
G04 #@! TF.FilePolarity,Positive*
G04*
G01*
G75*
%ADD17R,0.4700X0.5200*%
%ADD18R,0.5200X0.4700*%
%ADD46R,0.6000X2.3000*%
%ADD51C,0.7500*%
%ADD52R,5.3000X5.3000*%
%ADD55R,1.8200X1.1600*%
%ADD56R,1.0000X0.7000*%
%ADD57C,1.5000*%
%ADD58R,1.3000X0.4500*%
%ADD59R,1.7000X1.3000*%
%ADD60R,1.1500X0.6500*%
D17*
X29300Y338500D02*
D03*
X20700D02*
D03*
Y330519D02*
D03*
X29300D02*
D03*
Y322637D02*
D03*
X20700D02*
D03*
X29300Y314706D02*
D03*
X20700D02*
D03*
Y306725D02*
D03*
X29300D02*
D03*
Y298844D02*
D03*
X20700D02*
D03*
Y290863D02*
D03*
X29300D02*
D03*
Y282981D02*
D03*
X20700D02*
D03*
Y275000D02*
D03*
X29300D02*
D03*
D18*
X121500Y414300D02*
D03*
Y405700D02*
D03*
X61500Y414300D02*
D03*
Y405700D02*
D03*
D46*
X118000Y14000D02*
D03*
X110000D02*
D03*
X102000D02*
D03*
X94000D02*
D03*
X86000D02*
D03*
X78000D02*
D03*
X70000D02*
D03*
X62000D02*
D03*
X54000D02*
D03*
X46000D02*
D03*
X38000D02*
D03*
X30000D02*
D03*
X22000D02*
D03*
X14000D02*
D03*
X6000D02*
D03*
X-2000D02*
D03*
X-10000D02*
D03*
X-18000D02*
D03*
X-58000D02*
D03*
X-66000D02*
D03*
X-74000D02*
D03*
X-82000D02*
D03*
X-90000D02*
D03*
X-98000D02*
D03*
X-106000D02*
D03*
X-114000D02*
D03*
D51*
X-142500Y40000D02*
D03*
Y50000D02*
D03*
Y60000D02*
D03*
Y70000D02*
D03*
Y80000D02*
D03*
Y90000D02*
D03*
Y110000D02*
D03*
Y120000D02*
D03*
Y130000D02*
D03*
Y100000D02*
D03*
Y140000D02*
D03*
Y150000D02*
D03*
Y160000D02*
D03*
Y170000D02*
D03*
Y190000D02*
D03*
Y200000D02*
D03*
Y210000D02*
D03*
Y180000D02*
D03*
Y220000D02*
D03*
Y370000D02*
D03*
Y420000D02*
D03*
Y430000D02*
D03*
Y440000D02*
D03*
Y410000D02*
D03*
Y400000D02*
D03*
Y390000D02*
D03*
Y380000D02*
D03*
Y450000D02*
D03*
X142500Y40000D02*
D03*
Y60000D02*
D03*
Y50000D02*
D03*
Y150000D02*
D03*
Y170000D02*
D03*
Y160000D02*
D03*
Y110000D02*
D03*
Y140000D02*
D03*
Y130000D02*
D03*
Y120000D02*
D03*
Y70000D02*
D03*
Y100000D02*
D03*
Y90000D02*
D03*
Y80000D02*
D03*
Y260000D02*
D03*
Y280000D02*
D03*
Y270000D02*
D03*
Y220000D02*
D03*
Y250000D02*
D03*
Y240000D02*
D03*
Y230000D02*
D03*
Y180000D02*
D03*
Y210000D02*
D03*
Y200000D02*
D03*
Y190000D02*
D03*
Y300000D02*
D03*
Y310000D02*
D03*
Y320000D02*
D03*
Y290000D02*
D03*
Y340000D02*
D03*
Y350000D02*
D03*
Y360000D02*
D03*
Y330000D02*
D03*
Y380000D02*
D03*
Y390000D02*
D03*
Y400000D02*
D03*
Y370000D02*
D03*
Y410000D02*
D03*
Y440000D02*
D03*
Y430000D02*
D03*
Y420000D02*
D03*
Y450000D02*
D03*
D52*
X-121000Y480500D02*
D03*
X121000D02*
D03*
D55*
X115000Y394750D02*
D03*
Y365250D02*
D03*
X55000Y394750D02*
D03*
Y365250D02*
D03*
D56*
X95000Y381300D02*
D03*
Y397050D02*
D03*
X75000Y381300D02*
D03*
Y397050D02*
D03*
D57*
X-110000Y160000D02*
D03*
X-80000D02*
D03*
X-20000Y200000D02*
D03*
X110000Y50000D02*
D03*
X85000D02*
D03*
X-80000Y200000D02*
D03*
X-50000D02*
D03*
X60000Y120000D02*
D03*
Y50000D02*
D03*
X35000D02*
D03*
X10000D02*
D03*
X-110000Y200000D02*
D03*
X100000Y330000D02*
D03*
X10000Y390000D02*
D03*
X-80000Y130000D02*
D03*
X-100000Y60000D02*
D03*
X-50000D02*
D03*
Y90000D02*
D03*
Y120000D02*
D03*
X100000Y240000D02*
D03*
Y280000D02*
D03*
X40000Y200000D02*
D03*
D58*
X-19900Y360850D02*
D03*
X-39900D02*
D03*
X-19900Y235450D02*
D03*
X-39900D02*
D03*
D59*
X-135500Y357550D02*
D03*
Y238950D02*
D03*
D60*
X1800Y338450D02*
D03*
Y325750D02*
D03*
Y313050D02*
D03*
Y300350D02*
D03*
Y287650D02*
D03*
Y274950D02*
D03*
M02*
