G04*
G04 #@! TF.GenerationSoftware,Altium Limited,Altium Designer,24.7.2 (38)*
G04*
G04 Layer_Color=16711935*
%FSLAX44Y44*%
%MOMM*%
G71*
G04*
G04 #@! TF.SameCoordinates,B0AE272E-27A3-47FD-914A-DD41DDC77624*
G04*
G04*
G04 #@! TF.FilePolarity,Negative*
G04*
G01*
G75*
%ADD27R,1.0000X42.0000*%
%ADD28R,26.2000X2.9250*%
%ADD32R,0.4900X0.5400*%
%ADD33R,0.5400X0.4900*%
%ADD41R,0.6200X2.3200*%
%ADD43C,0.7700*%
%ADD44R,5.3200X5.3200*%
%ADD61R,1.6800X1.6800*%
%ADD63R,1.0000X8.8500*%
%ADD64R,1.0000X19.6500*%
%ADD65R,1.8400X1.1800*%
%ADD66R,1.0200X0.7200*%
%ADD67C,1.5200*%
%ADD68R,1.4000X0.5500*%
%ADD69R,1.8000X1.4000*%
%ADD70R,1.2500X0.7500*%
D27*
X142500Y244500D02*
D03*
D28*
X-0Y12125D02*
D03*
D32*
X29300Y338500D02*
D03*
X20700D02*
D03*
Y330519D02*
D03*
X29300D02*
D03*
Y322637D02*
D03*
X20700D02*
D03*
X29300Y314706D02*
D03*
X20700D02*
D03*
Y306725D02*
D03*
X29300D02*
D03*
Y298844D02*
D03*
X20700D02*
D03*
Y290863D02*
D03*
X29300D02*
D03*
Y282981D02*
D03*
X20700D02*
D03*
Y275000D02*
D03*
X29300D02*
D03*
D33*
X121500Y414300D02*
D03*
Y405700D02*
D03*
X61500Y414300D02*
D03*
Y405700D02*
D03*
D41*
X118000Y14000D02*
D03*
X110000D02*
D03*
X102000D02*
D03*
X94000D02*
D03*
X86000D02*
D03*
X78000D02*
D03*
X70000D02*
D03*
X62000D02*
D03*
X54000D02*
D03*
X46000D02*
D03*
X38000D02*
D03*
X30000D02*
D03*
X22000D02*
D03*
X14000D02*
D03*
X6000D02*
D03*
X-2000D02*
D03*
X-10000D02*
D03*
X-18000D02*
D03*
X-58000D02*
D03*
X-66000D02*
D03*
X-74000D02*
D03*
X-82000D02*
D03*
X-90000D02*
D03*
X-98000D02*
D03*
X-106000D02*
D03*
X-114000D02*
D03*
D43*
X-142500Y40000D02*
D03*
Y50000D02*
D03*
Y60000D02*
D03*
Y70000D02*
D03*
Y80000D02*
D03*
Y90000D02*
D03*
Y110000D02*
D03*
Y120000D02*
D03*
Y130000D02*
D03*
Y100000D02*
D03*
Y140000D02*
D03*
Y150000D02*
D03*
Y160000D02*
D03*
Y170000D02*
D03*
Y190000D02*
D03*
Y200000D02*
D03*
Y210000D02*
D03*
Y180000D02*
D03*
Y220000D02*
D03*
Y370000D02*
D03*
Y420000D02*
D03*
Y430000D02*
D03*
Y440000D02*
D03*
Y410000D02*
D03*
Y400000D02*
D03*
Y390000D02*
D03*
Y380000D02*
D03*
Y450000D02*
D03*
X142500Y40000D02*
D03*
Y60000D02*
D03*
Y50000D02*
D03*
Y150000D02*
D03*
Y170000D02*
D03*
Y160000D02*
D03*
Y110000D02*
D03*
Y140000D02*
D03*
Y130000D02*
D03*
Y120000D02*
D03*
Y70000D02*
D03*
Y100000D02*
D03*
Y90000D02*
D03*
Y80000D02*
D03*
Y260000D02*
D03*
Y280000D02*
D03*
Y270000D02*
D03*
Y220000D02*
D03*
Y250000D02*
D03*
Y240000D02*
D03*
Y230000D02*
D03*
Y180000D02*
D03*
Y210000D02*
D03*
Y200000D02*
D03*
Y190000D02*
D03*
Y300000D02*
D03*
Y310000D02*
D03*
Y320000D02*
D03*
Y290000D02*
D03*
Y340000D02*
D03*
Y350000D02*
D03*
Y360000D02*
D03*
Y330000D02*
D03*
Y380000D02*
D03*
Y390000D02*
D03*
Y400000D02*
D03*
Y370000D02*
D03*
Y410000D02*
D03*
Y440000D02*
D03*
Y430000D02*
D03*
Y420000D02*
D03*
Y450000D02*
D03*
D44*
X-121000Y480500D02*
D03*
X121000D02*
D03*
D61*
X-100000Y85000D02*
D03*
D63*
X-142500Y410250D02*
D03*
D64*
X-142500Y132750D02*
D03*
D65*
X115000Y394750D02*
D03*
Y365250D02*
D03*
X55000Y394750D02*
D03*
Y365250D02*
D03*
D66*
X95000Y381300D02*
D03*
Y397050D02*
D03*
X75000Y381300D02*
D03*
Y397050D02*
D03*
D67*
X-110000Y160000D02*
D03*
X-80000D02*
D03*
X-20000Y200000D02*
D03*
X110000Y50000D02*
D03*
X85000D02*
D03*
X-80000Y200000D02*
D03*
X-50000D02*
D03*
X60000Y120000D02*
D03*
Y50000D02*
D03*
X35000D02*
D03*
X10000D02*
D03*
X-110000Y200000D02*
D03*
X100000Y330000D02*
D03*
X10000Y390000D02*
D03*
X-80000Y130000D02*
D03*
X-100000Y60000D02*
D03*
X-50000D02*
D03*
Y90000D02*
D03*
Y120000D02*
D03*
X100000Y240000D02*
D03*
Y280000D02*
D03*
X40000Y200000D02*
D03*
D68*
X-19900Y360850D02*
D03*
X-39900D02*
D03*
X-19900Y235450D02*
D03*
X-39900D02*
D03*
D69*
X-135500Y357550D02*
D03*
Y238950D02*
D03*
D70*
X1800Y338450D02*
D03*
Y325750D02*
D03*
Y313050D02*
D03*
Y300350D02*
D03*
Y287650D02*
D03*
Y274950D02*
D03*
M02*
