G04*
G04 #@! TF.GenerationSoftware,Altium Limited,Altium Designer,24.7.2 (38)*
G04*
G04 Layer_Color=255*
%FSLAX44Y44*%
%MOMM*%
G71*
G04*
G04 #@! TF.SameCoordinates,B0AE272E-27A3-47FD-914A-DD41DDC77624*
G04*
G04*
G04 #@! TF.FilePolarity,Positive*
G04*
G01*
G75*
G04:AMPARAMS|DCode=14|XSize=0.24mm|YSize=0.6mm|CornerRadius=0.0504mm|HoleSize=0mm|Usage=FLASHONLY|Rotation=0.000|XOffset=0mm|YOffset=0mm|HoleType=Round|Shape=RoundedRectangle|*
%AMROUNDEDRECTD14*
21,1,0.2400,0.4992,0,0,0.0*
21,1,0.1392,0.6000,0,0,0.0*
1,1,0.1008,0.0696,-0.2496*
1,1,0.1008,-0.0696,-0.2496*
1,1,0.1008,-0.0696,0.2496*
1,1,0.1008,0.0696,0.2496*
%
%ADD14ROUNDEDRECTD14*%
G04:AMPARAMS|DCode=15|XSize=0.24mm|YSize=0.6mm|CornerRadius=0.0504mm|HoleSize=0mm|Usage=FLASHONLY|Rotation=270.000|XOffset=0mm|YOffset=0mm|HoleType=Round|Shape=RoundedRectangle|*
%AMROUNDEDRECTD15*
21,1,0.2400,0.4992,0,0,270.0*
21,1,0.1392,0.6000,0,0,270.0*
1,1,0.1008,-0.2496,-0.0696*
1,1,0.1008,-0.2496,0.0696*
1,1,0.1008,0.2496,0.0696*
1,1,0.1008,0.2496,-0.0696*
%
%ADD15ROUNDEDRECTD15*%
G04:AMPARAMS|DCode=16|XSize=1.68mm|YSize=1.68mm|CornerRadius=0.042mm|HoleSize=0mm|Usage=FLASHONLY|Rotation=270.000|XOffset=0mm|YOffset=0mm|HoleType=Round|Shape=RoundedRectangle|*
%AMROUNDEDRECTD16*
21,1,1.6800,1.5960,0,0,270.0*
21,1,1.5960,1.6800,0,0,270.0*
1,1,0.0840,-0.7980,-0.7980*
1,1,0.0840,-0.7980,0.7980*
1,1,0.0840,0.7980,0.7980*
1,1,0.0840,0.7980,-0.7980*
%
%ADD16ROUNDEDRECTD16*%
%ADD17R,0.4700X0.5200*%
%ADD18R,0.5200X0.4700*%
%ADD19R,0.4000X0.4000*%
%ADD20R,0.8000X0.3000*%
%ADD21R,0.5000X0.6000*%
%ADD22R,0.7000X1.0000*%
%ADD23R,2.7000X0.8000*%
%ADD24R,1.0000X1.0000*%
%ADD25R,2.2000X1.0500*%
G04:AMPARAMS|DCode=26|XSize=0.7mm|YSize=0.7mm|CornerRadius=0.07mm|HoleSize=0mm|Usage=FLASHONLY|Rotation=0.000|XOffset=0mm|YOffset=0mm|HoleType=Round|Shape=RoundedRectangle|*
%AMROUNDEDRECTD26*
21,1,0.7000,0.5600,0,0,0.0*
21,1,0.5600,0.7000,0,0,0.0*
1,1,0.1400,0.2800,-0.2800*
1,1,0.1400,-0.2800,-0.2800*
1,1,0.1400,-0.2800,0.2800*
1,1,0.1400,0.2800,0.2800*
%
%ADD26ROUNDEDRECTD26*%
%ADD46R,0.6000X2.3000*%
%ADD51C,0.7500*%
%ADD52R,5.3000X5.3000*%
D14*
X-92500Y99000D02*
D03*
X-102500Y71000D02*
D03*
X-97500D02*
D03*
X-107500D02*
D03*
Y99000D02*
D03*
X-102500D02*
D03*
X-97500D02*
D03*
X-92500Y71000D02*
D03*
D15*
X-114000Y92500D02*
D03*
Y87500D02*
D03*
Y82500D02*
D03*
Y77500D02*
D03*
X-86000Y92500D02*
D03*
Y87500D02*
D03*
Y82500D02*
D03*
Y77500D02*
D03*
D16*
X-100000Y85000D02*
D03*
D17*
X59300Y58860D02*
D03*
X50700D02*
D03*
X99300Y108860D02*
D03*
X90700D02*
D03*
X99300Y98860D02*
D03*
X90700D02*
D03*
X99300Y116360D02*
D03*
X90700D02*
D03*
X40700Y132625D02*
D03*
X49300D02*
D03*
Y108250D02*
D03*
X40700D02*
D03*
X49300Y148860D02*
D03*
X40700D02*
D03*
X49300Y124500D02*
D03*
X40700D02*
D03*
X49300Y140740D02*
D03*
X40700D02*
D03*
X49300Y116375D02*
D03*
X40700D02*
D03*
X90700Y148860D02*
D03*
X99300D02*
D03*
Y141360D02*
D03*
X90700D02*
D03*
X90700Y156360D02*
D03*
X99300D02*
D03*
X90700Y73860D02*
D03*
X99300D02*
D03*
X99300Y58860D02*
D03*
X90700D02*
D03*
X99300Y66360D02*
D03*
X90700D02*
D03*
X-40700Y132625D02*
D03*
X-49300D02*
D03*
Y140750D02*
D03*
X-40700D02*
D03*
X-49300Y124500D02*
D03*
X-40700D02*
D03*
X-40700Y75750D02*
D03*
X-49300D02*
D03*
X-40700Y108250D02*
D03*
X-49300D02*
D03*
Y116375D02*
D03*
X-40700D02*
D03*
X-131800Y130000D02*
D03*
X-123200D02*
D03*
Y117000D02*
D03*
X-131800D02*
D03*
Y143000D02*
D03*
X-123200D02*
D03*
X79300Y58860D02*
D03*
X70700D02*
D03*
X50700Y73860D02*
D03*
X59300D02*
D03*
X-76350Y47500D02*
D03*
X-84950D02*
D03*
X70700Y73860D02*
D03*
X79300D02*
D03*
X59300Y66360D02*
D03*
X50700D02*
D03*
X79300D02*
D03*
X70700D02*
D03*
X-5700Y480000D02*
D03*
X-14300D02*
D03*
X40700Y100750D02*
D03*
X49300D02*
D03*
D18*
X-66000Y54300D02*
D03*
Y45700D02*
D03*
X30000Y54300D02*
D03*
Y45700D02*
D03*
X-14000Y54300D02*
D03*
Y45700D02*
D03*
X22000Y54300D02*
D03*
Y45700D02*
D03*
X14000Y54300D02*
D03*
Y45700D02*
D03*
X-70000Y85700D02*
D03*
Y94300D02*
D03*
Y70700D02*
D03*
Y79300D02*
D03*
X-122500D02*
D03*
Y70700D02*
D03*
X-130000Y85700D02*
D03*
Y94300D02*
D03*
X-122500Y85700D02*
D03*
Y94300D02*
D03*
X-6000Y54300D02*
D03*
Y45700D02*
D03*
X15000Y488600D02*
D03*
Y480000D02*
D03*
X5000Y488600D02*
D03*
Y480000D02*
D03*
X-25000Y488600D02*
D03*
Y480000D02*
D03*
X-35000Y488600D02*
D03*
Y480000D02*
D03*
X40700Y82250D02*
D03*
Y90850D02*
D03*
D19*
X95000Y90860D02*
D03*
X98750Y81860D02*
D03*
X91250D02*
D03*
X95000Y133360D02*
D03*
X98750Y124360D02*
D03*
X91250D02*
D03*
X71250Y81860D02*
D03*
X78750D02*
D03*
X75000Y90860D02*
D03*
X51250Y81860D02*
D03*
X58750D02*
D03*
X55000Y90860D02*
D03*
D20*
X30000Y108250D02*
D03*
Y114750D02*
D03*
Y121250D02*
D03*
Y101750D02*
D03*
Y95250D02*
D03*
Y88750D02*
D03*
Y82250D02*
D03*
Y127750D02*
D03*
X-30000Y108250D02*
D03*
Y114750D02*
D03*
Y121250D02*
D03*
Y101750D02*
D03*
Y95250D02*
D03*
Y88750D02*
D03*
Y82250D02*
D03*
Y127750D02*
D03*
Y134250D02*
D03*
Y75750D02*
D03*
X30000Y134250D02*
D03*
Y75750D02*
D03*
X-30000Y140750D02*
D03*
Y69250D02*
D03*
X30000D02*
D03*
Y140750D02*
D03*
D21*
X116350Y132750D02*
D03*
X125350D02*
D03*
X116350Y82750D02*
D03*
X125350D02*
D03*
D22*
X-92500Y60000D02*
D03*
X-77500D02*
D03*
X-107500D02*
D03*
X-122500D02*
D03*
D23*
X-99250Y143000D02*
D03*
Y117000D02*
D03*
D24*
X-55000Y480000D02*
D03*
X-85000Y480000D02*
D03*
D25*
X-70000Y494750D02*
D03*
Y465250D02*
D03*
D26*
X36000Y233000D02*
D03*
X54000D02*
D03*
X-0D02*
D03*
X18000D02*
D03*
X-36000D02*
D03*
X-18000D02*
D03*
X-54000D02*
D03*
X72000Y359000D02*
D03*
Y341000D02*
D03*
Y305000D02*
D03*
Y323000D02*
D03*
Y269000D02*
D03*
Y251000D02*
D03*
Y287000D02*
D03*
X54000Y377000D02*
D03*
X36000D02*
D03*
X18000D02*
D03*
X-0D02*
D03*
X-36000D02*
D03*
X-18000D02*
D03*
X-54000D02*
D03*
X-72000Y251660D02*
D03*
Y269000D02*
D03*
Y287000D02*
D03*
Y305000D02*
D03*
Y323000D02*
D03*
Y341000D02*
D03*
Y359000D02*
D03*
X108000Y431000D02*
D03*
X126000Y413000D02*
D03*
X108000D02*
D03*
X126000Y377000D02*
D03*
Y395000D02*
D03*
X90000Y413000D02*
D03*
X108000Y395000D02*
D03*
X90000Y431000D02*
D03*
X108000Y377000D02*
D03*
X90000Y395000D02*
D03*
X126000Y359000D02*
D03*
Y341000D02*
D03*
X108000Y359000D02*
D03*
X126000Y305000D02*
D03*
Y323000D02*
D03*
X90000Y359000D02*
D03*
X108000Y341000D02*
D03*
X90000Y377000D02*
D03*
X108000Y323000D02*
D03*
X90000Y341000D02*
D03*
X54000Y431000D02*
D03*
X72000D02*
D03*
X36000D02*
D03*
X72000Y413000D02*
D03*
X54000D02*
D03*
X18000Y431000D02*
D03*
X36000Y413000D02*
D03*
X-0Y431000D02*
D03*
X18000Y413000D02*
D03*
X-18000D02*
D03*
X72000Y395000D02*
D03*
Y377000D02*
D03*
X54000Y395000D02*
D03*
X90000Y305000D02*
D03*
Y323000D02*
D03*
X36000Y395000D02*
D03*
X-0Y413000D02*
D03*
X18000Y395000D02*
D03*
X-0D02*
D03*
X126000Y269000D02*
D03*
Y251000D02*
D03*
Y287000D02*
D03*
X108000D02*
D03*
Y269000D02*
D03*
Y305000D02*
D03*
Y251000D02*
D03*
X90000Y269000D02*
D03*
X126000Y233000D02*
D03*
Y215000D02*
D03*
X108000Y233000D02*
D03*
X126000Y197000D02*
D03*
X108000Y179000D02*
D03*
X90000Y233000D02*
D03*
X108000Y215000D02*
D03*
X90000Y251000D02*
D03*
X108000Y197000D02*
D03*
X90000Y179000D02*
D03*
Y287000D02*
D03*
Y215000D02*
D03*
X72000Y233000D02*
D03*
Y197000D02*
D03*
Y215000D02*
D03*
X36000D02*
D03*
X54000D02*
D03*
X-0D02*
D03*
X54000Y197000D02*
D03*
X18000Y215000D02*
D03*
X90000Y197000D02*
D03*
X72000Y179000D02*
D03*
X36000Y197000D02*
D03*
X54000Y179000D02*
D03*
X36000D02*
D03*
X18000Y197000D02*
D03*
X-0D02*
D03*
X18000Y179000D02*
D03*
X-0D02*
D03*
X-36000Y431000D02*
D03*
X-18000D02*
D03*
X-54000D02*
D03*
X-36000Y413000D02*
D03*
X-54000D02*
D03*
X-72000Y431000D02*
D03*
Y413000D02*
D03*
X-90000Y431000D02*
D03*
X-36000Y395000D02*
D03*
X-18000D02*
D03*
X-54000D02*
D03*
X-72000Y377000D02*
D03*
Y395000D02*
D03*
X-90000D02*
D03*
Y341000D02*
D03*
Y413000D02*
D03*
Y305000D02*
D03*
Y323000D02*
D03*
X-108000Y413000D02*
D03*
Y395000D02*
D03*
Y431000D02*
D03*
X-90000Y359000D02*
D03*
Y377000D02*
D03*
X-126000Y413000D02*
D03*
Y395000D02*
D03*
X-108000Y377000D02*
D03*
X-126000D02*
D03*
X-108000Y341000D02*
D03*
Y323000D02*
D03*
Y359000D02*
D03*
X-90000Y287000D02*
D03*
X-108000Y305000D02*
D03*
X-126000Y341000D02*
D03*
Y359000D02*
D03*
Y305000D02*
D03*
Y323000D02*
D03*
X-36000Y215000D02*
D03*
X-18000D02*
D03*
X-72000Y233000D02*
D03*
X-18000Y197000D02*
D03*
X-54000Y215000D02*
D03*
X-90000Y233000D02*
D03*
X-72000Y215000D02*
D03*
X-90000Y269000D02*
D03*
X-36000Y197000D02*
D03*
X-18000Y179000D02*
D03*
X-54000Y197000D02*
D03*
X-36000Y179000D02*
D03*
X-54000D02*
D03*
X-72000D02*
D03*
Y197000D02*
D03*
X-108000Y269000D02*
D03*
X-90000Y251000D02*
D03*
X-108000Y287000D02*
D03*
Y233000D02*
D03*
Y251000D02*
D03*
X-126000Y269000D02*
D03*
Y251000D02*
D03*
Y287000D02*
D03*
X-90000Y215000D02*
D03*
Y197000D02*
D03*
X-108000Y215000D02*
D03*
X-90000Y179000D02*
D03*
X-108000D02*
D03*
X-126000Y215000D02*
D03*
Y233000D02*
D03*
X-108000Y197000D02*
D03*
X-126000D02*
D03*
X-18000Y305000D02*
D03*
Y323000D02*
D03*
Y287000D02*
D03*
X18000Y323000D02*
D03*
X-0Y305000D02*
D03*
Y323000D02*
D03*
X18000Y287000D02*
D03*
Y305000D02*
D03*
X-0Y287000D02*
D03*
D46*
X114000Y14000D02*
D03*
X106000D02*
D03*
X98000D02*
D03*
X90000D02*
D03*
X82000D02*
D03*
X74000D02*
D03*
X66000D02*
D03*
X58000D02*
D03*
X50000D02*
D03*
X42000D02*
D03*
X34000D02*
D03*
X26000D02*
D03*
X18000D02*
D03*
X10000D02*
D03*
X2000D02*
D03*
X-6000D02*
D03*
X-14000D02*
D03*
X-22000D02*
D03*
X-62000D02*
D03*
X-70000D02*
D03*
X-78000D02*
D03*
X-86000D02*
D03*
X-94000D02*
D03*
X-102000D02*
D03*
X-110000D02*
D03*
X-118000D02*
D03*
D51*
X-142500Y40000D02*
D03*
Y50000D02*
D03*
Y60000D02*
D03*
Y70000D02*
D03*
Y80000D02*
D03*
Y90000D02*
D03*
Y110000D02*
D03*
Y120000D02*
D03*
Y130000D02*
D03*
Y100000D02*
D03*
Y140000D02*
D03*
Y150000D02*
D03*
Y160000D02*
D03*
Y170000D02*
D03*
Y190000D02*
D03*
Y200000D02*
D03*
Y210000D02*
D03*
Y180000D02*
D03*
Y220000D02*
D03*
Y370000D02*
D03*
Y420000D02*
D03*
Y430000D02*
D03*
Y440000D02*
D03*
Y410000D02*
D03*
Y400000D02*
D03*
Y390000D02*
D03*
Y380000D02*
D03*
Y450000D02*
D03*
X142500Y40000D02*
D03*
Y60000D02*
D03*
Y50000D02*
D03*
Y150000D02*
D03*
Y170000D02*
D03*
Y160000D02*
D03*
Y110000D02*
D03*
Y140000D02*
D03*
Y130000D02*
D03*
Y120000D02*
D03*
Y70000D02*
D03*
Y100000D02*
D03*
Y90000D02*
D03*
Y80000D02*
D03*
Y260000D02*
D03*
Y280000D02*
D03*
Y270000D02*
D03*
Y220000D02*
D03*
Y250000D02*
D03*
Y240000D02*
D03*
Y230000D02*
D03*
Y180000D02*
D03*
Y210000D02*
D03*
Y200000D02*
D03*
Y190000D02*
D03*
Y300000D02*
D03*
Y310000D02*
D03*
Y320000D02*
D03*
Y290000D02*
D03*
Y340000D02*
D03*
Y350000D02*
D03*
Y360000D02*
D03*
Y330000D02*
D03*
Y380000D02*
D03*
Y390000D02*
D03*
Y400000D02*
D03*
Y370000D02*
D03*
Y410000D02*
D03*
Y440000D02*
D03*
Y430000D02*
D03*
Y420000D02*
D03*
Y450000D02*
D03*
D52*
X-121000Y480500D02*
D03*
X121000D02*
D03*
M02*
