G04*
G04 #@! TF.GenerationSoftware,Altium Limited,Altium Designer,22.1.2 (22)*
G04*
G04 Layer_Color=128*
%FSLAX25Y25*%
%MOIN*%
G70*
G04*
G04 #@! TF.SameCoordinates,3D425B39-A101-4537-954C-310EEB490880*
G04*
G04*
G04 #@! TF.FilePolarity,Positive*
G04*
G01*
G75*
%ADD66C,0.00200*%
D66*
X6299Y189173D02*
X16535D01*
X11417Y184055D02*
Y194291D01*
X101575Y189173D02*
X111811D01*
X106693Y184055D02*
Y194291D01*
X19606Y75500D02*
X20394D01*
X20000Y75106D02*
Y75894D01*
X75106Y60500D02*
X75894D01*
X75500Y60106D02*
Y60894D01*
X104606Y62992D02*
X105394D01*
X105000Y62598D02*
Y63386D01*
X63106Y31000D02*
X63894D01*
X63500Y30606D02*
Y31394D01*
X19606Y30000D02*
X20394D01*
X20000Y29606D02*
Y30394D01*
X36606Y27500D02*
X37394D01*
X37000Y27106D02*
Y27894D01*
X48106Y17000D02*
X48894D01*
X48500Y16606D02*
Y17394D01*
X9106Y55500D02*
X9894D01*
X9500Y55106D02*
Y55894D01*
X2606Y55500D02*
X3394D01*
X3000Y55106D02*
Y55894D01*
X9606Y36000D02*
X10394D01*
X10000Y35606D02*
Y36394D01*
X2606Y38000D02*
X3394D01*
X3000Y37606D02*
Y38394D01*
X3606Y17000D02*
X4394D01*
X4000Y16606D02*
Y17394D01*
X107606Y16000D02*
X108394D01*
X108000Y15606D02*
Y16394D01*
X113606Y28000D02*
X114394D01*
X114000Y27606D02*
Y28394D01*
X114106Y41500D02*
X114894D01*
X114500Y41106D02*
Y41894D01*
X114106Y54000D02*
X114894D01*
X114500Y53606D02*
Y54394D01*
X108106Y53500D02*
X108894D01*
X108500Y53106D02*
Y53894D01*
X107106Y43500D02*
X107894D01*
X107500Y43106D02*
Y43894D01*
X107106Y35500D02*
X107894D01*
X107500Y35106D02*
Y35894D01*
X105606Y27500D02*
X106394D01*
X106000Y27106D02*
Y27894D01*
X71606Y54000D02*
X72394D01*
X72000Y53606D02*
Y54394D01*
X64606Y37000D02*
X65394D01*
X65000Y36606D02*
Y37394D01*
X33606Y38000D02*
X34394D01*
X34000Y37606D02*
Y38394D01*
X38106Y52500D02*
X38894D01*
X38500Y52106D02*
Y52894D01*
X14106Y59000D02*
X14894D01*
X14500Y58606D02*
Y59394D01*
X5106Y103500D02*
X5894D01*
X5500Y103106D02*
Y103894D01*
X5106Y118000D02*
X5894D01*
X5500Y117606D02*
Y118394D01*
X5106Y138500D02*
X5894D01*
X5500Y138106D02*
Y138894D01*
X26606Y139000D02*
X27394D01*
X27000Y138606D02*
Y139394D01*
X26606Y124500D02*
X27394D01*
X27000Y124106D02*
Y124894D01*
X27106Y160000D02*
X27894D01*
X27500Y159606D02*
Y160394D01*
X83106Y160000D02*
X83894D01*
X83500Y159606D02*
Y160394D01*
X105106Y146000D02*
X105894D01*
X105500Y145606D02*
Y146394D01*
X97606Y139000D02*
X98394D01*
X98000Y138606D02*
Y139394D01*
X97606Y118000D02*
X98394D01*
X98000Y117606D02*
Y118394D01*
X90606Y110500D02*
X91394D01*
X91000Y110106D02*
Y110894D01*
X97606Y82000D02*
X98394D01*
X98000Y81606D02*
Y82394D01*
X80606Y96000D02*
X81394D01*
X81000Y95606D02*
Y96394D01*
X53606Y128500D02*
X54394D01*
X54000Y128106D02*
Y128894D01*
X42606Y116000D02*
X43394D01*
X43000Y115606D02*
Y116394D01*
X50106Y99500D02*
X50894D01*
X50500Y99106D02*
Y99894D01*
X63106Y95500D02*
X63894D01*
X63500Y95106D02*
Y95894D01*
X36606Y95500D02*
X37394D01*
X37000Y95106D02*
Y95894D01*
X37606Y136500D02*
X38394D01*
X38000Y136106D02*
Y136894D01*
X65606Y136500D02*
X66394D01*
X66000Y136106D02*
Y136894D01*
X81106Y136000D02*
X81894D01*
X81500Y135606D02*
Y136394D01*
X79106Y125000D02*
X79894D01*
X79500Y124606D02*
Y125394D01*
X81106Y106500D02*
X81894D01*
X81500Y106106D02*
Y106894D01*
X71106Y91000D02*
X71894D01*
X71500Y90606D02*
Y91394D01*
X71606Y99500D02*
X72394D01*
X72000Y99106D02*
Y99894D01*
X71606Y133500D02*
X72394D01*
X72000Y133106D02*
Y133894D01*
X111811Y99248D02*
X112598D01*
X112205Y98854D02*
Y99642D01*
X111811Y83500D02*
X112598D01*
X112205Y83106D02*
Y83894D01*
X85539Y176684D02*
X86326D01*
X85932Y176290D02*
Y177077D01*
X87147Y173976D02*
X87934D01*
X87541Y173582D02*
Y174369D01*
X89466Y171845D02*
X90254D01*
X89860Y171451D02*
Y172238D01*
X92340Y170556D02*
X93128D01*
X92734Y170162D02*
Y170950D01*
X95463Y170148D02*
X96251D01*
X95857Y169755D02*
Y170542D01*
X98613Y170148D02*
X99400D01*
X99007Y169755D02*
Y170542D01*
X101762Y170142D02*
X102550D01*
X102156Y169749D02*
Y170536D01*
X104845Y169497D02*
X105633D01*
X105239Y169103D02*
Y169891D01*
X107504Y167809D02*
X108292D01*
X107898Y167415D02*
Y168203D01*
X109380Y165279D02*
X110167D01*
X109774Y164885D02*
Y165673D01*
X110203Y162239D02*
X110990D01*
X110596Y161845D02*
Y162632D01*
X114839Y169231D02*
X115626D01*
X115233Y168837D02*
Y169625D01*
X112981Y171774D02*
X113768D01*
X113375Y171381D02*
Y172168D01*
X110652Y173896D02*
X111440D01*
X111046Y173502D02*
Y174289D01*
X107923Y175468D02*
X108711D01*
X108317Y175074D02*
Y175862D01*
X104934Y176459D02*
X105721D01*
X105327Y176065D02*
Y176852D01*
X101809Y176854D02*
X102596D01*
X102203Y176460D02*
Y177247D01*
X98659Y176852D02*
X99447D01*
X99053Y176458D02*
Y177245D01*
X95510Y176852D02*
X96297D01*
X95903Y176458D02*
Y177245D01*
X92549Y177926D02*
X93336D01*
X92943Y177532D02*
Y178320D01*
X104724Y89370D02*
X105512D01*
X105118Y88976D02*
Y89764D01*
X82284Y179000D02*
X83071D01*
X82677Y178606D02*
Y179394D01*
X52952Y169877D02*
X53739D01*
X53345Y169483D02*
Y170270D01*
X31688Y178151D02*
X32475D01*
X32081Y177757D02*
Y178545D01*
X32088Y175210D02*
X32875D01*
X32481Y174816D02*
Y175603D01*
X33531Y172616D02*
X34319D01*
X33925Y172222D02*
Y173009D01*
X35852Y170765D02*
X36640D01*
X36246Y170371D02*
Y171159D01*
X38702Y169936D02*
X39490D01*
X39096Y169542D02*
Y170329D01*
X41670Y169877D02*
X42458D01*
X42064Y169483D02*
Y170270D01*
X44639Y169877D02*
X45426D01*
X45033Y169483D02*
Y170270D01*
X47607Y169877D02*
X48395D01*
X48001Y169483D02*
Y170270D01*
X50576Y169877D02*
X51363D01*
X50969Y169483D02*
Y170270D01*
X40972Y176580D02*
X41759D01*
X41365Y176186D02*
Y176974D01*
X38391Y178047D02*
X39179D01*
X38785Y177654D02*
Y178441D01*
X53150Y176580D02*
X53937D01*
X53543Y176186D02*
Y176974D01*
X55327Y169877D02*
X56115D01*
X55721Y169483D02*
Y170270D01*
X56693Y176580D02*
X57480D01*
X57087Y176186D02*
Y176974D01*
X58296Y169877D02*
X59083D01*
X58690Y169483D02*
Y170270D01*
X61264Y169877D02*
X62052D01*
X61658Y169483D02*
Y170270D01*
X64233Y169877D02*
X65020D01*
X64627Y169483D02*
Y170270D01*
X67201Y169831D02*
X67989D01*
X67595Y169437D02*
Y170224D01*
X69405Y167841D02*
X70192D01*
X69798Y167448D02*
Y168235D01*
X76186Y166898D02*
X76974D01*
X76580Y166504D02*
Y167292D01*
X75784Y169839D02*
X76572D01*
X76178Y169445D02*
Y170233D01*
X74532Y172530D02*
X75319D01*
X74925Y172136D02*
Y172924D01*
X72468Y174664D02*
X73256D01*
X72862Y174271D02*
Y175058D01*
X69846Y176056D02*
X70634D01*
X70240Y175663D02*
Y176450D01*
X66922Y176569D02*
X67710D01*
X67316Y176176D02*
Y176963D01*
X16931Y15748D02*
X17718D01*
X17324Y15354D02*
Y16142D01*
X31496Y12598D02*
X32283D01*
X31890Y12205D02*
Y12992D01*
X27559Y12598D02*
X28346D01*
X27953Y12205D02*
Y12992D01*
X62205Y82284D02*
X62992D01*
X62598Y81890D02*
Y82677D01*
X55118Y82284D02*
X55905D01*
X55512Y81890D02*
Y82677D01*
X90606Y160500D02*
X91394D01*
X91000Y160106D02*
Y160894D01*
X24921Y54838D02*
X25709D01*
X25315Y54444D02*
Y55231D01*
X62205Y68110D02*
X62992D01*
X62598Y67716D02*
Y68504D01*
X52362Y38681D02*
X53150D01*
X52756Y38287D02*
Y39075D01*
X52362Y36122D02*
X53150D01*
X52756Y35728D02*
Y36516D01*
X26378Y15748D02*
X27165D01*
X26772Y15354D02*
Y16142D01*
X29528Y15748D02*
X30315D01*
X29921Y15354D02*
Y16142D01*
X86220Y15748D02*
X87008D01*
X86614Y15354D02*
Y16142D01*
X79921Y15748D02*
X80709D01*
X80315Y15354D02*
Y16142D01*
X76772Y15748D02*
X77559D01*
X77165Y15354D02*
Y16142D01*
X73622Y15748D02*
X74409D01*
X74016Y15354D02*
Y16142D01*
X54724Y15748D02*
X55512D01*
X55118Y15354D02*
Y16142D01*
X57874Y15748D02*
X58661D01*
X58268Y15354D02*
Y16142D01*
X64173Y15748D02*
X64961D01*
X64567Y15354D02*
Y16142D01*
X67323Y15748D02*
X68110D01*
X67716Y15354D02*
Y16142D01*
X70472Y15748D02*
X71260D01*
X70866Y15354D02*
Y16142D01*
X5512Y81496D02*
X6299D01*
X5906Y81102D02*
Y81890D01*
X5512Y91732D02*
X6299D01*
X5906Y91339D02*
Y92126D01*
X76378Y75197D02*
X77165D01*
X76772Y74803D02*
Y75590D01*
X26772Y117717D02*
X27559D01*
X27165Y117323D02*
Y118110D01*
X33858Y82315D02*
X34646D01*
X34252Y81921D02*
Y82709D01*
X40945Y82284D02*
X41732D01*
X41339Y81890D02*
Y82677D01*
X97146Y60039D02*
X97933D01*
X97539Y59646D02*
Y60433D01*
X111811Y75197D02*
X112598D01*
X112205Y74803D02*
Y75590D01*
X111811Y89370D02*
X112598D01*
X112205Y88976D02*
Y89764D01*
X90551Y68110D02*
X91339D01*
X90945Y67716D02*
Y68504D01*
X67913Y41228D02*
X68701D01*
X68307Y40835D02*
Y41622D01*
X105807Y39370D02*
X106595D01*
X106201Y38976D02*
Y39764D01*
X48031Y82284D02*
X48819D01*
X48425Y81890D02*
Y82677D01*
X69291Y82284D02*
X70079D01*
X69685Y81890D02*
Y82677D01*
X29461Y57323D02*
X30248D01*
X29854Y56929D02*
Y57717D01*
X34764Y19410D02*
X35551D01*
X35157Y19016D02*
Y19803D01*
X29134Y25591D02*
X29921D01*
X29528Y25197D02*
Y25984D01*
X29134Y29528D02*
X29921D01*
X29528Y29134D02*
Y29921D01*
X29134Y33465D02*
X29921D01*
X29528Y33071D02*
Y33858D01*
X24921Y29528D02*
X25709D01*
X25315Y29134D02*
Y29921D01*
X13386Y31496D02*
X14173D01*
X13780Y31102D02*
Y31890D01*
X9626Y41339D02*
X10413D01*
X10020Y40945D02*
Y41732D01*
X21260Y32579D02*
X22047D01*
X21654Y32185D02*
Y32972D01*
X90106Y54500D02*
X90894D01*
X90500Y54106D02*
Y54894D01*
X90059Y61024D02*
X90847D01*
X90453Y60630D02*
Y61417D01*
X84622Y25268D02*
X85409D01*
X85016Y24874D02*
Y25661D01*
X84622Y33142D02*
X85409D01*
X85016Y32748D02*
Y33535D01*
X84606Y41000D02*
X85394D01*
X85000Y40606D02*
Y41394D01*
X105807Y23622D02*
X106595D01*
X106201Y23228D02*
Y24016D01*
X105807Y31496D02*
X106595D01*
X106201Y31102D02*
Y31890D01*
X67913Y23327D02*
X68701D01*
X68307Y22933D02*
Y23720D01*
X67913Y38681D02*
X68701D01*
X68307Y38287D02*
Y39075D01*
X67913Y36122D02*
X68701D01*
X68307Y35728D02*
Y36516D01*
X67938Y33538D02*
X68725D01*
X68332Y33145D02*
Y33932D01*
X67913Y31004D02*
X68701D01*
X68307Y30610D02*
Y31398D01*
X67913Y28445D02*
X68701D01*
X68307Y28051D02*
Y28839D01*
X52362Y23327D02*
X53150D01*
X52756Y22933D02*
Y23720D01*
X52362Y28445D02*
X53150D01*
X52756Y28051D02*
Y28839D01*
X52362Y31004D02*
X53150D01*
X52756Y30610D02*
Y31398D01*
X52362Y33563D02*
X53150D01*
X52756Y33169D02*
Y33957D01*
X88386Y44500D02*
X89173D01*
X88779Y44106D02*
Y44894D01*
X56929Y39370D02*
X57717D01*
X57323Y38976D02*
Y39764D01*
X29606Y44500D02*
X30394D01*
X30000Y44106D02*
Y44894D01*
X50000Y54134D02*
X50787D01*
X50394Y53740D02*
Y54528D01*
X78347Y49213D02*
X79134D01*
X78740Y48819D02*
Y49606D01*
X76378Y68110D02*
X77165D01*
X76772Y67716D02*
Y68504D01*
X48031Y68110D02*
X48819D01*
X48425Y67716D02*
Y68504D01*
X55118Y68110D02*
X55905D01*
X55512Y67716D02*
Y68504D01*
X33858Y68110D02*
X34646D01*
X34252Y67717D02*
Y68504D01*
X26772Y68110D02*
X27559D01*
X27165Y67717D02*
Y68504D01*
X19685Y68110D02*
X20472D01*
X20079Y67717D02*
Y68504D01*
X12598Y68110D02*
X13386D01*
X12992Y67717D02*
Y68504D01*
X12598Y75197D02*
X13386D01*
X12992Y74803D02*
Y75590D01*
X12598Y117717D02*
X13386D01*
X12992Y117323D02*
Y118110D01*
X12598Y124803D02*
X13386D01*
X12992Y124409D02*
Y125197D01*
X12598Y131890D02*
X13386D01*
X12992Y131496D02*
Y132283D01*
X12598Y138976D02*
X13386D01*
X12992Y138583D02*
Y139370D01*
X12598Y146063D02*
X13386D01*
X12992Y145669D02*
Y146457D01*
X76378Y138976D02*
X77165D01*
X76772Y138583D02*
Y139370D01*
X83464Y124803D02*
X84252D01*
X83858Y124409D02*
Y125197D01*
X104724Y117717D02*
X105512D01*
X105118Y117323D02*
Y118110D01*
X90551Y103543D02*
X91338D01*
X90945Y103150D02*
Y103937D01*
X104724Y68110D02*
X105512D01*
X105118Y67716D02*
Y68504D01*
X97638Y68110D02*
X98425D01*
X98032Y67716D02*
Y68504D01*
M02*
