G04*
G04 #@! TF.GenerationSoftware,Altium Limited,Altium Designer,22.1.2 (22)*
G04*
G04 Layer_Color=65535*
%FSLAX25Y25*%
%MOIN*%
G70*
G04*
G04 #@! TF.SameCoordinates,3D425B39-A101-4537-954C-310EEB490880*
G04*
G04*
G04 #@! TF.FilePolarity,Positive*
G04*
G01*
G75*
%ADD10C,0.00500*%
%ADD11C,0.00394*%
%ADD12C,0.00197*%
G36*
X37402Y34765D02*
Y30589D01*
X17717D01*
Y34765D01*
X37402D01*
D02*
G37*
G36*
X43307Y173228D02*
X27559D01*
Y177165D01*
X43307D01*
Y173228D01*
D02*
G37*
G36*
X117126Y16929D02*
X984D01*
Y24803D01*
X117126D01*
Y16929D01*
D02*
G37*
G36*
X100394Y30589D02*
X80709D01*
Y34765D01*
X100394D01*
Y30589D01*
D02*
G37*
G36*
X84646Y173228D02*
X68898D01*
Y177165D01*
X84646D01*
Y173228D01*
D02*
G37*
G36*
X68898Y30589D02*
X49213D01*
Y34765D01*
X68898D01*
Y30589D01*
D02*
G37*
G36*
X104546Y14061D02*
X102971D01*
X102974Y14058D01*
X102986Y14043D01*
X103003Y14026D01*
X103024Y13996D01*
X103050Y13964D01*
X103079Y13924D01*
X103111Y13877D01*
X103143Y13825D01*
Y13822D01*
X103146Y13819D01*
X103157Y13802D01*
X103172Y13772D01*
X103190Y13737D01*
X103210Y13697D01*
X103230Y13653D01*
X103251Y13609D01*
X103268Y13566D01*
X103029D01*
Y13569D01*
X103024Y13575D01*
X103021Y13586D01*
X103012Y13601D01*
X103003Y13618D01*
X102992Y13638D01*
X102963Y13688D01*
X102930Y13746D01*
X102890Y13804D01*
X102843Y13866D01*
X102794Y13927D01*
X102791Y13929D01*
X102788Y13932D01*
X102779Y13941D01*
X102770Y13953D01*
X102741Y13979D01*
X102706Y14014D01*
X102666Y14049D01*
X102619Y14087D01*
X102573Y14119D01*
X102523Y14148D01*
Y14308D01*
X104546D01*
Y14061D01*
D02*
G37*
G36*
X103911Y13144D02*
X103935Y13141D01*
X103961Y13138D01*
X103993Y13132D01*
X104025Y13126D01*
X104100Y13109D01*
X104179Y13080D01*
X104220Y13062D01*
X104258Y13039D01*
X104298Y13016D01*
X104336Y12987D01*
X104339Y12984D01*
X104348Y12978D01*
X104359Y12966D01*
X104374Y12952D01*
X104391Y12931D01*
X104415Y12908D01*
X104435Y12879D01*
X104458Y12847D01*
X104481Y12812D01*
X104502Y12771D01*
X104522Y12728D01*
X104543Y12681D01*
X104557Y12632D01*
X104569Y12576D01*
X104578Y12518D01*
X104580Y12457D01*
Y12431D01*
X104578Y12410D01*
X104575Y12387D01*
X104572Y12361D01*
X104569Y12329D01*
X104560Y12297D01*
X104543Y12224D01*
X104516Y12151D01*
X104499Y12114D01*
X104479Y12076D01*
X104455Y12041D01*
X104429Y12006D01*
X104426Y12003D01*
X104423Y11997D01*
X104412Y11992D01*
X104400Y11980D01*
X104385Y11965D01*
X104368Y11951D01*
X104345Y11933D01*
X104319Y11919D01*
X104292Y11901D01*
X104260Y11884D01*
X104191Y11852D01*
X104109Y11826D01*
X104065Y11817D01*
X104019Y11811D01*
X103998Y12070D01*
X104001D01*
X104007D01*
X104016Y12073D01*
X104031Y12076D01*
X104062Y12085D01*
X104106Y12096D01*
X104150Y12114D01*
X104199Y12137D01*
X104243Y12166D01*
X104284Y12201D01*
X104287Y12207D01*
X104298Y12218D01*
X104313Y12242D01*
X104330Y12274D01*
X104348Y12309D01*
X104362Y12352D01*
X104374Y12402D01*
X104377Y12457D01*
Y12474D01*
X104374Y12486D01*
X104371Y12521D01*
X104359Y12562D01*
X104345Y12611D01*
X104322Y12661D01*
X104287Y12713D01*
X104266Y12736D01*
X104243Y12760D01*
X104240Y12763D01*
X104237Y12765D01*
X104228Y12771D01*
X104220Y12780D01*
X104188Y12800D01*
X104147Y12824D01*
X104097Y12844D01*
X104036Y12864D01*
X103964Y12879D01*
X103926Y12885D01*
X103885D01*
X103882D01*
X103876D01*
X103865D01*
X103850Y12882D01*
X103833D01*
X103812Y12879D01*
X103766Y12870D01*
X103710Y12856D01*
X103655Y12835D01*
X103603Y12806D01*
X103553Y12765D01*
X103550D01*
X103547Y12760D01*
X103533Y12745D01*
X103513Y12719D01*
X103489Y12684D01*
X103469Y12638D01*
X103448Y12585D01*
X103434Y12524D01*
X103428Y12489D01*
Y12434D01*
X103431Y12410D01*
X103434Y12381D01*
X103443Y12347D01*
X103451Y12312D01*
X103466Y12274D01*
X103483Y12236D01*
X103486Y12233D01*
X103492Y12221D01*
X103507Y12204D01*
X103521Y12181D01*
X103542Y12157D01*
X103568Y12134D01*
X103594Y12108D01*
X103626Y12088D01*
X103594Y11855D01*
X102558Y12050D01*
Y13051D01*
X102794D01*
Y12245D01*
X103338Y12137D01*
X103335Y12140D01*
X103332Y12146D01*
X103326Y12154D01*
X103317Y12169D01*
X103309Y12186D01*
X103297Y12207D01*
X103274Y12253D01*
X103251Y12312D01*
X103230Y12376D01*
X103216Y12445D01*
X103210Y12480D01*
Y12544D01*
X103213Y12562D01*
X103216Y12585D01*
X103219Y12611D01*
X103224Y12640D01*
X103233Y12672D01*
X103253Y12742D01*
X103268Y12780D01*
X103288Y12818D01*
X103309Y12856D01*
X103332Y12893D01*
X103361Y12928D01*
X103393Y12963D01*
X103396Y12966D01*
X103402Y12972D01*
X103411Y12981D01*
X103425Y12992D01*
X103446Y13007D01*
X103466Y13022D01*
X103492Y13039D01*
X103521Y13057D01*
X103553Y13071D01*
X103588Y13089D01*
X103629Y13103D01*
X103670Y13118D01*
X103713Y13129D01*
X103763Y13138D01*
X103812Y13144D01*
X103865Y13147D01*
X103867D01*
X103876D01*
X103891D01*
X103911Y13144D01*
D02*
G37*
G36*
X49237Y14506D02*
X49242Y14500D01*
X49254Y14488D01*
X49271Y14477D01*
X49292Y14459D01*
X49315Y14436D01*
X49344Y14413D01*
X49379Y14386D01*
X49414Y14360D01*
X49455Y14328D01*
X49501Y14296D01*
X49548Y14264D01*
X49600Y14229D01*
X49656Y14194D01*
X49717Y14159D01*
X49778Y14124D01*
X49781Y14122D01*
X49792Y14116D01*
X49810Y14107D01*
X49836Y14093D01*
X49868Y14078D01*
X49903Y14061D01*
X49944Y14040D01*
X49990Y14020D01*
X50042Y13996D01*
X50095Y13970D01*
X50153Y13947D01*
X50214Y13924D01*
X50339Y13877D01*
X50473Y13834D01*
X50476D01*
X50485Y13831D01*
X50499Y13828D01*
X50517Y13822D01*
X50540Y13816D01*
X50569Y13810D01*
X50601Y13802D01*
X50636Y13796D01*
X50677Y13787D01*
X50721Y13778D01*
X50814Y13764D01*
X50915Y13749D01*
X51026Y13740D01*
Y13487D01*
X51023D01*
X51015D01*
X51003D01*
X50985Y13490D01*
X50962D01*
X50933Y13493D01*
X50901Y13496D01*
X50866Y13499D01*
X50825Y13505D01*
X50785Y13510D01*
X50735Y13519D01*
X50686Y13528D01*
X50633Y13537D01*
X50575Y13548D01*
X50456Y13577D01*
X50453D01*
X50441Y13580D01*
X50424Y13586D01*
X50397Y13595D01*
X50368Y13604D01*
X50333Y13615D01*
X50293Y13627D01*
X50249Y13644D01*
X50200Y13662D01*
X50150Y13679D01*
X50040Y13723D01*
X49923Y13775D01*
X49807Y13834D01*
X49804Y13836D01*
X49792Y13842D01*
X49778Y13851D01*
X49754Y13863D01*
X49728Y13877D01*
X49696Y13897D01*
X49661Y13918D01*
X49624Y13941D01*
X49539Y13996D01*
X49452Y14055D01*
X49362Y14122D01*
X49277Y14191D01*
Y13205D01*
X49039D01*
Y14509D01*
X49233D01*
X49237Y14506D01*
D02*
G37*
G36*
X51026Y12306D02*
X49452D01*
X49455Y12303D01*
X49466Y12288D01*
X49484Y12271D01*
X49504Y12242D01*
X49530Y12210D01*
X49560Y12169D01*
X49591Y12122D01*
X49624Y12070D01*
Y12067D01*
X49626Y12064D01*
X49638Y12047D01*
X49653Y12018D01*
X49670Y11983D01*
X49690Y11942D01*
X49711Y11898D01*
X49731Y11855D01*
X49749Y11811D01*
X49510D01*
Y11814D01*
X49504Y11820D01*
X49501Y11831D01*
X49492Y11846D01*
X49484Y11863D01*
X49472Y11884D01*
X49443Y11933D01*
X49411Y11991D01*
X49370Y12050D01*
X49324Y12111D01*
X49274Y12172D01*
X49271Y12175D01*
X49268Y12178D01*
X49260Y12186D01*
X49251Y12198D01*
X49222Y12224D01*
X49187Y12259D01*
X49146Y12294D01*
X49100Y12332D01*
X49053Y12364D01*
X49004Y12393D01*
Y12553D01*
X51026D01*
Y12306D01*
D02*
G37*
G36*
X34620Y14520D02*
X34643Y14517D01*
X34669Y14514D01*
X34701Y14509D01*
X34733Y14503D01*
X34809Y14485D01*
X34887Y14456D01*
X34928Y14439D01*
X34966Y14415D01*
X35007Y14392D01*
X35045Y14363D01*
X35047Y14360D01*
X35056Y14354D01*
X35068Y14343D01*
X35082Y14328D01*
X35100Y14308D01*
X35123Y14285D01*
X35144Y14255D01*
X35167Y14223D01*
X35190Y14188D01*
X35210Y14148D01*
X35231Y14104D01*
X35251Y14058D01*
X35266Y14008D01*
X35277Y13953D01*
X35286Y13895D01*
X35289Y13834D01*
Y13807D01*
X35286Y13787D01*
X35283Y13764D01*
X35280Y13737D01*
X35277Y13705D01*
X35269Y13673D01*
X35251Y13601D01*
X35225Y13528D01*
X35208Y13490D01*
X35187Y13452D01*
X35164Y13417D01*
X35138Y13382D01*
X35135Y13379D01*
X35132Y13374D01*
X35120Y13368D01*
X35109Y13356D01*
X35094Y13342D01*
X35076Y13327D01*
X35053Y13310D01*
X35027Y13295D01*
X35001Y13278D01*
X34969Y13260D01*
X34899Y13228D01*
X34818Y13202D01*
X34774Y13193D01*
X34727Y13187D01*
X34707Y13446D01*
X34710D01*
X34716D01*
X34724Y13449D01*
X34739Y13452D01*
X34771Y13461D01*
X34815Y13473D01*
X34858Y13490D01*
X34908Y13513D01*
X34951Y13543D01*
X34992Y13577D01*
X34995Y13583D01*
X35007Y13595D01*
X35021Y13618D01*
X35039Y13650D01*
X35056Y13685D01*
X35071Y13729D01*
X35082Y13778D01*
X35085Y13834D01*
Y13851D01*
X35082Y13863D01*
X35080Y13897D01*
X35068Y13938D01*
X35053Y13988D01*
X35030Y14037D01*
X34995Y14089D01*
X34975Y14113D01*
X34951Y14136D01*
X34949Y14139D01*
X34946Y14142D01*
X34937Y14148D01*
X34928Y14156D01*
X34896Y14177D01*
X34855Y14200D01*
X34806Y14220D01*
X34745Y14241D01*
X34672Y14255D01*
X34634Y14261D01*
X34593D01*
X34591D01*
X34585D01*
X34573D01*
X34559Y14258D01*
X34541D01*
X34521Y14255D01*
X34474Y14247D01*
X34419Y14232D01*
X34364Y14212D01*
X34311Y14183D01*
X34262Y14142D01*
X34259D01*
X34256Y14136D01*
X34241Y14122D01*
X34221Y14095D01*
X34198Y14061D01*
X34177Y14014D01*
X34157Y13961D01*
X34142Y13900D01*
X34137Y13866D01*
Y13810D01*
X34139Y13787D01*
X34142Y13758D01*
X34151Y13723D01*
X34160Y13688D01*
X34174Y13650D01*
X34192Y13612D01*
X34195Y13609D01*
X34201Y13598D01*
X34215Y13580D01*
X34230Y13557D01*
X34250Y13534D01*
X34276Y13510D01*
X34302Y13484D01*
X34334Y13464D01*
X34302Y13231D01*
X33266Y13426D01*
Y14427D01*
X33502D01*
Y13621D01*
X34046Y13513D01*
X34043Y13516D01*
X34041Y13522D01*
X34035Y13531D01*
X34026Y13545D01*
X34017Y13563D01*
X34006Y13583D01*
X33982Y13630D01*
X33959Y13688D01*
X33939Y13752D01*
X33924Y13822D01*
X33918Y13857D01*
Y13921D01*
X33921Y13938D01*
X33924Y13961D01*
X33927Y13988D01*
X33933Y14017D01*
X33942Y14049D01*
X33962Y14119D01*
X33977Y14156D01*
X33997Y14194D01*
X34017Y14232D01*
X34041Y14270D01*
X34070Y14305D01*
X34102Y14340D01*
X34105Y14343D01*
X34110Y14348D01*
X34119Y14357D01*
X34134Y14369D01*
X34154Y14383D01*
X34174Y14398D01*
X34201Y14415D01*
X34230Y14433D01*
X34262Y14447D01*
X34297Y14465D01*
X34337Y14480D01*
X34378Y14494D01*
X34422Y14506D01*
X34471Y14514D01*
X34521Y14520D01*
X34573Y14523D01*
X34576D01*
X34585D01*
X34599D01*
X34620Y14520D01*
D02*
G37*
G36*
X35254Y12306D02*
X33680D01*
X33683Y12303D01*
X33694Y12288D01*
X33712Y12271D01*
X33732Y12242D01*
X33758Y12210D01*
X33787Y12169D01*
X33819Y12122D01*
X33851Y12070D01*
Y12067D01*
X33854Y12064D01*
X33866Y12047D01*
X33880Y12018D01*
X33898Y11983D01*
X33918Y11942D01*
X33939Y11898D01*
X33959Y11855D01*
X33977Y11811D01*
X33738D01*
Y11814D01*
X33732Y11820D01*
X33729Y11831D01*
X33720Y11846D01*
X33712Y11863D01*
X33700Y11884D01*
X33671Y11933D01*
X33639Y11991D01*
X33598Y12050D01*
X33552Y12111D01*
X33502Y12172D01*
X33499Y12175D01*
X33496Y12178D01*
X33488Y12186D01*
X33479Y12198D01*
X33450Y12224D01*
X33415Y12259D01*
X33374Y12294D01*
X33328Y12332D01*
X33281Y12364D01*
X33232Y12393D01*
Y12553D01*
X35254D01*
Y12306D01*
D02*
G37*
G36*
X13231D02*
X11656D01*
X11659Y12303D01*
X11671Y12288D01*
X11688Y12271D01*
X11709Y12242D01*
X11735Y12210D01*
X11764Y12169D01*
X11796Y12122D01*
X11828Y12070D01*
Y12067D01*
X11831Y12064D01*
X11843Y12047D01*
X11857Y12018D01*
X11875Y11983D01*
X11895Y11942D01*
X11915Y11898D01*
X11936Y11855D01*
X11953Y11811D01*
X11715D01*
Y11814D01*
X11709Y11820D01*
X11706Y11831D01*
X11697Y11846D01*
X11688Y11863D01*
X11677Y11884D01*
X11648Y11933D01*
X11616Y11991D01*
X11575Y12050D01*
X11529Y12111D01*
X11479Y12172D01*
X11476Y12175D01*
X11473Y12178D01*
X11464Y12186D01*
X11456Y12198D01*
X11427Y12224D01*
X11392Y12259D01*
X11351Y12294D01*
X11304Y12332D01*
X11258Y12364D01*
X11208Y12393D01*
Y12553D01*
X13231D01*
Y12306D01*
D02*
G37*
%LPC*%
G36*
X28342Y33700D02*
X28047D01*
D01*
X28342D01*
D02*
G37*
G36*
X23827D02*
Y33080D01*
X23821Y33165D01*
X23810Y33243D01*
X23789Y33307D01*
X23769Y33365D01*
X23757Y33389D01*
X23745Y33409D01*
X23737Y33426D01*
X23725Y33444D01*
X23719Y33456D01*
X23713Y33464D01*
X23708Y33467D01*
Y33470D01*
X23661Y33522D01*
X23615Y33566D01*
X23565Y33601D01*
X23521Y33627D01*
X23481Y33645D01*
X23449Y33659D01*
X23437Y33662D01*
X23428Y33665D01*
X23423Y33668D01*
X23420D01*
X23396Y33674D01*
X23367Y33680D01*
X23332Y33683D01*
X23297Y33685D01*
X23216Y33691D01*
X23134Y33697D01*
X23059D01*
X23027Y33700D01*
X23076D01*
X22285D01*
Y31686D01*
X22692D01*
Y32446D01*
X23053D01*
X23097Y32449D01*
X23137D01*
X23175Y32452D01*
X23210Y32455D01*
X23242Y32458D01*
X23268Y32460D01*
X23294D01*
X23315Y32463D01*
X23335Y32466D01*
X23350Y32469D01*
X23361D01*
X23370Y32472D01*
X23376D01*
X23417Y32484D01*
X23455Y32498D01*
X23489Y32513D01*
X23521Y32530D01*
X23548Y32545D01*
X23568Y32556D01*
X23580Y32565D01*
X23585Y32568D01*
X23623Y32597D01*
X23655Y32629D01*
X23687Y32664D01*
X23711Y32693D01*
X23731Y32722D01*
X23745Y32746D01*
X23754Y32760D01*
X23757Y32766D01*
X23780Y32815D01*
X23798Y32868D01*
X23810Y32923D01*
X23818Y32972D01*
X23824Y33013D01*
Y33034D01*
X23827Y33048D01*
Y33700D01*
D02*
G37*
G36*
X27040Y33179D02*
X26330D01*
X27016D01*
X26981Y33176D01*
X26952Y33173D01*
X26923Y33165D01*
X26900Y33156D01*
X26880Y33147D01*
X26862Y33141D01*
X26853Y33136D01*
X26851Y33133D01*
X26821Y33112D01*
X26795Y33083D01*
X26766Y33051D01*
X26743Y33019D01*
X26719Y32987D01*
X26702Y32961D01*
X26690Y32943D01*
X26687Y32941D01*
Y33147D01*
X26330D01*
Y31686D01*
X27272D01*
X26717D01*
Y32135D01*
Y32201D01*
Y32263D01*
X26719Y32318D01*
X26722Y32367D01*
Y32414D01*
X26725Y32452D01*
X26728Y32489D01*
X26731Y32519D01*
X26734Y32545D01*
X26737Y32568D01*
X26740Y32585D01*
Y32600D01*
X26743Y32609D01*
X26746Y32618D01*
Y32623D01*
X26757Y32664D01*
X26772Y32699D01*
X26787Y32728D01*
X26801Y32748D01*
X26813Y32766D01*
X26824Y32778D01*
X26830Y32783D01*
X26833Y32786D01*
X26856Y32801D01*
X26880Y32812D01*
X26903Y32821D01*
X26923Y32827D01*
X26941Y32830D01*
X26958Y32833D01*
X26970D01*
X27002Y32830D01*
X27034Y32824D01*
X27063Y32812D01*
X27092Y32801D01*
X27115Y32789D01*
X27133Y32778D01*
X27147Y32772D01*
X27150Y32769D01*
X27272Y33103D01*
X27226Y33130D01*
X27182Y33147D01*
X27139Y33162D01*
X27098Y33170D01*
X27066Y33176D01*
X27040Y33179D01*
D02*
G37*
G36*
X32359D02*
X32339D01*
X32286Y33176D01*
X32234Y33167D01*
X32187Y33156D01*
X32141Y33141D01*
X32097Y33121D01*
X32059Y33101D01*
X32022Y33077D01*
X31989Y33057D01*
X31960Y33034D01*
X31934Y33010D01*
X31911Y32990D01*
X31894Y32970D01*
X31879Y32955D01*
X31867Y32943D01*
X31861Y32935D01*
X31859Y32932D01*
Y33147D01*
X31501D01*
Y31686D01*
X32833D01*
Y32652D01*
X32831Y32702D01*
X32828Y32748D01*
X32822Y32783D01*
X32819Y32812D01*
X32813Y32833D01*
X32810Y32847D01*
Y32850D01*
X32801Y32885D01*
X32790Y32914D01*
X32778Y32943D01*
X32764Y32967D01*
X32752Y32987D01*
X32743Y33002D01*
X32737Y33010D01*
X32735Y33013D01*
X32711Y33040D01*
X32685Y33063D01*
X32659Y33083D01*
X32633Y33101D01*
X32609Y33115D01*
X32589Y33124D01*
X32577Y33130D01*
X32572Y33133D01*
X32531Y33147D01*
X32490Y33159D01*
X32452Y33167D01*
X32417Y33173D01*
X32385Y33176D01*
X32359Y33179D01*
D02*
G37*
G36*
X30479D02*
X30447D01*
X30369Y33176D01*
X30296Y33165D01*
X30229Y33150D01*
X30171Y33133D01*
X30147Y33121D01*
X30124Y33112D01*
X30104Y33106D01*
X30089Y33098D01*
X30075Y33092D01*
X30066Y33086D01*
X30060Y33083D01*
X30057D01*
X29996Y33042D01*
X29944Y32999D01*
X29897Y32952D01*
X29859Y32908D01*
X29830Y32868D01*
X29807Y32836D01*
X29798Y32824D01*
X29795Y32815D01*
X29790Y32810D01*
Y32807D01*
X29758Y32740D01*
X29737Y32673D01*
X29720Y32612D01*
X29708Y32556D01*
X29702Y32507D01*
X29699Y32487D01*
Y32469D01*
X29697Y32458D01*
Y32460D01*
Y32437D01*
X29699Y32347D01*
X29711Y32263D01*
X29726Y32190D01*
X29734Y32158D01*
X29743Y32129D01*
X29752Y32102D01*
X29761Y32079D01*
X29769Y32059D01*
X29775Y32041D01*
X29781Y32027D01*
X29787Y32018D01*
X29790Y32012D01*
Y32009D01*
X29830Y31948D01*
X29874Y31896D01*
X29921Y31849D01*
X29964Y31811D01*
X30005Y31782D01*
X30037Y31762D01*
X30049Y31753D01*
X30057Y31747D01*
X30063Y31745D01*
X30066D01*
X30136Y31715D01*
X30203Y31692D01*
X30267Y31678D01*
X30328Y31666D01*
X30377Y31660D01*
X30398Y31657D01*
X30415D01*
X30430Y31654D01*
X29697D01*
D01*
X31204D01*
D01*
X30450D01*
X30511Y31657D01*
X30567Y31663D01*
X30622Y31675D01*
X30671Y31689D01*
X30721Y31704D01*
X30764Y31721D01*
X30805Y31742D01*
X30843Y31762D01*
X30875Y31782D01*
X30904Y31803D01*
X30930Y31820D01*
X30951Y31835D01*
X30968Y31849D01*
X30980Y31861D01*
X30986Y31867D01*
X30988Y31870D01*
X31026Y31913D01*
X31058Y31957D01*
X31087Y32001D01*
X31114Y32047D01*
X31134Y32094D01*
X31152Y32140D01*
X31166Y32184D01*
X31178Y32228D01*
X31186Y32265D01*
X31192Y32303D01*
X31198Y32335D01*
X31201Y32364D01*
X31204Y32388D01*
Y32420D01*
X31201Y32481D01*
X31195Y32539D01*
X31183Y32591D01*
X31172Y32644D01*
X31154Y32690D01*
X31137Y32737D01*
X31117Y32778D01*
X31099Y32815D01*
X31079Y32847D01*
X31058Y32879D01*
X31041Y32903D01*
X31023Y32926D01*
X31012Y32941D01*
X31000Y32955D01*
X30994Y32961D01*
X30991Y32964D01*
X30951Y33002D01*
X30907Y33034D01*
X30863Y33063D01*
X30817Y33089D01*
X30770Y33109D01*
X30727Y33127D01*
X30683Y33141D01*
X30639Y33153D01*
X30602Y33162D01*
X30564Y33167D01*
X30532Y33173D01*
X30503Y33176D01*
X30479Y33179D01*
D02*
G37*
G36*
X29376Y33700D02*
X28765D01*
X28407Y32324D01*
X28047Y33700D01*
X27438D01*
Y31686D01*
X29376D01*
Y33700D01*
D02*
G37*
G36*
X26140Y33147D02*
X24866D01*
X24613Y32190D01*
X24339Y33147D01*
X23967D01*
X24426Y31686D01*
X23967D01*
X25090D01*
X24802D01*
X25049Y32623D01*
X25299Y31686D01*
X26140D01*
X25672D01*
X26140Y33147D01*
D02*
G37*
G36*
X23827Y31686D02*
X22772D01*
X23827D01*
D01*
D02*
G37*
%LPD*%
G36*
X23024Y33357D02*
X23050D01*
X23076Y33354D01*
X23114D01*
X23143Y33351D01*
X23164Y33348D01*
X23175Y33345D01*
X23178D01*
X23213Y33336D01*
X23245Y33325D01*
X23274Y33310D01*
X23297Y33293D01*
X23315Y33278D01*
X23329Y33266D01*
X23338Y33258D01*
X23341Y33255D01*
X23364Y33226D01*
X23379Y33197D01*
X23391Y33165D01*
X23399Y33136D01*
X23405Y33109D01*
X23408Y33089D01*
Y33077D01*
Y33072D01*
X23405Y33040D01*
X23402Y33010D01*
X23393Y32984D01*
X23385Y32961D01*
X23376Y32941D01*
X23370Y32926D01*
X23364Y32917D01*
X23361Y32914D01*
X23344Y32891D01*
X23321Y32871D01*
X23300Y32853D01*
X23280Y32839D01*
X23262Y32830D01*
X23248Y32821D01*
X23236Y32818D01*
X23233Y32815D01*
X23216Y32810D01*
X23196Y32807D01*
X23149Y32798D01*
X23097Y32792D01*
X23044Y32789D01*
X22992D01*
X22971Y32786D01*
X22692D01*
Y33360D01*
X22995D01*
X23024Y33357D01*
D02*
G37*
G36*
X32234Y32879D02*
X32260Y32877D01*
X32280Y32871D01*
X32301Y32862D01*
X32318Y32853D01*
X32330Y32847D01*
X32336Y32844D01*
X32339Y32842D01*
X32359Y32827D01*
X32374Y32810D01*
X32400Y32775D01*
X32409Y32757D01*
X32414Y32746D01*
X32420Y32737D01*
Y32734D01*
X32426Y32719D01*
X32429Y32702D01*
X32435Y32658D01*
X32441Y32606D01*
X32443Y32556D01*
X32446Y32507D01*
Y32487D01*
Y32466D01*
Y32452D01*
Y32440D01*
Y32431D01*
Y32428D01*
Y31686D01*
X31888D01*
Y32344D01*
Y32388D01*
Y32428D01*
X31891Y32466D01*
X31894Y32498D01*
Y32530D01*
X31896Y32556D01*
X31899Y32583D01*
X31902Y32603D01*
X31908Y32638D01*
X31911Y32661D01*
X31917Y32676D01*
Y32679D01*
X31928Y32711D01*
X31946Y32743D01*
X31963Y32766D01*
X31981Y32789D01*
X31998Y32804D01*
X32013Y32818D01*
X32022Y32824D01*
X32024Y32827D01*
X32056Y32844D01*
X32089Y32859D01*
X32118Y32868D01*
X32147Y32877D01*
X32170Y32879D01*
X32187Y32882D01*
X32205D01*
X32234Y32879D01*
D02*
G37*
G36*
X30505Y32859D02*
X30555Y32847D01*
X30596Y32827D01*
X30634Y32807D01*
X30663Y32786D01*
X30686Y32766D01*
X30698Y32754D01*
X30703Y32748D01*
X30738Y32702D01*
X30764Y32647D01*
X30782Y32591D01*
X30796Y32539D01*
X30802Y32492D01*
X30805Y32469D01*
Y32452D01*
X30808Y32437D01*
Y32425D01*
Y32420D01*
Y32417D01*
X30802Y32341D01*
X30791Y32271D01*
X30776Y32216D01*
X30756Y32166D01*
X30735Y32131D01*
X30721Y32102D01*
X30709Y32088D01*
X30703Y32082D01*
X30663Y32044D01*
X30622Y32015D01*
X30578Y31998D01*
X30538Y31983D01*
X30503Y31974D01*
X30476Y31971D01*
X30465Y31969D01*
X30450D01*
X30395Y31974D01*
X30345Y31986D01*
X30302Y32004D01*
X30267Y32027D01*
X30235Y32047D01*
X30211Y32065D01*
X30200Y32076D01*
X30194Y32082D01*
X30159Y32129D01*
X30136Y32184D01*
X30118Y32239D01*
X30104Y32294D01*
X30098Y32341D01*
X30095Y32361D01*
Y32382D01*
X30092Y32396D01*
Y32408D01*
Y32414D01*
Y32417D01*
X30098Y32492D01*
X30110Y32559D01*
X30124Y32618D01*
X30145Y32664D01*
X30162Y32699D01*
X30180Y32728D01*
X30191Y32743D01*
X30194Y32748D01*
X30235Y32786D01*
X30279Y32815D01*
X30322Y32836D01*
X30363Y32850D01*
X30398Y32859D01*
X30424Y32862D01*
X30436Y32865D01*
X30450D01*
X30505Y32859D01*
D02*
G37*
G36*
X29001Y31686D02*
X28602D01*
X28998Y33269D01*
X29001Y31686D01*
D02*
G37*
G36*
X28209D02*
X27814D01*
Y33269D01*
X28209Y31686D01*
D02*
G37*
G36*
X25480Y32190D02*
X25238Y33147D01*
X25759D01*
X25480Y32190D01*
D02*
G37*
%LPC*%
G36*
X31182Y175628D02*
Y175625D01*
D01*
Y175628D01*
D02*
G37*
G36*
Y175625D02*
Y175598D01*
D01*
Y175625D01*
D02*
G37*
G36*
X33341Y176242D02*
D01*
Y175270D01*
X32465D01*
Y174929D01*
X32930D01*
Y174670D01*
X32895Y174644D01*
X32858Y174621D01*
X32820Y174600D01*
X32785Y174583D01*
X32756Y174568D01*
X32730Y174557D01*
X32715Y174551D01*
X32712Y174548D01*
X32709D01*
X32663Y174530D01*
X32616Y174519D01*
X32572Y174510D01*
X32535Y174504D01*
X32500Y174501D01*
X32476Y174498D01*
X32453D01*
X32407Y174501D01*
X32360Y174507D01*
X32319Y174516D01*
X32279Y174528D01*
X32206Y174557D01*
X32177Y174571D01*
X32148Y174589D01*
X32122Y174606D01*
X32098Y174621D01*
X32081Y174638D01*
X32063Y174650D01*
X32052Y174661D01*
X32043Y174670D01*
X32037Y174676D01*
X32034Y174679D01*
X32008Y174714D01*
X31982Y174755D01*
X31961Y174795D01*
X31944Y174839D01*
X31915Y174929D01*
X31897Y175016D01*
X31892Y175057D01*
X31886Y175098D01*
X31883Y175130D01*
X31880Y175162D01*
X31877Y175185D01*
Y175206D01*
Y175217D01*
Y175220D01*
X31880Y175281D01*
X31883Y175337D01*
X31892Y175392D01*
X31900Y175441D01*
X31912Y175485D01*
X31927Y175526D01*
X31941Y175564D01*
X31956Y175598D01*
X31967Y175628D01*
X31982Y175654D01*
X31996Y175674D01*
X32008Y175692D01*
X32017Y175706D01*
X32026Y175715D01*
X32028Y175721D01*
X32031Y175724D01*
X32063Y175753D01*
X32095Y175782D01*
X32130Y175802D01*
X32165Y175822D01*
X32200Y175840D01*
X32235Y175855D01*
X32302Y175875D01*
X32334Y175881D01*
X32363Y175886D01*
X32389Y175889D01*
X32412Y175892D01*
X32430Y175895D01*
X32456D01*
X32520Y175892D01*
X32576Y175881D01*
X32625Y175869D01*
X32669Y175852D01*
X32701Y175837D01*
X32727Y175822D01*
X32741Y175811D01*
X32747Y175808D01*
X32788Y175773D01*
X32823Y175735D01*
X32852Y175697D01*
X32872Y175660D01*
X32890Y175625D01*
X32901Y175598D01*
X32907Y175581D01*
X32910Y175578D01*
Y175575D01*
X33315Y175651D01*
X33303Y175700D01*
X33285Y175750D01*
X33268Y175793D01*
X33245Y175834D01*
X33224Y175875D01*
X33201Y175910D01*
X33178Y175942D01*
X33154Y175971D01*
X33131Y175997D01*
X33111Y176020D01*
X33093Y176041D01*
X33076Y176055D01*
X33061Y176067D01*
X33050Y176079D01*
X33044Y176082D01*
X33041Y176084D01*
X33000Y176113D01*
X32957Y176137D01*
X32910Y176157D01*
X32861Y176175D01*
X32765Y176204D01*
X32671Y176221D01*
X32628Y176230D01*
X32587Y176233D01*
X32549Y176236D01*
X32517Y176239D01*
X32491Y176242D01*
X32456D01*
X32351Y176239D01*
X32258Y176227D01*
X32217Y176218D01*
X32177Y176209D01*
X32139Y176201D01*
X32107Y176192D01*
X32078Y176180D01*
X32049Y176172D01*
X32028Y176163D01*
X32008Y176157D01*
X31993Y176148D01*
X31982Y176146D01*
X31976Y176140D01*
X31973D01*
X31883Y176087D01*
X31845Y176055D01*
X31807Y176026D01*
X31772Y175994D01*
X31740Y175962D01*
X31711Y175930D01*
X31685Y175901D01*
X31665Y175872D01*
X31644Y175846D01*
X31627Y175822D01*
X31612Y175802D01*
X31604Y175785D01*
X31595Y175773D01*
X31592Y175764D01*
X31589Y175761D01*
X31566Y175715D01*
X31545Y175668D01*
X31513Y175572D01*
X31490Y175476D01*
X31475Y175392D01*
X31470Y175351D01*
X31464Y175316D01*
X31461Y175284D01*
Y175255D01*
X31458Y175235D01*
Y175203D01*
X31464Y175095D01*
X31475Y174996D01*
X31496Y174906D01*
X31505Y174862D01*
X31516Y174824D01*
X31528Y174790D01*
X31537Y174757D01*
X31548Y174731D01*
X31557Y174708D01*
X31563Y174690D01*
X31569Y174676D01*
X31574Y174667D01*
Y174664D01*
X31624Y174577D01*
X31679Y174501D01*
X31737Y174434D01*
X31796Y174382D01*
X31822Y174359D01*
X31848Y174338D01*
X31868Y174321D01*
X31889Y174309D01*
X31903Y174298D01*
X31918Y174289D01*
X31924Y174286D01*
X31927Y174283D01*
X31973Y174260D01*
X32017Y174240D01*
X32113Y174207D01*
X32206Y174184D01*
X32290Y174170D01*
X32331Y174164D01*
X32366Y174158D01*
X32398Y174155D01*
X32427D01*
X32447Y174152D01*
X31458D01*
D01*
X33341D01*
Y176242D01*
D02*
G37*
G36*
X31182Y175572D02*
Y175540D01*
D01*
Y175572D01*
D02*
G37*
G36*
Y175465D02*
Y175433D01*
D01*
Y175465D01*
D02*
G37*
G36*
Y175418D02*
Y175395D01*
D01*
Y175418D01*
D02*
G37*
G36*
Y175392D02*
D01*
D01*
D01*
D02*
G37*
G36*
Y175351D02*
Y175345D01*
D01*
Y175351D01*
D02*
G37*
G36*
Y175316D02*
Y175302D01*
D01*
Y175316D01*
D02*
G37*
G36*
Y175284D02*
Y175281D01*
D01*
Y175284D01*
D02*
G37*
G36*
Y175270D02*
Y175255D01*
D01*
Y175270D01*
D02*
G37*
G36*
Y175246D02*
Y175232D01*
D01*
Y175246D01*
D02*
G37*
G36*
Y175203D02*
Y175191D01*
D01*
Y175203D01*
D02*
G37*
G36*
Y175185D02*
Y175162D01*
D01*
Y175185D01*
D02*
G37*
G36*
Y175098D02*
Y175080D01*
D01*
Y175098D01*
D02*
G37*
G36*
Y175069D02*
Y175060D01*
D01*
Y175069D01*
D02*
G37*
G36*
Y175034D02*
Y175016D01*
D01*
Y175034D01*
D02*
G37*
G36*
Y175002D02*
Y174987D01*
D01*
Y175002D01*
D02*
G37*
G36*
Y174938D02*
Y174929D01*
D01*
Y174938D01*
D02*
G37*
G36*
Y174900D02*
Y174871D01*
D01*
Y174900D01*
D02*
G37*
G36*
Y174862D02*
Y174856D01*
D01*
Y174862D01*
D02*
G37*
G36*
Y174839D02*
Y174824D01*
D01*
Y174839D01*
D02*
G37*
G36*
Y174757D02*
Y174737D01*
D01*
Y174757D01*
D02*
G37*
G36*
Y174731D02*
Y174714D01*
D01*
Y174731D01*
D02*
G37*
G36*
Y174711D02*
Y174708D01*
D01*
Y174711D01*
D02*
G37*
G36*
Y174702D02*
Y174690D01*
D01*
Y174702D01*
D02*
G37*
G36*
Y174676D02*
D01*
D01*
D01*
D02*
G37*
G36*
Y174673D02*
Y174670D01*
D01*
Y174673D01*
D02*
G37*
G36*
Y174670D02*
Y174664D01*
D01*
Y174670D01*
D02*
G37*
G36*
Y174661D02*
Y174653D01*
D01*
Y174661D01*
D02*
G37*
G36*
Y174650D02*
Y174644D01*
D01*
Y174650D01*
D02*
G37*
G36*
Y174632D02*
Y174627D01*
D01*
Y174632D01*
D02*
G37*
G36*
Y174574D02*
Y174548D01*
D01*
Y174574D01*
D02*
G37*
G36*
X41038Y176204D02*
Y174530D01*
X39915D01*
Y175077D01*
X40924D01*
Y175418D01*
X39915D01*
Y175863D01*
X41000D01*
Y176204D01*
X39507D01*
Y174190D01*
X41038D01*
Y176204D01*
D02*
G37*
G36*
X37496Y176189D02*
Y174530D01*
X36484D01*
Y176189D01*
X36076D01*
Y174190D01*
X37496D01*
Y176189D01*
D02*
G37*
G36*
X39242Y176204D02*
X37645D01*
Y175863D01*
X38241D01*
Y174190D01*
X37645D01*
X39242D01*
Y176204D01*
D02*
G37*
G36*
X30571Y176215D02*
X30541D01*
X30492Y176212D01*
X30445Y176209D01*
X30355Y176195D01*
X30279Y176172D01*
X30244Y176160D01*
X30213Y176146D01*
X30183Y176134D01*
X30160Y176119D01*
X30137Y176108D01*
X30119Y176099D01*
X30105Y176087D01*
X30096Y176082D01*
X30090Y176079D01*
X30087Y176076D01*
X30055Y176047D01*
X30026Y176017D01*
X30000Y175982D01*
X29977Y175945D01*
X29942Y175869D01*
X29913Y175796D01*
X29904Y175759D01*
X29895Y175726D01*
X29887Y175697D01*
X29884Y175671D01*
X29878Y175648D01*
Y175633D01*
X29875Y175622D01*
Y175619D01*
X30259Y175581D01*
X30265Y175639D01*
X30277Y175689D01*
X30288Y175732D01*
X30303Y175764D01*
X30314Y175791D01*
X30326Y175808D01*
X30335Y175820D01*
X30338Y175822D01*
X30367Y175846D01*
X30399Y175863D01*
X30431Y175878D01*
X30463Y175886D01*
X30489Y175892D01*
X30512Y175895D01*
X30533D01*
X30576Y175892D01*
X30614Y175884D01*
X30646Y175872D01*
X30675Y175860D01*
X30696Y175849D01*
X30713Y175837D01*
X30722Y175828D01*
X30725Y175825D01*
X30748Y175796D01*
X30765Y175764D01*
X30777Y175732D01*
X30786Y175700D01*
X30792Y175671D01*
X30795Y175645D01*
Y175630D01*
Y175628D01*
Y175625D01*
X30792Y175581D01*
X30783Y175540D01*
X30768Y175499D01*
X30754Y175465D01*
X30739Y175433D01*
X30725Y175409D01*
X30716Y175395D01*
X30713Y175389D01*
X30701Y175372D01*
X30684Y175351D01*
X30661Y175325D01*
X30637Y175302D01*
X30585Y175246D01*
X30533Y175191D01*
X30480Y175139D01*
X30457Y175115D01*
X30434Y175098D01*
X30416Y175080D01*
X30405Y175069D01*
X30396Y175060D01*
X30393Y175057D01*
X30335Y175002D01*
X30282Y174950D01*
X30233Y174900D01*
X30189Y174856D01*
X30149Y174813D01*
X30114Y174772D01*
X30082Y174737D01*
X30055Y174702D01*
X30032Y174673D01*
X30012Y174647D01*
X29994Y174627D01*
X29983Y174606D01*
X29971Y174594D01*
X29965Y174583D01*
X29959Y174577D01*
Y174574D01*
X29921Y174507D01*
X29892Y174437D01*
X29869Y174373D01*
X29852Y174315D01*
X29840Y174263D01*
X29837Y174242D01*
X29834Y174225D01*
X29831Y174210D01*
X29828Y174199D01*
Y174190D01*
X31182D01*
Y174548D01*
X30413D01*
X30437Y174586D01*
X30463Y174618D01*
X30474Y174632D01*
X30483Y174644D01*
X30489Y174650D01*
X30492Y174653D01*
X30503Y174664D01*
X30515Y174679D01*
X30550Y174711D01*
X30588Y174749D01*
X30626Y174786D01*
X30664Y174821D01*
X30696Y174851D01*
X30707Y174862D01*
X30716Y174871D01*
X30722Y174874D01*
X30725Y174877D01*
X30789Y174938D01*
X30841Y174987D01*
X30885Y175034D01*
X30920Y175069D01*
X30946Y175098D01*
X30963Y175118D01*
X30975Y175133D01*
X30978Y175136D01*
X31016Y175185D01*
X31048Y175232D01*
X31074Y175275D01*
X31094Y175313D01*
X31112Y175345D01*
X31123Y175372D01*
X31129Y175386D01*
X31132Y175392D01*
X31150Y175438D01*
X31161Y175485D01*
X31170Y175529D01*
X31176Y175569D01*
X31179Y175601D01*
X31182Y175628D01*
Y175651D01*
X31179Y175695D01*
X31173Y175738D01*
X31167Y175779D01*
X31155Y175817D01*
X31126Y175884D01*
X31097Y175942D01*
X31080Y175968D01*
X31065Y175988D01*
X31051Y176009D01*
X31036Y176023D01*
X31024Y176035D01*
X31019Y176047D01*
X31013Y176049D01*
X31010Y176052D01*
X30978Y176082D01*
X30940Y176108D01*
X30905Y176128D01*
X30864Y176146D01*
X30789Y176175D01*
X30713Y176195D01*
X30678Y176201D01*
X30646Y176207D01*
X30617Y176209D01*
X30591Y176212D01*
X30571Y176215D01*
D02*
G37*
G36*
X35081Y176239D02*
D01*
Y174155D01*
X34578D01*
X35081Y176239D01*
X34790D01*
X34292Y174155D01*
D01*
X35081D01*
Y176239D01*
D02*
G37*
%LPD*%
G36*
X33341Y174152D02*
X32479D01*
X32572Y174155D01*
X32660Y174167D01*
X32744Y174181D01*
X32817Y174199D01*
X32849Y174207D01*
X32878Y174216D01*
X32904Y174225D01*
X32928Y174231D01*
X32945Y174237D01*
X32957Y174242D01*
X32965Y174245D01*
X32968D01*
X33056Y174280D01*
X33128Y174318D01*
X33192Y174356D01*
X33248Y174388D01*
X33288Y174417D01*
X33303Y174429D01*
X33318Y174440D01*
X33326Y174449D01*
X33335Y174455D01*
X33341Y174461D01*
Y174152D01*
D02*
G37*
G36*
X39242Y174190D02*
X38649D01*
Y175863D01*
X39242D01*
Y174190D01*
D02*
G37*
%LPC*%
G36*
X69325Y22504D02*
X69282D01*
X69176Y22500D01*
X69081Y22490D01*
X68998Y22475D01*
X68925Y22460D01*
X68892Y22449D01*
X68863Y22442D01*
X68841Y22435D01*
X68819Y22428D01*
X68805Y22420D01*
X68794Y22417D01*
X68787Y22413D01*
X68783D01*
X68710Y22377D01*
X68648Y22337D01*
X68594Y22293D01*
X68550Y22253D01*
X68514Y22217D01*
X68492Y22187D01*
X68474Y22165D01*
X68470Y22162D01*
Y22158D01*
X68433Y22096D01*
X68408Y22031D01*
X68390Y21969D01*
X68379Y21914D01*
X68372Y21867D01*
X68364Y21831D01*
Y21816D01*
Y21805D01*
Y21802D01*
Y21798D01*
X68368Y21743D01*
X68375Y21689D01*
X68386Y21641D01*
X68401Y21594D01*
X68437Y21507D01*
X68481Y21430D01*
X68499Y21397D01*
X68521Y21372D01*
X68539Y21347D01*
X68557Y21325D01*
X68572Y21310D01*
X68583Y21299D01*
X68590Y21292D01*
X68594Y21288D01*
X68626Y21263D01*
X68666Y21237D01*
X68707Y21212D01*
X68754Y21190D01*
X68845Y21146D01*
X68940Y21110D01*
X68987Y21095D01*
X69027Y21081D01*
X69067Y21070D01*
X69100Y21059D01*
X69125Y21052D01*
X69147Y21044D01*
X69161Y21041D01*
X69165D01*
X69223Y21026D01*
X69274Y21012D01*
X69322Y21001D01*
X69365Y20990D01*
X69402Y20979D01*
X69434Y20972D01*
X69464Y20961D01*
X69489Y20953D01*
X69511Y20950D01*
X69529Y20943D01*
X69555Y20935D01*
X69569Y20928D01*
X69573D01*
X69620Y20910D01*
X69657Y20892D01*
X69689Y20873D01*
X69715Y20855D01*
X69733Y20841D01*
X69744Y20830D01*
X69751Y20822D01*
X69755Y20819D01*
X69773Y20793D01*
X69788Y20768D01*
X69795Y20742D01*
X69802Y20720D01*
X69806Y20699D01*
X69809Y20680D01*
Y20670D01*
Y20666D01*
X69806Y20615D01*
X69791Y20571D01*
X69769Y20527D01*
X69748Y20491D01*
X69722Y20462D01*
X69704Y20440D01*
X69689Y20426D01*
X69682Y20422D01*
X69631Y20389D01*
X69573Y20364D01*
X69511Y20346D01*
X69453Y20335D01*
X69398Y20327D01*
X69354Y20320D01*
X69314D01*
X69231Y20324D01*
X69158Y20338D01*
X69096Y20357D01*
X69041Y20378D01*
X68998Y20400D01*
X68969Y20418D01*
X68950Y20433D01*
X68943Y20437D01*
X68896Y20488D01*
X68859Y20542D01*
X68827Y20604D01*
X68805Y20666D01*
X68787Y20720D01*
X68772Y20764D01*
X68768Y20779D01*
Y20793D01*
X68765Y20801D01*
Y20804D01*
X68270Y20757D01*
X68281Y20680D01*
X68295Y20608D01*
X68317Y20538D01*
X68335Y20477D01*
X68361Y20418D01*
X68386Y20364D01*
X68412Y20316D01*
X68437Y20273D01*
X68463Y20236D01*
X68488Y20204D01*
X68510Y20175D01*
X68532Y20149D01*
X68546Y20131D01*
X68561Y20120D01*
X68568Y20113D01*
X68572Y20109D01*
X68623Y20069D01*
X68677Y20036D01*
X68736Y20007D01*
X68797Y19982D01*
X68856Y19963D01*
X68918Y19945D01*
X69038Y19920D01*
X69092Y19909D01*
X69143Y19902D01*
X69187Y19898D01*
X69227Y19894D01*
X69260Y19891D01*
X69307D01*
X69424Y19894D01*
X69529Y19905D01*
X69624Y19920D01*
X69664Y19927D01*
X69704Y19938D01*
X69737Y19945D01*
X69766Y19952D01*
X69791Y19960D01*
X69813Y19967D01*
X69831Y19974D01*
X69842Y19978D01*
X69849Y19982D01*
X69853D01*
X69933Y20022D01*
X69999Y20065D01*
X70061Y20109D01*
X70108Y20156D01*
X70144Y20196D01*
X70173Y20233D01*
X70188Y20255D01*
X70195Y20258D01*
Y20262D01*
X70235Y20335D01*
X70268Y20404D01*
X70290Y20473D01*
X70305Y20538D01*
X70312Y20589D01*
X70315Y20615D01*
X70319Y20633D01*
Y20670D01*
X70315Y20757D01*
X70305Y20833D01*
X70286Y20902D01*
X70268Y20961D01*
X70250Y21008D01*
X70232Y21041D01*
X70221Y21063D01*
X70217Y21070D01*
X70177Y21128D01*
X70130Y21179D01*
X70082Y21223D01*
X70039Y21259D01*
X69999Y21288D01*
X69966Y21310D01*
X69944Y21325D01*
X69941Y21328D01*
X69937D01*
X69900Y21347D01*
X69864Y21365D01*
X69777Y21397D01*
X69686Y21427D01*
X69598Y21456D01*
X69558Y21467D01*
X69518Y21478D01*
X69482Y21488D01*
X69453Y21496D01*
X69427Y21503D01*
X69409Y21507D01*
X69394Y21510D01*
X69391D01*
X69325Y21529D01*
X69267Y21543D01*
X69213Y21558D01*
X69161Y21572D01*
X69121Y21587D01*
X69081Y21601D01*
X69049Y21616D01*
X69020Y21627D01*
X68994Y21638D01*
X68976Y21649D01*
X68958Y21656D01*
X68947Y21663D01*
X68929Y21674D01*
X68925Y21678D01*
X68899Y21703D01*
X68881Y21729D01*
X68870Y21754D01*
X68863Y21780D01*
X68856Y21798D01*
X68852Y21816D01*
Y21827D01*
Y21831D01*
X68856Y21867D01*
X68863Y21896D01*
X68878Y21925D01*
X68892Y21947D01*
X68907Y21965D01*
X68921Y21976D01*
X68929Y21983D01*
X68932Y21987D01*
X68983Y22020D01*
X69038Y22042D01*
X69096Y22060D01*
X69151Y22071D01*
X69198Y22078D01*
X69238Y22082D01*
X69274D01*
X69351Y22078D01*
X69416Y22067D01*
X69471Y22053D01*
X69515Y22038D01*
X69551Y22024D01*
X69577Y22009D01*
X69591Y21998D01*
X69595Y21994D01*
X69631Y21958D01*
X69664Y21914D01*
X69689Y21871D01*
X69708Y21823D01*
X69722Y21783D01*
X69729Y21751D01*
X69737Y21725D01*
Y21722D01*
Y21718D01*
X70246Y21736D01*
X70243Y21802D01*
X70232Y21860D01*
X70217Y21918D01*
X70199Y21969D01*
X70181Y22020D01*
X70159Y22067D01*
X70137Y22107D01*
X70115Y22147D01*
X70090Y22180D01*
X70068Y22209D01*
X70046Y22235D01*
X70028Y22256D01*
X70013Y22271D01*
X70002Y22282D01*
X69995Y22289D01*
X69991Y22293D01*
X69944Y22329D01*
X69893Y22362D01*
X69839Y22391D01*
X69780Y22417D01*
X69722Y22435D01*
X69664Y22453D01*
X69547Y22479D01*
X69493Y22486D01*
X69445Y22493D01*
X69398Y22497D01*
X69358Y22500D01*
X69325Y22504D01*
D02*
G37*
G36*
X66978D02*
X66934D01*
X66828Y22500D01*
X66734Y22490D01*
X66650Y22475D01*
X66577Y22460D01*
X66544Y22449D01*
X66515Y22442D01*
X66493Y22435D01*
X66472Y22428D01*
X66457Y22420D01*
X66446Y22417D01*
X66439Y22413D01*
X66435D01*
X66362Y22377D01*
X66300Y22337D01*
X66246Y22293D01*
X66202Y22253D01*
X66166Y22217D01*
X66144Y22187D01*
X66126Y22165D01*
X66122Y22162D01*
Y22158D01*
X66086Y22096D01*
X66060Y22031D01*
X66042Y21969D01*
X66031Y21914D01*
X66024Y21867D01*
X66017Y21831D01*
Y21816D01*
Y21805D01*
Y21802D01*
Y21798D01*
X66020Y21743D01*
X66027Y21689D01*
X66038Y21641D01*
X66053Y21594D01*
X66089Y21507D01*
X66133Y21430D01*
X66151Y21397D01*
X66173Y21372D01*
X66191Y21347D01*
X66210Y21325D01*
X66224Y21310D01*
X66235Y21299D01*
X66242Y21292D01*
X66246Y21288D01*
X66279Y21263D01*
X66319Y21237D01*
X66359Y21212D01*
X66406Y21190D01*
X66497Y21146D01*
X66592Y21110D01*
X66639Y21095D01*
X66679Y21081D01*
X66719Y21070D01*
X66752Y21059D01*
X66777Y21052D01*
X66799Y21044D01*
X66814Y21041D01*
X66817D01*
X66876Y21026D01*
X66927Y21012D01*
X66974Y21001D01*
X67018Y20990D01*
X67054Y20979D01*
X67087Y20972D01*
X67116Y20961D01*
X67141Y20953D01*
X67163Y20950D01*
X67181Y20943D01*
X67207Y20935D01*
X67221Y20928D01*
X67225D01*
X67272Y20910D01*
X67309Y20892D01*
X67342Y20873D01*
X67367Y20855D01*
X67385Y20841D01*
X67396Y20830D01*
X67403Y20822D01*
X67407Y20819D01*
X67425Y20793D01*
X67440Y20768D01*
X67447Y20742D01*
X67454Y20720D01*
X67458Y20699D01*
X67462Y20680D01*
Y20670D01*
Y20666D01*
X67458Y20615D01*
X67443Y20571D01*
X67422Y20527D01*
X67400Y20491D01*
X67374Y20462D01*
X67356Y20440D01*
X67342Y20426D01*
X67334Y20422D01*
X67283Y20389D01*
X67225Y20364D01*
X67163Y20346D01*
X67105Y20335D01*
X67050Y20327D01*
X67007Y20320D01*
X66967D01*
X66883Y20324D01*
X66810Y20338D01*
X66748Y20357D01*
X66694Y20378D01*
X66650Y20400D01*
X66621Y20418D01*
X66603Y20433D01*
X66595Y20437D01*
X66548Y20488D01*
X66512Y20542D01*
X66479Y20604D01*
X66457Y20666D01*
X66439Y20720D01*
X66424Y20764D01*
X66421Y20779D01*
Y20793D01*
X66417Y20801D01*
Y20804D01*
X65922Y20757D01*
X65933Y20680D01*
X65947Y20608D01*
X65969Y20538D01*
X65987Y20477D01*
X66013Y20418D01*
X66038Y20364D01*
X66064Y20316D01*
X66089Y20273D01*
X66115Y20236D01*
X66140Y20204D01*
X66162Y20175D01*
X66184Y20149D01*
X66199Y20131D01*
X66213Y20120D01*
X66220Y20113D01*
X66224Y20109D01*
X66275Y20069D01*
X66330Y20036D01*
X66388Y20007D01*
X66450Y19982D01*
X66508Y19963D01*
X66570Y19945D01*
X66690Y19920D01*
X66745Y19909D01*
X66795Y19902D01*
X66839Y19898D01*
X66879Y19894D01*
X66912Y19891D01*
X66959D01*
X67076Y19894D01*
X67181Y19905D01*
X67276Y19920D01*
X67316Y19927D01*
X67356Y19938D01*
X67389Y19945D01*
X67418Y19952D01*
X67443Y19960D01*
X67465Y19967D01*
X67484Y19974D01*
X67494Y19978D01*
X67502Y19982D01*
X67505D01*
X67585Y20022D01*
X67651Y20065D01*
X67713Y20109D01*
X67760Y20156D01*
X67796Y20196D01*
X67826Y20233D01*
X67840Y20255D01*
X67848Y20258D01*
Y20262D01*
X67888Y20335D01*
X67920Y20404D01*
X67942Y20473D01*
X67957Y20538D01*
X67964Y20589D01*
X67968Y20615D01*
X67971Y20633D01*
Y20670D01*
X67968Y20757D01*
X67957Y20833D01*
X67939Y20902D01*
X67920Y20961D01*
X67902Y21008D01*
X67884Y21041D01*
X67873Y21063D01*
X67869Y21070D01*
X67829Y21128D01*
X67782Y21179D01*
X67735Y21223D01*
X67691Y21259D01*
X67651Y21288D01*
X67618Y21310D01*
X67596Y21325D01*
X67593Y21328D01*
X67589D01*
X67553Y21347D01*
X67516Y21365D01*
X67429Y21397D01*
X67338Y21427D01*
X67251Y21456D01*
X67211Y21467D01*
X67170Y21478D01*
X67134Y21488D01*
X67105Y21496D01*
X67079Y21503D01*
X67061Y21507D01*
X67047Y21510D01*
X67043D01*
X66978Y21529D01*
X66919Y21543D01*
X66865Y21558D01*
X66814Y21572D01*
X66774Y21587D01*
X66734Y21601D01*
X66701Y21616D01*
X66672Y21627D01*
X66646Y21638D01*
X66628Y21649D01*
X66610Y21656D01*
X66599Y21663D01*
X66581Y21674D01*
X66577Y21678D01*
X66552Y21703D01*
X66533Y21729D01*
X66523Y21754D01*
X66515Y21780D01*
X66508Y21798D01*
X66504Y21816D01*
Y21827D01*
Y21831D01*
X66508Y21867D01*
X66515Y21896D01*
X66530Y21925D01*
X66544Y21947D01*
X66559Y21965D01*
X66574Y21976D01*
X66581Y21983D01*
X66584Y21987D01*
X66635Y22020D01*
X66690Y22042D01*
X66748Y22060D01*
X66803Y22071D01*
X66850Y22078D01*
X66890Y22082D01*
X66927D01*
X67003Y22078D01*
X67068Y22067D01*
X67123Y22053D01*
X67167Y22038D01*
X67203Y22024D01*
X67229Y22009D01*
X67243Y21998D01*
X67247Y21994D01*
X67283Y21958D01*
X67316Y21914D01*
X67342Y21871D01*
X67360Y21823D01*
X67374Y21783D01*
X67382Y21751D01*
X67389Y21725D01*
Y21722D01*
Y21718D01*
X67898Y21736D01*
X67895Y21802D01*
X67884Y21860D01*
X67869Y21918D01*
X67851Y21969D01*
X67833Y22020D01*
X67811Y22067D01*
X67789Y22107D01*
X67767Y22147D01*
X67742Y22180D01*
X67720Y22209D01*
X67698Y22235D01*
X67680Y22256D01*
X67665Y22271D01*
X67655Y22282D01*
X67647Y22289D01*
X67644Y22293D01*
X67596Y22329D01*
X67545Y22362D01*
X67491Y22391D01*
X67432Y22417D01*
X67374Y22435D01*
X67316Y22453D01*
X67200Y22479D01*
X67145Y22486D01*
X67098Y22493D01*
X67050Y22497D01*
X67010Y22500D01*
X66978Y22504D01*
D02*
G37*
G36*
X55439D02*
X55395D01*
X55290Y22500D01*
X55195Y22490D01*
X55111Y22475D01*
X55038Y22460D01*
X55006Y22449D01*
X54976Y22442D01*
X54955Y22435D01*
X54933Y22428D01*
X54918Y22420D01*
X54907Y22417D01*
X54900Y22413D01*
X54896D01*
X54824Y22377D01*
X54762Y22337D01*
X54707Y22293D01*
X54663Y22253D01*
X54627Y22217D01*
X54605Y22187D01*
X54587Y22165D01*
X54583Y22162D01*
Y22158D01*
X54547Y22096D01*
X54521Y22031D01*
X54503Y21969D01*
X54492Y21914D01*
X54485Y21867D01*
X54478Y21831D01*
Y21816D01*
Y21805D01*
Y21802D01*
Y21798D01*
X54481Y21743D01*
X54489Y21689D01*
X54500Y21641D01*
X54514Y21594D01*
X54551Y21507D01*
X54594Y21430D01*
X54612Y21397D01*
X54634Y21372D01*
X54653Y21347D01*
X54671Y21325D01*
X54685Y21310D01*
X54696Y21299D01*
X54703Y21292D01*
X54707Y21288D01*
X54740Y21263D01*
X54780Y21237D01*
X54820Y21212D01*
X54867Y21190D01*
X54958Y21146D01*
X55053Y21110D01*
X55100Y21095D01*
X55140Y21081D01*
X55180Y21070D01*
X55213Y21059D01*
X55238Y21052D01*
X55260Y21044D01*
X55275Y21041D01*
X55279D01*
X55337Y21026D01*
X55388Y21012D01*
X55435Y21001D01*
X55479Y20990D01*
X55515Y20979D01*
X55548Y20972D01*
X55577Y20961D01*
X55603Y20953D01*
X55624Y20950D01*
X55643Y20943D01*
X55668Y20935D01*
X55683Y20928D01*
X55686D01*
X55734Y20910D01*
X55770Y20892D01*
X55803Y20873D01*
X55828Y20855D01*
X55846Y20841D01*
X55857Y20830D01*
X55865Y20822D01*
X55868Y20819D01*
X55886Y20793D01*
X55901Y20768D01*
X55908Y20742D01*
X55916Y20720D01*
X55919Y20699D01*
X55923Y20680D01*
Y20670D01*
Y20666D01*
X55919Y20615D01*
X55905Y20571D01*
X55883Y20527D01*
X55861Y20491D01*
X55835Y20462D01*
X55817Y20440D01*
X55803Y20426D01*
X55795Y20422D01*
X55744Y20389D01*
X55686Y20364D01*
X55624Y20346D01*
X55566Y20335D01*
X55511Y20327D01*
X55468Y20320D01*
X55428D01*
X55344Y20324D01*
X55271Y20338D01*
X55209Y20357D01*
X55155Y20378D01*
X55111Y20400D01*
X55082Y20418D01*
X55064Y20433D01*
X55057Y20437D01*
X55009Y20488D01*
X54973Y20542D01*
X54940Y20604D01*
X54918Y20666D01*
X54900Y20720D01*
X54885Y20764D01*
X54882Y20779D01*
Y20793D01*
X54878Y20801D01*
Y20804D01*
X54383Y20757D01*
X54394Y20680D01*
X54409Y20608D01*
X54430Y20538D01*
X54449Y20477D01*
X54474Y20418D01*
X54500Y20364D01*
X54525Y20316D01*
X54551Y20273D01*
X54576Y20236D01*
X54602Y20204D01*
X54623Y20175D01*
X54645Y20149D01*
X54660Y20131D01*
X54674Y20120D01*
X54682Y20113D01*
X54685Y20109D01*
X54736Y20069D01*
X54791Y20036D01*
X54849Y20007D01*
X54911Y19982D01*
X54969Y19963D01*
X55031Y19945D01*
X55151Y19920D01*
X55206Y19909D01*
X55257Y19902D01*
X55300Y19898D01*
X55340Y19894D01*
X55373Y19891D01*
X55421D01*
X55537Y19894D01*
X55643Y19905D01*
X55737Y19920D01*
X55777Y19927D01*
X55817Y19938D01*
X55850Y19945D01*
X55879Y19952D01*
X55905Y19960D01*
X55927Y19967D01*
X55945Y19974D01*
X55956Y19978D01*
X55963Y19982D01*
X55967D01*
X56047Y20022D01*
X56112Y20065D01*
X56174Y20109D01*
X56221Y20156D01*
X56258Y20196D01*
X56287Y20233D01*
X56301Y20255D01*
X56309Y20258D01*
Y20262D01*
X56349Y20335D01*
X56381Y20404D01*
X56403Y20473D01*
X56418Y20538D01*
X56425Y20589D01*
X56429Y20615D01*
X56432Y20633D01*
Y20670D01*
X56429Y20757D01*
X56418Y20833D01*
X56400Y20902D01*
X56381Y20961D01*
X56363Y21008D01*
X56345Y21041D01*
X56334Y21063D01*
X56331Y21070D01*
X56291Y21128D01*
X56243Y21179D01*
X56196Y21223D01*
X56152Y21259D01*
X56112Y21288D01*
X56079Y21310D01*
X56058Y21325D01*
X56054Y21328D01*
X56050D01*
X56014Y21347D01*
X55977Y21365D01*
X55890Y21397D01*
X55799Y21427D01*
X55712Y21456D01*
X55672Y21467D01*
X55632Y21478D01*
X55595Y21488D01*
X55566Y21496D01*
X55541Y21503D01*
X55522Y21507D01*
X55508Y21510D01*
X55504D01*
X55439Y21529D01*
X55380Y21543D01*
X55326Y21558D01*
X55275Y21572D01*
X55235Y21587D01*
X55195Y21601D01*
X55162Y21616D01*
X55133Y21627D01*
X55107Y21638D01*
X55089Y21649D01*
X55071Y21656D01*
X55060Y21663D01*
X55042Y21674D01*
X55038Y21678D01*
X55013Y21703D01*
X54995Y21729D01*
X54984Y21754D01*
X54976Y21780D01*
X54969Y21798D01*
X54966Y21816D01*
Y21827D01*
Y21831D01*
X54969Y21867D01*
X54976Y21896D01*
X54991Y21925D01*
X55006Y21947D01*
X55020Y21965D01*
X55035Y21976D01*
X55042Y21983D01*
X55046Y21987D01*
X55097Y22020D01*
X55151Y22042D01*
X55209Y22060D01*
X55264Y22071D01*
X55311Y22078D01*
X55351Y22082D01*
X55388D01*
X55464Y22078D01*
X55530Y22067D01*
X55584Y22053D01*
X55628Y22038D01*
X55664Y22024D01*
X55690Y22009D01*
X55704Y21998D01*
X55708Y21994D01*
X55744Y21958D01*
X55777Y21914D01*
X55803Y21871D01*
X55821Y21823D01*
X55835Y21783D01*
X55843Y21751D01*
X55850Y21725D01*
Y21722D01*
Y21718D01*
X56360Y21736D01*
X56356Y21802D01*
X56345Y21860D01*
X56331Y21918D01*
X56312Y21969D01*
X56294Y22020D01*
X56272Y22067D01*
X56250Y22107D01*
X56229Y22147D01*
X56203Y22180D01*
X56181Y22209D01*
X56159Y22235D01*
X56141Y22256D01*
X56127Y22271D01*
X56116Y22282D01*
X56108Y22289D01*
X56105Y22293D01*
X56058Y22329D01*
X56007Y22362D01*
X55952Y22391D01*
X55894Y22417D01*
X55835Y22435D01*
X55777Y22453D01*
X55661Y22479D01*
X55606Y22486D01*
X55559Y22493D01*
X55511Y22497D01*
X55471Y22500D01*
X55439Y22504D01*
D02*
G37*
G36*
X61980D02*
X61936D01*
X61805Y22500D01*
X61689Y22486D01*
X61638Y22475D01*
X61587Y22464D01*
X61539Y22453D01*
X61499Y22442D01*
X61463Y22428D01*
X61427Y22417D01*
X61401Y22406D01*
X61376Y22399D01*
X61357Y22388D01*
X61343Y22384D01*
X61335Y22377D01*
X61332D01*
X61219Y22311D01*
X61172Y22271D01*
X61124Y22235D01*
X61081Y22195D01*
X61041Y22155D01*
X61004Y22115D01*
X60971Y22078D01*
X60946Y22042D01*
X60921Y22009D01*
X60899Y21980D01*
X60881Y21954D01*
X60870Y21933D01*
X60859Y21918D01*
X60855Y21907D01*
X60851Y21903D01*
X60822Y21845D01*
X60797Y21787D01*
X60757Y21667D01*
X60728Y21547D01*
X60709Y21441D01*
X60702Y21390D01*
X60695Y21347D01*
X60691Y21306D01*
Y21270D01*
X60688Y21245D01*
Y21205D01*
X60695Y21070D01*
X60709Y20946D01*
X60735Y20833D01*
X60746Y20779D01*
X60760Y20731D01*
X60775Y20688D01*
X60786Y20648D01*
X60800Y20615D01*
X60811Y20586D01*
X60819Y20564D01*
X60826Y20546D01*
X60833Y20535D01*
Y20531D01*
X60895Y20422D01*
X60964Y20327D01*
X61037Y20244D01*
X61110Y20178D01*
X61143Y20149D01*
X61175Y20123D01*
X61201Y20102D01*
X61226Y20087D01*
X61244Y20073D01*
X61263Y20062D01*
X61270Y20058D01*
X61274Y20054D01*
X61332Y20025D01*
X61387Y20000D01*
X61507Y19960D01*
X61623Y19931D01*
X61729Y19912D01*
X61780Y19905D01*
X61823Y19898D01*
X61863Y19894D01*
X61900D01*
X61925Y19891D01*
X61965D01*
X62082Y19894D01*
X62191Y19909D01*
X62296Y19927D01*
X62388Y19949D01*
X62428Y19960D01*
X62464Y19971D01*
X62497Y19982D01*
X62526Y19989D01*
X62548Y19996D01*
X62562Y20003D01*
X62573Y20007D01*
X62577D01*
X62686Y20051D01*
X62777Y20098D01*
X62857Y20145D01*
X62926Y20185D01*
X62977Y20222D01*
X62995Y20236D01*
X63014Y20251D01*
X63024Y20262D01*
X63035Y20269D01*
X63043Y20276D01*
Y21288D01*
X61947D01*
Y20862D01*
X62529D01*
Y20538D01*
X62486Y20506D01*
X62438Y20477D01*
X62391Y20451D01*
X62347Y20429D01*
X62311Y20411D01*
X62278Y20396D01*
X62260Y20389D01*
X62256Y20386D01*
X62253D01*
X62195Y20364D01*
X62136Y20349D01*
X62082Y20338D01*
X62034Y20331D01*
X61991Y20327D01*
X61962Y20324D01*
X61932D01*
X61874Y20327D01*
X61816Y20335D01*
X61765Y20346D01*
X61714Y20360D01*
X61623Y20396D01*
X61587Y20415D01*
X61550Y20437D01*
X61518Y20458D01*
X61488Y20477D01*
X61467Y20498D01*
X61445Y20513D01*
X61430Y20527D01*
X61419Y20538D01*
X61412Y20546D01*
X61408Y20549D01*
X61376Y20593D01*
X61343Y20644D01*
X61317Y20695D01*
X61295Y20750D01*
X61259Y20862D01*
X61237Y20972D01*
X61230Y21023D01*
X61223Y21074D01*
X61219Y21114D01*
X61215Y21154D01*
X61212Y21183D01*
Y21208D01*
Y21223D01*
Y21226D01*
X61215Y21303D01*
X61219Y21372D01*
X61230Y21441D01*
X61241Y21503D01*
X61255Y21558D01*
X61274Y21609D01*
X61292Y21656D01*
X61310Y21700D01*
X61325Y21736D01*
X61343Y21769D01*
X61361Y21794D01*
X61376Y21816D01*
X61387Y21834D01*
X61397Y21845D01*
X61401Y21853D01*
X61405Y21856D01*
X61445Y21892D01*
X61485Y21929D01*
X61528Y21954D01*
X61572Y21980D01*
X61616Y22002D01*
X61659Y22020D01*
X61743Y22045D01*
X61783Y22053D01*
X61820Y22060D01*
X61852Y22064D01*
X61882Y22067D01*
X61903Y22071D01*
X61936D01*
X62016Y22067D01*
X62085Y22053D01*
X62147Y22038D01*
X62202Y22016D01*
X62242Y21998D01*
X62275Y21980D01*
X62293Y21965D01*
X62300Y21962D01*
X62351Y21918D01*
X62395Y21871D01*
X62431Y21823D01*
X62457Y21776D01*
X62479Y21732D01*
X62493Y21700D01*
X62500Y21678D01*
X62504Y21674D01*
Y21670D01*
X63010Y21765D01*
X62995Y21827D01*
X62973Y21889D01*
X62952Y21944D01*
X62923Y21994D01*
X62897Y22045D01*
X62868Y22089D01*
X62839Y22129D01*
X62810Y22165D01*
X62781Y22198D01*
X62755Y22227D01*
X62733Y22253D01*
X62711Y22271D01*
X62693Y22286D01*
X62679Y22300D01*
X62671Y22304D01*
X62668Y22308D01*
X62617Y22344D01*
X62562Y22373D01*
X62504Y22399D01*
X62442Y22420D01*
X62322Y22457D01*
X62205Y22479D01*
X62151Y22490D01*
X62100Y22493D01*
X62053Y22497D01*
X62013Y22500D01*
X61980Y22504D01*
D02*
G37*
G36*
X52982D02*
X52938D01*
X52807Y22500D01*
X52691Y22486D01*
X52640Y22475D01*
X52589Y22464D01*
X52541Y22453D01*
X52501Y22442D01*
X52465Y22428D01*
X52428Y22417D01*
X52403Y22406D01*
X52377Y22399D01*
X52359Y22388D01*
X52345Y22384D01*
X52337Y22377D01*
X52334D01*
X52221Y22311D01*
X52174Y22271D01*
X52126Y22235D01*
X52083Y22195D01*
X52043Y22155D01*
X52006Y22115D01*
X51973Y22078D01*
X51948Y22042D01*
X51923Y22009D01*
X51901Y21980D01*
X51882Y21954D01*
X51872Y21933D01*
X51861Y21918D01*
X51857Y21907D01*
X51853Y21903D01*
X51824Y21845D01*
X51799Y21787D01*
X51759Y21667D01*
X51730Y21547D01*
X51711Y21441D01*
X51704Y21390D01*
X51697Y21347D01*
X51693Y21306D01*
Y21270D01*
X51689Y21245D01*
Y21205D01*
X51697Y21070D01*
X51711Y20946D01*
X51737Y20833D01*
X51748Y20779D01*
X51762Y20731D01*
X51777Y20688D01*
X51788Y20648D01*
X51802Y20615D01*
X51813Y20586D01*
X51821Y20564D01*
X51828Y20546D01*
X51835Y20535D01*
Y20531D01*
X51897Y20422D01*
X51966Y20327D01*
X52039Y20244D01*
X52112Y20178D01*
X52144Y20149D01*
X52177Y20123D01*
X52203Y20102D01*
X52228Y20087D01*
X52246Y20073D01*
X52265Y20062D01*
X52272Y20058D01*
X52276Y20054D01*
X52334Y20025D01*
X52388Y20000D01*
X52508Y19960D01*
X52625Y19931D01*
X52731Y19912D01*
X52781Y19905D01*
X52825Y19898D01*
X52865Y19894D01*
X52902D01*
X52927Y19891D01*
X52967D01*
X53084Y19894D01*
X53193Y19909D01*
X53298Y19927D01*
X53389Y19949D01*
X53429Y19960D01*
X53466Y19971D01*
X53499Y19982D01*
X53528Y19989D01*
X53550Y19996D01*
X53564Y20003D01*
X53575Y20007D01*
X53579D01*
X53688Y20051D01*
X53779Y20098D01*
X53859Y20145D01*
X53928Y20185D01*
X53979Y20222D01*
X53997Y20236D01*
X54015Y20251D01*
X54026Y20262D01*
X54037Y20269D01*
X54045Y20276D01*
Y21288D01*
X52949D01*
Y20862D01*
X53531D01*
Y20538D01*
X53488Y20506D01*
X53440Y20477D01*
X53393Y20451D01*
X53349Y20429D01*
X53313Y20411D01*
X53280Y20396D01*
X53262Y20389D01*
X53258Y20386D01*
X53255D01*
X53197Y20364D01*
X53138Y20349D01*
X53084Y20338D01*
X53036Y20331D01*
X52993Y20327D01*
X52964Y20324D01*
X52934D01*
X52876Y20327D01*
X52818Y20335D01*
X52767Y20346D01*
X52716Y20360D01*
X52625Y20396D01*
X52589Y20415D01*
X52552Y20437D01*
X52519Y20458D01*
X52490Y20477D01*
X52469Y20498D01*
X52447Y20513D01*
X52432Y20527D01*
X52421Y20538D01*
X52414Y20546D01*
X52410Y20549D01*
X52377Y20593D01*
X52345Y20644D01*
X52319Y20695D01*
X52297Y20750D01*
X52261Y20862D01*
X52239Y20972D01*
X52232Y21023D01*
X52225Y21074D01*
X52221Y21114D01*
X52217Y21154D01*
X52214Y21183D01*
Y21208D01*
Y21223D01*
Y21226D01*
X52217Y21303D01*
X52221Y21372D01*
X52232Y21441D01*
X52243Y21503D01*
X52257Y21558D01*
X52276Y21609D01*
X52294Y21656D01*
X52312Y21700D01*
X52327Y21736D01*
X52345Y21769D01*
X52363Y21794D01*
X52377Y21816D01*
X52388Y21834D01*
X52399Y21845D01*
X52403Y21853D01*
X52407Y21856D01*
X52447Y21892D01*
X52487Y21929D01*
X52530Y21954D01*
X52574Y21980D01*
X52618Y22002D01*
X52661Y22020D01*
X52745Y22045D01*
X52785Y22053D01*
X52822Y22060D01*
X52854Y22064D01*
X52883Y22067D01*
X52905Y22071D01*
X52938D01*
X53018Y22067D01*
X53087Y22053D01*
X53149Y22038D01*
X53204Y22016D01*
X53244Y21998D01*
X53277Y21980D01*
X53295Y21965D01*
X53302Y21962D01*
X53353Y21918D01*
X53397Y21871D01*
X53433Y21823D01*
X53459Y21776D01*
X53480Y21732D01*
X53495Y21700D01*
X53502Y21678D01*
X53506Y21674D01*
Y21670D01*
X54012Y21765D01*
X53997Y21827D01*
X53975Y21889D01*
X53954Y21944D01*
X53925Y21994D01*
X53899Y22045D01*
X53870Y22089D01*
X53841Y22129D01*
X53812Y22165D01*
X53782Y22198D01*
X53757Y22227D01*
X53735Y22253D01*
X53713Y22271D01*
X53695Y22286D01*
X53681Y22300D01*
X53673Y22304D01*
X53670Y22308D01*
X53619Y22344D01*
X53564Y22373D01*
X53506Y22399D01*
X53444Y22420D01*
X53324Y22457D01*
X53207Y22479D01*
X53153Y22490D01*
X53102Y22493D01*
X53054Y22497D01*
X53014Y22500D01*
X52982Y22504D01*
D02*
G37*
G36*
X45279D02*
X45236D01*
X45141Y22500D01*
X45046Y22490D01*
X44963Y22471D01*
X44879Y22449D01*
X44806Y22424D01*
X44734Y22395D01*
X44672Y22362D01*
X44613Y22329D01*
X44559Y22297D01*
X44515Y22264D01*
X44475Y22235D01*
X44442Y22209D01*
X44417Y22187D01*
X44399Y22169D01*
X44388Y22158D01*
X44384Y22155D01*
X44326Y22085D01*
X44278Y22013D01*
X44235Y21936D01*
X44198Y21856D01*
X44166Y21772D01*
X44140Y21692D01*
X44118Y21612D01*
X44100Y21536D01*
X44086Y21459D01*
X44078Y21394D01*
X44071Y21332D01*
X44064Y21281D01*
Y21237D01*
X44060Y21205D01*
Y21175D01*
X44064Y21066D01*
X44075Y20964D01*
X44089Y20866D01*
X44111Y20779D01*
X44133Y20695D01*
X44162Y20615D01*
X44191Y20546D01*
X44220Y20484D01*
X44249Y20426D01*
X44278Y20375D01*
X44308Y20335D01*
X44329Y20298D01*
X44351Y20273D01*
X44366Y20251D01*
X44377Y20240D01*
X44380Y20236D01*
X44442Y20175D01*
X44508Y20123D01*
X44577Y20076D01*
X44646Y20040D01*
X44715Y20007D01*
X44784Y19978D01*
X44850Y19956D01*
X44912Y19938D01*
X44974Y19923D01*
X45028Y19912D01*
X45079Y19905D01*
X45119Y19902D01*
X45156Y19898D01*
X45181Y19894D01*
X45203D01*
X45279Y19898D01*
X45349Y19902D01*
X45418Y19912D01*
X45480Y19927D01*
X45538Y19941D01*
X45592Y19956D01*
X45643Y19974D01*
X45691Y19996D01*
X45731Y20014D01*
X45767Y20032D01*
X45800Y20047D01*
X45825Y20062D01*
X45847Y20076D01*
X45862Y20087D01*
X45869Y20091D01*
X45873Y20094D01*
X45920Y20134D01*
X45964Y20178D01*
X46044Y20276D01*
X46109Y20378D01*
X46160Y20477D01*
X46182Y20524D01*
X46200Y20568D01*
X46215Y20608D01*
X46229Y20640D01*
X46240Y20670D01*
X46248Y20691D01*
X46251Y20706D01*
Y20709D01*
X45756Y20862D01*
X45727Y20764D01*
X45694Y20680D01*
X45662Y20611D01*
X45625Y20553D01*
X45596Y20509D01*
X45571Y20480D01*
X45553Y20462D01*
X45545Y20455D01*
X45487Y20411D01*
X45429Y20382D01*
X45371Y20360D01*
X45320Y20342D01*
X45272Y20335D01*
X45232Y20331D01*
X45218Y20327D01*
X45199D01*
X45148Y20331D01*
X45101Y20335D01*
X45014Y20360D01*
X44937Y20389D01*
X44875Y20429D01*
X44824Y20466D01*
X44788Y20495D01*
X44774Y20509D01*
X44763Y20520D01*
X44759Y20524D01*
X44755Y20527D01*
X44726Y20568D01*
X44701Y20615D01*
X44675Y20666D01*
X44657Y20720D01*
X44628Y20833D01*
X44606Y20946D01*
X44599Y21001D01*
X44595Y21048D01*
X44588Y21095D01*
Y21135D01*
X44584Y21165D01*
Y21190D01*
Y21208D01*
Y21212D01*
X44588Y21296D01*
X44592Y21372D01*
X44599Y21441D01*
X44610Y21507D01*
X44624Y21565D01*
X44639Y21620D01*
X44653Y21667D01*
X44672Y21711D01*
X44686Y21747D01*
X44701Y21780D01*
X44715Y21805D01*
X44730Y21827D01*
X44741Y21845D01*
X44748Y21856D01*
X44755Y21863D01*
Y21867D01*
X44788Y21903D01*
X44824Y21936D01*
X44861Y21962D01*
X44901Y21983D01*
X44977Y22020D01*
X45050Y22045D01*
X45112Y22060D01*
X45141Y22064D01*
X45163Y22067D01*
X45185Y22071D01*
X45210D01*
X45283Y22067D01*
X45349Y22053D01*
X45407Y22035D01*
X45458Y22013D01*
X45498Y21991D01*
X45527Y21973D01*
X45545Y21958D01*
X45553Y21954D01*
X45600Y21911D01*
X45643Y21860D01*
X45676Y21809D01*
X45702Y21758D01*
X45720Y21714D01*
X45731Y21681D01*
X45738Y21667D01*
Y21656D01*
X45742Y21652D01*
Y21649D01*
X46244Y21769D01*
X46208Y21874D01*
X46168Y21965D01*
X46124Y22045D01*
X46084Y22111D01*
X46044Y22162D01*
X46029Y22184D01*
X46015Y22202D01*
X46004Y22213D01*
X45993Y22224D01*
X45989Y22231D01*
X45986D01*
X45931Y22278D01*
X45869Y22322D01*
X45811Y22358D01*
X45749Y22388D01*
X45684Y22417D01*
X45622Y22439D01*
X45560Y22457D01*
X45502Y22471D01*
X45447Y22482D01*
X45396Y22490D01*
X45352Y22497D01*
X45312Y22500D01*
X45279Y22504D01*
D02*
G37*
G36*
X84748Y22457D02*
X84264D01*
Y21550D01*
X84220Y21594D01*
X84176Y21634D01*
X84133Y21667D01*
X84086Y21700D01*
X84042Y21722D01*
X83998Y21743D01*
X83955Y21761D01*
X83914Y21772D01*
X83874Y21783D01*
X83842Y21791D01*
X83809Y21798D01*
X83783Y21802D01*
X83762Y21805D01*
X83732D01*
X83671Y21802D01*
X83612Y21794D01*
X83558Y21783D01*
X83503Y21769D01*
X83412Y21729D01*
X83368Y21707D01*
X83332Y21685D01*
X83296Y21660D01*
X83267Y21638D01*
X83241Y21620D01*
X83219Y21601D01*
X83201Y21583D01*
X83190Y21572D01*
X83183Y21565D01*
X83179Y21561D01*
X83143Y21514D01*
X83110Y21463D01*
X83081Y21408D01*
X83055Y21350D01*
X83034Y21292D01*
X83015Y21234D01*
X82990Y21117D01*
X82983Y21066D01*
X82975Y21015D01*
X82972Y20972D01*
X82968Y20932D01*
X82964Y20899D01*
Y20855D01*
X82968Y20771D01*
X82975Y20695D01*
X82986Y20622D01*
X83001Y20553D01*
X83015Y20491D01*
X83034Y20433D01*
X83055Y20382D01*
X83077Y20335D01*
X83095Y20291D01*
X83117Y20255D01*
X83135Y20222D01*
X83154Y20196D01*
X83165Y20175D01*
X83175Y20160D01*
X83183Y20153D01*
X83186Y20149D01*
X83230Y20105D01*
X83274Y20065D01*
X83321Y20032D01*
X83365Y20003D01*
X83412Y19978D01*
X83456Y19960D01*
X83499Y19941D01*
X83539Y19931D01*
X83580Y19920D01*
X83616Y19912D01*
X83645Y19905D01*
X83674Y19902D01*
X83696Y19898D01*
X83725D01*
X83783Y19902D01*
X83838Y19909D01*
X83893Y19920D01*
X83940Y19934D01*
X83976Y19949D01*
X84009Y19960D01*
X84027Y19967D01*
X84035Y19971D01*
X84089Y20003D01*
X84140Y20040D01*
X84187Y20080D01*
X84224Y20116D01*
X84257Y20149D01*
X84282Y20178D01*
X84297Y20196D01*
X84300Y20204D01*
Y19938D01*
X84748D01*
Y22457D01*
D02*
G37*
G36*
X65518D02*
X65048D01*
Y20761D01*
X64007Y22457D01*
X63516D01*
Y19938D01*
X63985D01*
Y21598D01*
X65008Y19938D01*
X65518D01*
Y22457D01*
D02*
G37*
G36*
X80409D02*
X79645D01*
X79197Y20735D01*
X78746Y22457D01*
X77985D01*
Y19938D01*
X78454D01*
Y21918D01*
X78949Y19938D01*
X79441D01*
X79936Y21918D01*
X79940Y19938D01*
X80409D01*
Y22457D01*
D02*
G37*
G36*
X59283D02*
X58518D01*
X58070Y20735D01*
X57619Y22457D01*
X56858D01*
Y19938D01*
X57328D01*
Y21918D01*
X57823Y19938D01*
X58314D01*
X58809Y21918D01*
X58813Y19938D01*
X59283D01*
Y22457D01*
D02*
G37*
G36*
X41519Y21095D02*
X40569D01*
Y20611D01*
X41519D01*
Y21095D01*
D02*
G37*
G36*
X86877Y21765D02*
X86393D01*
Y20993D01*
Y20924D01*
Y20862D01*
X86390Y20804D01*
X86386Y20753D01*
Y20706D01*
X86382Y20666D01*
X86379Y20633D01*
X86375Y20600D01*
X86371Y20575D01*
X86368Y20557D01*
X86364Y20538D01*
Y20524D01*
X86357Y20506D01*
Y20502D01*
X86342Y20466D01*
X86321Y20433D01*
X86299Y20407D01*
X86277Y20382D01*
X86255Y20360D01*
X86237Y20346D01*
X86226Y20338D01*
X86222Y20335D01*
X86186Y20313D01*
X86146Y20298D01*
X86109Y20284D01*
X86073Y20276D01*
X86044Y20273D01*
X86022Y20269D01*
X86000D01*
X85960Y20273D01*
X85927Y20276D01*
X85895Y20284D01*
X85869Y20295D01*
X85847Y20302D01*
X85833Y20309D01*
X85822Y20313D01*
X85818Y20316D01*
X85793Y20338D01*
X85774Y20360D01*
X85756Y20382D01*
X85745Y20404D01*
X85734Y20426D01*
X85727Y20440D01*
X85724Y20451D01*
Y20455D01*
X85720Y20473D01*
X85716Y20498D01*
X85713Y20531D01*
X85709Y20564D01*
X85705Y20640D01*
X85702Y20724D01*
X85698Y20801D01*
Y20833D01*
Y20862D01*
Y20888D01*
Y20906D01*
Y20921D01*
Y20924D01*
Y21765D01*
X85214D01*
Y20608D01*
X85218Y20517D01*
X85225Y20437D01*
X85236Y20367D01*
X85247Y20309D01*
X85258Y20262D01*
X85268Y20229D01*
X85276Y20211D01*
X85279Y20204D01*
X85309Y20153D01*
X85341Y20105D01*
X85374Y20069D01*
X85410Y20036D01*
X85440Y20011D01*
X85469Y19993D01*
X85483Y19982D01*
X85491Y19978D01*
X85545Y19952D01*
X85603Y19931D01*
X85658Y19916D01*
X85713Y19909D01*
X85756Y19902D01*
X85789Y19898D01*
X85822D01*
X85887Y19902D01*
X85949Y19909D01*
X86007Y19923D01*
X86058Y19938D01*
X86102Y19952D01*
X86135Y19967D01*
X86157Y19974D01*
X86164Y19978D01*
X86222Y20011D01*
X86273Y20051D01*
X86321Y20087D01*
X86357Y20127D01*
X86390Y20160D01*
X86411Y20185D01*
X86426Y20204D01*
X86430Y20211D01*
Y19938D01*
X86877D01*
Y21765D01*
D02*
G37*
G36*
X87857Y22457D02*
X87372D01*
Y19938D01*
X87857D01*
Y22457D01*
D02*
G37*
G36*
X76682D02*
X74683D01*
Y22031D01*
X75430D01*
Y19938D01*
X75939D01*
Y22031D01*
X76682D01*
Y22457D01*
D02*
G37*
G36*
X72223D02*
X71713D01*
Y19938D01*
X72223D01*
Y22457D01*
D02*
G37*
G36*
X47183D02*
X46674D01*
Y19938D01*
X47183D01*
Y22457D01*
D02*
G37*
G36*
X42731D02*
X41803D01*
Y19938D01*
X42313D01*
Y20888D01*
X42764D01*
X42819Y20892D01*
X42870D01*
X42917Y20895D01*
X42961Y20899D01*
X43001Y20902D01*
X43034Y20906D01*
X43066D01*
X43092Y20910D01*
X43117Y20913D01*
X43135Y20917D01*
X43150D01*
X43161Y20921D01*
X43168D01*
X43219Y20935D01*
X43267Y20953D01*
X43310Y20972D01*
X43350Y20993D01*
X43383Y21012D01*
X43409Y21026D01*
X43423Y21037D01*
X43430Y21041D01*
X43478Y21077D01*
X43518Y21117D01*
X43558Y21161D01*
X43587Y21197D01*
X43612Y21234D01*
X43631Y21263D01*
X43641Y21281D01*
X43645Y21288D01*
X43674Y21350D01*
X43696Y21416D01*
X43711Y21485D01*
X43722Y21547D01*
X43729Y21598D01*
Y21623D01*
X43733Y21641D01*
Y21681D01*
X43725Y21787D01*
X43711Y21885D01*
X43685Y21965D01*
X43660Y22038D01*
X43645Y22067D01*
X43631Y22093D01*
X43620Y22115D01*
X43605Y22136D01*
X43598Y22151D01*
X43591Y22162D01*
X43583Y22165D01*
Y22169D01*
X43525Y22235D01*
X43467Y22289D01*
X43405Y22333D01*
X43350Y22366D01*
X43299Y22388D01*
X43259Y22406D01*
X43245Y22409D01*
X43234Y22413D01*
X43227Y22417D01*
X43223D01*
X43194Y22424D01*
X43157Y22431D01*
X43114Y22435D01*
X43070Y22439D01*
X42968Y22446D01*
X42866Y22453D01*
X42772D01*
X42731Y22457D01*
D02*
G37*
G36*
X39346D02*
X38808D01*
X37832Y19938D01*
X38371D01*
X38578Y20509D01*
X39590D01*
X39809Y19938D01*
X40358D01*
X39346Y22457D01*
D02*
G37*
G36*
X36806D02*
X36267D01*
X35291Y19938D01*
X35830D01*
X36037Y20509D01*
X37049D01*
X37268Y19938D01*
X37817D01*
X36806Y22457D01*
D02*
G37*
G36*
X34716Y22471D02*
X34323D01*
X34287Y22388D01*
X34239Y22311D01*
X34188Y22238D01*
X34137Y22180D01*
X34094Y22133D01*
X34054Y22096D01*
X34039Y22082D01*
X34028Y22071D01*
X34021Y22067D01*
X34017Y22064D01*
X33937Y22005D01*
X33861Y21954D01*
X33792Y21914D01*
X33730Y21885D01*
X33679Y21863D01*
X33642Y21845D01*
X33628Y21842D01*
X33617Y21838D01*
X33613Y21834D01*
X33610D01*
Y21397D01*
X33741Y21449D01*
X33857Y21503D01*
X33912Y21532D01*
X33963Y21565D01*
X34010Y21594D01*
X34054Y21623D01*
X34094Y21652D01*
X34130Y21678D01*
X34159Y21700D01*
X34185Y21722D01*
X34207Y21740D01*
X34221Y21751D01*
X34228Y21758D01*
X34232Y21761D01*
Y19938D01*
X34716D01*
Y22471D01*
D02*
G37*
G36*
X30800D02*
X30406D01*
X30370Y22388D01*
X30323Y22311D01*
X30272Y22238D01*
X30221Y22180D01*
X30177Y22133D01*
X30137Y22096D01*
X30123Y22082D01*
X30112Y22071D01*
X30104Y22067D01*
X30101Y22064D01*
X30021Y22005D01*
X29944Y21954D01*
X29875Y21914D01*
X29813Y21885D01*
X29762Y21863D01*
X29726Y21845D01*
X29711Y21842D01*
X29700Y21838D01*
X29697Y21834D01*
X29693D01*
Y21397D01*
X29824Y21449D01*
X29941Y21503D01*
X29995Y21532D01*
X30046Y21565D01*
X30093Y21594D01*
X30137Y21623D01*
X30177Y21652D01*
X30213Y21678D01*
X30243Y21700D01*
X30268Y21722D01*
X30290Y21740D01*
X30305Y21751D01*
X30312Y21758D01*
X30315Y21761D01*
Y19938D01*
X30800D01*
Y22471D01*
D02*
G37*
G36*
X28241Y22457D02*
X27134D01*
Y19938D01*
X28226D01*
X28288Y19941D01*
X28397D01*
X28441Y19945D01*
X28510D01*
X28536Y19949D01*
X28572D01*
X28586Y19952D01*
X28601D01*
X28674Y19963D01*
X28739Y19982D01*
X28798Y20000D01*
X28848Y20022D01*
X28889Y20040D01*
X28918Y20058D01*
X28936Y20069D01*
X28943Y20073D01*
X28994Y20113D01*
X29034Y20156D01*
X29074Y20196D01*
X29103Y20240D01*
X29129Y20276D01*
X29147Y20305D01*
X29158Y20324D01*
X29162Y20331D01*
X29187Y20393D01*
X29209Y20451D01*
X29223Y20509D01*
X29231Y20560D01*
X29238Y20604D01*
X29242Y20637D01*
Y20666D01*
X29238Y20746D01*
X29223Y20819D01*
X29202Y20881D01*
X29180Y20939D01*
X29158Y20983D01*
X29136Y21015D01*
X29122Y21037D01*
X29118Y21044D01*
X29067Y21103D01*
X29012Y21150D01*
X28950Y21190D01*
X28896Y21219D01*
X28845Y21245D01*
X28801Y21263D01*
X28787Y21267D01*
X28776Y21270D01*
X28768Y21274D01*
X28765D01*
X28823Y21306D01*
X28874Y21339D01*
X28918Y21379D01*
X28954Y21412D01*
X28980Y21445D01*
X29001Y21470D01*
X29016Y21488D01*
X29020Y21496D01*
X29052Y21554D01*
X29078Y21609D01*
X29092Y21663D01*
X29107Y21714D01*
X29114Y21758D01*
X29118Y21791D01*
Y21813D01*
Y21816D01*
Y21820D01*
X29114Y21878D01*
X29107Y21936D01*
X29092Y21983D01*
X29078Y22027D01*
X29063Y22064D01*
X29049Y22093D01*
X29041Y22107D01*
X29038Y22115D01*
X29009Y22162D01*
X28976Y22202D01*
X28943Y22238D01*
X28914Y22271D01*
X28885Y22293D01*
X28863Y22311D01*
X28848Y22322D01*
X28845Y22326D01*
X28801Y22355D01*
X28754Y22377D01*
X28710Y22395D01*
X28670Y22409D01*
X28634Y22420D01*
X28608Y22428D01*
X28590Y22431D01*
X28583D01*
X28521Y22439D01*
X28452Y22446D01*
X28379Y22449D01*
X28306Y22453D01*
X28241Y22457D01*
D02*
G37*
G36*
X89087Y21805D02*
X89047D01*
X88981Y21802D01*
X88919Y21794D01*
X88858Y21780D01*
X88803Y21765D01*
X88748Y21747D01*
X88701Y21725D01*
X88654Y21700D01*
X88614Y21678D01*
X88577Y21652D01*
X88544Y21627D01*
X88515Y21605D01*
X88494Y21587D01*
X88475Y21572D01*
X88461Y21558D01*
X88454Y21550D01*
X88450Y21547D01*
X88410Y21496D01*
X88373Y21441D01*
X88341Y21387D01*
X88312Y21328D01*
X88290Y21267D01*
X88271Y21208D01*
X88242Y21095D01*
X88231Y21041D01*
X88224Y20993D01*
X88221Y20950D01*
X88217Y20913D01*
X88213Y20881D01*
Y20837D01*
X88217Y20768D01*
X88221Y20699D01*
X88231Y20637D01*
X88242Y20579D01*
X88253Y20520D01*
X88271Y20469D01*
X88286Y20422D01*
X88304Y20378D01*
X88319Y20338D01*
X88337Y20305D01*
X88352Y20276D01*
X88362Y20251D01*
X88377Y20233D01*
X88384Y20218D01*
X88388Y20211D01*
X88392Y20207D01*
X88439Y20153D01*
X88486Y20105D01*
X88541Y20065D01*
X88599Y20029D01*
X88657Y20000D01*
X88716Y19974D01*
X88774Y19952D01*
X88832Y19938D01*
X88883Y19923D01*
X88934Y19916D01*
X88981Y19909D01*
X89021Y19902D01*
X89054D01*
X89076Y19898D01*
X89098D01*
X89203Y19905D01*
X89302Y19920D01*
X89385Y19941D01*
X89458Y19967D01*
X89491Y19982D01*
X89516Y19993D01*
X89542Y20003D01*
X89560Y20014D01*
X89575Y20025D01*
X89589Y20029D01*
X89593Y20036D01*
X89596D01*
X89666Y20094D01*
X89727Y20156D01*
X89779Y20225D01*
X89819Y20291D01*
X89851Y20349D01*
X89862Y20375D01*
X89873Y20396D01*
X89880Y20415D01*
X89888Y20429D01*
X89891Y20437D01*
Y20440D01*
X89411Y20520D01*
X89393Y20473D01*
X89374Y20429D01*
X89356Y20396D01*
X89334Y20367D01*
X89320Y20346D01*
X89305Y20331D01*
X89294Y20324D01*
X89291Y20320D01*
X89262Y20298D01*
X89229Y20284D01*
X89196Y20273D01*
X89167Y20266D01*
X89141Y20262D01*
X89120Y20258D01*
X89101D01*
X89043Y20262D01*
X88989Y20276D01*
X88938Y20295D01*
X88898Y20316D01*
X88865Y20338D01*
X88843Y20357D01*
X88825Y20371D01*
X88821Y20375D01*
X88785Y20422D01*
X88759Y20477D01*
X88737Y20535D01*
X88723Y20586D01*
X88716Y20637D01*
X88712Y20673D01*
X88708Y20688D01*
Y20699D01*
Y20706D01*
Y20709D01*
X89917D01*
Y20811D01*
X89909Y20902D01*
X89899Y20990D01*
X89884Y21070D01*
X89866Y21146D01*
X89848Y21212D01*
X89826Y21274D01*
X89804Y21328D01*
X89782Y21376D01*
X89760Y21419D01*
X89742Y21452D01*
X89724Y21481D01*
X89709Y21503D01*
X89698Y21521D01*
X89691Y21529D01*
X89688Y21532D01*
X89644Y21579D01*
X89593Y21623D01*
X89542Y21660D01*
X89491Y21689D01*
X89436Y21718D01*
X89382Y21740D01*
X89331Y21758D01*
X89280Y21772D01*
X89232Y21783D01*
X89189Y21791D01*
X89149Y21798D01*
X89116Y21802D01*
X89087Y21805D01*
D02*
G37*
G36*
X81789D02*
X81749D01*
X81650Y21802D01*
X81559Y21787D01*
X81476Y21769D01*
X81403Y21747D01*
X81374Y21732D01*
X81345Y21722D01*
X81319Y21714D01*
X81301Y21703D01*
X81283Y21696D01*
X81272Y21689D01*
X81265Y21685D01*
X81261D01*
X81184Y21634D01*
X81119Y21579D01*
X81061Y21521D01*
X81013Y21467D01*
X80977Y21416D01*
X80948Y21376D01*
X80937Y21361D01*
X80933Y21350D01*
X80926Y21343D01*
Y21339D01*
X80886Y21256D01*
X80861Y21172D01*
X80839Y21095D01*
X80824Y21026D01*
X80817Y20964D01*
X80813Y20939D01*
Y20917D01*
X80809Y20902D01*
Y20877D01*
X80813Y20764D01*
X80828Y20659D01*
X80846Y20568D01*
X80857Y20527D01*
X80868Y20491D01*
X80879Y20458D01*
X80890Y20429D01*
X80901Y20404D01*
X80908Y20382D01*
X80915Y20364D01*
X80922Y20353D01*
X80926Y20346D01*
Y20342D01*
X80977Y20266D01*
X81032Y20200D01*
X81090Y20142D01*
X81144Y20094D01*
X81195Y20058D01*
X81235Y20032D01*
X81250Y20022D01*
X81261Y20014D01*
X81268Y20011D01*
X81272D01*
X81359Y19974D01*
X81443Y19945D01*
X81523Y19927D01*
X81599Y19912D01*
X81661Y19905D01*
X81687Y19902D01*
X81709D01*
X81727Y19898D01*
X81752D01*
X81829Y19902D01*
X81898Y19909D01*
X81967Y19923D01*
X82029Y19941D01*
X82091Y19960D01*
X82145Y19982D01*
X82196Y20007D01*
X82244Y20032D01*
X82284Y20058D01*
X82320Y20084D01*
X82353Y20105D01*
X82378Y20123D01*
X82400Y20142D01*
X82415Y20156D01*
X82422Y20164D01*
X82426Y20167D01*
X82473Y20222D01*
X82513Y20276D01*
X82549Y20331D01*
X82582Y20389D01*
X82608Y20448D01*
X82630Y20506D01*
X82648Y20560D01*
X82662Y20615D01*
X82673Y20662D01*
X82680Y20709D01*
X82688Y20750D01*
X82691Y20786D01*
X82695Y20815D01*
Y20855D01*
X82691Y20932D01*
X82684Y21004D01*
X82670Y21070D01*
X82655Y21135D01*
X82633Y21194D01*
X82611Y21252D01*
X82586Y21303D01*
X82564Y21350D01*
X82538Y21390D01*
X82513Y21430D01*
X82491Y21459D01*
X82469Y21488D01*
X82455Y21507D01*
X82440Y21525D01*
X82433Y21532D01*
X82429Y21536D01*
X82378Y21583D01*
X82324Y21623D01*
X82269Y21660D01*
X82211Y21692D01*
X82153Y21718D01*
X82098Y21740D01*
X82043Y21758D01*
X81989Y21772D01*
X81942Y21783D01*
X81894Y21791D01*
X81854Y21798D01*
X81818Y21802D01*
X81789Y21805D01*
D02*
G37*
G36*
X73573D02*
X73533D01*
X73435Y21802D01*
X73344Y21787D01*
X73260Y21769D01*
X73187Y21747D01*
X73158Y21732D01*
X73129Y21722D01*
X73104Y21714D01*
X73085Y21703D01*
X73067Y21696D01*
X73056Y21689D01*
X73049Y21685D01*
X73045D01*
X72969Y21634D01*
X72903Y21579D01*
X72845Y21521D01*
X72798Y21467D01*
X72761Y21416D01*
X72732Y21376D01*
X72721Y21361D01*
X72718Y21350D01*
X72711Y21343D01*
Y21339D01*
X72671Y21256D01*
X72645Y21172D01*
X72623Y21095D01*
X72609Y21026D01*
X72601Y20964D01*
X72598Y20939D01*
Y20917D01*
X72594Y20902D01*
Y20877D01*
X72598Y20764D01*
X72612Y20659D01*
X72630Y20568D01*
X72641Y20527D01*
X72652Y20491D01*
X72663Y20458D01*
X72674Y20429D01*
X72685Y20404D01*
X72692Y20382D01*
X72700Y20364D01*
X72707Y20353D01*
X72711Y20346D01*
Y20342D01*
X72761Y20266D01*
X72816Y20200D01*
X72874Y20142D01*
X72929Y20094D01*
X72980Y20058D01*
X73020Y20032D01*
X73035Y20022D01*
X73045Y20014D01*
X73053Y20011D01*
X73056D01*
X73144Y19974D01*
X73227Y19945D01*
X73308Y19927D01*
X73384Y19912D01*
X73446Y19905D01*
X73471Y19902D01*
X73493D01*
X73511Y19898D01*
X73537D01*
X73613Y19902D01*
X73682Y19909D01*
X73752Y19923D01*
X73813Y19941D01*
X73875Y19960D01*
X73930Y19982D01*
X73981Y20007D01*
X74028Y20032D01*
X74068Y20058D01*
X74105Y20084D01*
X74137Y20105D01*
X74163Y20123D01*
X74185Y20142D01*
X74199Y20156D01*
X74207Y20164D01*
X74210Y20167D01*
X74257Y20222D01*
X74298Y20276D01*
X74334Y20331D01*
X74367Y20389D01*
X74392Y20448D01*
X74414Y20506D01*
X74432Y20560D01*
X74447Y20615D01*
X74458Y20662D01*
X74465Y20709D01*
X74472Y20750D01*
X74476Y20786D01*
X74480Y20815D01*
Y20855D01*
X74476Y20932D01*
X74469Y21004D01*
X74454Y21070D01*
X74440Y21135D01*
X74418Y21194D01*
X74396Y21252D01*
X74370Y21303D01*
X74348Y21350D01*
X74323Y21390D01*
X74298Y21430D01*
X74276Y21459D01*
X74254Y21488D01*
X74239Y21507D01*
X74225Y21525D01*
X74217Y21532D01*
X74214Y21536D01*
X74163Y21583D01*
X74108Y21623D01*
X74054Y21660D01*
X73995Y21692D01*
X73937Y21718D01*
X73883Y21740D01*
X73828Y21758D01*
X73773Y21772D01*
X73726Y21783D01*
X73679Y21791D01*
X73639Y21798D01*
X73602Y21802D01*
X73573Y21805D01*
D02*
G37*
G36*
X48399D02*
X48359D01*
X48293Y21802D01*
X48232Y21794D01*
X48170Y21780D01*
X48115Y21765D01*
X48060Y21747D01*
X48013Y21725D01*
X47966Y21700D01*
X47926Y21678D01*
X47889Y21652D01*
X47857Y21627D01*
X47828Y21605D01*
X47806Y21587D01*
X47787Y21572D01*
X47773Y21558D01*
X47766Y21550D01*
X47762Y21547D01*
X47722Y21496D01*
X47686Y21441D01*
X47653Y21387D01*
X47624Y21328D01*
X47602Y21267D01*
X47584Y21208D01*
X47554Y21095D01*
X47544Y21041D01*
X47536Y20993D01*
X47533Y20950D01*
X47529Y20913D01*
X47525Y20881D01*
Y20837D01*
X47529Y20768D01*
X47533Y20699D01*
X47544Y20637D01*
X47554Y20579D01*
X47565Y20520D01*
X47584Y20469D01*
X47598Y20422D01*
X47616Y20378D01*
X47631Y20338D01*
X47649Y20305D01*
X47664Y20276D01*
X47675Y20251D01*
X47689Y20233D01*
X47696Y20218D01*
X47700Y20211D01*
X47704Y20207D01*
X47751Y20153D01*
X47798Y20105D01*
X47853Y20065D01*
X47911Y20029D01*
X47969Y20000D01*
X48028Y19974D01*
X48086Y19952D01*
X48144Y19938D01*
X48195Y19923D01*
X48246Y19916D01*
X48293Y19909D01*
X48333Y19902D01*
X48366D01*
X48388Y19898D01*
X48410D01*
X48515Y19905D01*
X48614Y19920D01*
X48697Y19941D01*
X48770Y19967D01*
X48803Y19982D01*
X48829Y19993D01*
X48854Y20003D01*
X48872Y20014D01*
X48887Y20025D01*
X48901Y20029D01*
X48905Y20036D01*
X48909D01*
X48978Y20094D01*
X49040Y20156D01*
X49091Y20225D01*
X49131Y20291D01*
X49163Y20349D01*
X49174Y20375D01*
X49185Y20396D01*
X49193Y20415D01*
X49200Y20429D01*
X49203Y20437D01*
Y20440D01*
X48723Y20520D01*
X48705Y20473D01*
X48687Y20429D01*
X48668Y20396D01*
X48647Y20367D01*
X48632Y20346D01*
X48617Y20331D01*
X48606Y20324D01*
X48603Y20320D01*
X48574Y20298D01*
X48541Y20284D01*
X48508Y20273D01*
X48479Y20266D01*
X48454Y20262D01*
X48432Y20258D01*
X48414D01*
X48355Y20262D01*
X48301Y20276D01*
X48250Y20295D01*
X48210Y20316D01*
X48177Y20338D01*
X48155Y20357D01*
X48137Y20371D01*
X48133Y20375D01*
X48097Y20422D01*
X48071Y20477D01*
X48050Y20535D01*
X48035Y20586D01*
X48028Y20637D01*
X48024Y20673D01*
X48020Y20688D01*
Y20699D01*
Y20706D01*
Y20709D01*
X49229D01*
Y20811D01*
X49222Y20902D01*
X49211Y20990D01*
X49196Y21070D01*
X49178Y21146D01*
X49160Y21212D01*
X49138Y21274D01*
X49116Y21328D01*
X49094Y21376D01*
X49072Y21419D01*
X49054Y21452D01*
X49036Y21481D01*
X49021Y21503D01*
X49011Y21521D01*
X49003Y21529D01*
X49000Y21532D01*
X48956Y21579D01*
X48905Y21623D01*
X48854Y21660D01*
X48803Y21689D01*
X48748Y21718D01*
X48694Y21740D01*
X48643Y21758D01*
X48592Y21772D01*
X48545Y21783D01*
X48501Y21791D01*
X48461Y21798D01*
X48428Y21802D01*
X48399Y21805D01*
D02*
G37*
G36*
X60524Y22500D02*
X60160D01*
X59537Y19894D01*
X59894D01*
X60524Y22500D01*
D02*
G37*
G36*
X32376Y22471D02*
X32339D01*
X32274Y22468D01*
X32212Y22460D01*
X32150Y22446D01*
X32095Y22431D01*
X32044Y22409D01*
X31997Y22388D01*
X31957Y22366D01*
X31917Y22340D01*
X31884Y22315D01*
X31852Y22293D01*
X31826Y22271D01*
X31808Y22249D01*
X31790Y22235D01*
X31779Y22220D01*
X31771Y22213D01*
X31768Y22209D01*
X31724Y22147D01*
X31688Y22074D01*
X31655Y21998D01*
X31626Y21918D01*
X31604Y21834D01*
X31582Y21747D01*
X31568Y21663D01*
X31553Y21579D01*
X31546Y21499D01*
X31539Y21427D01*
X31531Y21358D01*
X31528Y21299D01*
X31524Y21252D01*
Y21183D01*
X31528Y21052D01*
X31535Y20932D01*
X31546Y20819D01*
X31560Y20717D01*
X31575Y20626D01*
X31593Y20542D01*
X31615Y20469D01*
X31637Y20404D01*
X31655Y20349D01*
X31677Y20298D01*
X31695Y20258D01*
X31713Y20225D01*
X31724Y20204D01*
X31735Y20185D01*
X31742Y20175D01*
X31746Y20171D01*
X31790Y20120D01*
X31837Y20080D01*
X31884Y20040D01*
X31935Y20011D01*
X31983Y19982D01*
X32034Y19960D01*
X32081Y19941D01*
X32128Y19927D01*
X32172Y19912D01*
X32212Y19905D01*
X32248Y19898D01*
X32277Y19894D01*
X32303D01*
X32325Y19891D01*
X32339D01*
X32405Y19894D01*
X32467Y19902D01*
X32529Y19916D01*
X32583Y19931D01*
X32634Y19949D01*
X32681Y19971D01*
X32721Y19996D01*
X32761Y20022D01*
X32794Y20043D01*
X32827Y20069D01*
X32853Y20091D01*
X32874Y20109D01*
X32889Y20123D01*
X32900Y20138D01*
X32907Y20145D01*
X32911Y20149D01*
X32954Y20211D01*
X32991Y20284D01*
X33027Y20360D01*
X33053Y20444D01*
X33078Y20527D01*
X33096Y20611D01*
X33115Y20699D01*
X33129Y20782D01*
X33136Y20862D01*
X33144Y20935D01*
X33151Y21004D01*
X33155Y21063D01*
X33158Y21110D01*
Y21179D01*
X33155Y21310D01*
X33147Y21430D01*
X33136Y21540D01*
X33118Y21641D01*
X33100Y21736D01*
X33082Y21820D01*
X33056Y21896D01*
X33035Y21962D01*
X33013Y22024D01*
X32991Y22071D01*
X32969Y22115D01*
X32951Y22151D01*
X32933Y22176D01*
X32922Y22195D01*
X32914Y22206D01*
X32911Y22209D01*
X32871Y22256D01*
X32827Y22297D01*
X32780Y22329D01*
X32732Y22362D01*
X32685Y22388D01*
X32638Y22406D01*
X32594Y22424D01*
X32547Y22439D01*
X32503Y22449D01*
X32467Y22457D01*
X32430Y22464D01*
X32401Y22468D01*
X32376Y22471D01*
D02*
G37*
G36*
X90976Y22457D02*
X90121D01*
Y22082D01*
X90517D01*
Y19607D01*
X90121D01*
Y19228D01*
X90976D01*
Y22457D01*
D02*
G37*
G36*
X51460D02*
X50605D01*
Y19228D01*
X51460D01*
Y19607D01*
X51063D01*
Y22078D01*
X51460D01*
Y22457D01*
D02*
G37*
%LPD*%
G36*
X83922Y21427D02*
X83980Y21412D01*
X84027Y21390D01*
X84071Y21365D01*
X84104Y21339D01*
X84126Y21317D01*
X84144Y21303D01*
X84147Y21296D01*
X84169Y21267D01*
X84187Y21237D01*
X84217Y21165D01*
X84235Y21092D01*
X84249Y21015D01*
X84257Y20950D01*
X84260Y20917D01*
X84264Y20892D01*
Y20870D01*
Y20855D01*
Y20844D01*
Y20841D01*
X84260Y20742D01*
X84246Y20655D01*
X84228Y20582D01*
X84206Y20524D01*
X84184Y20477D01*
X84166Y20444D01*
X84151Y20426D01*
X84147Y20418D01*
X84100Y20371D01*
X84053Y20338D01*
X84005Y20313D01*
X83962Y20298D01*
X83922Y20287D01*
X83893Y20284D01*
X83871Y20280D01*
X83864D01*
X83827Y20284D01*
X83791Y20287D01*
X83725Y20309D01*
X83671Y20338D01*
X83623Y20375D01*
X83587Y20407D01*
X83561Y20437D01*
X83547Y20458D01*
X83539Y20462D01*
Y20466D01*
X83525Y20491D01*
X83514Y20520D01*
X83492Y20586D01*
X83478Y20659D01*
X83470Y20728D01*
X83463Y20790D01*
Y20815D01*
X83459Y20841D01*
Y20859D01*
Y20877D01*
Y20884D01*
Y20888D01*
X83463Y20983D01*
X83478Y21066D01*
X83496Y21135D01*
X83518Y21194D01*
X83536Y21237D01*
X83554Y21270D01*
X83569Y21288D01*
X83572Y21296D01*
X83620Y21343D01*
X83667Y21376D01*
X83714Y21401D01*
X83762Y21416D01*
X83798Y21427D01*
X83831Y21430D01*
X83853Y21434D01*
X83860D01*
X83922Y21427D01*
D02*
G37*
G36*
X42728Y22027D02*
X42761D01*
X42793Y22024D01*
X42841D01*
X42877Y22020D01*
X42903Y22016D01*
X42917Y22013D01*
X42921D01*
X42964Y22002D01*
X43005Y21987D01*
X43041Y21969D01*
X43070Y21947D01*
X43092Y21929D01*
X43110Y21914D01*
X43121Y21903D01*
X43125Y21900D01*
X43154Y21863D01*
X43172Y21827D01*
X43187Y21787D01*
X43197Y21751D01*
X43205Y21718D01*
X43208Y21692D01*
Y21678D01*
Y21670D01*
X43205Y21631D01*
X43201Y21594D01*
X43190Y21561D01*
X43179Y21532D01*
X43168Y21507D01*
X43161Y21488D01*
X43154Y21478D01*
X43150Y21474D01*
X43128Y21445D01*
X43099Y21419D01*
X43074Y21397D01*
X43048Y21379D01*
X43026Y21368D01*
X43008Y21358D01*
X42994Y21354D01*
X42990Y21350D01*
X42968Y21343D01*
X42943Y21339D01*
X42884Y21328D01*
X42819Y21321D01*
X42753Y21317D01*
X42688D01*
X42662Y21314D01*
X42313D01*
Y22031D01*
X42691D01*
X42728Y22027D01*
D02*
G37*
G36*
X39426Y20935D02*
X38731D01*
X39073Y21871D01*
X39426Y20935D01*
D02*
G37*
G36*
X36886D02*
X36190D01*
X36533Y21871D01*
X36886Y20935D01*
D02*
G37*
G36*
X28190Y22035D02*
X28284D01*
X28306Y22031D01*
X28346D01*
X28361Y22027D01*
X28364D01*
X28408Y22020D01*
X28448Y22009D01*
X28481Y21994D01*
X28510Y21980D01*
X28528Y21965D01*
X28546Y21951D01*
X28554Y21944D01*
X28557Y21940D01*
X28579Y21911D01*
X28594Y21878D01*
X28608Y21849D01*
X28616Y21820D01*
X28619Y21791D01*
X28623Y21769D01*
Y21754D01*
Y21751D01*
X28619Y21707D01*
X28612Y21667D01*
X28597Y21634D01*
X28586Y21605D01*
X28572Y21579D01*
X28557Y21565D01*
X28550Y21554D01*
X28546Y21550D01*
X28517Y21525D01*
X28484Y21507D01*
X28452Y21492D01*
X28419Y21481D01*
X28386Y21470D01*
X28364Y21467D01*
X28350Y21463D01*
X28328D01*
X28306Y21459D01*
X28193D01*
X28131Y21456D01*
X27644D01*
Y22038D01*
X28150D01*
X28190Y22035D01*
D02*
G37*
G36*
X28222Y21034D02*
X28266Y21030D01*
X28310D01*
X28346Y21026D01*
X28379Y21023D01*
X28404Y21019D01*
X28430Y21015D01*
X28448Y21012D01*
X28477Y21008D01*
X28495Y21001D01*
X28499D01*
X28536Y20986D01*
X28568Y20968D01*
X28597Y20950D01*
X28619Y20928D01*
X28637Y20913D01*
X28648Y20899D01*
X28656Y20888D01*
X28659Y20884D01*
X28677Y20852D01*
X28692Y20819D01*
X28703Y20790D01*
X28710Y20757D01*
X28714Y20731D01*
X28717Y20709D01*
Y20695D01*
Y20691D01*
X28714Y20644D01*
X28707Y20600D01*
X28696Y20564D01*
X28681Y20535D01*
X28666Y20509D01*
X28656Y20491D01*
X28648Y20480D01*
X28645Y20477D01*
X28616Y20451D01*
X28586Y20429D01*
X28554Y20411D01*
X28525Y20396D01*
X28499Y20389D01*
X28477Y20382D01*
X28463Y20378D01*
X28459D01*
X28444Y20375D01*
X28423D01*
X28375Y20371D01*
X28317Y20367D01*
X28259D01*
X28204Y20364D01*
X27644D01*
Y21037D01*
X28172D01*
X28222Y21034D01*
D02*
G37*
G36*
X89131Y21430D02*
X89178Y21416D01*
X89222Y21397D01*
X89258Y21379D01*
X89287Y21358D01*
X89309Y21339D01*
X89324Y21325D01*
X89327Y21321D01*
X89360Y21277D01*
X89389Y21226D01*
X89407Y21172D01*
X89422Y21121D01*
X89429Y21077D01*
X89433Y21037D01*
X89436Y21023D01*
Y21015D01*
Y21008D01*
Y21004D01*
X88716D01*
X88719Y21074D01*
X88730Y21135D01*
X88745Y21190D01*
X88767Y21234D01*
X88785Y21270D01*
X88803Y21296D01*
X88814Y21314D01*
X88818Y21317D01*
X88858Y21358D01*
X88901Y21387D01*
X88945Y21405D01*
X88985Y21419D01*
X89021Y21427D01*
X89051Y21434D01*
X89076D01*
X89131Y21430D01*
D02*
G37*
G36*
X81821Y21405D02*
X81883Y21390D01*
X81934Y21365D01*
X81982Y21339D01*
X82018Y21314D01*
X82047Y21288D01*
X82062Y21274D01*
X82069Y21267D01*
X82113Y21208D01*
X82145Y21139D01*
X82167Y21070D01*
X82185Y21004D01*
X82193Y20946D01*
X82196Y20917D01*
Y20895D01*
X82200Y20877D01*
Y20862D01*
Y20855D01*
Y20852D01*
X82193Y20757D01*
X82178Y20670D01*
X82160Y20600D01*
X82134Y20538D01*
X82109Y20495D01*
X82091Y20458D01*
X82076Y20440D01*
X82069Y20433D01*
X82018Y20386D01*
X81967Y20349D01*
X81912Y20327D01*
X81862Y20309D01*
X81818Y20298D01*
X81785Y20295D01*
X81770Y20291D01*
X81752D01*
X81683Y20298D01*
X81621Y20313D01*
X81567Y20335D01*
X81523Y20364D01*
X81483Y20389D01*
X81454Y20411D01*
X81439Y20426D01*
X81432Y20433D01*
X81388Y20491D01*
X81359Y20560D01*
X81337Y20629D01*
X81319Y20699D01*
X81312Y20757D01*
X81308Y20782D01*
Y20808D01*
X81305Y20826D01*
Y20841D01*
Y20848D01*
Y20852D01*
X81312Y20946D01*
X81326Y21030D01*
X81345Y21103D01*
X81370Y21161D01*
X81392Y21205D01*
X81414Y21241D01*
X81428Y21259D01*
X81432Y21267D01*
X81483Y21314D01*
X81537Y21350D01*
X81592Y21376D01*
X81643Y21394D01*
X81687Y21405D01*
X81719Y21408D01*
X81734Y21412D01*
X81752D01*
X81821Y21405D01*
D02*
G37*
G36*
X73606D02*
X73668Y21390D01*
X73719Y21365D01*
X73766Y21339D01*
X73803Y21314D01*
X73832Y21288D01*
X73846Y21274D01*
X73853Y21267D01*
X73897Y21208D01*
X73930Y21139D01*
X73952Y21070D01*
X73970Y21004D01*
X73977Y20946D01*
X73981Y20917D01*
Y20895D01*
X73984Y20877D01*
Y20862D01*
Y20855D01*
Y20852D01*
X73977Y20757D01*
X73963Y20670D01*
X73944Y20600D01*
X73919Y20538D01*
X73893Y20495D01*
X73875Y20458D01*
X73861Y20440D01*
X73853Y20433D01*
X73803Y20386D01*
X73752Y20349D01*
X73697Y20327D01*
X73646Y20309D01*
X73602Y20298D01*
X73570Y20295D01*
X73555Y20291D01*
X73537D01*
X73468Y20298D01*
X73406Y20313D01*
X73351Y20335D01*
X73308Y20364D01*
X73267Y20389D01*
X73238Y20411D01*
X73224Y20426D01*
X73216Y20433D01*
X73173Y20491D01*
X73144Y20560D01*
X73122Y20629D01*
X73104Y20699D01*
X73096Y20757D01*
X73093Y20782D01*
Y20808D01*
X73089Y20826D01*
Y20841D01*
Y20848D01*
Y20852D01*
X73096Y20946D01*
X73111Y21030D01*
X73129Y21103D01*
X73155Y21161D01*
X73176Y21205D01*
X73198Y21241D01*
X73213Y21259D01*
X73216Y21267D01*
X73267Y21314D01*
X73322Y21350D01*
X73377Y21376D01*
X73428Y21394D01*
X73471Y21405D01*
X73504Y21408D01*
X73519Y21412D01*
X73537D01*
X73606Y21405D01*
D02*
G37*
G36*
X48443Y21430D02*
X48490Y21416D01*
X48534Y21397D01*
X48570Y21379D01*
X48599Y21358D01*
X48621Y21339D01*
X48636Y21325D01*
X48639Y21321D01*
X48672Y21277D01*
X48701Y21226D01*
X48719Y21172D01*
X48734Y21121D01*
X48741Y21077D01*
X48745Y21037D01*
X48748Y21023D01*
Y21015D01*
Y21008D01*
Y21004D01*
X48028D01*
X48031Y21074D01*
X48042Y21135D01*
X48057Y21190D01*
X48079Y21234D01*
X48097Y21270D01*
X48115Y21296D01*
X48126Y21314D01*
X48130Y21317D01*
X48170Y21358D01*
X48213Y21387D01*
X48257Y21405D01*
X48297Y21419D01*
X48333Y21427D01*
X48363Y21434D01*
X48388D01*
X48443Y21430D01*
D02*
G37*
G36*
X32372Y22067D02*
X32401Y22064D01*
X32427Y22053D01*
X32449Y22042D01*
X32467Y22031D01*
X32481Y22024D01*
X32489Y22016D01*
X32492Y22013D01*
X32514Y21987D01*
X32536Y21954D01*
X32554Y21918D01*
X32572Y21882D01*
X32583Y21845D01*
X32594Y21816D01*
X32598Y21798D01*
X32601Y21794D01*
Y21791D01*
X32609Y21758D01*
X32616Y21718D01*
X32623Y21670D01*
X32631Y21623D01*
X32638Y21525D01*
X32641Y21423D01*
X32645Y21376D01*
Y21328D01*
X32649Y21288D01*
Y21252D01*
Y21223D01*
Y21197D01*
Y21183D01*
Y21179D01*
Y21099D01*
X32645Y21023D01*
Y20953D01*
X32641Y20892D01*
X32638Y20833D01*
X32634Y20782D01*
X32627Y20735D01*
X32623Y20695D01*
X32620Y20659D01*
X32612Y20629D01*
X32609Y20604D01*
X32605Y20582D01*
X32601Y20568D01*
Y20553D01*
X32598Y20549D01*
Y20546D01*
X32583Y20495D01*
X32565Y20455D01*
X32547Y20418D01*
X32532Y20393D01*
X32518Y20371D01*
X32503Y20357D01*
X32496Y20349D01*
X32492Y20346D01*
X32467Y20327D01*
X32441Y20313D01*
X32416Y20305D01*
X32390Y20298D01*
X32372Y20295D01*
X32354Y20291D01*
X32339D01*
X32307Y20295D01*
X32277Y20298D01*
X32252Y20309D01*
X32230Y20320D01*
X32212Y20327D01*
X32197Y20338D01*
X32190Y20342D01*
X32186Y20346D01*
X32165Y20371D01*
X32143Y20404D01*
X32125Y20440D01*
X32106Y20477D01*
X32095Y20509D01*
X32085Y20538D01*
X32081Y20557D01*
X32077Y20564D01*
X32070Y20600D01*
X32063Y20640D01*
X32055Y20684D01*
X32052Y20731D01*
X32044Y20833D01*
X32041Y20935D01*
X32037Y20983D01*
Y21030D01*
X32034Y21070D01*
Y21106D01*
Y21135D01*
Y21161D01*
Y21175D01*
Y21179D01*
Y21259D01*
X32037Y21336D01*
Y21401D01*
X32041Y21467D01*
X32044Y21521D01*
X32048Y21576D01*
X32052Y21620D01*
X32059Y21663D01*
X32063Y21700D01*
X32066Y21729D01*
X32070Y21754D01*
X32074Y21776D01*
X32077Y21791D01*
Y21805D01*
X32081Y21809D01*
Y21813D01*
X32095Y21863D01*
X32114Y21907D01*
X32128Y21940D01*
X32146Y21969D01*
X32161Y21987D01*
X32172Y22002D01*
X32179Y22009D01*
X32183Y22013D01*
X32208Y22031D01*
X32237Y22045D01*
X32263Y22056D01*
X32288Y22064D01*
X32307Y22067D01*
X32325Y22071D01*
X32339D01*
X32372Y22067D01*
D02*
G37*
%LPC*%
G36*
X90260Y33722D02*
X89556D01*
D01*
X90260D01*
D02*
G37*
G36*
X97608D02*
X95970D01*
X96779D01*
X96694Y33719D01*
X96618Y33710D01*
X96552Y33699D01*
X96493Y33687D01*
X96467Y33678D01*
X96444Y33672D01*
X96426Y33667D01*
X96409Y33661D01*
X96397Y33655D01*
X96389Y33652D01*
X96383Y33649D01*
X96380D01*
X96322Y33620D01*
X96272Y33588D01*
X96229Y33553D01*
X96194Y33521D01*
X96165Y33492D01*
X96147Y33469D01*
X96133Y33451D01*
X96130Y33448D01*
Y33445D01*
X96100Y33396D01*
X96080Y33344D01*
X96066Y33294D01*
X96057Y33250D01*
X96051Y33213D01*
X96045Y33184D01*
Y33172D01*
Y33163D01*
Y33160D01*
Y33157D01*
X96048Y33114D01*
X96054Y33070D01*
X96063Y33032D01*
X96074Y32994D01*
X96104Y32925D01*
X96138Y32863D01*
X96153Y32837D01*
X96170Y32817D01*
X96185Y32796D01*
X96200Y32779D01*
X96211Y32767D01*
X96220Y32759D01*
X96226Y32753D01*
X96229Y32750D01*
X96255Y32730D01*
X96287Y32709D01*
X96319Y32689D01*
X96357Y32671D01*
X96429Y32636D01*
X96505Y32607D01*
X96543Y32596D01*
X96575Y32584D01*
X96607Y32575D01*
X96633Y32567D01*
X96653Y32561D01*
X96671Y32555D01*
X96683Y32552D01*
X96685D01*
X96732Y32540D01*
X96773Y32529D01*
X96811Y32520D01*
X96846Y32511D01*
X96875Y32503D01*
X96901Y32497D01*
X96924Y32488D01*
X96944Y32482D01*
X96962Y32479D01*
X96977Y32473D01*
X96997Y32468D01*
X97009Y32462D01*
X97011D01*
X97049Y32447D01*
X97078Y32433D01*
X97105Y32418D01*
X97125Y32404D01*
X97139Y32392D01*
X97148Y32383D01*
X97154Y32377D01*
X97157Y32375D01*
X97171Y32354D01*
X97183Y32334D01*
X97189Y32313D01*
X97195Y32296D01*
X97198Y32278D01*
X97201Y32264D01*
Y32255D01*
Y32252D01*
X97198Y32212D01*
X97186Y32177D01*
X97168Y32142D01*
X97151Y32113D01*
X97131Y32089D01*
X97116Y32072D01*
X97105Y32060D01*
X97099Y32057D01*
X97058Y32031D01*
X97011Y32011D01*
X96962Y31996D01*
X96915Y31988D01*
X96872Y31982D01*
X96837Y31976D01*
X96805D01*
X96738Y31979D01*
X96680Y31990D01*
X96630Y32005D01*
X96587Y32022D01*
X96552Y32040D01*
X96528Y32054D01*
X96514Y32066D01*
X96508Y32069D01*
X96470Y32110D01*
X96441Y32153D01*
X96415Y32203D01*
X96397Y32252D01*
X96383Y32296D01*
X96371Y32331D01*
X96368Y32342D01*
Y32354D01*
X96365Y32360D01*
Y32363D01*
X95970Y32325D01*
X95978Y32264D01*
X95990Y32206D01*
X96007Y32151D01*
X96022Y32101D01*
X96042Y32054D01*
X96063Y32011D01*
X96083Y31973D01*
X96104Y31938D01*
X96124Y31909D01*
X96144Y31883D01*
X96162Y31859D01*
X96179Y31839D01*
X96191Y31824D01*
X96202Y31816D01*
X96208Y31810D01*
X96211Y31807D01*
X96252Y31775D01*
X96295Y31749D01*
X96342Y31726D01*
X96391Y31705D01*
X96438Y31691D01*
X96488Y31676D01*
X96584Y31656D01*
X96627Y31647D01*
X96668Y31641D01*
X96703Y31638D01*
X96735Y31635D01*
X96761Y31633D01*
X96799D01*
X96892Y31635D01*
X96977Y31644D01*
X97052Y31656D01*
X97084Y31662D01*
X97116Y31670D01*
X97142Y31676D01*
X97166Y31682D01*
X97186Y31688D01*
X97203Y31694D01*
X97218Y31699D01*
X97227Y31702D01*
X97233Y31705D01*
X97236D01*
X97299Y31737D01*
X97352Y31772D01*
X97401Y31807D01*
X97439Y31845D01*
X97468Y31877D01*
X97492Y31906D01*
X97503Y31923D01*
X97509Y31926D01*
Y31929D01*
X97541Y31988D01*
X97567Y32043D01*
X97585Y32098D01*
X97596Y32151D01*
X97602Y32191D01*
X97605Y32212D01*
X97608Y32226D01*
Y32278D01*
Y32255D01*
X97605Y32325D01*
X97596Y32386D01*
X97582Y32441D01*
X97567Y32488D01*
X97553Y32526D01*
X97538Y32552D01*
X97529Y32570D01*
X97526Y32575D01*
X97494Y32622D01*
X97457Y32663D01*
X97419Y32697D01*
X97384Y32727D01*
X97352Y32750D01*
X97326Y32767D01*
X97308Y32779D01*
X97305Y32782D01*
X97302D01*
X97273Y32796D01*
X97244Y32811D01*
X97174Y32837D01*
X97102Y32860D01*
X97032Y32884D01*
X97000Y32893D01*
X96968Y32901D01*
X96939Y32910D01*
X96915Y32916D01*
X96895Y32922D01*
X96880Y32925D01*
X96869Y32927D01*
X96866D01*
X96813Y32942D01*
X96767Y32954D01*
X96723Y32965D01*
X96683Y32977D01*
X96650Y32989D01*
X96618Y33000D01*
X96592Y33012D01*
X96569Y33020D01*
X96549Y33029D01*
X96534Y33038D01*
X96520Y33044D01*
X96511Y33050D01*
X96496Y33058D01*
X96493Y33061D01*
X96473Y33082D01*
X96459Y33102D01*
X96450Y33122D01*
X96444Y33143D01*
X96438Y33157D01*
X96435Y33172D01*
Y33181D01*
Y33184D01*
X96438Y33213D01*
X96444Y33236D01*
X96456Y33259D01*
X96467Y33277D01*
X96479Y33291D01*
X96491Y33300D01*
X96496Y33306D01*
X96499Y33309D01*
X96540Y33335D01*
X96584Y33352D01*
X96630Y33367D01*
X96674Y33376D01*
X96712Y33381D01*
X96744Y33384D01*
X96773D01*
X96834Y33381D01*
X96886Y33373D01*
X96930Y33361D01*
X96965Y33349D01*
X96994Y33338D01*
X97014Y33326D01*
X97026Y33317D01*
X97029Y33314D01*
X97058Y33285D01*
X97084Y33250D01*
X97105Y33215D01*
X97119Y33178D01*
X97131Y33146D01*
X97136Y33119D01*
X97142Y33099D01*
Y33096D01*
Y33093D01*
X97550Y33108D01*
X97547Y33160D01*
X97538Y33207D01*
X97526Y33253D01*
X97512Y33294D01*
X97497Y33335D01*
X97480Y33373D01*
X97462Y33405D01*
X97445Y33437D01*
X97425Y33463D01*
X97407Y33486D01*
X97390Y33507D01*
X97375Y33524D01*
X97364Y33536D01*
X97355Y33544D01*
X97349Y33550D01*
X97346Y33553D01*
X97308Y33582D01*
X97268Y33608D01*
X97224Y33632D01*
X97177Y33652D01*
X97131Y33667D01*
X97084Y33681D01*
X96991Y33702D01*
X96947Y33707D01*
X96909Y33713D01*
X96872Y33716D01*
X96840Y33719D01*
X96813Y33722D01*
X97608D01*
D01*
D02*
G37*
G36*
X91194D02*
X90365D01*
X90281Y33719D01*
X90205Y33710D01*
X90138Y33699D01*
X90080Y33687D01*
X90054Y33678D01*
X90030Y33672D01*
X90013Y33667D01*
X89995Y33661D01*
X89984Y33655D01*
X89975Y33652D01*
X89969Y33649D01*
X89966D01*
X89908Y33620D01*
X89859Y33588D01*
X89815Y33553D01*
X89780Y33521D01*
X89751Y33492D01*
X89733Y33469D01*
X89719Y33451D01*
X89716Y33448D01*
Y33445D01*
X89687Y33396D01*
X89666Y33344D01*
X89652Y33294D01*
X89643Y33250D01*
X89637Y33213D01*
X89632Y33184D01*
Y33172D01*
Y33163D01*
Y33160D01*
Y33157D01*
X89635Y33114D01*
X89640Y33070D01*
X89649Y33032D01*
X89661Y32994D01*
X89690Y32925D01*
X89725Y32863D01*
X89739Y32837D01*
X89757Y32817D01*
X89771Y32796D01*
X89786Y32779D01*
X89798Y32767D01*
X89806Y32759D01*
X89812Y32753D01*
X89815Y32750D01*
X89841Y32730D01*
X89873Y32709D01*
X89905Y32689D01*
X89943Y32671D01*
X90016Y32636D01*
X90091Y32607D01*
X90129Y32596D01*
X90161Y32584D01*
X90193Y32575D01*
X90219Y32567D01*
X90240Y32561D01*
X90257Y32555D01*
X90269Y32552D01*
X90272D01*
X90318Y32540D01*
X90359Y32529D01*
X90397Y32520D01*
X90432Y32511D01*
X90461Y32503D01*
X90487Y32497D01*
X90510Y32488D01*
X90531Y32482D01*
X90548Y32479D01*
X90563Y32473D01*
X90583Y32468D01*
X90595Y32462D01*
X90598D01*
X90636Y32447D01*
X90665Y32433D01*
X90691Y32418D01*
X90711Y32404D01*
X90726Y32392D01*
X90734Y32383D01*
X90740Y32377D01*
X90743Y32375D01*
X90758Y32354D01*
X90769Y32334D01*
X90775Y32313D01*
X90781Y32296D01*
X90784Y32278D01*
X90787Y32264D01*
Y32255D01*
Y32252D01*
X90784Y32212D01*
X90772Y32177D01*
X90755Y32142D01*
X90737Y32113D01*
X90717Y32089D01*
X90702Y32072D01*
X90691Y32060D01*
X90685Y32057D01*
X90644Y32031D01*
X90598Y32011D01*
X90548Y31996D01*
X90502Y31988D01*
X90458Y31982D01*
X90423Y31976D01*
X90391D01*
X90324Y31979D01*
X90266Y31990D01*
X90216Y32005D01*
X90173Y32022D01*
X90138Y32040D01*
X90115Y32054D01*
X90100Y32066D01*
X90094Y32069D01*
X90057Y32110D01*
X90027Y32153D01*
X90001Y32203D01*
X89984Y32252D01*
X89969Y32296D01*
X89957Y32331D01*
X89955Y32342D01*
Y32354D01*
X89952Y32360D01*
Y32363D01*
X89556Y32325D01*
X89565Y32264D01*
X89576Y32206D01*
X89594Y32151D01*
X89608Y32101D01*
X89629Y32054D01*
X89649Y32011D01*
X89669Y31973D01*
X89690Y31938D01*
X89710Y31909D01*
X89731Y31883D01*
X89748Y31859D01*
X89766Y31839D01*
X89777Y31824D01*
X89789Y31816D01*
X89795Y31810D01*
X89798Y31807D01*
X89838Y31775D01*
X89882Y31749D01*
X89928Y31726D01*
X89978Y31705D01*
X90025Y31691D01*
X90074Y31676D01*
X90170Y31656D01*
X90214Y31647D01*
X90254Y31641D01*
X90289Y31638D01*
X90321Y31635D01*
X90347Y31633D01*
X90385D01*
X90478Y31635D01*
X90563Y31644D01*
X90639Y31656D01*
X90671Y31662D01*
X90702Y31670D01*
X90729Y31676D01*
X90752Y31682D01*
X90772Y31688D01*
X90790Y31694D01*
X90804Y31699D01*
X90813Y31702D01*
X90819Y31705D01*
X90822D01*
X90886Y31737D01*
X90938Y31772D01*
X90988Y31807D01*
X91026Y31845D01*
X91055Y31877D01*
X91078Y31906D01*
X91089Y31923D01*
X91095Y31926D01*
Y31929D01*
X91127Y31988D01*
X91154Y32043D01*
X91171Y32098D01*
X91183Y32151D01*
X91189Y32191D01*
X91191Y32212D01*
X91194Y32226D01*
Y32255D01*
D01*
X91191Y32325D01*
X91183Y32386D01*
X91168Y32441D01*
X91154Y32488D01*
X91139Y32526D01*
X91124Y32552D01*
X91116Y32570D01*
X91113Y32575D01*
X91081Y32622D01*
X91043Y32663D01*
X91005Y32697D01*
X90970Y32727D01*
X90938Y32750D01*
X90912Y32767D01*
X90895Y32779D01*
X90892Y32782D01*
X90889D01*
X90860Y32796D01*
X90830Y32811D01*
X90761Y32837D01*
X90688Y32860D01*
X90618Y32884D01*
X90586Y32893D01*
X90554Y32901D01*
X90525Y32910D01*
X90502Y32916D01*
X90481Y32922D01*
X90467Y32925D01*
X90455Y32927D01*
X90452D01*
X90400Y32942D01*
X90353Y32954D01*
X90310Y32965D01*
X90269Y32977D01*
X90237Y32989D01*
X90205Y33000D01*
X90179Y33012D01*
X90155Y33020D01*
X90135Y33029D01*
X90121Y33038D01*
X90106Y33044D01*
X90097Y33050D01*
X90083Y33058D01*
X90080Y33061D01*
X90059Y33082D01*
X90045Y33102D01*
X90036Y33122D01*
X90030Y33143D01*
X90025Y33157D01*
X90022Y33172D01*
Y33181D01*
Y33184D01*
X90025Y33213D01*
X90030Y33236D01*
X90042Y33259D01*
X90054Y33277D01*
X90065Y33291D01*
X90077Y33300D01*
X90083Y33306D01*
X90086Y33309D01*
X90126Y33335D01*
X90170Y33352D01*
X90216Y33367D01*
X90260Y33376D01*
X90298Y33381D01*
X90330Y33384D01*
X90359D01*
X90420Y33381D01*
X90473Y33373D01*
X90516Y33361D01*
X90551Y33349D01*
X90580Y33338D01*
X90601Y33326D01*
X90612Y33317D01*
X90615Y33314D01*
X90644Y33285D01*
X90671Y33250D01*
X90691Y33215D01*
X90705Y33178D01*
X90717Y33146D01*
X90723Y33119D01*
X90729Y33099D01*
Y33096D01*
Y33093D01*
X91136Y33108D01*
X91133Y33160D01*
X91124Y33207D01*
X91113Y33253D01*
X91098Y33294D01*
X91084Y33335D01*
X91066Y33373D01*
X91049Y33405D01*
X91031Y33437D01*
X91011Y33463D01*
X90993Y33486D01*
X90976Y33507D01*
X90961Y33524D01*
X90950Y33536D01*
X90941Y33544D01*
X90935Y33550D01*
X90932Y33553D01*
X90895Y33582D01*
X90854Y33608D01*
X90810Y33632D01*
X90764Y33652D01*
X90717Y33667D01*
X90671Y33681D01*
X90577Y33702D01*
X90534Y33707D01*
X90496Y33713D01*
X90458Y33716D01*
X90426Y33719D01*
X90400Y33722D01*
X91194D01*
D02*
G37*
G36*
X88523D02*
X88488D01*
X88404Y33719D01*
X88328Y33710D01*
X88261Y33699D01*
X88203Y33687D01*
X88177Y33678D01*
X88153Y33672D01*
X88136Y33667D01*
X88118Y33661D01*
X88107Y33655D01*
X88098Y33652D01*
X88092Y33649D01*
X88089D01*
X88031Y33620D01*
X87982Y33588D01*
X87938Y33553D01*
X87903Y33521D01*
X87874Y33492D01*
X87857Y33469D01*
X87842Y33451D01*
X87839Y33448D01*
Y33445D01*
X87810Y33396D01*
X87790Y33344D01*
X87775Y33294D01*
X87766Y33250D01*
X87761Y33213D01*
X87755Y33184D01*
Y33172D01*
Y33163D01*
Y33160D01*
Y33157D01*
X87758Y33114D01*
X87763Y33070D01*
X87772Y33032D01*
X87784Y32994D01*
X87813Y32925D01*
X87848Y32863D01*
X87862Y32837D01*
X87880Y32817D01*
X87894Y32796D01*
X87909Y32779D01*
X87920Y32767D01*
X87929Y32759D01*
X87935Y32753D01*
X87938Y32750D01*
X87964Y32730D01*
X87996Y32709D01*
X88028Y32689D01*
X88066Y32671D01*
X88139Y32636D01*
X88214Y32607D01*
X88252Y32596D01*
X88284Y32584D01*
X88316Y32575D01*
X88342Y32567D01*
X88363Y32561D01*
X88380Y32555D01*
X88392Y32552D01*
X88395D01*
X88441Y32540D01*
X88482Y32529D01*
X88520Y32520D01*
X88555Y32511D01*
X88584Y32503D01*
X88610Y32497D01*
X88634Y32488D01*
X88654Y32482D01*
X88671Y32479D01*
X88686Y32473D01*
X88706Y32468D01*
X88718Y32462D01*
X88721D01*
X88759Y32447D01*
X88788Y32433D01*
X88814Y32418D01*
X88834Y32404D01*
X88849Y32392D01*
X88858Y32383D01*
X88863Y32377D01*
X88866Y32375D01*
X88881Y32354D01*
X88893Y32334D01*
X88898Y32313D01*
X88904Y32296D01*
X88907Y32278D01*
X88910Y32264D01*
Y32255D01*
Y32252D01*
X88907Y32212D01*
X88895Y32177D01*
X88878Y32142D01*
X88860Y32113D01*
X88840Y32089D01*
X88826Y32072D01*
X88814Y32060D01*
X88808Y32057D01*
X88767Y32031D01*
X88721Y32011D01*
X88671Y31996D01*
X88625Y31988D01*
X88581Y31982D01*
X88546Y31976D01*
X88514D01*
X88447Y31979D01*
X88389Y31990D01*
X88340Y32005D01*
X88296Y32022D01*
X88261Y32040D01*
X88238Y32054D01*
X88223Y32066D01*
X88217Y32069D01*
X88179Y32110D01*
X88150Y32153D01*
X88124Y32203D01*
X88107Y32252D01*
X88092Y32296D01*
X88081Y32331D01*
X88078Y32342D01*
Y32354D01*
X88075Y32360D01*
Y32363D01*
X87679Y32325D01*
X87688Y32264D01*
X87699Y32206D01*
X87717Y32151D01*
X87731Y32101D01*
X87752Y32054D01*
X87772Y32011D01*
X87792Y31973D01*
X87813Y31938D01*
X87833Y31909D01*
X87854Y31883D01*
X87871Y31859D01*
X87888Y31839D01*
X87900Y31824D01*
X87912Y31816D01*
X87918Y31810D01*
X87920Y31807D01*
X87961Y31775D01*
X88005Y31749D01*
X88051Y31726D01*
X88101Y31705D01*
X88147Y31691D01*
X88197Y31676D01*
X88293Y31656D01*
X88337Y31647D01*
X88377Y31641D01*
X88412Y31638D01*
X88444Y31635D01*
X88471Y31633D01*
X89317D01*
X88508D01*
X88601Y31635D01*
X88686Y31644D01*
X88762Y31656D01*
X88793Y31662D01*
X88826Y31670D01*
X88852Y31676D01*
X88875Y31682D01*
X88895Y31688D01*
X88913Y31694D01*
X88927Y31699D01*
X88936Y31702D01*
X88942Y31705D01*
X88945D01*
X89009Y31737D01*
X89061Y31772D01*
X89111Y31807D01*
X89149Y31845D01*
X89178Y31877D01*
X89201Y31906D01*
X89213Y31923D01*
X89218Y31926D01*
Y31929D01*
X89250Y31988D01*
X89277Y32043D01*
X89294Y32098D01*
X89306Y32151D01*
X89311Y32191D01*
X89314Y32212D01*
X89317Y32226D01*
Y32255D01*
X89314Y32325D01*
X89306Y32386D01*
X89291Y32441D01*
X89277Y32488D01*
X89262Y32526D01*
X89248Y32552D01*
X89239Y32570D01*
X89236Y32575D01*
X89204Y32622D01*
X89166Y32663D01*
X89128Y32697D01*
X89093Y32727D01*
X89061Y32750D01*
X89035Y32767D01*
X89018Y32779D01*
X89015Y32782D01*
X89012D01*
X88983Y32796D01*
X88954Y32811D01*
X88884Y32837D01*
X88811Y32860D01*
X88741Y32884D01*
X88709Y32893D01*
X88677Y32901D01*
X88648Y32910D01*
X88625Y32916D01*
X88604Y32922D01*
X88590Y32925D01*
X88578Y32927D01*
X88575D01*
X88523Y32942D01*
X88476Y32954D01*
X88433Y32965D01*
X88392Y32977D01*
X88360Y32989D01*
X88328Y33000D01*
X88302Y33012D01*
X88279Y33020D01*
X88258Y33029D01*
X88244Y33038D01*
X88229Y33044D01*
X88220Y33050D01*
X88206Y33058D01*
X88203Y33061D01*
X88182Y33082D01*
X88168Y33102D01*
X88159Y33122D01*
X88153Y33143D01*
X88147Y33157D01*
X88145Y33172D01*
Y33181D01*
Y33184D01*
X88147Y33213D01*
X88153Y33236D01*
X88165Y33259D01*
X88177Y33277D01*
X88188Y33291D01*
X88200Y33300D01*
X88206Y33306D01*
X88209Y33309D01*
X88249Y33335D01*
X88293Y33352D01*
X88340Y33367D01*
X88383Y33376D01*
X88421Y33381D01*
X88453Y33384D01*
X88482D01*
X88543Y33381D01*
X88596Y33373D01*
X88639Y33361D01*
X88674Y33349D01*
X88703Y33338D01*
X88724Y33326D01*
X88735Y33317D01*
X88738Y33314D01*
X88767Y33285D01*
X88793Y33250D01*
X88814Y33215D01*
X88828Y33178D01*
X88840Y33146D01*
X88846Y33119D01*
X88852Y33099D01*
Y33096D01*
Y33093D01*
X89259Y33108D01*
X89256Y33160D01*
X89248Y33207D01*
X89236Y33253D01*
X89221Y33294D01*
X89207Y33335D01*
X89189Y33373D01*
X89172Y33405D01*
X89154Y33437D01*
X89134Y33463D01*
X89117Y33486D01*
X89099Y33507D01*
X89085Y33524D01*
X89073Y33536D01*
X89064Y33544D01*
X89058Y33550D01*
X89055Y33553D01*
X89018Y33582D01*
X88977Y33608D01*
X88933Y33632D01*
X88887Y33652D01*
X88840Y33667D01*
X88793Y33681D01*
X88700Y33702D01*
X88657Y33707D01*
X88619Y33713D01*
X88581Y33716D01*
X88549Y33719D01*
X88523Y33722D01*
D02*
G37*
G36*
X84527D02*
X84493D01*
X84388Y33719D01*
X84295Y33707D01*
X84254Y33699D01*
X84213Y33690D01*
X84175Y33681D01*
X84143Y33672D01*
X84114Y33661D01*
X84085Y33652D01*
X84065Y33643D01*
X84044Y33637D01*
X84030Y33629D01*
X84018Y33626D01*
X84012Y33620D01*
X84009D01*
X83919Y33568D01*
X83881Y33536D01*
X83844Y33507D01*
X83809Y33474D01*
X83777Y33443D01*
X83748Y33411D01*
X83721Y33381D01*
X83701Y33352D01*
X83681Y33326D01*
X83663Y33303D01*
X83649Y33283D01*
X83640Y33265D01*
X83631Y33253D01*
X83628Y33245D01*
X83625Y33242D01*
X83602Y33195D01*
X83582Y33149D01*
X83550Y33053D01*
X83526Y32956D01*
X83512Y32872D01*
X83506Y32831D01*
X83500Y32796D01*
X83497Y32765D01*
Y32735D01*
X83494Y32715D01*
Y32683D01*
X83500Y32575D01*
X83512Y32476D01*
X83532Y32386D01*
X83541Y32342D01*
X83553Y32305D01*
X83564Y32270D01*
X83573Y32238D01*
X83585Y32212D01*
X83593Y32188D01*
X83599Y32171D01*
X83605Y32156D01*
X83611Y32148D01*
Y32145D01*
X83660Y32057D01*
X83716Y31982D01*
X83774Y31915D01*
X83832Y31862D01*
X83858Y31839D01*
X83884Y31819D01*
X83905Y31801D01*
X83925Y31790D01*
X83940Y31778D01*
X83954Y31769D01*
X83960Y31766D01*
X83963Y31763D01*
X84009Y31740D01*
X84053Y31720D01*
X84149Y31688D01*
X84242Y31664D01*
X84327Y31650D01*
X84367Y31644D01*
X84402Y31638D01*
X84434Y31635D01*
X84464D01*
X84484Y31633D01*
X83494D01*
X85377D01*
D01*
X84516D01*
X84609Y31635D01*
X84696Y31647D01*
X84781Y31662D01*
X84853Y31679D01*
X84885Y31688D01*
X84914Y31697D01*
X84941Y31705D01*
X84964Y31711D01*
X84981Y31717D01*
X84993Y31723D01*
X85002Y31726D01*
X85005D01*
X85092Y31760D01*
X85165Y31798D01*
X85229Y31836D01*
X85284Y31868D01*
X85325Y31897D01*
X85339Y31909D01*
X85354Y31921D01*
X85363Y31929D01*
X85371Y31935D01*
X85377Y31941D01*
Y32750D01*
D01*
X84501D01*
Y32409D01*
X84967D01*
Y32151D01*
X84932Y32124D01*
X84894Y32101D01*
X84856Y32081D01*
X84821Y32063D01*
X84792Y32049D01*
X84766Y32037D01*
X84751Y32031D01*
X84749Y32028D01*
X84746D01*
X84699Y32011D01*
X84653Y31999D01*
X84609Y31990D01*
X84571Y31985D01*
X84536Y31982D01*
X84513Y31979D01*
X84490D01*
X84443Y31982D01*
X84396Y31988D01*
X84356Y31996D01*
X84315Y32008D01*
X84242Y32037D01*
X84213Y32052D01*
X84184Y32069D01*
X84158Y32086D01*
X84135Y32101D01*
X84117Y32118D01*
X84100Y32130D01*
X84088Y32142D01*
X84079Y32151D01*
X84074Y32156D01*
X84071Y32159D01*
X84044Y32194D01*
X84018Y32235D01*
X83998Y32276D01*
X83980Y32319D01*
X83951Y32409D01*
X83934Y32497D01*
X83928Y32537D01*
X83922Y32578D01*
X83919Y32610D01*
X83916Y32642D01*
X83913Y32666D01*
Y32686D01*
Y32697D01*
Y32700D01*
X83916Y32762D01*
X83919Y32817D01*
X83928Y32872D01*
X83937Y32922D01*
X83948Y32965D01*
X83963Y33006D01*
X83978Y33044D01*
X83992Y33079D01*
X84004Y33108D01*
X84018Y33134D01*
X84033Y33154D01*
X84044Y33172D01*
X84053Y33186D01*
X84062Y33195D01*
X84065Y33201D01*
X84068Y33204D01*
X84100Y33233D01*
X84132Y33262D01*
X84167Y33283D01*
X84202Y33303D01*
X84237Y33320D01*
X84271Y33335D01*
X84338Y33355D01*
X84370Y33361D01*
X84399Y33367D01*
X84426Y33370D01*
X84449Y33373D01*
X84466Y33376D01*
X84493D01*
X84557Y33373D01*
X84612Y33361D01*
X84661Y33349D01*
X84705Y33332D01*
X84737Y33317D01*
X84763Y33303D01*
X84778Y33291D01*
X84784Y33288D01*
X84824Y33253D01*
X84859Y33215D01*
X84888Y33178D01*
X84909Y33140D01*
X84926Y33105D01*
X84938Y33079D01*
X84944Y33061D01*
X84947Y33058D01*
Y33055D01*
X85351Y33131D01*
X85339Y33181D01*
X85322Y33230D01*
X85304Y33274D01*
X85281Y33314D01*
X85261Y33355D01*
X85237Y33390D01*
X85214Y33422D01*
X85191Y33451D01*
X85168Y33477D01*
X85147Y33501D01*
X85130Y33521D01*
X85112Y33536D01*
X85098Y33547D01*
X85086Y33559D01*
X85080Y33562D01*
X85078Y33565D01*
X85037Y33594D01*
X84993Y33617D01*
X84947Y33637D01*
X84897Y33655D01*
X84801Y33684D01*
X84708Y33702D01*
X84664Y33710D01*
X84623Y33713D01*
X84586Y33716D01*
X84554Y33719D01*
X84527Y33722D01*
D02*
G37*
G36*
X87356Y33684D02*
X86981D01*
Y32328D01*
X86148Y33684D01*
X85755D01*
Y31670D01*
X87356D01*
Y33684D01*
D02*
G37*
G36*
X95743Y31670D02*
X94687D01*
X95743D01*
D01*
D02*
G37*
G36*
Y33684D02*
X94200D01*
Y31670D01*
X94608D01*
Y32430D01*
X94969D01*
X95012Y32433D01*
X95053D01*
X95091Y32436D01*
X95126Y32438D01*
X95158Y32441D01*
X95184Y32444D01*
X95210D01*
X95231Y32447D01*
X95251Y32450D01*
X95265Y32453D01*
X95277D01*
X95286Y32456D01*
X95292D01*
X95332Y32468D01*
X95370Y32482D01*
X95405Y32497D01*
X95437Y32514D01*
X95463Y32529D01*
X95484Y32540D01*
X95495Y32549D01*
X95501Y32552D01*
X95539Y32581D01*
X95571Y32613D01*
X95603Y32648D01*
X95626Y32677D01*
X95647Y32706D01*
X95661Y32730D01*
X95670Y32744D01*
X95673Y32750D01*
X95696Y32799D01*
X95714Y32852D01*
X95725Y32907D01*
X95734Y32956D01*
X95740Y32997D01*
Y33018D01*
X95743Y33032D01*
Y33064D01*
X95737Y33149D01*
X95725Y33227D01*
X95705Y33291D01*
X95684Y33349D01*
X95673Y33373D01*
X95661Y33393D01*
X95652Y33411D01*
X95641Y33428D01*
X95635Y33440D01*
X95629Y33448D01*
X95623Y33451D01*
Y33454D01*
X95577Y33507D01*
X95530Y33550D01*
X95481Y33585D01*
X95437Y33611D01*
X95396Y33629D01*
X95364Y33643D01*
X95353Y33646D01*
X95344Y33649D01*
X95338Y33652D01*
X95335D01*
X95312Y33658D01*
X95283Y33664D01*
X95248Y33667D01*
X95213Y33669D01*
X95131Y33675D01*
X95050Y33681D01*
X94974D01*
X94942Y33684D01*
X95743D01*
D02*
G37*
G36*
X93866D02*
X92323D01*
Y31670D01*
X92731D01*
Y32430D01*
X93092D01*
X93135Y32433D01*
X93176D01*
X93214Y32436D01*
X93249Y32438D01*
X93281Y32441D01*
X93307Y32444D01*
X93333D01*
X93353Y32447D01*
X93374Y32450D01*
X93388Y32453D01*
X93400D01*
X93409Y32456D01*
X93415D01*
X93455Y32468D01*
X93493Y32482D01*
X93528Y32497D01*
X93560Y32514D01*
X93586Y32529D01*
X93607Y32540D01*
X93618Y32549D01*
X93624Y32552D01*
X93662Y32581D01*
X93694Y32613D01*
X93726Y32648D01*
X93749Y32677D01*
X93770Y32706D01*
X93784Y32730D01*
X93793Y32744D01*
X93796Y32750D01*
X93819Y32799D01*
X93837Y32852D01*
X93848Y32907D01*
X93857Y32956D01*
X93863Y32997D01*
Y33018D01*
X93866Y33032D01*
Y33064D01*
X93860Y33149D01*
X93848Y33227D01*
X93828Y33291D01*
X93808Y33349D01*
X93796Y33373D01*
X93784Y33393D01*
X93775Y33411D01*
X93764Y33428D01*
X93758Y33440D01*
X93752Y33448D01*
X93746Y33451D01*
Y33454D01*
X93700Y33507D01*
X93653Y33550D01*
X93604Y33585D01*
X93560Y33611D01*
X93519Y33629D01*
X93487Y33643D01*
X93476Y33646D01*
X93467Y33649D01*
X93461Y33652D01*
X93458D01*
X93435Y33658D01*
X93406Y33664D01*
X93371Y33667D01*
X93336Y33669D01*
X93255Y33675D01*
X93173Y33681D01*
X93097D01*
X93065Y33684D01*
X93866D01*
D02*
G37*
%LPD*%
G36*
X86949Y31670D02*
X86131D01*
Y32997D01*
X86949Y31670D01*
D02*
G37*
G36*
X94940Y33341D02*
X94966D01*
X94992Y33338D01*
X95030D01*
X95059Y33335D01*
X95079Y33332D01*
X95091Y33329D01*
X95094D01*
X95129Y33320D01*
X95161Y33309D01*
X95190Y33294D01*
X95213Y33277D01*
X95231Y33262D01*
X95245Y33250D01*
X95254Y33242D01*
X95257Y33239D01*
X95280Y33210D01*
X95294Y33181D01*
X95306Y33149D01*
X95315Y33119D01*
X95321Y33093D01*
X95324Y33073D01*
Y33061D01*
Y33055D01*
X95321Y33024D01*
X95318Y32994D01*
X95309Y32968D01*
X95300Y32945D01*
X95292Y32925D01*
X95286Y32910D01*
X95280Y32901D01*
X95277Y32898D01*
X95260Y32875D01*
X95236Y32855D01*
X95216Y32837D01*
X95196Y32823D01*
X95178Y32814D01*
X95164Y32805D01*
X95152Y32802D01*
X95149Y32799D01*
X95131Y32794D01*
X95111Y32791D01*
X95065Y32782D01*
X95012Y32776D01*
X94960Y32773D01*
X94907D01*
X94887Y32770D01*
X94608D01*
Y33344D01*
X94910D01*
X94940Y33341D01*
D02*
G37*
G36*
X93063D02*
X93089D01*
X93115Y33338D01*
X93153D01*
X93182Y33335D01*
X93202Y33332D01*
X93214Y33329D01*
X93217D01*
X93252Y33320D01*
X93284Y33309D01*
X93313Y33294D01*
X93336Y33277D01*
X93353Y33262D01*
X93368Y33250D01*
X93377Y33242D01*
X93380Y33239D01*
X93403Y33210D01*
X93418Y33181D01*
X93429Y33149D01*
X93438Y33119D01*
X93444Y33093D01*
X93447Y33073D01*
Y33061D01*
Y33055D01*
X93444Y33024D01*
X93441Y32994D01*
X93432Y32968D01*
X93423Y32945D01*
X93415Y32925D01*
X93409Y32910D01*
X93403Y32901D01*
X93400Y32898D01*
X93383Y32875D01*
X93359Y32855D01*
X93339Y32837D01*
X93319Y32823D01*
X93301Y32814D01*
X93287Y32805D01*
X93275Y32802D01*
X93272Y32799D01*
X93255Y32794D01*
X93234Y32791D01*
X93188Y32782D01*
X93135Y32776D01*
X93083Y32773D01*
X93031D01*
X93010Y32770D01*
X92731D01*
Y33344D01*
X93033D01*
X93063Y33341D01*
D02*
G37*
%LPC*%
G36*
X79827Y176242D02*
X79792D01*
X79708Y176239D01*
X79632Y176230D01*
X79565Y176218D01*
X79507Y176207D01*
X79481Y176198D01*
X79458Y176192D01*
X79440Y176186D01*
X79423Y176180D01*
X79411Y176175D01*
X79402Y176172D01*
X79396Y176169D01*
X79394D01*
X79335Y176140D01*
X79286Y176108D01*
X79242Y176073D01*
X79207Y176041D01*
X79178Y176012D01*
X79161Y175988D01*
X79146Y175971D01*
X79143Y175968D01*
Y175965D01*
X79114Y175916D01*
X79094Y175863D01*
X79079Y175814D01*
X79071Y175770D01*
X79065Y175732D01*
X79059Y175703D01*
Y175692D01*
Y175683D01*
Y175680D01*
Y175677D01*
X79062Y175633D01*
X79068Y175590D01*
X79076Y175552D01*
X79088Y175514D01*
X79117Y175444D01*
X79152Y175383D01*
X79167Y175357D01*
X79184Y175337D01*
X79199Y175316D01*
X79213Y175299D01*
X79225Y175287D01*
X79233Y175278D01*
X79239Y175273D01*
X79242Y175270D01*
X79268Y175249D01*
X79300Y175229D01*
X79332Y175208D01*
X79370Y175191D01*
X79443Y175156D01*
X79519Y175127D01*
X79557Y175115D01*
X79589Y175104D01*
X79620Y175095D01*
X79647Y175086D01*
X79667Y175080D01*
X79685Y175075D01*
X79696Y175072D01*
X79699D01*
X79746Y175060D01*
X79786Y175048D01*
X79824Y175040D01*
X79859Y175031D01*
X79888Y175022D01*
X79914Y175016D01*
X79938Y175008D01*
X79958Y175002D01*
X79976Y174999D01*
X79990Y174993D01*
X80010Y174987D01*
X80022Y174981D01*
X80025D01*
X80063Y174967D01*
X80092Y174952D01*
X80118Y174938D01*
X80138Y174923D01*
X80153Y174912D01*
X80162Y174903D01*
X80168Y174897D01*
X80171Y174894D01*
X80185Y174874D01*
X80197Y174854D01*
X80203Y174833D01*
X80208Y174816D01*
X80211Y174798D01*
X80214Y174784D01*
Y174775D01*
Y174772D01*
X80211Y174731D01*
X80200Y174696D01*
X80182Y174661D01*
X80165Y174632D01*
X80144Y174609D01*
X80130Y174592D01*
X80118Y174580D01*
X80112Y174577D01*
X80072Y174551D01*
X80025Y174530D01*
X79976Y174516D01*
X79929Y174507D01*
X79885Y174501D01*
X79850Y174495D01*
X79818D01*
X79751Y174498D01*
X79693Y174510D01*
X79644Y174525D01*
X79600Y174542D01*
X79565Y174560D01*
X79542Y174574D01*
X79527Y174586D01*
X79522Y174589D01*
X79484Y174629D01*
X79455Y174673D01*
X79428Y174723D01*
X79411Y174772D01*
X79396Y174816D01*
X79385Y174851D01*
X79382Y174862D01*
Y174874D01*
X79379Y174880D01*
Y174883D01*
X78983Y174845D01*
X78992Y174784D01*
X79004Y174725D01*
X79021Y174670D01*
X79036Y174621D01*
X79056Y174574D01*
X79076Y174530D01*
X79097Y174493D01*
X79117Y174458D01*
X79137Y174429D01*
X79158Y174402D01*
X79175Y174379D01*
X79193Y174359D01*
X79204Y174344D01*
X79216Y174336D01*
X79222Y174330D01*
X79225Y174327D01*
X79265Y174295D01*
X79309Y174269D01*
X79356Y174245D01*
X79405Y174225D01*
X79452Y174210D01*
X79501Y174196D01*
X79597Y174175D01*
X79641Y174167D01*
X79682Y174161D01*
X79717Y174158D01*
X79749Y174155D01*
X79775Y174152D01*
X78983D01*
X80622D01*
D01*
X79813D01*
X79906Y174155D01*
X79990Y174164D01*
X80066Y174175D01*
X80098Y174181D01*
X80130Y174190D01*
X80156Y174196D01*
X80179Y174202D01*
X80200Y174207D01*
X80217Y174213D01*
X80232Y174219D01*
X80240Y174222D01*
X80246Y174225D01*
X80249D01*
X80313Y174257D01*
X80366Y174292D01*
X80415Y174327D01*
X80453Y174365D01*
X80482Y174397D01*
X80505Y174426D01*
X80517Y174443D01*
X80523Y174446D01*
Y174449D01*
X80555Y174507D01*
X80581Y174563D01*
X80598Y174618D01*
X80610Y174670D01*
X80616Y174711D01*
X80619Y174731D01*
X80622Y174746D01*
Y174775D01*
X80619Y174845D01*
X80610Y174906D01*
X80595Y174961D01*
X80581Y175008D01*
X80566Y175046D01*
X80552Y175072D01*
X80543Y175089D01*
X80540Y175095D01*
X80508Y175142D01*
X80470Y175182D01*
X80432Y175217D01*
X80397Y175246D01*
X80366Y175270D01*
X80339Y175287D01*
X80322Y175299D01*
X80319Y175302D01*
X80316D01*
X80287Y175316D01*
X80258Y175331D01*
X80188Y175357D01*
X80115Y175380D01*
X80045Y175403D01*
X80013Y175412D01*
X79981Y175421D01*
X79952Y175430D01*
X79929Y175435D01*
X79909Y175441D01*
X79894Y175444D01*
X79882Y175447D01*
X79879D01*
X79827Y175462D01*
X79781Y175473D01*
X79737Y175485D01*
X79696Y175497D01*
X79664Y175508D01*
X79632Y175520D01*
X79606Y175531D01*
X79583Y175540D01*
X79562Y175549D01*
X79548Y175558D01*
X79533Y175564D01*
X79524Y175569D01*
X79510Y175578D01*
X79507Y175581D01*
X79487Y175601D01*
X79472Y175622D01*
X79463Y175642D01*
X79458Y175662D01*
X79452Y175677D01*
X79449Y175692D01*
Y175700D01*
Y175703D01*
X79452Y175732D01*
X79458Y175756D01*
X79469Y175779D01*
X79481Y175796D01*
X79492Y175811D01*
X79504Y175820D01*
X79510Y175825D01*
X79513Y175828D01*
X79554Y175855D01*
X79597Y175872D01*
X79644Y175886D01*
X79688Y175895D01*
X79725Y175901D01*
X79757Y175904D01*
X79786D01*
X79848Y175901D01*
X79900Y175892D01*
X79944Y175881D01*
X79979Y175869D01*
X80008Y175857D01*
X80028Y175846D01*
X80040Y175837D01*
X80042Y175834D01*
X80072Y175805D01*
X80098Y175770D01*
X80118Y175735D01*
X80133Y175697D01*
X80144Y175665D01*
X80150Y175639D01*
X80156Y175619D01*
Y175616D01*
Y175613D01*
X80563Y175628D01*
X80560Y175680D01*
X80552Y175726D01*
X80540Y175773D01*
X80525Y175814D01*
X80511Y175855D01*
X80493Y175892D01*
X80476Y175924D01*
X80459Y175956D01*
X80438Y175982D01*
X80421Y176006D01*
X80403Y176026D01*
X80389Y176044D01*
X80377Y176055D01*
X80368Y176064D01*
X80363Y176070D01*
X80360Y176073D01*
X80322Y176102D01*
X80281Y176128D01*
X80238Y176151D01*
X80191Y176172D01*
X80144Y176186D01*
X80098Y176201D01*
X80005Y176221D01*
X79961Y176227D01*
X79923Y176233D01*
X79885Y176236D01*
X79853Y176239D01*
X79827Y176242D01*
D02*
G37*
G36*
X77950D02*
X77915D01*
X77831Y176239D01*
X77755Y176230D01*
X77688Y176218D01*
X77630Y176207D01*
X77604Y176198D01*
X77581Y176192D01*
X77563Y176186D01*
X77546Y176180D01*
X77534Y176175D01*
X77525Y176172D01*
X77520Y176169D01*
X77517D01*
X77458Y176140D01*
X77409Y176108D01*
X77365Y176073D01*
X77330Y176041D01*
X77301Y176012D01*
X77284Y175988D01*
X77269Y175971D01*
X77266Y175968D01*
Y175965D01*
X77237Y175916D01*
X77217Y175863D01*
X77202Y175814D01*
X77194Y175770D01*
X77188Y175732D01*
X77182Y175703D01*
Y175692D01*
Y175683D01*
Y175680D01*
Y175677D01*
X77185Y175633D01*
X77191Y175590D01*
X77199Y175552D01*
X77211Y175514D01*
X77240Y175444D01*
X77275Y175383D01*
X77290Y175357D01*
X77307Y175337D01*
X77322Y175316D01*
X77336Y175299D01*
X77348Y175287D01*
X77357Y175278D01*
X77362Y175273D01*
X77365Y175270D01*
X77391Y175249D01*
X77424Y175229D01*
X77456Y175208D01*
X77493Y175191D01*
X77566Y175156D01*
X77642Y175127D01*
X77680Y175115D01*
X77712Y175104D01*
X77744Y175095D01*
X77770Y175086D01*
X77790Y175080D01*
X77808Y175075D01*
X77819Y175072D01*
X77822D01*
X77869Y175060D01*
X77909Y175048D01*
X77947Y175040D01*
X77982Y175031D01*
X78011Y175022D01*
X78038Y175016D01*
X78061Y175008D01*
X78081Y175002D01*
X78099Y174999D01*
X78113Y174993D01*
X78133Y174987D01*
X78145Y174981D01*
X78148D01*
X78186Y174967D01*
X78215Y174952D01*
X78241Y174938D01*
X78262Y174923D01*
X78276Y174912D01*
X78285Y174903D01*
X78291Y174897D01*
X78294Y174894D01*
X78308Y174874D01*
X78320Y174854D01*
X78326Y174833D01*
X78331Y174816D01*
X78334Y174798D01*
X78337Y174784D01*
Y174775D01*
Y174772D01*
X78334Y174731D01*
X78323Y174696D01*
X78305Y174661D01*
X78288Y174632D01*
X78267Y174609D01*
X78253Y174592D01*
X78241Y174580D01*
X78235Y174577D01*
X78195Y174551D01*
X78148Y174530D01*
X78099Y174516D01*
X78052Y174507D01*
X78008Y174501D01*
X77974Y174495D01*
X77942D01*
X77874Y174498D01*
X77816Y174510D01*
X77767Y174525D01*
X77723Y174542D01*
X77688Y174560D01*
X77665Y174574D01*
X77650Y174586D01*
X77645Y174589D01*
X77607Y174629D01*
X77578Y174673D01*
X77552Y174723D01*
X77534Y174772D01*
X77520Y174816D01*
X77508Y174851D01*
X77505Y174862D01*
Y174874D01*
X77502Y174880D01*
Y174883D01*
X77106Y174845D01*
X77115Y174784D01*
X77127Y174725D01*
X77144Y174670D01*
X77159Y174621D01*
X77179Y174574D01*
X77199Y174530D01*
X77220Y174493D01*
X77240Y174458D01*
X77261Y174429D01*
X77281Y174402D01*
X77298Y174379D01*
X77316Y174359D01*
X77328Y174344D01*
X77339Y174336D01*
X77345Y174330D01*
X77348Y174327D01*
X77389Y174295D01*
X77432Y174269D01*
X77479Y174245D01*
X77528Y174225D01*
X77575Y174210D01*
X77624Y174196D01*
X77720Y174175D01*
X77764Y174167D01*
X77805Y174161D01*
X77840Y174158D01*
X77872Y174155D01*
X77898Y174152D01*
X77106D01*
X78745D01*
D01*
X77936D01*
X78029Y174155D01*
X78113Y174164D01*
X78189Y174175D01*
X78221Y174181D01*
X78253Y174190D01*
X78279Y174196D01*
X78302Y174202D01*
X78323Y174207D01*
X78340Y174213D01*
X78355Y174219D01*
X78363Y174222D01*
X78369Y174225D01*
X78372D01*
X78436Y174257D01*
X78488Y174292D01*
X78538Y174327D01*
X78576Y174365D01*
X78605Y174397D01*
X78628Y174426D01*
X78640Y174443D01*
X78646Y174446D01*
Y174449D01*
X78678Y174507D01*
X78704Y174563D01*
X78721Y174618D01*
X78733Y174670D01*
X78739Y174711D01*
X78742Y174731D01*
X78745Y174746D01*
Y174775D01*
X78742Y174845D01*
X78733Y174906D01*
X78718Y174961D01*
X78704Y175008D01*
X78689Y175046D01*
X78675Y175072D01*
X78666Y175089D01*
X78663Y175095D01*
X78631Y175142D01*
X78593Y175182D01*
X78556Y175217D01*
X78521Y175246D01*
X78488Y175270D01*
X78462Y175287D01*
X78445Y175299D01*
X78442Y175302D01*
X78439D01*
X78410Y175316D01*
X78381Y175331D01*
X78311Y175357D01*
X78238Y175380D01*
X78168Y175403D01*
X78136Y175412D01*
X78104Y175421D01*
X78075Y175430D01*
X78052Y175435D01*
X78032Y175441D01*
X78017Y175444D01*
X78005Y175447D01*
X78003D01*
X77950Y175462D01*
X77904Y175473D01*
X77860Y175485D01*
X77819Y175497D01*
X77787Y175508D01*
X77755Y175520D01*
X77729Y175531D01*
X77706Y175540D01*
X77685Y175549D01*
X77671Y175558D01*
X77656Y175564D01*
X77648Y175569D01*
X77633Y175578D01*
X77630Y175581D01*
X77610Y175601D01*
X77595Y175622D01*
X77587Y175642D01*
X77581Y175662D01*
X77575Y175677D01*
X77572Y175692D01*
Y175700D01*
Y175703D01*
X77575Y175732D01*
X77581Y175756D01*
X77592Y175779D01*
X77604Y175796D01*
X77615Y175811D01*
X77627Y175820D01*
X77633Y175825D01*
X77636Y175828D01*
X77677Y175855D01*
X77720Y175872D01*
X77767Y175886D01*
X77811Y175895D01*
X77848Y175901D01*
X77880Y175904D01*
X77909D01*
X77971Y175901D01*
X78023Y175892D01*
X78067Y175881D01*
X78101Y175869D01*
X78131Y175857D01*
X78151Y175846D01*
X78163Y175837D01*
X78166Y175834D01*
X78195Y175805D01*
X78221Y175770D01*
X78241Y175735D01*
X78256Y175697D01*
X78267Y175665D01*
X78273Y175639D01*
X78279Y175619D01*
Y175616D01*
Y175613D01*
X78686Y175628D01*
X78684Y175680D01*
X78675Y175726D01*
X78663Y175773D01*
X78649Y175814D01*
X78634Y175855D01*
X78617Y175892D01*
X78599Y175924D01*
X78582Y175956D01*
X78561Y175982D01*
X78544Y176006D01*
X78526Y176026D01*
X78512Y176044D01*
X78500Y176055D01*
X78491Y176064D01*
X78486Y176070D01*
X78483Y176073D01*
X78445Y176102D01*
X78404Y176128D01*
X78360Y176151D01*
X78314Y176172D01*
X78267Y176186D01*
X78221Y176201D01*
X78128Y176221D01*
X78084Y176227D01*
X78046Y176233D01*
X78008Y176236D01*
X77976Y176239D01*
X77950Y176242D01*
D02*
G37*
G36*
X73955D02*
X73920D01*
X73815Y176239D01*
X73722Y176227D01*
X73681Y176218D01*
X73641Y176209D01*
X73603Y176201D01*
X73571Y176192D01*
X73541Y176180D01*
X73513Y176172D01*
X73492Y176163D01*
X73472Y176157D01*
X73457Y176148D01*
X73445Y176146D01*
X73440Y176140D01*
X73437D01*
X73347Y176087D01*
X73309Y176055D01*
X73271Y176026D01*
X73236Y175994D01*
X73204Y175962D01*
X73175Y175930D01*
X73149Y175901D01*
X73128Y175872D01*
X73108Y175846D01*
X73090Y175822D01*
X73076Y175802D01*
X73067Y175785D01*
X73058Y175773D01*
X73056Y175764D01*
X73053Y175761D01*
X73029Y175715D01*
X73009Y175668D01*
X72977Y175572D01*
X72954Y175476D01*
X72939Y175392D01*
X72933Y175351D01*
X72927Y175316D01*
X72925Y175284D01*
Y175255D01*
X72922Y175235D01*
Y176242D01*
D01*
Y174152D01*
X74805D01*
D01*
X73943D01*
X74036Y174155D01*
X74124Y174167D01*
X74208Y174181D01*
X74281Y174199D01*
X74313Y174207D01*
X74342Y174216D01*
X74368Y174225D01*
X74391Y174231D01*
X74409Y174237D01*
X74420Y174242D01*
X74429Y174245D01*
X74432D01*
X74519Y174280D01*
X74592Y174318D01*
X74656Y174356D01*
X74711Y174388D01*
X74752Y174417D01*
X74767Y174429D01*
X74781Y174440D01*
X74790Y174449D01*
X74799Y174455D01*
X74805Y174461D01*
Y175270D01*
X73929D01*
Y174929D01*
X74394D01*
Y174670D01*
X74359Y174644D01*
X74321Y174621D01*
X74284Y174600D01*
X74249Y174583D01*
X74220Y174568D01*
X74193Y174557D01*
X74179Y174551D01*
X74176Y174548D01*
X74173D01*
X74126Y174530D01*
X74080Y174519D01*
X74036Y174510D01*
X73998Y174504D01*
X73963Y174501D01*
X73940Y174498D01*
X73917D01*
X73870Y174501D01*
X73824Y174507D01*
X73783Y174516D01*
X73742Y174528D01*
X73670Y174557D01*
X73641Y174571D01*
X73611Y174589D01*
X73585Y174606D01*
X73562Y174621D01*
X73545Y174638D01*
X73527Y174650D01*
X73515Y174661D01*
X73507Y174670D01*
X73501Y174676D01*
X73498Y174679D01*
X73472Y174714D01*
X73445Y174755D01*
X73425Y174795D01*
X73408Y174839D01*
X73379Y174929D01*
X73361Y175016D01*
X73355Y175057D01*
X73349Y175098D01*
X73347Y175130D01*
X73344Y175162D01*
X73341Y175185D01*
Y175206D01*
Y175217D01*
Y175220D01*
X73344Y175281D01*
X73347Y175337D01*
X73355Y175392D01*
X73364Y175441D01*
X73376Y175485D01*
X73390Y175526D01*
X73405Y175564D01*
X73419Y175598D01*
X73431Y175628D01*
X73445Y175654D01*
X73460Y175674D01*
X73472Y175692D01*
X73480Y175706D01*
X73489Y175715D01*
X73492Y175721D01*
X73495Y175724D01*
X73527Y175753D01*
X73559Y175782D01*
X73594Y175802D01*
X73629Y175822D01*
X73664Y175840D01*
X73699Y175855D01*
X73766Y175875D01*
X73798Y175881D01*
X73827Y175886D01*
X73853Y175889D01*
X73876Y175892D01*
X73894Y175895D01*
X73920D01*
X73984Y175892D01*
X74039Y175881D01*
X74089Y175869D01*
X74132Y175852D01*
X74164Y175837D01*
X74190Y175822D01*
X74205Y175811D01*
X74211Y175808D01*
X74252Y175773D01*
X74287Y175735D01*
X74316Y175697D01*
X74336Y175660D01*
X74353Y175625D01*
X74365Y175598D01*
X74371Y175581D01*
X74374Y175578D01*
Y175575D01*
X74778Y175651D01*
X74767Y175700D01*
X74749Y175750D01*
X74732Y175793D01*
X74708Y175834D01*
X74688Y175875D01*
X74665Y175910D01*
X74642Y175942D01*
X74618Y175971D01*
X74595Y175997D01*
X74575Y176020D01*
X74557Y176041D01*
X74540Y176055D01*
X74525Y176067D01*
X74514Y176079D01*
X74508Y176082D01*
X74505Y176084D01*
X74464Y176113D01*
X74420Y176137D01*
X74374Y176157D01*
X74324Y176175D01*
X74228Y176204D01*
X74135Y176221D01*
X74092Y176230D01*
X74051Y176233D01*
X74013Y176236D01*
X73981Y176239D01*
X73955Y176242D01*
D02*
G37*
G36*
X76783Y176204D02*
X75183D01*
Y174190D01*
X75558D01*
Y175517D01*
X76376Y174190D01*
X76783D01*
Y176204D01*
D02*
G37*
G36*
X78983Y176242D02*
D01*
Y174152D01*
D01*
Y176242D01*
D01*
D02*
G37*
G36*
X77106D02*
D01*
Y174152D01*
D01*
Y176242D01*
D01*
D02*
G37*
%LPD*%
G36*
X72927Y175095D02*
X72939Y174996D01*
X72960Y174906D01*
X72968Y174862D01*
X72980Y174824D01*
X72992Y174790D01*
X73000Y174757D01*
X73012Y174731D01*
X73021Y174708D01*
X73027Y174690D01*
X73032Y174676D01*
X73038Y174667D01*
Y174664D01*
X73088Y174577D01*
X73143Y174501D01*
X73201Y174434D01*
X73259Y174382D01*
X73286Y174359D01*
X73312Y174338D01*
X73332Y174321D01*
X73352Y174309D01*
X73367Y174298D01*
X73382Y174289D01*
X73387Y174286D01*
X73390Y174283D01*
X73437Y174260D01*
X73480Y174240D01*
X73576Y174207D01*
X73670Y174184D01*
X73754Y174170D01*
X73795Y174164D01*
X73830Y174158D01*
X73862Y174155D01*
X73891D01*
X73911Y174152D01*
X72922D01*
Y175203D01*
X72927Y175095D01*
D02*
G37*
G36*
X76408Y174848D02*
X75576Y176204D01*
X76408D01*
Y174848D01*
D02*
G37*
%LPC*%
G36*
X57306Y33722D02*
X57271D01*
X57187Y33719D01*
X57111Y33710D01*
X57044Y33699D01*
X56986Y33687D01*
X56960Y33678D01*
X56937Y33672D01*
X56919Y33667D01*
X56902Y33661D01*
X56890Y33655D01*
X56881Y33652D01*
X56875Y33649D01*
X56873D01*
X56814Y33620D01*
X56765Y33588D01*
X56721Y33553D01*
X56686Y33521D01*
X56657Y33492D01*
X56640Y33469D01*
X56625Y33451D01*
X56622Y33448D01*
Y33445D01*
X56593Y33396D01*
X56573Y33344D01*
X56558Y33294D01*
X56550Y33250D01*
X56544Y33213D01*
X56538Y33184D01*
Y33172D01*
Y33163D01*
Y33160D01*
Y33157D01*
X56541Y33114D01*
X56547Y33070D01*
X56555Y33032D01*
X56567Y32994D01*
X56596Y32925D01*
X56631Y32863D01*
X56646Y32837D01*
X56663Y32817D01*
X56678Y32796D01*
X56692Y32779D01*
X56704Y32767D01*
X56713Y32759D01*
X56718Y32753D01*
X56721Y32750D01*
X56747Y32730D01*
X56779Y32709D01*
X56811Y32689D01*
X56849Y32671D01*
X56922Y32636D01*
X56998Y32607D01*
X57035Y32596D01*
X57068Y32584D01*
X57099Y32575D01*
X57126Y32567D01*
X57146Y32561D01*
X57164Y32555D01*
X57175Y32552D01*
X57178D01*
X57225Y32540D01*
X57265Y32529D01*
X57303Y32520D01*
X57338Y32511D01*
X57367Y32503D01*
X57393Y32497D01*
X57417Y32488D01*
X57437Y32482D01*
X57455Y32479D01*
X57469Y32473D01*
X57490Y32468D01*
X57501Y32462D01*
X57504D01*
X57542Y32447D01*
X57571Y32433D01*
X57597Y32418D01*
X57617Y32404D01*
X57632Y32392D01*
X57641Y32383D01*
X57647Y32377D01*
X57649Y32375D01*
X57664Y32354D01*
X57676Y32334D01*
X57682Y32313D01*
X57687Y32296D01*
X57690Y32278D01*
X57693Y32264D01*
Y32255D01*
Y32252D01*
X57690Y32212D01*
X57679Y32177D01*
X57661Y32142D01*
X57644Y32113D01*
X57623Y32089D01*
X57609Y32072D01*
X57597Y32060D01*
X57591Y32057D01*
X57551Y32031D01*
X57504Y32011D01*
X57455Y31996D01*
X57408Y31988D01*
X57364Y31982D01*
X57329Y31976D01*
X57297D01*
X57231Y31979D01*
X57172Y31990D01*
X57123Y32005D01*
X57079Y32022D01*
X57044Y32040D01*
X57021Y32054D01*
X57006Y32066D01*
X57001Y32069D01*
X56963Y32110D01*
X56934Y32153D01*
X56907Y32203D01*
X56890Y32252D01*
X56875Y32296D01*
X56864Y32331D01*
X56861Y32342D01*
Y32354D01*
X56858Y32360D01*
Y32363D01*
X56462Y32325D01*
X56471Y32264D01*
X56483Y32206D01*
X56500Y32151D01*
X56515Y32101D01*
X56535Y32054D01*
X56555Y32011D01*
X56576Y31973D01*
X56596Y31938D01*
X56616Y31909D01*
X56637Y31883D01*
X56654Y31859D01*
X56672Y31839D01*
X56683Y31824D01*
X56695Y31816D01*
X56701Y31810D01*
X56704Y31807D01*
X56744Y31775D01*
X56788Y31749D01*
X56835Y31726D01*
X56884Y31705D01*
X56931Y31691D01*
X56980Y31676D01*
X57076Y31656D01*
X57120Y31647D01*
X57161Y31641D01*
X57196Y31638D01*
X57228Y31635D01*
X57254Y31633D01*
X58101D01*
X57292D01*
X57385Y31635D01*
X57469Y31644D01*
X57545Y31656D01*
X57577Y31662D01*
X57609Y31670D01*
X57635Y31676D01*
X57658Y31682D01*
X57679Y31688D01*
X57696Y31694D01*
X57711Y31699D01*
X57719Y31702D01*
X57725Y31705D01*
X57728D01*
X57792Y31737D01*
X57845Y31772D01*
X57894Y31807D01*
X57932Y31845D01*
X57961Y31877D01*
X57984Y31906D01*
X57996Y31923D01*
X58002Y31926D01*
Y31929D01*
X58034Y31988D01*
X58060Y32043D01*
X58077Y32098D01*
X58089Y32151D01*
X58095Y32191D01*
X58098Y32212D01*
X58101Y32226D01*
Y32255D01*
X58098Y32325D01*
X58089Y32386D01*
X58074Y32441D01*
X58060Y32488D01*
X58045Y32526D01*
X58031Y32552D01*
X58022Y32570D01*
X58019Y32575D01*
X57987Y32622D01*
X57949Y32663D01*
X57911Y32697D01*
X57876Y32727D01*
X57845Y32750D01*
X57818Y32767D01*
X57801Y32779D01*
X57798Y32782D01*
X57795D01*
X57766Y32796D01*
X57737Y32811D01*
X57667Y32837D01*
X57594Y32860D01*
X57524Y32884D01*
X57492Y32893D01*
X57460Y32901D01*
X57431Y32910D01*
X57408Y32916D01*
X57388Y32922D01*
X57373Y32925D01*
X57361Y32927D01*
X57358D01*
X57306Y32942D01*
X57260Y32954D01*
X57216Y32965D01*
X57175Y32977D01*
X57143Y32989D01*
X57111Y33000D01*
X57085Y33012D01*
X57062Y33020D01*
X57041Y33029D01*
X57027Y33038D01*
X57012Y33044D01*
X57003Y33050D01*
X56989Y33058D01*
X56986Y33061D01*
X56966Y33082D01*
X56951Y33102D01*
X56942Y33122D01*
X56937Y33143D01*
X56931Y33157D01*
X56928Y33172D01*
Y33181D01*
Y33184D01*
X56931Y33213D01*
X56937Y33236D01*
X56948Y33259D01*
X56960Y33277D01*
X56972Y33291D01*
X56983Y33300D01*
X56989Y33306D01*
X56992Y33309D01*
X57033Y33335D01*
X57076Y33352D01*
X57123Y33367D01*
X57166Y33376D01*
X57204Y33381D01*
X57236Y33384D01*
X57265D01*
X57327Y33381D01*
X57379Y33373D01*
X57423Y33361D01*
X57458Y33349D01*
X57487Y33338D01*
X57507Y33326D01*
X57519Y33317D01*
X57521Y33314D01*
X57551Y33285D01*
X57577Y33250D01*
X57597Y33215D01*
X57612Y33178D01*
X57623Y33146D01*
X57629Y33119D01*
X57635Y33099D01*
Y33096D01*
Y33093D01*
X58042Y33108D01*
X58039Y33160D01*
X58031Y33207D01*
X58019Y33253D01*
X58004Y33294D01*
X57990Y33335D01*
X57973Y33373D01*
X57955Y33405D01*
X57938Y33437D01*
X57917Y33463D01*
X57900Y33486D01*
X57882Y33507D01*
X57868Y33524D01*
X57856Y33536D01*
X57847Y33544D01*
X57842Y33550D01*
X57839Y33553D01*
X57801Y33582D01*
X57760Y33608D01*
X57717Y33632D01*
X57670Y33652D01*
X57623Y33667D01*
X57577Y33681D01*
X57484Y33702D01*
X57440Y33707D01*
X57402Y33713D01*
X57364Y33716D01*
X57332Y33719D01*
X57306Y33722D01*
D02*
G37*
G36*
X58101D02*
D01*
Y32860D01*
Y33722D01*
D02*
G37*
G36*
X60647Y33163D02*
X59276D01*
D01*
X59896D01*
X59850Y33157D01*
X59803Y33154D01*
X59762Y33146D01*
X59721Y33140D01*
X59686Y33131D01*
X59654Y33119D01*
X59625Y33111D01*
X59602Y33102D01*
X59579Y33090D01*
X59561Y33082D01*
X59544Y33076D01*
X59532Y33067D01*
X59524Y33064D01*
X59521Y33058D01*
X59518D01*
X59468Y33015D01*
X59427Y32965D01*
X59393Y32913D01*
X59364Y32863D01*
X59343Y32817D01*
X59334Y32796D01*
X59329Y32779D01*
X59323Y32765D01*
X59320Y32753D01*
X59317Y32747D01*
Y32744D01*
X59663Y32680D01*
X59678Y32715D01*
X59692Y32744D01*
X59707Y32770D01*
X59724Y32791D01*
X59736Y32805D01*
X59748Y32814D01*
X59754Y32820D01*
X59756Y32823D01*
X59780Y32837D01*
X59806Y32849D01*
X59835Y32855D01*
X59861Y32860D01*
X59884Y32863D01*
X59902Y32866D01*
X59919D01*
X59972Y32863D01*
X60015Y32858D01*
X60050Y32852D01*
X60079Y32843D01*
X60100Y32831D01*
X60114Y32826D01*
X60123Y32820D01*
X60126Y32817D01*
X60146Y32796D01*
X60161Y32773D01*
X60170Y32747D01*
X60178Y32721D01*
X60181Y32695D01*
X60184Y32674D01*
Y32663D01*
Y32657D01*
Y32619D01*
X60164Y32610D01*
X60138Y32601D01*
X60082Y32584D01*
X60018Y32570D01*
X59957Y32555D01*
X59899Y32540D01*
X59873Y32535D01*
X59850Y32532D01*
X59832Y32529D01*
X59817Y32526D01*
X59809Y32523D01*
X59806D01*
X59736Y32508D01*
X59672Y32494D01*
X59620Y32479D01*
X59576Y32465D01*
X59541Y32450D01*
X59518Y32441D01*
X59503Y32436D01*
X59497Y32433D01*
X59460Y32412D01*
X59427Y32389D01*
X59398Y32363D01*
X59378Y32340D01*
X59358Y32319D01*
X59346Y32302D01*
X59337Y32290D01*
X59334Y32284D01*
X59314Y32247D01*
X59299Y32209D01*
X59291Y32174D01*
X59285Y32139D01*
X59279Y32110D01*
X59276Y32086D01*
Y32066D01*
X59279Y32031D01*
X59282Y31999D01*
X59297Y31938D01*
X59317Y31886D01*
X59340Y31842D01*
X59364Y31807D01*
X59384Y31781D01*
X59398Y31763D01*
X59404Y31760D01*
Y31758D01*
X59457Y31717D01*
X59515Y31688D01*
X59573Y31667D01*
X59631Y31653D01*
X59681Y31644D01*
X59704Y31641D01*
X59721D01*
X59739Y31638D01*
X59759D01*
X59806Y31641D01*
X59852Y31647D01*
X59893Y31653D01*
X59928Y31662D01*
X59957Y31670D01*
X59980Y31679D01*
X59995Y31682D01*
X60001Y31685D01*
X60041Y31705D01*
X60082Y31726D01*
X60117Y31752D01*
X60149Y31775D01*
X60175Y31795D01*
X60196Y31813D01*
X60207Y31824D01*
X60213Y31827D01*
X60216Y31816D01*
X60222Y31801D01*
X60225Y31790D01*
X60228Y31787D01*
Y31784D01*
X60237Y31758D01*
X60242Y31734D01*
X60248Y31714D01*
X60254Y31699D01*
X60260Y31688D01*
X60263Y31676D01*
X60266Y31673D01*
Y31670D01*
X60647D01*
X60629Y31708D01*
X60615Y31743D01*
X60603Y31775D01*
X60592Y31804D01*
X60586Y31827D01*
X60580Y31848D01*
X60577Y31859D01*
Y31862D01*
X60571Y31900D01*
X60568Y31947D01*
X60562Y31993D01*
Y32040D01*
X60559Y32081D01*
Y32116D01*
Y32130D01*
Y32139D01*
Y32145D01*
Y32148D01*
X60565Y32599D01*
Y32645D01*
X60562Y32686D01*
X60559Y32724D01*
X60557Y32759D01*
X60554Y32791D01*
X60548Y32820D01*
X60545Y32846D01*
X60539Y32866D01*
X60533Y32887D01*
X60530Y32901D01*
X60522Y32927D01*
X60516Y32939D01*
X60513Y32945D01*
X60490Y32977D01*
X60464Y33009D01*
X60434Y33035D01*
X60402Y33058D01*
X60376Y33076D01*
X60353Y33088D01*
X60338Y33096D01*
X60335Y33099D01*
X60333D01*
X60306Y33111D01*
X60280Y33119D01*
X60219Y33137D01*
X60155Y33149D01*
X60094Y33154D01*
X60036Y33160D01*
X60013D01*
X59992Y33163D01*
X60647D01*
D01*
D02*
G37*
G36*
X61648Y33649D02*
X60786D01*
X61351D01*
X60964Y33422D01*
Y33131D01*
X60786D01*
Y32823D01*
X60964D01*
Y32185D01*
Y32148D01*
Y32116D01*
Y32083D01*
X60967Y32057D01*
Y32011D01*
X60970Y31973D01*
X60973Y31944D01*
Y31926D01*
X60976Y31915D01*
Y31912D01*
X60982Y31880D01*
X60990Y31851D01*
X60999Y31824D01*
X61008Y31804D01*
X61016Y31787D01*
X61022Y31775D01*
X61025Y31766D01*
X61028Y31763D01*
X61045Y31743D01*
X61066Y31726D01*
X61107Y31697D01*
X61124Y31688D01*
X61139Y31679D01*
X61150Y31676D01*
X61153Y31673D01*
X61185Y31662D01*
X61217Y31653D01*
X61249Y31647D01*
X61278Y31644D01*
X61304Y31641D01*
X61325Y31638D01*
X61342D01*
X61403Y31641D01*
X61462Y31647D01*
X61514Y31656D01*
X61558Y31667D01*
X61595Y31676D01*
X61625Y31685D01*
X61642Y31691D01*
X61645Y31694D01*
X61648D01*
X61613Y31993D01*
X61578Y31982D01*
X61546Y31973D01*
X61520Y31967D01*
X61497Y31964D01*
X61479Y31961D01*
X61467Y31958D01*
X61456D01*
X61430Y31961D01*
X61409Y31967D01*
X61398Y31973D01*
X61392Y31976D01*
X61374Y31993D01*
X61366Y32008D01*
X61360Y32019D01*
X61357Y32025D01*
Y32031D01*
X61354Y32043D01*
Y32069D01*
Y32104D01*
X61351Y32139D01*
Y32174D01*
Y32203D01*
Y32214D01*
Y32223D01*
Y32229D01*
Y32232D01*
Y32823D01*
X61616D01*
Y33131D01*
X61351D01*
Y33649D01*
X61648D01*
D02*
G37*
G36*
X59145D02*
X58284D01*
X58849D01*
X58461Y33422D01*
Y33131D01*
X58284D01*
Y32823D01*
X58461D01*
Y32185D01*
Y32148D01*
Y32116D01*
Y32083D01*
X58464Y32057D01*
Y32011D01*
X58467Y31973D01*
X58470Y31944D01*
Y31926D01*
X58473Y31915D01*
Y31912D01*
X58479Y31880D01*
X58488Y31851D01*
X58496Y31824D01*
X58505Y31804D01*
X58514Y31787D01*
X58520Y31775D01*
X58522Y31766D01*
X58525Y31763D01*
X58543Y31743D01*
X58563Y31726D01*
X58604Y31697D01*
X58622Y31688D01*
X58636Y31679D01*
X58648Y31676D01*
X58651Y31673D01*
X58683Y31662D01*
X58715Y31653D01*
X58747Y31647D01*
X58776Y31644D01*
X58802Y31641D01*
X58822Y31638D01*
X58840D01*
X58901Y31641D01*
X58959Y31647D01*
X59011Y31656D01*
X59055Y31667D01*
X59093Y31676D01*
X59122Y31685D01*
X59139Y31691D01*
X59142Y31694D01*
X59145D01*
X59110Y31993D01*
X59075Y31982D01*
X59043Y31973D01*
X59017Y31967D01*
X58994Y31964D01*
X58977Y31961D01*
X58965Y31958D01*
X58953D01*
X58927Y31961D01*
X58907Y31967D01*
X58895Y31973D01*
X58889Y31976D01*
X58872Y31993D01*
X58863Y32008D01*
X58857Y32019D01*
X58854Y32025D01*
Y32031D01*
X58851Y32043D01*
Y32069D01*
Y32104D01*
X58849Y32139D01*
Y32174D01*
Y32203D01*
Y32214D01*
Y32223D01*
Y32229D01*
Y32232D01*
Y32823D01*
X59113D01*
Y33131D01*
X58849D01*
Y33649D01*
X59145D01*
D02*
G37*
%LPD*%
G36*
X60184Y32290D02*
Y32244D01*
X60181Y32203D01*
X60178Y32171D01*
X60175Y32145D01*
X60172Y32127D01*
X60170Y32113D01*
X60167Y32107D01*
Y32104D01*
X60158Y32078D01*
X60143Y32052D01*
X60129Y32031D01*
X60114Y32011D01*
X60100Y31996D01*
X60088Y31985D01*
X60079Y31979D01*
X60076Y31976D01*
X60041Y31953D01*
X60004Y31938D01*
X59972Y31926D01*
X59940Y31918D01*
X59913Y31912D01*
X59893Y31909D01*
X59876D01*
X59844Y31912D01*
X59812Y31918D01*
X59785Y31926D01*
X59765Y31938D01*
X59745Y31950D01*
X59733Y31958D01*
X59724Y31964D01*
X59721Y31967D01*
X59701Y31990D01*
X59686Y32014D01*
X59678Y32037D01*
X59672Y32060D01*
X59666Y32078D01*
X59663Y32092D01*
Y32104D01*
Y32107D01*
X59666Y32136D01*
X59675Y32162D01*
X59686Y32185D01*
X59701Y32206D01*
X59713Y32220D01*
X59724Y32232D01*
X59733Y32238D01*
X59736Y32241D01*
X59759Y32252D01*
X59788Y32267D01*
X59823Y32278D01*
X59858Y32287D01*
X59893Y32296D01*
X59919Y32302D01*
X59931Y32305D01*
X59940Y32308D01*
X59945D01*
X60004Y32319D01*
X60050Y32331D01*
X60094Y32342D01*
X60126Y32351D01*
X60152Y32360D01*
X60170Y32363D01*
X60181Y32369D01*
X60184D01*
Y32290D01*
D02*
G37*
D10*
X3543Y166535D02*
G03*
X6693Y169685I0J3150D01*
G01*
X114567Y58661D02*
Y169685D01*
X6693D02*
X114567D01*
X3543Y58661D02*
X114567D01*
X3543D02*
Y166535D01*
D11*
X79528Y184055D02*
Y193898D01*
X30512Y180315D02*
X40354D01*
X80905Y36614D02*
Y44488D01*
X100197Y36614D02*
Y44488D01*
X80905Y44488D02*
X100197D01*
X49409Y36614D02*
Y44488D01*
X68701Y36614D02*
Y44488D01*
X49409D02*
X68701D01*
X17913Y36614D02*
Y44488D01*
X37205Y36614D02*
Y44488D01*
X17913D02*
X37205D01*
X63189Y49213D02*
Y51181D01*
X58858Y49213D02*
Y51181D01*
X94685Y49213D02*
Y51181D01*
X90354Y49213D02*
Y51181D01*
X27756Y49213D02*
Y51181D01*
X23425Y49213D02*
Y51181D01*
D12*
X62598Y40748D02*
Y41929D01*
X58805Y42339D02*
X59305D01*
X58805Y40339D02*
X59305D01*
X63173Y175394D02*
X65173D01*
X55118Y172228D02*
Y174228D01*
X48606Y175144D02*
Y175644D01*
X50606Y175144D02*
Y175644D01*
X45063Y175394D02*
X47063D01*
X59630Y175144D02*
Y175644D01*
X61630Y175144D02*
Y175644D01*
X87083Y186024D02*
X90083D01*
X81693Y185876D02*
X83661D01*
X27309Y38402D02*
X27809D01*
X27309Y36402D02*
X27809D01*
X64354Y49213D02*
X66354D01*
X49394Y49213D02*
X51394D01*
X58805Y38402D02*
X59305D01*
X58805Y36402D02*
X59305D01*
X67504Y48963D02*
Y49463D01*
X69504Y48963D02*
Y49463D01*
X55693Y48963D02*
Y49463D01*
X57693Y48963D02*
Y49463D01*
X52543Y49213D02*
X54543D01*
X94095Y40748D02*
Y41929D01*
X90301Y42339D02*
X90801D01*
X90301Y40339D02*
X90801D01*
X95850Y49213D02*
X97850D01*
X80890Y49213D02*
X82890D01*
X90301Y38402D02*
X90801D01*
X90301Y36402D02*
X90801D01*
X99000Y48963D02*
Y49463D01*
X101000Y48963D02*
Y49463D01*
X87189Y48963D02*
Y49463D01*
X89189Y48963D02*
Y49463D01*
X84039Y49213D02*
X86039D01*
X31102Y40748D02*
Y41929D01*
X27309Y42339D02*
X27809D01*
X27309Y40339D02*
X27809D01*
X28921Y49213D02*
X30921D01*
X32071Y48963D02*
Y49463D01*
X34071Y48963D02*
Y49463D01*
X20260Y48963D02*
Y49463D01*
X22260Y48963D02*
Y49463D01*
M02*
