G04*
G04 #@! TF.GenerationSoftware,Altium Limited,Altium Designer,22.1.2 (22)*
G04*
G04 Layer_Color=32896*
%FSLAX25Y25*%
%MOIN*%
G70*
G04*
G04 #@! TF.SameCoordinates,3D425B39-A101-4537-954C-310EEB490880*
G04*
G04*
G04 #@! TF.FilePolarity,Positive*
G04*
G01*
G75*
%ADD12C,0.00197*%
%ADD64C,0.00039*%
%ADD65C,0.00079*%
D12*
X3555Y58673D02*
Y169673D01*
Y58673D02*
X114555D01*
Y169673D01*
X3555D02*
X114555D01*
X57874Y114173D02*
X60236D01*
X59055Y112992D02*
Y115354D01*
D64*
X62992Y181102D02*
Y196850D01*
X78740D01*
Y181102D02*
Y196850D01*
X62992Y181102D02*
X78740D01*
X69882Y188976D02*
X71850D01*
X70866Y187992D02*
Y189961D01*
X27559Y196850D02*
X43307D01*
Y181102D02*
Y196850D01*
X27559Y181102D02*
X43307D01*
X27559D02*
Y196850D01*
X35433Y187992D02*
Y189961D01*
X34449Y188976D02*
X36417D01*
X56102Y39862D02*
X62008D01*
X56102Y42815D02*
X62008D01*
X56102Y39862D02*
Y42815D01*
X62008Y39862D02*
Y42815D01*
X59055Y40354D02*
Y42323D01*
X58071Y41339D02*
X60039D01*
X62697Y172441D02*
X65650D01*
X63189Y175394D02*
X65158D01*
X64173Y174409D02*
Y176378D01*
X62697Y172441D02*
Y178347D01*
X65650Y172441D02*
Y178347D01*
X62697D02*
X65650D01*
X52165Y171752D02*
Y174705D01*
X58071Y171752D02*
Y174705D01*
X52165Y171752D02*
X58071D01*
X52165Y174705D02*
X58071D01*
X54134Y173228D02*
X56102D01*
X55118Y172244D02*
Y174213D01*
X44587Y172441D02*
X47539D01*
X45079Y175394D02*
X47047D01*
X46063Y174409D02*
Y176378D01*
X44587Y172441D02*
Y178347D01*
X47539Y172441D02*
Y178347D01*
X44587D02*
X47539D01*
X86122Y181102D02*
X91043D01*
X86122Y190945D02*
X91043D01*
X87598Y186024D02*
X89567D01*
X88583Y185039D02*
Y187008D01*
X91043Y181102D02*
Y190945D01*
X86122Y181102D02*
Y190945D01*
X80216Y190797D02*
X85138D01*
X80216Y180955D02*
X85138D01*
X81693Y185876D02*
X83661D01*
X82677Y184892D02*
Y186860D01*
X80216Y180955D02*
Y190797D01*
X85138Y180955D02*
Y190797D01*
X63878Y52165D02*
X66831D01*
X63878Y46260D02*
X66831D01*
X63878D02*
Y52165D01*
X66831Y46260D02*
Y52165D01*
X65354Y48228D02*
Y50197D01*
X64370Y49213D02*
X66339D01*
X63386Y46260D02*
Y52165D01*
X58661D02*
X63386D01*
X58661Y46260D02*
Y52165D01*
Y46260D02*
X63386D01*
X60039Y49213D02*
X62008D01*
X61024Y48228D02*
Y50197D01*
X48917Y46260D02*
X51870D01*
X48917Y52165D02*
X51870D01*
Y46260D02*
Y52165D01*
X48917Y46260D02*
Y52165D01*
X50394Y48228D02*
Y50197D01*
X49409Y49213D02*
X51378D01*
X52067Y52165D02*
X55020D01*
X52067Y46260D02*
X55020D01*
X52067D02*
Y52165D01*
X55020Y46260D02*
Y52165D01*
X53543Y48228D02*
Y50197D01*
X52559Y49213D02*
X54528D01*
X87598Y39862D02*
X93504D01*
X87598Y42815D02*
X93504D01*
X87598Y39862D02*
Y42815D01*
X93504Y39862D02*
Y42815D01*
X90551Y40354D02*
Y42323D01*
X89567Y41339D02*
X91535D01*
X95374Y52165D02*
X98327D01*
X95374Y46260D02*
X98327D01*
X95374D02*
Y52165D01*
X98327Y46260D02*
Y52165D01*
X96850Y48228D02*
Y50197D01*
X95866Y49213D02*
X97835D01*
X94882Y46260D02*
Y52165D01*
X90158D02*
X94882D01*
X90158Y46260D02*
Y52165D01*
Y46260D02*
X94882D01*
X91535Y49213D02*
X93504D01*
X92520Y48228D02*
Y50197D01*
X80413Y46260D02*
X83366D01*
X80413Y52165D02*
X83366D01*
Y46260D02*
Y52165D01*
X80413Y46260D02*
Y52165D01*
X81890Y48228D02*
Y50197D01*
X80905Y49213D02*
X82874D01*
X83563Y52165D02*
X86516D01*
X83563Y46260D02*
X86516D01*
X83563D02*
Y52165D01*
X86516Y46260D02*
Y52165D01*
X85039Y48228D02*
Y50197D01*
X84055Y49213D02*
X86024D01*
X24606Y39862D02*
X30512D01*
X24606Y42815D02*
X30512D01*
X24606Y39862D02*
Y42815D01*
X30512Y39862D02*
Y42815D01*
X27559Y40354D02*
Y42323D01*
X26575Y41339D02*
X28543D01*
X28445Y52165D02*
X31398D01*
X28445Y46260D02*
X31398D01*
X28445D02*
Y52165D01*
X31398Y46260D02*
Y52165D01*
X29921Y48228D02*
Y50197D01*
X28937Y49213D02*
X30906D01*
X27953Y46260D02*
Y52165D01*
X23228D02*
X27953D01*
X23228Y46260D02*
Y52165D01*
Y46260D02*
X27953D01*
X24606Y49213D02*
X26575D01*
X25591Y48228D02*
Y50197D01*
D65*
X48130Y172441D02*
X51083D01*
X48622Y175394D02*
X50591D01*
X49606Y174409D02*
Y176378D01*
X48130Y172441D02*
Y178347D01*
X51083Y172441D02*
Y178347D01*
X48130D02*
X51083D01*
X59153Y172441D02*
X62106D01*
X59646Y175394D02*
X61614D01*
X60630Y174409D02*
Y176378D01*
X59153Y172441D02*
Y178347D01*
X62106Y172441D02*
Y178347D01*
X59153D02*
X62106D01*
X24606Y35925D02*
Y38878D01*
X27559Y36417D02*
Y38386D01*
X26575Y37402D02*
X28543D01*
X24606Y38878D02*
X30512D01*
X24606Y35925D02*
X30512D01*
Y38878D01*
X56102Y35925D02*
Y38878D01*
X59055Y36417D02*
Y38386D01*
X58071Y37402D02*
X60039D01*
X56102Y38878D02*
X62008D01*
X56102Y35925D02*
X62008D01*
Y38878D01*
X67028Y46260D02*
X69980D01*
X67520Y49213D02*
X69488D01*
X68504Y48228D02*
Y50197D01*
X67028Y46260D02*
Y52165D01*
X69980Y46260D02*
Y52165D01*
X67028D02*
X69980D01*
X55216Y46260D02*
X58169D01*
X55709Y49213D02*
X57677D01*
X56693Y48228D02*
Y50197D01*
X55216Y46260D02*
Y52165D01*
X58169Y46260D02*
Y52165D01*
X55216D02*
X58169D01*
X87598Y35925D02*
Y38878D01*
X90551Y36417D02*
Y38386D01*
X89567Y37402D02*
X91535D01*
X87598Y38878D02*
X93504D01*
X87598Y35925D02*
X93504D01*
Y38878D01*
X98524Y46260D02*
X101476D01*
X99016Y49213D02*
X100984D01*
X100000Y48228D02*
Y50197D01*
X98524Y46260D02*
Y52165D01*
X101476Y46260D02*
Y52165D01*
X98524D02*
X101476D01*
X86713Y46260D02*
X89665D01*
X87205Y49213D02*
X89173D01*
X88189Y48228D02*
Y50197D01*
X86713Y46260D02*
Y52165D01*
X89665Y46260D02*
Y52165D01*
X86713D02*
X89665D01*
X31594Y46260D02*
X34547D01*
X32087Y49213D02*
X34055D01*
X33071Y48228D02*
Y50197D01*
X31594Y46260D02*
Y52165D01*
X34547Y46260D02*
Y52165D01*
X31594D02*
X34547D01*
X19783Y46260D02*
X22736D01*
X20276Y49213D02*
X22244D01*
X21260Y48228D02*
Y50197D01*
X19783Y46260D02*
Y52165D01*
X22736Y46260D02*
Y52165D01*
X19783D02*
X22736D01*
M02*
