G04*
G04 #@! TF.GenerationSoftware,Altium Limited,Altium Designer,22.1.2 (22)*
G04*
G04 Layer_Physical_Order=2*
G04 Layer_Color=36540*
%FSLAX25Y25*%
%MOIN*%
G70*
G04*
G04 #@! TF.SameCoordinates,3D425B39-A101-4537-954C-310EEB490880*
G04*
G04*
G04 #@! TF.FilePolarity,Positive*
G04*
G01*
G75*
%ADD38C,0.00787*%
%ADD39C,0.01181*%
%ADD40C,0.01575*%
%ADD43R,0.20866X0.20866*%
%ADD44C,0.01968*%
G36*
X117107Y13602D02*
X112795D01*
X112771Y13597D01*
X112746Y13601D01*
X112437Y13586D01*
X112365Y13567D01*
X112291D01*
X111685Y13447D01*
X111594Y13409D01*
X111497Y13390D01*
X110926Y13153D01*
X110844Y13099D01*
X110753Y13061D01*
X110240Y12718D01*
X110170Y12648D01*
X110088Y12593D01*
X109651Y12156D01*
X109596Y12074D01*
X109526Y12004D01*
X109183Y11491D01*
X109145Y11400D01*
X109090Y11317D01*
X108854Y10747D01*
X108835Y10650D01*
X108797Y10559D01*
X108677Y9953D01*
Y9879D01*
X108659Y9807D01*
X108643Y9498D01*
X108647Y9473D01*
X108642Y9449D01*
Y1003D01*
X47854D01*
X47854Y12795D01*
X47847Y12828D01*
X47852Y12861D01*
X47826Y13246D01*
X47801Y13342D01*
X47794Y13440D01*
X47595Y14185D01*
X47537Y14303D01*
X47495Y14427D01*
X47109Y15094D01*
X47023Y15193D01*
X46950Y15302D01*
X46405Y15847D01*
X46295Y15920D01*
X46197Y16007D01*
X45529Y16392D01*
X45405Y16434D01*
X45287Y16492D01*
X44543Y16692D01*
X44412Y16701D01*
X44283Y16726D01*
X43512D01*
X43383Y16701D01*
X43252Y16692D01*
X42508Y16492D01*
X42390Y16434D01*
X42266Y16392D01*
X41598Y16007D01*
X41500Y15920D01*
X41390Y15847D01*
X40845Y15302D01*
X40773Y15193D01*
X40686Y15094D01*
X40301Y14427D01*
X40258Y14303D01*
X40200Y14185D01*
X40001Y13440D01*
X39994Y13342D01*
X39969Y13246D01*
X39944Y12861D01*
X39948Y12828D01*
X39941Y12795D01*
Y1003D01*
X9468D01*
Y9449D01*
X9463Y9473D01*
X9467Y9498D01*
X9452Y9807D01*
X9433Y9879D01*
Y9953D01*
X9313Y10559D01*
X9275Y10650D01*
X9256Y10747D01*
X9020Y11317D01*
X8965Y11400D01*
X8927Y11491D01*
X8584Y12004D01*
X8514Y12074D01*
X8459Y12156D01*
X8023Y12593D01*
X7940Y12648D01*
X7870Y12718D01*
X7357Y13061D01*
X7266Y13099D01*
X7184Y13153D01*
X6613Y13390D01*
X6516Y13409D01*
X6425Y13447D01*
X5819Y13567D01*
X5745D01*
X5673Y13586D01*
X5364Y13601D01*
X5339Y13597D01*
X5315Y13602D01*
X1003D01*
Y199587D01*
X117107D01*
Y13602D01*
D02*
G37*
%LPC*%
G36*
X35433Y185148D02*
X34638Y184990D01*
X33964Y184540D01*
X33514Y183866D01*
X33356Y183071D01*
Y177567D01*
X33374Y177476D01*
X33488Y176317D01*
X33852Y175115D01*
X34445Y174007D01*
X35241Y173037D01*
X36212Y172240D01*
X37320Y171648D01*
X38522Y171283D01*
X39681Y171169D01*
X39772Y171151D01*
X66730D01*
X67228Y171151D01*
X67712Y171111D01*
X68250Y171040D01*
X69201Y170646D01*
X70019Y170019D01*
X70646Y169202D01*
X71040Y168250D01*
X71111Y167712D01*
X71151Y167228D01*
X71151Y167228D01*
X71151Y166733D01*
Y163779D01*
X71309Y162985D01*
X71759Y162311D01*
X72433Y161860D01*
X73228Y161702D01*
X74023Y161860D01*
X74697Y162311D01*
X75147Y162985D01*
X75306Y163779D01*
Y167228D01*
X75304Y167239D01*
X75149Y168804D01*
X74690Y170319D01*
X73944Y171715D01*
X72939Y172939D01*
X71715Y173943D01*
X70319Y174690D01*
X68804Y175149D01*
X67239Y175304D01*
X67228Y175306D01*
X40268D01*
X39772Y175306D01*
X39297Y175366D01*
X38893Y175446D01*
X38149Y175944D01*
X37651Y176689D01*
X37571Y177092D01*
X37510Y177567D01*
X37510Y178063D01*
X37510Y178065D01*
Y183071D01*
X37352Y183866D01*
X36902Y184540D01*
X36228Y184990D01*
X35433Y185148D01*
D02*
G37*
G36*
X91000Y161905D02*
X90462Y161798D01*
X90007Y161494D01*
X89702Y161038D01*
X89595Y160500D01*
X89702Y159962D01*
X89796Y159822D01*
Y158499D01*
X87501Y156204D01*
X74500D01*
X74500Y156204D01*
X74039Y156113D01*
X73649Y155851D01*
X73649Y155851D01*
X68648Y150852D01*
X68387Y150461D01*
X68296Y150000D01*
X68296Y150000D01*
Y96499D01*
X63501Y91704D01*
X31652D01*
X31191Y91613D01*
X30801Y91351D01*
X30801Y91351D01*
X23801Y84351D01*
X23540Y83961D01*
X23448Y83500D01*
X23448Y83500D01*
Y55607D01*
X23448Y55607D01*
X23540Y55146D01*
X23801Y54755D01*
X23958Y54598D01*
X24017Y54300D01*
X24321Y53844D01*
X24777Y53540D01*
X25315Y53433D01*
X25853Y53540D01*
X26308Y53844D01*
X26613Y54300D01*
X26720Y54838D01*
X26613Y55375D01*
X26308Y55831D01*
X25857Y56133D01*
Y83001D01*
X32151Y89296D01*
X64000D01*
X64000Y89296D01*
X64461Y89387D01*
X64851Y89648D01*
X70351Y95148D01*
X70351Y95148D01*
X70613Y95539D01*
X70704Y96000D01*
Y149501D01*
X74999Y153796D01*
X88000D01*
X88000Y153796D01*
X88461Y153887D01*
X88851Y154148D01*
X91852Y157149D01*
X92113Y157539D01*
X92204Y158000D01*
Y159822D01*
X92298Y159962D01*
X92405Y160500D01*
X92298Y161038D01*
X91993Y161494D01*
X91538Y161798D01*
X91000Y161905D01*
D02*
G37*
G36*
X12992Y146866D02*
X12685Y146805D01*
X12424Y146631D01*
X12250Y146370D01*
X12189Y146063D01*
X12250Y145756D01*
X12424Y145495D01*
X12685Y145321D01*
X12992Y145260D01*
X13299Y145321D01*
X13560Y145495D01*
X13734Y145756D01*
X13795Y146063D01*
X13734Y146370D01*
X13560Y146631D01*
X13299Y146805D01*
X12992Y146866D01*
D02*
G37*
G36*
Y139779D02*
X12685Y139718D01*
X12424Y139544D01*
X12250Y139284D01*
X12189Y138976D01*
X12250Y138669D01*
X12424Y138409D01*
X12685Y138235D01*
X12992Y138173D01*
X13299Y138235D01*
X13560Y138409D01*
X13734Y138669D01*
X13795Y138976D01*
X13734Y139284D01*
X13560Y139544D01*
X13299Y139718D01*
X12992Y139779D01*
D02*
G37*
G36*
Y132693D02*
X12685Y132631D01*
X12424Y132457D01*
X12250Y132197D01*
X12189Y131890D01*
X12250Y131582D01*
X12424Y131322D01*
X12685Y131148D01*
X12992Y131087D01*
X13299Y131148D01*
X13560Y131322D01*
X13734Y131582D01*
X13795Y131890D01*
X13734Y132197D01*
X13560Y132457D01*
X13299Y132631D01*
X12992Y132693D01*
D02*
G37*
G36*
Y125606D02*
X12685Y125545D01*
X12424Y125371D01*
X12250Y125110D01*
X12189Y124803D01*
X12250Y124496D01*
X12424Y124235D01*
X12685Y124061D01*
X12992Y124000D01*
X13299Y124061D01*
X13560Y124235D01*
X13734Y124496D01*
X13795Y124803D01*
X13734Y125110D01*
X13560Y125371D01*
X13299Y125545D01*
X12992Y125606D01*
D02*
G37*
G36*
X82677Y180405D02*
X82139Y180298D01*
X81684Y179993D01*
X81379Y179538D01*
X81272Y179000D01*
X81379Y178462D01*
X81674Y178022D01*
Y165323D01*
X81750Y164939D01*
X81968Y164613D01*
X83790Y162790D01*
X84116Y162573D01*
X84500Y162496D01*
X92584D01*
X93497Y161584D01*
Y154416D01*
X90084Y151004D01*
X78500D01*
X78116Y150927D01*
X77790Y150710D01*
X73790Y146710D01*
X73573Y146384D01*
X73497Y146000D01*
Y95051D01*
X73573Y94667D01*
X73790Y94342D01*
X93497Y74636D01*
Y61000D01*
X93573Y60616D01*
X93790Y60290D01*
X94654Y59427D01*
X94434Y58961D01*
X94319Y58984D01*
X57651D01*
X56315Y60321D01*
Y66989D01*
X56505Y67117D01*
X56810Y67572D01*
X56917Y68110D01*
X56810Y68648D01*
X56505Y69104D01*
X56049Y69408D01*
X55512Y69515D01*
X54974Y69408D01*
X54518Y69104D01*
X54214Y68648D01*
X54107Y68110D01*
X54214Y67572D01*
X54518Y67117D01*
X54709Y66989D01*
Y60633D01*
X54209Y60426D01*
X49228Y65407D01*
Y66989D01*
X49419Y67117D01*
X49723Y67572D01*
X49830Y68110D01*
X49723Y68648D01*
X49419Y69104D01*
X48963Y69408D01*
X48425Y69515D01*
X47888Y69408D01*
X47432Y69104D01*
X47127Y68648D01*
X47020Y68110D01*
X47127Y67572D01*
X47432Y67117D01*
X47622Y66989D01*
Y65075D01*
X47684Y64768D01*
X47857Y64507D01*
X55932Y56432D01*
X55932Y56432D01*
X56193Y56258D01*
X56500Y56197D01*
X93497D01*
X100516Y49178D01*
Y19651D01*
X97416Y16551D01*
X87735D01*
X87608Y16741D01*
X87152Y17046D01*
X86614Y17153D01*
X86076Y17046D01*
X85621Y16741D01*
X85316Y16286D01*
X85209Y15748D01*
X85316Y15210D01*
X85621Y14755D01*
X86076Y14450D01*
X86614Y14343D01*
X87152Y14450D01*
X87608Y14755D01*
X87735Y14945D01*
X97748D01*
X98055Y15006D01*
X98316Y15180D01*
X101887Y18751D01*
X101887Y18751D01*
X102061Y19012D01*
X102122Y19319D01*
Y23590D01*
X102584Y23781D01*
X103310Y23054D01*
X103571Y22880D01*
X103878Y22819D01*
X103878Y22819D01*
X105080D01*
X105207Y22629D01*
X105663Y22324D01*
X106201Y22217D01*
X106738Y22324D01*
X107194Y22629D01*
X107499Y23084D01*
X107606Y23622D01*
X107499Y24160D01*
X107194Y24615D01*
X106738Y24920D01*
X106201Y25027D01*
X105663Y24920D01*
X105207Y24615D01*
X105080Y24425D01*
X104210D01*
X103303Y25333D01*
Y50000D01*
X103242Y50307D01*
X103068Y50568D01*
X103068Y50568D01*
X95022Y58613D01*
X95268Y59074D01*
X95461Y59036D01*
X96561D01*
X97002Y58741D01*
X97539Y58634D01*
X98077Y58741D01*
X98533Y59046D01*
X98837Y59502D01*
X98944Y60039D01*
X98837Y60577D01*
X98533Y61033D01*
X98077Y61337D01*
X97539Y61444D01*
X97002Y61337D01*
X96561Y61043D01*
X95876D01*
X95503Y61416D01*
Y75051D01*
X95921Y75516D01*
X105024D01*
X105331Y75577D01*
X105591Y75751D01*
X111980Y82140D01*
X112205Y82095D01*
X112742Y82202D01*
X113198Y82507D01*
X113503Y82962D01*
X113610Y83500D01*
X113503Y84038D01*
X113198Y84493D01*
X112742Y84798D01*
X112205Y84905D01*
X111667Y84798D01*
X111303Y84555D01*
X110970Y84661D01*
X110803Y84776D01*
Y96711D01*
X111980Y97888D01*
X112205Y97843D01*
X112742Y97950D01*
X113198Y98255D01*
X113503Y98710D01*
X113610Y99248D01*
X113503Y99786D01*
X113198Y100241D01*
X112742Y100546D01*
X112205Y100653D01*
X111667Y100546D01*
X111211Y100241D01*
X110907Y99786D01*
X110800Y99248D01*
X110845Y99023D01*
X109432Y97611D01*
X109258Y97351D01*
X109197Y97043D01*
Y83333D01*
X104167Y78303D01*
X96003D01*
X78756Y95550D01*
Y118565D01*
X83633Y123443D01*
X83858Y123398D01*
X84396Y123505D01*
X84852Y123810D01*
X85156Y124266D01*
X85263Y124803D01*
X85156Y125341D01*
X84852Y125797D01*
X84396Y126101D01*
X83858Y126208D01*
X83320Y126101D01*
X82865Y125797D01*
X82560Y125341D01*
X82453Y124803D01*
X82498Y124578D01*
X78036Y120117D01*
X77574Y120308D01*
Y137856D01*
X77765Y137983D01*
X78070Y138439D01*
X78177Y138976D01*
X78070Y139514D01*
X77765Y139970D01*
X77309Y140274D01*
X76772Y140381D01*
X76234Y140274D01*
X76003Y140120D01*
X75503Y140388D01*
Y145584D01*
X78916Y148996D01*
X90500D01*
X90884Y149073D01*
X91210Y149290D01*
X95210Y153290D01*
X95427Y153616D01*
X95503Y154000D01*
Y162000D01*
X95427Y162384D01*
X95210Y162710D01*
X93710Y164210D01*
X93384Y164427D01*
X93000Y164504D01*
X84916D01*
X83681Y165738D01*
Y178022D01*
X83975Y178462D01*
X84082Y179000D01*
X83975Y179538D01*
X83671Y179993D01*
X83215Y180298D01*
X82677Y180405D01*
D02*
G37*
G36*
X27165Y118519D02*
X26858Y118458D01*
X26598Y118284D01*
X26424Y118024D01*
X26363Y117717D01*
X26424Y117409D01*
X26598Y117149D01*
X26858Y116975D01*
X27165Y116914D01*
X27473Y116975D01*
X27733Y117149D01*
X27907Y117409D01*
X27968Y117717D01*
X27907Y118024D01*
X27733Y118284D01*
X27473Y118458D01*
X27165Y118519D01*
D02*
G37*
G36*
X105118Y118519D02*
X104811Y118458D01*
X104550Y118284D01*
X104376Y118024D01*
X104315Y117717D01*
X104376Y117409D01*
X104550Y117149D01*
X104811Y116975D01*
X105118Y116914D01*
X105425Y116975D01*
X105686Y117149D01*
X105860Y117409D01*
X105921Y117717D01*
X105860Y118024D01*
X105686Y118284D01*
X105425Y118458D01*
X105118Y118519D01*
D02*
G37*
G36*
X12992Y118519D02*
X12685Y118458D01*
X12424Y118284D01*
X12250Y118024D01*
X12189Y117717D01*
X12250Y117409D01*
X12424Y117149D01*
X12685Y116975D01*
X12992Y116914D01*
X13299Y116975D01*
X13560Y117149D01*
X13734Y117409D01*
X13795Y117717D01*
X13734Y118024D01*
X13560Y118284D01*
X13299Y118458D01*
X12992Y118519D01*
D02*
G37*
G36*
X88583Y191054D02*
X76772D01*
X75977Y190896D01*
X75303Y190445D01*
X74853Y189771D01*
X74694Y188976D01*
X74853Y188181D01*
X75303Y187507D01*
X75977Y187057D01*
X76772Y186899D01*
X86505D01*
Y180417D01*
X86502D01*
X86675Y178662D01*
X87187Y176974D01*
X88018Y175418D01*
X89137Y174055D01*
X90501Y172936D01*
X92057Y172104D01*
X93745Y171592D01*
X95500Y171419D01*
Y171423D01*
X102000D01*
X102127Y171448D01*
X103943Y171269D01*
X105812Y170702D01*
X107534Y169782D01*
X109043Y168543D01*
X110282Y167034D01*
X111202Y165312D01*
X111769Y163443D01*
X111912Y161995D01*
X111923Y161500D01*
X111923Y161500D01*
X111923Y161006D01*
Y111498D01*
X111923Y111000D01*
X111855Y110528D01*
X111807Y110288D01*
X111403Y109684D01*
X110799Y109280D01*
X110112Y109143D01*
X110087Y109164D01*
Y109164D01*
X109292Y109006D01*
X108618Y108555D01*
X108167Y107882D01*
X108009Y107087D01*
X108167Y106292D01*
X108618Y105618D01*
X109292Y105167D01*
X110087Y105009D01*
Y105020D01*
X111253Y105135D01*
X112375Y105476D01*
X113409Y106028D01*
X114315Y106772D01*
X115058Y107678D01*
X115611Y108712D01*
X115951Y109833D01*
X116055Y110889D01*
X116077Y111000D01*
Y161500D01*
X116081D01*
X115907Y163703D01*
X115392Y165851D01*
X114546Y167893D01*
X113392Y169776D01*
X111957Y171457D01*
X110276Y172892D01*
X108393Y174046D01*
X106351Y174892D01*
X104203Y175408D01*
X102000Y175581D01*
Y175577D01*
X95500D01*
X95404Y175558D01*
X94239Y175712D01*
X93064Y176198D01*
X92055Y176973D01*
X91281Y177981D01*
X90794Y179156D01*
X90641Y180322D01*
X90660Y180417D01*
Y188976D01*
X90502Y189771D01*
X90052Y190445D01*
X89378Y190896D01*
X88583Y191054D01*
D02*
G37*
G36*
X90945Y104346D02*
X90638Y104285D01*
X90377Y104111D01*
X90203Y103850D01*
X90142Y103543D01*
X90203Y103236D01*
X90377Y102976D01*
X90638Y102802D01*
X90945Y102741D01*
X91252Y102802D01*
X91513Y102976D01*
X91686Y103236D01*
X91748Y103543D01*
X91686Y103850D01*
X91513Y104111D01*
X91252Y104285D01*
X90945Y104346D01*
D02*
G37*
G36*
X5906Y92535D02*
X5598Y92474D01*
X5338Y92300D01*
X5164Y92040D01*
X5103Y91732D01*
X5164Y91425D01*
X5338Y91165D01*
X5598Y90991D01*
X5906Y90929D01*
X6213Y90991D01*
X6473Y91165D01*
X6647Y91425D01*
X6708Y91732D01*
X6647Y92040D01*
X6473Y92300D01*
X6213Y92474D01*
X5906Y92535D01*
D02*
G37*
G36*
X112205Y90173D02*
X111898Y90112D01*
X111637Y89938D01*
X111463Y89677D01*
X111402Y89370D01*
X111463Y89063D01*
X111637Y88802D01*
X111898Y88628D01*
X112205Y88567D01*
X112512Y88628D01*
X112772Y88802D01*
X112946Y89063D01*
X113007Y89370D01*
X112946Y89677D01*
X112772Y89938D01*
X112512Y90112D01*
X112205Y90173D01*
D02*
G37*
G36*
X105118Y90173D02*
X104811Y90112D01*
X104550Y89938D01*
X104376Y89677D01*
X104315Y89370D01*
X104376Y89063D01*
X104550Y88802D01*
X104811Y88628D01*
X105118Y88567D01*
X105425Y88628D01*
X105686Y88802D01*
X105860Y89063D01*
X105921Y89370D01*
X105860Y89677D01*
X105686Y89938D01*
X105425Y90112D01*
X105118Y90173D01*
D02*
G37*
G36*
X69685Y83086D02*
X69378Y83025D01*
X69117Y82851D01*
X68943Y82591D01*
X68882Y82284D01*
X68943Y81976D01*
X69117Y81716D01*
X69378Y81542D01*
X69685Y81481D01*
X69992Y81542D01*
X70253Y81716D01*
X70427Y81976D01*
X70488Y82284D01*
X70427Y82591D01*
X70253Y82851D01*
X69992Y83025D01*
X69685Y83086D01*
D02*
G37*
G36*
X62598D02*
X62291Y83025D01*
X62031Y82851D01*
X61857Y82591D01*
X61796Y82284D01*
X61857Y81976D01*
X62031Y81716D01*
X62291Y81542D01*
X62598Y81481D01*
X62906Y81542D01*
X63166Y81716D01*
X63340Y81976D01*
X63401Y82284D01*
X63340Y82591D01*
X63166Y82851D01*
X62906Y83025D01*
X62598Y83086D01*
D02*
G37*
G36*
X55512D02*
X55204Y83025D01*
X54944Y82851D01*
X54770Y82591D01*
X54709Y82284D01*
X54770Y81976D01*
X54944Y81716D01*
X55204Y81542D01*
X55512Y81481D01*
X55819Y81542D01*
X56080Y81716D01*
X56253Y81976D01*
X56315Y82284D01*
X56253Y82591D01*
X56080Y82851D01*
X55819Y83025D01*
X55512Y83086D01*
D02*
G37*
G36*
X48425D02*
X48118Y83025D01*
X47857Y82851D01*
X47683Y82591D01*
X47622Y82284D01*
X47683Y81976D01*
X47857Y81716D01*
X48118Y81542D01*
X48425Y81481D01*
X48732Y81542D01*
X48993Y81716D01*
X49167Y81976D01*
X49228Y82284D01*
X49167Y82591D01*
X48993Y82851D01*
X48732Y83025D01*
X48425Y83086D01*
D02*
G37*
G36*
X41339D02*
X41031Y83025D01*
X40771Y82851D01*
X40597Y82591D01*
X40536Y82284D01*
X40597Y81976D01*
X40771Y81716D01*
X41031Y81542D01*
X41339Y81481D01*
X41646Y81542D01*
X41906Y81716D01*
X42080Y81976D01*
X42141Y82284D01*
X42080Y82591D01*
X41906Y82851D01*
X41646Y83025D01*
X41339Y83086D01*
D02*
G37*
G36*
X5906Y82299D02*
X5598Y82238D01*
X5338Y82064D01*
X5164Y81803D01*
X5103Y81496D01*
X5164Y81189D01*
X5338Y80928D01*
X5598Y80754D01*
X5906Y80693D01*
X6213Y80754D01*
X6473Y80928D01*
X6647Y81189D01*
X6708Y81496D01*
X6647Y81803D01*
X6473Y82064D01*
X6213Y82238D01*
X5906Y82299D01*
D02*
G37*
G36*
X76772Y76000D02*
X76464Y75939D01*
X76204Y75765D01*
X76030Y75504D01*
X75969Y75197D01*
X76030Y74890D01*
X76204Y74629D01*
X76464Y74455D01*
X76772Y74394D01*
X77079Y74455D01*
X77339Y74629D01*
X77513Y74890D01*
X77574Y75197D01*
X77513Y75504D01*
X77339Y75765D01*
X77079Y75939D01*
X76772Y76000D01*
D02*
G37*
G36*
X112205Y76000D02*
X111897Y75938D01*
X111637Y75765D01*
X111463Y75504D01*
X111402Y75197D01*
X111463Y74890D01*
X111637Y74629D01*
X111897Y74455D01*
X112205Y74394D01*
X112512Y74455D01*
X112772Y74629D01*
X112946Y74890D01*
X113007Y75197D01*
X112946Y75504D01*
X112772Y75765D01*
X112512Y75938D01*
X112205Y76000D01*
D02*
G37*
G36*
X34252Y68913D02*
X33945Y68852D01*
X33684Y68678D01*
X33510Y68418D01*
X33449Y68110D01*
X33510Y67803D01*
X33684Y67543D01*
X33945Y67369D01*
X34252Y67307D01*
X34559Y67369D01*
X34820Y67543D01*
X34994Y67803D01*
X35055Y68110D01*
X34994Y68418D01*
X34820Y68678D01*
X34559Y68852D01*
X34252Y68913D01*
D02*
G37*
G36*
X27165D02*
X26858Y68852D01*
X26598Y68678D01*
X26424Y68418D01*
X26362Y68110D01*
X26424Y67803D01*
X26598Y67543D01*
X26858Y67369D01*
X27165Y67307D01*
X27473Y67369D01*
X27733Y67543D01*
X27907Y67803D01*
X27968Y68110D01*
X27907Y68418D01*
X27733Y68678D01*
X27473Y68852D01*
X27165Y68913D01*
D02*
G37*
G36*
X20079D02*
X19771Y68852D01*
X19511Y68678D01*
X19337Y68418D01*
X19276Y68110D01*
X19337Y67803D01*
X19511Y67543D01*
X19771Y67369D01*
X20079Y67307D01*
X20386Y67369D01*
X20646Y67543D01*
X20820Y67803D01*
X20882Y68110D01*
X20820Y68418D01*
X20646Y68678D01*
X20386Y68852D01*
X20079Y68913D01*
D02*
G37*
G36*
X12992D02*
X12685Y68852D01*
X12424Y68678D01*
X12250Y68418D01*
X12189Y68110D01*
X12250Y67803D01*
X12424Y67543D01*
X12685Y67369D01*
X12992Y67307D01*
X13299Y67369D01*
X13560Y67543D01*
X13734Y67803D01*
X13795Y68110D01*
X13734Y68418D01*
X13560Y68678D01*
X13299Y68852D01*
X12992Y68913D01*
D02*
G37*
G36*
X98032Y68913D02*
X97724Y68852D01*
X97464Y68678D01*
X97290Y68418D01*
X97229Y68110D01*
X97290Y67803D01*
X97464Y67543D01*
X97724Y67369D01*
X98032Y67307D01*
X98339Y67369D01*
X98599Y67543D01*
X98773Y67803D01*
X98834Y68110D01*
X98773Y68418D01*
X98599Y68678D01*
X98339Y68852D01*
X98032Y68913D01*
D02*
G37*
G36*
X90945D02*
X90638Y68852D01*
X90377Y68678D01*
X90203Y68418D01*
X90142Y68110D01*
X90203Y67803D01*
X90377Y67543D01*
X90638Y67369D01*
X90945Y67307D01*
X91252Y67369D01*
X91513Y67543D01*
X91687Y67803D01*
X91748Y68110D01*
X91687Y68418D01*
X91513Y68678D01*
X91252Y68852D01*
X90945Y68913D01*
D02*
G37*
G36*
X76772D02*
X76464Y68852D01*
X76204Y68678D01*
X76030Y68418D01*
X75969Y68110D01*
X76030Y67803D01*
X76204Y67543D01*
X76464Y67369D01*
X76772Y67307D01*
X77079Y67369D01*
X77339Y67543D01*
X77513Y67803D01*
X77574Y68110D01*
X77513Y68418D01*
X77339Y68678D01*
X77079Y68852D01*
X76772Y68913D01*
D02*
G37*
G36*
X105118Y68913D02*
X104811Y68852D01*
X104550Y68678D01*
X104376Y68418D01*
X104315Y68110D01*
X104376Y67803D01*
X104550Y67542D01*
X104811Y67369D01*
X105118Y67307D01*
X105425Y67369D01*
X105686Y67542D01*
X105860Y67803D01*
X105921Y68110D01*
X105860Y68418D01*
X105686Y68678D01*
X105425Y68852D01*
X105118Y68913D01*
D02*
G37*
G36*
X62598D02*
X62291Y68852D01*
X62031Y68678D01*
X61857Y68418D01*
X61796Y68110D01*
X61857Y67803D01*
X62031Y67542D01*
X62291Y67369D01*
X62598Y67307D01*
X62906Y67369D01*
X63166Y67542D01*
X63340Y67803D01*
X63401Y68110D01*
X63340Y68418D01*
X63166Y68678D01*
X62906Y68852D01*
X62598Y68913D01*
D02*
G37*
G36*
X37937Y86803D02*
X37630Y86742D01*
X37369Y86568D01*
X37369Y86568D01*
X34477Y83675D01*
X34252Y83720D01*
X33714Y83613D01*
X33259Y83308D01*
X32954Y82853D01*
X32847Y82315D01*
X32892Y82090D01*
X29287Y78485D01*
X29113Y78225D01*
X29052Y77917D01*
Y58444D01*
X28861Y58316D01*
X28556Y57860D01*
X28449Y57323D01*
X28556Y56785D01*
X28861Y56329D01*
X29052Y56202D01*
Y51146D01*
X29113Y50838D01*
X29287Y50578D01*
X33432Y46432D01*
X33432Y46432D01*
X33693Y46258D01*
X34000Y46197D01*
X68667D01*
X70197Y44668D01*
Y28833D01*
X69573Y28208D01*
X69110Y28445D01*
X69049Y28752D01*
X68875Y29013D01*
X68614Y29187D01*
X68307Y29248D01*
X68000Y29187D01*
X67739Y29013D01*
X67565Y28752D01*
X67504Y28445D01*
X67565Y28138D01*
X67739Y27877D01*
X68000Y27703D01*
X68307Y27642D01*
X68544Y27179D01*
X67739Y26375D01*
X67565Y26114D01*
X67504Y25807D01*
Y24448D01*
X67314Y24320D01*
X67009Y23864D01*
X66902Y23327D01*
X66927Y23200D01*
X66467Y22953D01*
X65665Y23755D01*
Y26478D01*
X65665Y26478D01*
X65604Y26786D01*
X65430Y27046D01*
X65430Y27046D01*
X58126Y34350D01*
Y38249D01*
X58316Y38377D01*
X58621Y38833D01*
X58728Y39370D01*
X58621Y39908D01*
X58316Y40364D01*
X58126Y40491D01*
Y42177D01*
X58126Y42177D01*
X58065Y42484D01*
X57890Y42745D01*
X56568Y44068D01*
X56307Y44242D01*
X56000Y44303D01*
X35000D01*
X34693Y44242D01*
X34432Y44068D01*
X31668Y41303D01*
X29000D01*
X28693Y41242D01*
X28432Y41068D01*
X28432Y41068D01*
X24747Y37383D01*
X24573Y37122D01*
X24512Y36815D01*
Y30648D01*
X24321Y30521D01*
X24017Y30065D01*
X23910Y29528D01*
X24017Y28990D01*
X24321Y28534D01*
X24512Y28407D01*
Y24026D01*
X24520Y23984D01*
X24174Y23484D01*
X15651D01*
X14582Y24553D01*
Y30375D01*
X14773Y30503D01*
X15078Y30958D01*
X15184Y31496D01*
X15078Y32034D01*
X14773Y32489D01*
X14317Y32794D01*
X13780Y32901D01*
X13242Y32794D01*
X12786Y32489D01*
X12482Y32034D01*
X12375Y31496D01*
X12482Y30958D01*
X12786Y30503D01*
X12977Y30375D01*
Y24220D01*
X13038Y23913D01*
X13212Y23653D01*
X14100Y22765D01*
X13908Y22303D01*
X9833D01*
X7303Y24833D01*
Y73667D01*
X8029Y74394D01*
X11871D01*
X11999Y74203D01*
X12455Y73899D01*
X12992Y73792D01*
X13530Y73899D01*
X13986Y74203D01*
X14290Y74659D01*
X14397Y75197D01*
X14290Y75735D01*
X13986Y76190D01*
X13530Y76495D01*
X12992Y76602D01*
X12455Y76495D01*
X11999Y76190D01*
X11871Y76000D01*
X7697D01*
X7390Y75938D01*
X7129Y75765D01*
X5932Y74568D01*
X5758Y74307D01*
X5697Y74000D01*
Y24500D01*
X5758Y24193D01*
X5932Y23932D01*
X8932Y20932D01*
X8932Y20932D01*
X9193Y20758D01*
X9500Y20697D01*
X24168D01*
X25969Y18896D01*
Y16869D01*
X25778Y16741D01*
X25474Y16286D01*
X25367Y15748D01*
X25474Y15210D01*
X25778Y14755D01*
X26234Y14450D01*
X26772Y14343D01*
X27309Y14450D01*
X27765Y14755D01*
X28070Y15210D01*
X28091Y15321D01*
X28601D01*
X28623Y15210D01*
X28928Y14755D01*
X29384Y14450D01*
X29921Y14343D01*
X30459Y14450D01*
X30915Y14755D01*
X31219Y15210D01*
X31326Y15748D01*
X31219Y16286D01*
X30915Y16741D01*
X30560Y16979D01*
Y17913D01*
X30499Y18221D01*
X30325Y18481D01*
X30325Y18481D01*
X27900Y20906D01*
X28091Y21368D01*
X35497D01*
X37932Y18932D01*
X37932Y18932D01*
X38193Y18758D01*
X38500Y18697D01*
X38500Y18697D01*
X51500D01*
X51807Y18758D01*
X52068Y18932D01*
X53324Y20188D01*
X53324Y20188D01*
X53498Y20449D01*
X53559Y20756D01*
Y22206D01*
X53749Y22333D01*
X54054Y22789D01*
X54161Y23327D01*
X54054Y23864D01*
X53837Y24189D01*
X54003Y24623D01*
X54058Y24689D01*
X57164D01*
X58154Y23700D01*
Y20960D01*
X57582Y20388D01*
X56821D01*
X56514Y20327D01*
X56254Y20153D01*
X56253Y20153D01*
X54550Y18450D01*
X54376Y18189D01*
X54315Y17882D01*
Y16869D01*
X54125Y16741D01*
X53820Y16286D01*
X53713Y15748D01*
X53820Y15210D01*
X54125Y14755D01*
X54580Y14450D01*
X55118Y14343D01*
X55656Y14450D01*
X56112Y14755D01*
X56416Y15210D01*
X56438Y15321D01*
X56948D01*
X56970Y15210D01*
X57274Y14755D01*
X57730Y14450D01*
X58268Y14343D01*
X58805Y14450D01*
X59261Y14755D01*
X59566Y15210D01*
X59673Y15748D01*
X59566Y16286D01*
X59261Y16741D01*
X59070Y16869D01*
Y17935D01*
X60027Y18892D01*
X60570Y18727D01*
X60577Y18689D01*
X60751Y18428D01*
X63207Y15973D01*
X63162Y15748D01*
X63269Y15210D01*
X63573Y14755D01*
X64029Y14450D01*
X64567Y14343D01*
X65105Y14450D01*
X65560Y14755D01*
X65865Y15210D01*
X65887Y15321D01*
X66397D01*
X66418Y15210D01*
X66723Y14755D01*
X67179Y14450D01*
X67716Y14343D01*
X68254Y14450D01*
X68710Y14755D01*
X69015Y15210D01*
X69036Y15321D01*
X69546D01*
X69568Y15210D01*
X69873Y14755D01*
X70328Y14450D01*
X70866Y14343D01*
X71404Y14450D01*
X71860Y14755D01*
X72164Y15210D01*
X72186Y15321D01*
X72696D01*
X72718Y15210D01*
X73022Y14755D01*
X73478Y14450D01*
X74016Y14343D01*
X74553Y14450D01*
X75009Y14755D01*
X75314Y15210D01*
X75336Y15321D01*
X75845D01*
X75867Y15210D01*
X76172Y14755D01*
X76628Y14450D01*
X77165Y14343D01*
X77703Y14450D01*
X78159Y14755D01*
X78463Y15210D01*
X78485Y15321D01*
X78995D01*
X79017Y15210D01*
X79321Y14755D01*
X79777Y14450D01*
X80315Y14343D01*
X80853Y14450D01*
X81308Y14755D01*
X81613Y15210D01*
X81720Y15748D01*
X81613Y16286D01*
X81308Y16741D01*
X81118Y16869D01*
Y22482D01*
X83100Y24465D01*
X83895D01*
X84022Y24274D01*
X84478Y23970D01*
X85016Y23863D01*
X85553Y23970D01*
X86009Y24274D01*
X86314Y24730D01*
X86421Y25268D01*
X86314Y25805D01*
X86009Y26261D01*
X85553Y26566D01*
X85016Y26673D01*
X84478Y26566D01*
X84022Y26261D01*
X83895Y26070D01*
X82768D01*
X82460Y26009D01*
X82200Y25835D01*
X80399Y24034D01*
X79937Y24225D01*
Y29801D01*
X82474Y32339D01*
X83895D01*
X84022Y32148D01*
X84478Y31844D01*
X85016Y31737D01*
X85553Y31844D01*
X86009Y32148D01*
X86314Y32604D01*
X86421Y33142D01*
X86314Y33679D01*
X86009Y34135D01*
X85553Y34440D01*
X85016Y34547D01*
X84478Y34440D01*
X84022Y34135D01*
X83895Y33944D01*
X82142D01*
X82142Y33945D01*
X81835Y33883D01*
X81574Y33709D01*
X81574Y33709D01*
X79217Y31353D01*
X78755Y31544D01*
Y37620D01*
X81332Y40197D01*
X83879D01*
X84007Y40007D01*
X84462Y39702D01*
X85000Y39595D01*
X85538Y39702D01*
X85993Y40007D01*
X86298Y40462D01*
X86405Y41000D01*
X86298Y41538D01*
X85993Y41993D01*
X85538Y42298D01*
X85000Y42405D01*
X84462Y42298D01*
X84007Y41993D01*
X83879Y41803D01*
X81921D01*
X81730Y42265D01*
X83162Y43697D01*
X87659D01*
X87786Y43507D01*
X88242Y43202D01*
X88779Y43095D01*
X89317Y43202D01*
X89773Y43507D01*
X90078Y43962D01*
X90184Y44500D01*
X90078Y45038D01*
X89773Y45494D01*
X89317Y45798D01*
X88779Y45905D01*
X88242Y45798D01*
X87786Y45494D01*
X87659Y45303D01*
X82830D01*
X82830Y45303D01*
X82522Y45242D01*
X82262Y45068D01*
X76204Y39010D01*
X76030Y38749D01*
X75969Y38442D01*
Y21333D01*
X74939Y20303D01*
X69117D01*
X67933Y21486D01*
X68180Y21947D01*
X68307Y21922D01*
X68845Y22029D01*
X69301Y22333D01*
X69605Y22789D01*
X69712Y23327D01*
X69605Y23864D01*
X69301Y24320D01*
X69110Y24448D01*
Y25475D01*
X71568Y27932D01*
X71742Y28193D01*
X71803Y28500D01*
X71803Y28500D01*
Y45000D01*
X71803Y45000D01*
X71742Y45307D01*
X71568Y45568D01*
X71568Y45568D01*
X69568Y47568D01*
X69307Y47742D01*
X69000Y47803D01*
X34332D01*
X30657Y51478D01*
Y56202D01*
X30848Y56329D01*
X31152Y56785D01*
X31259Y57323D01*
X31152Y57860D01*
X30848Y58316D01*
X30657Y58444D01*
Y77585D01*
X34027Y80955D01*
X34252Y80910D01*
X34790Y81017D01*
X35245Y81322D01*
X35550Y81777D01*
X35657Y82315D01*
X35612Y82540D01*
X38269Y85197D01*
X78167D01*
X81197Y82168D01*
Y66000D01*
X81258Y65693D01*
X81432Y65432D01*
X86409Y60456D01*
X86409Y60456D01*
X86669Y60282D01*
X86976Y60221D01*
X89332D01*
X89459Y60030D01*
X89915Y59726D01*
X90453Y59619D01*
X90990Y59726D01*
X91446Y60030D01*
X91751Y60486D01*
X91858Y61024D01*
X91751Y61561D01*
X91446Y62017D01*
X90990Y62322D01*
X90453Y62429D01*
X89915Y62322D01*
X89459Y62017D01*
X89332Y61826D01*
X87309D01*
X82803Y66333D01*
Y82500D01*
X82803Y82500D01*
X82742Y82807D01*
X82568Y83068D01*
X82568Y83068D01*
X79068Y86568D01*
X78807Y86742D01*
X78500Y86803D01*
X37937D01*
X37937Y86803D01*
D02*
G37*
G36*
X90500Y55303D02*
X90193Y55242D01*
X89932Y55068D01*
X89758Y54807D01*
X89697Y54500D01*
X89758Y54193D01*
X89932Y53932D01*
X90193Y53758D01*
X90500Y53697D01*
X90807Y53758D01*
X91068Y53932D01*
X91242Y54193D01*
X91303Y54500D01*
X91242Y54807D01*
X91068Y55068D01*
X90807Y55242D01*
X90500Y55303D01*
D02*
G37*
G36*
X50394Y54937D02*
X50086Y54876D01*
X49826Y54702D01*
X49652Y54441D01*
X49591Y54134D01*
X49652Y53827D01*
X49826Y53566D01*
X50086Y53392D01*
X50394Y53331D01*
X50701Y53392D01*
X50961Y53566D01*
X51135Y53827D01*
X51196Y54134D01*
X51135Y54441D01*
X50961Y54702D01*
X50701Y54876D01*
X50394Y54937D01*
D02*
G37*
G36*
X78740Y50015D02*
X78433Y49954D01*
X78172Y49780D01*
X77998Y49520D01*
X77937Y49213D01*
X77998Y48905D01*
X78172Y48645D01*
X78433Y48471D01*
X78740Y48410D01*
X79047Y48471D01*
X79308Y48645D01*
X79482Y48905D01*
X79543Y49213D01*
X79482Y49520D01*
X79308Y49780D01*
X79047Y49954D01*
X78740Y50015D01*
D02*
G37*
G36*
X30000Y45303D02*
X29693Y45242D01*
X29432Y45068D01*
X29258Y44807D01*
X29197Y44500D01*
X29258Y44193D01*
X29432Y43932D01*
X29693Y43758D01*
X30000Y43697D01*
X30307Y43758D01*
X30568Y43932D01*
X30742Y44193D01*
X30803Y44500D01*
X30742Y44807D01*
X30568Y45068D01*
X30307Y45242D01*
X30000Y45303D01*
D02*
G37*
G36*
X10020Y42141D02*
X9713Y42080D01*
X9452Y41906D01*
X9278Y41646D01*
X9217Y41339D01*
X9278Y41031D01*
X9452Y40771D01*
X9713Y40597D01*
X10020Y40536D01*
X10327Y40597D01*
X10587Y40771D01*
X10761Y41031D01*
X10823Y41339D01*
X10761Y41646D01*
X10587Y41906D01*
X10327Y42080D01*
X10020Y42141D01*
D02*
G37*
G36*
X68307Y42031D02*
X68000Y41970D01*
X67739Y41796D01*
X67565Y41536D01*
X67504Y41228D01*
X67565Y40921D01*
X67739Y40661D01*
X68000Y40487D01*
X68307Y40426D01*
X68614Y40487D01*
X68875Y40661D01*
X69049Y40921D01*
X69110Y41228D01*
X69049Y41536D01*
X68875Y41796D01*
X68614Y41970D01*
X68307Y42031D01*
D02*
G37*
G36*
X106201Y40173D02*
X105894Y40112D01*
X105633Y39938D01*
X105459Y39677D01*
X105398Y39370D01*
X105459Y39063D01*
X105633Y38802D01*
X105894Y38628D01*
X106201Y38567D01*
X106508Y38628D01*
X106769Y38802D01*
X106942Y39063D01*
X107004Y39370D01*
X106942Y39677D01*
X106769Y39938D01*
X106508Y40112D01*
X106201Y40173D01*
D02*
G37*
G36*
X68307Y39484D02*
X68000Y39423D01*
X67739Y39249D01*
X67565Y38988D01*
X67504Y38681D01*
X67565Y38374D01*
X67739Y38113D01*
X68000Y37939D01*
X68307Y37878D01*
X68614Y37939D01*
X68875Y38113D01*
X69049Y38374D01*
X69110Y38681D01*
X69049Y38988D01*
X68875Y39249D01*
X68614Y39423D01*
X68307Y39484D01*
D02*
G37*
G36*
Y36925D02*
X68000Y36864D01*
X67739Y36690D01*
X67565Y36429D01*
X67504Y36122D01*
X67565Y35815D01*
X67739Y35554D01*
X68000Y35380D01*
X68307Y35319D01*
X68614Y35380D01*
X68875Y35554D01*
X69049Y35815D01*
X69110Y36122D01*
X69049Y36429D01*
X68875Y36690D01*
X68614Y36864D01*
X68307Y36925D01*
D02*
G37*
G36*
X68332Y34341D02*
X68024Y34280D01*
X67764Y34106D01*
X67590Y33846D01*
X67529Y33538D01*
X67590Y33231D01*
X67764Y32971D01*
X68024Y32797D01*
X68332Y32736D01*
X68639Y32797D01*
X68899Y32971D01*
X69073Y33231D01*
X69134Y33538D01*
X69073Y33846D01*
X68899Y34106D01*
X68639Y34280D01*
X68332Y34341D01*
D02*
G37*
G36*
X21654Y33382D02*
X21346Y33321D01*
X21086Y33146D01*
X20912Y32886D01*
X20851Y32579D01*
X20912Y32272D01*
X21086Y32011D01*
X21346Y31837D01*
X21654Y31776D01*
X21961Y31837D01*
X22221Y32011D01*
X22395Y32272D01*
X22456Y32579D01*
X22395Y32886D01*
X22221Y33146D01*
X21961Y33321D01*
X21654Y33382D01*
D02*
G37*
G36*
X106201Y32299D02*
X105894Y32238D01*
X105633Y32064D01*
X105459Y31803D01*
X105398Y31496D01*
X105459Y31189D01*
X105633Y30928D01*
X105894Y30754D01*
X106201Y30693D01*
X106508Y30754D01*
X106769Y30928D01*
X106942Y31189D01*
X107004Y31496D01*
X106942Y31803D01*
X106769Y32064D01*
X106508Y32238D01*
X106201Y32299D01*
D02*
G37*
G36*
X68307Y31807D02*
X68000Y31746D01*
X67739Y31572D01*
X67565Y31311D01*
X67504Y31004D01*
X67565Y30697D01*
X67739Y30436D01*
X68000Y30262D01*
X68307Y30201D01*
X68614Y30262D01*
X68875Y30436D01*
X69049Y30697D01*
X69110Y31004D01*
X69049Y31311D01*
X68875Y31572D01*
X68614Y31746D01*
X68307Y31807D01*
D02*
G37*
G36*
X35157Y20212D02*
X34850Y20151D01*
X34590Y19977D01*
X34416Y19717D01*
X34355Y19410D01*
X34416Y19102D01*
X34590Y18842D01*
X34850Y18668D01*
X35157Y18607D01*
X35465Y18668D01*
X35725Y18842D01*
X35899Y19102D01*
X35960Y19410D01*
X35899Y19717D01*
X35725Y19977D01*
X35465Y20151D01*
X35157Y20212D01*
D02*
G37*
G36*
X17324Y16551D02*
X17017Y16490D01*
X16757Y16316D01*
X16583Y16055D01*
X16522Y15748D01*
X16583Y15441D01*
X16757Y15180D01*
X17017Y15006D01*
X17324Y14945D01*
X17631Y15006D01*
X17892Y15180D01*
X18066Y15441D01*
X18127Y15748D01*
X18066Y16055D01*
X17892Y16316D01*
X17631Y16490D01*
X17324Y16551D01*
D02*
G37*
G36*
X31890Y13401D02*
X31582Y13340D01*
X31322Y13166D01*
X31148Y12906D01*
X31087Y12598D01*
X31148Y12291D01*
X31322Y12031D01*
X31582Y11857D01*
X31890Y11796D01*
X32197Y11857D01*
X32458Y12031D01*
X32631Y12291D01*
X32693Y12598D01*
X32631Y12906D01*
X32458Y13166D01*
X32197Y13340D01*
X31890Y13401D01*
D02*
G37*
G36*
X27953D02*
X27645Y13340D01*
X27385Y13166D01*
X27211Y12906D01*
X27150Y12598D01*
X27211Y12291D01*
X27385Y12031D01*
X27645Y11857D01*
X27953Y11796D01*
X28260Y11857D01*
X28520Y12031D01*
X28694Y12291D01*
X28756Y12598D01*
X28694Y12906D01*
X28520Y13166D01*
X28260Y13340D01*
X27953Y13401D01*
D02*
G37*
%LPD*%
G36*
X56520Y41845D02*
Y40491D01*
X56329Y40364D01*
X56025Y39908D01*
X55918Y39370D01*
X56025Y38833D01*
X56329Y38377D01*
X56520Y38249D01*
Y34018D01*
X56581Y33711D01*
X56755Y33450D01*
X58133Y32072D01*
X57942Y31610D01*
X55844D01*
X54116Y33338D01*
X54161Y33563D01*
X54054Y34101D01*
X53749Y34556D01*
X53695Y34593D01*
Y35092D01*
X53749Y35129D01*
X54054Y35584D01*
X54161Y36122D01*
X54054Y36660D01*
X53749Y37115D01*
X53695Y37152D01*
Y37652D01*
X53749Y37688D01*
X54054Y38144D01*
X54161Y38681D01*
X54054Y39219D01*
X53749Y39674D01*
X53294Y39979D01*
X52756Y40086D01*
X52218Y39979D01*
X51762Y39674D01*
X51635Y39484D01*
X50181D01*
X49874Y39423D01*
X49613Y39249D01*
X49613Y39249D01*
X47932Y37568D01*
X47758Y37307D01*
X47697Y37000D01*
Y27500D01*
X47758Y27193D01*
X47932Y26932D01*
X49940Y24925D01*
X49940Y24924D01*
X50201Y24750D01*
X50508Y24689D01*
X50508Y24689D01*
X51454D01*
X51509Y24623D01*
X51675Y24189D01*
X51458Y23864D01*
X51351Y23327D01*
X51458Y22789D01*
X51762Y22333D01*
X51953Y22206D01*
Y21089D01*
X51168Y20303D01*
X38833D01*
X36397Y22738D01*
X36137Y22912D01*
X35830Y22973D01*
X27503D01*
X26118Y24358D01*
Y28407D01*
X26308Y28534D01*
X26613Y28990D01*
X26720Y29528D01*
X26613Y30065D01*
X26308Y30521D01*
X26118Y30648D01*
Y36482D01*
X29333Y39697D01*
X32000D01*
X32307Y39758D01*
X32568Y39932D01*
X35333Y42697D01*
X55667D01*
X56520Y41845D01*
D02*
G37*
%LPC*%
G36*
X29528Y34267D02*
X29220Y34206D01*
X28960Y34032D01*
X28786Y33772D01*
X28725Y33465D01*
X28786Y33157D01*
X28960Y32897D01*
X29220Y32723D01*
X29528Y32662D01*
X29835Y32723D01*
X30095Y32897D01*
X30269Y33157D01*
X30330Y33465D01*
X30269Y33772D01*
X30095Y34032D01*
X29835Y34206D01*
X29528Y34267D01*
D02*
G37*
G36*
Y30330D02*
X29220Y30269D01*
X28960Y30095D01*
X28786Y29835D01*
X28725Y29528D01*
X28786Y29220D01*
X28960Y28960D01*
X29220Y28786D01*
X29528Y28725D01*
X29835Y28786D01*
X30095Y28960D01*
X30269Y29220D01*
X30330Y29528D01*
X30269Y29835D01*
X30095Y30095D01*
X29835Y30269D01*
X29528Y30330D01*
D02*
G37*
G36*
Y26393D02*
X29220Y26332D01*
X28960Y26158D01*
X28786Y25898D01*
X28725Y25591D01*
X28786Y25283D01*
X28960Y25023D01*
X29220Y24849D01*
X29528Y24788D01*
X29835Y24849D01*
X30095Y25023D01*
X30269Y25283D01*
X30330Y25591D01*
X30269Y25898D01*
X30095Y26158D01*
X29835Y26332D01*
X29528Y26393D01*
D02*
G37*
%LPD*%
D38*
X110000Y83000D02*
Y97043D01*
X95670Y77500D02*
X104500D01*
X105024Y76319D02*
X112205Y83500D01*
X76772Y94728D02*
X95181Y76319D01*
X104500Y77500D02*
X110000Y83000D01*
X95181Y76319D02*
X105024D01*
X76772Y94728D02*
Y138976D01*
X77953Y95218D02*
X95670Y77500D01*
X110000Y97043D02*
X112205Y99248D01*
X77953Y95218D02*
Y118898D01*
X83858Y124803D01*
X82000Y66000D02*
X86976Y61024D01*
X37937Y86000D02*
X78500D01*
X34252Y82315D02*
X37937Y86000D01*
X78500D02*
X82000Y82500D01*
Y66000D02*
Y82500D01*
X29854Y77917D02*
X34252Y82315D01*
X25315Y29528D02*
Y36815D01*
X29000Y40500D02*
X32000D01*
X25315Y36815D02*
X29000Y40500D01*
X32000D02*
X35000Y43500D01*
X56000D01*
X57323Y39370D02*
Y42177D01*
X56000Y43500D02*
X57323Y42177D01*
X76772Y38442D02*
X82830Y44500D01*
X88779D01*
X76772Y21000D02*
Y38442D01*
X77953Y37953D02*
X81000Y41000D01*
X77953Y19685D02*
Y37953D01*
X68784Y19500D02*
X75272D01*
X76772Y21000D01*
X64862Y23422D02*
X68784Y19500D01*
X64862Y23422D02*
Y26478D01*
X57323Y34018D02*
Y39370D01*
Y34018D02*
X64862Y26478D01*
X55512Y30807D02*
X58863D01*
X54440Y29626D02*
X58374D01*
X57497Y25492D02*
X58957Y24032D01*
X63681Y22933D02*
Y25989D01*
X57986Y26673D02*
X60138Y24522D01*
X57885Y28445D02*
X61319Y25011D01*
X58374Y29626D02*
X62500Y25500D01*
X50997Y26673D02*
X57986D01*
X52756Y28445D02*
X57885D01*
X58863Y30807D02*
X63681Y25989D01*
X50508Y25492D02*
X57497D01*
X62500Y20965D02*
Y25500D01*
X61319Y18996D02*
Y25011D01*
X68307Y25807D02*
X71000Y28500D01*
Y45000D01*
X68307Y23327D02*
Y25807D01*
X69000Y47000D02*
X71000Y45000D01*
X34000Y47000D02*
X69000D01*
X50181Y38681D02*
X52756D01*
X48500Y37000D02*
X50181Y38681D01*
X49681Y27989D02*
Y35181D01*
Y27989D02*
X50997Y26673D01*
X49681Y35181D02*
X50591Y36091D01*
X48500Y27500D02*
Y37000D01*
X52724Y36091D02*
X52756Y36122D01*
X50591Y36091D02*
X52724D01*
X48500Y27500D02*
X50508Y25492D01*
X58957Y20627D02*
Y24032D01*
X57915Y19585D02*
X58957Y20627D01*
X55118Y17882D02*
X56821Y19585D01*
X57915D01*
X60138Y20138D02*
Y24522D01*
X58268Y15748D02*
Y18268D01*
X60138Y20138D01*
X55118Y15748D02*
Y17882D01*
X55512Y59988D02*
Y68110D01*
X57319Y58181D02*
X94319D01*
X55512Y59988D02*
X57319Y58181D01*
X48425Y65075D02*
Y68110D01*
Y65075D02*
X56500Y57000D01*
X93830D01*
X97748Y15748D02*
X101319Y19319D01*
X86614Y15748D02*
X97748D01*
X101319Y19319D02*
Y49511D01*
X102500Y25000D02*
Y50000D01*
Y25000D02*
X103878Y23622D01*
X106201D01*
X93830Y57000D02*
X101319Y49511D01*
X94319Y58181D02*
X102500Y50000D01*
X27170Y22170D02*
X35830D01*
X38500Y19500D01*
X51500D01*
X52756Y20756D01*
X25315Y24026D02*
X27170Y22170D01*
X25315Y24026D02*
Y29528D01*
X9500Y21500D02*
X24500D01*
X15319Y22681D02*
X24989D01*
X26772Y15748D02*
Y19228D01*
X29757Y15912D02*
X29921Y15748D01*
X24989Y22681D02*
X29757Y17913D01*
X24500Y21500D02*
X26772Y19228D01*
X29757Y15912D02*
Y17913D01*
X52756Y20756D02*
Y23327D01*
X29854Y51146D02*
X34000Y47000D01*
X29854Y51146D02*
Y57323D01*
Y77917D01*
X86976Y61024D02*
X90453D01*
X6500Y24500D02*
Y74000D01*
Y24500D02*
X9500Y21500D01*
X13780Y24220D02*
X15319Y22681D01*
X6500Y74000D02*
X7697Y75197D01*
X12992D01*
X13780Y24220D02*
Y31496D01*
X81000Y41000D02*
X85000D01*
X82142Y33142D02*
X85016D01*
X79134Y30134D02*
X82142Y33142D01*
X79134Y17717D02*
Y30134D01*
X74016Y15748D02*
X77953Y19685D01*
X77165Y15748D02*
X79134Y17717D01*
X82768Y25268D02*
X85016D01*
X80315Y22815D02*
X82768Y25268D01*
X80315Y15748D02*
Y22815D01*
X63681Y22933D02*
X70866Y15748D01*
X62500Y20965D02*
X67716Y15748D01*
X61319Y18996D02*
X64567Y15748D01*
X52756Y33563D02*
X55512Y30807D01*
X52756Y31004D02*
X53062D01*
X54440Y29626D01*
D39*
X78500Y150000D02*
X90500D01*
X74500Y146000D02*
X78500Y150000D01*
X74500Y95051D02*
Y146000D01*
X94500Y61000D02*
Y75051D01*
X74500Y95051D02*
X94500Y75051D01*
Y154000D02*
Y162000D01*
X90500Y150000D02*
X94500Y154000D01*
X84500Y163500D02*
X93000D01*
X82677Y165323D02*
Y179000D01*
Y165323D02*
X84500Y163500D01*
X93000D02*
X94500Y162000D01*
Y61000D02*
X95461Y60039D01*
X97539D01*
D40*
X24652Y55607D02*
Y83500D01*
X74500Y155000D02*
X88000D01*
X31652Y90500D02*
X64000D01*
X24652Y83500D02*
X31652Y90500D01*
X64000D02*
X69500Y96000D01*
Y150000D01*
X74500Y155000D01*
X91000Y158000D02*
Y160500D01*
X88000Y155000D02*
X91000Y158000D01*
X24652Y55607D02*
X25315Y54944D01*
Y54838D02*
Y54944D01*
D43*
X11417Y189173D02*
D03*
X106693D02*
D03*
D44*
X20000Y75500D02*
D03*
X75500Y60500D02*
D03*
X105000Y62992D02*
D03*
X63500Y31000D02*
D03*
X20000Y30000D02*
D03*
X37000Y27500D02*
D03*
X48500Y17000D02*
D03*
X9500Y55500D02*
D03*
X3000D02*
D03*
X10000Y36000D02*
D03*
X3000Y38000D02*
D03*
X4000Y17000D02*
D03*
X108000Y16000D02*
D03*
X114000Y28000D02*
D03*
X114500Y41500D02*
D03*
Y54000D02*
D03*
X108500Y53500D02*
D03*
X107500Y43500D02*
D03*
Y35500D02*
D03*
X106000Y27500D02*
D03*
X72000Y54000D02*
D03*
X65000Y37000D02*
D03*
X34000Y38000D02*
D03*
X38500Y52500D02*
D03*
X14500Y59000D02*
D03*
X5500Y103500D02*
D03*
Y118000D02*
D03*
Y138500D02*
D03*
X27000Y139000D02*
D03*
Y124500D02*
D03*
X27500Y160000D02*
D03*
X83500D02*
D03*
X105500Y146000D02*
D03*
X98000Y139000D02*
D03*
Y118000D02*
D03*
X91000Y110500D02*
D03*
X98000Y82000D02*
D03*
X81000Y96000D02*
D03*
X54000Y128500D02*
D03*
X43000Y116000D02*
D03*
X50500Y99500D02*
D03*
X63500Y95500D02*
D03*
X37000D02*
D03*
X38000Y136500D02*
D03*
X66000D02*
D03*
X81500Y136000D02*
D03*
X79500Y125000D02*
D03*
X81500Y106500D02*
D03*
X71500Y91000D02*
D03*
X72000Y99500D02*
D03*
Y133500D02*
D03*
X112205Y99248D02*
D03*
Y83500D02*
D03*
X85932Y176684D02*
D03*
X87541Y173976D02*
D03*
X89860Y171845D02*
D03*
X92734Y170556D02*
D03*
X95857Y170148D02*
D03*
X99007D02*
D03*
X102156Y170142D02*
D03*
X105239Y169497D02*
D03*
X107898Y167809D02*
D03*
X109774Y165279D02*
D03*
X110596Y162239D02*
D03*
X115233Y169231D02*
D03*
X113375Y171774D02*
D03*
X111046Y173896D02*
D03*
X108317Y175468D02*
D03*
X105327Y176459D02*
D03*
X102203Y176854D02*
D03*
X99053Y176852D02*
D03*
X95903D02*
D03*
X92943Y177926D02*
D03*
X82677Y179000D02*
D03*
X53345Y169877D02*
D03*
X32081Y178151D02*
D03*
X32481Y175210D02*
D03*
X33925Y172616D02*
D03*
X36246Y170765D02*
D03*
X39096Y169936D02*
D03*
X42064Y169877D02*
D03*
X45033D02*
D03*
X48001D02*
D03*
X50969D02*
D03*
X41365Y176580D02*
D03*
X38785Y178047D02*
D03*
X53543Y176580D02*
D03*
X55721Y169877D02*
D03*
X57087Y176580D02*
D03*
X58690Y169877D02*
D03*
X61658D02*
D03*
X64627D02*
D03*
X67595Y169831D02*
D03*
X69798Y167841D02*
D03*
X76580Y166898D02*
D03*
X76178Y169839D02*
D03*
X74925Y172530D02*
D03*
X72862Y174664D02*
D03*
X70240Y176056D02*
D03*
X67316Y176569D02*
D03*
X91000Y160500D02*
D03*
X25315Y54838D02*
D03*
X52756Y38681D02*
D03*
Y36122D02*
D03*
X26772Y15748D02*
D03*
X29921D02*
D03*
X86614D02*
D03*
X80315D02*
D03*
X77165D02*
D03*
X74016D02*
D03*
X55118D02*
D03*
X58268D02*
D03*
X64567D02*
D03*
X67716D02*
D03*
X70866D02*
D03*
X34252Y82315D02*
D03*
X97539Y60039D02*
D03*
X29854Y57323D02*
D03*
X25315Y29528D02*
D03*
X13780Y31496D02*
D03*
X90453Y61024D02*
D03*
X85016Y25268D02*
D03*
Y33142D02*
D03*
X85000Y41000D02*
D03*
X106201Y23622D02*
D03*
X68307Y23327D02*
D03*
X52756D02*
D03*
Y28445D02*
D03*
Y31004D02*
D03*
Y33563D02*
D03*
X88779Y44500D02*
D03*
X57323Y39370D02*
D03*
X48425Y68110D02*
D03*
X55512D02*
D03*
X12992Y75197D02*
D03*
X76772Y138976D02*
D03*
X83858Y124803D02*
D03*
M02*
