G04*
G04 #@! TF.GenerationSoftware,Altium Limited,Altium Designer,22.1.2 (22)*
G04*
G04 Layer_Color=32768*
%FSLAX25Y25*%
%MOIN*%
G70*
G04*
G04 #@! TF.SameCoordinates,3D425B39-A101-4537-954C-310EEB490880*
G04*
G04*
G04 #@! TF.FilePolarity,Positive*
G04*
G01*
G75*
%ADD64C,0.00039*%
%ADD65C,0.00079*%
D64*
X15748Y68898D02*
X102362D01*
Y177165D01*
X15748D02*
X102362D01*
X15748Y68898D02*
Y177165D01*
X44783Y21654D02*
Y53150D01*
X76279Y21654D02*
Y53150D01*
X44783Y21654D02*
X76279D01*
X44783Y53150D02*
X76279D01*
X36417Y31988D02*
Y34941D01*
X30512Y31988D02*
X36417D01*
X30512Y34941D02*
X36417D01*
X30512Y31988D02*
Y34941D01*
X36417Y28051D02*
Y31004D01*
X30512Y28051D02*
X36417D01*
X30512Y31004D02*
X36417D01*
X30512Y28051D02*
Y31004D01*
X36417Y24114D02*
Y27067D01*
X30512Y24114D02*
X36417D01*
X30512Y27067D02*
X36417D01*
X30512Y24114D02*
Y27067D01*
X77756Y54724D02*
Y59449D01*
Y54724D02*
X83661D01*
Y59449D01*
X77756D02*
X83661D01*
X77756Y59941D02*
Y62894D01*
X83661D01*
X77756Y59941D02*
X83661D01*
Y62894D01*
X77756Y51279D02*
Y54232D01*
X83661D01*
X77756Y51279D02*
X83661D01*
Y54232D01*
X97441Y51181D02*
Y62992D01*
X85630Y51181D02*
X97441D01*
X85630D02*
Y62992D01*
X97441D01*
X99114Y62008D02*
X104035D01*
Y52165D02*
Y62008D01*
X99114Y52165D02*
Y62008D01*
Y52165D02*
X104035D01*
X36417Y20177D02*
Y23130D01*
X30512Y20177D02*
X36417D01*
X30512Y23130D02*
X36417D01*
X30512Y20177D02*
Y23130D01*
X12795Y39862D02*
Y42815D01*
X18701D01*
X12795Y39862D02*
X18701D01*
Y42815D01*
X22638Y43602D02*
Y48524D01*
X12795Y43602D02*
X22638D01*
X12795Y48524D02*
X22638D01*
X12795Y43602D02*
Y48524D01*
X22638Y49902D02*
Y54823D01*
X12795Y49902D02*
X22638D01*
X12795Y54823D02*
X22638D01*
X12795Y49902D02*
Y54823D01*
X23130Y54134D02*
X28051D01*
Y44291D02*
Y54134D01*
X23130Y44291D02*
Y54134D01*
Y44291D02*
X28051D01*
X12303Y38386D02*
X15256D01*
Y32480D02*
Y38386D01*
X12303Y32480D02*
Y38386D01*
Y32480D02*
X15256D01*
X15748Y25591D02*
X27559D01*
X15748D02*
Y37402D01*
X27559D01*
Y25591D02*
Y37402D01*
X85138Y28543D02*
X88091D01*
X85138D02*
Y34449D01*
X88091Y28543D02*
Y34449D01*
X85138D02*
X88091D01*
X85138Y36417D02*
X88091D01*
X85138D02*
Y42323D01*
X88091Y36417D02*
Y42323D01*
X85138D02*
X88091D01*
X93012Y34449D02*
X95965D01*
Y28543D02*
Y34449D01*
X93012Y28543D02*
Y34449D01*
Y28543D02*
X95965D01*
X93012Y42323D02*
X95965D01*
Y36417D02*
Y42323D01*
X93012Y36417D02*
Y42323D01*
Y36417D02*
X95965D01*
X97441Y37008D02*
Y41732D01*
Y37008D02*
X103347D01*
Y41732D01*
X97441D02*
X103347D01*
X97441Y29134D02*
Y33858D01*
Y29134D02*
X103347D01*
Y33858D01*
X97441D02*
X103347D01*
X93012Y26575D02*
X95965D01*
Y20669D02*
Y26575D01*
X93012Y20669D02*
Y26575D01*
Y20669D02*
X95965D01*
X97441Y21260D02*
Y25984D01*
Y21260D02*
X103347D01*
Y25984D01*
X97441D02*
X103347D01*
X85138Y20669D02*
X88091D01*
X85138D02*
Y26575D01*
X88091Y20669D02*
Y26575D01*
X85138D02*
X88091D01*
X66921Y62008D02*
X69874D01*
X66921Y56102D02*
X69874D01*
X66921D02*
Y62008D01*
X69874Y56102D02*
Y62008D01*
X55110D02*
X58063D01*
X55110Y56102D02*
X58063D01*
X55110D02*
Y62008D01*
X58063Y56102D02*
Y62008D01*
X47236D02*
X50189D01*
X47236Y56102D02*
X50189D01*
X47236D02*
Y62008D01*
X50189Y56102D02*
Y62008D01*
X39362D02*
X42315D01*
X39362Y56102D02*
X42315D01*
X39362D02*
Y62008D01*
X42315Y56102D02*
Y62008D01*
X35425D02*
X38378D01*
X35425Y56102D02*
X38378D01*
X35425D02*
Y62008D01*
X38378Y56102D02*
Y62008D01*
D65*
X77756Y43799D02*
X83661D01*
X77756Y46752D02*
X83661D01*
X77756Y43799D02*
Y46752D01*
X83661Y43799D02*
Y46752D01*
X77756Y39862D02*
X83661D01*
X77756Y42815D02*
X83661D01*
X77756Y39862D02*
Y42815D01*
X83661Y39862D02*
Y42815D01*
X77756Y35925D02*
X83661D01*
X77756Y38878D02*
X83661D01*
X77756Y35925D02*
Y38878D01*
X83661Y35925D02*
Y38878D01*
X77756Y31988D02*
X83661D01*
X77756Y34941D02*
X83661D01*
X77756Y31988D02*
Y34941D01*
X83661Y31988D02*
Y34941D01*
X77756Y28051D02*
X83661D01*
X77756Y31004D02*
X83661D01*
X77756Y28051D02*
Y31004D01*
X83661Y28051D02*
Y31004D01*
X38386Y42815D02*
X44291D01*
X38386Y39862D02*
X44291D01*
Y42815D01*
X38386Y39862D02*
Y42815D01*
Y38878D02*
X44291D01*
X38386Y35925D02*
X44291D01*
Y38878D01*
X38386Y35925D02*
Y38878D01*
Y34941D02*
X44291D01*
X38386Y31988D02*
X44291D01*
Y34941D01*
X38386Y31988D02*
Y34941D01*
Y31004D02*
X44291D01*
X38386Y28051D02*
X44291D01*
Y31004D01*
X38386Y28051D02*
Y31004D01*
Y27067D02*
X44291D01*
X38386Y24114D02*
X44291D01*
Y27067D01*
X38386Y24114D02*
Y27067D01*
X77756Y24114D02*
X83661D01*
X77756Y27067D02*
X83661D01*
X77756Y24114D02*
Y27067D01*
X83661Y24114D02*
Y27067D01*
X77756Y20177D02*
X83661D01*
X77756Y23130D02*
X83661D01*
X77756Y20177D02*
Y23130D01*
X83661Y20177D02*
Y23130D01*
X38386D02*
X44291D01*
X38386Y20177D02*
X44291D01*
Y23130D01*
X38386Y20177D02*
Y23130D01*
X34441Y56102D02*
Y62008D01*
X31488Y56102D02*
Y62008D01*
Y56102D02*
X34441D01*
X31488Y62008D02*
X34441D01*
X20669Y23130D02*
X26575D01*
X20669Y20177D02*
X26575D01*
Y23130D01*
X20669Y20177D02*
Y23130D01*
X12303Y24606D02*
Y30512D01*
X15256Y24606D02*
Y30512D01*
X12303D02*
X15256D01*
X12303Y24606D02*
X15256D01*
X20669Y42815D02*
X26575D01*
X20669Y39862D02*
X26575D01*
Y42815D01*
X20669Y39862D02*
Y42815D01*
Y58563D02*
X26575D01*
X20669Y55610D02*
X26575D01*
Y58563D01*
X20669Y55610D02*
Y58563D01*
X92028Y36417D02*
Y42323D01*
X89075Y36417D02*
Y42323D01*
Y36417D02*
X92028D01*
X89075Y42323D02*
X92028D01*
Y28543D02*
Y34449D01*
X89075Y28543D02*
Y34449D01*
Y28543D02*
X92028D01*
X89075Y34449D02*
X92028D01*
Y20669D02*
Y26575D01*
X89075Y20669D02*
Y26575D01*
Y20669D02*
X92028D01*
X89075Y26575D02*
X92028D01*
X70858Y56102D02*
Y62008D01*
X73811Y56102D02*
Y62008D01*
X70858D02*
X73811D01*
X70858Y56102D02*
X73811D01*
X62984D02*
Y62008D01*
X65937Y56102D02*
Y62008D01*
X62984D02*
X65937D01*
X62984Y56102D02*
X65937D01*
X59047D02*
Y62008D01*
X62000Y56102D02*
Y62008D01*
X59047D02*
X62000D01*
X59047Y56102D02*
X62000D01*
X51173D02*
Y62008D01*
X54126Y56102D02*
Y62008D01*
X51173D02*
X54126D01*
X51173Y56102D02*
X54126D01*
X43299D02*
Y62008D01*
X46252Y56102D02*
Y62008D01*
X43299D02*
X46252D01*
X43299Y56102D02*
X46252D01*
M02*
