G04*
G04 #@! TF.GenerationSoftware,Altium Limited,Altium Designer,22.1.2 (22)*
G04*
G04 Layer_Physical_Order=4*
G04 Layer_Color=16711680*
%FSLAX25Y25*%
%MOIN*%
G70*
G04*
G04 #@! TF.SameCoordinates,3D425B39-A101-4537-954C-310EEB490880*
G04*
G04*
G04 #@! TF.FilePolarity,Positive*
G04*
G01*
G75*
%ADD18R,0.02047X0.01850*%
%ADD19R,0.01850X0.02047*%
%ADD20R,0.03937X0.02756*%
%ADD37R,0.02362X0.09055*%
%ADD38C,0.00787*%
%ADD40C,0.01575*%
%ADD41R,0.08649X0.04616*%
%ADD43R,0.20866X0.20866*%
%ADD44C,0.01968*%
%ADD45R,0.05906X0.11614*%
%ADD46R,0.03937X0.09055*%
%ADD47C,0.03937*%
%ADD48R,0.03150X0.01181*%
%ADD49R,0.01575X0.01575*%
%ADD50R,0.03150X0.02362*%
%ADD51R,0.02756X0.03937*%
%ADD52R,0.02362X0.03150*%
%ADD53R,0.02165X0.01181*%
G36*
X117107Y13602D02*
X112795D01*
X112771Y13597D01*
X112746Y13601D01*
X112437Y13586D01*
X112365Y13567D01*
X112291D01*
X111685Y13447D01*
X111594Y13409D01*
X111497Y13390D01*
X110926Y13153D01*
X110844Y13099D01*
X110753Y13061D01*
X110240Y12718D01*
X110170Y12648D01*
X110088Y12593D01*
X109651Y12156D01*
X109596Y12074D01*
X109526Y12004D01*
X109183Y11491D01*
X109145Y11400D01*
X109090Y11317D01*
X108901Y10859D01*
X87417D01*
Y14627D01*
X87608Y14755D01*
X87912Y15210D01*
X88019Y15748D01*
X87912Y16286D01*
X87608Y16741D01*
X87152Y17046D01*
X86614Y17153D01*
X86076Y17046D01*
X85621Y16741D01*
X85316Y16286D01*
X85209Y15748D01*
X85316Y15210D01*
X85621Y14755D01*
X85811Y14627D01*
Y10859D01*
X81118D01*
Y14627D01*
X81308Y14755D01*
X81613Y15210D01*
X81720Y15748D01*
X81613Y16286D01*
X81308Y16741D01*
X80853Y17046D01*
X80315Y17153D01*
X79777Y17046D01*
X79321Y16741D01*
X79017Y16286D01*
X78995Y16176D01*
X78485D01*
X78463Y16286D01*
X78159Y16741D01*
X77703Y17046D01*
X77165Y17153D01*
X76628Y17046D01*
X76172Y16741D01*
X75867Y16286D01*
X75845Y16176D01*
X75336D01*
X75314Y16286D01*
X75009Y16741D01*
X74553Y17046D01*
X74016Y17153D01*
X73478Y17046D01*
X73022Y16741D01*
X72718Y16286D01*
X72696Y16176D01*
X72186D01*
X72164Y16286D01*
X71860Y16741D01*
X71404Y17046D01*
X70866Y17153D01*
X70328Y17046D01*
X69873Y16741D01*
X69568Y16286D01*
X69546Y16176D01*
X69036D01*
X69015Y16286D01*
X68710Y16741D01*
X68254Y17046D01*
X67716Y17153D01*
X67179Y17046D01*
X66723Y16741D01*
X66418Y16286D01*
X66397Y16176D01*
X65887D01*
X65865Y16286D01*
X65560Y16741D01*
X65105Y17046D01*
X64567Y17153D01*
X64029Y17046D01*
X63573Y16741D01*
X63269Y16286D01*
X63162Y15748D01*
X63269Y15210D01*
X63573Y14755D01*
X63764Y14627D01*
Y10859D01*
X59070D01*
Y14627D01*
X59261Y14755D01*
X59566Y15210D01*
X59673Y15748D01*
X59566Y16286D01*
X59261Y16741D01*
X58805Y17046D01*
X58268Y17153D01*
X57730Y17046D01*
X57274Y16741D01*
X56970Y16286D01*
X56948Y16176D01*
X56438D01*
X56416Y16286D01*
X56112Y16741D01*
X55656Y17046D01*
X55118Y17153D01*
X54580Y17046D01*
X54125Y16741D01*
X53820Y16286D01*
X53713Y15748D01*
X53820Y15210D01*
X54125Y14755D01*
X54315Y14627D01*
Y10859D01*
X47854D01*
Y12795D01*
X47847Y12828D01*
X47852Y12861D01*
X47826Y13246D01*
X47801Y13342D01*
X47794Y13440D01*
X47595Y14185D01*
X47537Y14303D01*
X47495Y14427D01*
X47109Y15094D01*
X47023Y15193D01*
X46950Y15302D01*
X46405Y15847D01*
X46295Y15920D01*
X46197Y16007D01*
X45529Y16392D01*
X45405Y16434D01*
X45287Y16492D01*
X44543Y16692D01*
X44412Y16701D01*
X44283Y16726D01*
X43512D01*
X43383Y16701D01*
X43252Y16692D01*
X42508Y16492D01*
X42390Y16434D01*
X42266Y16392D01*
X41598Y16007D01*
X41500Y15920D01*
X41390Y15847D01*
X40845Y15302D01*
X40773Y15193D01*
X40686Y15094D01*
X40301Y14427D01*
X40258Y14303D01*
X40200Y14185D01*
X40001Y13440D01*
X39994Y13342D01*
X39969Y13246D01*
X39944Y12861D01*
X39948Y12828D01*
X39941Y12795D01*
Y10859D01*
X34636D01*
Y15501D01*
X35725Y16590D01*
X35899Y16850D01*
X35960Y17157D01*
Y18289D01*
X36151Y18416D01*
X36456Y18872D01*
X36562Y19410D01*
X36496Y19744D01*
X36476Y20236D01*
X36476Y20236D01*
X36476Y20236D01*
Y23071D01*
X33839D01*
Y20236D01*
X33839Y20236D01*
X33819Y19744D01*
X33753Y19410D01*
X33860Y18872D01*
X34164Y18416D01*
X34355Y18289D01*
Y17490D01*
X33266Y16401D01*
X33092Y16140D01*
X33030Y15833D01*
Y13209D01*
X32530Y13057D01*
X32458Y13166D01*
X32197Y13340D01*
X31890Y13401D01*
X31582Y13340D01*
X31322Y13166D01*
X31224Y13019D01*
X30724Y13142D01*
Y14627D01*
X30915Y14755D01*
X31219Y15210D01*
X31326Y15748D01*
X31219Y16286D01*
X30915Y16741D01*
X30459Y17046D01*
X29921Y17153D01*
X29384Y17046D01*
X28928Y16741D01*
X28623Y16286D01*
X28601Y16176D01*
X28091D01*
X28070Y16286D01*
X27765Y16741D01*
X27309Y17046D01*
X26772Y17153D01*
X26234Y17046D01*
X25778Y16741D01*
X25474Y16286D01*
X25367Y15748D01*
X25458Y15290D01*
X25432Y15264D01*
X25258Y15003D01*
X25197Y14696D01*
Y10859D01*
X21677D01*
Y13026D01*
X21950Y13139D01*
X22075Y13440D01*
Y18056D01*
X21950Y18357D01*
X21649Y18482D01*
X13000D01*
X12699Y18357D01*
X12574Y18056D01*
Y13440D01*
X12699Y13139D01*
X12969Y13027D01*
Y10859D01*
X9210D01*
X9020Y11317D01*
X8965Y11400D01*
X8927Y11491D01*
X8584Y12004D01*
X8514Y12074D01*
X8459Y12156D01*
X8023Y12593D01*
X7940Y12648D01*
X7870Y12718D01*
X7357Y13061D01*
X7266Y13099D01*
X7184Y13153D01*
X6613Y13390D01*
X6516Y13409D01*
X6425Y13447D01*
X5819Y13567D01*
X5745D01*
X5673Y13586D01*
X5364Y13601D01*
X5339Y13597D01*
X5315Y13602D01*
X1003D01*
Y199587D01*
X117107D01*
Y13602D01*
D02*
G37*
%LPC*%
G36*
X82677Y179803D02*
X82370Y179742D01*
X82109Y179568D01*
X81936Y179307D01*
X81874Y179000D01*
X81936Y178693D01*
X82109Y178432D01*
X82370Y178258D01*
X82677Y178197D01*
X82984Y178258D01*
X83245Y178432D01*
X83419Y178693D01*
X83480Y179000D01*
X83419Y179307D01*
X83245Y179568D01*
X82984Y179742D01*
X82677Y179803D01*
D02*
G37*
G36*
X91000Y161303D02*
X90693Y161242D01*
X90432Y161068D01*
X90258Y160807D01*
X90197Y160500D01*
X90258Y160193D01*
X90432Y159932D01*
X90693Y159758D01*
X91000Y159697D01*
X91307Y159758D01*
X91568Y159932D01*
X91742Y160193D01*
X91803Y160500D01*
X91742Y160807D01*
X91568Y161068D01*
X91307Y161242D01*
X91000Y161303D01*
D02*
G37*
G36*
X102480Y162500D02*
X99528D01*
Y156693D01*
X102480D01*
Y162500D01*
D02*
G37*
G36*
X21850D02*
X18898D01*
Y156693D01*
X21850D01*
Y162500D01*
D02*
G37*
G36*
X18110D02*
X15157D01*
Y156693D01*
X18110D01*
Y162500D01*
D02*
G37*
G36*
X98740D02*
X95787D01*
Y156693D01*
X98740D01*
Y162500D01*
D02*
G37*
G36*
X102480Y155905D02*
X99528D01*
Y150098D01*
X102480D01*
Y155905D01*
D02*
G37*
G36*
X98740D02*
X95787D01*
Y150098D01*
X98740D01*
Y155905D01*
D02*
G37*
G36*
X21850D02*
X18898D01*
Y150098D01*
X21850D01*
Y155905D01*
D02*
G37*
G36*
X18110D02*
X15157D01*
Y150098D01*
X18110D01*
Y155905D01*
D02*
G37*
G36*
X12992Y146866D02*
X12685Y146805D01*
X12424Y146631D01*
X12250Y146370D01*
X12189Y146063D01*
X12250Y145756D01*
X12424Y145495D01*
X12685Y145321D01*
X12992Y145260D01*
X13299Y145321D01*
X13560Y145495D01*
X13734Y145756D01*
X13795Y146063D01*
X13734Y146370D01*
X13560Y146631D01*
X13299Y146805D01*
X12992Y146866D01*
D02*
G37*
G36*
X76772Y139779D02*
X76464Y139718D01*
X76204Y139544D01*
X76030Y139284D01*
X75969Y138976D01*
X76030Y138669D01*
X76204Y138409D01*
X76464Y138235D01*
X76772Y138173D01*
X77079Y138235D01*
X77339Y138409D01*
X77513Y138669D01*
X77574Y138976D01*
X77513Y139284D01*
X77339Y139544D01*
X77079Y139718D01*
X76772Y139779D01*
D02*
G37*
G36*
X12992D02*
X12685Y139718D01*
X12424Y139544D01*
X12250Y139284D01*
X12189Y138976D01*
X12250Y138669D01*
X12424Y138409D01*
X12685Y138235D01*
X12992Y138173D01*
X13299Y138235D01*
X13560Y138409D01*
X13734Y138669D01*
X13795Y138976D01*
X13734Y139284D01*
X13560Y139544D01*
X13299Y139718D01*
X12992Y139779D01*
D02*
G37*
G36*
Y132693D02*
X12685Y132631D01*
X12424Y132457D01*
X12250Y132197D01*
X12189Y131890D01*
X12250Y131582D01*
X12424Y131322D01*
X12685Y131148D01*
X12992Y131087D01*
X13299Y131148D01*
X13560Y131322D01*
X13734Y131582D01*
X13795Y131890D01*
X13734Y132197D01*
X13560Y132457D01*
X13299Y132631D01*
X12992Y132693D01*
D02*
G37*
G36*
X83858Y125606D02*
X83551Y125545D01*
X83290Y125371D01*
X83117Y125110D01*
X83055Y124803D01*
X83117Y124496D01*
X83290Y124235D01*
X83551Y124061D01*
X83858Y124000D01*
X84165Y124061D01*
X84426Y124235D01*
X84600Y124496D01*
X84661Y124803D01*
X84600Y125110D01*
X84426Y125371D01*
X84165Y125545D01*
X83858Y125606D01*
D02*
G37*
G36*
X12992Y125606D02*
X12685Y125545D01*
X12424Y125371D01*
X12250Y125110D01*
X12189Y124803D01*
X12250Y124496D01*
X12424Y124235D01*
X12685Y124061D01*
X12992Y124000D01*
X13299Y124061D01*
X13560Y124235D01*
X13734Y124496D01*
X13795Y124803D01*
X13734Y125110D01*
X13560Y125371D01*
X13299Y125545D01*
X12992Y125606D01*
D02*
G37*
G36*
X27165Y118519D02*
X26858Y118458D01*
X26598Y118284D01*
X26424Y118024D01*
X26363Y117717D01*
X26424Y117409D01*
X26598Y117149D01*
X26858Y116975D01*
X27165Y116914D01*
X27473Y116975D01*
X27733Y117149D01*
X27907Y117409D01*
X27968Y117717D01*
X27907Y118024D01*
X27733Y118284D01*
X27473Y118458D01*
X27165Y118519D01*
D02*
G37*
G36*
X105118Y118519D02*
X104811Y118458D01*
X104550Y118284D01*
X104376Y118024D01*
X104315Y117717D01*
X104376Y117409D01*
X104550Y117149D01*
X104811Y116975D01*
X105118Y116914D01*
X105425Y116975D01*
X105686Y117149D01*
X105860Y117409D01*
X105921Y117717D01*
X105860Y118024D01*
X105686Y118284D01*
X105425Y118458D01*
X105118Y118519D01*
D02*
G37*
G36*
X12992Y118519D02*
X12685Y118458D01*
X12424Y118284D01*
X12250Y118024D01*
X12189Y117717D01*
X12250Y117409D01*
X12424Y117149D01*
X12685Y116975D01*
X12992Y116914D01*
X13299Y116975D01*
X13560Y117149D01*
X13734Y117409D01*
X13795Y117717D01*
X13734Y118024D01*
X13560Y118284D01*
X13299Y118458D01*
X12992Y118519D01*
D02*
G37*
G36*
X90945Y104346D02*
X90638Y104285D01*
X90377Y104111D01*
X90203Y103850D01*
X90142Y103543D01*
X90203Y103236D01*
X90377Y102976D01*
X90638Y102802D01*
X90945Y102741D01*
X91252Y102802D01*
X91513Y102976D01*
X91686Y103236D01*
X91748Y103543D01*
X91686Y103850D01*
X91513Y104111D01*
X91252Y104285D01*
X90945Y104346D01*
D02*
G37*
G36*
X112205Y100653D02*
X111667Y100546D01*
X111211Y100241D01*
X110907Y99786D01*
X110800Y99248D01*
X110907Y98710D01*
X111211Y98255D01*
X111402Y98127D01*
Y96737D01*
X111283Y96713D01*
X110502Y96191D01*
X109980Y95410D01*
X109796Y94488D01*
X109980Y93567D01*
X110502Y92785D01*
X111283Y92263D01*
X112205Y92080D01*
X113126Y92263D01*
X113908Y92785D01*
X114430Y93567D01*
X114613Y94488D01*
X114430Y95410D01*
X113908Y96191D01*
X113126Y96713D01*
X113007Y96737D01*
Y98127D01*
X113198Y98255D01*
X113503Y98710D01*
X113610Y99248D01*
X113503Y99786D01*
X113198Y100241D01*
X112742Y100546D01*
X112205Y100653D01*
D02*
G37*
G36*
X5906Y96897D02*
X4984Y96713D01*
X4202Y96191D01*
X3680Y95410D01*
X3497Y94488D01*
X3680Y93567D01*
X4202Y92785D01*
X4721Y92439D01*
X4608Y92270D01*
X4501Y91732D01*
X4608Y91195D01*
X4912Y90739D01*
X5368Y90434D01*
X5906Y90327D01*
X6443Y90434D01*
X6899Y90739D01*
X7203Y91195D01*
X7310Y91732D01*
X7203Y92270D01*
X7090Y92439D01*
X7609Y92785D01*
X8131Y93567D01*
X8314Y94488D01*
X8131Y95410D01*
X7609Y96191D01*
X6827Y96713D01*
X5906Y96897D01*
D02*
G37*
G36*
X112205Y90173D02*
X111898Y90112D01*
X111637Y89938D01*
X111463Y89677D01*
X111402Y89370D01*
X111463Y89063D01*
X111637Y88802D01*
X111898Y88628D01*
X112205Y88567D01*
X112512Y88628D01*
X112772Y88802D01*
X112946Y89063D01*
X113007Y89370D01*
X112946Y89677D01*
X112772Y89938D01*
X112512Y90112D01*
X112205Y90173D01*
D02*
G37*
G36*
X105118Y90173D02*
X104811Y90112D01*
X104550Y89938D01*
X104376Y89677D01*
X104315Y89370D01*
X104376Y89063D01*
X104550Y88802D01*
X104811Y88628D01*
X105118Y88567D01*
X105425Y88628D01*
X105686Y88802D01*
X105860Y89063D01*
X105921Y89370D01*
X105860Y89677D01*
X105686Y89938D01*
X105425Y90112D01*
X105118Y90173D01*
D02*
G37*
G36*
X34252Y83118D02*
X33945Y83057D01*
X33684Y82883D01*
X33510Y82622D01*
X33449Y82315D01*
X33510Y82008D01*
X33684Y81747D01*
X33945Y81573D01*
X34252Y81512D01*
X34559Y81573D01*
X34820Y81747D01*
X34994Y82008D01*
X35055Y82315D01*
X34994Y82622D01*
X34820Y82883D01*
X34559Y83057D01*
X34252Y83118D01*
D02*
G37*
G36*
X62598Y83688D02*
X62061Y83582D01*
X61605Y83277D01*
X61300Y82821D01*
X61193Y82284D01*
X61238Y82059D01*
X59865Y80686D01*
X59691Y80425D01*
X59630Y80118D01*
Y80078D01*
X59277Y79724D01*
X57933Y79724D01*
X57571Y79724D01*
X53303D01*
X53071Y79724D01*
X52803Y80113D01*
Y81167D01*
X53116Y81481D01*
X54391D01*
X54518Y81290D01*
X54974Y80985D01*
X55512Y80879D01*
X56049Y80985D01*
X56505Y81290D01*
X56810Y81746D01*
X56917Y82284D01*
X56810Y82821D01*
X56505Y83277D01*
X56049Y83582D01*
X55512Y83688D01*
X54974Y83582D01*
X54518Y83277D01*
X54391Y83086D01*
X52784D01*
X52784Y83086D01*
X52476Y83025D01*
X52216Y82851D01*
X52216Y82851D01*
X51432Y82068D01*
X51258Y81807D01*
X51197Y81500D01*
Y79724D01*
X48295D01*
X48071Y79724D01*
X47785Y79957D01*
X47767Y80490D01*
X48200Y80923D01*
X48425Y80879D01*
X48963Y80985D01*
X49419Y81290D01*
X49723Y81746D01*
X49830Y82284D01*
X49723Y82821D01*
X49419Y83277D01*
X48963Y83582D01*
X48425Y83688D01*
X47888Y83582D01*
X47432Y83277D01*
X47127Y82821D01*
X47020Y82284D01*
X47065Y82059D01*
X46326Y81320D01*
X46152Y81060D01*
X46091Y80752D01*
Y79724D01*
X42933Y79724D01*
X42571Y79724D01*
X41236D01*
Y80726D01*
X41401Y80891D01*
X41876Y80985D01*
X42332Y81290D01*
X42637Y81746D01*
X42744Y82284D01*
X42637Y82821D01*
X42332Y83277D01*
X41876Y83582D01*
X41339Y83688D01*
X40801Y83582D01*
X40345Y83277D01*
X40041Y82821D01*
X39934Y82284D01*
X40031Y81792D01*
X39865Y81626D01*
X39691Y81366D01*
X39630Y81058D01*
Y80078D01*
X39277Y79724D01*
X37933Y79724D01*
X37571Y79724D01*
X35827D01*
Y74803D01*
Y69882D01*
X37571D01*
X37933Y69882D01*
X38295Y69882D01*
X39630D01*
Y67266D01*
X36334Y63969D01*
X36160Y63709D01*
X36099Y63402D01*
Y61417D01*
X35425D01*
Y59449D01*
X38378D01*
Y61417D01*
X37704D01*
Y63069D01*
X41001Y66365D01*
X41175Y66626D01*
X41236Y66933D01*
Y69528D01*
X41589Y69882D01*
X42933Y69882D01*
X43295Y69882D01*
X44630D01*
Y67266D01*
X44208Y66843D01*
X44034Y66583D01*
X43973Y66276D01*
Y62067D01*
X43358D01*
Y61393D01*
X42315D01*
Y61417D01*
X39362D01*
Y59449D01*
X42315D01*
Y59788D01*
X43358D01*
Y59429D01*
X46193D01*
Y62067D01*
X45578D01*
Y65943D01*
X46001Y66365D01*
X46001Y66365D01*
X46175Y66626D01*
X46236Y66933D01*
X46236Y66933D01*
Y69528D01*
X46589Y69882D01*
X47933Y69882D01*
X48295Y69882D01*
X49630D01*
Y68836D01*
X49537Y68763D01*
X48993Y68678D01*
X48732Y68852D01*
X48425Y68913D01*
X48118Y68852D01*
X47857Y68678D01*
X47684Y68417D01*
X47622Y68110D01*
X47684Y67803D01*
X47857Y67542D01*
X48118Y67369D01*
X48425Y67307D01*
X48732Y67369D01*
X48993Y67542D01*
X49356Y67493D01*
X49391Y67027D01*
X48145Y65780D01*
X47971Y65520D01*
X47910Y65213D01*
Y61417D01*
X47236D01*
Y59449D01*
X50189D01*
Y59788D01*
X51232D01*
Y59429D01*
X54067D01*
Y62067D01*
X51232D01*
Y61393D01*
X50189D01*
Y61417D01*
X49515D01*
Y64880D01*
X51001Y66365D01*
X51175Y66626D01*
X51236Y66933D01*
Y69528D01*
X51590Y69882D01*
X52933Y69882D01*
X53295Y69882D01*
X57571D01*
X57933Y69882D01*
X58295Y69882D01*
X59721D01*
Y62067D01*
X59106D01*
Y61393D01*
X58063D01*
Y61417D01*
X55110D01*
Y59449D01*
X58063D01*
Y59788D01*
X59106D01*
Y59429D01*
X61941D01*
Y62067D01*
X61326D01*
Y67905D01*
X61407Y67913D01*
X61857Y67803D01*
X61863Y67794D01*
X62031Y67542D01*
X62291Y67369D01*
X62598Y67307D01*
X62906Y67369D01*
X63166Y67542D01*
X63340Y67803D01*
X63401Y68110D01*
X63340Y68418D01*
X63166Y68678D01*
X62906Y68852D01*
X62598Y68913D01*
X62291Y68852D01*
X62031Y68678D01*
X61863Y68426D01*
X61857Y68418D01*
X61407Y68307D01*
X61326Y68315D01*
Y69528D01*
X61680Y69882D01*
X62933Y69882D01*
X63295Y69882D01*
X65039D01*
Y74803D01*
Y79724D01*
X63295D01*
X62933Y79724D01*
X62571Y79724D01*
X61882D01*
X61675Y80224D01*
X62374Y80923D01*
X62598Y80879D01*
X63136Y80985D01*
X63592Y81290D01*
X63896Y81746D01*
X64003Y82284D01*
X63896Y82821D01*
X63592Y83277D01*
X63136Y83582D01*
X62598Y83688D01*
D02*
G37*
G36*
X69685D02*
X69147Y83582D01*
X68691Y83277D01*
X68387Y82821D01*
X68280Y82284D01*
X68387Y81746D01*
X68691Y81290D01*
X69147Y80985D01*
X69623Y80891D01*
X69630Y80883D01*
Y80078D01*
X69277Y79724D01*
X67933Y79724D01*
X67571Y79724D01*
X65827D01*
Y74803D01*
Y69882D01*
X67571D01*
X67933Y69882D01*
X68295Y69882D01*
X69630D01*
Y67266D01*
X67830Y65465D01*
X67656Y65205D01*
X67595Y64898D01*
Y61417D01*
X66921D01*
Y61393D01*
X65878D01*
Y62067D01*
X63043D01*
Y59429D01*
X65878D01*
Y59788D01*
X66921D01*
Y59449D01*
X69874D01*
Y59788D01*
X70917D01*
Y59429D01*
X73752D01*
Y62067D01*
X70917D01*
Y61393D01*
X69874D01*
Y61417D01*
X69200D01*
Y64565D01*
X71001Y66365D01*
X71001Y66365D01*
X71175Y66626D01*
X71236Y66933D01*
Y69882D01*
X72795D01*
Y79724D01*
X71236D01*
Y81216D01*
X71175Y81523D01*
X71001Y81783D01*
X70992Y81792D01*
X71090Y82284D01*
X70983Y82821D01*
X70678Y83277D01*
X70223Y83582D01*
X69685Y83688D01*
D02*
G37*
G36*
X5906Y82901D02*
X5368Y82794D01*
X4912Y82490D01*
X4608Y82034D01*
X4501Y81496D01*
X4608Y80958D01*
X4721Y80789D01*
X4202Y80443D01*
X3680Y79662D01*
X3497Y78740D01*
X3680Y77819D01*
X4202Y77037D01*
X4984Y76515D01*
X5906Y76332D01*
X6827Y76515D01*
X7609Y77037D01*
X8131Y77819D01*
X8314Y78740D01*
X8131Y79662D01*
X7609Y80443D01*
X7090Y80789D01*
X7203Y80958D01*
X7310Y81496D01*
X7203Y82034D01*
X6899Y82490D01*
X6443Y82794D01*
X5906Y82901D01*
D02*
G37*
G36*
X35039Y79724D02*
X33071D01*
Y75197D01*
X35039D01*
Y79724D01*
D02*
G37*
G36*
X76772Y76000D02*
X76464Y75939D01*
X76204Y75765D01*
X76030Y75504D01*
X75969Y75197D01*
X76030Y74890D01*
X76204Y74629D01*
X76464Y74455D01*
X76772Y74394D01*
X77079Y74455D01*
X77339Y74629D01*
X77513Y74890D01*
X77574Y75197D01*
X77513Y75504D01*
X77339Y75765D01*
X77079Y75939D01*
X76772Y76000D01*
D02*
G37*
G36*
X112205Y84905D02*
X111667Y84798D01*
X111211Y84493D01*
X110907Y84038D01*
X110800Y83500D01*
X110907Y82962D01*
X111211Y82507D01*
X111402Y82379D01*
Y80989D01*
X111283Y80965D01*
X110502Y80443D01*
X109980Y79662D01*
X109796Y78740D01*
X109980Y77819D01*
X110502Y77037D01*
X111283Y76515D01*
X111781Y76416D01*
X111845Y76154D01*
X111833Y75896D01*
X111637Y75765D01*
X111463Y75504D01*
X111402Y75197D01*
X111463Y74890D01*
X111637Y74629D01*
X111897Y74455D01*
X112205Y74394D01*
X112512Y74455D01*
X112772Y74629D01*
X112946Y74890D01*
X113007Y75197D01*
X112946Y75504D01*
X112772Y75765D01*
X112576Y75896D01*
X112565Y76154D01*
X112629Y76416D01*
X113126Y76515D01*
X113908Y77037D01*
X114430Y77819D01*
X114613Y78740D01*
X114430Y79662D01*
X113908Y80443D01*
X113126Y80965D01*
X113007Y80989D01*
Y82379D01*
X113198Y82507D01*
X113503Y82962D01*
X113610Y83500D01*
X113503Y84038D01*
X113198Y84493D01*
X112742Y84798D01*
X112205Y84905D01*
D02*
G37*
G36*
X12992Y76000D02*
X12685Y75938D01*
X12424Y75765D01*
X12250Y75504D01*
X12189Y75197D01*
X12250Y74890D01*
X12424Y74629D01*
X12685Y74455D01*
X12992Y74394D01*
X13299Y74455D01*
X13560Y74629D01*
X13734Y74890D01*
X13795Y75197D01*
X13734Y75504D01*
X13560Y75765D01*
X13299Y75938D01*
X12992Y76000D01*
D02*
G37*
G36*
X35039Y74410D02*
X33071D01*
Y69882D01*
X35039D01*
Y74410D01*
D02*
G37*
G36*
X34252Y68913D02*
X33945Y68852D01*
X33684Y68678D01*
X33510Y68418D01*
X33449Y68110D01*
X33510Y67803D01*
X33684Y67543D01*
X33945Y67369D01*
X34252Y67307D01*
X34559Y67369D01*
X34820Y67543D01*
X34994Y67803D01*
X35055Y68110D01*
X34994Y68418D01*
X34820Y68678D01*
X34559Y68852D01*
X34252Y68913D01*
D02*
G37*
G36*
X27165D02*
X26858Y68852D01*
X26598Y68678D01*
X26424Y68418D01*
X26362Y68110D01*
X26424Y67803D01*
X26598Y67543D01*
X26858Y67369D01*
X27165Y67307D01*
X27473Y67369D01*
X27733Y67543D01*
X27907Y67803D01*
X27968Y68110D01*
X27907Y68418D01*
X27733Y68678D01*
X27473Y68852D01*
X27165Y68913D01*
D02*
G37*
G36*
X20079D02*
X19771Y68852D01*
X19511Y68678D01*
X19337Y68418D01*
X19276Y68110D01*
X19337Y67803D01*
X19511Y67543D01*
X19771Y67369D01*
X20079Y67307D01*
X20386Y67369D01*
X20646Y67543D01*
X20820Y67803D01*
X20882Y68110D01*
X20820Y68418D01*
X20646Y68678D01*
X20386Y68852D01*
X20079Y68913D01*
D02*
G37*
G36*
X12992D02*
X12685Y68852D01*
X12424Y68678D01*
X12250Y68418D01*
X12189Y68110D01*
X12250Y67803D01*
X12424Y67543D01*
X12685Y67369D01*
X12992Y67307D01*
X13299Y67369D01*
X13560Y67543D01*
X13734Y67803D01*
X13795Y68110D01*
X13734Y68418D01*
X13560Y68678D01*
X13299Y68852D01*
X12992Y68913D01*
D02*
G37*
G36*
X98032Y68913D02*
X97724Y68852D01*
X97464Y68678D01*
X97290Y68418D01*
X97229Y68110D01*
X97290Y67803D01*
X97464Y67543D01*
X97724Y67369D01*
X98032Y67307D01*
X98339Y67369D01*
X98599Y67543D01*
X98773Y67803D01*
X98834Y68110D01*
X98773Y68418D01*
X98599Y68678D01*
X98339Y68852D01*
X98032Y68913D01*
D02*
G37*
G36*
X90945D02*
X90638Y68852D01*
X90377Y68678D01*
X90203Y68418D01*
X90142Y68110D01*
X90203Y67803D01*
X90377Y67543D01*
X90638Y67369D01*
X90945Y67307D01*
X91252Y67369D01*
X91513Y67543D01*
X91687Y67803D01*
X91748Y68110D01*
X91687Y68418D01*
X91513Y68678D01*
X91252Y68852D01*
X90945Y68913D01*
D02*
G37*
G36*
X76772D02*
X76464Y68852D01*
X76204Y68678D01*
X76030Y68418D01*
X75969Y68110D01*
X76030Y67803D01*
X76204Y67543D01*
X76464Y67369D01*
X76772Y67307D01*
X77079Y67369D01*
X77339Y67543D01*
X77513Y67803D01*
X77574Y68110D01*
X77513Y68418D01*
X77339Y68678D01*
X77079Y68852D01*
X76772Y68913D01*
D02*
G37*
G36*
X105118Y68913D02*
X104811Y68852D01*
X104550Y68678D01*
X104376Y68418D01*
X104315Y68110D01*
X104376Y67803D01*
X104550Y67542D01*
X104811Y67369D01*
X105118Y67307D01*
X105425Y67369D01*
X105686Y67542D01*
X105860Y67803D01*
X105921Y68110D01*
X105860Y68418D01*
X105686Y68678D01*
X105425Y68852D01*
X105118Y68913D01*
D02*
G37*
G36*
X55512Y68913D02*
X55205Y68852D01*
X54944Y68678D01*
X54770Y68417D01*
X54709Y68110D01*
X54770Y67803D01*
X54944Y67542D01*
X55205Y67369D01*
X55512Y67307D01*
X55819Y67369D01*
X56080Y67542D01*
X56253Y67803D01*
X56315Y68110D01*
X56253Y68417D01*
X56080Y68678D01*
X55819Y68852D01*
X55512Y68913D01*
D02*
G37*
G36*
X34382Y62067D02*
X33358D01*
Y61142D01*
X34382D01*
Y62067D01*
D02*
G37*
G36*
X32571D02*
X31547D01*
Y61142D01*
X32571D01*
Y62067D01*
D02*
G37*
G36*
X83720Y62835D02*
X81083D01*
Y61224D01*
X80596Y61008D01*
X80335Y61216D01*
Y62835D01*
X77697D01*
Y60220D01*
X77697Y60000D01*
X77697Y60000D01*
X77756Y59744D01*
X77756D01*
Y58957D01*
X78937D01*
Y58563D01*
X79331D01*
Y57382D01*
X80118D01*
Y58428D01*
X80580Y58619D01*
X81284Y57916D01*
Y57480D01*
X81299Y57403D01*
Y55905D01*
X83661D01*
Y56284D01*
X84581D01*
X85615Y55250D01*
Y54724D01*
X84449D01*
Y51575D01*
X88386D01*
Y54724D01*
X87220D01*
Y55583D01*
X87159Y55890D01*
X86985Y56150D01*
X86985Y56150D01*
X85481Y57654D01*
X85221Y57828D01*
X84913Y57889D01*
X83661D01*
Y58268D01*
X82885D01*
X82828Y58555D01*
X82654Y58816D01*
X81932Y59538D01*
X82123Y60000D01*
X83720D01*
Y60615D01*
X84449D01*
Y59449D01*
X88386D01*
Y60221D01*
X89332D01*
X89459Y60030D01*
X89915Y59726D01*
X90453Y59619D01*
X90990Y59726D01*
X91446Y60030D01*
X91751Y60486D01*
X91858Y61024D01*
X91751Y61561D01*
X91446Y62017D01*
X90990Y62322D01*
X90453Y62429D01*
X89915Y62322D01*
X89459Y62017D01*
X89332Y61826D01*
X88386D01*
Y62598D01*
X84449D01*
Y62220D01*
X83720D01*
Y62835D01*
D02*
G37*
G36*
X103937Y61811D02*
X99213D01*
Y60842D01*
X98660D01*
X98533Y61033D01*
X98077Y61337D01*
X97539Y61444D01*
X97002Y61337D01*
X96546Y61033D01*
X96241Y60577D01*
X96134Y60039D01*
X96179Y59815D01*
X96086Y59721D01*
X95912Y59461D01*
X95851Y59153D01*
Y58661D01*
X94685D01*
Y55512D01*
X98622D01*
Y58661D01*
X98622Y58661D01*
X98620Y58753D01*
X98713Y58850D01*
X99213Y58650D01*
Y58268D01*
X103937D01*
Y61811D01*
D02*
G37*
G36*
X34382Y60354D02*
X33358D01*
Y59429D01*
X34382D01*
Y60354D01*
D02*
G37*
G36*
X32571D02*
X31547D01*
Y59429D01*
X32571D01*
Y60354D01*
D02*
G37*
G36*
X69874Y58661D02*
X68791D01*
Y58071D01*
X69874D01*
Y58661D01*
D02*
G37*
G36*
X58063D02*
X56980D01*
Y58071D01*
X58063D01*
Y58661D01*
D02*
G37*
G36*
X50189D02*
X49106D01*
Y58071D01*
X50189D01*
Y58661D01*
D02*
G37*
G36*
X42315D02*
X41232D01*
Y58071D01*
X42315D01*
Y58661D01*
D02*
G37*
G36*
X38378D02*
X37295D01*
Y58071D01*
X38378D01*
Y58661D01*
D02*
G37*
G36*
X68004D02*
X66921D01*
Y58071D01*
X68004D01*
Y58661D01*
D02*
G37*
G36*
X56193D02*
X55110D01*
Y58071D01*
X56193D01*
Y58661D01*
D02*
G37*
G36*
X36508D02*
X35425D01*
Y58071D01*
X36508D01*
Y58661D01*
D02*
G37*
G36*
X48319D02*
X47236D01*
Y58071D01*
X48319D01*
Y58661D01*
D02*
G37*
G36*
X40445D02*
X39362D01*
Y58071D01*
X40445D01*
Y58661D01*
D02*
G37*
G36*
X65878Y58681D02*
X64854D01*
Y57756D01*
X65878D01*
Y58681D01*
D02*
G37*
G36*
X64067D02*
X63043D01*
Y57756D01*
X64067D01*
Y58681D01*
D02*
G37*
G36*
X61941D02*
X60917D01*
Y57756D01*
X61941D01*
Y58681D01*
D02*
G37*
G36*
X54067D02*
X53043D01*
Y57756D01*
X54067D01*
Y58681D01*
D02*
G37*
G36*
X46193D02*
X45169D01*
Y57756D01*
X46193D01*
Y58681D01*
D02*
G37*
G36*
X60130D02*
X59106D01*
Y57756D01*
X60130D01*
Y58681D01*
D02*
G37*
G36*
X52256D02*
X51232D01*
Y57756D01*
X52256D01*
Y58681D01*
D02*
G37*
G36*
X44382D02*
X43358D01*
Y57756D01*
X44382D01*
Y58681D01*
D02*
G37*
G36*
X73752D02*
X72728D01*
Y57756D01*
X73752D01*
Y58681D01*
D02*
G37*
G36*
X71941D02*
X70917D01*
Y57756D01*
X71941D01*
Y58681D01*
D02*
G37*
G36*
X23248Y58504D02*
X22323D01*
Y57480D01*
X23248D01*
Y58504D01*
D02*
G37*
G36*
X21535D02*
X20610D01*
Y57480D01*
X21535D01*
Y58504D01*
D02*
G37*
G36*
X78543Y58169D02*
X77756D01*
Y57382D01*
X78543D01*
Y58169D01*
D02*
G37*
G36*
X69874Y57284D02*
X68791D01*
Y56693D01*
X69874D01*
Y57284D01*
D02*
G37*
G36*
X68004D02*
X66921D01*
Y56693D01*
X68004D01*
Y57284D01*
D02*
G37*
G36*
X58063D02*
X56980D01*
Y56693D01*
X58063D01*
Y57284D01*
D02*
G37*
G36*
X56193D02*
X55110D01*
Y56693D01*
X56193D01*
Y57284D01*
D02*
G37*
G36*
X50189D02*
X49106D01*
Y56693D01*
X50189D01*
Y57284D01*
D02*
G37*
G36*
X48319D02*
X47236D01*
Y56693D01*
X48319D01*
Y57284D01*
D02*
G37*
G36*
X42315D02*
X41232D01*
Y56693D01*
X42315D01*
Y57284D01*
D02*
G37*
G36*
X40445D02*
X39362D01*
Y56693D01*
X40445D01*
Y57284D01*
D02*
G37*
G36*
X38378D02*
X37295D01*
Y56693D01*
X38378D01*
Y57284D01*
D02*
G37*
G36*
X36508D02*
X35425D01*
Y56693D01*
X36508D01*
Y57284D01*
D02*
G37*
G36*
X73752Y56968D02*
X72728D01*
Y56043D01*
X73752D01*
Y56968D01*
D02*
G37*
G36*
X71941D02*
X70917D01*
Y56043D01*
X71941D01*
Y56968D01*
D02*
G37*
G36*
X65878Y56968D02*
X64854D01*
Y56043D01*
X65878D01*
Y56968D01*
D02*
G37*
G36*
X64067D02*
X63043D01*
Y56043D01*
X64067D01*
Y56968D01*
D02*
G37*
G36*
X61941Y56968D02*
X60917D01*
Y56043D01*
X61941D01*
Y56968D01*
D02*
G37*
G36*
X60130D02*
X59106D01*
Y56043D01*
X60130D01*
Y56968D01*
D02*
G37*
G36*
X54067D02*
X53043D01*
Y56043D01*
X54067D01*
Y56968D01*
D02*
G37*
G36*
X52256D02*
X51232D01*
Y56043D01*
X52256D01*
Y56968D01*
D02*
G37*
G36*
X46193D02*
X45169D01*
Y56043D01*
X46193D01*
Y56968D01*
D02*
G37*
G36*
X44382D02*
X43358D01*
Y56043D01*
X44382D01*
Y56968D01*
D02*
G37*
G36*
X29854Y58728D02*
X29317Y58621D01*
X28861Y58316D01*
X28556Y57860D01*
X28449Y57323D01*
X28556Y56785D01*
X28861Y56329D01*
X29317Y56025D01*
X29854Y55918D01*
X30392Y56025D01*
X30848Y56329D01*
X30975Y56520D01*
X31547D01*
Y56043D01*
X34382D01*
Y58681D01*
X31547D01*
Y58126D01*
X30975D01*
X30848Y58316D01*
X30392Y58621D01*
X29854Y58728D01*
D02*
G37*
G36*
X23248Y56693D02*
X22323D01*
Y55669D01*
X23248D01*
Y56693D01*
D02*
G37*
G36*
X21535D02*
X20610D01*
Y55669D01*
X21535D01*
Y56693D01*
D02*
G37*
G36*
X103937Y55905D02*
X101969D01*
Y54527D01*
X103937D01*
Y55905D01*
D02*
G37*
G36*
X101181D02*
X99213D01*
Y54527D01*
X101181D01*
Y55905D01*
D02*
G37*
G36*
X80118Y56791D02*
X77756D01*
Y54429D01*
X77756D01*
X77697Y54173D01*
X77697Y54173D01*
X77697Y53954D01*
Y51339D01*
X80335D01*
Y54173D01*
X80335D01*
X80118Y54429D01*
Y56791D01*
D02*
G37*
G36*
X26634Y58504D02*
X23996D01*
Y55669D01*
X23996Y55669D01*
X23978Y55177D01*
X23910Y54838D01*
X23960Y54585D01*
X23614Y54097D01*
X23589Y54085D01*
X23228D01*
Y53566D01*
X22441D01*
Y54724D01*
X18898D01*
Y50000D01*
X22441D01*
Y51158D01*
X23228D01*
Y50541D01*
X27953D01*
Y51109D01*
X29865D01*
X31173Y49801D01*
X31056Y49213D01*
X31239Y48291D01*
X31762Y47510D01*
X32543Y46988D01*
X33465Y46804D01*
X34386Y46988D01*
X35168Y47510D01*
X35690Y48291D01*
X35873Y49213D01*
X35690Y50134D01*
X35168Y50916D01*
X34386Y51438D01*
X33465Y51621D01*
X32876Y51504D01*
X31216Y53164D01*
X30825Y53426D01*
X30364Y53517D01*
X30364Y53517D01*
X27953D01*
Y54085D01*
X27041D01*
X27016Y54097D01*
X26670Y54585D01*
X26720Y54838D01*
X26652Y55177D01*
X26634Y55669D01*
X26634Y55669D01*
X26634Y55669D01*
Y58504D01*
D02*
G37*
G36*
X50394Y54937D02*
X50086Y54876D01*
X49826Y54702D01*
X49652Y54441D01*
X49591Y54134D01*
X49652Y53827D01*
X49826Y53566D01*
X50086Y53392D01*
X50394Y53331D01*
X50701Y53392D01*
X50961Y53566D01*
X51135Y53827D01*
X51196Y54134D01*
X51135Y54441D01*
X50961Y54702D01*
X50701Y54876D01*
X50394Y54937D01*
D02*
G37*
G36*
X16535Y54724D02*
X15157D01*
Y52756D01*
X16535D01*
Y54724D01*
D02*
G37*
G36*
X14370D02*
X12992D01*
Y52756D01*
X14370D01*
Y54724D01*
D02*
G37*
G36*
X103937Y53740D02*
X101969D01*
Y52362D01*
X103937D01*
Y53740D01*
D02*
G37*
G36*
X101181D02*
X99213D01*
Y52362D01*
X101181D01*
Y53740D01*
D02*
G37*
G36*
X74311Y52461D02*
X72736D01*
Y51870D01*
X74311D01*
Y52461D01*
D02*
G37*
G36*
X71949D02*
X70374D01*
Y51870D01*
X71949D01*
Y52461D01*
D02*
G37*
G36*
X50689D02*
X49114D01*
Y51870D01*
X50689D01*
Y52461D01*
D02*
G37*
G36*
X48327D02*
X46752D01*
Y51870D01*
X48327D01*
Y52461D01*
D02*
G37*
G36*
X90500Y55905D02*
X89962Y55798D01*
X89507Y55493D01*
X89202Y55038D01*
X89095Y54500D01*
X89202Y53962D01*
X89507Y53507D01*
X89697Y53379D01*
Y50832D01*
X89667Y50803D01*
X83804D01*
X83763Y50856D01*
X83720Y51339D01*
X83720D01*
Y54173D01*
X81083D01*
Y51339D01*
X81599D01*
Y50598D01*
X81660Y50291D01*
X81834Y50031D01*
X82432Y49432D01*
X82432Y49432D01*
X82693Y49258D01*
X83000Y49197D01*
X90000D01*
X90307Y49258D01*
X90568Y49432D01*
X91068Y49932D01*
X91068Y49932D01*
X91242Y50193D01*
X91303Y50500D01*
X91303Y50500D01*
Y53379D01*
X91493Y53507D01*
X91798Y53962D01*
X91905Y54500D01*
X91798Y55038D01*
X91493Y55493D01*
X91038Y55798D01*
X90500Y55905D01*
D02*
G37*
G36*
X74311Y51083D02*
X72736D01*
Y50492D01*
X74311D01*
Y51083D01*
D02*
G37*
G36*
X71949D02*
X70374D01*
Y50492D01*
X71949D01*
Y51083D01*
D02*
G37*
G36*
X50689D02*
X49114D01*
Y50492D01*
X50689D01*
Y51083D01*
D02*
G37*
G36*
X48327D02*
X46752D01*
Y50492D01*
X48327D01*
Y51083D01*
D02*
G37*
G36*
X16535Y51968D02*
X15157D01*
Y50000D01*
X16535D01*
Y51968D01*
D02*
G37*
G36*
X14370D02*
X12992D01*
Y50000D01*
X14370D01*
Y51968D01*
D02*
G37*
G36*
X50689Y49902D02*
X49114D01*
Y49311D01*
X50689D01*
Y49902D01*
D02*
G37*
G36*
X48327D02*
X46752D01*
Y49311D01*
X48327D01*
Y49902D01*
D02*
G37*
G36*
X78740Y50015D02*
X78433Y49954D01*
X78172Y49780D01*
X77998Y49520D01*
X77937Y49213D01*
X77998Y48905D01*
X78172Y48645D01*
X78433Y48471D01*
X78740Y48410D01*
X79047Y48471D01*
X79308Y48645D01*
X79482Y48905D01*
X79543Y49213D01*
X79482Y49520D01*
X79308Y49780D01*
X79047Y49954D01*
X78740Y50015D01*
D02*
G37*
G36*
X74311Y49902D02*
X70374D01*
Y47933D01*
X74311D01*
Y49902D01*
D02*
G37*
G36*
X50689Y48524D02*
X49114D01*
Y47933D01*
X50689D01*
Y48524D01*
D02*
G37*
G36*
X48327D02*
X46752D01*
Y47933D01*
X48327D01*
Y48524D01*
D02*
G37*
G36*
X16535Y48425D02*
X15157D01*
Y46457D01*
X16535D01*
Y48425D01*
D02*
G37*
G36*
X14370D02*
X12992D01*
Y46457D01*
X14370D01*
Y48425D01*
D02*
G37*
G36*
X83720Y46693D02*
X82795D01*
Y45669D01*
X83720D01*
Y46693D01*
D02*
G37*
G36*
X82008D02*
X81083D01*
Y45669D01*
X82008D01*
Y46693D01*
D02*
G37*
G36*
X74311Y47343D02*
X70374D01*
Y45374D01*
X74311D01*
Y47343D01*
D02*
G37*
G36*
X50689D02*
X46752D01*
Y45374D01*
X50689D01*
Y47343D01*
D02*
G37*
G36*
X22441Y48425D02*
X18898D01*
Y45404D01*
X18198Y44704D01*
X18000D01*
X18000Y44704D01*
X17539Y44613D01*
X17149Y44352D01*
X17148Y44352D01*
X17035Y44238D01*
X16535Y44446D01*
Y45669D01*
X15157D01*
Y43701D01*
X16018D01*
X16399Y43201D01*
X16388Y43146D01*
X16122Y42756D01*
X16122Y42756D01*
X16122Y42756D01*
Y39921D01*
X18760D01*
Y41360D01*
X18783Y41476D01*
X18783Y41476D01*
Y42313D01*
X19158Y42387D01*
X19548Y42649D01*
X20601Y43701D01*
X22441D01*
Y44883D01*
X23228D01*
Y44341D01*
X24111D01*
Y42756D01*
X23996D01*
Y39921D01*
X24111D01*
Y38583D01*
X23819D01*
Y34646D01*
X26969D01*
Y38583D01*
X26519D01*
Y39921D01*
X26634D01*
Y42756D01*
X26519D01*
Y44341D01*
X27953D01*
Y47884D01*
X23228D01*
Y47292D01*
X22441D01*
Y48425D01*
D02*
G37*
G36*
X83720Y44882D02*
X82795D01*
Y43858D01*
X83720D01*
Y44882D01*
D02*
G37*
G36*
X82008D02*
X81083D01*
Y43858D01*
X82008D01*
Y44882D01*
D02*
G37*
G36*
X80335Y46693D02*
X77697D01*
Y46078D01*
X76776D01*
X76468Y46017D01*
X76208Y45843D01*
X75432Y45068D01*
X75258Y44807D01*
X75197Y44500D01*
Y42832D01*
X74746Y42381D01*
X74311Y42224D01*
X74311Y42224D01*
Y42224D01*
X74311Y42224D01*
X70374D01*
Y42037D01*
X69424D01*
X69301Y42222D01*
X68845Y42526D01*
X68307Y42633D01*
X67769Y42526D01*
X67314Y42222D01*
X67009Y41766D01*
X66902Y41228D01*
X67009Y40691D01*
X67314Y40235D01*
X67359Y40205D01*
Y39705D01*
X67314Y39674D01*
X67009Y39219D01*
X66902Y38681D01*
X67009Y38144D01*
X67314Y37688D01*
X67368Y37652D01*
Y37152D01*
X67314Y37115D01*
X67009Y36660D01*
X66902Y36122D01*
X67009Y35584D01*
X67314Y35129D01*
X67322Y35123D01*
X67338Y34532D01*
X67034Y34076D01*
X66927Y33538D01*
X67034Y33001D01*
X67306Y32594D01*
X67361Y32422D01*
Y32110D01*
X67296Y31972D01*
X67009Y31542D01*
X66902Y31004D01*
X67009Y30466D01*
X67314Y30011D01*
X67368Y29974D01*
Y29474D01*
X67314Y29438D01*
X67009Y28982D01*
X66902Y28445D01*
X67009Y27907D01*
X67314Y27451D01*
X67769Y27147D01*
X68307Y27040D01*
X68845Y27147D01*
X69301Y27451D01*
X69428Y27642D01*
X70374D01*
Y27461D01*
X74311D01*
Y27461D01*
X74811Y27554D01*
X75197Y27167D01*
Y26500D01*
X75258Y26193D01*
X75432Y25932D01*
X76342Y25023D01*
X76342Y25023D01*
X76602Y24849D01*
X76910Y24788D01*
X76910Y24788D01*
X77697D01*
Y24173D01*
X80335D01*
Y27008D01*
X77697D01*
Y26502D01*
X77197Y26439D01*
X76803Y26833D01*
Y27500D01*
X76742Y27807D01*
X76568Y28068D01*
X75623Y29013D01*
X75362Y29187D01*
X75055Y29248D01*
X74311D01*
Y29429D01*
X70374D01*
Y29248D01*
X69428D01*
X69301Y29438D01*
X69382Y29918D01*
X69653Y30201D01*
X70374D01*
Y30020D01*
X74311D01*
Y30201D01*
X75164D01*
X76405Y28960D01*
X76405Y28960D01*
X76665Y28786D01*
X76972Y28725D01*
X77697D01*
Y28110D01*
X80335D01*
Y30945D01*
X77697D01*
Y30591D01*
X77197Y30439D01*
X76064Y31572D01*
X75803Y31746D01*
X75496Y31807D01*
X74311D01*
Y31988D01*
X70374D01*
Y31807D01*
X69428D01*
X69301Y31997D01*
X69418Y32456D01*
X69685Y32736D01*
X70374D01*
Y32579D01*
X74311D01*
Y32711D01*
X77697D01*
Y32047D01*
X80335D01*
Y34882D01*
X77697D01*
Y34317D01*
X74311D01*
Y34547D01*
X70374D01*
Y34341D01*
X69453D01*
X69325Y34532D01*
X69417Y34989D01*
X69721Y35319D01*
X70374D01*
Y35138D01*
X74311D01*
Y35319D01*
X75622D01*
X75929Y35380D01*
X76190Y35554D01*
X77197Y36562D01*
X77697Y36509D01*
Y35984D01*
X80335D01*
Y38819D01*
X77697D01*
Y38204D01*
X76902D01*
X76902Y38204D01*
X76594Y38143D01*
X76334Y37969D01*
X75289Y36925D01*
X74311D01*
Y37106D01*
X70374D01*
Y36925D01*
X69428D01*
X69301Y37115D01*
X69382Y37595D01*
X69653Y37878D01*
X70374D01*
Y37697D01*
X74311D01*
Y37878D01*
X74681D01*
X74988Y37939D01*
X75249Y38113D01*
X77197Y40062D01*
X77697Y39921D01*
Y39921D01*
X80335D01*
Y42756D01*
X77697D01*
Y42241D01*
X77197Y42154D01*
X76825Y42459D01*
X76803Y42500D01*
X76803Y42500D01*
Y44168D01*
X77108Y44473D01*
X77697D01*
Y43858D01*
X80335D01*
Y46693D01*
D02*
G37*
G36*
X14370Y45669D02*
X12992D01*
Y43701D01*
X14370D01*
Y45669D01*
D02*
G37*
G36*
X88779Y45303D02*
X88472Y45242D01*
X88212Y45068D01*
X88038Y44807D01*
X87977Y44500D01*
X88038Y44193D01*
X88212Y43932D01*
X88472Y43758D01*
X88779Y43697D01*
X89087Y43758D01*
X89347Y43932D01*
X89521Y44193D01*
X89582Y44500D01*
X89521Y44807D01*
X89347Y45068D01*
X89087Y45242D01*
X88779Y45303D01*
D02*
G37*
G36*
X30000D02*
X29693Y45242D01*
X29432Y45068D01*
X29258Y44807D01*
X29197Y44500D01*
X29258Y44193D01*
X29432Y43932D01*
X29693Y43758D01*
X30000Y43697D01*
X30307Y43758D01*
X30568Y43932D01*
X30742Y44193D01*
X30803Y44500D01*
X30742Y44807D01*
X30568Y45068D01*
X30307Y45242D01*
X30000Y45303D01*
D02*
G37*
G36*
X74311Y44783D02*
X70374D01*
Y42815D01*
X74311D01*
Y44783D01*
D02*
G37*
G36*
X50689D02*
X46752D01*
Y42815D01*
X50689D01*
Y44783D01*
D02*
G37*
G36*
X15374Y42756D02*
X12736D01*
Y42141D01*
X11141D01*
X11013Y42332D01*
X10557Y42637D01*
X10020Y42744D01*
X9482Y42637D01*
X9026Y42332D01*
X8722Y41876D01*
X8615Y41339D01*
X8722Y40801D01*
X9026Y40345D01*
X9482Y40041D01*
X10020Y39934D01*
X10557Y40041D01*
X11013Y40345D01*
X11141Y40536D01*
X12736D01*
Y39921D01*
X15374D01*
Y42756D01*
D02*
G37*
G36*
X40965D02*
X40039D01*
Y41732D01*
X40965D01*
Y42756D01*
D02*
G37*
G36*
X39252D02*
X38327D01*
Y41732D01*
X39252D01*
Y42756D01*
D02*
G37*
G36*
X23248D02*
X22323D01*
Y41732D01*
X23248D01*
Y42756D01*
D02*
G37*
G36*
X21535D02*
X20610D01*
Y41732D01*
X21535D01*
Y42756D01*
D02*
G37*
G36*
X82008D02*
X81083D01*
Y41732D01*
X82008D01*
Y42756D01*
D02*
G37*
G36*
X91969Y42382D02*
X90945D01*
Y41457D01*
X91969D01*
Y42382D01*
D02*
G37*
G36*
X90158D02*
X89134D01*
Y41457D01*
X90158D01*
Y42382D01*
D02*
G37*
G36*
X95906D02*
X94882D01*
Y41457D01*
X95906D01*
Y42382D01*
D02*
G37*
G36*
X94095D02*
X93071D01*
Y41457D01*
X94095D01*
Y42382D01*
D02*
G37*
G36*
X99803Y42028D02*
X99016D01*
Y41240D01*
X99803D01*
Y42028D01*
D02*
G37*
G36*
X98228D02*
X97441D01*
Y41240D01*
X98228D01*
Y42028D01*
D02*
G37*
G36*
X106201Y40775D02*
X105663Y40668D01*
X105207Y40363D01*
X105080Y40173D01*
X103347D01*
Y40551D01*
X100984D01*
Y38189D01*
X103347D01*
Y38567D01*
X105080D01*
X105207Y38377D01*
X105663Y38072D01*
X106201Y37965D01*
X106738Y38072D01*
X107194Y38377D01*
X107499Y38832D01*
X107606Y39370D01*
X107499Y39908D01*
X107194Y40363D01*
X106738Y40668D01*
X106201Y40775D01*
D02*
G37*
G36*
X82008Y40945D02*
X81083D01*
Y39921D01*
X82008D01*
Y40945D01*
D02*
G37*
G36*
X40965D02*
X40039D01*
Y39921D01*
X40965D01*
Y40945D01*
D02*
G37*
G36*
X39252D02*
X38327D01*
Y39921D01*
X39252D01*
Y40945D01*
D02*
G37*
G36*
X23248D02*
X22323D01*
Y39921D01*
X23248D01*
Y40945D01*
D02*
G37*
G36*
X21535D02*
X20610D01*
Y39921D01*
X21535D01*
Y40945D01*
D02*
G37*
G36*
X95906Y40669D02*
X94882D01*
Y39744D01*
X95906D01*
Y40669D01*
D02*
G37*
G36*
X94095D02*
X93071D01*
Y39744D01*
X94095D01*
Y40669D01*
D02*
G37*
G36*
X91969Y40669D02*
X90945D01*
Y39744D01*
X91969D01*
Y40669D01*
D02*
G37*
G36*
X90158D02*
X89134D01*
Y39744D01*
X90158D01*
Y40669D01*
D02*
G37*
G36*
X99803Y40453D02*
X99016D01*
Y39665D01*
X99803D01*
Y40453D01*
D02*
G37*
G36*
X98228D02*
X97441D01*
Y39665D01*
X98228D01*
Y40453D01*
D02*
G37*
G36*
X83720Y42756D02*
X82795D01*
Y41339D01*
Y39921D01*
X83720D01*
X83720Y39921D01*
X84202Y39876D01*
X84462Y39702D01*
X85000Y39595D01*
X85538Y39702D01*
X85601Y39744D01*
X88032D01*
Y42382D01*
X85197D01*
Y42382D01*
X85000Y42405D01*
X84462Y42298D01*
X84220Y42136D01*
X83720Y42397D01*
Y42756D01*
D02*
G37*
G36*
X99803Y39075D02*
X97441D01*
Y38588D01*
X95906D01*
Y38996D01*
X93071D01*
Y38588D01*
X91969D01*
Y38996D01*
X89134D01*
Y38588D01*
X88032D01*
Y38996D01*
X85197D01*
Y36358D01*
X88032D01*
Y36983D01*
X89134D01*
Y36358D01*
X91969D01*
Y36983D01*
X93071D01*
Y36358D01*
X95906D01*
Y36983D01*
X97441D01*
Y36713D01*
X99803D01*
Y39075D01*
D02*
G37*
G36*
X57323Y40173D02*
X57016Y40112D01*
X56755Y39938D01*
X56581Y39677D01*
X56520Y39370D01*
X56581Y39063D01*
X56755Y38802D01*
X57016Y38628D01*
X57323Y38567D01*
X57630Y38628D01*
X57890Y38802D01*
X58065Y39063D01*
X58126Y39370D01*
X58065Y39677D01*
X57890Y39938D01*
X57630Y40112D01*
X57323Y40173D01*
D02*
G37*
G36*
X83720Y38819D02*
X82795D01*
Y37795D01*
X83720D01*
Y38819D01*
D02*
G37*
G36*
X40965D02*
X40039D01*
Y37795D01*
X40965D01*
Y38819D01*
D02*
G37*
G36*
X39252D02*
X38327D01*
Y37795D01*
X39252D01*
Y38819D01*
D02*
G37*
G36*
X82008D02*
X81083D01*
Y37795D01*
X82008D01*
Y38819D01*
D02*
G37*
G36*
X15197Y38445D02*
X14173D01*
Y37520D01*
X15197D01*
Y38445D01*
D02*
G37*
G36*
X13386D02*
X12362D01*
Y37520D01*
X13386D01*
Y38445D01*
D02*
G37*
G36*
X44350Y42756D02*
X41713D01*
Y39921D01*
X43485D01*
X43563Y39906D01*
X44497D01*
X44854Y39549D01*
X44932Y39432D01*
X46054Y38310D01*
X46315Y38136D01*
X46622Y38075D01*
X46752Y37697D01*
X50689D01*
Y37878D01*
X51635D01*
X51762Y37688D01*
X51681Y37208D01*
X51410Y36925D01*
X50689D01*
Y37106D01*
X46752D01*
X46333Y37302D01*
X45666Y37969D01*
X45406Y38143D01*
X45098Y38204D01*
X44350D01*
Y38819D01*
X41713D01*
Y35984D01*
X44350D01*
Y36395D01*
X44850Y36514D01*
X45810Y35554D01*
X46071Y35380D01*
X46328Y35329D01*
X46752Y35138D01*
X46752Y35138D01*
X46752Y35138D01*
X50689D01*
Y35319D01*
X51635D01*
X51762Y35129D01*
X51681Y34649D01*
X51410Y34366D01*
X50689D01*
Y34547D01*
X46752D01*
Y34317D01*
X44350D01*
Y34882D01*
X41713D01*
Y32047D01*
X44350D01*
Y32711D01*
X46752D01*
Y32579D01*
X50689D01*
Y32760D01*
X51635D01*
X51762Y32570D01*
X51681Y32089D01*
X51410Y31807D01*
X50689D01*
Y31988D01*
X46752D01*
Y31610D01*
X46307D01*
X46000Y31549D01*
X45739Y31375D01*
X45739Y31375D01*
X44850Y30486D01*
X44350Y30693D01*
Y30945D01*
X41713D01*
Y28110D01*
X44350D01*
Y28725D01*
X45028D01*
X45112Y28742D01*
X45359Y28281D01*
X44101Y27023D01*
X43563D01*
X43485Y27008D01*
X41713D01*
Y24173D01*
X44350D01*
Y25418D01*
X44434D01*
X44741Y25479D01*
X45001Y25653D01*
X46275Y26927D01*
X46752Y26696D01*
X46752Y26442D01*
Y24902D01*
X47918D01*
Y24311D01*
X46752D01*
Y24130D01*
X45827D01*
X45827Y24130D01*
X45520Y24069D01*
X45259Y23895D01*
X44451Y23086D01*
X43563D01*
X43485Y23071D01*
X41713D01*
Y20236D01*
X44350D01*
Y21481D01*
X44783D01*
X45091Y21542D01*
X45351Y21716D01*
X46159Y22524D01*
X46752D01*
Y22343D01*
X50689D01*
Y22524D01*
X51635D01*
X51762Y22333D01*
X52218Y22029D01*
X52756Y21922D01*
X53294Y22029D01*
X53749Y22333D01*
X54054Y22789D01*
X54161Y23327D01*
X54054Y23864D01*
X53749Y24320D01*
X53294Y24625D01*
X52756Y24732D01*
X52218Y24625D01*
X51762Y24320D01*
X51635Y24130D01*
X50689D01*
Y24311D01*
X49523D01*
Y24902D01*
X50689D01*
Y26870D01*
X47432D01*
X47166Y27288D01*
X47156Y27370D01*
X47203Y27445D01*
X48524D01*
X48601Y27461D01*
X50689D01*
Y27642D01*
X51635D01*
X51762Y27451D01*
X52218Y27147D01*
X52756Y27040D01*
X53294Y27147D01*
X53749Y27451D01*
X54054Y27907D01*
X54161Y28445D01*
X54054Y28982D01*
X53749Y29438D01*
X53695Y29474D01*
Y29974D01*
X53749Y30011D01*
X54054Y30466D01*
X54161Y31004D01*
X54054Y31542D01*
X53749Y31997D01*
X53695Y32034D01*
Y32533D01*
X53749Y32570D01*
X54054Y33025D01*
X54161Y33563D01*
X54054Y34101D01*
X53749Y34556D01*
X53695Y34593D01*
Y35092D01*
X53749Y35129D01*
X54054Y35584D01*
X54161Y36122D01*
X54054Y36660D01*
X53749Y37115D01*
X53695Y37152D01*
Y37652D01*
X53749Y37688D01*
X54054Y38144D01*
X54161Y38681D01*
X54054Y39219D01*
X53749Y39674D01*
X53294Y39979D01*
X52756Y40086D01*
X52218Y39979D01*
X51762Y39674D01*
X51635Y39484D01*
X50689D01*
Y39665D01*
X48601D01*
X48524Y39681D01*
X47390D01*
X47339Y39756D01*
X47607Y40256D01*
X50689D01*
Y42224D01*
X46752D01*
Y40591D01*
X46252Y40383D01*
X46146Y40490D01*
X46068Y40606D01*
X46068Y40606D01*
X45398Y41276D01*
X45137Y41450D01*
X44830Y41511D01*
X44350D01*
Y42756D01*
D02*
G37*
G36*
X83720Y37008D02*
X82795D01*
Y35984D01*
X83720D01*
Y37008D01*
D02*
G37*
G36*
X82008D02*
X81083D01*
Y35984D01*
X82008D01*
Y37008D01*
D02*
G37*
G36*
X40965D02*
X40039D01*
Y35984D01*
X40965D01*
Y37008D01*
D02*
G37*
G36*
X39252D02*
X38327D01*
Y35984D01*
X39252D01*
Y37008D01*
D02*
G37*
G36*
X15197Y36732D02*
X14173D01*
Y35807D01*
X15197D01*
Y36732D01*
D02*
G37*
G36*
X13386D02*
X12362D01*
Y35807D01*
X13386D01*
Y36732D01*
D02*
G37*
G36*
X30453Y34882D02*
X29953Y34785D01*
X29528Y34870D01*
X28990Y34763D01*
X28534Y34458D01*
X28230Y34002D01*
X28123Y33465D01*
X28230Y32927D01*
X28534Y32471D01*
X28990Y32167D01*
X29528Y32060D01*
X29953Y32144D01*
X30453Y32047D01*
Y32047D01*
X33091D01*
Y34882D01*
X30453D01*
X30453Y34882D01*
D02*
G37*
G36*
X19488Y38583D02*
X16339D01*
Y34646D01*
X19488D01*
Y38583D01*
D02*
G37*
G36*
X36476Y34882D02*
X35551D01*
Y33858D01*
X36476D01*
Y34882D01*
D02*
G37*
G36*
X34764D02*
X33839D01*
Y33858D01*
X34764D01*
Y34882D01*
D02*
G37*
G36*
X40965Y34882D02*
X40039D01*
Y33858D01*
X40965D01*
Y34882D01*
D02*
G37*
G36*
X39252D02*
X38327D01*
Y33858D01*
X39252D01*
Y34882D01*
D02*
G37*
G36*
X82008D02*
X81083D01*
Y33858D01*
X82008D01*
Y34882D01*
D02*
G37*
G36*
X91969Y34508D02*
X90945D01*
Y33583D01*
X91969D01*
Y34508D01*
D02*
G37*
G36*
X90158D02*
X89134D01*
Y33583D01*
X90158D01*
Y34508D01*
D02*
G37*
G36*
X95906D02*
X94882D01*
Y33583D01*
X95906D01*
Y34508D01*
D02*
G37*
G36*
X94095D02*
X93071D01*
Y33583D01*
X94095D01*
Y34508D01*
D02*
G37*
G36*
X99803Y34154D02*
X99016D01*
Y33366D01*
X99803D01*
Y34154D01*
D02*
G37*
G36*
X98228D02*
X97441D01*
Y33366D01*
X98228D01*
Y34154D01*
D02*
G37*
G36*
X106201Y32901D02*
X105663Y32794D01*
X105207Y32489D01*
X105080Y32299D01*
X103347D01*
Y32677D01*
X100984D01*
Y30315D01*
X103347D01*
Y30693D01*
X105080D01*
X105207Y30503D01*
X105663Y30198D01*
X106201Y30091D01*
X106738Y30198D01*
X107194Y30503D01*
X107499Y30958D01*
X107606Y31496D01*
X107499Y32034D01*
X107194Y32489D01*
X106738Y32794D01*
X106201Y32901D01*
D02*
G37*
G36*
X36476Y33071D02*
X35551D01*
Y32047D01*
X36476D01*
Y33071D01*
D02*
G37*
G36*
X34764D02*
X33839D01*
Y32047D01*
X34764D01*
Y33071D01*
D02*
G37*
G36*
X82008Y33071D02*
X81083D01*
Y32047D01*
X82008D01*
Y33071D01*
D02*
G37*
G36*
X40965D02*
X40039D01*
Y32047D01*
X40965D01*
Y33071D01*
D02*
G37*
G36*
X39252D02*
X38327D01*
Y32047D01*
X39252D01*
Y33071D01*
D02*
G37*
G36*
X95906Y32795D02*
X94882D01*
Y31870D01*
X95906D01*
Y32795D01*
D02*
G37*
G36*
X94095D02*
X93071D01*
Y31870D01*
X94095D01*
Y32795D01*
D02*
G37*
G36*
X91969Y32795D02*
X90945D01*
Y31870D01*
X91969D01*
Y32795D01*
D02*
G37*
G36*
X90158D02*
X89134D01*
Y31870D01*
X90158D01*
Y32795D01*
D02*
G37*
G36*
X99803Y32579D02*
X99016D01*
Y31791D01*
X99803D01*
Y32579D01*
D02*
G37*
G36*
X98228D02*
X97441D01*
Y31791D01*
X98228D01*
Y32579D01*
D02*
G37*
G36*
X83720Y34882D02*
X82795D01*
Y33465D01*
Y32047D01*
X83720D01*
X83720Y32047D01*
Y32047D01*
X84210Y32023D01*
X84478Y31844D01*
X85016Y31737D01*
X85553Y31844D01*
X85593Y31870D01*
X88032D01*
Y34508D01*
X85211D01*
X85016Y34547D01*
X84478Y34440D01*
X84220Y34268D01*
X83720Y34515D01*
Y34882D01*
D02*
G37*
G36*
X23228Y38583D02*
X20079D01*
Y34646D01*
X20851D01*
Y33700D01*
X20660Y33572D01*
X20356Y33116D01*
X20249Y32579D01*
X20356Y32041D01*
X20660Y31585D01*
X21116Y31281D01*
X21654Y31174D01*
X22191Y31281D01*
X22647Y31585D01*
X22952Y32041D01*
X23058Y32579D01*
X22952Y33116D01*
X22647Y33572D01*
X22456Y33700D01*
Y34646D01*
X23228D01*
Y38583D01*
D02*
G37*
G36*
X30453Y30945D02*
X29953Y30848D01*
X29528Y30933D01*
X28990Y30826D01*
X28534Y30521D01*
X28230Y30065D01*
X28123Y29528D01*
X28230Y28990D01*
X28534Y28534D01*
X28990Y28230D01*
X29528Y28123D01*
X29953Y28207D01*
X30453Y28110D01*
Y28110D01*
X33091D01*
Y30945D01*
X30453D01*
X30453Y30945D01*
D02*
G37*
G36*
X99803Y31201D02*
X97441D01*
Y30714D01*
X95906D01*
Y31122D01*
X93071D01*
Y30714D01*
X91969D01*
Y31122D01*
X89134D01*
Y30714D01*
X88032D01*
Y31122D01*
X85197D01*
Y28484D01*
X88032D01*
Y29109D01*
X89134D01*
Y28484D01*
X91969D01*
Y29109D01*
X93071D01*
Y28484D01*
X95906D01*
Y29109D01*
X97441D01*
Y28839D01*
X99803D01*
Y31201D01*
D02*
G37*
G36*
X36476Y30945D02*
X35551D01*
Y29921D01*
X36476D01*
Y30945D01*
D02*
G37*
G36*
X34764D02*
X33839D01*
Y29921D01*
X34764D01*
Y30945D01*
D02*
G37*
G36*
X83720Y30945D02*
X82795D01*
Y29921D01*
X83720D01*
Y30945D01*
D02*
G37*
G36*
X40965D02*
X40039D01*
Y29921D01*
X40965D01*
Y30945D01*
D02*
G37*
G36*
X39252D02*
X38327D01*
Y29921D01*
X39252D01*
Y30945D01*
D02*
G37*
G36*
X82008D02*
X81083D01*
Y29921D01*
X82008D01*
Y30945D01*
D02*
G37*
G36*
X36476Y29134D02*
X35551D01*
Y28110D01*
X36476D01*
Y29134D01*
D02*
G37*
G36*
X34764D02*
X33839D01*
Y28110D01*
X34764D01*
Y29134D01*
D02*
G37*
G36*
X83720Y29134D02*
X82795D01*
Y28110D01*
X83720D01*
Y29134D01*
D02*
G37*
G36*
X82008D02*
X81083D01*
Y28110D01*
X82008D01*
Y29134D01*
D02*
G37*
G36*
X40965D02*
X40039D01*
Y28110D01*
X40965D01*
Y29134D01*
D02*
G37*
G36*
X39252D02*
X38327D01*
Y28110D01*
X39252D01*
Y29134D01*
D02*
G37*
G36*
X30453Y27008D02*
X29953Y26911D01*
X29528Y26996D01*
X28990Y26889D01*
X28534Y26584D01*
X28230Y26128D01*
X28123Y25591D01*
X28230Y25053D01*
X28534Y24597D01*
X28990Y24293D01*
X29528Y24186D01*
X29953Y24270D01*
X30453Y24173D01*
Y24173D01*
X33091D01*
Y27008D01*
X30453D01*
X30453Y27008D01*
D02*
G37*
G36*
X23228Y28346D02*
X22047D01*
Y26772D01*
X23228D01*
Y28346D01*
D02*
G37*
G36*
X21260D02*
X20079D01*
Y26772D01*
X21260D01*
Y28346D01*
D02*
G37*
G36*
X15197Y27185D02*
X14173D01*
Y26260D01*
X15197D01*
Y27185D01*
D02*
G37*
G36*
X13386D02*
X12362D01*
Y26260D01*
X13386D01*
Y27185D01*
D02*
G37*
G36*
X36476Y27008D02*
X35551D01*
Y25984D01*
X36476D01*
Y27008D01*
D02*
G37*
G36*
X34764D02*
X33839D01*
Y25984D01*
X34764D01*
Y27008D01*
D02*
G37*
G36*
X40965Y27008D02*
X40039D01*
Y25984D01*
X40965D01*
Y27008D01*
D02*
G37*
G36*
X39252D02*
X38327D01*
Y25984D01*
X39252D01*
Y27008D01*
D02*
G37*
G36*
X82008D02*
X81083D01*
Y25984D01*
X82008D01*
Y27008D01*
D02*
G37*
G36*
X91969Y26634D02*
X90945D01*
Y25709D01*
X91969D01*
Y26634D01*
D02*
G37*
G36*
X90158D02*
X89134D01*
Y25709D01*
X90158D01*
Y26634D01*
D02*
G37*
G36*
X95906D02*
X94882D01*
Y25709D01*
X95906D01*
Y26634D01*
D02*
G37*
G36*
X94095D02*
X93071D01*
Y25709D01*
X94095D01*
Y26634D01*
D02*
G37*
G36*
X99803Y26280D02*
X99016D01*
Y25492D01*
X99803D01*
Y26280D01*
D02*
G37*
G36*
X98228D02*
X97441D01*
Y25492D01*
X98228D01*
Y26280D01*
D02*
G37*
G36*
X15197Y25473D02*
X14173D01*
Y24547D01*
X15197D01*
Y25473D01*
D02*
G37*
G36*
X13386D02*
X12362D01*
Y24547D01*
X13386D01*
Y25473D01*
D02*
G37*
G36*
X106201Y25027D02*
X105663Y24920D01*
X105207Y24615D01*
X105080Y24425D01*
X103347D01*
Y24803D01*
X100984D01*
Y22441D01*
X103347D01*
Y22819D01*
X105080D01*
X105207Y22629D01*
X105663Y22324D01*
X106201Y22217D01*
X106738Y22324D01*
X107194Y22629D01*
X107499Y23084D01*
X107606Y23622D01*
X107499Y24160D01*
X107194Y24615D01*
X106738Y24920D01*
X106201Y25027D01*
D02*
G37*
G36*
X23228Y25984D02*
X22047D01*
Y24409D01*
X23228D01*
Y25984D01*
D02*
G37*
G36*
X21260D02*
X20079D01*
Y24409D01*
X21260D01*
Y25984D01*
D02*
G37*
G36*
X15197Y35059D02*
X12362D01*
Y32421D01*
X12362Y32421D01*
X12459Y31921D01*
X12375Y31496D01*
X12459Y31071D01*
X12362Y30571D01*
X12362D01*
Y27933D01*
X15197D01*
Y28449D01*
X15881D01*
X16339Y28346D01*
Y24409D01*
X19488D01*
Y28346D01*
X19256D01*
X18803Y28500D01*
X18742Y28807D01*
X18568Y29068D01*
X18568Y29068D01*
X17816Y29820D01*
X17555Y29994D01*
X17248Y30055D01*
X15197D01*
Y30571D01*
X15197Y30571D01*
X15100Y31071D01*
X15184Y31496D01*
X15100Y31921D01*
X15197Y32421D01*
X15197D01*
Y35059D01*
D02*
G37*
G36*
X36476Y25197D02*
X35551D01*
Y24173D01*
X36476D01*
Y25197D01*
D02*
G37*
G36*
X34764D02*
X33839D01*
Y24173D01*
X34764D01*
Y25197D01*
D02*
G37*
G36*
X82008Y25197D02*
X81083D01*
Y24173D01*
X82008D01*
Y25197D01*
D02*
G37*
G36*
X40965D02*
X40039D01*
Y24173D01*
X40965D01*
Y25197D01*
D02*
G37*
G36*
X39252D02*
X38327D01*
Y24173D01*
X39252D01*
Y25197D01*
D02*
G37*
G36*
X74311Y26870D02*
X70374D01*
Y24902D01*
X71540D01*
Y24311D01*
X70374D01*
Y24130D01*
X69428D01*
X69301Y24320D01*
X68845Y24625D01*
X68307Y24732D01*
X67769Y24625D01*
X67314Y24320D01*
X67009Y23864D01*
X66902Y23327D01*
X67009Y22789D01*
X67314Y22333D01*
X67769Y22029D01*
X68307Y21922D01*
X68845Y22029D01*
X69301Y22333D01*
X69428Y22524D01*
X70374D01*
Y22343D01*
X74311D01*
Y22524D01*
X74841D01*
X76279Y21086D01*
X76539Y20912D01*
X76846Y20851D01*
X77697D01*
Y20236D01*
X80335D01*
Y23071D01*
X77697D01*
Y22456D01*
X77179D01*
X75741Y23895D01*
X75481Y24069D01*
X75173Y24130D01*
X74311D01*
Y24311D01*
X73145D01*
Y24902D01*
X74311D01*
Y26870D01*
D02*
G37*
G36*
X95906Y24921D02*
X94882D01*
Y23996D01*
X95906D01*
Y24921D01*
D02*
G37*
G36*
X94095D02*
X93071D01*
Y23996D01*
X94095D01*
Y24921D01*
D02*
G37*
G36*
X91969Y24921D02*
X90945D01*
Y23996D01*
X91969D01*
Y24921D01*
D02*
G37*
G36*
X90158D02*
X89134D01*
Y23996D01*
X90158D01*
Y24921D01*
D02*
G37*
G36*
X99803Y24705D02*
X99016D01*
Y23917D01*
X99803D01*
Y24705D01*
D02*
G37*
G36*
X98228D02*
X97441D01*
Y23917D01*
X98228D01*
Y24705D01*
D02*
G37*
G36*
X83720Y27008D02*
X82795D01*
Y25591D01*
Y24173D01*
X83720D01*
X83720Y24173D01*
Y24173D01*
X84210Y24149D01*
X84478Y23970D01*
X85016Y23863D01*
X85553Y23970D01*
X85593Y23996D01*
X88032D01*
Y26634D01*
X85211D01*
X85016Y26673D01*
X84478Y26566D01*
X84220Y26394D01*
X83720Y26641D01*
Y27008D01*
D02*
G37*
G36*
X99803Y23327D02*
X97441D01*
Y22840D01*
X95906D01*
Y23248D01*
X93071D01*
Y22840D01*
X91969D01*
Y23248D01*
X89134D01*
Y22840D01*
X88032D01*
Y23248D01*
X85197D01*
Y20610D01*
X88032D01*
Y21235D01*
X89134D01*
Y20610D01*
X91969D01*
Y21235D01*
X93071D01*
Y20610D01*
X95906D01*
Y21235D01*
X97441D01*
Y20965D01*
X99803D01*
Y23327D01*
D02*
G37*
G36*
X83720Y23071D02*
X82795D01*
Y22047D01*
X83720D01*
Y23071D01*
D02*
G37*
G36*
X40965D02*
X40039D01*
Y22047D01*
X40965D01*
Y23071D01*
D02*
G37*
G36*
X39252D02*
X38327D01*
Y22047D01*
X39252D01*
Y23071D01*
D02*
G37*
G36*
X23248D02*
X22323D01*
Y22047D01*
X23248D01*
Y23071D01*
D02*
G37*
G36*
X21535D02*
X20610D01*
Y22047D01*
X21535D01*
Y23071D01*
D02*
G37*
G36*
X82008D02*
X81083D01*
Y22047D01*
X82008D01*
Y23071D01*
D02*
G37*
G36*
X25315Y30933D02*
X24777Y30826D01*
X24321Y30521D01*
X24017Y30065D01*
X23910Y29528D01*
X24017Y28990D01*
X24113Y28846D01*
X23846Y28346D01*
X23819D01*
Y24409D01*
X24512D01*
Y23071D01*
X23996D01*
Y20236D01*
X26634D01*
Y20851D01*
X30453D01*
Y20236D01*
X33091D01*
Y23071D01*
X30453D01*
Y22456D01*
X26634D01*
Y23071D01*
X26118D01*
Y24409D01*
X26969D01*
Y28346D01*
X26784D01*
X26517Y28846D01*
X26613Y28990D01*
X26720Y29528D01*
X26613Y30065D01*
X26308Y30521D01*
X25853Y30826D01*
X25315Y30933D01*
D02*
G37*
G36*
X83720Y21260D02*
X82795D01*
Y20236D01*
X83720D01*
Y21260D01*
D02*
G37*
G36*
X82008D02*
X81083D01*
Y20236D01*
X82008D01*
Y21260D01*
D02*
G37*
G36*
X40965D02*
X40039D01*
Y20236D01*
X40965D01*
Y21260D01*
D02*
G37*
G36*
X39252D02*
X38327D01*
Y20236D01*
X39252D01*
Y21260D01*
D02*
G37*
G36*
X23248D02*
X22323D01*
Y20236D01*
X23248D01*
Y21260D01*
D02*
G37*
G36*
X21535D02*
X20610D01*
Y20236D01*
X21535D01*
Y21260D01*
D02*
G37*
%LPD*%
D18*
X32965Y57362D02*
D03*
Y60748D02*
D03*
X13780Y29252D02*
D03*
Y25866D02*
D03*
Y37126D02*
D03*
Y33740D02*
D03*
X86614Y29803D02*
D03*
Y33189D02*
D03*
Y37677D02*
D03*
Y41063D02*
D03*
X90551Y37677D02*
D03*
Y41063D02*
D03*
X94488Y33189D02*
D03*
Y29803D02*
D03*
Y41063D02*
D03*
Y37677D02*
D03*
X90551Y29803D02*
D03*
Y33189D02*
D03*
X94488Y25315D02*
D03*
Y21929D02*
D03*
X86614D02*
D03*
Y25315D02*
D03*
X90551Y21929D02*
D03*
Y25315D02*
D03*
X72335Y60748D02*
D03*
Y57362D02*
D03*
X64461Y60748D02*
D03*
Y57362D02*
D03*
X60524Y60748D02*
D03*
Y57362D02*
D03*
X52650Y60748D02*
D03*
Y57362D02*
D03*
X44776Y60748D02*
D03*
Y57362D02*
D03*
D19*
X35157Y33465D02*
D03*
X31772D02*
D03*
X35157Y29528D02*
D03*
X31772D02*
D03*
X35157Y25591D02*
D03*
X31772D02*
D03*
X79016Y45276D02*
D03*
X82402D02*
D03*
X79016Y41339D02*
D03*
X82402D02*
D03*
X79016Y37402D02*
D03*
X82402D02*
D03*
X79016Y33465D02*
D03*
X82402D02*
D03*
X79016Y29528D02*
D03*
X82402D02*
D03*
X43031Y41339D02*
D03*
X39646D02*
D03*
X43031Y37402D02*
D03*
X39646D02*
D03*
X43031Y33465D02*
D03*
X39646D02*
D03*
X43031Y29528D02*
D03*
X39646D02*
D03*
X43031Y25591D02*
D03*
X39646D02*
D03*
X79016D02*
D03*
X82402D02*
D03*
X79016Y21654D02*
D03*
X82402D02*
D03*
X43031D02*
D03*
X39646D02*
D03*
X79016Y61417D02*
D03*
X82402D02*
D03*
X79016Y52756D02*
D03*
X82402D02*
D03*
X35157Y21654D02*
D03*
X31772D02*
D03*
X14055Y41339D02*
D03*
X17441D02*
D03*
X25315Y21654D02*
D03*
X21929D02*
D03*
X25315Y41339D02*
D03*
X21929D02*
D03*
X25315Y57087D02*
D03*
X21929D02*
D03*
D20*
X101575Y54134D02*
D03*
Y60039D02*
D03*
X25591Y52313D02*
D03*
Y46112D02*
D03*
D37*
X105512Y5512D02*
D03*
X102362D02*
D03*
X99212D02*
D03*
X96063D02*
D03*
X92913D02*
D03*
X89764D02*
D03*
X86614D02*
D03*
X83464D02*
D03*
X80315D02*
D03*
X77165D02*
D03*
X74016D02*
D03*
X70866D02*
D03*
X67716D02*
D03*
X64567D02*
D03*
X61417D02*
D03*
X58268D02*
D03*
X55118D02*
D03*
X51968D02*
D03*
X36220D02*
D03*
X33071D02*
D03*
X29921D02*
D03*
X26772D02*
D03*
X23622D02*
D03*
X20472D02*
D03*
X17323D02*
D03*
X14173D02*
D03*
D38*
X112205Y94488D02*
Y99248D01*
Y78740D02*
Y83500D01*
X26000Y6283D02*
Y14696D01*
Y6283D02*
X26772Y5512D01*
X26000Y14696D02*
X26772Y15468D01*
Y15748D01*
X33071Y5512D02*
X33833Y6274D01*
Y15833D02*
X35157Y17157D01*
X33833Y6274D02*
Y15833D01*
X52784Y82284D02*
X55512D01*
X60433Y80118D02*
X62598Y82284D01*
X52000Y81500D02*
X52784Y82284D01*
X5906Y78740D02*
Y81496D01*
X48720Y38681D02*
X52756D01*
X48720Y36122D02*
X52756D01*
X13780Y31496D02*
Y33740D01*
Y29252D02*
Y31496D01*
X35157Y17157D02*
Y19410D01*
X29921Y5512D02*
Y15748D01*
X86614Y5512D02*
Y15748D01*
X80315Y5512D02*
Y15748D01*
X77165Y5512D02*
Y15748D01*
X74016Y5512D02*
Y15748D01*
X55118Y5512D02*
Y15748D01*
X58268Y5512D02*
Y15748D01*
X64567Y5512D02*
Y15748D01*
X67716Y5512D02*
Y15748D01*
X70866Y5512D02*
Y15748D01*
X5906Y91732D02*
Y94488D01*
X41339Y81964D02*
Y82284D01*
X97539Y60039D02*
X101575D01*
X40433Y74803D02*
Y81058D01*
X41339Y81964D01*
X40433Y66933D02*
Y74803D01*
X72337Y41234D02*
X72342Y41240D01*
X68313Y41234D02*
X72337D01*
X68307Y41228D02*
X68313Y41234D01*
X102165Y39370D02*
X106201D01*
X68332Y33538D02*
X72367D01*
X46894Y76264D02*
Y80752D01*
X48425Y82284D01*
X45433Y74803D02*
X46894Y76264D01*
X50433Y74803D02*
X52000Y76370D01*
Y81500D01*
X69685Y81964D02*
Y82284D01*
X70433Y74803D02*
Y81216D01*
X69685Y81964D02*
X70433Y81216D01*
X60433Y74803D02*
Y80118D01*
X29854Y57323D02*
X32925D01*
X25315Y26457D02*
Y29528D01*
Y26457D02*
X25394Y26378D01*
X25315Y21654D02*
Y26299D01*
X35157Y19410D02*
Y21654D01*
X29528Y25591D02*
X31772D01*
X29528Y29528D02*
X31772D01*
X29528Y33465D02*
X31772D01*
X25315Y21654D02*
X31772D01*
X25315Y21654D02*
X25315Y21654D01*
X25315Y26299D02*
X25394Y26378D01*
X17913D02*
X18000Y26465D01*
Y28500D01*
X17248Y29252D02*
X18000Y28500D01*
X13780Y29252D02*
X17248D01*
X10020Y41339D02*
X14055D01*
X21654Y32579D02*
Y36614D01*
X90500Y50500D02*
Y54500D01*
X90000Y50000D02*
X90500Y50500D01*
X83000Y50000D02*
X90000D01*
X82402Y50598D02*
X83000Y50000D01*
X82402Y50598D02*
Y52756D01*
X86417Y61024D02*
X90453D01*
X86024Y61417D02*
X86417Y61024D01*
X82402Y61417D02*
X86024D01*
X96653Y59153D02*
X97539Y60039D01*
X96653Y57087D02*
Y59153D01*
X86417Y53150D02*
Y55583D01*
X82480Y57087D02*
X84913D01*
X86417Y55583D01*
X82087Y57480D02*
X82480Y57087D01*
X79016Y61319D02*
Y61417D01*
Y61319D02*
X82087Y58248D01*
Y57480D02*
Y58248D01*
X78976Y52795D02*
Y55571D01*
X78937Y55610D02*
X78976Y55571D01*
Y52795D02*
X79016Y52756D01*
X85016Y25268D02*
X85047Y25299D01*
X86598D02*
X86630Y25331D01*
X85047Y25299D02*
X86598D01*
X85016Y33142D02*
X85047Y33173D01*
X86598D02*
X86630Y33205D01*
X85047Y33173D02*
X86598D01*
X85031Y41032D02*
X86583D01*
X86614Y41063D01*
X85000Y41000D02*
X85031Y41032D01*
X102165Y23622D02*
X106201D01*
X102165Y31496D02*
X106201D01*
X68307Y23327D02*
X72342D01*
X68307Y38681D02*
X72342D01*
X68307Y36122D02*
X72342D01*
X68307Y31004D02*
X72342D01*
X68307Y28445D02*
X72342D01*
X48720Y23327D02*
X52756D01*
X48720Y28445D02*
X52756D01*
X48720Y31004D02*
X52756D01*
X48720Y33563D02*
X52756D01*
X43031Y21752D02*
X43563Y22284D01*
X44783D01*
X43031Y21654D02*
Y21752D01*
X45827Y23327D02*
X48720D01*
X44783Y22284D02*
X45827Y23327D01*
X48720D02*
Y25886D01*
X43031Y25591D02*
Y25689D01*
X43563Y26221D02*
X44434D01*
X46461Y28248D01*
X43031Y25689D02*
X43563Y26221D01*
X46461Y28248D02*
X48524D01*
X48720Y28445D01*
X43031Y29528D02*
X45028D01*
X46307Y30807D02*
X48524D01*
X45028Y29528D02*
X46307Y30807D01*
X48524D02*
X48720Y31004D01*
X43031Y33465D02*
X43081Y33514D01*
X48671D02*
X48720Y33563D01*
X43081Y33514D02*
X48671D01*
X43031Y37402D02*
X45098D01*
X46378Y36122D01*
X48720D01*
X43031Y41240D02*
Y41339D01*
Y41240D02*
X43563Y40709D01*
X44830D02*
X45500Y40039D01*
Y40000D02*
Y40039D01*
X43563Y40709D02*
X44830D01*
X45500Y40000D02*
X46622Y38878D01*
X48524D01*
X48720Y38681D01*
X36902Y63402D02*
X40433Y66933D01*
X36902Y60433D02*
Y63402D01*
X40996Y60590D02*
X44618D01*
X40839Y60433D02*
X40996Y60590D01*
X44618D02*
X44776Y60748D01*
Y66276D02*
X45433Y66933D01*
Y74803D01*
X44776Y60748D02*
Y66276D01*
X48870Y60590D02*
X52492D01*
X48713Y60433D02*
X48870Y60590D01*
X52492D02*
X52650Y60748D01*
X50433Y66933D02*
Y74803D01*
X48713Y65213D02*
X50433Y66933D01*
X48713Y60433D02*
Y65213D01*
X56744Y60590D02*
X60366D01*
X56587Y60433D02*
X56744Y60590D01*
X60366D02*
X60524Y60748D01*
X60433Y74803D02*
X60524Y74713D01*
Y60748D02*
Y74713D01*
X68398Y60590D02*
Y64898D01*
Y60590D02*
X72177D01*
X64618D02*
X68398D01*
X64461Y60748D02*
X64618Y60590D01*
X72177D02*
X72335Y60748D01*
X68398Y64898D02*
X70433Y66933D01*
Y74803D01*
X98514Y22037D02*
X98622Y22146D01*
X86614Y21929D02*
X86722Y22037D01*
X98514D01*
Y29911D02*
X98622Y30020D01*
X86614Y29803D02*
X86722Y29911D01*
X98514D01*
X86722Y37785D02*
X98514D01*
X86614Y37677D02*
X86722Y37785D01*
X98514D02*
X98622Y37894D01*
X76000Y44500D02*
X76776Y45276D01*
X79016D01*
X76000Y42500D02*
Y44500D01*
X74740Y41240D02*
X76000Y42500D01*
X72342Y41240D02*
X74740D01*
X74681Y38681D02*
X77339Y41339D01*
X72342Y38681D02*
X74681D01*
X77339Y41339D02*
X79016D01*
X75622Y36122D02*
X76902Y37402D01*
X79016D01*
X72342Y36122D02*
X75622D01*
X72392Y33514D02*
X78966D01*
X79016Y33465D01*
X72342Y33563D02*
X72392Y33514D01*
X76972Y29528D02*
X79016D01*
X72342Y31004D02*
X75496D01*
X76972Y29528D01*
X76000Y26500D02*
X76910Y25591D01*
X79016D01*
X76000Y26500D02*
Y27500D01*
X75055Y28445D02*
X76000Y27500D01*
X72342Y28445D02*
X75055D01*
X76846Y21654D02*
X79016D01*
X75173Y23327D02*
X76846Y21654D01*
X72342Y23327D02*
X75173D01*
X72342D02*
Y25886D01*
D40*
X14173Y5512D02*
Y13780D01*
X17323Y5512D02*
Y13780D01*
X20472Y5512D02*
Y13780D01*
X25315Y54838D02*
Y57087D01*
Y52589D02*
Y54838D01*
X105512Y5512D02*
Y13780D01*
X96063Y5512D02*
Y13780D01*
X89764Y5512D02*
Y13780D01*
X61417Y5512D02*
Y13780D01*
X51968Y5512D02*
Y13780D01*
X36220Y5512D02*
Y13780D01*
X20694Y45497D02*
Y46088D01*
X18697Y43500D02*
X20694Y45497D01*
X18000Y43500D02*
X18697D01*
X17579Y41476D02*
Y43079D01*
X18000Y43500D01*
X17441Y41339D02*
X17579Y41476D01*
X25315Y45837D02*
X25591Y46112D01*
X25315Y36693D02*
Y45837D01*
X25566Y46088D02*
X25591Y46112D01*
X20694Y46088D02*
X25566D01*
X25315Y52589D02*
X25591Y52313D01*
X25541Y52362D02*
X25591Y52313D01*
X30364D02*
X33465Y49213D01*
X25591Y52313D02*
X30364D01*
X20669Y52362D02*
X25541D01*
D41*
X17324Y15748D02*
D03*
D43*
X11417Y189173D02*
D03*
X106693D02*
D03*
D44*
X20000Y75500D02*
D03*
X75500Y60500D02*
D03*
X105000Y62992D02*
D03*
X63500Y31000D02*
D03*
X20000Y30000D02*
D03*
X37000Y27500D02*
D03*
X48500Y17000D02*
D03*
X9500Y55500D02*
D03*
X3000D02*
D03*
X10000Y36000D02*
D03*
X3000Y38000D02*
D03*
X4000Y17000D02*
D03*
X108000Y16000D02*
D03*
X114000Y28000D02*
D03*
X114500Y41500D02*
D03*
Y54000D02*
D03*
X108500Y53500D02*
D03*
X107500Y43500D02*
D03*
Y35500D02*
D03*
X106000Y27500D02*
D03*
X72000Y54000D02*
D03*
X65000Y37000D02*
D03*
X34000Y38000D02*
D03*
X38500Y52500D02*
D03*
X14500Y59000D02*
D03*
X5500Y103500D02*
D03*
Y118000D02*
D03*
Y138500D02*
D03*
X27000Y139000D02*
D03*
Y124500D02*
D03*
X27500Y160000D02*
D03*
X83500D02*
D03*
X105500Y146000D02*
D03*
X98000Y139000D02*
D03*
Y118000D02*
D03*
X91000Y110500D02*
D03*
X98000Y82000D02*
D03*
X81000Y96000D02*
D03*
X54000Y128500D02*
D03*
X43000Y116000D02*
D03*
X50500Y99500D02*
D03*
X63500Y95500D02*
D03*
X37000D02*
D03*
X38000Y136500D02*
D03*
X66000D02*
D03*
X81500Y136000D02*
D03*
X79500Y125000D02*
D03*
X81500Y106500D02*
D03*
X71500Y91000D02*
D03*
X72000Y99500D02*
D03*
Y133500D02*
D03*
X112205Y99248D02*
D03*
Y83500D02*
D03*
X85932Y176684D02*
D03*
X87541Y173976D02*
D03*
X89860Y171845D02*
D03*
X92734Y170556D02*
D03*
X95857Y170148D02*
D03*
X99007D02*
D03*
X102156Y170142D02*
D03*
X105239Y169497D02*
D03*
X107898Y167809D02*
D03*
X109774Y165279D02*
D03*
X110596Y162239D02*
D03*
X115233Y169231D02*
D03*
X113375Y171774D02*
D03*
X111046Y173896D02*
D03*
X108317Y175468D02*
D03*
X105327Y176459D02*
D03*
X102203Y176854D02*
D03*
X99053Y176852D02*
D03*
X95903D02*
D03*
X92943Y177926D02*
D03*
X53345Y169877D02*
D03*
X32081Y178151D02*
D03*
X32481Y175210D02*
D03*
X33925Y172616D02*
D03*
X36246Y170765D02*
D03*
X39096Y169936D02*
D03*
X42064Y169877D02*
D03*
X45033D02*
D03*
X48001D02*
D03*
X50969D02*
D03*
X41365Y176580D02*
D03*
X38785Y178047D02*
D03*
X53543Y176580D02*
D03*
X55721Y169877D02*
D03*
X57087Y176580D02*
D03*
X58690Y169877D02*
D03*
X61658D02*
D03*
X64627D02*
D03*
X67595Y169831D02*
D03*
X69798Y167841D02*
D03*
X76580Y166898D02*
D03*
X76178Y169839D02*
D03*
X74925Y172530D02*
D03*
X72862Y174664D02*
D03*
X70240Y176056D02*
D03*
X67316Y176569D02*
D03*
X17324Y15748D02*
D03*
X62598Y82284D02*
D03*
X55512D02*
D03*
X25315Y54838D02*
D03*
X52756Y38681D02*
D03*
Y36122D02*
D03*
X26772Y15748D02*
D03*
X29921D02*
D03*
X86614D02*
D03*
X80315D02*
D03*
X77165D02*
D03*
X74016D02*
D03*
X55118D02*
D03*
X58268D02*
D03*
X64567D02*
D03*
X67716D02*
D03*
X70866D02*
D03*
X5906Y81496D02*
D03*
Y91732D02*
D03*
X41339Y82284D02*
D03*
X97539Y60039D02*
D03*
X68307Y41228D02*
D03*
X106201Y39370D02*
D03*
X48425Y82284D02*
D03*
X69685D02*
D03*
X29854Y57323D02*
D03*
X35157Y19410D02*
D03*
X29528Y25591D02*
D03*
Y29528D02*
D03*
Y33465D02*
D03*
X25315Y29528D02*
D03*
X13780Y31496D02*
D03*
X10020Y41339D02*
D03*
X21654Y32579D02*
D03*
X90500Y54500D02*
D03*
X90453Y61024D02*
D03*
X85016Y25268D02*
D03*
Y33142D02*
D03*
X85000Y41000D02*
D03*
X106201Y23622D02*
D03*
Y31496D02*
D03*
X68307Y23327D02*
D03*
Y38681D02*
D03*
Y36122D02*
D03*
X68332Y33538D02*
D03*
X68307Y31004D02*
D03*
Y28445D02*
D03*
X52756Y23327D02*
D03*
Y28445D02*
D03*
Y31004D02*
D03*
Y33563D02*
D03*
D45*
X99134Y156299D02*
D03*
X18504D02*
D03*
D46*
X35433Y74803D02*
D03*
X40433D02*
D03*
X45433D02*
D03*
X50433D02*
D03*
X55433D02*
D03*
X60433D02*
D03*
X65433D02*
D03*
X70433D02*
D03*
D47*
X5906Y94488D02*
D03*
Y78740D02*
D03*
X112205D02*
D03*
Y94488D02*
D03*
X33465Y49213D02*
D03*
D48*
X72342Y23327D02*
D03*
Y51476D02*
D03*
X48720D02*
D03*
Y23327D02*
D03*
X72342Y48917D02*
D03*
Y25886D02*
D03*
X48720Y48917D02*
D03*
Y25886D02*
D03*
Y28445D02*
D03*
Y46358D02*
D03*
Y43799D02*
D03*
Y41240D02*
D03*
Y38681D02*
D03*
Y31004D02*
D03*
Y33563D02*
D03*
Y36122D02*
D03*
X72342Y28445D02*
D03*
Y46358D02*
D03*
Y43799D02*
D03*
Y41240D02*
D03*
Y38681D02*
D03*
Y31004D02*
D03*
Y33563D02*
D03*
Y36122D02*
D03*
D49*
X78937Y55610D02*
D03*
Y58563D02*
D03*
X82480Y57087D02*
D03*
X98622Y37894D02*
D03*
Y40846D02*
D03*
X102165Y39370D02*
D03*
X98622Y30020D02*
D03*
Y32972D02*
D03*
X102165Y31496D02*
D03*
X98622Y22146D02*
D03*
Y25098D02*
D03*
X102165Y23622D02*
D03*
D50*
X86417Y61024D02*
D03*
Y53150D02*
D03*
X96653Y57087D02*
D03*
D51*
X14764Y46063D02*
D03*
X20669D02*
D03*
X14764Y52362D02*
D03*
X20669D02*
D03*
D52*
X21654Y36614D02*
D03*
X25394D02*
D03*
X17913D02*
D03*
Y26378D02*
D03*
X21654D02*
D03*
X25394D02*
D03*
D53*
X68398Y60433D02*
D03*
Y57677D02*
D03*
X56587Y60433D02*
D03*
Y57677D02*
D03*
X48713Y60433D02*
D03*
Y57677D02*
D03*
X40839Y60433D02*
D03*
Y57677D02*
D03*
X36902Y60433D02*
D03*
Y57677D02*
D03*
M02*
