G04*
G04 #@! TF.GenerationSoftware,Altium Limited,Altium Designer,22.1.2 (22)*
G04*
G04 Layer_Color=2752767*
%FSLAX25Y25*%
%MOIN*%
G70*
G04*
G04 #@! TF.SameCoordinates,3D425B39-A101-4537-954C-310EEB490880*
G04*
G04*
G04 #@! TF.FilePolarity,Positive*
G04*
G01*
G75*
%ADD66C,0.00200*%
%ADD67C,0.00267*%
D66*
X10617Y188373D02*
Y189973D01*
X12217D01*
Y188373D01*
X10617D01*
X105893D02*
Y189973D01*
X107493D01*
Y188373D01*
X105893D01*
D67*
X20800Y75500D02*
G03*
X20800Y75500I-800J0D01*
G01*
X76300Y60500D02*
G03*
X76300Y60500I-800J0D01*
G01*
X105800Y62992D02*
G03*
X105800Y62992I-800J0D01*
G01*
X64300Y31000D02*
G03*
X64300Y31000I-800J0D01*
G01*
X20800Y30000D02*
G03*
X20800Y30000I-800J0D01*
G01*
X37800Y27500D02*
G03*
X37800Y27500I-800J0D01*
G01*
X49300Y17000D02*
G03*
X49300Y17000I-800J0D01*
G01*
X10300Y55500D02*
G03*
X10300Y55500I-800J0D01*
G01*
X3800D02*
G03*
X3800Y55500I-800J0D01*
G01*
X10800Y36000D02*
G03*
X10800Y36000I-800J0D01*
G01*
X3800Y38000D02*
G03*
X3800Y38000I-800J0D01*
G01*
X4800Y17000D02*
G03*
X4800Y17000I-800J0D01*
G01*
X108800Y16000D02*
G03*
X108800Y16000I-800J0D01*
G01*
X114800Y28000D02*
G03*
X114800Y28000I-800J0D01*
G01*
X115300Y41500D02*
G03*
X115300Y41500I-800J0D01*
G01*
Y54000D02*
G03*
X115300Y54000I-800J0D01*
G01*
X109300Y53500D02*
G03*
X109300Y53500I-800J0D01*
G01*
X108300Y43500D02*
G03*
X108300Y43500I-800J0D01*
G01*
Y35500D02*
G03*
X108300Y35500I-800J0D01*
G01*
X106800Y27500D02*
G03*
X106800Y27500I-800J0D01*
G01*
X72800Y54000D02*
G03*
X72800Y54000I-800J0D01*
G01*
X65800Y37000D02*
G03*
X65800Y37000I-800J0D01*
G01*
X34800Y38000D02*
G03*
X34800Y38000I-800J0D01*
G01*
X39300Y52500D02*
G03*
X39300Y52500I-800J0D01*
G01*
X15300Y59000D02*
G03*
X15300Y59000I-800J0D01*
G01*
X6300Y103500D02*
G03*
X6300Y103500I-800J0D01*
G01*
Y118000D02*
G03*
X6300Y118000I-800J0D01*
G01*
Y138500D02*
G03*
X6300Y138500I-800J0D01*
G01*
X27800Y139000D02*
G03*
X27800Y139000I-800J0D01*
G01*
Y124500D02*
G03*
X27800Y124500I-800J0D01*
G01*
X28300Y160000D02*
G03*
X28300Y160000I-800J0D01*
G01*
X84300D02*
G03*
X84300Y160000I-800J0D01*
G01*
X106300Y146000D02*
G03*
X106300Y146000I-800J0D01*
G01*
X98800Y139000D02*
G03*
X98800Y139000I-800J0D01*
G01*
Y118000D02*
G03*
X98800Y118000I-800J0D01*
G01*
X91800Y110500D02*
G03*
X91800Y110500I-800J0D01*
G01*
X98800Y82000D02*
G03*
X98800Y82000I-800J0D01*
G01*
X81800Y96000D02*
G03*
X81800Y96000I-800J0D01*
G01*
X54800Y128500D02*
G03*
X54800Y128500I-800J0D01*
G01*
X43800Y116000D02*
G03*
X43800Y116000I-800J0D01*
G01*
X51300Y99500D02*
G03*
X51300Y99500I-800J0D01*
G01*
X64300Y95500D02*
G03*
X64300Y95500I-800J0D01*
G01*
X37800D02*
G03*
X37800Y95500I-800J0D01*
G01*
X38800Y136500D02*
G03*
X38800Y136500I-800J0D01*
G01*
X66800D02*
G03*
X66800Y136500I-800J0D01*
G01*
X82300Y136000D02*
G03*
X82300Y136000I-800J0D01*
G01*
X80300Y125000D02*
G03*
X80300Y125000I-800J0D01*
G01*
X82300Y106500D02*
G03*
X82300Y106500I-800J0D01*
G01*
X72300Y91000D02*
G03*
X72300Y91000I-800J0D01*
G01*
X72800Y99500D02*
G03*
X72800Y99500I-800J0D01*
G01*
Y133500D02*
G03*
X72800Y133500I-800J0D01*
G01*
X113005Y99248D02*
G03*
X113005Y99248I-800J0D01*
G01*
Y83500D02*
G03*
X113005Y83500I-800J0D01*
G01*
X86732Y176684D02*
G03*
X86732Y176684I-800J0D01*
G01*
X88341Y173976D02*
G03*
X88341Y173976I-800J0D01*
G01*
X90660Y171845D02*
G03*
X90660Y171845I-800J0D01*
G01*
X93534Y170556D02*
G03*
X93534Y170556I-800J0D01*
G01*
X96657Y170148D02*
G03*
X96657Y170148I-800J0D01*
G01*
X99807D02*
G03*
X99807Y170148I-800J0D01*
G01*
X102956Y170142D02*
G03*
X102956Y170142I-800J0D01*
G01*
X106039Y169497D02*
G03*
X106039Y169497I-800J0D01*
G01*
X108698Y167809D02*
G03*
X108698Y167809I-800J0D01*
G01*
X110573Y165279D02*
G03*
X110573Y165279I-800J0D01*
G01*
X111396Y162239D02*
G03*
X111396Y162239I-800J0D01*
G01*
X116033Y169231D02*
G03*
X116033Y169231I-800J0D01*
G01*
X114175Y171774D02*
G03*
X114175Y171774I-800J0D01*
G01*
X111846Y173896D02*
G03*
X111846Y173896I-800J0D01*
G01*
X109117Y175468D02*
G03*
X109117Y175468I-800J0D01*
G01*
X106128Y176459D02*
G03*
X106128Y176459I-800J0D01*
G01*
X103003Y176854D02*
G03*
X103003Y176854I-800J0D01*
G01*
X99853Y176852D02*
G03*
X99853Y176852I-800J0D01*
G01*
X96703D02*
G03*
X96703Y176852I-800J0D01*
G01*
X93743Y177926D02*
G03*
X93743Y177926I-800J0D01*
G01*
X105918Y89370D02*
G03*
X105918Y89370I-800J0D01*
G01*
X83477Y179000D02*
G03*
X83477Y179000I-800J0D01*
G01*
X54145Y169877D02*
G03*
X54145Y169877I-800J0D01*
G01*
X32881Y178151D02*
G03*
X32881Y178151I-800J0D01*
G01*
X33281Y175210D02*
G03*
X33281Y175210I-800J0D01*
G01*
X34725Y172616D02*
G03*
X34725Y172616I-800J0D01*
G01*
X37046Y170765D02*
G03*
X37046Y170765I-800J0D01*
G01*
X39896Y169936D02*
G03*
X39896Y169936I-800J0D01*
G01*
X42864Y169877D02*
G03*
X42864Y169877I-800J0D01*
G01*
X45832D02*
G03*
X45832Y169877I-800J0D01*
G01*
X48801D02*
G03*
X48801Y169877I-800J0D01*
G01*
X51770D02*
G03*
X51770Y169877I-800J0D01*
G01*
X42165Y176580D02*
G03*
X42165Y176580I-800J0D01*
G01*
X39585Y178047D02*
G03*
X39585Y178047I-800J0D01*
G01*
X54343Y176580D02*
G03*
X54343Y176580I-800J0D01*
G01*
X56521Y169877D02*
G03*
X56521Y169877I-800J0D01*
G01*
X57887Y176580D02*
G03*
X57887Y176580I-800J0D01*
G01*
X59490Y169877D02*
G03*
X59490Y169877I-800J0D01*
G01*
X62458D02*
G03*
X62458Y169877I-800J0D01*
G01*
X65427D02*
G03*
X65427Y169877I-800J0D01*
G01*
X68395Y169831D02*
G03*
X68395Y169831I-800J0D01*
G01*
X70598Y167841D02*
G03*
X70598Y167841I-800J0D01*
G01*
X77380Y166898D02*
G03*
X77380Y166898I-800J0D01*
G01*
X76978Y169839D02*
G03*
X76978Y169839I-800J0D01*
G01*
X75725Y172530D02*
G03*
X75725Y172530I-800J0D01*
G01*
X73662Y174664D02*
G03*
X73662Y174664I-800J0D01*
G01*
X71040Y176056D02*
G03*
X71040Y176056I-800J0D01*
G01*
X68116Y176569D02*
G03*
X68116Y176569I-800J0D01*
G01*
X18124Y15748D02*
G03*
X18124Y15748I-800J0D01*
G01*
X32690Y12598D02*
G03*
X32690Y12598I-800J0D01*
G01*
X28753D02*
G03*
X28753Y12598I-800J0D01*
G01*
X63398Y82284D02*
G03*
X63398Y82284I-800J0D01*
G01*
X56312D02*
G03*
X56312Y82284I-800J0D01*
G01*
X91800Y160500D02*
G03*
X91800Y160500I-800J0D01*
G01*
X26115Y54838D02*
G03*
X26115Y54838I-800J0D01*
G01*
X63398Y68110D02*
G03*
X63398Y68110I-800J0D01*
G01*
X53556Y38681D02*
G03*
X53556Y38681I-800J0D01*
G01*
Y36122D02*
G03*
X53556Y36122I-800J0D01*
G01*
X27572Y15748D02*
G03*
X27572Y15748I-800J0D01*
G01*
X30721D02*
G03*
X30721Y15748I-800J0D01*
G01*
X87414D02*
G03*
X87414Y15748I-800J0D01*
G01*
X81115D02*
G03*
X81115Y15748I-800J0D01*
G01*
X77965D02*
G03*
X77965Y15748I-800J0D01*
G01*
X74816D02*
G03*
X74816Y15748I-800J0D01*
G01*
X55918D02*
G03*
X55918Y15748I-800J0D01*
G01*
X59068D02*
G03*
X59068Y15748I-800J0D01*
G01*
X65367D02*
G03*
X65367Y15748I-800J0D01*
G01*
X68516D02*
G03*
X68516Y15748I-800J0D01*
G01*
X71666D02*
G03*
X71666Y15748I-800J0D01*
G01*
X6706Y81496D02*
G03*
X6706Y81496I-800J0D01*
G01*
Y91732D02*
G03*
X6706Y91732I-800J0D01*
G01*
X77572Y75197D02*
G03*
X77572Y75197I-800J0D01*
G01*
X27965Y117717D02*
G03*
X27965Y117717I-800J0D01*
G01*
X35052Y82315D02*
G03*
X35052Y82315I-800J0D01*
G01*
X42139Y82284D02*
G03*
X42139Y82284I-800J0D01*
G01*
X98339Y60039D02*
G03*
X98339Y60039I-800J0D01*
G01*
X113005Y75197D02*
G03*
X113005Y75197I-800J0D01*
G01*
X113005Y89370D02*
G03*
X113005Y89370I-800J0D01*
G01*
X91745Y68110D02*
G03*
X91745Y68110I-800J0D01*
G01*
X69107Y41228D02*
G03*
X69107Y41228I-800J0D01*
G01*
X107001Y39370D02*
G03*
X107001Y39370I-800J0D01*
G01*
X49225Y82284D02*
G03*
X49225Y82284I-800J0D01*
G01*
X70485D02*
G03*
X70485Y82284I-800J0D01*
G01*
X30654Y57323D02*
G03*
X30654Y57323I-800J0D01*
G01*
X35958Y19410D02*
G03*
X35958Y19410I-800J0D01*
G01*
X30328Y25591D02*
G03*
X30328Y25591I-800J0D01*
G01*
Y29528D02*
G03*
X30328Y29528I-800J0D01*
G01*
Y33465D02*
G03*
X30328Y33465I-800J0D01*
G01*
X26115Y29528D02*
G03*
X26115Y29528I-800J0D01*
G01*
X14580Y31496D02*
G03*
X14580Y31496I-800J0D01*
G01*
X10820Y41339D02*
G03*
X10820Y41339I-800J0D01*
G01*
X22454Y32579D02*
G03*
X22454Y32579I-800J0D01*
G01*
X91300Y54500D02*
G03*
X91300Y54500I-800J0D01*
G01*
X91253Y61024D02*
G03*
X91253Y61024I-800J0D01*
G01*
X85816Y25268D02*
G03*
X85816Y25268I-800J0D01*
G01*
Y33142D02*
G03*
X85816Y33142I-800J0D01*
G01*
X85800Y41000D02*
G03*
X85800Y41000I-800J0D01*
G01*
X107001Y23622D02*
G03*
X107001Y23622I-800J0D01*
G01*
Y31496D02*
G03*
X107001Y31496I-800J0D01*
G01*
X69107Y23327D02*
G03*
X69107Y23327I-800J0D01*
G01*
Y38681D02*
G03*
X69107Y38681I-800J0D01*
G01*
Y36122D02*
G03*
X69107Y36122I-800J0D01*
G01*
X69132Y33538D02*
G03*
X69132Y33538I-800J0D01*
G01*
X69107Y31004D02*
G03*
X69107Y31004I-800J0D01*
G01*
Y28445D02*
G03*
X69107Y28445I-800J0D01*
G01*
X53556Y23327D02*
G03*
X53556Y23327I-800J0D01*
G01*
Y28445D02*
G03*
X53556Y28445I-800J0D01*
G01*
Y31004D02*
G03*
X53556Y31004I-800J0D01*
G01*
Y33563D02*
G03*
X53556Y33563I-800J0D01*
G01*
X89579Y44500D02*
G03*
X89579Y44500I-800J0D01*
G01*
X58123Y39370D02*
G03*
X58123Y39370I-800J0D01*
G01*
X30800Y44500D02*
G03*
X30800Y44500I-800J0D01*
G01*
X51194Y54134D02*
G03*
X51194Y54134I-800J0D01*
G01*
X79540Y49213D02*
G03*
X79540Y49213I-800J0D01*
G01*
X77572Y68110D02*
G03*
X77572Y68110I-800J0D01*
G01*
X49225Y68110D02*
G03*
X49225Y68110I-800J0D01*
G01*
X56312D02*
G03*
X56312Y68110I-800J0D01*
G01*
X35052Y68110D02*
G03*
X35052Y68110I-800J0D01*
G01*
X27965D02*
G03*
X27965Y68110I-800J0D01*
G01*
X20879D02*
G03*
X20879Y68110I-800J0D01*
G01*
X13792D02*
G03*
X13792Y68110I-800J0D01*
G01*
X13792Y75197D02*
G03*
X13792Y75197I-800J0D01*
G01*
Y117717D02*
G03*
X13792Y117717I-800J0D01*
G01*
Y124803D02*
G03*
X13792Y124803I-800J0D01*
G01*
Y131890D02*
G03*
X13792Y131890I-800J0D01*
G01*
Y138976D02*
G03*
X13792Y138976I-800J0D01*
G01*
Y146063D02*
G03*
X13792Y146063I-800J0D01*
G01*
X77572Y138976D02*
G03*
X77572Y138976I-800J0D01*
G01*
X84658Y124803D02*
G03*
X84658Y124803I-800J0D01*
G01*
X105918Y117717D02*
G03*
X105918Y117717I-800J0D01*
G01*
X91745Y103543D02*
G03*
X91745Y103543I-800J0D01*
G01*
X105918Y68110D02*
G03*
X105918Y68110I-800J0D01*
G01*
X98831Y68110D02*
G03*
X98831Y68110I-800J0D01*
G01*
M02*
