G04*
G04 #@! TF.GenerationSoftware,Altium Limited,Altium Designer,22.1.2 (22)*
G04*
G04 Layer_Color=128*
%FSLAX25Y25*%
%MOIN*%
G70*
G04*
G04 #@! TF.SameCoordinates,3D425B39-A101-4537-954C-310EEB490880*
G04*
G04*
G04 #@! TF.FilePolarity,Positive*
G04*
G01*
G75*
%ADD18R,0.02047X0.01850*%
%ADD19R,0.01850X0.02047*%
%ADD20R,0.03937X0.02756*%
%ADD45R,0.05906X0.11614*%
%ADD46R,0.03937X0.09055*%
%ADD47C,0.03937*%
%ADD48R,0.03150X0.01181*%
%ADD49R,0.01575X0.01575*%
%ADD50R,0.03150X0.02362*%
%ADD51R,0.02756X0.03937*%
%ADD52R,0.02362X0.03150*%
%ADD53R,0.02165X0.01181*%
D18*
X32965Y57362D02*
D03*
Y60748D02*
D03*
X13780Y29252D02*
D03*
Y25866D02*
D03*
Y37126D02*
D03*
Y33740D02*
D03*
X86614Y29803D02*
D03*
Y33189D02*
D03*
Y37677D02*
D03*
Y41063D02*
D03*
X90551Y37677D02*
D03*
Y41063D02*
D03*
X94488Y33189D02*
D03*
Y29803D02*
D03*
Y41063D02*
D03*
Y37677D02*
D03*
X90551Y29803D02*
D03*
Y33189D02*
D03*
X94488Y25315D02*
D03*
Y21929D02*
D03*
X86614D02*
D03*
Y25315D02*
D03*
X90551Y21929D02*
D03*
Y25315D02*
D03*
X72335Y60748D02*
D03*
Y57362D02*
D03*
X64461Y60748D02*
D03*
Y57362D02*
D03*
X60524Y60748D02*
D03*
Y57362D02*
D03*
X52650Y60748D02*
D03*
Y57362D02*
D03*
X44776Y60748D02*
D03*
Y57362D02*
D03*
D19*
X35157Y33465D02*
D03*
X31772D02*
D03*
X35157Y29528D02*
D03*
X31772D02*
D03*
X35157Y25591D02*
D03*
X31772D02*
D03*
X79016Y45276D02*
D03*
X82402D02*
D03*
X79016Y41339D02*
D03*
X82402D02*
D03*
X79016Y37402D02*
D03*
X82402D02*
D03*
X79016Y33465D02*
D03*
X82402D02*
D03*
X79016Y29528D02*
D03*
X82402D02*
D03*
X43031Y41339D02*
D03*
X39646D02*
D03*
X43031Y37402D02*
D03*
X39646D02*
D03*
X43031Y33465D02*
D03*
X39646D02*
D03*
X43031Y29528D02*
D03*
X39646D02*
D03*
X43031Y25591D02*
D03*
X39646D02*
D03*
X79016D02*
D03*
X82402D02*
D03*
X79016Y21654D02*
D03*
X82402D02*
D03*
X43031D02*
D03*
X39646D02*
D03*
X79016Y61417D02*
D03*
X82402D02*
D03*
X79016Y52756D02*
D03*
X82402D02*
D03*
X35157Y21654D02*
D03*
X31772D02*
D03*
X14055Y41339D02*
D03*
X17441D02*
D03*
X25315Y21654D02*
D03*
X21929D02*
D03*
X25315Y41339D02*
D03*
X21929D02*
D03*
X25315Y57087D02*
D03*
X21929D02*
D03*
D20*
X101575Y54134D02*
D03*
Y60039D02*
D03*
X25591Y52313D02*
D03*
Y46112D02*
D03*
D45*
X99134Y156299D02*
D03*
X18504D02*
D03*
D46*
X35433Y74803D02*
D03*
X40433D02*
D03*
X45433D02*
D03*
X50433D02*
D03*
X55433D02*
D03*
X60433D02*
D03*
X65433D02*
D03*
X70433D02*
D03*
D47*
X5906Y94488D02*
D03*
Y78740D02*
D03*
X112205D02*
D03*
Y94488D02*
D03*
X33465Y49213D02*
D03*
D48*
X72342Y23327D02*
D03*
Y51476D02*
D03*
X48720D02*
D03*
Y23327D02*
D03*
X72342Y48917D02*
D03*
Y25886D02*
D03*
X48720Y48917D02*
D03*
Y25886D02*
D03*
Y28445D02*
D03*
Y46358D02*
D03*
Y43799D02*
D03*
Y41240D02*
D03*
Y38681D02*
D03*
Y31004D02*
D03*
Y33563D02*
D03*
Y36122D02*
D03*
X72342Y28445D02*
D03*
Y46358D02*
D03*
Y43799D02*
D03*
Y41240D02*
D03*
Y38681D02*
D03*
Y31004D02*
D03*
Y33563D02*
D03*
Y36122D02*
D03*
D49*
X78937Y55610D02*
D03*
Y58563D02*
D03*
X82480Y57087D02*
D03*
X98622Y37894D02*
D03*
Y40846D02*
D03*
X102165Y39370D02*
D03*
X98622Y30020D02*
D03*
Y32972D02*
D03*
X102165Y31496D02*
D03*
X98622Y22146D02*
D03*
Y25098D02*
D03*
X102165Y23622D02*
D03*
D50*
X86417Y61024D02*
D03*
Y53150D02*
D03*
X96653Y57087D02*
D03*
D51*
X14764Y46063D02*
D03*
X20669D02*
D03*
X14764Y52362D02*
D03*
X20669D02*
D03*
D52*
X21654Y36614D02*
D03*
X25394D02*
D03*
X17913D02*
D03*
Y26378D02*
D03*
X21654D02*
D03*
X25394D02*
D03*
D53*
X68398Y60433D02*
D03*
Y57677D02*
D03*
X56587Y60433D02*
D03*
Y57677D02*
D03*
X48713Y60433D02*
D03*
Y57677D02*
D03*
X40839Y60433D02*
D03*
Y57677D02*
D03*
X36902Y60433D02*
D03*
Y57677D02*
D03*
M02*
