G04*
G04 #@! TF.GenerationSoftware,Altium Limited,Altium Designer,22.1.2 (22)*
G04*
G04 Layer_Color=255*
%FSLAX25Y25*%
%MOIN*%
G70*
G04*
G04 #@! TF.SameCoordinates,3D425B39-A101-4537-954C-310EEB490880*
G04*
G04*
G04 #@! TF.FilePolarity,Positive*
G04*
G01*
G75*
%ADD13R,0.03937X0.03937*%
%ADD14R,0.08661X0.04134*%
%ADD15R,0.03937X0.03937*%
%ADD16R,0.04134X0.08661*%
%ADD17R,0.01968X0.02362*%
%ADD18R,0.02047X0.01850*%
%ADD19R,0.01850X0.02047*%
%ADD20R,0.03937X0.02756*%
%ADD21R,0.01575X0.01575*%
G04:AMPARAMS|DCode=22|XSize=27.56mil|YSize=27.56mil|CornerRadius=2.76mil|HoleSize=0mil|Usage=FLASHONLY|Rotation=0.000|XOffset=0mil|YOffset=0mil|HoleType=Round|Shape=RoundedRectangle|*
%AMROUNDEDRECTD22*
21,1,0.02756,0.02205,0,0,0.0*
21,1,0.02205,0.02756,0,0,0.0*
1,1,0.00551,0.01102,-0.01102*
1,1,0.00551,-0.01102,-0.01102*
1,1,0.00551,-0.01102,0.01102*
1,1,0.00551,0.01102,0.01102*
%
%ADD22ROUNDEDRECTD22*%
%ADD37R,0.02362X0.09055*%
%ADD43R,0.20866X0.20866*%
D13*
X76772Y188976D02*
D03*
X64961Y188976D02*
D03*
D14*
X70866Y194783D02*
D03*
Y183169D02*
D03*
D15*
X35433Y183071D02*
D03*
X35433Y194882D02*
D03*
D16*
X41240Y188976D02*
D03*
X29626D02*
D03*
D17*
X57284Y41339D02*
D03*
X60827D02*
D03*
X88779D02*
D03*
X92323D02*
D03*
X25787D02*
D03*
X29331D02*
D03*
D18*
X64173Y173701D02*
D03*
Y177087D02*
D03*
X49606Y173701D02*
D03*
Y177087D02*
D03*
X46063Y173701D02*
D03*
Y177087D02*
D03*
X60630Y173701D02*
D03*
Y177087D02*
D03*
X65354Y50906D02*
D03*
Y47520D02*
D03*
X50394Y47520D02*
D03*
Y50906D02*
D03*
X68504Y47520D02*
D03*
Y50906D02*
D03*
X56693Y47520D02*
D03*
Y50906D02*
D03*
X53543Y50906D02*
D03*
Y47520D02*
D03*
X96850Y50906D02*
D03*
Y47520D02*
D03*
X81890Y47520D02*
D03*
Y50906D02*
D03*
X100000Y47520D02*
D03*
Y50906D02*
D03*
X88189Y47520D02*
D03*
Y50906D02*
D03*
X85039Y50906D02*
D03*
Y47520D02*
D03*
X29921Y50906D02*
D03*
Y47520D02*
D03*
X33071D02*
D03*
Y50906D02*
D03*
X21260Y47520D02*
D03*
Y50906D02*
D03*
D19*
X53425Y173228D02*
D03*
X56811D02*
D03*
X25866Y37402D02*
D03*
X29252D02*
D03*
X57362D02*
D03*
X60748D02*
D03*
X88858D02*
D03*
X92244D02*
D03*
D20*
X88583Y188976D02*
D03*
Y183071D02*
D03*
X82677Y188976D02*
D03*
Y182776D02*
D03*
D21*
X59547Y47441D02*
D03*
X62500D02*
D03*
X61024Y50984D02*
D03*
X91043Y47441D02*
D03*
X93996D02*
D03*
X92520Y50984D02*
D03*
X24114Y47441D02*
D03*
X27067D02*
D03*
X25591Y50984D02*
D03*
D22*
X73228Y85827D02*
D03*
X80315D02*
D03*
X59055D02*
D03*
X66142D02*
D03*
X44882D02*
D03*
X51968D02*
D03*
X37795D02*
D03*
X87401Y135433D02*
D03*
Y128346D02*
D03*
Y114173D02*
D03*
Y121260D02*
D03*
Y100000D02*
D03*
Y92913D02*
D03*
Y107087D02*
D03*
X80315Y142520D02*
D03*
X73228D02*
D03*
X66142D02*
D03*
X59055D02*
D03*
X44882D02*
D03*
X51968D02*
D03*
X37795D02*
D03*
X30709Y93173D02*
D03*
Y100000D02*
D03*
Y107087D02*
D03*
Y114173D02*
D03*
Y121260D02*
D03*
Y128346D02*
D03*
Y135433D02*
D03*
X101575Y163779D02*
D03*
X108661Y156693D02*
D03*
X101575D02*
D03*
X108661Y142520D02*
D03*
Y149606D02*
D03*
X94488Y156693D02*
D03*
X101575Y149606D02*
D03*
X94488Y163779D02*
D03*
X101575Y142520D02*
D03*
X94488Y149606D02*
D03*
X108661Y135433D02*
D03*
Y128346D02*
D03*
X101575Y135433D02*
D03*
X108661Y114173D02*
D03*
Y121260D02*
D03*
X94488Y135433D02*
D03*
X101575Y128346D02*
D03*
X94488Y142520D02*
D03*
X101575Y121260D02*
D03*
X94488Y128346D02*
D03*
X80315Y163779D02*
D03*
X87401D02*
D03*
X73228D02*
D03*
X87401Y156693D02*
D03*
X80315D02*
D03*
X66142Y163779D02*
D03*
X73228Y156693D02*
D03*
X59055Y163779D02*
D03*
X66142Y156693D02*
D03*
X51968D02*
D03*
X87401Y149606D02*
D03*
Y142520D02*
D03*
X80315Y149606D02*
D03*
X94488Y114173D02*
D03*
Y121260D02*
D03*
X73228Y149606D02*
D03*
X59055Y156693D02*
D03*
X66142Y149606D02*
D03*
X59055D02*
D03*
X108661Y100000D02*
D03*
Y92913D02*
D03*
Y107087D02*
D03*
X101575D02*
D03*
Y100000D02*
D03*
Y114173D02*
D03*
Y92913D02*
D03*
X94488Y100000D02*
D03*
X108661Y85827D02*
D03*
Y78740D02*
D03*
X101575Y85827D02*
D03*
X108661Y71653D02*
D03*
X101575Y64567D02*
D03*
X94488Y85827D02*
D03*
X101575Y78740D02*
D03*
X94488Y92913D02*
D03*
X101575Y71653D02*
D03*
X94488Y64567D02*
D03*
Y107087D02*
D03*
Y78740D02*
D03*
X87401Y85827D02*
D03*
Y71653D02*
D03*
Y78740D02*
D03*
X73228D02*
D03*
X80315D02*
D03*
X59055D02*
D03*
X80315Y71653D02*
D03*
X66142Y78740D02*
D03*
X94488Y71653D02*
D03*
X87401Y64567D02*
D03*
X73228Y71653D02*
D03*
X80315Y64567D02*
D03*
X73228D02*
D03*
X66142Y71653D02*
D03*
X59055D02*
D03*
X66142Y64567D02*
D03*
X59055D02*
D03*
X44882Y163779D02*
D03*
X51968D02*
D03*
X37795D02*
D03*
X44882Y156693D02*
D03*
X37795D02*
D03*
X30709Y163779D02*
D03*
Y156693D02*
D03*
X23622Y163779D02*
D03*
X44882Y149606D02*
D03*
X51968D02*
D03*
X37795D02*
D03*
X30709Y142520D02*
D03*
Y149606D02*
D03*
X23622D02*
D03*
Y128346D02*
D03*
Y156693D02*
D03*
Y114173D02*
D03*
Y121260D02*
D03*
X16535Y156693D02*
D03*
Y149606D02*
D03*
Y163779D02*
D03*
X23622Y135433D02*
D03*
Y142520D02*
D03*
X9449Y156693D02*
D03*
Y149606D02*
D03*
X16535Y142520D02*
D03*
X9449D02*
D03*
X16535Y128346D02*
D03*
Y121260D02*
D03*
Y135433D02*
D03*
X23622Y107087D02*
D03*
X16535Y114173D02*
D03*
X9449Y128346D02*
D03*
Y135433D02*
D03*
Y114173D02*
D03*
Y121260D02*
D03*
X44882Y78740D02*
D03*
X51968D02*
D03*
X30709Y85827D02*
D03*
X51968Y71653D02*
D03*
X37795Y78740D02*
D03*
X23622Y85827D02*
D03*
X30709Y78740D02*
D03*
X23622Y100000D02*
D03*
X44882Y71653D02*
D03*
X51968Y64567D02*
D03*
X37795Y71653D02*
D03*
X44882Y64567D02*
D03*
X37795D02*
D03*
X30709D02*
D03*
Y71653D02*
D03*
X16535Y100000D02*
D03*
X23622Y92913D02*
D03*
X16535Y107087D02*
D03*
Y85827D02*
D03*
Y92913D02*
D03*
X9449Y100000D02*
D03*
Y92913D02*
D03*
Y107087D02*
D03*
X23622Y78740D02*
D03*
Y71653D02*
D03*
X16535Y78740D02*
D03*
X23622Y64567D02*
D03*
X16535D02*
D03*
X9449Y78740D02*
D03*
Y85827D02*
D03*
X16535Y71653D02*
D03*
X9449D02*
D03*
X51968Y114173D02*
D03*
Y121260D02*
D03*
Y107087D02*
D03*
X66142Y121260D02*
D03*
X59055Y114173D02*
D03*
Y121260D02*
D03*
X66142Y107087D02*
D03*
Y114173D02*
D03*
X59055Y107087D02*
D03*
D37*
X103937Y5512D02*
D03*
X100787D02*
D03*
X97638D02*
D03*
X94488D02*
D03*
X91338D02*
D03*
X88189D02*
D03*
X85039D02*
D03*
X81890D02*
D03*
X78740D02*
D03*
X75590D02*
D03*
X72441D02*
D03*
X69291D02*
D03*
X66142D02*
D03*
X62992D02*
D03*
X59842D02*
D03*
X56693D02*
D03*
X53543D02*
D03*
X50394D02*
D03*
X34646D02*
D03*
X31496D02*
D03*
X28346D02*
D03*
X25197D02*
D03*
X22047D02*
D03*
X18898D02*
D03*
X15748D02*
D03*
X12598D02*
D03*
D43*
X11417Y189173D02*
D03*
X106693D02*
D03*
M02*
