G04*
G04 #@! TF.GenerationSoftware,Altium Limited,Altium Designer,22.1.2 (22)*
G04*
G04 Layer_Physical_Order=3*
G04 Layer_Color=16440176*
%FSLAX25Y25*%
%MOIN*%
G70*
G04*
G04 #@! TF.SameCoordinates,3D425B39-A101-4537-954C-310EEB490880*
G04*
G04*
G04 #@! TF.FilePolarity,Positive*
G04*
G01*
G75*
%ADD38C,0.00787*%
%ADD43R,0.20866X0.20866*%
%ADD44C,0.01968*%
G36*
X117107Y13602D02*
X112795D01*
X112771Y13597D01*
X112746Y13601D01*
X112437Y13586D01*
X112365Y13567D01*
X112291D01*
X111685Y13447D01*
X111594Y13409D01*
X111497Y13390D01*
X110926Y13153D01*
X110844Y13099D01*
X110753Y13061D01*
X110240Y12718D01*
X110170Y12648D01*
X110088Y12593D01*
X109651Y12156D01*
X109596Y12074D01*
X109526Y12004D01*
X109183Y11491D01*
X109145Y11400D01*
X109090Y11317D01*
X108854Y10747D01*
X108835Y10650D01*
X108797Y10559D01*
X108677Y9953D01*
Y9879D01*
X108659Y9807D01*
X108643Y9498D01*
X108647Y9473D01*
X108642Y9449D01*
Y1003D01*
X47854D01*
X47854Y12795D01*
X47847Y12828D01*
X47852Y12861D01*
X47826Y13246D01*
X47801Y13342D01*
X47794Y13440D01*
X47595Y14185D01*
X47537Y14303D01*
X47495Y14427D01*
X47109Y15094D01*
X47023Y15193D01*
X46950Y15302D01*
X46405Y15847D01*
X46295Y15920D01*
X46197Y16007D01*
X45529Y16392D01*
X45405Y16434D01*
X45287Y16492D01*
X44543Y16692D01*
X44412Y16701D01*
X44283Y16726D01*
X43512D01*
X43383Y16701D01*
X43252Y16692D01*
X42508Y16492D01*
X42390Y16434D01*
X42266Y16392D01*
X41598Y16007D01*
X41500Y15920D01*
X41390Y15847D01*
X40845Y15302D01*
X40773Y15193D01*
X40686Y15094D01*
X40301Y14427D01*
X40258Y14303D01*
X40200Y14185D01*
X40001Y13440D01*
X39994Y13342D01*
X39969Y13246D01*
X39944Y12861D01*
X39948Y12828D01*
X39941Y12795D01*
Y1003D01*
X9468D01*
Y9449D01*
X9463Y9473D01*
X9467Y9498D01*
X9452Y9807D01*
X9433Y9879D01*
Y9953D01*
X9313Y10559D01*
X9275Y10650D01*
X9256Y10747D01*
X9020Y11317D01*
X8965Y11400D01*
X8927Y11491D01*
X8584Y12004D01*
X8514Y12074D01*
X8459Y12156D01*
X8023Y12593D01*
X7940Y12648D01*
X7870Y12718D01*
X7357Y13061D01*
X7266Y13099D01*
X7184Y13153D01*
X6613Y13390D01*
X6516Y13409D01*
X6425Y13447D01*
X5819Y13567D01*
X5745D01*
X5673Y13586D01*
X5364Y13601D01*
X5339Y13597D01*
X5315Y13602D01*
X1003D01*
Y199587D01*
X117107D01*
Y13602D01*
D02*
G37*
%LPC*%
G36*
X82677Y179803D02*
X82370Y179742D01*
X82109Y179568D01*
X81936Y179307D01*
X81874Y179000D01*
X81936Y178693D01*
X82109Y178432D01*
X82370Y178258D01*
X82677Y178197D01*
X82984Y178258D01*
X83245Y178432D01*
X83419Y178693D01*
X83480Y179000D01*
X83419Y179307D01*
X83245Y179568D01*
X82984Y179742D01*
X82677Y179803D01*
D02*
G37*
G36*
X35433Y185148D02*
X34638Y184990D01*
X33964Y184540D01*
X33514Y183866D01*
X33356Y183071D01*
Y177567D01*
X33374Y177476D01*
X33488Y176317D01*
X33852Y175115D01*
X34445Y174007D01*
X35241Y173037D01*
X36212Y172240D01*
X37320Y171648D01*
X38522Y171283D01*
X39681Y171169D01*
X39772Y171151D01*
X66730D01*
X67228Y171151D01*
X67712Y171111D01*
X68250Y171040D01*
X69201Y170646D01*
X70019Y170019D01*
X70646Y169202D01*
X71040Y168250D01*
X71111Y167712D01*
X71151Y167228D01*
X71151Y167228D01*
X71151Y166733D01*
Y163779D01*
X71309Y162985D01*
X71759Y162311D01*
X72433Y161860D01*
X73228Y161702D01*
X74023Y161860D01*
X74697Y162311D01*
X75147Y162985D01*
X75306Y163779D01*
Y167228D01*
X75304Y167239D01*
X75149Y168804D01*
X74690Y170319D01*
X73944Y171715D01*
X72939Y172939D01*
X71715Y173943D01*
X70319Y174690D01*
X68804Y175149D01*
X67239Y175304D01*
X67228Y175306D01*
X40268D01*
X39772Y175306D01*
X39297Y175366D01*
X38893Y175446D01*
X38149Y175944D01*
X37651Y176689D01*
X37571Y177092D01*
X37510Y177567D01*
X37510Y178063D01*
X37510Y178065D01*
Y183071D01*
X37352Y183866D01*
X36902Y184540D01*
X36228Y184990D01*
X35433Y185148D01*
D02*
G37*
G36*
X91000Y161303D02*
X90693Y161242D01*
X90432Y161068D01*
X90258Y160807D01*
X90197Y160500D01*
X90258Y160193D01*
X90432Y159932D01*
X90693Y159758D01*
X91000Y159697D01*
X91307Y159758D01*
X91568Y159932D01*
X91742Y160193D01*
X91803Y160500D01*
X91742Y160807D01*
X91568Y161068D01*
X91307Y161242D01*
X91000Y161303D01*
D02*
G37*
G36*
X76772Y139779D02*
X76464Y139718D01*
X76204Y139544D01*
X76030Y139284D01*
X75969Y138976D01*
X76030Y138669D01*
X76204Y138409D01*
X76464Y138235D01*
X76772Y138173D01*
X77079Y138235D01*
X77339Y138409D01*
X77513Y138669D01*
X77574Y138976D01*
X77513Y139284D01*
X77339Y139544D01*
X77079Y139718D01*
X76772Y139779D01*
D02*
G37*
G36*
X12992Y147468D02*
X12455Y147361D01*
X11999Y147056D01*
X11694Y146600D01*
X11587Y146063D01*
X11694Y145525D01*
X11999Y145070D01*
X12455Y144765D01*
X12992Y144658D01*
X13217Y144703D01*
X18922Y138998D01*
Y134836D01*
X18460Y134644D01*
X14352Y138751D01*
X14397Y138976D01*
X14290Y139514D01*
X13986Y139970D01*
X13530Y140274D01*
X12992Y140381D01*
X12455Y140274D01*
X11999Y139970D01*
X11694Y139514D01*
X11587Y138976D01*
X11694Y138439D01*
X11999Y137983D01*
X12455Y137678D01*
X12992Y137571D01*
X13217Y137616D01*
X17740Y133093D01*
Y128930D01*
X17278Y128739D01*
X14352Y131665D01*
X14397Y131890D01*
X14290Y132427D01*
X13986Y132883D01*
X13530Y133188D01*
X12992Y133295D01*
X12455Y133188D01*
X11999Y132883D01*
X11694Y132427D01*
X11587Y131890D01*
X11694Y131352D01*
X11999Y130896D01*
X12455Y130592D01*
X12992Y130485D01*
X13217Y130529D01*
X16559Y127187D01*
Y123024D01*
X16097Y122833D01*
X14352Y124578D01*
X14397Y124803D01*
X14290Y125341D01*
X13986Y125796D01*
X13530Y126101D01*
X12992Y126208D01*
X12455Y126101D01*
X11999Y125796D01*
X11694Y125341D01*
X11587Y124803D01*
X11694Y124265D01*
X11999Y123810D01*
X12455Y123505D01*
X12992Y123398D01*
X13217Y123443D01*
X15378Y121282D01*
Y117119D01*
X14916Y116928D01*
X14352Y117492D01*
X14397Y117717D01*
X14290Y118254D01*
X13986Y118710D01*
X13530Y119015D01*
X12992Y119121D01*
X12455Y119015D01*
X11999Y118710D01*
X11694Y118254D01*
X11587Y117717D01*
X11694Y117179D01*
X11999Y116723D01*
X12455Y116419D01*
X12992Y116312D01*
X13217Y116356D01*
X14197Y115376D01*
Y89148D01*
X14258Y88841D01*
X14432Y88581D01*
X18748Y84265D01*
X18557Y83803D01*
X8333D01*
X6708Y85427D01*
Y90611D01*
X6899Y90739D01*
X7203Y91195D01*
X7310Y91732D01*
X7203Y92270D01*
X6899Y92726D01*
X6443Y93030D01*
X5906Y93137D01*
X5368Y93030D01*
X4912Y92726D01*
X4608Y92270D01*
X4501Y91732D01*
X4608Y91195D01*
X4912Y90739D01*
X5103Y90611D01*
Y85094D01*
X5164Y84787D01*
X5338Y84527D01*
X6638Y83226D01*
X6590Y83118D01*
X6344Y82814D01*
X5906Y82901D01*
X5368Y82794D01*
X4912Y82490D01*
X4608Y82034D01*
X4501Y81496D01*
X4608Y80958D01*
X4912Y80503D01*
X5368Y80198D01*
X5906Y80091D01*
X6443Y80198D01*
X6899Y80503D01*
X7026Y80693D01*
X18671D01*
X24697Y74667D01*
Y69776D01*
X24758Y69468D01*
X24932Y69208D01*
X25805Y68335D01*
X25760Y68110D01*
X25867Y67573D01*
X26172Y67117D01*
X26628Y66812D01*
X27165Y66705D01*
X27390Y66750D01*
X28208Y65932D01*
X28468Y65758D01*
X28776Y65697D01*
X28776Y65697D01*
X32667D01*
X35940Y62424D01*
X35940Y62424D01*
X36201Y62250D01*
X36508Y62189D01*
X36508Y62189D01*
X61230D01*
X61422Y61727D01*
X60751Y61057D01*
X60577Y60796D01*
X60516Y60489D01*
Y56832D01*
X58620Y54937D01*
X51515D01*
X51387Y55127D01*
X50931Y55432D01*
X50394Y55539D01*
X49856Y55432D01*
X49400Y55127D01*
X49096Y54672D01*
X48989Y54134D01*
X49096Y53596D01*
X49400Y53140D01*
X49856Y52836D01*
X50394Y52729D01*
X50931Y52836D01*
X51387Y53140D01*
X51515Y53331D01*
X58953D01*
X59260Y53392D01*
X59521Y53566D01*
X61235Y55281D01*
X61697Y55090D01*
Y42592D01*
X61235Y42400D01*
X58568Y45068D01*
X58307Y45242D01*
X58000Y45303D01*
X31121D01*
X30994Y45494D01*
X30538Y45798D01*
X30000Y45905D01*
X29462Y45798D01*
X29006Y45494D01*
X28702Y45038D01*
X28595Y44500D01*
X28702Y43962D01*
X29006Y43507D01*
X29462Y43202D01*
X30000Y43095D01*
X30538Y43202D01*
X30994Y43507D01*
X31121Y43697D01*
X57667D01*
X60516Y40849D01*
Y36181D01*
X60577Y35874D01*
X60751Y35613D01*
X65928Y30436D01*
X65928Y30436D01*
X66189Y30262D01*
X66496Y30201D01*
X67186D01*
X67314Y30011D01*
X67232Y29530D01*
X66961Y29248D01*
X56445D01*
X56138Y29187D01*
X55877Y29013D01*
X55877Y29013D01*
X54421Y27556D01*
X54032Y27875D01*
X54054Y27907D01*
X54161Y28445D01*
X54054Y28982D01*
X53749Y29438D01*
X53695Y29474D01*
Y29974D01*
X53749Y30011D01*
X54054Y30466D01*
X54161Y31004D01*
X54054Y31542D01*
X53749Y31997D01*
X53695Y32034D01*
Y32533D01*
X53749Y32570D01*
X54054Y33025D01*
X54161Y33563D01*
X54054Y34101D01*
X53749Y34556D01*
X53294Y34861D01*
X53154Y34889D01*
X53089Y35241D01*
X53105Y35408D01*
X53324Y35554D01*
X53498Y35815D01*
X53559Y36122D01*
X53498Y36429D01*
X53324Y36690D01*
X53063Y36864D01*
X52756Y36925D01*
X52449Y36864D01*
X52188Y36690D01*
X52014Y36429D01*
X51953Y36122D01*
X52014Y35815D01*
X52188Y35554D01*
X52407Y35408D01*
X52423Y35241D01*
X52357Y34889D01*
X52218Y34861D01*
X51762Y34556D01*
X51602Y34317D01*
X30615D01*
X30521Y34458D01*
X30065Y34763D01*
X29528Y34870D01*
X28990Y34763D01*
X28534Y34458D01*
X28230Y34002D01*
X28123Y33465D01*
X28230Y32927D01*
X28534Y32471D01*
X28990Y32167D01*
X29528Y32060D01*
X30065Y32167D01*
X30489Y32450D01*
X30542Y32467D01*
X30613Y32455D01*
X30783Y31918D01*
X29752Y30888D01*
X29528Y30933D01*
X28990Y30826D01*
X28534Y30521D01*
X28230Y30065D01*
X28123Y29528D01*
X28230Y28990D01*
X28534Y28534D01*
X28990Y28230D01*
X29528Y28123D01*
X30065Y28230D01*
X30109Y28259D01*
X30548Y28173D01*
X30692Y28047D01*
X30681Y27879D01*
X29752Y26951D01*
X29528Y26996D01*
X28990Y26889D01*
X28534Y26584D01*
X28230Y26128D01*
X28123Y25591D01*
X28230Y25053D01*
X28534Y24597D01*
X28990Y24293D01*
X29528Y24186D01*
X30065Y24293D01*
X30521Y24597D01*
X30826Y25053D01*
X30933Y25591D01*
X30888Y25815D01*
X32333Y27261D01*
X32333Y27261D01*
X32507Y27521D01*
X32568Y27828D01*
Y29762D01*
X33154Y30349D01*
X48016D01*
X50487Y27877D01*
X50487Y27877D01*
X50748Y27703D01*
X51055Y27642D01*
X51055Y27642D01*
X51635D01*
X51762Y27451D01*
X51985Y27303D01*
X51833Y26803D01*
X38000D01*
X37693Y26742D01*
X37432Y26568D01*
X34590Y23725D01*
X34416Y23465D01*
X34355Y23157D01*
Y20530D01*
X34164Y20403D01*
X33860Y19947D01*
X33753Y19410D01*
X33860Y18872D01*
X34164Y18416D01*
X34620Y18111D01*
X35157Y18004D01*
X35695Y18111D01*
X36151Y18416D01*
X36456Y18872D01*
X36562Y19410D01*
X36456Y19947D01*
X36151Y20403D01*
X35960Y20530D01*
Y22825D01*
X38333Y25197D01*
X54000D01*
X54307Y25258D01*
X54568Y25432D01*
X56777Y27642D01*
X67186D01*
X67314Y27451D01*
X67769Y27147D01*
X68307Y27040D01*
X68845Y27147D01*
X69301Y27451D01*
X69605Y27907D01*
X69712Y28445D01*
X69605Y28982D01*
X69301Y29438D01*
X69382Y29918D01*
X69653Y30201D01*
X73004D01*
X73311Y30262D01*
X73572Y30436D01*
X75068Y31932D01*
X75068Y31932D01*
X75242Y32193D01*
X75303Y32500D01*
Y50168D01*
X77437Y52302D01*
X77937Y52095D01*
Y50333D01*
X77747Y50206D01*
X77442Y49750D01*
X77335Y49213D01*
X77442Y48675D01*
X77747Y48219D01*
X78202Y47915D01*
X78740Y47808D01*
X79278Y47915D01*
X79734Y48219D01*
X80038Y48675D01*
X80145Y49213D01*
X80038Y49750D01*
X79734Y50206D01*
X79543Y50333D01*
Y52408D01*
X82832Y55697D01*
X89041D01*
X89309Y55197D01*
X89202Y55038D01*
X89095Y54500D01*
X89202Y53962D01*
X89507Y53507D01*
X89962Y53202D01*
X90500Y53095D01*
X91038Y53202D01*
X91493Y53507D01*
X91621Y53697D01*
X105500D01*
X105807Y53758D01*
X106068Y53932D01*
X109721Y57585D01*
X110221Y57378D01*
Y42120D01*
X108274Y40173D01*
X107322D01*
X107194Y40363D01*
X106738Y40668D01*
X106201Y40775D01*
X105663Y40668D01*
X105207Y40363D01*
X104903Y39908D01*
X104796Y39370D01*
X104903Y38832D01*
X105207Y38377D01*
X105663Y38072D01*
X106201Y37965D01*
X106738Y38072D01*
X107194Y38377D01*
X107322Y38567D01*
X108606D01*
X108914Y38628D01*
X109174Y38802D01*
X110940Y40568D01*
X111402Y40377D01*
Y34037D01*
X109663Y32299D01*
X107322D01*
X107194Y32489D01*
X106738Y32794D01*
X106201Y32901D01*
X105663Y32794D01*
X105207Y32489D01*
X104903Y32034D01*
X104796Y31496D01*
X104903Y30958D01*
X105207Y30503D01*
X105663Y30198D01*
X106201Y30091D01*
X106738Y30198D01*
X107194Y30503D01*
X107322Y30693D01*
X109996D01*
X110303Y30754D01*
X110564Y30928D01*
X112772Y33137D01*
X112772Y33137D01*
X112946Y33397D01*
X113007Y33705D01*
X113007Y33705D01*
Y74076D01*
X113198Y74203D01*
X113503Y74659D01*
X113610Y75197D01*
X113503Y75735D01*
X113198Y76190D01*
X112742Y76495D01*
X112205Y76602D01*
X111667Y76495D01*
X111211Y76190D01*
X110907Y75735D01*
X110843Y75415D01*
X110376Y75153D01*
X110319Y75147D01*
X110303Y75156D01*
Y86333D01*
X111980Y88010D01*
X112205Y87965D01*
X112742Y88072D01*
X113198Y88377D01*
X113503Y88832D01*
X113610Y89370D01*
X113503Y89908D01*
X113198Y90364D01*
X112742Y90668D01*
X112205Y90775D01*
X111667Y90668D01*
X111211Y90364D01*
X110907Y89908D01*
X110800Y89370D01*
X110845Y89145D01*
X109584Y87884D01*
X109122Y88076D01*
Y91181D01*
X109061Y91488D01*
X108887Y91749D01*
X99303Y101333D01*
Y114667D01*
X101549Y116914D01*
X103997D01*
X104125Y116723D01*
X104580Y116419D01*
X105118Y116312D01*
X105656Y116419D01*
X106112Y116723D01*
X106416Y117179D01*
X106523Y117717D01*
X106416Y118254D01*
X106112Y118710D01*
X105656Y119015D01*
X105118Y119122D01*
X104580Y119015D01*
X104125Y118710D01*
X103997Y118519D01*
X101216D01*
X100909Y118458D01*
X100649Y118284D01*
X97932Y115568D01*
X97758Y115307D01*
X97697Y115000D01*
Y101000D01*
X97736Y100803D01*
X97540Y100443D01*
X97417Y100303D01*
X92333D01*
X91748Y100888D01*
Y102422D01*
X91938Y102550D01*
X92243Y103006D01*
X92350Y103543D01*
X92243Y104081D01*
X91938Y104537D01*
X91482Y104841D01*
X90945Y104948D01*
X90407Y104841D01*
X89951Y104537D01*
X89647Y104081D01*
X89540Y103543D01*
X89647Y103006D01*
X89951Y102550D01*
X90142Y102422D01*
Y100555D01*
X90203Y100248D01*
X90377Y99988D01*
X91432Y98932D01*
X91432Y98932D01*
X91693Y98758D01*
X92000Y98697D01*
X92000Y98697D01*
X97997D01*
X105482Y91212D01*
X105236Y90752D01*
X105118Y90775D01*
X104580Y90668D01*
X104125Y90364D01*
X103820Y89908D01*
X103713Y89370D01*
X103820Y88832D01*
X104125Y88377D01*
X104315Y88249D01*
Y86839D01*
X104376Y86532D01*
X104550Y86271D01*
X105154Y85668D01*
Y72939D01*
X105215Y72632D01*
X105389Y72371D01*
X106335Y71425D01*
Y69556D01*
X105835Y69288D01*
X105656Y69408D01*
X105118Y69515D01*
X104580Y69408D01*
X104125Y69104D01*
X103820Y68648D01*
X103713Y68110D01*
X103758Y67885D01*
X99813Y63941D01*
X95651D01*
X95459Y64403D01*
X97807Y66750D01*
X98032Y66705D01*
X98569Y66812D01*
X99025Y67117D01*
X99330Y67573D01*
X99436Y68110D01*
X99330Y68648D01*
X99025Y69104D01*
X98569Y69408D01*
X98032Y69515D01*
X97494Y69408D01*
X97038Y69104D01*
X96733Y68648D01*
X96627Y68110D01*
X96671Y67885D01*
X93908Y65122D01*
X89745D01*
X89554Y65584D01*
X90720Y66750D01*
X90945Y66705D01*
X91483Y66812D01*
X91938Y67117D01*
X92243Y67573D01*
X92350Y68110D01*
X92243Y68648D01*
X91938Y69104D01*
X91483Y69408D01*
X90945Y69515D01*
X90407Y69408D01*
X89951Y69104D01*
X89647Y68648D01*
X89540Y68110D01*
X89585Y67885D01*
X88002Y66303D01*
X77311D01*
X77262Y66803D01*
X77309Y66812D01*
X77765Y67117D01*
X78070Y67573D01*
X78177Y68110D01*
X78070Y68648D01*
X77765Y69104D01*
X77309Y69408D01*
X76986Y69473D01*
X76797Y69991D01*
X79568Y72762D01*
X79568Y72762D01*
X79742Y73023D01*
X79803Y73330D01*
X79803Y73330D01*
Y80500D01*
X79803Y80500D01*
X79742Y80807D01*
X79568Y81068D01*
X74754Y85882D01*
X74493Y86056D01*
X74186Y86117D01*
X27519D01*
X21708Y91927D01*
Y111124D01*
X26941Y116356D01*
X27165Y116312D01*
X27703Y116419D01*
X28159Y116723D01*
X28463Y117179D01*
X28570Y117717D01*
X28463Y118254D01*
X28159Y118710D01*
X27703Y119015D01*
X27165Y119122D01*
X26628Y119015D01*
X26172Y118710D01*
X25867Y118254D01*
X25760Y117717D01*
X25805Y117492D01*
X20989Y112676D01*
X20527Y112867D01*
Y139331D01*
X20527Y139331D01*
X20466Y139638D01*
X20292Y139898D01*
X20292Y139898D01*
X14352Y145838D01*
X14397Y146063D01*
X14290Y146600D01*
X13986Y147056D01*
X13530Y147361D01*
X12992Y147468D01*
D02*
G37*
G36*
X83858Y125606D02*
X83551Y125545D01*
X83290Y125371D01*
X83117Y125110D01*
X83055Y124803D01*
X83117Y124496D01*
X83290Y124235D01*
X83551Y124061D01*
X83858Y124000D01*
X84165Y124061D01*
X84426Y124235D01*
X84600Y124496D01*
X84661Y124803D01*
X84600Y125110D01*
X84426Y125371D01*
X84165Y125545D01*
X83858Y125606D01*
D02*
G37*
G36*
X88583Y191054D02*
X76772D01*
X75977Y190896D01*
X75303Y190445D01*
X74853Y189771D01*
X74694Y188976D01*
X74853Y188181D01*
X75303Y187507D01*
X75977Y187057D01*
X76772Y186899D01*
X86505D01*
Y180417D01*
X86502D01*
X86675Y178662D01*
X87187Y176974D01*
X88018Y175418D01*
X89137Y174055D01*
X90501Y172936D01*
X92057Y172104D01*
X93745Y171592D01*
X95500Y171419D01*
Y171423D01*
X102000D01*
X102127Y171448D01*
X103943Y171269D01*
X105812Y170702D01*
X107534Y169782D01*
X109043Y168543D01*
X110282Y167034D01*
X111202Y165312D01*
X111769Y163443D01*
X111912Y161995D01*
X111923Y161500D01*
X111923Y161500D01*
X111923Y161006D01*
Y111498D01*
X111923Y111000D01*
X111855Y110528D01*
X111807Y110287D01*
X111403Y109684D01*
X110799Y109280D01*
X110112Y109143D01*
X110087Y109164D01*
Y109164D01*
X109292Y109006D01*
X108618Y108555D01*
X108167Y107882D01*
X108009Y107087D01*
X108167Y106292D01*
X108618Y105618D01*
X109292Y105167D01*
X110087Y105009D01*
Y105020D01*
X111253Y105135D01*
X112375Y105476D01*
X113409Y106028D01*
X114315Y106772D01*
X115058Y107678D01*
X115611Y108712D01*
X115951Y109833D01*
X116055Y110889D01*
X116077Y111000D01*
Y161500D01*
X116081D01*
X115907Y163703D01*
X115392Y165851D01*
X114546Y167893D01*
X113392Y169776D01*
X111957Y171457D01*
X110276Y172892D01*
X108393Y174046D01*
X106351Y174892D01*
X104203Y175407D01*
X102000Y175581D01*
Y175577D01*
X95500D01*
X95404Y175558D01*
X94239Y175712D01*
X93064Y176198D01*
X92055Y176973D01*
X91281Y177981D01*
X90794Y179156D01*
X90641Y180322D01*
X90660Y180417D01*
Y188976D01*
X90502Y189771D01*
X90052Y190445D01*
X89378Y190896D01*
X88583Y191054D01*
D02*
G37*
G36*
X112205Y100051D02*
X111898Y99990D01*
X111637Y99816D01*
X111463Y99555D01*
X111402Y99248D01*
X111463Y98941D01*
X111637Y98680D01*
X111898Y98506D01*
X112205Y98445D01*
X112512Y98506D01*
X112772Y98680D01*
X112946Y98941D01*
X113007Y99248D01*
X112946Y99555D01*
X112772Y99816D01*
X112512Y99990D01*
X112205Y100051D01*
D02*
G37*
G36*
Y84303D02*
X111898Y84242D01*
X111637Y84068D01*
X111463Y83807D01*
X111402Y83500D01*
X111463Y83193D01*
X111637Y82932D01*
X111898Y82758D01*
X112205Y82697D01*
X112512Y82758D01*
X112772Y82932D01*
X112946Y83193D01*
X113007Y83500D01*
X112946Y83807D01*
X112772Y84068D01*
X112512Y84242D01*
X112205Y84303D01*
D02*
G37*
G36*
X12992Y76000D02*
X12685Y75938D01*
X12424Y75765D01*
X12250Y75504D01*
X12189Y75197D01*
X12250Y74890D01*
X12424Y74629D01*
X12685Y74455D01*
X12992Y74394D01*
X13299Y74455D01*
X13560Y74629D01*
X13734Y74890D01*
X13795Y75197D01*
X13734Y75504D01*
X13560Y75765D01*
X13299Y75938D01*
X12992Y76000D01*
D02*
G37*
G36*
X9000Y70803D02*
X8693Y70742D01*
X8432Y70568D01*
X8432Y70568D01*
X4932Y67068D01*
X4758Y66807D01*
X4697Y66500D01*
Y24330D01*
Y20830D01*
X4758Y20523D01*
X4932Y20262D01*
X14345Y10850D01*
X14345Y10850D01*
X14605Y10676D01*
X14912Y10615D01*
X14912Y10615D01*
X26296D01*
X26651Y10259D01*
X26651Y10259D01*
X26912Y10085D01*
X27219Y10024D01*
X30118D01*
X30425Y10085D01*
X30686Y10259D01*
X31665Y11238D01*
X31890Y11193D01*
X32427Y11300D01*
X32883Y11605D01*
X33188Y12061D01*
X33295Y12598D01*
X33188Y13136D01*
X32883Y13592D01*
X32427Y13896D01*
X31890Y14003D01*
X31352Y13896D01*
X30896Y13592D01*
X30592Y13136D01*
X30485Y12598D01*
X30529Y12374D01*
X29931Y11775D01*
X29600Y11800D01*
X29287Y12242D01*
X29358Y12598D01*
X29251Y13136D01*
X28946Y13592D01*
X28490Y13896D01*
X27953Y14003D01*
X27415Y13896D01*
X26959Y13592D01*
X26832Y13401D01*
X15734D01*
X7484Y21652D01*
Y65678D01*
X9113Y67307D01*
X11871D01*
X11999Y67117D01*
X12455Y66812D01*
X12992Y66705D01*
X13530Y66812D01*
X13986Y67117D01*
X14290Y67573D01*
X14397Y68110D01*
X14290Y68648D01*
X14257Y68697D01*
X14525Y69197D01*
X17856D01*
X18719Y68335D01*
X18674Y68110D01*
X18781Y67573D01*
X19085Y67117D01*
X19541Y66812D01*
X20079Y66705D01*
X20616Y66812D01*
X21072Y67117D01*
X21377Y67573D01*
X21484Y68110D01*
X21377Y68648D01*
X21072Y69104D01*
X20616Y69408D01*
X20079Y69515D01*
X19854Y69471D01*
X18757Y70568D01*
X18496Y70742D01*
X18189Y70803D01*
X9000D01*
X9000Y70803D01*
D02*
G37*
G36*
X29854Y58126D02*
X29547Y58065D01*
X29287Y57890D01*
X29113Y57630D01*
X29052Y57323D01*
X29113Y57016D01*
X29287Y56755D01*
X29547Y56581D01*
X29854Y56520D01*
X30162Y56581D01*
X30422Y56755D01*
X30596Y57016D01*
X30657Y57323D01*
X30596Y57630D01*
X30422Y57890D01*
X30162Y58065D01*
X29854Y58126D01*
D02*
G37*
G36*
X25315Y55640D02*
X25008Y55579D01*
X24747Y55405D01*
X24573Y55145D01*
X24512Y54838D01*
X24573Y54530D01*
X24747Y54270D01*
X25008Y54096D01*
X25315Y54035D01*
X25622Y54096D01*
X25883Y54270D01*
X26057Y54530D01*
X26118Y54838D01*
X26057Y55145D01*
X25883Y55405D01*
X25622Y55579D01*
X25315Y55640D01*
D02*
G37*
G36*
X88779Y45303D02*
X88472Y45242D01*
X88212Y45068D01*
X88038Y44807D01*
X87977Y44500D01*
X88038Y44193D01*
X88212Y43932D01*
X88472Y43758D01*
X88779Y43697D01*
X89087Y43758D01*
X89347Y43932D01*
X89521Y44193D01*
X89582Y44500D01*
X89521Y44807D01*
X89347Y45068D01*
X89087Y45242D01*
X88779Y45303D01*
D02*
G37*
G36*
X85000Y41803D02*
X84693Y41742D01*
X84432Y41568D01*
X84258Y41307D01*
X84197Y41000D01*
X84258Y40693D01*
X84432Y40432D01*
X84693Y40258D01*
X85000Y40197D01*
X85307Y40258D01*
X85568Y40432D01*
X85742Y40693D01*
X85803Y41000D01*
X85742Y41307D01*
X85568Y41568D01*
X85307Y41742D01*
X85000Y41803D01*
D02*
G37*
G36*
X57323Y40173D02*
X57016Y40112D01*
X56755Y39938D01*
X56581Y39677D01*
X56520Y39370D01*
X56581Y39063D01*
X56755Y38802D01*
X57016Y38628D01*
X57323Y38567D01*
X57630Y38628D01*
X57890Y38802D01*
X58065Y39063D01*
X58126Y39370D01*
X58065Y39677D01*
X57890Y39938D01*
X57630Y40112D01*
X57323Y40173D01*
D02*
G37*
G36*
X52756Y39484D02*
X52449Y39423D01*
X52188Y39249D01*
X52014Y38988D01*
X51953Y38681D01*
X52014Y38374D01*
X52188Y38113D01*
X52449Y37939D01*
X52756Y37878D01*
X53063Y37939D01*
X53324Y38113D01*
X53498Y38374D01*
X53559Y38681D01*
X53498Y38988D01*
X53324Y39249D01*
X53063Y39423D01*
X52756Y39484D01*
D02*
G37*
G36*
X85016Y33944D02*
X84708Y33883D01*
X84448Y33709D01*
X84274Y33449D01*
X84213Y33142D01*
X84274Y32835D01*
X84448Y32574D01*
X84708Y32400D01*
X85016Y32339D01*
X85323Y32400D01*
X85583Y32574D01*
X85757Y32835D01*
X85819Y33142D01*
X85757Y33449D01*
X85583Y33709D01*
X85323Y33883D01*
X85016Y33944D01*
D02*
G37*
G36*
X10020Y42744D02*
X9482Y42637D01*
X9026Y42332D01*
X8722Y41876D01*
X8615Y41339D01*
X8722Y40801D01*
X9026Y40345D01*
X9482Y40041D01*
X10020Y39934D01*
X10557Y40041D01*
X11013Y40345D01*
X11141Y40536D01*
X18829D01*
X20851Y38514D01*
Y33700D01*
X20660Y33572D01*
X20356Y33116D01*
X20249Y32579D01*
X20356Y32041D01*
X20660Y31585D01*
X21116Y31281D01*
X21654Y31174D01*
X22191Y31281D01*
X22647Y31585D01*
X22952Y32041D01*
X23058Y32579D01*
X22952Y33116D01*
X22647Y33572D01*
X22456Y33700D01*
Y38846D01*
X22395Y39154D01*
X22221Y39414D01*
X22221Y39414D01*
X19729Y41906D01*
X19469Y42080D01*
X19161Y42141D01*
X11141D01*
X11013Y42332D01*
X10557Y42637D01*
X10020Y42744D01*
D02*
G37*
G36*
X13780Y32299D02*
X13472Y32238D01*
X13212Y32064D01*
X13038Y31803D01*
X12977Y31496D01*
X13038Y31189D01*
X13212Y30928D01*
X13472Y30754D01*
X13780Y30693D01*
X14087Y30754D01*
X14347Y30928D01*
X14521Y31189D01*
X14582Y31496D01*
X14521Y31803D01*
X14347Y32064D01*
X14087Y32238D01*
X13780Y32299D01*
D02*
G37*
G36*
X25315Y30330D02*
X25008Y30269D01*
X24747Y30095D01*
X24573Y29835D01*
X24512Y29528D01*
X24573Y29220D01*
X24747Y28960D01*
X25008Y28786D01*
X25315Y28725D01*
X25622Y28786D01*
X25883Y28960D01*
X26057Y29220D01*
X26118Y29528D01*
X26057Y29835D01*
X25883Y30095D01*
X25622Y30269D01*
X25315Y30330D01*
D02*
G37*
G36*
X85016Y26070D02*
X84708Y26009D01*
X84448Y25835D01*
X84274Y25575D01*
X84213Y25268D01*
X84274Y24961D01*
X84448Y24700D01*
X84708Y24526D01*
X85016Y24465D01*
X85323Y24526D01*
X85583Y24700D01*
X85757Y24961D01*
X85819Y25268D01*
X85757Y25575D01*
X85583Y25835D01*
X85323Y26009D01*
X85016Y26070D01*
D02*
G37*
G36*
X106201Y24425D02*
X105894Y24364D01*
X105633Y24190D01*
X105459Y23929D01*
X105398Y23622D01*
X105459Y23315D01*
X105633Y23054D01*
X105894Y22880D01*
X106201Y22819D01*
X106508Y22880D01*
X106769Y23054D01*
X106942Y23315D01*
X107004Y23622D01*
X106942Y23929D01*
X106769Y24190D01*
X106508Y24364D01*
X106201Y24425D01*
D02*
G37*
G36*
X68307Y24130D02*
X68000Y24069D01*
X67739Y23895D01*
X67565Y23634D01*
X67504Y23327D01*
X67565Y23020D01*
X67739Y22759D01*
X68000Y22585D01*
X68307Y22524D01*
X68614Y22585D01*
X68875Y22759D01*
X69049Y23020D01*
X69110Y23327D01*
X69049Y23634D01*
X68875Y23895D01*
X68614Y24069D01*
X68307Y24130D01*
D02*
G37*
G36*
X52756D02*
X52449Y24069D01*
X52188Y23895D01*
X52014Y23634D01*
X51953Y23327D01*
X52014Y23020D01*
X52188Y22759D01*
X52449Y22585D01*
X52756Y22524D01*
X53063Y22585D01*
X53324Y22759D01*
X53498Y23020D01*
X53559Y23327D01*
X53498Y23634D01*
X53324Y23895D01*
X53063Y24069D01*
X52756Y24130D01*
D02*
G37*
G36*
X86614Y16551D02*
X86307Y16490D01*
X86046Y16316D01*
X85872Y16055D01*
X85811Y15748D01*
X85872Y15441D01*
X86046Y15180D01*
X86307Y15006D01*
X86614Y14945D01*
X86921Y15006D01*
X87182Y15180D01*
X87356Y15441D01*
X87417Y15748D01*
X87356Y16055D01*
X87182Y16316D01*
X86921Y16490D01*
X86614Y16551D01*
D02*
G37*
G36*
X80315D02*
X80008Y16490D01*
X79747Y16316D01*
X79573Y16055D01*
X79512Y15748D01*
X79573Y15441D01*
X79747Y15180D01*
X80008Y15006D01*
X80315Y14945D01*
X80622Y15006D01*
X80883Y15180D01*
X81057Y15441D01*
X81118Y15748D01*
X81057Y16055D01*
X80883Y16316D01*
X80622Y16490D01*
X80315Y16551D01*
D02*
G37*
G36*
X77165D02*
X76858Y16490D01*
X76598Y16316D01*
X76424Y16055D01*
X76363Y15748D01*
X76424Y15441D01*
X76598Y15180D01*
X76858Y15006D01*
X77165Y14945D01*
X77473Y15006D01*
X77733Y15180D01*
X77907Y15441D01*
X77968Y15748D01*
X77907Y16055D01*
X77733Y16316D01*
X77473Y16490D01*
X77165Y16551D01*
D02*
G37*
G36*
X74016D02*
X73708Y16490D01*
X73448Y16316D01*
X73274Y16055D01*
X73213Y15748D01*
X73274Y15441D01*
X73448Y15180D01*
X73708Y15006D01*
X74016Y14945D01*
X74323Y15006D01*
X74583Y15180D01*
X74757Y15441D01*
X74818Y15748D01*
X74757Y16055D01*
X74583Y16316D01*
X74323Y16490D01*
X74016Y16551D01*
D02*
G37*
G36*
X70866D02*
X70559Y16490D01*
X70298Y16316D01*
X70124Y16055D01*
X70063Y15748D01*
X70124Y15441D01*
X70298Y15180D01*
X70559Y15006D01*
X70866Y14945D01*
X71173Y15006D01*
X71434Y15180D01*
X71608Y15441D01*
X71669Y15748D01*
X71608Y16055D01*
X71434Y16316D01*
X71173Y16490D01*
X70866Y16551D01*
D02*
G37*
G36*
X67716D02*
X67409Y16490D01*
X67149Y16316D01*
X66975Y16055D01*
X66914Y15748D01*
X66975Y15441D01*
X67149Y15180D01*
X67409Y15006D01*
X67716Y14945D01*
X68024Y15006D01*
X68284Y15180D01*
X68458Y15441D01*
X68519Y15748D01*
X68458Y16055D01*
X68284Y16316D01*
X68024Y16490D01*
X67716Y16551D01*
D02*
G37*
G36*
X64567D02*
X64260Y16490D01*
X63999Y16316D01*
X63825Y16055D01*
X63764Y15748D01*
X63825Y15441D01*
X63999Y15180D01*
X64260Y15006D01*
X64567Y14945D01*
X64874Y15006D01*
X65135Y15180D01*
X65309Y15441D01*
X65370Y15748D01*
X65309Y16055D01*
X65135Y16316D01*
X64874Y16490D01*
X64567Y16551D01*
D02*
G37*
G36*
X58268D02*
X57960Y16490D01*
X57700Y16316D01*
X57526Y16055D01*
X57465Y15748D01*
X57526Y15441D01*
X57700Y15180D01*
X57960Y15006D01*
X58268Y14945D01*
X58575Y15006D01*
X58835Y15180D01*
X59009Y15441D01*
X59070Y15748D01*
X59009Y16055D01*
X58835Y16316D01*
X58575Y16490D01*
X58268Y16551D01*
D02*
G37*
G36*
X55118D02*
X54811Y16490D01*
X54550Y16316D01*
X54376Y16055D01*
X54315Y15748D01*
X54376Y15441D01*
X54550Y15180D01*
X54811Y15006D01*
X55118Y14945D01*
X55425Y15006D01*
X55686Y15180D01*
X55860Y15441D01*
X55921Y15748D01*
X55860Y16055D01*
X55686Y16316D01*
X55425Y16490D01*
X55118Y16551D01*
D02*
G37*
G36*
X29921D02*
X29614Y16490D01*
X29353Y16316D01*
X29179Y16055D01*
X29118Y15748D01*
X29179Y15441D01*
X29353Y15180D01*
X29614Y15006D01*
X29921Y14945D01*
X30228Y15006D01*
X30489Y15180D01*
X30663Y15441D01*
X30724Y15748D01*
X30663Y16055D01*
X30489Y16316D01*
X30228Y16490D01*
X29921Y16551D01*
D02*
G37*
G36*
X26772D02*
X26464Y16490D01*
X26204Y16316D01*
X26030Y16055D01*
X25969Y15748D01*
X26030Y15441D01*
X26204Y15180D01*
X26464Y15006D01*
X26772Y14945D01*
X27079Y15006D01*
X27339Y15180D01*
X27513Y15441D01*
X27574Y15748D01*
X27513Y16055D01*
X27339Y16316D01*
X27079Y16490D01*
X26772Y16551D01*
D02*
G37*
G36*
X17324D02*
X17017Y16490D01*
X16757Y16316D01*
X16583Y16055D01*
X16522Y15748D01*
X16583Y15441D01*
X16757Y15180D01*
X17017Y15006D01*
X17324Y14945D01*
X17631Y15006D01*
X17892Y15180D01*
X18066Y15441D01*
X18127Y15748D01*
X18066Y16055D01*
X17892Y16316D01*
X17631Y16490D01*
X17324Y16551D01*
D02*
G37*
%LPD*%
G36*
X78197Y80168D02*
Y76444D01*
X77974Y76313D01*
X77697Y76236D01*
X77309Y76495D01*
X76772Y76602D01*
X76234Y76495D01*
X75778Y76190D01*
X75474Y75735D01*
X75367Y75197D01*
X75474Y74659D01*
X75778Y74203D01*
X75969Y74076D01*
Y73104D01*
X73167Y70303D01*
X68500D01*
X68500Y70303D01*
X68193Y70242D01*
X67932Y70068D01*
X61660Y63795D01*
X60072D01*
X59880Y64257D01*
X62374Y66750D01*
X62598Y66705D01*
X63136Y66812D01*
X63592Y67117D01*
X63896Y67573D01*
X64003Y68110D01*
X63896Y68648D01*
X63592Y69104D01*
X63136Y69408D01*
X62598Y69515D01*
X62061Y69408D01*
X61605Y69104D01*
X61300Y68648D01*
X61193Y68110D01*
X61238Y67885D01*
X58329Y64976D01*
X38522D01*
X35612Y67885D01*
X35657Y68110D01*
X35550Y68648D01*
X35245Y69104D01*
X34790Y69408D01*
X34252Y69515D01*
X34027Y69471D01*
X28306Y75192D01*
X28497Y75654D01*
X52457D01*
X52764Y75715D01*
X53024Y75889D01*
X58616Y81481D01*
X61478D01*
X61605Y81290D01*
X62061Y80985D01*
X62598Y80879D01*
X63136Y80985D01*
X63592Y81290D01*
X63896Y81746D01*
X64003Y82284D01*
X63968Y82459D01*
X64429Y82705D01*
X65419Y81716D01*
X65419Y81716D01*
X65679Y81542D01*
X65986Y81481D01*
X65987Y81481D01*
X68564D01*
X68691Y81290D01*
X69147Y80985D01*
X69685Y80879D01*
X70223Y80985D01*
X70678Y81290D01*
X70983Y81746D01*
X71090Y82284D01*
X70983Y82821D01*
X70678Y83277D01*
X70223Y83582D01*
X69685Y83688D01*
X69147Y83582D01*
X68691Y83277D01*
X68564Y83086D01*
X66319D01*
X65356Y84049D01*
X65548Y84511D01*
X73854D01*
X78197Y80168D01*
D02*
G37*
G36*
X106335Y66665D02*
Y59811D01*
X104189Y57665D01*
X93322D01*
X92738Y58249D01*
X92478Y58423D01*
X92170Y58484D01*
X81681D01*
X81681Y58484D01*
X81374Y58423D01*
X81113Y58249D01*
X73932Y51068D01*
X73758Y50807D01*
X73697Y50500D01*
Y32833D01*
X72671Y31807D01*
X69428D01*
X69301Y31997D01*
X69277Y32013D01*
Y32432D01*
X69342Y32571D01*
X69630Y33001D01*
X69737Y33538D01*
X69630Y34076D01*
X69325Y34532D01*
X69316Y34538D01*
X69301Y35126D01*
X69310Y35143D01*
X69579Y35545D01*
X69848D01*
X70155Y35606D01*
X70416Y35780D01*
X71068Y36432D01*
X71068Y36432D01*
X71242Y36693D01*
X71303Y37000D01*
Y42000D01*
X71242Y42307D01*
X71068Y42568D01*
X71068Y42568D01*
X70068Y43568D01*
X69807Y43742D01*
X69500Y43803D01*
X67376D01*
X66846Y44333D01*
Y58200D01*
X70981Y62335D01*
X100146D01*
X100453Y62396D01*
X100713Y62570D01*
X104893Y66750D01*
X105118Y66705D01*
X105656Y66812D01*
X105835Y66932D01*
X106335Y66665D01*
D02*
G37*
%LPC*%
G36*
X55512Y68913D02*
X55205Y68852D01*
X54944Y68678D01*
X54770Y68417D01*
X54709Y68110D01*
X54770Y67803D01*
X54944Y67542D01*
X55205Y67369D01*
X55512Y67307D01*
X55819Y67369D01*
X56080Y67542D01*
X56253Y67803D01*
X56315Y68110D01*
X56253Y68417D01*
X56080Y68678D01*
X55819Y68852D01*
X55512Y68913D01*
D02*
G37*
G36*
X48425D02*
X48118Y68852D01*
X47857Y68678D01*
X47684Y68417D01*
X47622Y68110D01*
X47684Y67803D01*
X47857Y67542D01*
X48118Y67369D01*
X48425Y67307D01*
X48732Y67369D01*
X48993Y67542D01*
X49167Y67803D01*
X49228Y68110D01*
X49167Y68417D01*
X48993Y68678D01*
X48732Y68852D01*
X48425Y68913D01*
D02*
G37*
G36*
X90453Y61826D02*
X90145Y61765D01*
X89885Y61591D01*
X89711Y61331D01*
X89650Y61024D01*
X89711Y60716D01*
X89885Y60456D01*
X90145Y60282D01*
X90453Y60221D01*
X90760Y60282D01*
X91021Y60456D01*
X91194Y60716D01*
X91256Y61024D01*
X91194Y61331D01*
X91021Y61591D01*
X90760Y61765D01*
X90453Y61826D01*
D02*
G37*
G36*
X97539Y60842D02*
X97232Y60781D01*
X96972Y60607D01*
X96798Y60347D01*
X96737Y60039D01*
X96798Y59732D01*
X96972Y59472D01*
X97232Y59298D01*
X97539Y59237D01*
X97847Y59298D01*
X98107Y59472D01*
X98281Y59732D01*
X98342Y60039D01*
X98281Y60347D01*
X98107Y60607D01*
X97847Y60781D01*
X97539Y60842D01*
D02*
G37*
%LPD*%
D38*
X92000Y99500D02*
X98330D01*
X90945Y100555D02*
Y103543D01*
Y100555D02*
X92000Y99500D01*
X98330D02*
X107138Y90692D01*
X98500Y101000D02*
Y115000D01*
X101216Y117717D02*
X105118D01*
X98500Y115000D02*
X101216Y117717D01*
X98500Y101000D02*
X108319Y91181D01*
X107138Y73428D02*
Y90692D01*
X108319Y73917D02*
Y91181D01*
X92500Y55681D02*
X105011D01*
X105118Y86839D02*
Y89370D01*
Y86839D02*
X105957Y86000D01*
X5500Y20830D02*
Y24330D01*
Y20830D02*
X14912Y11417D01*
X6681Y21319D02*
X15402Y12598D01*
X27953D01*
X14912Y11417D02*
X18412D01*
X6681Y21319D02*
Y66011D01*
X9000Y70000D02*
X18189D01*
X20079Y68110D01*
X5500Y66500D02*
X9000Y70000D01*
X6681Y66011D02*
X8781Y68110D01*
X12992D01*
X5500Y24330D02*
Y66500D01*
X26628Y11417D02*
X27219Y10827D01*
X30118D01*
X18412Y11417D02*
X26628D01*
X30118Y10827D02*
X31890Y12598D01*
X27186Y85314D02*
X74186D01*
X79000Y80500D01*
X19724Y91105D02*
X26697Y84133D01*
X58284Y82284D02*
X62598D01*
X26697Y84133D02*
X64137D01*
X51284Y82284D02*
X55512D01*
X64137Y84133D02*
X65986Y82284D01*
X20906Y91594D02*
X27186Y85314D01*
X65986Y82284D02*
X69685D01*
X19362Y83000D02*
X34252Y68110D01*
X5906Y85094D02*
X8000Y83000D01*
X19362D01*
X5906Y81496D02*
X19004D01*
X25500Y75000D01*
X5906Y85094D02*
Y91732D01*
X25500Y69776D02*
X27165Y68110D01*
X25500Y69776D02*
Y75000D01*
X27165Y68110D02*
X28776Y66500D01*
X33000D02*
X36508Y62992D01*
X28776Y66500D02*
X33000D01*
X36508Y62992D02*
X61992D01*
X19724Y91105D02*
Y139331D01*
X29159Y80000D02*
X35500D01*
X16181Y89638D02*
X28181Y77638D01*
X46638D01*
X15000Y89148D02*
X27692Y76457D01*
X17362Y90127D02*
Y127520D01*
Y90127D02*
X28670Y78819D01*
X15000Y89148D02*
Y115709D01*
X28670Y78819D02*
X40819D01*
X18543Y90616D02*
Y133425D01*
X27692Y76457D02*
X52457D01*
X16181Y89638D02*
Y121614D01*
X18543Y90616D02*
X29159Y80000D01*
X20906Y91594D02*
Y111457D01*
X34252Y68110D02*
X38189Y64173D01*
X58661D02*
X62598Y68110D01*
X38189Y64173D02*
X58661D01*
X61992Y62992D02*
X68500Y69500D01*
X73500D01*
X76772Y72772D02*
Y75197D01*
X73500Y69500D02*
X76772Y72772D01*
X68830Y68000D02*
X73670D01*
X79000Y73330D01*
Y80500D01*
X66496Y31004D02*
X68307D01*
X61319Y36181D02*
X66496Y31004D01*
X65632Y33538D02*
X68332D01*
X62500Y36670D02*
Y60000D01*
Y36670D02*
X65632Y33538D01*
X61319Y36181D02*
Y41181D01*
X58000Y44500D02*
X61319Y41181D01*
X30000Y44500D02*
X58000D01*
X61319Y60489D02*
X68830Y68000D01*
X75138Y66681D02*
X76568Y68110D01*
X70160Y64319D02*
X94240D01*
X62500Y60000D02*
X69181Y66681D01*
X64862Y59022D02*
X70160Y64319D01*
X66043Y58532D02*
X70649Y63138D01*
X69670Y65500D02*
X88335D01*
X69181Y66681D02*
X75138D01*
X63681Y59511D02*
X69670Y65500D01*
X70649Y63138D02*
X100146D01*
X20906Y111457D02*
X27165Y117717D01*
X12992Y131890D02*
X17362Y127520D01*
X35500Y80000D02*
X37784Y82284D01*
X12992Y146063D02*
X19724Y139331D01*
X12992Y124803D02*
X16181Y121614D01*
X12992Y138976D02*
X18543Y133425D01*
X12992Y117717D02*
X15000Y115709D01*
X37784Y82284D02*
X41339D01*
X52457Y76457D02*
X58284Y82284D01*
X46638Y77638D02*
X51284Y82284D01*
X61319Y56500D02*
Y60489D01*
X58953Y54134D02*
X61319Y56500D01*
X50394Y54134D02*
X58953D01*
X109500Y58500D02*
Y72736D01*
X108319Y58989D02*
Y72247D01*
X90500Y54500D02*
X105500D01*
X105011Y55681D02*
X108319Y58989D01*
X92989Y56862D02*
X104522D01*
X107138Y59478D02*
Y71758D01*
X105500Y54500D02*
X109500Y58500D01*
X104522Y56862D02*
X107138Y59478D01*
X68307Y31004D02*
X73004D01*
X74500Y32500D01*
Y50500D01*
X68533Y36348D02*
X69848D01*
X69500Y43000D02*
X70500Y42000D01*
Y37000D02*
Y42000D01*
X68307Y36122D02*
X68533Y36348D01*
X69848D02*
X70500Y37000D01*
X74500Y50500D02*
X81681Y57681D01*
X78740Y52740D02*
X82500Y56500D01*
X91681D01*
X78740Y49213D02*
Y52740D01*
X91681Y56500D02*
X92500Y55681D01*
X92170Y57681D02*
X92989Y56862D01*
X81681Y57681D02*
X92170D01*
X105957Y72939D02*
X107138Y71758D01*
X105957Y72939D02*
Y86000D01*
X40819Y78819D02*
X44284Y82284D01*
X107138Y73428D02*
X108319Y72247D01*
X109996Y31496D02*
X112205Y33705D01*
Y75197D01*
X109500Y86665D02*
X112205Y89370D01*
X111024Y41787D02*
Y72883D01*
X109500Y74406D02*
Y86665D01*
Y74406D02*
X111024Y72883D01*
X108319Y73917D02*
X109500Y72736D01*
X108606Y39370D02*
X111024Y41787D01*
X106201Y31496D02*
X109996D01*
X106201Y39370D02*
X108606D01*
X100146Y63138D02*
X105118Y68110D01*
X94240Y64319D02*
X98032Y68110D01*
X88335Y65500D02*
X90945Y68110D01*
X66043Y44000D02*
Y58532D01*
X65324Y41240D02*
X68295D01*
X68307Y41228D01*
X67043Y43000D02*
X69500D01*
X66043Y44000D02*
X67043Y43000D01*
X63681Y41149D02*
Y59511D01*
X64862Y41701D02*
Y59022D01*
Y41701D02*
X65324Y41240D01*
X63681Y41149D02*
X66142Y38688D01*
X76568Y68110D02*
X76772D01*
X68300Y38688D02*
X68307Y38681D01*
X66142Y38688D02*
X68300D01*
X44284Y82284D02*
X48425D01*
X21654Y32579D02*
Y38846D01*
X10020Y41339D02*
X19161D01*
X21654Y38846D01*
X54000Y26000D02*
X56445Y28445D01*
X68307D01*
X38000Y26000D02*
X54000D01*
X35157Y23157D02*
X38000Y26000D01*
X35157Y19410D02*
Y23157D01*
X51055Y28445D02*
X52756D01*
X48348Y31152D02*
X51055Y28445D01*
X32822Y31152D02*
X48348D01*
X32333Y32333D02*
X49167D01*
X50496Y31004D02*
X52756D01*
X49167Y32333D02*
X50496Y31004D01*
X29528Y25591D02*
X31765Y27828D01*
Y30095D01*
X32822Y31152D01*
X29528Y29528D02*
X32333Y32333D01*
X29528Y33465D02*
X29577Y33514D01*
X52707D02*
X52756Y33563D01*
X29577Y33514D02*
X52707D01*
D43*
X11417Y189173D02*
D03*
X106693D02*
D03*
D44*
X20000Y75500D02*
D03*
X75500Y60500D02*
D03*
X105000Y62992D02*
D03*
X63500Y31000D02*
D03*
X20000Y30000D02*
D03*
X37000Y27500D02*
D03*
X48500Y17000D02*
D03*
X9500Y55500D02*
D03*
X3000D02*
D03*
X10000Y36000D02*
D03*
X3000Y38000D02*
D03*
X4000Y17000D02*
D03*
X108000Y16000D02*
D03*
X114000Y28000D02*
D03*
X114500Y41500D02*
D03*
Y54000D02*
D03*
X108500Y53500D02*
D03*
X107500Y43500D02*
D03*
Y35500D02*
D03*
X106000Y27500D02*
D03*
X72000Y54000D02*
D03*
X34000Y38000D02*
D03*
X38500Y52500D02*
D03*
X14500Y59000D02*
D03*
X5500Y103500D02*
D03*
Y118000D02*
D03*
Y138500D02*
D03*
X27000Y139000D02*
D03*
Y124500D02*
D03*
X27500Y160000D02*
D03*
X83500D02*
D03*
X105500Y146000D02*
D03*
X98000Y139000D02*
D03*
Y118000D02*
D03*
X91000Y110500D02*
D03*
X98000Y82000D02*
D03*
X81000Y96000D02*
D03*
X54000Y128500D02*
D03*
X43000Y116000D02*
D03*
X50500Y99500D02*
D03*
X63500Y95500D02*
D03*
X37000D02*
D03*
X38000Y136500D02*
D03*
X66000D02*
D03*
X81500Y136000D02*
D03*
X79500Y125000D02*
D03*
X81500Y106500D02*
D03*
X71500Y91000D02*
D03*
X72000Y99500D02*
D03*
Y133500D02*
D03*
X85932Y176684D02*
D03*
X87541Y173976D02*
D03*
X89860Y171845D02*
D03*
X92734Y170556D02*
D03*
X95857Y170148D02*
D03*
X99007D02*
D03*
X102156Y170142D02*
D03*
X105239Y169497D02*
D03*
X107898Y167809D02*
D03*
X109774Y165279D02*
D03*
X110596Y162239D02*
D03*
X115233Y169231D02*
D03*
X113375Y171774D02*
D03*
X111046Y173896D02*
D03*
X108317Y175468D02*
D03*
X105327Y176459D02*
D03*
X102203Y176854D02*
D03*
X99053Y176852D02*
D03*
X95903D02*
D03*
X92943Y177926D02*
D03*
X105118Y89370D02*
D03*
X53345Y169877D02*
D03*
X32081Y178151D02*
D03*
X32481Y175210D02*
D03*
X33925Y172616D02*
D03*
X36246Y170765D02*
D03*
X39096Y169936D02*
D03*
X42064Y169877D02*
D03*
X45033D02*
D03*
X48001D02*
D03*
X50969D02*
D03*
X41365Y176580D02*
D03*
X38785Y178047D02*
D03*
X53543Y176580D02*
D03*
X55721Y169877D02*
D03*
X57087Y176580D02*
D03*
X58690Y169877D02*
D03*
X61658D02*
D03*
X64627D02*
D03*
X67595Y169831D02*
D03*
X69798Y167841D02*
D03*
X76580Y166898D02*
D03*
X76178Y169839D02*
D03*
X74925Y172530D02*
D03*
X72862Y174664D02*
D03*
X70240Y176056D02*
D03*
X67316Y176569D02*
D03*
X31890Y12598D02*
D03*
X27953D02*
D03*
X62598Y82284D02*
D03*
X55512D02*
D03*
X62598Y68110D02*
D03*
X5906Y81496D02*
D03*
Y91732D02*
D03*
X76772Y75197D02*
D03*
X27165Y117717D02*
D03*
X41339Y82284D02*
D03*
X112205Y75197D02*
D03*
X112205Y89370D02*
D03*
X90945Y68110D02*
D03*
X68307Y41228D02*
D03*
X106201Y39370D02*
D03*
X48425Y82284D02*
D03*
X69685D02*
D03*
X35157Y19410D02*
D03*
X29528Y25591D02*
D03*
Y29528D02*
D03*
Y33465D02*
D03*
X10020Y41339D02*
D03*
X21654Y32579D02*
D03*
X90500Y54500D02*
D03*
X106201Y31496D02*
D03*
X68307Y38681D02*
D03*
Y36122D02*
D03*
X68332Y33538D02*
D03*
X68307Y31004D02*
D03*
Y28445D02*
D03*
X52756D02*
D03*
Y31004D02*
D03*
Y33563D02*
D03*
X30000Y44500D02*
D03*
X50394Y54134D02*
D03*
X78740Y49213D02*
D03*
X76772Y68110D02*
D03*
X34252Y68110D02*
D03*
X27165D02*
D03*
X20079D02*
D03*
X12992D02*
D03*
X12992Y117717D02*
D03*
Y124803D02*
D03*
Y131890D02*
D03*
Y138976D02*
D03*
Y146063D02*
D03*
X105118Y117717D02*
D03*
X90945Y103543D02*
D03*
X105118Y68110D02*
D03*
X98032Y68110D02*
D03*
M02*
