G04*
G04 #@! TF.GenerationSoftware,Altium Limited,Altium Designer,22.1.2 (22)*
G04*
G04 Layer_Color=16711935*
%FSLAX25Y25*%
%MOIN*%
G70*
G04*
G04 #@! TF.SameCoordinates,3D425B39-A101-4537-954C-310EEB490880*
G04*
G04*
G04 #@! TF.FilePolarity,Negative*
G04*
G01*
G75*
%ADD23R,1.03150X0.11516*%
%ADD29R,0.02126X0.01929*%
%ADD30R,0.01929X0.02126*%
%ADD31R,0.04016X0.02835*%
%ADD33R,0.02441X0.09134*%
%ADD35R,0.20945X0.20945*%
%ADD54R,0.05984X0.11693*%
%ADD55R,0.04016X0.09134*%
%ADD56C,0.04016*%
%ADD57R,0.03228X0.01260*%
%ADD58R,0.01654X0.01654*%
%ADD59R,0.03228X0.02441*%
%ADD60R,0.02835X0.04016*%
%ADD61R,0.02441X0.03228*%
%ADD62R,0.02244X0.01260*%
G36*
X6899Y111518D02*
Y111719D01*
X6949D01*
Y112121D01*
X6899D01*
Y112623D01*
X6949D01*
Y113126D01*
X6999D01*
Y113427D01*
X7049D01*
Y113628D01*
X7100D01*
Y113678D01*
X7150D01*
Y113779D01*
X7200D01*
Y113879D01*
X7250D01*
Y113929D01*
X7300D01*
Y113979D01*
X7351D01*
Y114030D01*
X7401D01*
Y114080D01*
X7451D01*
Y114130D01*
X7501D01*
Y114181D01*
X7552D01*
X7602D01*
Y114130D01*
X7652D01*
X7702D01*
Y114181D01*
X7652D01*
Y114231D01*
X7602D01*
Y114281D01*
X7652D01*
X7702D01*
Y114331D01*
X7752D01*
X7803D01*
Y114432D01*
X7853D01*
Y114381D01*
X7903D01*
Y114482D01*
X7954D01*
Y114532D01*
X8004D01*
X8054D01*
X8104D01*
Y114582D01*
X8154D01*
Y114633D01*
X8205D01*
X8255D01*
Y114683D01*
X8305D01*
X8355D01*
X8406D01*
Y114733D01*
X8456D01*
X8506D01*
Y114783D01*
X8556D01*
X8607D01*
Y114833D01*
X8657D01*
X8707D01*
Y114884D01*
X8757D01*
Y114934D01*
X8807D01*
X8858D01*
Y114984D01*
X8908D01*
X8958D01*
Y115034D01*
X9008D01*
Y115085D01*
X9059D01*
Y115034D01*
X9109D01*
Y115085D01*
X9159D01*
Y115135D01*
X9209D01*
X9260D01*
X9310D01*
Y115185D01*
X9360D01*
X9410D01*
X9461D01*
Y115235D01*
X9511D01*
X9561D01*
X9611D01*
X9662D01*
X9712D01*
Y115286D01*
X9762D01*
X9812D01*
Y115939D01*
X9862D01*
Y115889D01*
X9913D01*
Y115788D01*
X9963D01*
Y115587D01*
X10013D01*
Y115889D01*
X10063D01*
Y115838D01*
X10114D01*
Y115788D01*
X10063D01*
Y115738D01*
X10114D01*
Y115688D01*
X10164D01*
Y115336D01*
X10214D01*
X10264D01*
X10315D01*
X10365D01*
X10415D01*
X10465D01*
X10515D01*
X10566D01*
X10616D01*
X10666D01*
Y115286D01*
X10716D01*
X10767D01*
X10817D01*
X10867D01*
Y115235D01*
X10917D01*
Y115185D01*
X10968D01*
Y115235D01*
X11018D01*
Y115185D01*
X11068D01*
Y115135D01*
X11118D01*
Y115085D01*
X11169D01*
Y115135D01*
X11219D01*
Y115085D01*
X11269D01*
X11319D01*
Y115034D01*
X11269D01*
Y114984D01*
X11319D01*
Y115034D01*
X11370D01*
X11420D01*
Y114984D01*
X11470D01*
Y114934D01*
X11520D01*
X11570D01*
Y114884D01*
X11621D01*
Y114783D01*
X11671D01*
X11721D01*
Y114683D01*
X11771D01*
Y114633D01*
X11822D01*
Y114532D01*
X11872D01*
Y114381D01*
X11922D01*
Y114130D01*
X11872D01*
Y113979D01*
X11822D01*
Y113879D01*
X11771D01*
Y113829D01*
X11721D01*
Y113779D01*
X11671D01*
Y113728D01*
X11621D01*
X11570D01*
X11520D01*
Y113678D01*
X11470D01*
X11420D01*
Y113628D01*
X11370D01*
X11319D01*
X11269D01*
X11219D01*
Y113678D01*
X11169D01*
Y113728D01*
X11118D01*
Y113678D01*
X11068D01*
Y113728D01*
X11018D01*
X10968D01*
Y113779D01*
X10917D01*
Y113829D01*
X10867D01*
Y113879D01*
X10817D01*
Y114030D01*
X10867D01*
Y114080D01*
X10917D01*
X10968D01*
Y114030D01*
X11018D01*
Y114080D01*
X11068D01*
X11118D01*
Y114030D01*
X11169D01*
Y113979D01*
X11219D01*
X11269D01*
X11319D01*
Y114030D01*
X11370D01*
Y114130D01*
X11420D01*
Y114281D01*
X11370D01*
Y114381D01*
X11319D01*
Y114432D01*
X11269D01*
Y114482D01*
X11219D01*
X11169D01*
X11118D01*
Y114532D01*
X11068D01*
Y114582D01*
X11018D01*
Y114532D01*
X10968D01*
Y114582D01*
X10917D01*
X10867D01*
X10817D01*
X10767D01*
X10716D01*
X10666D01*
X10616D01*
X10566D01*
X10515D01*
X10465D01*
X10415D01*
X10365D01*
Y114633D01*
X10315D01*
Y114582D01*
X10264D01*
X10214D01*
Y114532D01*
X10164D01*
X10114D01*
Y114482D01*
X10063D01*
X10013D01*
X9963D01*
Y114432D01*
X9913D01*
X9862D01*
Y114381D01*
X9812D01*
X9762D01*
Y114331D01*
X9712D01*
Y114030D01*
X9762D01*
Y113879D01*
X9712D01*
Y113829D01*
X9662D01*
Y113728D01*
X9611D01*
Y113678D01*
X9561D01*
Y113578D01*
X9511D01*
Y113226D01*
X9561D01*
Y113176D01*
X9611D01*
Y113075D01*
X9662D01*
X9712D01*
Y112925D01*
X9762D01*
X9812D01*
Y112824D01*
X9862D01*
Y112724D01*
X9812D01*
Y112673D01*
X9862D01*
Y112573D01*
X9812D01*
Y112472D01*
X9762D01*
Y112372D01*
X9712D01*
Y112271D01*
X9662D01*
X9611D01*
Y112221D01*
X9662D01*
Y112171D01*
X9611D01*
Y112121D01*
X9561D01*
Y112071D01*
X9511D01*
X9461D01*
Y112121D01*
X9410D01*
Y112020D01*
X9461D01*
X9511D01*
Y111970D01*
X9461D01*
Y111920D01*
X9410D01*
Y111870D01*
X9360D01*
Y111819D01*
X9310D01*
Y111769D01*
X9260D01*
Y111719D01*
X9209D01*
Y111669D01*
X9159D01*
Y111618D01*
X9109D01*
X9059D01*
Y111568D01*
X9008D01*
Y111518D01*
X8958D01*
Y111468D01*
X8908D01*
X8858D01*
Y111417D01*
X8807D01*
Y111367D01*
X8757D01*
X8707D01*
Y111317D01*
X8757D01*
X8807D01*
Y111367D01*
X8858D01*
X8908D01*
Y111417D01*
X8958D01*
X9008D01*
Y111468D01*
X9059D01*
Y111518D01*
X9109D01*
Y111568D01*
X9159D01*
X9209D01*
Y111618D01*
X9260D01*
Y111669D01*
X9310D01*
Y111719D01*
X9360D01*
Y111769D01*
X9410D01*
Y111819D01*
X9461D01*
Y111920D01*
X9511D01*
Y111970D01*
X9561D01*
Y112020D01*
X9611D01*
Y112071D01*
X9662D01*
Y112171D01*
X9712D01*
Y112221D01*
X9762D01*
X9812D01*
Y112322D01*
X9862D01*
X9913D01*
X9963D01*
X10013D01*
X10063D01*
X10114D01*
X10164D01*
X10214D01*
Y112372D01*
X10264D01*
X10315D01*
X10365D01*
X10415D01*
X10465D01*
X10515D01*
X10566D01*
X10616D01*
Y112422D01*
X10666D01*
Y112472D01*
X10716D01*
X10767D01*
X10817D01*
Y112523D01*
X10867D01*
X10917D01*
Y112573D01*
X10968D01*
X11018D01*
X11068D01*
X11118D01*
X11169D01*
Y112623D01*
X11219D01*
X11269D01*
X11319D01*
Y112673D01*
X11370D01*
X11420D01*
Y112623D01*
X11470D01*
Y112673D01*
X11520D01*
Y112724D01*
X11570D01*
X11621D01*
Y112673D01*
X11671D01*
Y112724D01*
X11721D01*
X11771D01*
Y112774D01*
X11822D01*
X11872D01*
X11922D01*
Y112824D01*
X11972D01*
X12023D01*
X12073D01*
X12123D01*
Y112874D01*
X12173D01*
X12224D01*
X12274D01*
Y112925D01*
X12324D01*
Y112874D01*
X12374D01*
Y112925D01*
X12425D01*
Y112975D01*
X12475D01*
X12525D01*
X12575D01*
Y113025D01*
X12625D01*
X12676D01*
X12726D01*
Y113075D01*
X12776D01*
Y113025D01*
X12826D01*
Y113075D01*
X12877D01*
X12927D01*
Y113126D01*
X12977D01*
Y113075D01*
X13027D01*
Y113126D01*
X13078D01*
X13128D01*
X13178D01*
X13228D01*
X13279D01*
Y113176D01*
X13329D01*
X13379D01*
X13429D01*
Y113226D01*
X13479D01*
X13530D01*
Y113276D01*
X13580D01*
X13630D01*
Y113327D01*
X13680D01*
X13731D01*
Y113377D01*
X13781D01*
Y113427D01*
X13831D01*
X13881D01*
Y113477D01*
X13931D01*
Y113527D01*
X13982D01*
Y113578D01*
X14032D01*
X14082D01*
Y113527D01*
X14132D01*
Y113377D01*
X14183D01*
Y112925D01*
X14233D01*
Y112874D01*
X14183D01*
Y112523D01*
X14132D01*
X14082D01*
Y112472D01*
X14032D01*
X13982D01*
X13931D01*
X13881D01*
Y112523D01*
X13831D01*
X13781D01*
Y112573D01*
X13731D01*
Y112623D01*
X13680D01*
X13630D01*
Y112573D01*
X13580D01*
X13530D01*
X13479D01*
Y112523D01*
X13429D01*
X13379D01*
X13329D01*
Y112472D01*
X13279D01*
X13228D01*
X13178D01*
Y112422D01*
X13128D01*
X13078D01*
Y112372D01*
X13027D01*
X12977D01*
Y112322D01*
X12927D01*
X12877D01*
Y112271D01*
X12826D01*
X12776D01*
Y112221D01*
X12726D01*
Y112171D01*
X12676D01*
X12625D01*
Y112121D01*
X12575D01*
Y112171D01*
X12525D01*
Y112071D01*
X12475D01*
X12425D01*
X12374D01*
Y111970D01*
X12324D01*
X12274D01*
Y111920D01*
X12224D01*
X12173D01*
Y111870D01*
X12123D01*
Y111819D01*
X12073D01*
Y111920D01*
X12023D01*
Y111769D01*
X11972D01*
Y111719D01*
X11922D01*
X11872D01*
Y111669D01*
X11822D01*
Y111618D01*
X11771D01*
Y111568D01*
X11721D01*
Y111518D01*
X11671D01*
Y111468D01*
X11621D01*
Y111417D01*
X11570D01*
Y111367D01*
X11520D01*
Y111317D01*
X11470D01*
Y111267D01*
X11420D01*
Y111217D01*
X11370D01*
Y111166D01*
X11319D01*
X11269D01*
Y111116D01*
X11219D01*
Y111066D01*
X11169D01*
X11118D01*
Y111016D01*
X11068D01*
Y110965D01*
X11018D01*
X10968D01*
Y110915D01*
X10917D01*
X10867D01*
Y110865D01*
X10817D01*
X10767D01*
Y110815D01*
X10817D01*
X10867D01*
Y110865D01*
X10917D01*
X10968D01*
Y110915D01*
X11018D01*
X11068D01*
Y110965D01*
X11118D01*
X11169D01*
Y111016D01*
X11219D01*
Y111066D01*
X11269D01*
X11319D01*
Y111116D01*
X11370D01*
Y111166D01*
X11420D01*
X11470D01*
Y111217D01*
X11520D01*
X11570D01*
X11621D01*
X11671D01*
Y111166D01*
X11721D01*
X11771D01*
X11822D01*
Y111116D01*
X11872D01*
X11922D01*
X11972D01*
Y111066D01*
X12023D01*
X12073D01*
Y111016D01*
X12123D01*
X12173D01*
X12224D01*
Y110965D01*
X12274D01*
X12324D01*
X12374D01*
Y110915D01*
X12425D01*
X12475D01*
X12525D01*
X12575D01*
Y110865D01*
X12625D01*
X12676D01*
X12726D01*
X12776D01*
Y110815D01*
X12826D01*
X12877D01*
X12927D01*
Y110764D01*
X12977D01*
X13027D01*
Y110714D01*
X13078D01*
X13128D01*
X13178D01*
Y110664D01*
X13228D01*
X13279D01*
Y110614D01*
X13329D01*
X13379D01*
X13429D01*
X13479D01*
X13530D01*
Y110564D01*
X13580D01*
X13630D01*
Y110614D01*
X13680D01*
X13731D01*
X13781D01*
Y110664D01*
X13831D01*
Y110714D01*
X13881D01*
Y110764D01*
X13931D01*
Y110815D01*
X13982D01*
Y110865D01*
X14032D01*
X14082D01*
Y110915D01*
X14132D01*
X14183D01*
X14233D01*
Y110815D01*
X14283D01*
Y110162D01*
X14233D01*
Y110011D01*
X14283D01*
Y109760D01*
X14233D01*
Y109710D01*
X14183D01*
X14132D01*
X14082D01*
X14032D01*
Y109760D01*
X13982D01*
X13931D01*
Y109810D01*
X13881D01*
Y109910D01*
X13831D01*
X13781D01*
X13731D01*
Y109961D01*
X13680D01*
Y109910D01*
X13630D01*
X13580D01*
X13530D01*
X13479D01*
X13429D01*
X13379D01*
X13329D01*
X13279D01*
X13228D01*
X13178D01*
X13128D01*
Y109961D01*
X13078D01*
X13027D01*
X12977D01*
X12927D01*
X12877D01*
X12826D01*
X12776D01*
X12726D01*
Y110011D01*
X12676D01*
X12625D01*
X12575D01*
X12525D01*
X12475D01*
Y110061D01*
X12425D01*
X12374D01*
X12324D01*
X12274D01*
X12224D01*
X12173D01*
Y110111D01*
X12123D01*
X12073D01*
X12023D01*
X11972D01*
X11922D01*
X11872D01*
X11822D01*
X11771D01*
X11721D01*
X11671D01*
X11621D01*
X11570D01*
Y110162D01*
X11520D01*
Y110111D01*
X11470D01*
X11420D01*
X11370D01*
X11319D01*
X11269D01*
X11219D01*
X11169D01*
X11118D01*
Y110061D01*
X11068D01*
X11018D01*
X10968D01*
Y109961D01*
X11018D01*
Y109860D01*
X11068D01*
Y109760D01*
X11118D01*
Y109659D01*
X11169D01*
Y109509D01*
X11219D01*
Y109358D01*
X11269D01*
Y109107D01*
X11319D01*
Y109006D01*
X11269D01*
Y108855D01*
X11319D01*
Y108504D01*
X11269D01*
Y108454D01*
X11319D01*
Y108504D01*
X11370D01*
Y108403D01*
X11420D01*
X11470D01*
Y108353D01*
X11520D01*
Y108303D01*
X11570D01*
Y108253D01*
X11621D01*
Y108202D01*
X11671D01*
Y108152D01*
X11721D01*
Y108102D01*
X11771D01*
Y108052D01*
X11822D01*
Y108001D01*
X11872D01*
X11922D01*
Y107951D01*
X11972D01*
X12023D01*
X12073D01*
Y107901D01*
X12123D01*
X12173D01*
Y107851D01*
X12224D01*
X12274D01*
X12324D01*
Y107800D01*
X12374D01*
X12425D01*
X12475D01*
X12525D01*
Y107851D01*
X12575D01*
X12625D01*
X12676D01*
X12726D01*
X12776D01*
X12826D01*
X12877D01*
X12927D01*
X12977D01*
X13027D01*
X13078D01*
X13128D01*
X13178D01*
X13228D01*
X13279D01*
X13329D01*
Y107901D01*
X13379D01*
X13429D01*
X13479D01*
Y107951D01*
X13530D01*
X13580D01*
Y108001D01*
X13630D01*
Y108052D01*
X13680D01*
Y108102D01*
X13731D01*
Y108152D01*
X13781D01*
Y108202D01*
X13831D01*
Y108253D01*
X13881D01*
Y108303D01*
X13931D01*
Y108353D01*
X13982D01*
X14032D01*
X14082D01*
Y108303D01*
X14132D01*
Y107198D01*
X14082D01*
Y107097D01*
X14032D01*
X13982D01*
X13931D01*
X13881D01*
X13831D01*
X13781D01*
X13731D01*
X13680D01*
X13630D01*
X13580D01*
X13530D01*
X13479D01*
X13429D01*
X13379D01*
Y107148D01*
X13329D01*
X13279D01*
X13228D01*
X13178D01*
X13128D01*
Y107198D01*
X13078D01*
X13027D01*
X12977D01*
X12927D01*
X12877D01*
X12826D01*
X12776D01*
X12726D01*
X12676D01*
X12625D01*
X12575D01*
X12525D01*
X12475D01*
X12425D01*
X12374D01*
X12324D01*
Y107148D01*
X12274D01*
X12224D01*
X12173D01*
X12123D01*
X12073D01*
X12023D01*
X11972D01*
Y107097D01*
X11922D01*
Y107047D01*
X11872D01*
Y106997D01*
X11822D01*
Y107047D01*
X11771D01*
Y107097D01*
X11721D01*
Y107148D01*
X11671D01*
Y107198D01*
X11621D01*
Y107248D01*
X11570D01*
X11520D01*
Y107298D01*
X11470D01*
Y107399D01*
X11420D01*
X11370D01*
X11319D01*
Y107348D01*
X11370D01*
Y107298D01*
X11420D01*
Y107248D01*
X11470D01*
Y107198D01*
X11520D01*
X11570D01*
Y107148D01*
X11621D01*
Y107097D01*
X11570D01*
Y106997D01*
X11621D01*
Y107097D01*
X11671D01*
Y107047D01*
X11721D01*
Y106997D01*
X11771D01*
Y106947D01*
X11822D01*
X11872D01*
Y106896D01*
X11922D01*
Y106846D01*
X11972D01*
Y106796D01*
X12023D01*
Y106746D01*
X12073D01*
X12123D01*
Y106695D01*
X12173D01*
Y106645D01*
X12224D01*
X12274D01*
Y106595D01*
X12324D01*
X12374D01*
Y106494D01*
X12425D01*
Y106545D01*
X12475D01*
Y106494D01*
X12525D01*
Y106444D01*
X12575D01*
X12625D01*
X12676D01*
Y106394D01*
X12726D01*
X12776D01*
Y106344D01*
X12826D01*
X12877D01*
Y106293D01*
X12927D01*
Y106344D01*
X12977D01*
Y106293D01*
X13027D01*
X13078D01*
X13128D01*
X13178D01*
Y106243D01*
X13128D01*
Y106193D01*
X13178D01*
Y106243D01*
X13228D01*
X13279D01*
X13329D01*
X13379D01*
Y106193D01*
X13429D01*
X13479D01*
X13530D01*
Y106143D01*
X13580D01*
X13630D01*
X13680D01*
Y106093D01*
X13731D01*
Y106143D01*
X13781D01*
X13831D01*
X13881D01*
Y106193D01*
X13931D01*
Y106143D01*
X13881D01*
Y106093D01*
X13931D01*
Y106143D01*
X13982D01*
X14032D01*
X14082D01*
Y106042D01*
X14132D01*
Y105992D01*
X14082D01*
Y105540D01*
X14032D01*
Y105490D01*
X13982D01*
Y105439D01*
X13931D01*
X13881D01*
Y105389D01*
X13831D01*
X13781D01*
X13731D01*
X13680D01*
X13630D01*
X13580D01*
Y105439D01*
X13530D01*
X13479D01*
Y105490D01*
X13429D01*
Y105540D01*
X13379D01*
Y105590D01*
X13329D01*
Y105640D01*
X13379D01*
Y105691D01*
X13329D01*
Y105640D01*
X13279D01*
X13228D01*
X13178D01*
X13128D01*
Y105691D01*
X13078D01*
X13027D01*
X12977D01*
Y105741D01*
X12927D01*
X12877D01*
Y105791D01*
X12826D01*
X12776D01*
Y105691D01*
X12826D01*
Y105640D01*
X12776D01*
X12726D01*
Y105540D01*
X12676D01*
X12625D01*
Y105590D01*
X12575D01*
X12525D01*
X12475D01*
X12425D01*
X12374D01*
Y105640D01*
X12324D01*
X12274D01*
X12224D01*
Y105691D01*
X12173D01*
X12123D01*
X12073D01*
X12023D01*
Y105741D01*
X11972D01*
X11922D01*
X11872D01*
Y105791D01*
X11822D01*
X11771D01*
X11721D01*
Y105841D01*
X11671D01*
X11621D01*
X11570D01*
X11520D01*
Y105892D01*
X11570D01*
Y105942D01*
X11621D01*
X11671D01*
X11721D01*
X11771D01*
Y105892D01*
X11822D01*
X11872D01*
X11922D01*
X11972D01*
Y105841D01*
X12023D01*
X12073D01*
X12123D01*
Y105791D01*
X12173D01*
X12224D01*
X12274D01*
X12324D01*
X12374D01*
X12425D01*
X12475D01*
X12525D01*
X12575D01*
X12625D01*
X12676D01*
Y105741D01*
X12726D01*
Y105841D01*
X12676D01*
X12625D01*
X12575D01*
Y105892D01*
X12525D01*
X12475D01*
X12425D01*
X12374D01*
Y105942D01*
X12324D01*
X12274D01*
X12224D01*
X12173D01*
X12123D01*
Y105992D01*
X12073D01*
X12023D01*
X11972D01*
X11922D01*
X11872D01*
X11822D01*
X11771D01*
X11721D01*
X11671D01*
X11621D01*
X11570D01*
X11520D01*
Y105942D01*
X11470D01*
Y105892D01*
X11420D01*
X11370D01*
X11319D01*
Y105942D01*
X11269D01*
X11219D01*
X11169D01*
X11118D01*
X11068D01*
X11018D01*
X10968D01*
X10917D01*
Y105992D01*
X10867D01*
X10817D01*
X10767D01*
X10716D01*
X10666D01*
X10616D01*
X10566D01*
Y106042D01*
X10515D01*
X10465D01*
X10415D01*
X10365D01*
X10315D01*
X10264D01*
X10214D01*
X10164D01*
X10114D01*
X10063D01*
X10013D01*
X9963D01*
X9913D01*
X9862D01*
X9812D01*
X9762D01*
X9712D01*
X9662D01*
X9611D01*
Y106093D01*
X9561D01*
X9511D01*
X9461D01*
X9410D01*
X9360D01*
Y106143D01*
X9310D01*
X9260D01*
Y106193D01*
X9209D01*
X9159D01*
X9109D01*
Y106243D01*
X9059D01*
Y106293D01*
X9008D01*
X8958D01*
Y106344D01*
X8908D01*
X8858D01*
Y106444D01*
X8807D01*
X8757D01*
X8707D01*
Y106494D01*
X8657D01*
Y106545D01*
X8607D01*
Y106645D01*
X8556D01*
Y106595D01*
X8506D01*
Y106645D01*
X8456D01*
Y106695D01*
X8406D01*
X8355D01*
Y106746D01*
X8305D01*
Y106796D01*
X8255D01*
X8205D01*
Y106846D01*
X8154D01*
Y106896D01*
X8104D01*
Y106947D01*
X8154D01*
Y106997D01*
X8104D01*
Y106947D01*
X8054D01*
X8004D01*
Y106997D01*
X7954D01*
Y107047D01*
X7903D01*
Y107097D01*
X7853D01*
Y107148D01*
X7803D01*
Y107298D01*
X7752D01*
X7702D01*
Y107348D01*
X7752D01*
Y107399D01*
X7702D01*
X7652D01*
Y107499D01*
X7602D01*
Y107600D01*
X7552D01*
Y107800D01*
X7501D01*
Y107951D01*
X7552D01*
Y108001D01*
X7501D01*
Y107951D01*
X7451D01*
Y108353D01*
X7401D01*
Y109559D01*
X7351D01*
Y109810D01*
X7300D01*
Y109961D01*
X7250D01*
Y110111D01*
X7200D01*
Y110262D01*
X7150D01*
Y110463D01*
X7100D01*
Y110614D01*
X7049D01*
Y110815D01*
X6999D01*
Y110915D01*
X6949D01*
Y111066D01*
X6899D01*
Y111116D01*
X6949D01*
Y111166D01*
X6899D01*
Y111217D01*
X6949D01*
Y111267D01*
X6899D01*
Y111217D01*
X6848D01*
Y111518D01*
X6899D01*
D02*
G37*
%LPC*%
G36*
X7150Y111769D02*
Y111719D01*
X7200D01*
Y111769D01*
X7250D01*
Y111819D01*
X7200D01*
Y111769D01*
X7150D01*
D02*
G37*
G36*
X7250D02*
Y111719D01*
X7300D01*
Y111769D01*
X7250D01*
D02*
G37*
G36*
X7300Y111719D02*
Y111669D01*
X7351D01*
Y111719D01*
X7300D01*
D02*
G37*
G36*
Y111618D02*
Y111468D01*
X7351D01*
Y111618D01*
X7300D01*
D02*
G37*
G36*
X7351Y111468D02*
Y111317D01*
X7401D01*
Y111217D01*
X7451D01*
Y111116D01*
X7501D01*
Y111066D01*
X7552D01*
Y111016D01*
X7602D01*
Y110965D01*
X7652D01*
X7702D01*
X7752D01*
X7803D01*
X7853D01*
X7903D01*
X7954D01*
X8004D01*
X8054D01*
Y111016D01*
X8104D01*
X8154D01*
X8205D01*
X8255D01*
Y111066D01*
X8305D01*
X8355D01*
X8406D01*
Y111116D01*
X8355D01*
X8305D01*
X8255D01*
Y111066D01*
X8205D01*
X8154D01*
X8104D01*
X8054D01*
X8004D01*
Y111016D01*
X7954D01*
X7903D01*
X7853D01*
X7803D01*
X7752D01*
X7702D01*
X7652D01*
Y111066D01*
X7602D01*
Y111116D01*
X7652D01*
Y111166D01*
X7602D01*
Y111116D01*
X7552D01*
Y111217D01*
X7501D01*
Y111267D01*
X7451D01*
Y111367D01*
X7401D01*
Y111468D01*
X7351D01*
D02*
G37*
G36*
X7853Y107298D02*
Y107248D01*
X7903D01*
Y107298D01*
X7853D01*
D02*
G37*
G36*
X7903Y113678D02*
Y113628D01*
X7954D01*
Y113678D01*
X8004D01*
Y113829D01*
X8054D01*
Y113879D01*
X8004D01*
Y113929D01*
X7954D01*
Y113678D01*
X7903D01*
D02*
G37*
G36*
X7803Y113879D02*
Y113728D01*
X7853D01*
Y113879D01*
X7903D01*
Y113929D01*
X7954D01*
Y113979D01*
X8004D01*
X8054D01*
X8104D01*
Y114030D01*
X8054D01*
X8004D01*
X7954D01*
Y113979D01*
X7903D01*
Y113929D01*
X7853D01*
Y113879D01*
X7803D01*
D02*
G37*
G36*
X8004Y110915D02*
Y110865D01*
X8054D01*
X8104D01*
Y110965D01*
X8054D01*
Y110915D01*
X8004D01*
D02*
G37*
G36*
X8456Y111166D02*
Y111116D01*
X8506D01*
Y111166D01*
X8456D01*
D02*
G37*
G36*
X8607Y111317D02*
Y111267D01*
X8657D01*
Y111317D01*
X8607D01*
D02*
G37*
G36*
X8657Y113477D02*
Y113427D01*
X8707D01*
Y113477D01*
X8657D01*
D02*
G37*
G36*
X8807Y113527D02*
Y113477D01*
X8858D01*
X8908D01*
X8958D01*
Y113527D01*
X8908D01*
X8858D01*
X8807D01*
D02*
G37*
G36*
X9159Y113377D02*
Y113327D01*
X9209D01*
Y113377D01*
X9159D01*
D02*
G37*
G36*
X9059Y113477D02*
Y113427D01*
X9109D01*
X9159D01*
X9209D01*
Y113477D01*
X9260D01*
Y113527D01*
X9209D01*
Y113477D01*
X9159D01*
X9109D01*
X9059D01*
D02*
G37*
G36*
X9260Y113427D02*
Y113377D01*
X9310D01*
X9360D01*
Y113427D01*
X9310D01*
X9260D01*
D02*
G37*
G36*
X9360Y113377D02*
Y113327D01*
X9410D01*
X9461D01*
Y113377D01*
X9410D01*
X9360D01*
D02*
G37*
G36*
X9662Y113929D02*
Y113879D01*
X9712D01*
Y113929D01*
X9662D01*
D02*
G37*
G36*
Y112071D02*
Y112020D01*
X9712D01*
Y112071D01*
X9662D01*
D02*
G37*
G36*
X9712Y112874D02*
Y112824D01*
X9762D01*
Y112874D01*
X9712D01*
D02*
G37*
G36*
X10365Y107700D02*
Y107650D01*
X10415D01*
Y107700D01*
X10365D01*
D02*
G37*
G36*
X10515Y110764D02*
Y110714D01*
X10566D01*
Y110764D01*
X10515D01*
D02*
G37*
G36*
X10666Y110815D02*
Y110764D01*
X10716D01*
Y110815D01*
X10666D01*
D02*
G37*
G36*
X10566Y107700D02*
Y107650D01*
X10616D01*
X10666D01*
X10716D01*
Y107700D01*
X10666D01*
X10616D01*
X10566D01*
D02*
G37*
G36*
X10867Y114030D02*
Y113929D01*
X10917D01*
Y114030D01*
X10867D01*
D02*
G37*
G36*
X10716Y107600D02*
Y107549D01*
X10767D01*
Y107600D01*
X10817D01*
X10867D01*
X10917D01*
Y107650D01*
X10867D01*
X10817D01*
X10767D01*
Y107600D01*
X10716D01*
D02*
G37*
G36*
X11018Y114030D02*
Y113979D01*
X11068D01*
Y114030D01*
X11018D01*
D02*
G37*
G36*
X11169Y112573D02*
Y112523D01*
X11219D01*
Y112573D01*
X11169D01*
D02*
G37*
G36*
X10917Y107600D02*
Y107549D01*
X10968D01*
X11018D01*
Y107499D01*
X11068D01*
X11118D01*
Y107449D01*
X11169D01*
X11219D01*
Y107399D01*
X11269D01*
X11319D01*
Y107449D01*
X11269D01*
Y107499D01*
X11219D01*
X11169D01*
Y107549D01*
X11118D01*
X11068D01*
Y107600D01*
X11018D01*
X10968D01*
X10917D01*
D02*
G37*
G36*
X11319Y113979D02*
Y113929D01*
X11370D01*
Y113979D01*
X11319D01*
D02*
G37*
G36*
X12475Y112221D02*
Y112171D01*
X12525D01*
Y112221D01*
X12475D01*
D02*
G37*
G36*
X12575Y112975D02*
Y112925D01*
X12625D01*
Y112975D01*
X12575D01*
D02*
G37*
G36*
X12676Y106344D02*
Y106293D01*
X12726D01*
Y106344D01*
X12676D01*
D02*
G37*
G36*
X12776Y105892D02*
Y105841D01*
X12826D01*
Y105892D01*
X12776D01*
D02*
G37*
G36*
X13429Y106143D02*
Y106093D01*
X13479D01*
Y106143D01*
X13429D01*
D02*
G37*
G36*
X13982Y105741D02*
Y105691D01*
X14032D01*
Y105741D01*
X13982D01*
D02*
G37*
%LPD*%
D23*
X59055Y4773D02*
D03*
D29*
X32965Y57362D02*
D03*
Y60748D02*
D03*
X13780Y29252D02*
D03*
Y25866D02*
D03*
Y37126D02*
D03*
Y33740D02*
D03*
X86614Y29803D02*
D03*
Y33189D02*
D03*
Y37677D02*
D03*
Y41063D02*
D03*
X90551Y37677D02*
D03*
Y41063D02*
D03*
X94488Y33189D02*
D03*
Y29803D02*
D03*
Y41063D02*
D03*
Y37677D02*
D03*
X90551Y29803D02*
D03*
Y33189D02*
D03*
X94488Y25315D02*
D03*
Y21929D02*
D03*
X86614D02*
D03*
Y25315D02*
D03*
X90551Y21929D02*
D03*
Y25315D02*
D03*
X72335Y60748D02*
D03*
Y57362D02*
D03*
X64461Y60748D02*
D03*
Y57362D02*
D03*
X60524Y60748D02*
D03*
Y57362D02*
D03*
X52650Y60748D02*
D03*
Y57362D02*
D03*
X44776Y60748D02*
D03*
Y57362D02*
D03*
D30*
X35157Y33465D02*
D03*
X31772D02*
D03*
X35157Y29528D02*
D03*
X31772D02*
D03*
X35157Y25591D02*
D03*
X31772D02*
D03*
X79016Y45276D02*
D03*
X82402D02*
D03*
X79016Y41339D02*
D03*
X82402D02*
D03*
X79016Y37402D02*
D03*
X82402D02*
D03*
X79016Y33465D02*
D03*
X82402D02*
D03*
X79016Y29528D02*
D03*
X82402D02*
D03*
X43031Y41339D02*
D03*
X39646D02*
D03*
X43031Y37402D02*
D03*
X39646D02*
D03*
X43031Y33465D02*
D03*
X39646D02*
D03*
X43031Y29528D02*
D03*
X39646D02*
D03*
X43031Y25591D02*
D03*
X39646D02*
D03*
X79016D02*
D03*
X82402D02*
D03*
X79016Y21654D02*
D03*
X82402D02*
D03*
X43031D02*
D03*
X39646D02*
D03*
X79016Y61417D02*
D03*
X82402D02*
D03*
X79016Y52756D02*
D03*
X82402D02*
D03*
X35157Y21654D02*
D03*
X31772D02*
D03*
X14055Y41339D02*
D03*
X17441D02*
D03*
X25315Y21654D02*
D03*
X21929D02*
D03*
X25315Y41339D02*
D03*
X21929D02*
D03*
X25315Y57087D02*
D03*
X21929D02*
D03*
D31*
X101575Y54134D02*
D03*
Y60039D02*
D03*
X25591Y52313D02*
D03*
Y46112D02*
D03*
D33*
X105512Y5512D02*
D03*
X102362D02*
D03*
X99212D02*
D03*
X96063D02*
D03*
X92913D02*
D03*
X89764D02*
D03*
X86614D02*
D03*
X83464D02*
D03*
X80315D02*
D03*
X77165D02*
D03*
X74016D02*
D03*
X70866D02*
D03*
X67716D02*
D03*
X64567D02*
D03*
X61417D02*
D03*
X58268D02*
D03*
X55118D02*
D03*
X51968D02*
D03*
X36220D02*
D03*
X33071D02*
D03*
X29921D02*
D03*
X26772D02*
D03*
X23622D02*
D03*
X20472D02*
D03*
X17323D02*
D03*
X14173D02*
D03*
D35*
X11417Y189173D02*
D03*
X106693D02*
D03*
D54*
X99134Y156299D02*
D03*
X18504D02*
D03*
D55*
X35433Y74803D02*
D03*
X40433D02*
D03*
X45433D02*
D03*
X50433D02*
D03*
X55433D02*
D03*
X60433D02*
D03*
X65433D02*
D03*
X70433D02*
D03*
D56*
X5906Y94488D02*
D03*
Y78740D02*
D03*
X112205D02*
D03*
Y94488D02*
D03*
X33465Y49213D02*
D03*
D57*
X72342Y23327D02*
D03*
Y51476D02*
D03*
X48720D02*
D03*
Y23327D02*
D03*
X72342Y48917D02*
D03*
Y25886D02*
D03*
X48720Y48917D02*
D03*
Y25886D02*
D03*
Y28445D02*
D03*
Y46358D02*
D03*
Y43799D02*
D03*
Y41240D02*
D03*
Y38681D02*
D03*
Y31004D02*
D03*
Y33563D02*
D03*
Y36122D02*
D03*
X72342Y28445D02*
D03*
Y46358D02*
D03*
Y43799D02*
D03*
Y41240D02*
D03*
Y38681D02*
D03*
Y31004D02*
D03*
Y33563D02*
D03*
Y36122D02*
D03*
D58*
X78937Y55610D02*
D03*
Y58563D02*
D03*
X82480Y57087D02*
D03*
X98622Y37894D02*
D03*
Y40846D02*
D03*
X102165Y39370D02*
D03*
X98622Y30020D02*
D03*
Y32972D02*
D03*
X102165Y31496D02*
D03*
X98622Y22146D02*
D03*
Y25098D02*
D03*
X102165Y23622D02*
D03*
D59*
X86417Y61024D02*
D03*
Y53150D02*
D03*
X96653Y57087D02*
D03*
D60*
X14764Y46063D02*
D03*
X20669D02*
D03*
X14764Y52362D02*
D03*
X20669D02*
D03*
D61*
X21654Y36614D02*
D03*
X25394D02*
D03*
X17913D02*
D03*
Y26378D02*
D03*
X21654D02*
D03*
X25394D02*
D03*
D62*
X68398Y60433D02*
D03*
Y57677D02*
D03*
X56587Y60433D02*
D03*
Y57677D02*
D03*
X48713Y60433D02*
D03*
Y57677D02*
D03*
X40839Y60433D02*
D03*
Y57677D02*
D03*
X36902Y60433D02*
D03*
Y57677D02*
D03*
M02*
