G04*
G04 #@! TF.GenerationSoftware,Altium Limited,Altium Designer,22.1.2 (22)*
G04*
G04 Layer_Color=32896*
%FSLAX25Y25*%
%MOIN*%
G70*
G04*
G04 #@! TF.SameCoordinates,3D425B39-A101-4537-954C-310EEB490880*
G04*
G04*
G04 #@! TF.FilePolarity,Positive*
G04*
G01*
G75*
%ADD11C,0.00394*%
%ADD12C,0.00197*%
%ADD38C,0.00787*%
%ADD63C,0.01000*%
G36*
X106637Y83258D02*
X107603Y83889D01*
Y83415D01*
X107001Y83016D01*
X107603Y82618D01*
Y82143D01*
X106637Y82775D01*
X105589Y82079D01*
Y82568D01*
X106270Y83016D01*
X105589Y83462D01*
Y83951D01*
X106637Y83258D01*
D02*
G37*
G36*
X107603Y80424D02*
X107262D01*
Y81020D01*
X105589D01*
Y81428D01*
X107262D01*
Y82021D01*
X107603D01*
Y80424D01*
D02*
G37*
G36*
X105284Y78768D02*
X105033D01*
Y80374D01*
X105284D01*
Y78768D01*
D02*
G37*
G36*
X107050Y78253D02*
X106841D01*
X106884Y78218D01*
X106919Y78183D01*
X106954Y78145D01*
X106980Y78107D01*
X107003Y78069D01*
X107024Y78032D01*
X107038Y77997D01*
X107053Y77962D01*
X107062Y77930D01*
X107070Y77901D01*
X107073Y77872D01*
X107079Y77851D01*
Y77831D01*
X107082Y77816D01*
Y77805D01*
X107079Y77758D01*
X107073Y77711D01*
X107065Y77668D01*
X107053Y77624D01*
X107021Y77551D01*
X107003Y77517D01*
X106986Y77487D01*
X106966Y77458D01*
X106948Y77435D01*
X106934Y77415D01*
X106919Y77397D01*
X106904Y77383D01*
X106896Y77374D01*
X106890Y77368D01*
X106887Y77365D01*
X106849Y77333D01*
X106808Y77307D01*
X106762Y77284D01*
X106718Y77263D01*
X106672Y77249D01*
X106625Y77234D01*
X106532Y77214D01*
X106491Y77205D01*
X106450Y77199D01*
X106416Y77196D01*
X106386Y77193D01*
X106360Y77191D01*
X106343D01*
X106328D01*
X106325D01*
X106273Y77193D01*
X106221Y77196D01*
X106128Y77211D01*
X106084Y77223D01*
X106043Y77234D01*
X106005Y77246D01*
X105973Y77258D01*
X105941Y77269D01*
X105915Y77281D01*
X105892Y77292D01*
X105871Y77304D01*
X105857Y77313D01*
X105845Y77319D01*
X105839Y77324D01*
X105836D01*
X105793Y77359D01*
X105755Y77394D01*
X105723Y77432D01*
X105694Y77470D01*
X105671Y77508D01*
X105650Y77548D01*
X105633Y77586D01*
X105621Y77621D01*
X105610Y77656D01*
X105604Y77688D01*
X105598Y77717D01*
X105592Y77741D01*
Y77761D01*
X105589Y77778D01*
Y77790D01*
X105592Y77839D01*
X105601Y77886D01*
X105613Y77930D01*
X105627Y77970D01*
X105665Y78043D01*
X105685Y78078D01*
X105709Y78107D01*
X105729Y78133D01*
X105749Y78160D01*
X105770Y78180D01*
X105787Y78195D01*
X105805Y78209D01*
X105816Y78218D01*
X105822Y78224D01*
X105825Y78227D01*
X105613D01*
X105569D01*
X105531Y78224D01*
X105502Y78221D01*
X105479Y78218D01*
X105458Y78212D01*
X105447Y78209D01*
X105441Y78206D01*
X105438D01*
X105415Y78195D01*
X105394Y78183D01*
X105377Y78171D01*
X105362Y78160D01*
X105351Y78148D01*
X105345Y78139D01*
X105342Y78133D01*
X105339Y78131D01*
X105324Y78098D01*
X105313Y78064D01*
X105304Y78026D01*
X105298Y77988D01*
X105295Y77956D01*
X105292Y77930D01*
Y77903D01*
X105295Y77863D01*
X105298Y77828D01*
X105307Y77799D01*
X105316Y77776D01*
X105322Y77755D01*
X105330Y77744D01*
X105333Y77735D01*
X105336Y77732D01*
X105348Y77717D01*
X105365Y77706D01*
X105400Y77691D01*
X105415Y77688D01*
X105429Y77685D01*
X105438Y77682D01*
X105441D01*
X105493Y77240D01*
X105476Y77237D01*
X105461D01*
X105449D01*
X105447D01*
X105412Y77240D01*
X105377Y77243D01*
X105313Y77260D01*
X105257Y77287D01*
X105211Y77316D01*
X105173Y77342D01*
X105147Y77368D01*
X105129Y77386D01*
X105127Y77389D01*
X105124Y77391D01*
X105100Y77423D01*
X105083Y77458D01*
X105065Y77499D01*
X105051Y77540D01*
X105027Y77627D01*
X105013Y77714D01*
X105007Y77755D01*
X105001Y77793D01*
X104999Y77828D01*
Y77857D01*
X104996Y77883D01*
Y77918D01*
X104999Y77988D01*
X105001Y78052D01*
X105010Y78107D01*
X105019Y78157D01*
X105025Y78195D01*
X105033Y78221D01*
X105036Y78238D01*
X105039Y78244D01*
X105057Y78291D01*
X105074Y78331D01*
X105095Y78366D01*
X105112Y78395D01*
X105127Y78416D01*
X105141Y78433D01*
X105150Y78445D01*
X105153Y78448D01*
X105182Y78477D01*
X105214Y78500D01*
X105249Y78521D01*
X105281Y78538D01*
X105310Y78553D01*
X105333Y78561D01*
X105348Y78567D01*
X105353Y78570D01*
X105380Y78579D01*
X105406Y78584D01*
X105467Y78596D01*
X105531Y78602D01*
X105595Y78608D01*
X105650Y78611D01*
X105674Y78614D01*
X105697D01*
X105714D01*
X105726D01*
X105735D01*
X105738D01*
X107050D01*
Y78253D01*
D02*
G37*
G36*
X106401Y76967D02*
X106462Y76961D01*
X106520Y76952D01*
X106573Y76943D01*
X106622Y76929D01*
X106669Y76914D01*
X106710Y76897D01*
X106747Y76882D01*
X106779Y76865D01*
X106808Y76847D01*
X106832Y76833D01*
X106852Y76821D01*
X106867Y76809D01*
X106878Y76801D01*
X106884Y76795D01*
X106887Y76792D01*
X106922Y76757D01*
X106951Y76722D01*
X106977Y76687D01*
X107001Y76649D01*
X107018Y76612D01*
X107035Y76577D01*
X107059Y76507D01*
X107065Y76472D01*
X107070Y76443D01*
X107076Y76416D01*
X107079Y76393D01*
X107082Y76376D01*
Y76350D01*
X107079Y76306D01*
X107073Y76262D01*
X107065Y76219D01*
X107050Y76181D01*
X107018Y76108D01*
X106980Y76047D01*
X106963Y76021D01*
X106942Y75998D01*
X106925Y75977D01*
X106910Y75960D01*
X106896Y75945D01*
X106887Y75936D01*
X106881Y75931D01*
X106878Y75928D01*
X107603D01*
Y75541D01*
X105589D01*
Y75899D01*
X105802D01*
X105758Y75933D01*
X105720Y75968D01*
X105691Y76003D01*
X105665Y76035D01*
X105645Y76064D01*
X105630Y76088D01*
X105621Y76102D01*
X105618Y76108D01*
X105598Y76155D01*
X105583Y76198D01*
X105572Y76239D01*
X105566Y76277D01*
X105560Y76309D01*
X105557Y76335D01*
Y76355D01*
X105560Y76402D01*
X105566Y76449D01*
X105575Y76489D01*
X105589Y76530D01*
X105621Y76606D01*
X105639Y76638D01*
X105659Y76670D01*
X105676Y76696D01*
X105694Y76719D01*
X105711Y76740D01*
X105726Y76757D01*
X105740Y76772D01*
X105749Y76780D01*
X105755Y76786D01*
X105758Y76789D01*
X105799Y76821D01*
X105839Y76847D01*
X105886Y76873D01*
X105933Y76894D01*
X105982Y76911D01*
X106029Y76926D01*
X106122Y76946D01*
X106165Y76955D01*
X106206Y76961D01*
X106241Y76964D01*
X106273Y76967D01*
X106299Y76969D01*
X106317D01*
X106331D01*
X106334D01*
X106401Y76967D01*
D02*
G37*
G36*
X106677Y75212D02*
X106768Y75203D01*
X106811Y75200D01*
X106849Y75194D01*
X106887Y75188D01*
X106919Y75183D01*
X106948Y75174D01*
X106974Y75168D01*
X106998Y75162D01*
X107015Y75159D01*
X107030Y75154D01*
X107041Y75151D01*
X107047Y75148D01*
X107050D01*
X107120Y75122D01*
X107184Y75090D01*
X107239Y75058D01*
X107286Y75026D01*
X107324Y74999D01*
X107353Y74976D01*
X107370Y74962D01*
X107376Y74959D01*
Y74956D01*
X107422Y74906D01*
X107460Y74857D01*
X107492Y74804D01*
X107518Y74758D01*
X107539Y74717D01*
X107553Y74682D01*
X107556Y74670D01*
X107559Y74662D01*
X107562Y74656D01*
Y74653D01*
X107577Y74598D01*
X107585Y74537D01*
X107594Y74473D01*
X107597Y74411D01*
X107600Y74356D01*
X107603Y74333D01*
Y73530D01*
X105589D01*
Y74292D01*
X105592Y74371D01*
X105595Y74444D01*
X105601Y74505D01*
X105610Y74554D01*
X105618Y74595D01*
X105624Y74627D01*
X105627Y74636D01*
Y74644D01*
X105630Y74647D01*
Y74650D01*
X105653Y74714D01*
X105679Y74772D01*
X105706Y74819D01*
X105732Y74860D01*
X105755Y74892D01*
X105772Y74915D01*
X105784Y74929D01*
X105790Y74935D01*
X105845Y74985D01*
X105903Y75029D01*
X105965Y75066D01*
X106020Y75095D01*
X106072Y75119D01*
X106093Y75130D01*
X106110Y75136D01*
X106128Y75142D01*
X106139Y75148D01*
X106145Y75151D01*
X106148D01*
X106218Y75171D01*
X106290Y75188D01*
X106360Y75200D01*
X106427Y75206D01*
X106459Y75209D01*
X106488Y75212D01*
X106512D01*
X106535Y75215D01*
X106552D01*
X106564D01*
X106573D01*
X106576D01*
X106677Y75212D01*
D02*
G37*
G36*
X106637Y99162D02*
X107603Y99793D01*
Y99319D01*
X107001Y98920D01*
X107603Y98522D01*
Y98047D01*
X106637Y98679D01*
X105589Y97983D01*
Y98472D01*
X106270Y98920D01*
X105589Y99365D01*
Y99854D01*
X106637Y99162D01*
D02*
G37*
G36*
X105982Y97721D02*
X106023Y97695D01*
X106063Y97669D01*
X106098Y97645D01*
X106130Y97622D01*
X106159Y97602D01*
X106189Y97584D01*
X106232Y97549D01*
X106267Y97523D01*
X106290Y97506D01*
X106305Y97491D01*
X106308Y97488D01*
X106343Y97456D01*
X106375Y97419D01*
X106401Y97384D01*
X106427Y97349D01*
X106448Y97320D01*
X106462Y97296D01*
X106474Y97279D01*
X106477Y97276D01*
Y97273D01*
X106485Y97322D01*
X106497Y97366D01*
X106509Y97407D01*
X106523Y97448D01*
X106538Y97483D01*
X106552Y97515D01*
X106567Y97547D01*
X106584Y97573D01*
X106599Y97596D01*
X106614Y97616D01*
X106628Y97634D01*
X106640Y97645D01*
X106648Y97657D01*
X106657Y97666D01*
X106660Y97669D01*
X106663Y97672D01*
X106692Y97695D01*
X106721Y97715D01*
X106785Y97750D01*
X106846Y97774D01*
X106907Y97788D01*
X106960Y97800D01*
X106980Y97803D01*
X107001D01*
X107015Y97806D01*
X107030D01*
X107035D01*
X107038D01*
X107102Y97803D01*
X107164Y97791D01*
X107216Y97777D01*
X107262Y97762D01*
X107300Y97745D01*
X107329Y97730D01*
X107338Y97724D01*
X107347Y97718D01*
X107350Y97715D01*
X107353D01*
X107402Y97680D01*
X107443Y97643D01*
X107475Y97605D01*
X107504Y97567D01*
X107521Y97532D01*
X107536Y97506D01*
X107545Y97488D01*
X107548Y97486D01*
Y97483D01*
X107556Y97453D01*
X107565Y97421D01*
X107580Y97349D01*
X107588Y97270D01*
X107597Y97194D01*
Y97157D01*
X107600Y97125D01*
Y97093D01*
X107603Y97066D01*
Y96158D01*
X105589D01*
Y96566D01*
X106430D01*
Y96697D01*
X106427Y96738D01*
X106424Y96772D01*
X106419Y96802D01*
X106416Y96825D01*
X106410Y96839D01*
X106407Y96848D01*
Y96851D01*
X106395Y96874D01*
X106384Y96898D01*
X106369Y96918D01*
X106357Y96938D01*
X106343Y96953D01*
X106331Y96965D01*
X106325Y96970D01*
X106323Y96973D01*
X106308Y96985D01*
X106293Y97000D01*
X106250Y97031D01*
X106203Y97066D01*
X106151Y97104D01*
X106104Y97136D01*
X106081Y97151D01*
X106063Y97162D01*
X106049Y97174D01*
X106037Y97183D01*
X106029Y97186D01*
X106026Y97189D01*
X105589Y97480D01*
Y97969D01*
X105982Y97721D01*
D02*
G37*
G36*
X105284Y94360D02*
X105033D01*
Y95967D01*
X105284D01*
Y94360D01*
D02*
G37*
G36*
X107050Y93845D02*
X106841D01*
X106884Y93810D01*
X106919Y93775D01*
X106954Y93737D01*
X106980Y93700D01*
X107003Y93662D01*
X107024Y93624D01*
X107038Y93589D01*
X107053Y93554D01*
X107062Y93522D01*
X107070Y93493D01*
X107073Y93464D01*
X107079Y93444D01*
Y93423D01*
X107082Y93409D01*
Y93397D01*
X107079Y93350D01*
X107073Y93304D01*
X107064Y93260D01*
X107053Y93217D01*
X107021Y93144D01*
X107003Y93109D01*
X106986Y93080D01*
X106966Y93051D01*
X106948Y93027D01*
X106934Y93007D01*
X106919Y92989D01*
X106904Y92975D01*
X106896Y92966D01*
X106890Y92960D01*
X106887Y92958D01*
X106849Y92926D01*
X106808Y92899D01*
X106762Y92876D01*
X106718Y92856D01*
X106672Y92841D01*
X106625Y92827D01*
X106532Y92806D01*
X106491Y92797D01*
X106450Y92792D01*
X106416Y92789D01*
X106386Y92786D01*
X106360Y92783D01*
X106343D01*
X106328D01*
X106325D01*
X106273Y92786D01*
X106221Y92789D01*
X106128Y92803D01*
X106084Y92815D01*
X106043Y92827D01*
X106005Y92838D01*
X105973Y92850D01*
X105941Y92861D01*
X105915Y92873D01*
X105892Y92885D01*
X105871Y92896D01*
X105857Y92905D01*
X105845Y92911D01*
X105839Y92917D01*
X105836D01*
X105793Y92952D01*
X105755Y92987D01*
X105723Y93024D01*
X105694Y93062D01*
X105671Y93100D01*
X105650Y93141D01*
X105633Y93179D01*
X105621Y93214D01*
X105610Y93248D01*
X105604Y93281D01*
X105598Y93310D01*
X105592Y93333D01*
Y93353D01*
X105589Y93371D01*
Y93382D01*
X105592Y93432D01*
X105601Y93478D01*
X105612Y93522D01*
X105627Y93563D01*
X105665Y93636D01*
X105685Y93670D01*
X105709Y93700D01*
X105729Y93726D01*
X105749Y93752D01*
X105770Y93772D01*
X105787Y93787D01*
X105805Y93801D01*
X105816Y93810D01*
X105822Y93816D01*
X105825Y93819D01*
X105612D01*
X105569D01*
X105531Y93816D01*
X105502Y93813D01*
X105479Y93810D01*
X105458Y93804D01*
X105447Y93801D01*
X105441Y93799D01*
X105438D01*
X105415Y93787D01*
X105394Y93775D01*
X105377Y93764D01*
X105362Y93752D01*
X105350Y93740D01*
X105345Y93732D01*
X105342Y93726D01*
X105339Y93723D01*
X105324Y93691D01*
X105313Y93656D01*
X105304Y93618D01*
X105298Y93580D01*
X105295Y93548D01*
X105292Y93522D01*
Y93496D01*
X105295Y93455D01*
X105298Y93420D01*
X105307Y93391D01*
X105316Y93368D01*
X105322Y93348D01*
X105330Y93336D01*
X105333Y93327D01*
X105336Y93324D01*
X105348Y93310D01*
X105365Y93298D01*
X105400Y93283D01*
X105415Y93281D01*
X105429Y93278D01*
X105438Y93275D01*
X105441D01*
X105493Y92832D01*
X105476Y92830D01*
X105461D01*
X105449D01*
X105447D01*
X105412Y92832D01*
X105377Y92835D01*
X105313Y92853D01*
X105257Y92879D01*
X105211Y92908D01*
X105173Y92934D01*
X105147Y92960D01*
X105129Y92978D01*
X105127Y92981D01*
X105124Y92984D01*
X105100Y93016D01*
X105083Y93051D01*
X105065Y93091D01*
X105051Y93132D01*
X105027Y93219D01*
X105013Y93307D01*
X105007Y93348D01*
X105001Y93385D01*
X104998Y93420D01*
Y93449D01*
X104996Y93476D01*
Y93510D01*
X104998Y93580D01*
X105001Y93644D01*
X105010Y93700D01*
X105019Y93749D01*
X105025Y93787D01*
X105033Y93813D01*
X105036Y93831D01*
X105039Y93836D01*
X105057Y93883D01*
X105074Y93924D01*
X105095Y93959D01*
X105112Y93988D01*
X105127Y94008D01*
X105141Y94025D01*
X105150Y94037D01*
X105153Y94040D01*
X105182Y94069D01*
X105214Y94092D01*
X105249Y94113D01*
X105281Y94130D01*
X105310Y94145D01*
X105333Y94153D01*
X105348Y94159D01*
X105353Y94162D01*
X105380Y94171D01*
X105406Y94177D01*
X105467Y94188D01*
X105531Y94194D01*
X105595Y94200D01*
X105650Y94203D01*
X105674Y94206D01*
X105697D01*
X105714D01*
X105726D01*
X105735D01*
X105738D01*
X107050D01*
Y93845D01*
D02*
G37*
G36*
X106401Y92559D02*
X106462Y92553D01*
X106520Y92544D01*
X106573Y92536D01*
X106622Y92521D01*
X106669Y92506D01*
X106710Y92489D01*
X106747Y92475D01*
X106779Y92457D01*
X106808Y92440D01*
X106832Y92425D01*
X106852Y92413D01*
X106867Y92402D01*
X106878Y92393D01*
X106884Y92387D01*
X106887Y92384D01*
X106922Y92349D01*
X106951Y92314D01*
X106977Y92279D01*
X107001Y92242D01*
X107018Y92204D01*
X107035Y92169D01*
X107059Y92099D01*
X107064Y92064D01*
X107070Y92035D01*
X107076Y92009D01*
X107079Y91986D01*
X107082Y91968D01*
Y91942D01*
X107079Y91898D01*
X107073Y91855D01*
X107064Y91811D01*
X107050Y91773D01*
X107018Y91700D01*
X106980Y91639D01*
X106963Y91613D01*
X106942Y91590D01*
X106925Y91570D01*
X106910Y91552D01*
X106896Y91537D01*
X106887Y91529D01*
X106881Y91523D01*
X106878Y91520D01*
X107603D01*
Y91133D01*
X105589D01*
Y91491D01*
X105802D01*
X105758Y91526D01*
X105720Y91561D01*
X105691Y91596D01*
X105665Y91628D01*
X105645Y91657D01*
X105630Y91680D01*
X105621Y91695D01*
X105618Y91700D01*
X105598Y91747D01*
X105583Y91791D01*
X105572Y91831D01*
X105566Y91869D01*
X105560Y91901D01*
X105557Y91927D01*
Y91948D01*
X105560Y91994D01*
X105566Y92041D01*
X105575Y92082D01*
X105589Y92122D01*
X105621Y92198D01*
X105639Y92230D01*
X105659Y92262D01*
X105676Y92288D01*
X105694Y92312D01*
X105711Y92332D01*
X105726Y92349D01*
X105740Y92364D01*
X105749Y92373D01*
X105755Y92378D01*
X105758Y92381D01*
X105799Y92413D01*
X105839Y92440D01*
X105886Y92466D01*
X105932Y92486D01*
X105982Y92504D01*
X106029Y92518D01*
X106122Y92538D01*
X106165Y92547D01*
X106206Y92553D01*
X106241Y92556D01*
X106273Y92559D01*
X106299Y92562D01*
X106317D01*
X106331D01*
X106334D01*
X106401Y92559D01*
D02*
G37*
G36*
X106677Y90804D02*
X106768Y90795D01*
X106811Y90793D01*
X106849Y90787D01*
X106887Y90781D01*
X106919Y90775D01*
X106948Y90766D01*
X106974Y90760D01*
X106998Y90755D01*
X107015Y90752D01*
X107030Y90746D01*
X107041Y90743D01*
X107047Y90740D01*
X107050D01*
X107120Y90714D01*
X107184Y90682D01*
X107239Y90650D01*
X107286Y90618D01*
X107324Y90592D01*
X107353Y90568D01*
X107370Y90554D01*
X107376Y90551D01*
Y90548D01*
X107422Y90499D01*
X107460Y90449D01*
X107492Y90397D01*
X107518Y90350D01*
X107539Y90309D01*
X107553Y90275D01*
X107556Y90263D01*
X107559Y90254D01*
X107562Y90248D01*
Y90245D01*
X107577Y90190D01*
X107585Y90129D01*
X107594Y90065D01*
X107597Y90004D01*
X107600Y89949D01*
X107603Y89925D01*
Y89122D01*
X105589D01*
Y89885D01*
X105592Y89963D01*
X105595Y90036D01*
X105601Y90097D01*
X105610Y90146D01*
X105618Y90187D01*
X105624Y90219D01*
X105627Y90228D01*
Y90237D01*
X105630Y90240D01*
Y90242D01*
X105653Y90307D01*
X105679Y90365D01*
X105706Y90411D01*
X105732Y90452D01*
X105755Y90484D01*
X105772Y90507D01*
X105784Y90522D01*
X105790Y90528D01*
X105845Y90577D01*
X105903Y90621D01*
X105965Y90659D01*
X106020Y90688D01*
X106072Y90711D01*
X106093Y90723D01*
X106110Y90728D01*
X106128Y90734D01*
X106139Y90740D01*
X106145Y90743D01*
X106148D01*
X106218Y90763D01*
X106290Y90781D01*
X106360Y90793D01*
X106427Y90798D01*
X106459Y90801D01*
X106488Y90804D01*
X106512D01*
X106535Y90807D01*
X106552D01*
X106564D01*
X106573D01*
X106576D01*
X106677Y90804D01*
D02*
G37*
G36*
X12130Y83596D02*
X13096Y84227D01*
Y83753D01*
X12493Y83354D01*
X13096Y82955D01*
Y82481D01*
X12130Y83113D01*
X11082Y82417D01*
Y82906D01*
X11763Y83354D01*
X11082Y83799D01*
Y84288D01*
X12130Y83596D01*
D02*
G37*
G36*
X13096Y80761D02*
X12755D01*
Y81358D01*
X11082D01*
Y81765D01*
X12755D01*
Y82359D01*
X13096D01*
Y80761D01*
D02*
G37*
G36*
X10776Y79105D02*
X10526D01*
Y80712D01*
X10776D01*
Y79105D01*
D02*
G37*
G36*
X12130Y78433D02*
X13096Y79065D01*
Y78590D01*
X12493Y78192D01*
X13096Y77793D01*
Y77319D01*
X12130Y77950D01*
X11082Y77255D01*
Y77744D01*
X11763Y78192D01*
X11082Y78637D01*
Y79126D01*
X12130Y78433D01*
D02*
G37*
G36*
X13096Y76623D02*
X11978D01*
X11935D01*
X11894D01*
X11856Y76620D01*
X11821D01*
X11792Y76617D01*
X11763D01*
X11737Y76614D01*
X11714D01*
X11679Y76609D01*
X11652Y76606D01*
X11638Y76603D01*
X11632D01*
X11594Y76594D01*
X11562Y76579D01*
X11533Y76562D01*
X11507Y76545D01*
X11487Y76527D01*
X11472Y76513D01*
X11463Y76501D01*
X11460Y76498D01*
X11437Y76463D01*
X11420Y76420D01*
X11408Y76379D01*
X11399Y76335D01*
X11393Y76297D01*
X11390Y76268D01*
Y76239D01*
X11393Y76178D01*
X11402Y76126D01*
X11414Y76079D01*
X11428Y76038D01*
X11440Y76009D01*
X11452Y75986D01*
X11460Y75974D01*
X11463Y75968D01*
X11492Y75936D01*
X11527Y75910D01*
X11559Y75887D01*
X11591Y75872D01*
X11620Y75861D01*
X11644Y75852D01*
X11658Y75846D01*
X11664D01*
X11682Y75843D01*
X11699Y75840D01*
X11722D01*
X11749Y75837D01*
X11804Y75835D01*
X11862D01*
X11914Y75832D01*
X11938D01*
X11961D01*
X11978D01*
X11990D01*
X11999D01*
X12002D01*
X13096D01*
Y75424D01*
X12019D01*
X11958D01*
X11900Y75427D01*
X11845D01*
X11795Y75430D01*
X11749Y75433D01*
X11708Y75436D01*
X11670Y75439D01*
X11635Y75445D01*
X11606Y75447D01*
X11580Y75450D01*
X11556Y75453D01*
X11539Y75456D01*
X11524Y75459D01*
X11516D01*
X11510Y75462D01*
X11507D01*
X11463Y75477D01*
X11423Y75491D01*
X11385Y75511D01*
X11353Y75529D01*
X11324Y75546D01*
X11300Y75561D01*
X11289Y75573D01*
X11283Y75576D01*
X11245Y75611D01*
X11210Y75648D01*
X11181Y75689D01*
X11155Y75727D01*
X11134Y75759D01*
X11120Y75788D01*
X11111Y75805D01*
X11108Y75808D01*
Y75811D01*
X11097Y75840D01*
X11088Y75872D01*
X11070Y75945D01*
X11059Y76018D01*
X11053Y76088D01*
X11050Y76120D01*
X11047Y76152D01*
Y76178D01*
X11044Y76204D01*
Y76251D01*
X11047Y76335D01*
X11053Y76411D01*
X11065Y76478D01*
X11076Y76533D01*
X11079Y76556D01*
X11085Y76579D01*
X11091Y76597D01*
X11097Y76612D01*
X11100Y76623D01*
X11102Y76632D01*
X11105Y76635D01*
Y76638D01*
X11129Y76690D01*
X11158Y76737D01*
X11184Y76777D01*
X11210Y76812D01*
X11233Y76838D01*
X11251Y76859D01*
X11263Y76871D01*
X11268Y76873D01*
X11309Y76905D01*
X11353Y76932D01*
X11393Y76952D01*
X11434Y76969D01*
X11469Y76981D01*
X11498Y76990D01*
X11507Y76993D01*
X11516D01*
X11519Y76996D01*
X11522D01*
X11553Y77002D01*
X11588Y77007D01*
X11626Y77013D01*
X11664Y77016D01*
X11751Y77022D01*
X11836Y77028D01*
X11874D01*
X11911D01*
X11946Y77031D01*
X11975D01*
X11999D01*
X12019D01*
X12031D01*
X12034D01*
X13096D01*
Y76623D01*
D02*
G37*
G36*
Y74403D02*
Y73972D01*
X11082Y73192D01*
Y73623D01*
X11539Y73789D01*
Y74598D01*
X11082Y74772D01*
Y75212D01*
X13096Y74403D01*
D02*
G37*
G36*
X42345Y50870D02*
X42005D01*
Y51466D01*
X40332D01*
Y51874D01*
X42005D01*
Y52468D01*
X42345D01*
Y50870D01*
D02*
G37*
G36*
X41426Y50689D02*
X41510Y50681D01*
X41589Y50669D01*
X41664Y50652D01*
X41731Y50631D01*
X41795Y50608D01*
X41854Y50585D01*
X41903Y50559D01*
X41950Y50532D01*
X41990Y50509D01*
X42025Y50486D01*
X42054Y50465D01*
X42075Y50451D01*
X42092Y50436D01*
X42101Y50428D01*
X42104Y50425D01*
X42153Y50372D01*
X42197Y50317D01*
X42235Y50259D01*
X42267Y50201D01*
X42293Y50139D01*
X42316Y50081D01*
X42334Y50023D01*
X42348Y49968D01*
X42360Y49915D01*
X42369Y49866D01*
X42375Y49822D01*
X42380Y49784D01*
Y49755D01*
X42383Y49732D01*
Y49712D01*
X42380Y49624D01*
X42372Y49540D01*
X42357Y49467D01*
X42342Y49403D01*
X42334Y49377D01*
X42328Y49351D01*
X42322Y49330D01*
X42313Y49313D01*
X42311Y49299D01*
X42305Y49287D01*
X42302Y49281D01*
Y49278D01*
X42279Y49226D01*
X42249Y49176D01*
X42217Y49133D01*
X42188Y49095D01*
X42162Y49063D01*
X42139Y49037D01*
X42124Y49022D01*
X42121Y49019D01*
X42118Y49016D01*
X42072Y48976D01*
X42022Y48938D01*
X41979Y48906D01*
X41935Y48879D01*
X41897Y48859D01*
X41868Y48842D01*
X41857Y48839D01*
X41848Y48833D01*
X41845Y48830D01*
X41842D01*
X41761Y48801D01*
X41673Y48778D01*
X41586Y48763D01*
X41504Y48751D01*
X41467Y48748D01*
X41432Y48746D01*
X41403Y48743D01*
X41376D01*
X41353Y48740D01*
X41339D01*
X41327D01*
X41324D01*
X41237Y48743D01*
X41152Y48751D01*
X41074Y48763D01*
X41001Y48781D01*
X40934Y48801D01*
X40873Y48824D01*
X40815Y48847D01*
X40765Y48874D01*
X40719Y48897D01*
X40681Y48920D01*
X40646Y48943D01*
X40617Y48964D01*
X40597Y48981D01*
X40579Y48993D01*
X40570Y49002D01*
X40567Y49005D01*
X40518Y49057D01*
X40477Y49112D01*
X40439Y49167D01*
X40410Y49229D01*
X40384Y49287D01*
X40361Y49348D01*
X40343Y49403D01*
X40329Y49461D01*
X40317Y49514D01*
X40308Y49563D01*
X40303Y49607D01*
X40300Y49645D01*
X40297Y49674D01*
X40294Y49697D01*
Y49718D01*
X40297Y49799D01*
X40306Y49875D01*
X40320Y49947D01*
X40337Y50014D01*
X40358Y50078D01*
X40381Y50137D01*
X40404Y50189D01*
X40431Y50238D01*
X40457Y50279D01*
X40480Y50317D01*
X40503Y50349D01*
X40524Y50375D01*
X40541Y50398D01*
X40556Y50413D01*
X40565Y50422D01*
X40567Y50425D01*
X40623Y50471D01*
X40681Y50512D01*
X40742Y50550D01*
X40803Y50579D01*
X40867Y50605D01*
X40931Y50628D01*
X40995Y50646D01*
X41056Y50660D01*
X41112Y50669D01*
X41167Y50678D01*
X41214Y50684D01*
X41254Y50689D01*
X41289D01*
X41315Y50692D01*
X41330D01*
X41336D01*
X41426Y50689D01*
D02*
G37*
G36*
X42345Y48027D02*
X40332D01*
Y48434D01*
X42345D01*
Y48027D01*
D02*
G37*
G36*
Y47401D02*
X40856Y46909D01*
X42345Y46397D01*
Y45958D01*
X40332Y46679D01*
Y47119D01*
X42345Y47835D01*
Y47401D01*
D02*
G37*
G36*
X12130Y99499D02*
X13096Y100131D01*
Y99656D01*
X12493Y99258D01*
X13096Y98859D01*
Y98385D01*
X12130Y99016D01*
X11082Y98321D01*
Y98809D01*
X11763Y99258D01*
X11082Y99703D01*
Y100192D01*
X12130Y99499D01*
D02*
G37*
G36*
X11475Y98059D02*
X11516Y98033D01*
X11556Y98006D01*
X11591Y97983D01*
X11623Y97960D01*
X11652Y97939D01*
X11682Y97922D01*
X11725Y97887D01*
X11760Y97861D01*
X11783Y97843D01*
X11798Y97829D01*
X11801Y97826D01*
X11836Y97794D01*
X11868Y97756D01*
X11894Y97721D01*
X11920Y97686D01*
X11941Y97657D01*
X11955Y97634D01*
X11967Y97616D01*
X11970Y97614D01*
Y97611D01*
X11978Y97660D01*
X11990Y97704D01*
X12002Y97745D01*
X12016Y97785D01*
X12031Y97820D01*
X12045Y97852D01*
X12060Y97884D01*
X12077Y97910D01*
X12092Y97934D01*
X12106Y97954D01*
X12121Y97971D01*
X12133Y97983D01*
X12141Y97995D01*
X12150Y98004D01*
X12153Y98006D01*
X12156Y98009D01*
X12185Y98033D01*
X12214Y98053D01*
X12278Y98088D01*
X12339Y98111D01*
X12400Y98126D01*
X12453Y98137D01*
X12473Y98140D01*
X12493D01*
X12508Y98143D01*
X12522D01*
X12528D01*
X12531D01*
X12595Y98140D01*
X12656Y98129D01*
X12709Y98114D01*
X12755Y98099D01*
X12793Y98082D01*
X12822Y98067D01*
X12831Y98062D01*
X12840Y98056D01*
X12843Y98053D01*
X12845D01*
X12895Y98018D01*
X12936Y97980D01*
X12968Y97942D01*
X12997Y97904D01*
X13014Y97870D01*
X13029Y97843D01*
X13038Y97826D01*
X13040Y97823D01*
Y97820D01*
X13049Y97791D01*
X13058Y97759D01*
X13072Y97686D01*
X13081Y97608D01*
X13090Y97532D01*
Y97494D01*
X13093Y97462D01*
Y97430D01*
X13096Y97404D01*
Y96496D01*
X11082D01*
Y96904D01*
X11923D01*
Y97034D01*
X11920Y97075D01*
X11917Y97110D01*
X11911Y97139D01*
X11908Y97162D01*
X11903Y97177D01*
X11900Y97186D01*
Y97189D01*
X11888Y97212D01*
X11876Y97235D01*
X11862Y97256D01*
X11850Y97276D01*
X11836Y97290D01*
X11824Y97302D01*
X11818Y97308D01*
X11815Y97311D01*
X11801Y97322D01*
X11786Y97337D01*
X11743Y97369D01*
X11696Y97404D01*
X11644Y97442D01*
X11597Y97474D01*
X11574Y97488D01*
X11556Y97500D01*
X11542Y97512D01*
X11530Y97520D01*
X11522Y97523D01*
X11519Y97526D01*
X11082Y97817D01*
Y98306D01*
X11475Y98059D01*
D02*
G37*
G36*
X10776Y94698D02*
X10526D01*
Y96304D01*
X10776D01*
Y94698D01*
D02*
G37*
G36*
X12130Y94025D02*
X13096Y94657D01*
Y94183D01*
X12493Y93784D01*
X13096Y93385D01*
Y92911D01*
X12130Y93542D01*
X11082Y92847D01*
Y93336D01*
X11763Y93784D01*
X11082Y94229D01*
Y94718D01*
X12130Y94025D01*
D02*
G37*
G36*
X13096Y92216D02*
X11978D01*
X11935D01*
X11894D01*
X11856Y92213D01*
X11821D01*
X11792Y92210D01*
X11763D01*
X11737Y92207D01*
X11714D01*
X11679Y92201D01*
X11652Y92198D01*
X11638Y92195D01*
X11632D01*
X11594Y92186D01*
X11562Y92172D01*
X11533Y92154D01*
X11507Y92137D01*
X11487Y92119D01*
X11472Y92105D01*
X11463Y92093D01*
X11460Y92090D01*
X11437Y92055D01*
X11420Y92012D01*
X11408Y91971D01*
X11399Y91927D01*
X11393Y91890D01*
X11390Y91861D01*
Y91831D01*
X11393Y91770D01*
X11402Y91718D01*
X11414Y91671D01*
X11428Y91631D01*
X11440Y91602D01*
X11452Y91578D01*
X11460Y91566D01*
X11463Y91561D01*
X11492Y91529D01*
X11527Y91502D01*
X11559Y91479D01*
X11591Y91465D01*
X11620Y91453D01*
X11644Y91444D01*
X11658Y91439D01*
X11664D01*
X11682Y91436D01*
X11699Y91433D01*
X11722D01*
X11749Y91430D01*
X11804Y91427D01*
X11862D01*
X11914Y91424D01*
X11938D01*
X11961D01*
X11978D01*
X11990D01*
X11999D01*
X12002D01*
X13096D01*
Y91017D01*
X12019D01*
X11958D01*
X11900Y91019D01*
X11845D01*
X11795Y91022D01*
X11749Y91025D01*
X11708Y91028D01*
X11670Y91031D01*
X11635Y91037D01*
X11606Y91040D01*
X11580Y91043D01*
X11556Y91046D01*
X11539Y91049D01*
X11524Y91052D01*
X11516D01*
X11510Y91054D01*
X11507D01*
X11463Y91069D01*
X11423Y91084D01*
X11385Y91104D01*
X11353Y91121D01*
X11324Y91139D01*
X11300Y91153D01*
X11289Y91165D01*
X11283Y91168D01*
X11245Y91203D01*
X11210Y91241D01*
X11181Y91281D01*
X11155Y91319D01*
X11134Y91351D01*
X11120Y91380D01*
X11111Y91398D01*
X11108Y91401D01*
Y91404D01*
X11097Y91433D01*
X11088Y91465D01*
X11070Y91537D01*
X11059Y91610D01*
X11053Y91680D01*
X11050Y91712D01*
X11047Y91744D01*
Y91770D01*
X11044Y91796D01*
Y91843D01*
X11047Y91927D01*
X11053Y92003D01*
X11065Y92070D01*
X11076Y92125D01*
X11079Y92149D01*
X11085Y92172D01*
X11091Y92189D01*
X11097Y92204D01*
X11100Y92216D01*
X11102Y92224D01*
X11105Y92227D01*
Y92230D01*
X11129Y92282D01*
X11158Y92329D01*
X11184Y92370D01*
X11210Y92405D01*
X11233Y92431D01*
X11251Y92451D01*
X11263Y92463D01*
X11268Y92466D01*
X11309Y92498D01*
X11353Y92524D01*
X11393Y92544D01*
X11434Y92562D01*
X11469Y92573D01*
X11498Y92582D01*
X11507Y92585D01*
X11516D01*
X11519Y92588D01*
X11522D01*
X11553Y92594D01*
X11588Y92600D01*
X11626Y92605D01*
X11664Y92608D01*
X11751Y92614D01*
X11836Y92620D01*
X11874D01*
X11911D01*
X11946Y92623D01*
X11975D01*
X11999D01*
X12019D01*
X12031D01*
X12034D01*
X13096D01*
Y92216D01*
D02*
G37*
G36*
Y89995D02*
Y89565D01*
X11082Y88785D01*
Y89215D01*
X11539Y89381D01*
Y90190D01*
X11082Y90365D01*
Y90804D01*
X13096Y89995D01*
D02*
G37*
%LPC*%
G36*
X106375Y78232D02*
X106357D01*
X106346D01*
X106340D01*
X106337D01*
X106261Y78229D01*
X106194Y78218D01*
X106139Y78200D01*
X106093Y78183D01*
X106058Y78165D01*
X106032Y78148D01*
X106017Y78136D01*
X106011Y78133D01*
X105973Y78096D01*
X105947Y78055D01*
X105927Y78017D01*
X105915Y77979D01*
X105906Y77944D01*
X105903Y77918D01*
X105901Y77901D01*
Y77895D01*
X105906Y77848D01*
X105918Y77805D01*
X105936Y77767D01*
X105956Y77735D01*
X105973Y77709D01*
X105991Y77691D01*
X106002Y77677D01*
X106008Y77674D01*
X106055Y77645D01*
X106107Y77624D01*
X106162Y77607D01*
X106218Y77598D01*
X106267Y77592D01*
X106290Y77589D01*
X106308D01*
X106323Y77586D01*
X106337D01*
X106343D01*
X106346D01*
X106424Y77589D01*
X106491Y77601D01*
X106547Y77615D01*
X106593Y77630D01*
X106628Y77648D01*
X106654Y77659D01*
X106669Y77671D01*
X106675Y77674D01*
X106712Y77709D01*
X106739Y77746D01*
X106759Y77787D01*
X106771Y77822D01*
X106779Y77854D01*
X106782Y77880D01*
X106785Y77898D01*
Y77903D01*
X106779Y77956D01*
X106768Y78000D01*
X106750Y78040D01*
X106730Y78075D01*
X106710Y78101D01*
X106692Y78122D01*
X106680Y78136D01*
X106675Y78139D01*
X106628Y78171D01*
X106576Y78195D01*
X106520Y78209D01*
X106465Y78221D01*
X106416Y78227D01*
X106392Y78229D01*
X106375Y78232D01*
D02*
G37*
G36*
X106354Y76574D02*
X106337D01*
X106325D01*
X106317D01*
X106314D01*
X106270D01*
X106232Y76571D01*
X106194Y76565D01*
X106159Y76559D01*
X106101Y76545D01*
X106055Y76527D01*
X106017Y76510D01*
X105991Y76495D01*
X105976Y76484D01*
X105970Y76481D01*
X105936Y76446D01*
X105909Y76408D01*
X105889Y76373D01*
X105877Y76338D01*
X105868Y76309D01*
X105866Y76283D01*
X105863Y76268D01*
Y76262D01*
X105866Y76230D01*
X105868Y76201D01*
X105886Y76149D01*
X105909Y76102D01*
X105938Y76064D01*
X105967Y76032D01*
X105991Y76009D01*
X106008Y75998D01*
X106011Y75992D01*
X106014D01*
X106061Y75968D01*
X106113Y75951D01*
X106168Y75939D01*
X106221Y75931D01*
X106270Y75925D01*
X106293D01*
X106311Y75922D01*
X106328D01*
X106340D01*
X106346D01*
X106349D01*
X106427Y75925D01*
X106494Y75936D01*
X106550Y75951D01*
X106596Y75968D01*
X106631Y75983D01*
X106657Y75998D01*
X106672Y76009D01*
X106677Y76012D01*
X106712Y76050D01*
X106739Y76088D01*
X106759Y76128D01*
X106771Y76166D01*
X106779Y76198D01*
X106782Y76224D01*
X106785Y76242D01*
Y76248D01*
X106779Y76300D01*
X106768Y76344D01*
X106750Y76385D01*
X106730Y76416D01*
X106710Y76446D01*
X106692Y76463D01*
X106680Y76478D01*
X106675Y76481D01*
X106651Y76498D01*
X106628Y76513D01*
X106573Y76536D01*
X106512Y76550D01*
X106453Y76562D01*
X106398Y76568D01*
X106375Y76571D01*
X106354Y76574D01*
D02*
G37*
G36*
X106651Y74796D02*
X106631D01*
X106616D01*
X106605D01*
X106596D01*
X106593D01*
X106512Y74793D01*
X106436Y74790D01*
X106375Y74781D01*
X106323Y74775D01*
X106279Y74767D01*
X106261Y74764D01*
X106250Y74758D01*
X106238Y74755D01*
X106229D01*
X106227Y74752D01*
X106224D01*
X106177Y74735D01*
X106136Y74720D01*
X106104Y74700D01*
X106078Y74685D01*
X106058Y74670D01*
X106043Y74659D01*
X106034Y74650D01*
X106032Y74647D01*
X106011Y74621D01*
X105994Y74595D01*
X105979Y74569D01*
X105967Y74542D01*
X105959Y74519D01*
X105953Y74502D01*
X105947Y74490D01*
Y74484D01*
X105941Y74452D01*
X105938Y74414D01*
X105933Y74374D01*
Y74333D01*
X105930Y74295D01*
Y73937D01*
X107262D01*
Y74202D01*
X107260Y74240D01*
Y74275D01*
X107257Y74304D01*
Y74330D01*
X107254Y74356D01*
Y74377D01*
X107248Y74409D01*
X107245Y74432D01*
X107242Y74446D01*
Y74449D01*
X107230Y74490D01*
X107216Y74525D01*
X107201Y74557D01*
X107184Y74586D01*
X107169Y74607D01*
X107158Y74624D01*
X107149Y74633D01*
X107146Y74636D01*
X107117Y74662D01*
X107085Y74685D01*
X107053Y74705D01*
X107024Y74723D01*
X106995Y74735D01*
X106971Y74743D01*
X106957Y74749D01*
X106954Y74752D01*
X106951D01*
X106899Y74767D01*
X106843Y74778D01*
X106782Y74784D01*
X106724Y74790D01*
X106675Y74793D01*
X106651Y74796D01*
D02*
G37*
G36*
X107027Y97386D02*
X107015D01*
X107009D01*
X106977Y97384D01*
X106948Y97381D01*
X106922Y97372D01*
X106899Y97366D01*
X106881Y97357D01*
X106870Y97349D01*
X106861Y97346D01*
X106858Y97343D01*
X106838Y97325D01*
X106820Y97308D01*
X106794Y97270D01*
X106785Y97256D01*
X106779Y97241D01*
X106773Y97232D01*
Y97229D01*
X106771Y97215D01*
X106765Y97192D01*
X106762Y97168D01*
X106759Y97142D01*
X106756Y97081D01*
X106753Y97020D01*
X106750Y96962D01*
Y96566D01*
X107262D01*
Y97031D01*
X107260Y97058D01*
Y97122D01*
X107257Y97148D01*
Y97165D01*
X107254Y97174D01*
Y97177D01*
X107245Y97212D01*
X107233Y97244D01*
X107222Y97270D01*
X107207Y97290D01*
X107193Y97308D01*
X107184Y97322D01*
X107175Y97328D01*
X107172Y97331D01*
X107149Y97349D01*
X107120Y97363D01*
X107094Y97372D01*
X107068Y97381D01*
X107044Y97384D01*
X107027Y97386D01*
D02*
G37*
G36*
X106375Y93825D02*
X106357D01*
X106346D01*
X106340D01*
X106337D01*
X106261Y93822D01*
X106194Y93810D01*
X106139Y93793D01*
X106093Y93775D01*
X106058Y93758D01*
X106032Y93740D01*
X106017Y93729D01*
X106011Y93726D01*
X105973Y93688D01*
X105947Y93647D01*
X105927Y93609D01*
X105915Y93572D01*
X105906Y93537D01*
X105903Y93510D01*
X105901Y93493D01*
Y93487D01*
X105906Y93441D01*
X105918Y93397D01*
X105936Y93359D01*
X105956Y93327D01*
X105973Y93301D01*
X105991Y93283D01*
X106002Y93269D01*
X106008Y93266D01*
X106055Y93237D01*
X106107Y93217D01*
X106162Y93199D01*
X106218Y93190D01*
X106267Y93185D01*
X106290Y93182D01*
X106308D01*
X106323Y93179D01*
X106337D01*
X106343D01*
X106346D01*
X106424Y93182D01*
X106491Y93193D01*
X106547Y93208D01*
X106593Y93222D01*
X106628Y93240D01*
X106654Y93251D01*
X106669Y93263D01*
X106675Y93266D01*
X106712Y93301D01*
X106739Y93339D01*
X106759Y93379D01*
X106771Y93414D01*
X106779Y93446D01*
X106782Y93473D01*
X106785Y93490D01*
Y93496D01*
X106779Y93548D01*
X106768Y93592D01*
X106750Y93633D01*
X106730Y93668D01*
X106710Y93694D01*
X106692Y93714D01*
X106680Y93729D01*
X106675Y93732D01*
X106628Y93764D01*
X106576Y93787D01*
X106520Y93801D01*
X106465Y93813D01*
X106416Y93819D01*
X106392Y93822D01*
X106375Y93825D01*
D02*
G37*
G36*
X106354Y92166D02*
X106337D01*
X106325D01*
X106317D01*
X106314D01*
X106270D01*
X106232Y92163D01*
X106194Y92157D01*
X106159Y92151D01*
X106101Y92137D01*
X106055Y92119D01*
X106017Y92102D01*
X105991Y92087D01*
X105976Y92076D01*
X105970Y92073D01*
X105936Y92038D01*
X105909Y92000D01*
X105889Y91965D01*
X105877Y91930D01*
X105868Y91901D01*
X105866Y91875D01*
X105863Y91861D01*
Y91855D01*
X105866Y91823D01*
X105868Y91794D01*
X105886Y91741D01*
X105909Y91695D01*
X105938Y91657D01*
X105967Y91625D01*
X105991Y91602D01*
X106008Y91590D01*
X106011Y91584D01*
X106014D01*
X106061Y91561D01*
X106113Y91543D01*
X106168Y91532D01*
X106221Y91523D01*
X106270Y91517D01*
X106293D01*
X106311Y91514D01*
X106328D01*
X106340D01*
X106346D01*
X106349D01*
X106427Y91517D01*
X106494Y91529D01*
X106550Y91543D01*
X106596Y91561D01*
X106631Y91575D01*
X106657Y91590D01*
X106672Y91602D01*
X106677Y91604D01*
X106712Y91642D01*
X106739Y91680D01*
X106759Y91721D01*
X106771Y91759D01*
X106779Y91791D01*
X106782Y91817D01*
X106785Y91834D01*
Y91840D01*
X106779Y91892D01*
X106768Y91936D01*
X106750Y91977D01*
X106730Y92009D01*
X106710Y92038D01*
X106692Y92055D01*
X106680Y92070D01*
X106675Y92073D01*
X106651Y92090D01*
X106628Y92105D01*
X106573Y92128D01*
X106512Y92143D01*
X106453Y92154D01*
X106398Y92160D01*
X106375Y92163D01*
X106354Y92166D01*
D02*
G37*
G36*
X106651Y90388D02*
X106631D01*
X106616D01*
X106605D01*
X106596D01*
X106593D01*
X106512Y90385D01*
X106436Y90382D01*
X106375Y90373D01*
X106323Y90368D01*
X106279Y90359D01*
X106261Y90356D01*
X106250Y90350D01*
X106238Y90347D01*
X106229D01*
X106227Y90344D01*
X106224D01*
X106177Y90327D01*
X106136Y90312D01*
X106104Y90292D01*
X106078Y90277D01*
X106058Y90263D01*
X106043Y90251D01*
X106034Y90242D01*
X106032Y90240D01*
X106011Y90213D01*
X105994Y90187D01*
X105979Y90161D01*
X105967Y90135D01*
X105959Y90112D01*
X105953Y90094D01*
X105947Y90082D01*
Y90077D01*
X105941Y90045D01*
X105938Y90007D01*
X105932Y89966D01*
Y89925D01*
X105930Y89887D01*
Y89530D01*
X107262D01*
Y89794D01*
X107260Y89832D01*
Y89867D01*
X107257Y89896D01*
Y89922D01*
X107254Y89949D01*
Y89969D01*
X107248Y90001D01*
X107245Y90024D01*
X107242Y90039D01*
Y90042D01*
X107230Y90082D01*
X107216Y90117D01*
X107201Y90149D01*
X107184Y90179D01*
X107169Y90199D01*
X107158Y90216D01*
X107149Y90225D01*
X107146Y90228D01*
X107117Y90254D01*
X107085Y90277D01*
X107053Y90298D01*
X107024Y90315D01*
X106995Y90327D01*
X106971Y90336D01*
X106957Y90341D01*
X106954Y90344D01*
X106951D01*
X106899Y90359D01*
X106843Y90371D01*
X106782Y90376D01*
X106724Y90382D01*
X106675Y90385D01*
X106651Y90388D01*
D02*
G37*
G36*
X11879Y74467D02*
Y73911D01*
X12627Y74185D01*
X11879Y74467D01*
D02*
G37*
G36*
X41376Y50273D02*
X41359D01*
X41347D01*
X41344D01*
X41280Y50270D01*
X41219Y50267D01*
X41164Y50259D01*
X41115Y50250D01*
X41065Y50238D01*
X41021Y50224D01*
X40984Y50209D01*
X40949Y50195D01*
X40917Y50180D01*
X40890Y50166D01*
X40867Y50154D01*
X40847Y50139D01*
X40832Y50131D01*
X40824Y50122D01*
X40818Y50119D01*
X40815Y50116D01*
X40783Y50087D01*
X40757Y50055D01*
X40733Y50020D01*
X40713Y49988D01*
X40698Y49953D01*
X40684Y49921D01*
X40663Y49857D01*
X40649Y49802D01*
X40646Y49779D01*
X40643Y49758D01*
X40640Y49741D01*
Y49718D01*
X40643Y49674D01*
X40649Y49630D01*
X40658Y49589D01*
X40669Y49552D01*
X40696Y49482D01*
X40730Y49426D01*
X40745Y49400D01*
X40762Y49380D01*
X40777Y49360D01*
X40791Y49345D01*
X40800Y49333D01*
X40809Y49325D01*
X40815Y49319D01*
X40818Y49316D01*
X40853Y49290D01*
X40890Y49264D01*
X40931Y49243D01*
X40975Y49226D01*
X41059Y49197D01*
X41144Y49179D01*
X41184Y49173D01*
X41219Y49167D01*
X41254Y49165D01*
X41283Y49162D01*
X41307Y49159D01*
X41324D01*
X41336D01*
X41339D01*
X41403Y49162D01*
X41461Y49165D01*
X41516Y49173D01*
X41568Y49182D01*
X41615Y49194D01*
X41659Y49205D01*
X41697Y49220D01*
X41731Y49234D01*
X41763Y49249D01*
X41790Y49264D01*
X41810Y49275D01*
X41830Y49287D01*
X41845Y49296D01*
X41854Y49304D01*
X41859Y49307D01*
X41862Y49310D01*
X41894Y49339D01*
X41921Y49371D01*
X41944Y49406D01*
X41964Y49438D01*
X41982Y49473D01*
X41993Y49508D01*
X42017Y49572D01*
X42028Y49630D01*
X42031Y49654D01*
X42034Y49677D01*
X42037Y49694D01*
Y49718D01*
X42034Y49764D01*
X42028Y49808D01*
X42022Y49848D01*
X42011Y49886D01*
X41982Y49953D01*
X41967Y49985D01*
X41953Y50011D01*
X41935Y50038D01*
X41921Y50058D01*
X41906Y50075D01*
X41892Y50093D01*
X41880Y50104D01*
X41874Y50113D01*
X41868Y50116D01*
X41865Y50119D01*
X41830Y50145D01*
X41793Y50172D01*
X41755Y50192D01*
X41711Y50209D01*
X41624Y50235D01*
X41539Y50253D01*
X41502Y50262D01*
X41464Y50265D01*
X41432Y50267D01*
X41403Y50270D01*
X41376Y50273D01*
D02*
G37*
G36*
X12520Y97724D02*
X12508D01*
X12502D01*
X12470Y97721D01*
X12441Y97718D01*
X12415Y97710D01*
X12392Y97704D01*
X12374Y97695D01*
X12363Y97686D01*
X12354Y97683D01*
X12351Y97680D01*
X12331Y97663D01*
X12313Y97645D01*
X12287Y97608D01*
X12278Y97593D01*
X12272Y97579D01*
X12266Y97570D01*
Y97567D01*
X12263Y97552D01*
X12258Y97529D01*
X12255Y97506D01*
X12252Y97480D01*
X12249Y97419D01*
X12246Y97357D01*
X12243Y97299D01*
Y96904D01*
X12755D01*
Y97369D01*
X12752Y97395D01*
Y97459D01*
X12750Y97486D01*
Y97503D01*
X12747Y97512D01*
Y97515D01*
X12738Y97549D01*
X12726Y97581D01*
X12715Y97608D01*
X12700Y97628D01*
X12686Y97645D01*
X12677Y97660D01*
X12668Y97666D01*
X12665Y97669D01*
X12642Y97686D01*
X12613Y97701D01*
X12586Y97710D01*
X12560Y97718D01*
X12537Y97721D01*
X12520Y97724D01*
D02*
G37*
G36*
X11879Y90059D02*
Y89503D01*
X12627Y89777D01*
X11879Y90059D01*
D02*
G37*
%LPD*%
D11*
X8661Y94488D02*
G03*
X8661Y94488I-2756J0D01*
G01*
Y78740D02*
G03*
X8661Y78740I-2756J0D01*
G01*
X114961D02*
G03*
X114961Y78740I-2756J0D01*
G01*
Y94488D02*
G03*
X114961Y94488I-2756J0D01*
G01*
X36220Y49213D02*
G03*
X36220Y49213I-2756J0D01*
G01*
X25591Y29134D02*
G03*
X25591Y29134I-197J0D01*
G01*
X52658Y21654D02*
Y53150D01*
X68405D01*
Y21654D02*
Y53150D01*
X52658Y21654D02*
X68405D01*
X80709Y59252D02*
X82677D01*
X80709Y54921D02*
X82677D01*
X100394Y41535D02*
X102362D01*
X100394Y37205D02*
X102362D01*
X100394Y33661D02*
X102362D01*
X100394Y29331D02*
X102362D01*
X100394Y25787D02*
X102362D01*
X100394Y21457D02*
X102362D01*
D12*
X33465Y32465D02*
Y34465D01*
Y28528D02*
Y30528D01*
Y24591D02*
Y26591D01*
X80459Y44276D02*
X80959D01*
X80459Y46276D02*
X80959D01*
X80459Y40339D02*
X80959D01*
X80459Y42339D02*
X80959D01*
X80459Y36402D02*
X80959D01*
X80459Y38402D02*
X80959D01*
X80459Y32465D02*
X80959D01*
X80459Y34465D02*
X80959D01*
X80459Y28528D02*
X80959D01*
X80459Y30528D02*
X80959D01*
X41089Y42339D02*
X41589D01*
X41089Y40339D02*
X41589D01*
X41089Y38402D02*
X41589D01*
X41089Y36402D02*
X41589D01*
X41089Y34465D02*
X41589D01*
X41089Y32465D02*
X41589D01*
X41089Y30528D02*
X41589D01*
X41089Y28528D02*
X41589D01*
X41089Y26591D02*
X41589D01*
X41089Y24590D02*
X41589D01*
X80459D02*
X80959D01*
X80459Y26591D02*
X80959D01*
X80459Y20653D02*
X80959D01*
X80459Y22654D02*
X80959D01*
X41089D02*
X41589D01*
X41089Y20653D02*
X41589D01*
X80709Y60417D02*
Y62417D01*
Y51756D02*
Y53756D01*
X100075Y57087D02*
X103075D01*
X33465Y20654D02*
Y22654D01*
X33965Y58805D02*
Y59305D01*
X31965Y58805D02*
Y59305D01*
X15748Y40339D02*
Y42339D01*
X23372Y22654D02*
X23872D01*
X23372Y20653D02*
X23872D01*
X12779Y27309D02*
Y27809D01*
X14780Y27309D02*
Y27809D01*
X18717Y44563D02*
Y47563D01*
X23372Y42339D02*
X23872D01*
X23372Y40339D02*
X23872D01*
X23372Y58087D02*
X23872D01*
X23372Y56087D02*
X23872D01*
X18717Y50862D02*
Y53862D01*
X24606Y49213D02*
X26575D01*
X12779Y35433D02*
X14780D01*
X85614Y31496D02*
X87614D01*
X85614Y39370D02*
X87614D01*
X91551Y39120D02*
Y39620D01*
X89551Y39120D02*
Y39620D01*
X93488Y31496D02*
X95488D01*
X93488Y39370D02*
X95488D01*
X91551Y31246D02*
Y31746D01*
X89551Y31246D02*
Y31746D01*
X93488Y23622D02*
X95488D01*
X85614D02*
X87614D01*
X91551Y23372D02*
Y23872D01*
X89551Y23372D02*
Y23872D01*
X71335Y58805D02*
Y59305D01*
X73335Y58805D02*
Y59305D01*
X63461Y58805D02*
Y59305D01*
X65461Y58805D02*
Y59305D01*
X59524Y58805D02*
Y59305D01*
X61524Y58805D02*
Y59305D01*
X51650Y58805D02*
Y59305D01*
X53650Y58805D02*
Y59305D01*
X43776Y58805D02*
Y59305D01*
X45776Y58805D02*
Y59305D01*
X67398Y59055D02*
X69398D01*
X55587D02*
X57587D01*
X47713D02*
X49713D01*
X39839D02*
X41839D01*
X35902D02*
X37902D01*
D38*
X55020Y23622D02*
G03*
X55020Y23622I-394J0D01*
G01*
X23622Y179134D02*
X94488D01*
X23622Y198819D02*
X94488D01*
Y179134D02*
Y198819D01*
X23622Y179134D02*
Y198819D01*
X102362Y68898D02*
Y149606D01*
X15748Y68898D02*
Y149606D01*
D63*
X23622Y183071D02*
X39370Y198819D01*
X23622Y187008D02*
X35433Y198819D01*
X23622Y190945D02*
X31496Y198819D01*
X23622Y194882D02*
X27559Y198819D01*
X90551Y179134D02*
X94488Y183071D01*
X86614Y179134D02*
X94488Y187008D01*
X82677Y179134D02*
X94488Y190945D01*
X78740Y179134D02*
X94488Y194882D01*
X74803Y179134D02*
X94488Y198819D01*
X70866Y179134D02*
X90551Y198819D01*
X66929Y179134D02*
X86614Y198819D01*
X62992Y179134D02*
X82677Y198819D01*
X59055Y179134D02*
X78740Y198819D01*
X55118Y179134D02*
X74803Y198819D01*
X51181Y179134D02*
X70866Y198819D01*
X47244Y179134D02*
X66929Y198819D01*
X43307Y179134D02*
X62992Y198819D01*
X39370Y179134D02*
X59055Y198819D01*
X35433Y179134D02*
X55118Y198819D01*
X31496Y179134D02*
X51181Y198819D01*
X27559Y179134D02*
X47244Y198819D01*
X23622Y179134D02*
X43307Y198819D01*
M02*
