G04*
G04 #@! TF.GenerationSoftware,Altium Limited,Altium Designer,22.1.2 (22)*
G04*
G04 Layer_Physical_Order=1*
G04 Layer_Color=255*
%FSLAX25Y25*%
%MOIN*%
G70*
G04*
G04 #@! TF.SameCoordinates,3D425B39-A101-4537-954C-310EEB490880*
G04*
G04*
G04 #@! TF.FilePolarity,Positive*
G04*
G01*
G75*
%ADD13R,0.03937X0.03937*%
%ADD14R,0.08661X0.04134*%
%ADD15R,0.03937X0.03937*%
%ADD16R,0.04134X0.08661*%
%ADD17R,0.01968X0.02362*%
%ADD18R,0.02047X0.01850*%
%ADD19R,0.01850X0.02047*%
%ADD20R,0.03937X0.02756*%
%ADD21R,0.01575X0.01575*%
G04:AMPARAMS|DCode=22|XSize=27.56mil|YSize=27.56mil|CornerRadius=2.76mil|HoleSize=0mil|Usage=FLASHONLY|Rotation=0.000|XOffset=0mil|YOffset=0mil|HoleType=Round|Shape=RoundedRectangle|*
%AMROUNDEDRECTD22*
21,1,0.02756,0.02205,0,0,0.0*
21,1,0.02205,0.02756,0,0,0.0*
1,1,0.00551,0.01102,-0.01102*
1,1,0.00551,-0.01102,-0.01102*
1,1,0.00551,-0.01102,0.01102*
1,1,0.00551,0.01102,0.01102*
%
%ADD22ROUNDEDRECTD22*%
%ADD36C,0.03032*%
%ADD37R,0.02362X0.09055*%
%ADD38C,0.00787*%
%ADD39C,0.01181*%
%ADD40C,0.01575*%
%ADD41R,0.08649X0.04616*%
%ADD42R,0.17491X0.10035*%
%ADD43R,0.20866X0.20866*%
%ADD44C,0.01968*%
G36*
X117107Y13602D02*
X112795D01*
X112771Y13597D01*
X112746Y13601D01*
X112437Y13586D01*
X112365Y13567D01*
X112291D01*
X111685Y13447D01*
X111594Y13409D01*
X111497Y13390D01*
X110926Y13153D01*
X110844Y13099D01*
X110753Y13061D01*
X110240Y12718D01*
X110170Y12648D01*
X110088Y12593D01*
X109651Y12156D01*
X109596Y12074D01*
X109526Y12004D01*
X109183Y11491D01*
X109145Y11400D01*
X109090Y11317D01*
X108901Y10859D01*
X47854D01*
Y12795D01*
X47847Y12828D01*
X47852Y12861D01*
X47826Y13246D01*
X47801Y13342D01*
X47794Y13440D01*
X47595Y14185D01*
X47537Y14303D01*
X47495Y14427D01*
X47109Y15094D01*
X47023Y15193D01*
X46950Y15302D01*
X46405Y15847D01*
X46295Y15920D01*
X46197Y16007D01*
X45529Y16392D01*
X45405Y16434D01*
X45287Y16492D01*
X44543Y16692D01*
X44412Y16701D01*
X44283Y16726D01*
X43512D01*
X43383Y16701D01*
X43252Y16692D01*
X42508Y16492D01*
X42390Y16434D01*
X42266Y16392D01*
X41598Y16007D01*
X41500Y15920D01*
X41390Y15847D01*
X40845Y15302D01*
X40773Y15193D01*
X40686Y15094D01*
X40301Y14427D01*
X40258Y14303D01*
X40200Y14185D01*
X40001Y13440D01*
X39994Y13342D01*
X39969Y13246D01*
X39944Y12861D01*
X39948Y12828D01*
X39941Y12795D01*
Y10859D01*
X32693D01*
Y11478D01*
X32883Y11605D01*
X33188Y12061D01*
X33295Y12598D01*
X33188Y13136D01*
X32883Y13592D01*
X32427Y13896D01*
X31890Y14003D01*
X31352Y13896D01*
X30896Y13592D01*
X30592Y13136D01*
X30485Y12598D01*
X30592Y12061D01*
X30896Y11605D01*
X31087Y11478D01*
Y10859D01*
X28756D01*
Y11478D01*
X28946Y11605D01*
X29251Y12061D01*
X29358Y12598D01*
X29251Y13136D01*
X28946Y13592D01*
X28490Y13896D01*
X27953Y14003D01*
X27415Y13896D01*
X26959Y13592D01*
X26655Y13136D01*
X26548Y12598D01*
X26655Y12061D01*
X26959Y11605D01*
X27150Y11478D01*
Y10859D01*
X26000D01*
Y13841D01*
X26547Y14388D01*
X26772Y14343D01*
X27309Y14450D01*
X27765Y14755D01*
X28070Y15210D01*
X28177Y15748D01*
X28070Y16286D01*
X27765Y16741D01*
X27309Y17046D01*
X26772Y17153D01*
X26234Y17046D01*
X25778Y16741D01*
X25474Y16286D01*
X25367Y15748D01*
X25411Y15523D01*
X24629Y14741D01*
X24455Y14480D01*
X24394Y14173D01*
Y10859D01*
X20102D01*
Y13026D01*
X20374Y13139D01*
X20498Y13440D01*
Y14544D01*
X21748D01*
X21748Y14544D01*
X22209Y14636D01*
X22600Y14897D01*
X26166Y18463D01*
X26428Y18854D01*
X26519Y19315D01*
Y28850D01*
X26613Y28990D01*
X26720Y29528D01*
X26613Y30065D01*
X26308Y30521D01*
X26118Y30648D01*
Y31482D01*
X26434Y31798D01*
X26608Y32059D01*
X26669Y32366D01*
Y35984D01*
X27185D01*
Y38819D01*
X26630D01*
Y39764D01*
X27165D01*
Y42913D01*
X24409D01*
Y39764D01*
X25024D01*
Y38819D01*
X24547D01*
Y35984D01*
X25063D01*
Y32699D01*
X24747Y32383D01*
X24573Y32122D01*
X24512Y31815D01*
Y30648D01*
X24321Y30521D01*
X24017Y30065D01*
X23910Y29528D01*
X24017Y28990D01*
X24111Y28850D01*
Y19814D01*
X21249Y16952D01*
X20498D01*
Y18056D01*
X20374Y18357D01*
X20072Y18482D01*
X11424D01*
X11122Y18357D01*
X10998Y18056D01*
Y13440D01*
X11122Y13139D01*
X11394Y13026D01*
Y10859D01*
X9210D01*
X9020Y11317D01*
X8965Y11400D01*
X8927Y11491D01*
X8584Y12004D01*
X8514Y12074D01*
X8459Y12156D01*
X8023Y12593D01*
X7940Y12648D01*
X7870Y12718D01*
X7357Y13061D01*
X7266Y13099D01*
X7184Y13153D01*
X6613Y13390D01*
X6516Y13409D01*
X6425Y13447D01*
X5819Y13567D01*
X5745D01*
X5673Y13586D01*
X5364Y13601D01*
X5339Y13597D01*
X5315Y13602D01*
X1003D01*
Y199587D01*
X117107D01*
Y13602D01*
D02*
G37*
%LPC*%
G36*
X37795Y197244D02*
X35827D01*
Y195276D01*
X37795D01*
Y197244D01*
D02*
G37*
G36*
X35039D02*
X33071D01*
Y195276D01*
X35039D01*
Y197244D01*
D02*
G37*
G36*
X75590Y197244D02*
X71260D01*
Y195177D01*
X75590D01*
Y197244D01*
D02*
G37*
G36*
X70473D02*
X66142D01*
Y195177D01*
X70473D01*
Y197244D01*
D02*
G37*
G36*
X64567Y191339D02*
X62598D01*
Y189370D01*
X64567D01*
Y191339D01*
D02*
G37*
G36*
X43701Y193701D02*
X41634D01*
Y189370D01*
X43701D01*
Y193701D01*
D02*
G37*
G36*
X29232D02*
X27165D01*
Y189370D01*
X29232D01*
Y193701D01*
D02*
G37*
G36*
X64567Y188583D02*
X62598D01*
Y186614D01*
X64567D01*
Y188583D01*
D02*
G37*
G36*
X43701Y188583D02*
X41634D01*
Y184252D01*
X43701D01*
Y188583D01*
D02*
G37*
G36*
X29232D02*
X27165D01*
Y184252D01*
X29232D01*
Y188583D01*
D02*
G37*
G36*
X75590Y182776D02*
X71260D01*
Y180709D01*
X75590D01*
Y182776D01*
D02*
G37*
G36*
X70472D02*
X66142D01*
Y180709D01*
X70472D01*
Y182776D01*
D02*
G37*
G36*
X85039Y184547D02*
X80315D01*
Y181004D01*
X81674D01*
Y179978D01*
X81379Y179538D01*
X81272Y179000D01*
X81379Y178462D01*
X81684Y178006D01*
X82139Y177702D01*
X82677Y177595D01*
X83215Y177702D01*
X83671Y178006D01*
X83975Y178462D01*
X84082Y179000D01*
X83975Y179538D01*
X83681Y179978D01*
Y181004D01*
X85039D01*
Y184547D01*
D02*
G37*
G36*
X47480Y178405D02*
X46457D01*
Y177480D01*
X47480D01*
Y178405D01*
D02*
G37*
G36*
X45669D02*
X44646D01*
Y177480D01*
X45669D01*
Y178405D01*
D02*
G37*
G36*
X62047Y178405D02*
X61024D01*
Y177480D01*
X62047D01*
Y178405D01*
D02*
G37*
G36*
X51024D02*
X50000D01*
Y177480D01*
X51024D01*
Y178405D01*
D02*
G37*
G36*
X49213D02*
X48189D01*
Y177480D01*
X49213D01*
Y178405D01*
D02*
G37*
G36*
X60236D02*
X59213D01*
Y177480D01*
X60236D01*
Y178405D01*
D02*
G37*
G36*
X65591D02*
X64567D01*
Y177480D01*
X65591D01*
Y178405D01*
D02*
G37*
G36*
X63779D02*
X62756D01*
Y177480D01*
X63779D01*
Y178405D01*
D02*
G37*
G36*
X81417Y165564D02*
X80709D01*
Y164173D01*
X82100D01*
Y164882D01*
X82048Y165143D01*
X81900Y165364D01*
X81678Y165512D01*
X81417Y165564D01*
D02*
G37*
G36*
X79921D02*
X79212D01*
X78951Y165512D01*
X78730Y165364D01*
X78582Y165143D01*
X78530Y164882D01*
Y164173D01*
X79921D01*
Y165564D01*
D02*
G37*
G36*
X67244D02*
X66535D01*
Y164173D01*
X67926D01*
Y164882D01*
X67874Y165143D01*
X67727Y165364D01*
X67505Y165512D01*
X67244Y165564D01*
D02*
G37*
G36*
X65748D02*
X65039D01*
X64778Y165512D01*
X64557Y165364D01*
X64409Y165143D01*
X64357Y164882D01*
Y164173D01*
X65748D01*
Y165564D01*
D02*
G37*
G36*
X60157D02*
X59449D01*
Y164173D01*
X60840D01*
Y164882D01*
X60788Y165143D01*
X60640Y165364D01*
X60419Y165512D01*
X60157Y165564D01*
D02*
G37*
G36*
X58661D02*
X57953D01*
X57692Y165512D01*
X57470Y165364D01*
X57322Y165143D01*
X57270Y164882D01*
Y164173D01*
X58661D01*
Y165564D01*
D02*
G37*
G36*
X53071D02*
X52362D01*
Y164173D01*
X53753D01*
Y164882D01*
X53701Y165143D01*
X53553Y165364D01*
X53332Y165512D01*
X53071Y165564D01*
D02*
G37*
G36*
X51575D02*
X50866D01*
X50605Y165512D01*
X50384Y165364D01*
X50236Y165143D01*
X50184Y164882D01*
Y164173D01*
X51575D01*
Y165564D01*
D02*
G37*
G36*
X38898D02*
X38189D01*
Y164173D01*
X39580D01*
Y164882D01*
X39528Y165143D01*
X39380Y165364D01*
X39159Y165512D01*
X38898Y165564D01*
D02*
G37*
G36*
X37402D02*
X36693D01*
X36432Y165512D01*
X36210Y165364D01*
X36062Y165143D01*
X36011Y164882D01*
Y164173D01*
X37402D01*
Y165564D01*
D02*
G37*
G36*
X82100Y163386D02*
X80709D01*
Y161995D01*
X81417D01*
X81678Y162047D01*
X81900Y162195D01*
X82048Y162416D01*
X82100Y162677D01*
Y163386D01*
D02*
G37*
G36*
X79921D02*
X78530D01*
Y162677D01*
X78582Y162416D01*
X78730Y162195D01*
X78951Y162047D01*
X79212Y161995D01*
X79921D01*
Y163386D01*
D02*
G37*
G36*
X67926D02*
X66535D01*
Y161995D01*
X67244D01*
X67505Y162047D01*
X67727Y162195D01*
X67874Y162416D01*
X67926Y162677D01*
Y163386D01*
D02*
G37*
G36*
X65748D02*
X64357D01*
Y162677D01*
X64409Y162416D01*
X64557Y162195D01*
X64778Y162047D01*
X65039Y161995D01*
X65748D01*
Y163386D01*
D02*
G37*
G36*
X60840D02*
X59449D01*
Y161995D01*
X60157D01*
X60419Y162047D01*
X60640Y162195D01*
X60788Y162416D01*
X60840Y162677D01*
Y163386D01*
D02*
G37*
G36*
X58661D02*
X57270D01*
Y162677D01*
X57322Y162416D01*
X57470Y162195D01*
X57692Y162047D01*
X57953Y161995D01*
X58661D01*
Y163386D01*
D02*
G37*
G36*
X53753D02*
X52362D01*
Y161995D01*
X53071D01*
X53332Y162047D01*
X53553Y162195D01*
X53701Y162416D01*
X53753Y162677D01*
Y163386D01*
D02*
G37*
G36*
X51575D02*
X50184D01*
Y162677D01*
X50236Y162416D01*
X50384Y162195D01*
X50605Y162047D01*
X50866Y161995D01*
X51575D01*
Y163386D01*
D02*
G37*
G36*
X45984Y165564D02*
X43780D01*
X43518Y165512D01*
X43297Y165364D01*
X43149Y165143D01*
X43097Y164882D01*
Y162677D01*
X43149Y162416D01*
X43297Y162195D01*
X43518Y162047D01*
X43780Y161995D01*
X45984D01*
X46245Y162047D01*
X46467Y162195D01*
X46615Y162416D01*
X46667Y162677D01*
Y164882D01*
X46615Y165143D01*
X46467Y165364D01*
X46245Y165512D01*
X45984Y165564D01*
D02*
G37*
G36*
X39580Y163386D02*
X38189D01*
Y161995D01*
X38898D01*
X39159Y162047D01*
X39380Y162195D01*
X39528Y162416D01*
X39580Y162677D01*
Y163386D01*
D02*
G37*
G36*
X37402D02*
X36011D01*
Y162677D01*
X36062Y162416D01*
X36210Y162195D01*
X36432Y162047D01*
X36693Y161995D01*
X37402D01*
Y163386D01*
D02*
G37*
G36*
X31811Y165564D02*
X29606D01*
X29345Y165512D01*
X29124Y165364D01*
X28976Y165143D01*
X28924Y164882D01*
Y162677D01*
X28976Y162416D01*
X29124Y162195D01*
X29345Y162047D01*
X29606Y161995D01*
X31811D01*
X32072Y162047D01*
X32293Y162195D01*
X32441Y162416D01*
X32493Y162677D01*
Y164882D01*
X32441Y165143D01*
X32293Y165364D01*
X32072Y165512D01*
X31811Y165564D01*
D02*
G37*
G36*
X24724D02*
X22520D01*
X22258Y165512D01*
X22037Y165364D01*
X21889Y165143D01*
X21837Y164882D01*
Y162677D01*
X21889Y162416D01*
X22037Y162195D01*
X22258Y162047D01*
X22520Y161995D01*
X24724D01*
X24985Y162047D01*
X25207Y162195D01*
X25355Y162416D01*
X25407Y162677D01*
Y164882D01*
X25355Y165143D01*
X25207Y165364D01*
X24985Y165512D01*
X24724Y165564D01*
D02*
G37*
G36*
X17638D02*
X15433D01*
X15172Y165512D01*
X14951Y165364D01*
X14803Y165143D01*
X14751Y164882D01*
Y162677D01*
X14803Y162416D01*
X14951Y162195D01*
X15172Y162047D01*
X15433Y161995D01*
X17638D01*
X17899Y162047D01*
X18120Y162195D01*
X18268Y162416D01*
X18320Y162677D01*
Y164882D01*
X18268Y165143D01*
X18120Y165364D01*
X17899Y165512D01*
X17638Y165564D01*
D02*
G37*
G36*
X37795Y194488D02*
X33071D01*
Y193733D01*
X31496D01*
X31418Y193701D01*
X30020D01*
Y188976D01*
Y184252D01*
X31418D01*
X31496Y184220D01*
X33071D01*
Y180709D01*
X33356D01*
Y177567D01*
X33374Y177476D01*
X33488Y176317D01*
X33852Y175115D01*
X34445Y174007D01*
X35241Y173037D01*
X36212Y172240D01*
X37320Y171648D01*
X38522Y171283D01*
X39681Y171169D01*
X39772Y171151D01*
X66730D01*
X67228Y171151D01*
X67712Y171111D01*
X68250Y171040D01*
X69201Y170646D01*
X70019Y170019D01*
X70646Y169202D01*
X71040Y168250D01*
X71111Y167712D01*
X71151Y167228D01*
X71151Y167228D01*
X71151Y166733D01*
Y163779D01*
X71309Y162985D01*
X71443Y162783D01*
Y162677D01*
X71495Y162416D01*
X71643Y162195D01*
X71865Y162047D01*
X72126Y161995D01*
X72232D01*
X72433Y161860D01*
X73228Y161702D01*
X74023Y161860D01*
X74225Y161995D01*
X74331D01*
X74592Y162047D01*
X74813Y162195D01*
X74961Y162416D01*
X75013Y162677D01*
Y162783D01*
X75147Y162985D01*
X75306Y163779D01*
Y167228D01*
X75304Y167239D01*
X75149Y168804D01*
X74690Y170319D01*
X73944Y171715D01*
X72939Y172939D01*
X71715Y173943D01*
X70319Y174690D01*
X68804Y175149D01*
X67239Y175304D01*
X67228Y175306D01*
X65682D01*
X65591Y175768D01*
X65591Y175806D01*
Y176693D01*
X64173D01*
X62756D01*
Y175806D01*
X62756Y175768D01*
X62664Y175306D01*
X62139D01*
X62047Y175768D01*
X62047Y175806D01*
Y176693D01*
X60630D01*
X59213D01*
Y175806D01*
X59213Y175768D01*
X59121Y175306D01*
X51115D01*
X51024Y175768D01*
X51024Y175806D01*
Y176693D01*
X49606D01*
X48189D01*
Y175806D01*
X48189Y175768D01*
X48097Y175306D01*
X47572D01*
X47480Y175768D01*
X47480Y175806D01*
Y176693D01*
X46063D01*
X44646D01*
Y175806D01*
X44646Y175768D01*
X44554Y175306D01*
X40268D01*
X39772Y175306D01*
X39297Y175366D01*
X38893Y175446D01*
X38149Y175944D01*
X37651Y176689D01*
X37571Y177092D01*
X37510Y177567D01*
X37510Y178063D01*
X37510Y178065D01*
Y180709D01*
X37795D01*
Y184220D01*
X39370D01*
X39448Y184252D01*
X40846D01*
Y188976D01*
Y193701D01*
X39448D01*
X39370Y193733D01*
X37795D01*
Y194488D01*
D02*
G37*
G36*
X109764Y158478D02*
X109055D01*
Y157087D01*
X110446D01*
Y157795D01*
X110394Y158056D01*
X110246Y158278D01*
X110025Y158426D01*
X109764Y158478D01*
D02*
G37*
G36*
X108268D02*
X107559D01*
X107298Y158426D01*
X107077Y158278D01*
X106929Y158056D01*
X106877Y157795D01*
Y157087D01*
X108268D01*
Y158478D01*
D02*
G37*
G36*
X81417D02*
X80709D01*
Y157087D01*
X82100D01*
Y157795D01*
X82048Y158056D01*
X81900Y158278D01*
X81678Y158426D01*
X81417Y158478D01*
D02*
G37*
G36*
X79921D02*
X79212D01*
X78951Y158426D01*
X78730Y158278D01*
X78582Y158056D01*
X78530Y157795D01*
Y157087D01*
X79921D01*
Y158478D01*
D02*
G37*
G36*
X74331D02*
X73622D01*
Y157087D01*
X75013D01*
Y157795D01*
X74961Y158056D01*
X74813Y158278D01*
X74592Y158426D01*
X74331Y158478D01*
D02*
G37*
G36*
X72835D02*
X72126D01*
X71865Y158426D01*
X71643Y158278D01*
X71495Y158056D01*
X71443Y157795D01*
Y157087D01*
X72835D01*
Y158478D01*
D02*
G37*
G36*
X67244D02*
X66535D01*
Y157087D01*
X67926D01*
Y157795D01*
X67874Y158056D01*
X67727Y158278D01*
X67505Y158426D01*
X67244Y158478D01*
D02*
G37*
G36*
X65748D02*
X65039D01*
X64778Y158426D01*
X64557Y158278D01*
X64409Y158056D01*
X64357Y157795D01*
Y157087D01*
X65748D01*
Y158478D01*
D02*
G37*
G36*
X60157D02*
X59449D01*
Y157087D01*
X60840D01*
Y157795D01*
X60788Y158056D01*
X60640Y158278D01*
X60419Y158426D01*
X60157Y158478D01*
D02*
G37*
G36*
X58661D02*
X57953D01*
X57692Y158426D01*
X57470Y158278D01*
X57322Y158056D01*
X57270Y157795D01*
Y157087D01*
X58661D01*
Y158478D01*
D02*
G37*
G36*
X53071D02*
X52362D01*
Y157087D01*
X53753D01*
Y157795D01*
X53701Y158056D01*
X53553Y158278D01*
X53332Y158426D01*
X53071Y158478D01*
D02*
G37*
G36*
X51575D02*
X50866D01*
X50605Y158426D01*
X50384Y158278D01*
X50236Y158056D01*
X50184Y157795D01*
Y157087D01*
X51575D01*
Y158478D01*
D02*
G37*
G36*
X45984D02*
X45276D01*
Y157087D01*
X46667D01*
Y157795D01*
X46615Y158056D01*
X46467Y158278D01*
X46245Y158426D01*
X45984Y158478D01*
D02*
G37*
G36*
X44488D02*
X43780D01*
X43518Y158426D01*
X43297Y158278D01*
X43149Y158056D01*
X43097Y157795D01*
Y157087D01*
X44488D01*
Y158478D01*
D02*
G37*
G36*
X38898D02*
X38189D01*
Y157087D01*
X39580D01*
Y157795D01*
X39528Y158056D01*
X39380Y158278D01*
X39159Y158426D01*
X38898Y158478D01*
D02*
G37*
G36*
X37402D02*
X36693D01*
X36432Y158426D01*
X36210Y158278D01*
X36062Y158056D01*
X36011Y157795D01*
Y157087D01*
X37402D01*
Y158478D01*
D02*
G37*
G36*
X10551D02*
X9843D01*
Y157087D01*
X11234D01*
Y157795D01*
X11182Y158056D01*
X11034Y158278D01*
X10812Y158426D01*
X10551Y158478D01*
D02*
G37*
G36*
X9055D02*
X8347D01*
X8085Y158426D01*
X7864Y158278D01*
X7716Y158056D01*
X7664Y157795D01*
Y157087D01*
X9055D01*
Y158478D01*
D02*
G37*
G36*
X110446Y156299D02*
X109055D01*
Y154908D01*
X109764D01*
X110025Y154960D01*
X110246Y155108D01*
X110394Y155329D01*
X110446Y155590D01*
Y156299D01*
D02*
G37*
G36*
X108268D02*
X106877D01*
Y155590D01*
X106929Y155329D01*
X107077Y155108D01*
X107298Y154960D01*
X107559Y154908D01*
X108268D01*
Y156299D01*
D02*
G37*
G36*
X82100D02*
X80709D01*
Y154908D01*
X81417D01*
X81678Y154960D01*
X81900Y155108D01*
X82048Y155329D01*
X82100Y155590D01*
Y156299D01*
D02*
G37*
G36*
X79921D02*
X78530D01*
Y155590D01*
X78582Y155329D01*
X78730Y155108D01*
X78951Y154960D01*
X79212Y154908D01*
X79921D01*
Y156299D01*
D02*
G37*
G36*
X75013D02*
X73622D01*
Y154908D01*
X74331D01*
X74592Y154960D01*
X74813Y155108D01*
X74961Y155329D01*
X75013Y155590D01*
Y156299D01*
D02*
G37*
G36*
X72835D02*
X71443D01*
Y155590D01*
X71495Y155329D01*
X71643Y155108D01*
X71865Y154960D01*
X72126Y154908D01*
X72835D01*
Y156299D01*
D02*
G37*
G36*
X67926D02*
X66535D01*
Y154908D01*
X67244D01*
X67505Y154960D01*
X67727Y155108D01*
X67874Y155329D01*
X67926Y155590D01*
Y156299D01*
D02*
G37*
G36*
X65748D02*
X64357D01*
Y155590D01*
X64409Y155329D01*
X64557Y155108D01*
X64778Y154960D01*
X65039Y154908D01*
X65748D01*
Y156299D01*
D02*
G37*
G36*
X60840D02*
X59449D01*
Y154908D01*
X60157D01*
X60419Y154960D01*
X60640Y155108D01*
X60788Y155329D01*
X60840Y155590D01*
Y156299D01*
D02*
G37*
G36*
X58661D02*
X57270D01*
Y155590D01*
X57322Y155329D01*
X57470Y155108D01*
X57692Y154960D01*
X57953Y154908D01*
X58661D01*
Y156299D01*
D02*
G37*
G36*
X53753D02*
X52362D01*
Y154908D01*
X53071D01*
X53332Y154960D01*
X53553Y155108D01*
X53701Y155329D01*
X53753Y155590D01*
Y156299D01*
D02*
G37*
G36*
X51575D02*
X50184D01*
Y155590D01*
X50236Y155329D01*
X50384Y155108D01*
X50605Y154960D01*
X50866Y154908D01*
X51575D01*
Y156299D01*
D02*
G37*
G36*
X46667D02*
X45276D01*
Y154908D01*
X45984D01*
X46245Y154960D01*
X46467Y155108D01*
X46615Y155329D01*
X46667Y155590D01*
Y156299D01*
D02*
G37*
G36*
X44488D02*
X43097D01*
Y155590D01*
X43149Y155329D01*
X43297Y155108D01*
X43518Y154960D01*
X43780Y154908D01*
X44488D01*
Y156299D01*
D02*
G37*
G36*
X39580D02*
X38189D01*
Y154908D01*
X38898D01*
X39159Y154960D01*
X39380Y155108D01*
X39528Y155329D01*
X39580Y155590D01*
Y156299D01*
D02*
G37*
G36*
X37402D02*
X36011D01*
Y155590D01*
X36062Y155329D01*
X36210Y155108D01*
X36432Y154960D01*
X36693Y154908D01*
X37402D01*
Y156299D01*
D02*
G37*
G36*
X31811Y158478D02*
X29606D01*
X29345Y158426D01*
X29124Y158278D01*
X28976Y158056D01*
X28924Y157795D01*
Y155590D01*
X28976Y155329D01*
X29124Y155108D01*
X29345Y154960D01*
X29606Y154908D01*
X31811D01*
X32072Y154960D01*
X32293Y155108D01*
X32441Y155329D01*
X32493Y155590D01*
Y157795D01*
X32441Y158056D01*
X32293Y158278D01*
X32072Y158426D01*
X31811Y158478D01*
D02*
G37*
G36*
X24724D02*
X22520D01*
X22258Y158426D01*
X22037Y158278D01*
X21889Y158056D01*
X21837Y157795D01*
Y155590D01*
X21889Y155329D01*
X22037Y155108D01*
X22258Y154960D01*
X22520Y154908D01*
X24724D01*
X24985Y154960D01*
X25207Y155108D01*
X25355Y155329D01*
X25407Y155590D01*
Y157795D01*
X25355Y158056D01*
X25207Y158278D01*
X24985Y158426D01*
X24724Y158478D01*
D02*
G37*
G36*
X17638D02*
X15433D01*
X15172Y158426D01*
X14951Y158278D01*
X14803Y158056D01*
X14751Y157795D01*
Y155590D01*
X14803Y155329D01*
X14951Y155108D01*
X15172Y154960D01*
X15433Y154908D01*
X17638D01*
X17899Y154960D01*
X18120Y155108D01*
X18268Y155329D01*
X18320Y155590D01*
Y157795D01*
X18268Y158056D01*
X18120Y158278D01*
X17899Y158426D01*
X17638Y158478D01*
D02*
G37*
G36*
X11234Y156299D02*
X9843D01*
Y154908D01*
X10551D01*
X10812Y154960D01*
X11034Y155108D01*
X11182Y155329D01*
X11234Y155590D01*
Y156299D01*
D02*
G37*
G36*
X9055D02*
X7664D01*
Y155590D01*
X7716Y155329D01*
X7864Y155108D01*
X8085Y154960D01*
X8347Y154908D01*
X9055D01*
Y156299D01*
D02*
G37*
G36*
X103308Y165790D02*
X85817D01*
X85515Y165666D01*
X85391Y165364D01*
Y155329D01*
X85515Y155028D01*
X85817Y154903D01*
X103308D01*
X103609Y155028D01*
X103734Y155329D01*
Y165364D01*
X103609Y165666D01*
X103308Y165790D01*
D02*
G37*
G36*
X109764Y151391D02*
X109055D01*
Y150000D01*
X110446D01*
Y150709D01*
X110394Y150970D01*
X110246Y151191D01*
X110025Y151339D01*
X109764Y151391D01*
D02*
G37*
G36*
X108268D02*
X107559D01*
X107298Y151339D01*
X107077Y151191D01*
X106929Y150970D01*
X106877Y150709D01*
Y150000D01*
X108268D01*
Y151391D01*
D02*
G37*
G36*
X102677D02*
X101968D01*
Y150000D01*
X103359D01*
Y150709D01*
X103308Y150970D01*
X103160Y151191D01*
X102938Y151339D01*
X102677Y151391D01*
D02*
G37*
G36*
X101181D02*
X100472D01*
X100211Y151339D01*
X99990Y151191D01*
X99842Y150970D01*
X99790Y150709D01*
Y150000D01*
X101181D01*
Y151391D01*
D02*
G37*
G36*
X95591D02*
X94882D01*
Y150000D01*
X96273D01*
Y150709D01*
X96221Y150970D01*
X96073Y151191D01*
X95852Y151339D01*
X95591Y151391D01*
D02*
G37*
G36*
X94094D02*
X93386D01*
X93125Y151339D01*
X92903Y151191D01*
X92755Y150970D01*
X92703Y150709D01*
Y150000D01*
X94094D01*
Y151391D01*
D02*
G37*
G36*
X88504D02*
X87795D01*
Y150000D01*
X89186D01*
Y150709D01*
X89134Y150970D01*
X88986Y151191D01*
X88765Y151339D01*
X88504Y151391D01*
D02*
G37*
G36*
X87008D02*
X86299D01*
X86038Y151339D01*
X85817Y151191D01*
X85669Y150970D01*
X85617Y150709D01*
Y150000D01*
X87008D01*
Y151391D01*
D02*
G37*
G36*
X110446Y149213D02*
X109055D01*
Y147821D01*
X109764D01*
X110025Y147873D01*
X110246Y148021D01*
X110394Y148243D01*
X110446Y148504D01*
Y149213D01*
D02*
G37*
G36*
X108268D02*
X106877D01*
Y148504D01*
X106929Y148243D01*
X107077Y148021D01*
X107298Y147873D01*
X107559Y147821D01*
X108268D01*
Y149213D01*
D02*
G37*
G36*
X103359D02*
X101968D01*
Y147821D01*
X102677D01*
X102938Y147873D01*
X103160Y148021D01*
X103308Y148243D01*
X103359Y148504D01*
Y149213D01*
D02*
G37*
G36*
X101181D02*
X99790D01*
Y148504D01*
X99842Y148243D01*
X99990Y148021D01*
X100211Y147873D01*
X100472Y147821D01*
X101181D01*
Y149213D01*
D02*
G37*
G36*
X96273D02*
X94882D01*
Y147821D01*
X95591D01*
X95852Y147873D01*
X96073Y148021D01*
X96221Y148243D01*
X96273Y148504D01*
Y149213D01*
D02*
G37*
G36*
X94094D02*
X92703D01*
Y148504D01*
X92755Y148243D01*
X92903Y148021D01*
X93125Y147873D01*
X93386Y147821D01*
X94094D01*
Y149213D01*
D02*
G37*
G36*
X89186D02*
X87795D01*
Y147821D01*
X88504D01*
X88765Y147873D01*
X88986Y148021D01*
X89134Y148243D01*
X89186Y148504D01*
Y149213D01*
D02*
G37*
G36*
X87008D02*
X85617D01*
Y148504D01*
X85669Y148243D01*
X85817Y148021D01*
X86038Y147873D01*
X86299Y147821D01*
X87008D01*
Y149213D01*
D02*
G37*
G36*
X81417Y151391D02*
X79212D01*
X78951Y151339D01*
X78730Y151191D01*
X78582Y150970D01*
X78530Y150709D01*
Y148504D01*
X78582Y148243D01*
X78730Y148021D01*
X78951Y147873D01*
X79212Y147821D01*
X81417D01*
X81678Y147873D01*
X81900Y148021D01*
X82048Y148243D01*
X82100Y148504D01*
Y150709D01*
X82048Y150970D01*
X81900Y151191D01*
X81678Y151339D01*
X81417Y151391D01*
D02*
G37*
G36*
X74331D02*
X72126D01*
X71865Y151339D01*
X71643Y151191D01*
X71495Y150970D01*
X71443Y150709D01*
Y148504D01*
X71495Y148243D01*
X71643Y148021D01*
X71865Y147873D01*
X72126Y147821D01*
X74331D01*
X74592Y147873D01*
X74813Y148021D01*
X74961Y148243D01*
X75013Y148504D01*
Y150709D01*
X74961Y150970D01*
X74813Y151191D01*
X74592Y151339D01*
X74331Y151391D01*
D02*
G37*
G36*
X67244D02*
X65039D01*
X64778Y151339D01*
X64557Y151191D01*
X64409Y150970D01*
X64357Y150709D01*
Y148504D01*
X64409Y148243D01*
X64557Y148021D01*
X64778Y147873D01*
X65039Y147821D01*
X67244D01*
X67505Y147873D01*
X67727Y148021D01*
X67874Y148243D01*
X67926Y148504D01*
Y150709D01*
X67874Y150970D01*
X67727Y151191D01*
X67505Y151339D01*
X67244Y151391D01*
D02*
G37*
G36*
X60157D02*
X57953D01*
X57692Y151339D01*
X57470Y151191D01*
X57322Y150970D01*
X57270Y150709D01*
Y148504D01*
X57322Y148243D01*
X57470Y148021D01*
X57692Y147873D01*
X57953Y147821D01*
X60157D01*
X60419Y147873D01*
X60640Y148021D01*
X60788Y148243D01*
X60840Y148504D01*
Y150709D01*
X60788Y150970D01*
X60640Y151191D01*
X60419Y151339D01*
X60157Y151391D01*
D02*
G37*
G36*
X53071D02*
X50866D01*
X50605Y151339D01*
X50384Y151191D01*
X50236Y150970D01*
X50184Y150709D01*
Y148504D01*
X50236Y148243D01*
X50384Y148021D01*
X50605Y147873D01*
X50866Y147821D01*
X53071D01*
X53332Y147873D01*
X53553Y148021D01*
X53701Y148243D01*
X53753Y148504D01*
Y150709D01*
X53701Y150970D01*
X53553Y151191D01*
X53332Y151339D01*
X53071Y151391D01*
D02*
G37*
G36*
X45984D02*
X43780D01*
X43518Y151339D01*
X43297Y151191D01*
X43149Y150970D01*
X43097Y150709D01*
Y148504D01*
X43149Y148243D01*
X43297Y148021D01*
X43518Y147873D01*
X43780Y147821D01*
X45984D01*
X46245Y147873D01*
X46467Y148021D01*
X46615Y148243D01*
X46667Y148504D01*
Y150709D01*
X46615Y150970D01*
X46467Y151191D01*
X46245Y151339D01*
X45984Y151391D01*
D02*
G37*
G36*
X38898D02*
X36693D01*
X36432Y151339D01*
X36210Y151191D01*
X36062Y150970D01*
X36011Y150709D01*
Y148504D01*
X36062Y148243D01*
X36210Y148021D01*
X36432Y147873D01*
X36693Y147821D01*
X38898D01*
X39159Y147873D01*
X39380Y148021D01*
X39528Y148243D01*
X39580Y148504D01*
Y150709D01*
X39528Y150970D01*
X39380Y151191D01*
X39159Y151339D01*
X38898Y151391D01*
D02*
G37*
G36*
X31811D02*
X29606D01*
X29345Y151339D01*
X29124Y151191D01*
X28976Y150970D01*
X28924Y150709D01*
Y148504D01*
X28976Y148243D01*
X29124Y148021D01*
X29345Y147873D01*
X29606Y147821D01*
X31811D01*
X32072Y147873D01*
X32293Y148021D01*
X32441Y148243D01*
X32493Y148504D01*
Y150709D01*
X32441Y150970D01*
X32293Y151191D01*
X32072Y151339D01*
X31811Y151391D01*
D02*
G37*
G36*
X24724D02*
X22520D01*
X22258Y151339D01*
X22037Y151191D01*
X21889Y150970D01*
X21837Y150709D01*
Y148504D01*
X21889Y148243D01*
X22037Y148021D01*
X22258Y147873D01*
X22520Y147821D01*
X24724D01*
X24985Y147873D01*
X25207Y148021D01*
X25355Y148243D01*
X25407Y148504D01*
Y150709D01*
X25355Y150970D01*
X25207Y151191D01*
X24985Y151339D01*
X24724Y151391D01*
D02*
G37*
G36*
X17638D02*
X15433D01*
X15172Y151339D01*
X14951Y151191D01*
X14803Y150970D01*
X14751Y150709D01*
Y148504D01*
X14803Y148243D01*
X14951Y148021D01*
X15172Y147873D01*
X15433Y147821D01*
X17638D01*
X17899Y147873D01*
X18120Y148021D01*
X18268Y148243D01*
X18320Y148504D01*
Y150709D01*
X18268Y150970D01*
X18120Y151191D01*
X17899Y151339D01*
X17638Y151391D01*
D02*
G37*
G36*
X10551D02*
X8347D01*
X8085Y151339D01*
X7864Y151191D01*
X7716Y150970D01*
X7664Y150709D01*
Y148504D01*
X7716Y148243D01*
X7864Y148021D01*
X8085Y147873D01*
X8347Y147821D01*
X10098D01*
X11632Y146288D01*
X11587Y146063D01*
X11694Y145525D01*
X11999Y145070D01*
X12455Y144765D01*
X12992Y144658D01*
X13530Y144765D01*
X13986Y145070D01*
X14290Y145525D01*
X14397Y146063D01*
X14290Y146600D01*
X13986Y147056D01*
X13530Y147361D01*
X12992Y147468D01*
X12767Y147423D01*
X11234Y148957D01*
Y150709D01*
X11182Y150970D01*
X11034Y151191D01*
X10812Y151339D01*
X10551Y151391D01*
D02*
G37*
G36*
X102677Y144304D02*
X101968D01*
Y142913D01*
X103359D01*
Y143622D01*
X103308Y143883D01*
X103160Y144105D01*
X102938Y144253D01*
X102677Y144304D01*
D02*
G37*
G36*
X101181D02*
X100472D01*
X100211Y144253D01*
X99990Y144105D01*
X99842Y143883D01*
X99790Y143622D01*
Y142913D01*
X101181D01*
Y144304D01*
D02*
G37*
G36*
X95591D02*
X94882D01*
Y142913D01*
X96273D01*
Y143622D01*
X96221Y143883D01*
X96073Y144105D01*
X95852Y144253D01*
X95591Y144304D01*
D02*
G37*
G36*
X94094D02*
X93386D01*
X93125Y144253D01*
X92903Y144105D01*
X92755Y143883D01*
X92703Y143622D01*
Y142913D01*
X94094D01*
Y144304D01*
D02*
G37*
G36*
X88504D02*
X87795D01*
Y142913D01*
X89186D01*
Y143622D01*
X89134Y143883D01*
X88986Y144105D01*
X88765Y144253D01*
X88504Y144304D01*
D02*
G37*
G36*
X87008D02*
X86299D01*
X86038Y144253D01*
X85817Y144105D01*
X85669Y143883D01*
X85617Y143622D01*
Y142913D01*
X87008D01*
Y144304D01*
D02*
G37*
G36*
X31811D02*
X31102D01*
Y142913D01*
X32493D01*
Y143622D01*
X32441Y143883D01*
X32293Y144105D01*
X32072Y144253D01*
X31811Y144304D01*
D02*
G37*
G36*
X30315D02*
X29606D01*
X29345Y144253D01*
X29124Y144105D01*
X28976Y143883D01*
X28924Y143622D01*
Y142913D01*
X30315D01*
Y144304D01*
D02*
G37*
G36*
X109764D02*
X107559D01*
X107298Y144253D01*
X107077Y144105D01*
X106929Y143883D01*
X106877Y143622D01*
Y141417D01*
X106929Y141156D01*
X107077Y140935D01*
X107298Y140787D01*
X107559Y140735D01*
X109764D01*
X110025Y140787D01*
X110246Y140935D01*
X110394Y141156D01*
X110446Y141417D01*
Y143622D01*
X110394Y143883D01*
X110246Y144105D01*
X110025Y144253D01*
X109764Y144304D01*
D02*
G37*
G36*
X103359Y142126D02*
X101968D01*
Y140735D01*
X102677D01*
X102938Y140787D01*
X103160Y140935D01*
X103308Y141156D01*
X103359Y141417D01*
Y142126D01*
D02*
G37*
G36*
X101181D02*
X99790D01*
Y141417D01*
X99842Y141156D01*
X99990Y140935D01*
X100211Y140787D01*
X100472Y140735D01*
X101181D01*
Y142126D01*
D02*
G37*
G36*
X96273D02*
X94882D01*
Y140735D01*
X95591D01*
X95852Y140787D01*
X96073Y140935D01*
X96221Y141156D01*
X96273Y141417D01*
Y142126D01*
D02*
G37*
G36*
X94094D02*
X92703D01*
Y141417D01*
X92755Y141156D01*
X92903Y140935D01*
X93125Y140787D01*
X93386Y140735D01*
X94094D01*
Y142126D01*
D02*
G37*
G36*
X89186D02*
X87795D01*
Y140735D01*
X88504D01*
X88765Y140787D01*
X88986Y140935D01*
X89134Y141156D01*
X89186Y141417D01*
Y142126D01*
D02*
G37*
G36*
X87008D02*
X85617D01*
Y141417D01*
X85669Y141156D01*
X85817Y140935D01*
X86038Y140787D01*
X86299Y140735D01*
X87008D01*
Y142126D01*
D02*
G37*
G36*
X81417Y144304D02*
X79212D01*
X78951Y144253D01*
X78730Y144105D01*
X78582Y143883D01*
X78530Y143622D01*
Y141417D01*
X78582Y141156D01*
X78730Y140935D01*
X78951Y140787D01*
X79212Y140735D01*
X81417D01*
X81678Y140787D01*
X81900Y140935D01*
X82048Y141156D01*
X82100Y141417D01*
Y143622D01*
X82048Y143883D01*
X81900Y144105D01*
X81678Y144253D01*
X81417Y144304D01*
D02*
G37*
G36*
X67244D02*
X65039D01*
X64778Y144253D01*
X64557Y144105D01*
X64409Y143883D01*
X64357Y143622D01*
Y141417D01*
X64409Y141156D01*
X64557Y140935D01*
X64778Y140787D01*
X65039Y140735D01*
X67244D01*
X67505Y140787D01*
X67727Y140935D01*
X67874Y141156D01*
X67926Y141417D01*
Y143622D01*
X67874Y143883D01*
X67727Y144105D01*
X67505Y144253D01*
X67244Y144304D01*
D02*
G37*
G36*
X60157D02*
X57953D01*
X57692Y144253D01*
X57470Y144105D01*
X57322Y143883D01*
X57270Y143622D01*
Y141417D01*
X57322Y141156D01*
X57470Y140935D01*
X57692Y140787D01*
X57953Y140735D01*
X60157D01*
X60419Y140787D01*
X60640Y140935D01*
X60788Y141156D01*
X60840Y141417D01*
Y143622D01*
X60788Y143883D01*
X60640Y144105D01*
X60419Y144253D01*
X60157Y144304D01*
D02*
G37*
G36*
X53071D02*
X50866D01*
X50605Y144253D01*
X50384Y144105D01*
X50236Y143883D01*
X50184Y143622D01*
Y141417D01*
X50236Y141156D01*
X50384Y140935D01*
X50605Y140787D01*
X50866Y140735D01*
X53071D01*
X53332Y140787D01*
X53553Y140935D01*
X53701Y141156D01*
X53753Y141417D01*
Y143622D01*
X53701Y143883D01*
X53553Y144105D01*
X53332Y144253D01*
X53071Y144304D01*
D02*
G37*
G36*
X45984D02*
X43780D01*
X43518Y144253D01*
X43297Y144105D01*
X43149Y143883D01*
X43097Y143622D01*
Y141417D01*
X43149Y141156D01*
X43297Y140935D01*
X43518Y140787D01*
X43780Y140735D01*
X45984D01*
X46245Y140787D01*
X46467Y140935D01*
X46615Y141156D01*
X46667Y141417D01*
Y143622D01*
X46615Y143883D01*
X46467Y144105D01*
X46245Y144253D01*
X45984Y144304D01*
D02*
G37*
G36*
X38898D02*
X36693D01*
X36432Y144253D01*
X36210Y144105D01*
X36062Y143883D01*
X36011Y143622D01*
Y141417D01*
X36062Y141156D01*
X36210Y140935D01*
X36432Y140787D01*
X36693Y140735D01*
X38898D01*
X39159Y140787D01*
X39380Y140935D01*
X39528Y141156D01*
X39580Y141417D01*
Y143622D01*
X39528Y143883D01*
X39380Y144105D01*
X39159Y144253D01*
X38898Y144304D01*
D02*
G37*
G36*
X32493Y142126D02*
X31102D01*
Y140735D01*
X31811D01*
X32072Y140787D01*
X32293Y140935D01*
X32441Y141156D01*
X32493Y141417D01*
Y142126D01*
D02*
G37*
G36*
X30315D02*
X28924D01*
Y141417D01*
X28976Y141156D01*
X29124Y140935D01*
X29345Y140787D01*
X29606Y140735D01*
X30315D01*
Y142126D01*
D02*
G37*
G36*
X24724Y144304D02*
X22520D01*
X22258Y144253D01*
X22037Y144105D01*
X21889Y143883D01*
X21837Y143622D01*
Y141417D01*
X21889Y141156D01*
X22037Y140935D01*
X22258Y140787D01*
X22520Y140735D01*
X24724D01*
X24985Y140787D01*
X25207Y140935D01*
X25355Y141156D01*
X25407Y141417D01*
Y143622D01*
X25355Y143883D01*
X25207Y144105D01*
X24985Y144253D01*
X24724Y144304D01*
D02*
G37*
G36*
X17638D02*
X15433D01*
X15172Y144253D01*
X14951Y144105D01*
X14803Y143883D01*
X14751Y143622D01*
Y141417D01*
X14803Y141156D01*
X14951Y140935D01*
X15172Y140787D01*
X15433Y140735D01*
X17638D01*
X17899Y140787D01*
X18120Y140935D01*
X18268Y141156D01*
X18320Y141417D01*
Y143622D01*
X18268Y143883D01*
X18120Y144105D01*
X17899Y144253D01*
X17638Y144304D01*
D02*
G37*
G36*
X74331D02*
X72126D01*
X71865Y144253D01*
X71643Y144105D01*
X71495Y143883D01*
X71443Y143622D01*
Y141417D01*
X71495Y141156D01*
X71643Y140935D01*
X71865Y140787D01*
X72126Y140735D01*
X73878D01*
X75411Y139201D01*
X75367Y138976D01*
X75474Y138439D01*
X75778Y137983D01*
X76234Y137678D01*
X76772Y137571D01*
X77309Y137678D01*
X77765Y137983D01*
X78070Y138439D01*
X78177Y138976D01*
X78070Y139514D01*
X77765Y139970D01*
X77309Y140274D01*
X76772Y140381D01*
X76547Y140337D01*
X75013Y141870D01*
Y143622D01*
X74961Y143883D01*
X74813Y144105D01*
X74592Y144253D01*
X74331Y144304D01*
D02*
G37*
G36*
X10551D02*
X8347D01*
X8085Y144253D01*
X7864Y144105D01*
X7716Y143883D01*
X7664Y143622D01*
Y141417D01*
X7716Y141156D01*
X7864Y140935D01*
X8085Y140787D01*
X8347Y140735D01*
X10098D01*
X11632Y139201D01*
X11587Y138976D01*
X11694Y138439D01*
X11999Y137983D01*
X12455Y137678D01*
X12992Y137571D01*
X13530Y137678D01*
X13986Y137983D01*
X14290Y138439D01*
X14397Y138976D01*
X14290Y139514D01*
X13986Y139970D01*
X13530Y140274D01*
X12992Y140381D01*
X12767Y140337D01*
X11234Y141870D01*
Y143622D01*
X11182Y143883D01*
X11034Y144105D01*
X10812Y144253D01*
X10551Y144304D01*
D02*
G37*
G36*
X109764Y137218D02*
X109055D01*
Y135827D01*
X110446D01*
Y136535D01*
X110394Y136796D01*
X110246Y137018D01*
X110025Y137166D01*
X109764Y137218D01*
D02*
G37*
G36*
X108268D02*
X107559D01*
X107298Y137166D01*
X107077Y137018D01*
X106929Y136796D01*
X106877Y136535D01*
Y135827D01*
X108268D01*
Y137218D01*
D02*
G37*
G36*
X102677D02*
X101968D01*
Y135827D01*
X103359D01*
Y136535D01*
X103308Y136796D01*
X103160Y137018D01*
X102938Y137166D01*
X102677Y137218D01*
D02*
G37*
G36*
X101181D02*
X100472D01*
X100211Y137166D01*
X99990Y137018D01*
X99842Y136796D01*
X99790Y136535D01*
Y135827D01*
X101181D01*
Y137218D01*
D02*
G37*
G36*
X95591D02*
X94882D01*
Y135827D01*
X96273D01*
Y136535D01*
X96221Y136796D01*
X96073Y137018D01*
X95852Y137166D01*
X95591Y137218D01*
D02*
G37*
G36*
X94094D02*
X93386D01*
X93125Y137166D01*
X92903Y137018D01*
X92755Y136796D01*
X92703Y136535D01*
Y135827D01*
X94094D01*
Y137218D01*
D02*
G37*
G36*
X110446Y135039D02*
X109055D01*
Y133648D01*
X109764D01*
X110025Y133700D01*
X110246Y133848D01*
X110394Y134070D01*
X110446Y134331D01*
Y135039D01*
D02*
G37*
G36*
X108268D02*
X106877D01*
Y134331D01*
X106929Y134070D01*
X107077Y133848D01*
X107298Y133700D01*
X107559Y133648D01*
X108268D01*
Y135039D01*
D02*
G37*
G36*
X103359D02*
X101968D01*
Y133648D01*
X102677D01*
X102938Y133700D01*
X103160Y133848D01*
X103308Y134070D01*
X103359Y134331D01*
Y135039D01*
D02*
G37*
G36*
X101181D02*
X99790D01*
Y134331D01*
X99842Y134070D01*
X99990Y133848D01*
X100211Y133700D01*
X100472Y133648D01*
X101181D01*
Y135039D01*
D02*
G37*
G36*
X96273D02*
X94882D01*
Y133648D01*
X95591D01*
X95852Y133700D01*
X96073Y133848D01*
X96221Y134070D01*
X96273Y134331D01*
Y135039D01*
D02*
G37*
G36*
X94094D02*
X92703D01*
Y134331D01*
X92755Y134070D01*
X92903Y133848D01*
X93125Y133700D01*
X93386Y133648D01*
X94094D01*
Y135039D01*
D02*
G37*
G36*
X88504Y137218D02*
X86299D01*
X86038Y137166D01*
X85817Y137018D01*
X85669Y136796D01*
X85617Y136535D01*
Y134331D01*
X85669Y134070D01*
X85817Y133848D01*
X86038Y133700D01*
X86299Y133648D01*
X88504D01*
X88765Y133700D01*
X88986Y133848D01*
X89134Y134070D01*
X89186Y134331D01*
Y136535D01*
X89134Y136796D01*
X88986Y137018D01*
X88765Y137166D01*
X88504Y137218D01*
D02*
G37*
G36*
X31811D02*
X29606D01*
X29345Y137166D01*
X29124Y137018D01*
X28976Y136796D01*
X28924Y136535D01*
Y134331D01*
X28976Y134070D01*
X29124Y133848D01*
X29345Y133700D01*
X29606Y133648D01*
X31811D01*
X32072Y133700D01*
X32293Y133848D01*
X32441Y134070D01*
X32493Y134331D01*
Y136535D01*
X32441Y136796D01*
X32293Y137018D01*
X32072Y137166D01*
X31811Y137218D01*
D02*
G37*
G36*
X24724D02*
X22520D01*
X22258Y137166D01*
X22037Y137018D01*
X21889Y136796D01*
X21837Y136535D01*
Y134331D01*
X21889Y134070D01*
X22037Y133848D01*
X22258Y133700D01*
X22520Y133648D01*
X24724D01*
X24985Y133700D01*
X25207Y133848D01*
X25355Y134070D01*
X25407Y134331D01*
Y136535D01*
X25355Y136796D01*
X25207Y137018D01*
X24985Y137166D01*
X24724Y137218D01*
D02*
G37*
G36*
X17638D02*
X15433D01*
X15172Y137166D01*
X14951Y137018D01*
X14803Y136796D01*
X14751Y136535D01*
Y134331D01*
X14803Y134070D01*
X14951Y133848D01*
X15172Y133700D01*
X15433Y133648D01*
X17638D01*
X17899Y133700D01*
X18120Y133848D01*
X18268Y134070D01*
X18320Y134331D01*
Y136535D01*
X18268Y136796D01*
X18120Y137018D01*
X17899Y137166D01*
X17638Y137218D01*
D02*
G37*
G36*
X10551D02*
X8347D01*
X8085Y137166D01*
X7864Y137018D01*
X7716Y136796D01*
X7664Y136535D01*
Y134331D01*
X7716Y134070D01*
X7864Y133848D01*
X8085Y133700D01*
X8347Y133648D01*
X10098D01*
X11632Y132115D01*
X11587Y131890D01*
X11694Y131352D01*
X11999Y130896D01*
X12455Y130592D01*
X12992Y130485D01*
X13530Y130592D01*
X13986Y130896D01*
X14290Y131352D01*
X14397Y131890D01*
X14290Y132427D01*
X13986Y132883D01*
X13530Y133188D01*
X12992Y133295D01*
X12767Y133250D01*
X11234Y134784D01*
Y136535D01*
X11182Y136796D01*
X11034Y137018D01*
X10812Y137166D01*
X10551Y137218D01*
D02*
G37*
G36*
X109764Y130131D02*
X109055D01*
Y128740D01*
X110446D01*
Y129449D01*
X110394Y129710D01*
X110246Y129931D01*
X110025Y130079D01*
X109764Y130131D01*
D02*
G37*
G36*
X108268D02*
X107559D01*
X107298Y130079D01*
X107077Y129931D01*
X106929Y129710D01*
X106877Y129449D01*
Y128740D01*
X108268D01*
Y130131D01*
D02*
G37*
G36*
X102677D02*
X101968D01*
Y128740D01*
X103359D01*
Y129449D01*
X103308Y129710D01*
X103160Y129931D01*
X102938Y130079D01*
X102677Y130131D01*
D02*
G37*
G36*
X101181D02*
X100472D01*
X100211Y130079D01*
X99990Y129931D01*
X99842Y129710D01*
X99790Y129449D01*
Y128740D01*
X101181D01*
Y130131D01*
D02*
G37*
G36*
X95591D02*
X94882D01*
Y128740D01*
X96273D01*
Y129449D01*
X96221Y129710D01*
X96073Y129931D01*
X95852Y130079D01*
X95591Y130131D01*
D02*
G37*
G36*
X94094D02*
X93386D01*
X93125Y130079D01*
X92903Y129931D01*
X92755Y129710D01*
X92703Y129449D01*
Y128740D01*
X94094D01*
Y130131D01*
D02*
G37*
G36*
X110446Y127953D02*
X109055D01*
Y126562D01*
X109764D01*
X110025Y126614D01*
X110246Y126761D01*
X110394Y126983D01*
X110446Y127244D01*
Y127953D01*
D02*
G37*
G36*
X108268D02*
X106877D01*
Y127244D01*
X106929Y126983D01*
X107077Y126761D01*
X107298Y126614D01*
X107559Y126562D01*
X108268D01*
Y127953D01*
D02*
G37*
G36*
X103359D02*
X101968D01*
Y126562D01*
X102677D01*
X102938Y126614D01*
X103160Y126761D01*
X103308Y126983D01*
X103359Y127244D01*
Y127953D01*
D02*
G37*
G36*
X101181D02*
X99790D01*
Y127244D01*
X99842Y126983D01*
X99990Y126761D01*
X100211Y126614D01*
X100472Y126562D01*
X101181D01*
Y127953D01*
D02*
G37*
G36*
X96273D02*
X94882D01*
Y126562D01*
X95591D01*
X95852Y126614D01*
X96073Y126761D01*
X96221Y126983D01*
X96273Y127244D01*
Y127953D01*
D02*
G37*
G36*
X94094D02*
X92703D01*
Y127244D01*
X92755Y126983D01*
X92903Y126761D01*
X93125Y126614D01*
X93386Y126562D01*
X94094D01*
Y127953D01*
D02*
G37*
G36*
X31811Y130131D02*
X29606D01*
X29345Y130079D01*
X29124Y129931D01*
X28976Y129710D01*
X28924Y129449D01*
Y127244D01*
X28976Y126983D01*
X29124Y126761D01*
X29345Y126614D01*
X29606Y126562D01*
X31811D01*
X32072Y126614D01*
X32293Y126761D01*
X32441Y126983D01*
X32493Y127244D01*
Y129449D01*
X32441Y129710D01*
X32293Y129931D01*
X32072Y130079D01*
X31811Y130131D01*
D02*
G37*
G36*
X24724D02*
X22520D01*
X22258Y130079D01*
X22037Y129931D01*
X21889Y129710D01*
X21837Y129449D01*
Y127244D01*
X21889Y126983D01*
X22037Y126761D01*
X22258Y126614D01*
X22520Y126562D01*
X24724D01*
X24985Y126614D01*
X25207Y126761D01*
X25355Y126983D01*
X25407Y127244D01*
Y129449D01*
X25355Y129710D01*
X25207Y129931D01*
X24985Y130079D01*
X24724Y130131D01*
D02*
G37*
G36*
X17638D02*
X15433D01*
X15172Y130079D01*
X14951Y129931D01*
X14803Y129710D01*
X14751Y129449D01*
Y127244D01*
X14803Y126983D01*
X14951Y126761D01*
X15172Y126614D01*
X15433Y126562D01*
X17638D01*
X17899Y126614D01*
X18120Y126761D01*
X18268Y126983D01*
X18320Y127244D01*
Y129449D01*
X18268Y129710D01*
X18120Y129931D01*
X17899Y130079D01*
X17638Y130131D01*
D02*
G37*
G36*
X88504D02*
X86299D01*
X86038Y130079D01*
X85817Y129931D01*
X85669Y129710D01*
X85617Y129449D01*
Y127697D01*
X84083Y126163D01*
X83858Y126208D01*
X83320Y126101D01*
X82865Y125797D01*
X82560Y125341D01*
X82453Y124803D01*
X82560Y124266D01*
X82865Y123810D01*
X83320Y123505D01*
X83858Y123398D01*
X84396Y123505D01*
X84852Y123810D01*
X85156Y124266D01*
X85263Y124803D01*
X85218Y125028D01*
X86752Y126562D01*
X88504D01*
X88765Y126614D01*
X88986Y126761D01*
X89134Y126983D01*
X89186Y127244D01*
Y129449D01*
X89134Y129710D01*
X88986Y129931D01*
X88765Y130079D01*
X88504Y130131D01*
D02*
G37*
G36*
X10551D02*
X8347D01*
X8085Y130079D01*
X7864Y129931D01*
X7716Y129710D01*
X7664Y129449D01*
Y127244D01*
X7716Y126983D01*
X7864Y126761D01*
X8085Y126614D01*
X8347Y126562D01*
X10098D01*
X11632Y125028D01*
X11587Y124803D01*
X11694Y124265D01*
X11999Y123810D01*
X12455Y123505D01*
X12992Y123398D01*
X13530Y123505D01*
X13986Y123810D01*
X14290Y124265D01*
X14397Y124803D01*
X14290Y125341D01*
X13986Y125796D01*
X13530Y126101D01*
X12992Y126208D01*
X12767Y126163D01*
X11234Y127697D01*
Y129449D01*
X11182Y129710D01*
X11034Y129931D01*
X10812Y130079D01*
X10551Y130131D01*
D02*
G37*
G36*
X67244Y123045D02*
X66535D01*
Y121653D01*
X67927D01*
Y122362D01*
X67874Y122623D01*
X67727Y122845D01*
X67505Y122993D01*
X67244Y123045D01*
D02*
G37*
G36*
X65748D02*
X65039D01*
X64778Y122993D01*
X64557Y122845D01*
X64409Y122623D01*
X64357Y122362D01*
Y121653D01*
X65748D01*
Y123045D01*
D02*
G37*
G36*
X60157D02*
X59449D01*
Y121653D01*
X60840D01*
Y122362D01*
X60788Y122623D01*
X60640Y122845D01*
X60419Y122993D01*
X60157Y123045D01*
D02*
G37*
G36*
X58661D02*
X57953D01*
X57692Y122993D01*
X57470Y122845D01*
X57322Y122623D01*
X57270Y122362D01*
Y121653D01*
X58661D01*
Y123045D01*
D02*
G37*
G36*
X53071D02*
X52362D01*
Y121653D01*
X53753D01*
Y122362D01*
X53701Y122623D01*
X53553Y122845D01*
X53332Y122993D01*
X53071Y123045D01*
D02*
G37*
G36*
X51575D02*
X50866D01*
X50605Y122993D01*
X50384Y122845D01*
X50236Y122623D01*
X50184Y122362D01*
Y121653D01*
X51575D01*
Y123045D01*
D02*
G37*
G36*
X67927Y120866D02*
X66535D01*
Y119475D01*
X67244D01*
X67505Y119527D01*
X67727Y119675D01*
X67874Y119896D01*
X67927Y120158D01*
Y120866D01*
D02*
G37*
G36*
X65748D02*
X64357D01*
Y120158D01*
X64409Y119896D01*
X64557Y119675D01*
X64778Y119527D01*
X65039Y119475D01*
X65748D01*
Y120866D01*
D02*
G37*
G36*
X60840D02*
X59449D01*
Y119475D01*
X60157D01*
X60419Y119527D01*
X60640Y119675D01*
X60788Y119896D01*
X60840Y120158D01*
Y120866D01*
D02*
G37*
G36*
X58661D02*
X57270D01*
Y120158D01*
X57322Y119896D01*
X57470Y119675D01*
X57692Y119527D01*
X57953Y119475D01*
X58661D01*
Y120866D01*
D02*
G37*
G36*
X53753D02*
X52362D01*
Y119475D01*
X53071D01*
X53332Y119527D01*
X53553Y119675D01*
X53701Y119896D01*
X53753Y120158D01*
Y120866D01*
D02*
G37*
G36*
X51575D02*
X50184D01*
Y120158D01*
X50236Y119896D01*
X50384Y119675D01*
X50605Y119527D01*
X50866Y119475D01*
X51575D01*
Y120866D01*
D02*
G37*
G36*
X102677Y123045D02*
X100472D01*
X100211Y122993D01*
X99990Y122845D01*
X99842Y122623D01*
X99790Y122362D01*
Y120157D01*
X99842Y119896D01*
X99990Y119675D01*
X100211Y119527D01*
X100472Y119475D01*
X102677D01*
X102938Y119527D01*
X103160Y119675D01*
X103308Y119896D01*
X103359Y120157D01*
Y122362D01*
X103308Y122623D01*
X103160Y122845D01*
X102938Y122993D01*
X102677Y123045D01*
D02*
G37*
G36*
X95591D02*
X93386D01*
X93125Y122993D01*
X92903Y122845D01*
X92755Y122623D01*
X92703Y122362D01*
Y120157D01*
X92755Y119896D01*
X92903Y119675D01*
X93125Y119527D01*
X93386Y119475D01*
X95591D01*
X95852Y119527D01*
X96073Y119675D01*
X96221Y119896D01*
X96273Y120157D01*
Y122362D01*
X96221Y122623D01*
X96073Y122845D01*
X95852Y122993D01*
X95591Y123045D01*
D02*
G37*
G36*
X88504D02*
X86299D01*
X86038Y122993D01*
X85817Y122845D01*
X85669Y122623D01*
X85617Y122362D01*
Y120157D01*
X85669Y119896D01*
X85817Y119675D01*
X86038Y119527D01*
X86299Y119475D01*
X88504D01*
X88765Y119527D01*
X88986Y119675D01*
X89134Y119896D01*
X89186Y120157D01*
Y122362D01*
X89134Y122623D01*
X88986Y122845D01*
X88765Y122993D01*
X88504Y123045D01*
D02*
G37*
G36*
X31811D02*
X29606D01*
X29345Y122993D01*
X29124Y122845D01*
X28976Y122623D01*
X28924Y122362D01*
Y120157D01*
X28976Y119896D01*
X29124Y119675D01*
X29345Y119527D01*
X29606Y119475D01*
X31811D01*
X32072Y119527D01*
X32293Y119675D01*
X32441Y119896D01*
X32493Y120157D01*
Y122362D01*
X32441Y122623D01*
X32293Y122845D01*
X32072Y122993D01*
X31811Y123045D01*
D02*
G37*
G36*
X24724D02*
X22520D01*
X22258Y122993D01*
X22037Y122845D01*
X21889Y122623D01*
X21837Y122362D01*
Y120157D01*
X21889Y119896D01*
X22037Y119675D01*
X22258Y119527D01*
X22520Y119475D01*
X24724D01*
X24985Y119527D01*
X25207Y119675D01*
X25355Y119896D01*
X25407Y120157D01*
Y122362D01*
X25355Y122623D01*
X25207Y122845D01*
X24985Y122993D01*
X24724Y123045D01*
D02*
G37*
G36*
X17638D02*
X15433D01*
X15172Y122993D01*
X14951Y122845D01*
X14803Y122623D01*
X14751Y122362D01*
Y120157D01*
X14803Y119896D01*
X14951Y119675D01*
X15172Y119527D01*
X15433Y119475D01*
X17638D01*
X17899Y119527D01*
X18120Y119675D01*
X18268Y119896D01*
X18320Y120157D01*
Y122362D01*
X18268Y122623D01*
X18120Y122845D01*
X17899Y122993D01*
X17638Y123045D01*
D02*
G37*
G36*
X109764D02*
X107559D01*
X107298Y122993D01*
X107077Y122845D01*
X106929Y122623D01*
X106877Y122362D01*
Y120610D01*
X105343Y119077D01*
X105118Y119122D01*
X104580Y119015D01*
X104125Y118710D01*
X103820Y118254D01*
X103713Y117717D01*
X103820Y117179D01*
X104125Y116723D01*
X104580Y116419D01*
X105118Y116312D01*
X105656Y116419D01*
X106112Y116723D01*
X106416Y117179D01*
X106523Y117717D01*
X106478Y117941D01*
X108012Y119475D01*
X109764D01*
X110025Y119527D01*
X110246Y119675D01*
X110394Y119896D01*
X110446Y120157D01*
Y122362D01*
X110394Y122623D01*
X110246Y122845D01*
X110025Y122993D01*
X109764Y123045D01*
D02*
G37*
G36*
X27165Y119122D02*
X26628Y119015D01*
X26172Y118710D01*
X25867Y118254D01*
X25760Y117717D01*
X25805Y117492D01*
X24271Y115958D01*
X22520D01*
X22258Y115906D01*
X22037Y115758D01*
X21889Y115537D01*
X21837Y115276D01*
Y113071D01*
X21889Y112810D01*
X22037Y112588D01*
X22258Y112440D01*
X22520Y112388D01*
X24724D01*
X24985Y112440D01*
X25207Y112588D01*
X25355Y112810D01*
X25407Y113071D01*
Y114823D01*
X26941Y116356D01*
X27165Y116312D01*
X27703Y116419D01*
X28159Y116723D01*
X28463Y117179D01*
X28570Y117717D01*
X28463Y118254D01*
X28159Y118710D01*
X27703Y119015D01*
X27165Y119122D01*
D02*
G37*
G36*
X10551Y123045D02*
X8347D01*
X8085Y122993D01*
X7864Y122845D01*
X7716Y122623D01*
X7664Y122362D01*
Y120157D01*
X7716Y119896D01*
X7864Y119675D01*
X8085Y119527D01*
X8347Y119475D01*
X10098D01*
X11632Y117941D01*
X11587Y117717D01*
X11694Y117179D01*
X11999Y116723D01*
X12455Y116419D01*
X12992Y116312D01*
X13530Y116419D01*
X13986Y116723D01*
X14290Y117179D01*
X14397Y117717D01*
X14290Y118254D01*
X13986Y118710D01*
X13530Y119015D01*
X12992Y119121D01*
X12767Y119077D01*
X11234Y120610D01*
Y122362D01*
X11182Y122623D01*
X11034Y122845D01*
X10812Y122993D01*
X10551Y123045D01*
D02*
G37*
G36*
X109764Y115958D02*
X109055D01*
Y114567D01*
X110446D01*
Y115276D01*
X110394Y115537D01*
X110246Y115758D01*
X110025Y115906D01*
X109764Y115958D01*
D02*
G37*
G36*
X108268D02*
X107559D01*
X107298Y115906D01*
X107077Y115758D01*
X106929Y115537D01*
X106877Y115276D01*
Y114567D01*
X108268D01*
Y115958D01*
D02*
G37*
G36*
X102677D02*
X101968D01*
Y114567D01*
X103359D01*
Y115276D01*
X103308Y115537D01*
X103160Y115758D01*
X102938Y115906D01*
X102677Y115958D01*
D02*
G37*
G36*
X101181D02*
X100472D01*
X100211Y115906D01*
X99990Y115758D01*
X99842Y115537D01*
X99790Y115276D01*
Y114567D01*
X101181D01*
Y115958D01*
D02*
G37*
G36*
X67244D02*
X66535D01*
Y114567D01*
X67927D01*
Y115276D01*
X67874Y115537D01*
X67727Y115758D01*
X67505Y115906D01*
X67244Y115958D01*
D02*
G37*
G36*
X65748D02*
X65039D01*
X64778Y115906D01*
X64557Y115758D01*
X64409Y115537D01*
X64357Y115276D01*
Y114567D01*
X65748D01*
Y115958D01*
D02*
G37*
G36*
X60157D02*
X59449D01*
Y114567D01*
X60840D01*
Y115276D01*
X60788Y115537D01*
X60640Y115758D01*
X60419Y115906D01*
X60157Y115958D01*
D02*
G37*
G36*
X58661D02*
X57953D01*
X57692Y115906D01*
X57470Y115758D01*
X57322Y115537D01*
X57270Y115276D01*
Y114567D01*
X58661D01*
Y115958D01*
D02*
G37*
G36*
X53071D02*
X52362D01*
Y114567D01*
X53753D01*
Y115276D01*
X53701Y115537D01*
X53553Y115758D01*
X53332Y115906D01*
X53071Y115958D01*
D02*
G37*
G36*
X51575D02*
X50866D01*
X50605Y115906D01*
X50384Y115758D01*
X50236Y115537D01*
X50184Y115276D01*
Y114567D01*
X51575D01*
Y115958D01*
D02*
G37*
G36*
X110446Y113779D02*
X109055D01*
Y112388D01*
X109764D01*
X110025Y112440D01*
X110246Y112588D01*
X110394Y112810D01*
X110446Y113071D01*
Y113779D01*
D02*
G37*
G36*
X108268D02*
X106877D01*
Y113071D01*
X106929Y112810D01*
X107077Y112588D01*
X107298Y112440D01*
X107559Y112388D01*
X108268D01*
Y113779D01*
D02*
G37*
G36*
X103359D02*
X101968D01*
Y112388D01*
X102677D01*
X102938Y112440D01*
X103160Y112588D01*
X103308Y112810D01*
X103359Y113071D01*
Y113779D01*
D02*
G37*
G36*
X101181D02*
X99790D01*
Y113071D01*
X99842Y112810D01*
X99990Y112588D01*
X100211Y112440D01*
X100472Y112388D01*
X101181D01*
Y113779D01*
D02*
G37*
G36*
X95591Y115958D02*
X93386D01*
X93125Y115906D01*
X92903Y115758D01*
X92755Y115537D01*
X92703Y115276D01*
Y113071D01*
X92755Y112810D01*
X92903Y112588D01*
X93125Y112440D01*
X93386Y112388D01*
X95591D01*
X95852Y112440D01*
X96073Y112588D01*
X96221Y112810D01*
X96273Y113071D01*
Y115276D01*
X96221Y115537D01*
X96073Y115758D01*
X95852Y115906D01*
X95591Y115958D01*
D02*
G37*
G36*
X88504D02*
X86299D01*
X86038Y115906D01*
X85817Y115758D01*
X85669Y115537D01*
X85617Y115276D01*
Y113071D01*
X85669Y112810D01*
X85817Y112588D01*
X86038Y112440D01*
X86299Y112388D01*
X88504D01*
X88765Y112440D01*
X88986Y112588D01*
X89134Y112810D01*
X89186Y113071D01*
Y115276D01*
X89134Y115537D01*
X88986Y115758D01*
X88765Y115906D01*
X88504Y115958D01*
D02*
G37*
G36*
X67927Y113779D02*
X66535D01*
Y112388D01*
X67244D01*
X67505Y112440D01*
X67727Y112588D01*
X67874Y112810D01*
X67927Y113071D01*
Y113779D01*
D02*
G37*
G36*
X65748D02*
X64357D01*
Y113071D01*
X64409Y112810D01*
X64557Y112588D01*
X64778Y112440D01*
X65039Y112388D01*
X65748D01*
Y113779D01*
D02*
G37*
G36*
X60840D02*
X59449D01*
Y112388D01*
X60157D01*
X60419Y112440D01*
X60640Y112588D01*
X60788Y112810D01*
X60840Y113071D01*
Y113779D01*
D02*
G37*
G36*
X58661D02*
X57270D01*
Y113071D01*
X57322Y112810D01*
X57470Y112588D01*
X57692Y112440D01*
X57953Y112388D01*
X58661D01*
Y113779D01*
D02*
G37*
G36*
X53753D02*
X52362D01*
Y112388D01*
X53071D01*
X53332Y112440D01*
X53553Y112588D01*
X53701Y112810D01*
X53753Y113071D01*
Y113779D01*
D02*
G37*
G36*
X51575D02*
X50184D01*
Y113071D01*
X50236Y112810D01*
X50384Y112588D01*
X50605Y112440D01*
X50866Y112388D01*
X51575D01*
Y113779D01*
D02*
G37*
G36*
X31811Y115958D02*
X29606D01*
X29345Y115906D01*
X29124Y115758D01*
X28976Y115537D01*
X28924Y115276D01*
Y113071D01*
X28976Y112810D01*
X29124Y112588D01*
X29345Y112440D01*
X29606Y112388D01*
X31811D01*
X32072Y112440D01*
X32293Y112588D01*
X32441Y112810D01*
X32493Y113071D01*
Y115276D01*
X32441Y115537D01*
X32293Y115758D01*
X32072Y115906D01*
X31811Y115958D01*
D02*
G37*
G36*
X17638D02*
X15433D01*
X15172Y115906D01*
X14951Y115758D01*
X14803Y115537D01*
X14751Y115276D01*
Y113071D01*
X14803Y112810D01*
X14951Y112588D01*
X15172Y112440D01*
X15433Y112388D01*
X17638D01*
X17899Y112440D01*
X18120Y112588D01*
X18268Y112810D01*
X18320Y113071D01*
Y115276D01*
X18268Y115537D01*
X18120Y115758D01*
X17899Y115906D01*
X17638Y115958D01*
D02*
G37*
G36*
X10551D02*
X8347D01*
X8085Y115906D01*
X7864Y115758D01*
X7716Y115537D01*
X7664Y115276D01*
Y113071D01*
X7716Y112810D01*
X7864Y112588D01*
X8085Y112440D01*
X8347Y112388D01*
X10551D01*
X10812Y112440D01*
X11034Y112588D01*
X11182Y112810D01*
X11234Y113071D01*
Y115276D01*
X11182Y115537D01*
X11034Y115758D01*
X10812Y115906D01*
X10551Y115958D01*
D02*
G37*
G36*
X75590Y194390D02*
X70866D01*
X66142D01*
Y192992D01*
X66109Y192913D01*
Y191339D01*
X65354D01*
Y188976D01*
Y186614D01*
X66109D01*
Y185039D01*
X66142Y184961D01*
Y183563D01*
X70866D01*
X75590D01*
Y184961D01*
X75623Y185039D01*
Y186614D01*
X79134D01*
Y186899D01*
X86505D01*
Y184843D01*
X86221D01*
Y181299D01*
X86505D01*
Y180417D01*
X86502D01*
X86675Y178662D01*
X87187Y176974D01*
X88018Y175418D01*
X89137Y174055D01*
X90501Y172936D01*
X92057Y172104D01*
X93745Y171592D01*
X95500Y171419D01*
Y171423D01*
X102000D01*
X102127Y171448D01*
X103943Y171269D01*
X105812Y170702D01*
X107534Y169782D01*
X109043Y168543D01*
X110282Y167034D01*
X111202Y165312D01*
X111769Y163443D01*
X111912Y161995D01*
X111923Y161500D01*
X111923Y161500D01*
X111923Y161006D01*
Y111498D01*
X111923Y111000D01*
X111855Y110528D01*
X111807Y110287D01*
X111403Y109684D01*
X110799Y109280D01*
X110112Y109143D01*
X110087Y109164D01*
Y109164D01*
X109431Y109033D01*
X108661D01*
X107916Y108885D01*
X107896Y108871D01*
X107559D01*
X107298Y108819D01*
X107077Y108671D01*
X106929Y108450D01*
X106877Y108189D01*
Y107852D01*
X106863Y107832D01*
X106714Y107087D01*
X106863Y106342D01*
X106877Y106321D01*
Y105984D01*
X106929Y105723D01*
X107077Y105502D01*
X107298Y105354D01*
X107559Y105302D01*
X107896D01*
X107916Y105288D01*
X108661Y105140D01*
X109431D01*
X110087Y105009D01*
Y105020D01*
X111253Y105135D01*
X112375Y105476D01*
X113409Y106028D01*
X114315Y106772D01*
X115058Y107678D01*
X115611Y108712D01*
X115951Y109833D01*
X116055Y110889D01*
X116077Y111000D01*
Y161500D01*
X116081D01*
X115907Y163703D01*
X115392Y165851D01*
X114546Y167893D01*
X113392Y169776D01*
X111957Y171457D01*
X110276Y172892D01*
X108393Y174046D01*
X106351Y174892D01*
X104203Y175407D01*
X102000Y175581D01*
Y175577D01*
X95500D01*
X95404Y175558D01*
X94239Y175712D01*
X93064Y176198D01*
X92055Y176973D01*
X91281Y177981D01*
X90794Y179156D01*
X90641Y180322D01*
X90660Y180417D01*
Y181299D01*
X90945D01*
Y184843D01*
X90660D01*
Y187205D01*
X90945D01*
Y190748D01*
X89598D01*
X89378Y190896D01*
X88583Y191054D01*
X79134D01*
Y191339D01*
X75623D01*
Y192913D01*
X75590Y192992D01*
Y194390D01*
D02*
G37*
G36*
X67244Y108871D02*
X66535D01*
Y107480D01*
X67927D01*
Y108189D01*
X67874Y108450D01*
X67727Y108671D01*
X67505Y108819D01*
X67244Y108871D01*
D02*
G37*
G36*
X65748D02*
X65039D01*
X64778Y108819D01*
X64557Y108671D01*
X64409Y108450D01*
X64357Y108189D01*
Y107480D01*
X65748D01*
Y108871D01*
D02*
G37*
G36*
X60157D02*
X59449D01*
Y107480D01*
X60840D01*
Y108189D01*
X60788Y108450D01*
X60640Y108671D01*
X60419Y108819D01*
X60157Y108871D01*
D02*
G37*
G36*
X58661D02*
X57953D01*
X57692Y108819D01*
X57470Y108671D01*
X57322Y108450D01*
X57270Y108189D01*
Y107480D01*
X58661D01*
Y108871D01*
D02*
G37*
G36*
X53071D02*
X52362D01*
Y107480D01*
X53753D01*
Y108189D01*
X53701Y108450D01*
X53553Y108671D01*
X53332Y108819D01*
X53071Y108871D01*
D02*
G37*
G36*
X51575D02*
X50866D01*
X50605Y108819D01*
X50384Y108671D01*
X50236Y108450D01*
X50184Y108189D01*
Y107480D01*
X51575D01*
Y108871D01*
D02*
G37*
G36*
X102677Y108871D02*
X101968D01*
Y107480D01*
X103359D01*
Y108189D01*
X103308Y108450D01*
X103160Y108671D01*
X102938Y108819D01*
X102677Y108871D01*
D02*
G37*
G36*
X101181D02*
X100472D01*
X100211Y108819D01*
X99990Y108671D01*
X99842Y108450D01*
X99790Y108189D01*
Y107480D01*
X101181D01*
Y108871D01*
D02*
G37*
G36*
X67927Y106693D02*
X66535D01*
Y105302D01*
X67244D01*
X67505Y105354D01*
X67727Y105502D01*
X67874Y105723D01*
X67927Y105984D01*
Y106693D01*
D02*
G37*
G36*
X65748D02*
X64357D01*
Y105984D01*
X64409Y105723D01*
X64557Y105502D01*
X64778Y105354D01*
X65039Y105302D01*
X65748D01*
Y106693D01*
D02*
G37*
G36*
X60840D02*
X59449D01*
Y105302D01*
X60157D01*
X60419Y105354D01*
X60640Y105502D01*
X60788Y105723D01*
X60840Y105984D01*
Y106693D01*
D02*
G37*
G36*
X58661D02*
X57270D01*
Y105984D01*
X57322Y105723D01*
X57470Y105502D01*
X57692Y105354D01*
X57953Y105302D01*
X58661D01*
Y106693D01*
D02*
G37*
G36*
X53753D02*
X52362D01*
Y105302D01*
X53071D01*
X53332Y105354D01*
X53553Y105502D01*
X53701Y105723D01*
X53753Y105984D01*
Y106693D01*
D02*
G37*
G36*
X51575D02*
X50184D01*
Y105984D01*
X50236Y105723D01*
X50384Y105502D01*
X50605Y105354D01*
X50866Y105302D01*
X51575D01*
Y106693D01*
D02*
G37*
G36*
X103359Y106693D02*
X101968D01*
Y105302D01*
X102677D01*
X102938Y105354D01*
X103160Y105502D01*
X103308Y105723D01*
X103359Y105984D01*
Y106693D01*
D02*
G37*
G36*
X101181D02*
X99790D01*
Y105984D01*
X99842Y105723D01*
X99990Y105502D01*
X100211Y105354D01*
X100472Y105302D01*
X101181D01*
Y106693D01*
D02*
G37*
G36*
X88504Y108871D02*
X86299D01*
X86038Y108819D01*
X85817Y108671D01*
X85669Y108450D01*
X85617Y108189D01*
Y105984D01*
X85669Y105723D01*
X85817Y105502D01*
X86038Y105354D01*
X86299Y105302D01*
X88504D01*
X88765Y105354D01*
X88986Y105502D01*
X89134Y105723D01*
X89186Y105984D01*
Y108189D01*
X89134Y108450D01*
X88986Y108671D01*
X88765Y108819D01*
X88504Y108871D01*
D02*
G37*
G36*
X31811D02*
X29606D01*
X29345Y108819D01*
X29124Y108671D01*
X28976Y108450D01*
X28924Y108189D01*
Y105984D01*
X28976Y105723D01*
X29124Y105502D01*
X29345Y105354D01*
X29606Y105302D01*
X31811D01*
X32072Y105354D01*
X32293Y105502D01*
X32441Y105723D01*
X32493Y105984D01*
Y108189D01*
X32441Y108450D01*
X32293Y108671D01*
X32072Y108819D01*
X31811Y108871D01*
D02*
G37*
G36*
X24724D02*
X22520D01*
X22258Y108819D01*
X22037Y108671D01*
X21889Y108450D01*
X21837Y108189D01*
Y105984D01*
X21889Y105723D01*
X22037Y105502D01*
X22258Y105354D01*
X22520Y105302D01*
X24724D01*
X24985Y105354D01*
X25207Y105502D01*
X25355Y105723D01*
X25407Y105984D01*
Y108189D01*
X25355Y108450D01*
X25207Y108671D01*
X24985Y108819D01*
X24724Y108871D01*
D02*
G37*
G36*
X17638D02*
X15433D01*
X15172Y108819D01*
X14951Y108671D01*
X14803Y108450D01*
X14751Y108189D01*
Y105984D01*
X14803Y105723D01*
X14951Y105502D01*
X15172Y105354D01*
X15433Y105302D01*
X17638D01*
X17899Y105354D01*
X18120Y105502D01*
X18268Y105723D01*
X18320Y105984D01*
Y108189D01*
X18268Y108450D01*
X18120Y108671D01*
X17899Y108819D01*
X17638Y108871D01*
D02*
G37*
G36*
X10551D02*
X8347D01*
X8085Y108819D01*
X7864Y108671D01*
X7716Y108450D01*
X7664Y108189D01*
Y105984D01*
X7716Y105723D01*
X7864Y105502D01*
X8085Y105354D01*
X8347Y105302D01*
X10551D01*
X10812Y105354D01*
X11034Y105502D01*
X11182Y105723D01*
X11234Y105984D01*
Y108189D01*
X11182Y108450D01*
X11034Y108671D01*
X10812Y108819D01*
X10551Y108871D01*
D02*
G37*
G36*
X95591D02*
X93386D01*
X93125Y108819D01*
X92903Y108671D01*
X92755Y108450D01*
X92703Y108189D01*
Y106437D01*
X91170Y104903D01*
X90945Y104948D01*
X90407Y104841D01*
X89951Y104537D01*
X89647Y104081D01*
X89540Y103543D01*
X89647Y103006D01*
X89951Y102550D01*
X90407Y102245D01*
X90945Y102138D01*
X91482Y102245D01*
X91938Y102550D01*
X92243Y103006D01*
X92350Y103543D01*
X92305Y103768D01*
X93839Y105302D01*
X95591D01*
X95852Y105354D01*
X96073Y105502D01*
X96221Y105723D01*
X96273Y105984D01*
Y108189D01*
X96221Y108450D01*
X96073Y108671D01*
X95852Y108819D01*
X95591Y108871D01*
D02*
G37*
G36*
X109764Y101785D02*
X109055D01*
Y100394D01*
X110446D01*
Y101102D01*
X110394Y101364D01*
X110246Y101585D01*
X110025Y101733D01*
X109764Y101785D01*
D02*
G37*
G36*
X108268D02*
X107559D01*
X107298Y101733D01*
X107077Y101585D01*
X106929Y101364D01*
X106877Y101102D01*
Y100394D01*
X108268D01*
Y101785D01*
D02*
G37*
G36*
X102677D02*
X101968D01*
Y100394D01*
X103359D01*
Y101102D01*
X103308Y101364D01*
X103160Y101585D01*
X102938Y101733D01*
X102677Y101785D01*
D02*
G37*
G36*
X101181D02*
X100472D01*
X100211Y101733D01*
X99990Y101585D01*
X99842Y101364D01*
X99790Y101102D01*
Y100394D01*
X101181D01*
Y101785D01*
D02*
G37*
G36*
X112205Y100051D02*
X111898Y99990D01*
X111637Y99816D01*
X111463Y99555D01*
X111402Y99248D01*
X111463Y98941D01*
X111637Y98680D01*
X111898Y98506D01*
X112205Y98445D01*
X112512Y98506D01*
X112772Y98680D01*
X112946Y98941D01*
X113007Y99248D01*
X112946Y99555D01*
X112772Y99816D01*
X112512Y99990D01*
X112205Y100051D01*
D02*
G37*
G36*
X110446Y99606D02*
X109055D01*
Y98215D01*
X109764D01*
X110025Y98267D01*
X110246Y98415D01*
X110394Y98637D01*
X110446Y98898D01*
Y99606D01*
D02*
G37*
G36*
X108268D02*
X106877D01*
Y98898D01*
X106929Y98637D01*
X107077Y98415D01*
X107298Y98267D01*
X107559Y98215D01*
X108268D01*
Y99606D01*
D02*
G37*
G36*
X103359D02*
X101968D01*
Y98215D01*
X102677D01*
X102938Y98267D01*
X103160Y98415D01*
X103308Y98637D01*
X103359Y98898D01*
Y99606D01*
D02*
G37*
G36*
X101181D02*
X99790D01*
Y98898D01*
X99842Y98637D01*
X99990Y98415D01*
X100211Y98267D01*
X100472Y98215D01*
X101181D01*
Y99606D01*
D02*
G37*
G36*
X95591Y101785D02*
X93386D01*
X93125Y101733D01*
X92903Y101585D01*
X92755Y101364D01*
X92703Y101102D01*
Y98898D01*
X92755Y98637D01*
X92903Y98415D01*
X93125Y98267D01*
X93386Y98215D01*
X95591D01*
X95852Y98267D01*
X96073Y98415D01*
X96221Y98637D01*
X96273Y98898D01*
Y101102D01*
X96221Y101364D01*
X96073Y101585D01*
X95852Y101733D01*
X95591Y101785D01*
D02*
G37*
G36*
X88504D02*
X86299D01*
X86038Y101733D01*
X85817Y101585D01*
X85669Y101364D01*
X85617Y101102D01*
Y98898D01*
X85669Y98637D01*
X85817Y98415D01*
X86038Y98267D01*
X86299Y98215D01*
X88504D01*
X88765Y98267D01*
X88986Y98415D01*
X89134Y98637D01*
X89186Y98898D01*
Y101102D01*
X89134Y101364D01*
X88986Y101585D01*
X88765Y101733D01*
X88504Y101785D01*
D02*
G37*
G36*
X31811D02*
X29606D01*
X29345Y101733D01*
X29124Y101585D01*
X28976Y101364D01*
X28924Y101102D01*
Y98898D01*
X28976Y98637D01*
X29124Y98415D01*
X29345Y98267D01*
X29606Y98215D01*
X31811D01*
X32072Y98267D01*
X32293Y98415D01*
X32441Y98637D01*
X32493Y98898D01*
Y101102D01*
X32441Y101364D01*
X32293Y101585D01*
X32072Y101733D01*
X31811Y101785D01*
D02*
G37*
G36*
X24724D02*
X22520D01*
X22258Y101733D01*
X22037Y101585D01*
X21889Y101364D01*
X21837Y101102D01*
Y98898D01*
X21889Y98637D01*
X22037Y98415D01*
X22258Y98267D01*
X22520Y98215D01*
X24724D01*
X24985Y98267D01*
X25207Y98415D01*
X25355Y98637D01*
X25407Y98898D01*
Y101102D01*
X25355Y101364D01*
X25207Y101585D01*
X24985Y101733D01*
X24724Y101785D01*
D02*
G37*
G36*
X17638D02*
X15433D01*
X15172Y101733D01*
X14951Y101585D01*
X14803Y101364D01*
X14751Y101102D01*
Y98898D01*
X14803Y98637D01*
X14951Y98415D01*
X15172Y98267D01*
X15433Y98215D01*
X17638D01*
X17899Y98267D01*
X18120Y98415D01*
X18268Y98637D01*
X18320Y98898D01*
Y101102D01*
X18268Y101364D01*
X18120Y101585D01*
X17899Y101733D01*
X17638Y101785D01*
D02*
G37*
G36*
X10551D02*
X8347D01*
X8085Y101733D01*
X7864Y101585D01*
X7716Y101364D01*
X7664Y101102D01*
Y98898D01*
X7716Y98637D01*
X7864Y98415D01*
X8085Y98267D01*
X8347Y98215D01*
X10551D01*
X10812Y98267D01*
X11034Y98415D01*
X11182Y98637D01*
X11234Y98898D01*
Y101102D01*
X11182Y101364D01*
X11034Y101585D01*
X10812Y101733D01*
X10551Y101785D01*
D02*
G37*
G36*
X31811Y94958D02*
X29606D01*
X29345Y94906D01*
X29124Y94758D01*
X28976Y94537D01*
X28924Y94276D01*
Y92071D01*
X28976Y91810D01*
X29124Y91588D01*
X29345Y91440D01*
X29606Y91388D01*
X31811D01*
X32072Y91440D01*
X32293Y91588D01*
X32441Y91810D01*
X32493Y92071D01*
Y94276D01*
X32441Y94537D01*
X32293Y94758D01*
X32072Y94906D01*
X31811Y94958D01*
D02*
G37*
G36*
X102677Y94698D02*
X100472D01*
X100211Y94646D01*
X99990Y94498D01*
X99842Y94277D01*
X99790Y94016D01*
Y91811D01*
X99842Y91550D01*
X99990Y91329D01*
X100211Y91181D01*
X100472Y91129D01*
X102677D01*
X102938Y91181D01*
X103160Y91329D01*
X103308Y91550D01*
X103359Y91811D01*
Y94016D01*
X103308Y94277D01*
X103160Y94498D01*
X102938Y94646D01*
X102677Y94698D01*
D02*
G37*
G36*
X95591D02*
X93386D01*
X93125Y94646D01*
X92903Y94498D01*
X92755Y94277D01*
X92703Y94016D01*
Y91811D01*
X92755Y91550D01*
X92903Y91329D01*
X93125Y91181D01*
X93386Y91129D01*
X95591D01*
X95852Y91181D01*
X96073Y91329D01*
X96221Y91550D01*
X96273Y91811D01*
Y94016D01*
X96221Y94277D01*
X96073Y94498D01*
X95852Y94646D01*
X95591Y94698D01*
D02*
G37*
G36*
X88504D02*
X86299D01*
X86038Y94646D01*
X85817Y94498D01*
X85669Y94277D01*
X85617Y94016D01*
Y91811D01*
X85669Y91550D01*
X85817Y91329D01*
X86038Y91181D01*
X86299Y91129D01*
X88504D01*
X88765Y91181D01*
X88986Y91329D01*
X89134Y91550D01*
X89186Y91811D01*
Y94016D01*
X89134Y94277D01*
X88986Y94498D01*
X88765Y94646D01*
X88504Y94698D01*
D02*
G37*
G36*
X24724D02*
X22520D01*
X22258Y94646D01*
X22037Y94498D01*
X21889Y94277D01*
X21837Y94016D01*
Y91811D01*
X21889Y91550D01*
X22037Y91329D01*
X22258Y91181D01*
X22520Y91129D01*
X24724D01*
X24985Y91181D01*
X25207Y91329D01*
X25355Y91550D01*
X25407Y91811D01*
Y94016D01*
X25355Y94277D01*
X25207Y94498D01*
X24985Y94646D01*
X24724Y94698D01*
D02*
G37*
G36*
X17638D02*
X15433D01*
X15172Y94646D01*
X14951Y94498D01*
X14803Y94277D01*
X14751Y94016D01*
Y91811D01*
X14803Y91550D01*
X14951Y91329D01*
X15172Y91181D01*
X15433Y91129D01*
X17638D01*
X17899Y91181D01*
X18120Y91329D01*
X18268Y91550D01*
X18320Y91811D01*
Y94016D01*
X18268Y94277D01*
X18120Y94498D01*
X17899Y94646D01*
X17638Y94698D01*
D02*
G37*
G36*
X10551D02*
X8347D01*
X8085Y94646D01*
X7864Y94498D01*
X7716Y94277D01*
X7664Y94016D01*
Y91811D01*
X7716Y91550D01*
X7864Y91329D01*
X8085Y91181D01*
X8347Y91129D01*
X10551D01*
X10812Y91181D01*
X11034Y91329D01*
X11182Y91550D01*
X11234Y91811D01*
Y94016D01*
X11182Y94277D01*
X11034Y94498D01*
X10812Y94646D01*
X10551Y94698D01*
D02*
G37*
G36*
X5906Y92535D02*
X5598Y92474D01*
X5338Y92300D01*
X5164Y92040D01*
X5103Y91732D01*
X5164Y91425D01*
X5338Y91165D01*
X5598Y90991D01*
X5906Y90929D01*
X6213Y90991D01*
X6473Y91165D01*
X6647Y91425D01*
X6708Y91732D01*
X6647Y92040D01*
X6473Y92300D01*
X6213Y92474D01*
X5906Y92535D01*
D02*
G37*
G36*
X109764Y94698D02*
X107559D01*
X107298Y94646D01*
X107077Y94498D01*
X106929Y94277D01*
X106877Y94016D01*
Y92264D01*
X105343Y90730D01*
X105118Y90775D01*
X104580Y90668D01*
X104125Y90364D01*
X103820Y89908D01*
X103713Y89370D01*
X103820Y88832D01*
X104125Y88377D01*
X104580Y88072D01*
X105118Y87965D01*
X105656Y88072D01*
X106112Y88377D01*
X106416Y88832D01*
X106523Y89370D01*
X106478Y89595D01*
X108012Y91129D01*
X109764D01*
X110025Y91181D01*
X110246Y91329D01*
X110394Y91550D01*
X110446Y91811D01*
Y94016D01*
X110394Y94277D01*
X110246Y94498D01*
X110025Y94646D01*
X109764Y94698D01*
D02*
G37*
G36*
X112205Y90775D02*
X111667Y90668D01*
X111211Y90364D01*
X110907Y89908D01*
X110800Y89370D01*
X110845Y89145D01*
X109311Y87612D01*
X107559D01*
X107298Y87560D01*
X107077Y87412D01*
X106929Y87190D01*
X106877Y86929D01*
Y84724D01*
X106929Y84463D01*
X107077Y84242D01*
X107298Y84094D01*
X107559Y84042D01*
X109764D01*
X110025Y84094D01*
X110246Y84242D01*
X110394Y84463D01*
X110446Y84724D01*
Y86476D01*
X111980Y88010D01*
X112205Y87965D01*
X112742Y88072D01*
X113198Y88377D01*
X113503Y88832D01*
X113610Y89370D01*
X113503Y89908D01*
X113198Y90364D01*
X112742Y90668D01*
X112205Y90775D01*
D02*
G37*
G36*
X88504Y87612D02*
X87795D01*
Y86221D01*
X89186D01*
Y86929D01*
X89134Y87190D01*
X88986Y87412D01*
X88765Y87560D01*
X88504Y87612D01*
D02*
G37*
G36*
X87008D02*
X86299D01*
X86038Y87560D01*
X85817Y87412D01*
X85669Y87190D01*
X85617Y86929D01*
Y86221D01*
X87008D01*
Y87612D01*
D02*
G37*
G36*
X102677D02*
X100472D01*
X100211Y87560D01*
X99990Y87412D01*
X99842Y87190D01*
X99790Y86929D01*
Y84724D01*
X99842Y84463D01*
X99990Y84242D01*
X100211Y84094D01*
X100472Y84042D01*
X102677D01*
X102938Y84094D01*
X103160Y84242D01*
X103308Y84463D01*
X103359Y84724D01*
Y86929D01*
X103308Y87190D01*
X103160Y87412D01*
X102938Y87560D01*
X102677Y87612D01*
D02*
G37*
G36*
X95591D02*
X93386D01*
X93125Y87560D01*
X92903Y87412D01*
X92755Y87190D01*
X92703Y86929D01*
Y84724D01*
X92755Y84463D01*
X92903Y84242D01*
X93125Y84094D01*
X93386Y84042D01*
X95591D01*
X95852Y84094D01*
X96073Y84242D01*
X96221Y84463D01*
X96273Y84724D01*
Y86929D01*
X96221Y87190D01*
X96073Y87412D01*
X95852Y87560D01*
X95591Y87612D01*
D02*
G37*
G36*
X89186Y85433D02*
X87795D01*
Y84042D01*
X88504D01*
X88765Y84094D01*
X88986Y84242D01*
X89134Y84463D01*
X89186Y84724D01*
Y85433D01*
D02*
G37*
G36*
X87008D02*
X85617D01*
Y84724D01*
X85669Y84463D01*
X85817Y84242D01*
X86038Y84094D01*
X86299Y84042D01*
X87008D01*
Y85433D01*
D02*
G37*
G36*
X81417Y87612D02*
X79212D01*
X78951Y87560D01*
X78730Y87412D01*
X78582Y87190D01*
X78530Y86929D01*
Y84724D01*
X78582Y84463D01*
X78730Y84242D01*
X78951Y84094D01*
X79212Y84042D01*
X81417D01*
X81678Y84094D01*
X81900Y84242D01*
X82048Y84463D01*
X82100Y84724D01*
Y86929D01*
X82048Y87190D01*
X81900Y87412D01*
X81678Y87560D01*
X81417Y87612D01*
D02*
G37*
G36*
X74331D02*
X72126D01*
X71865Y87560D01*
X71643Y87412D01*
X71495Y87190D01*
X71443Y86929D01*
Y84724D01*
X71495Y84463D01*
X71643Y84242D01*
X71865Y84094D01*
X72126Y84042D01*
X74331D01*
X74592Y84094D01*
X74813Y84242D01*
X74961Y84463D01*
X75013Y84724D01*
Y86929D01*
X74961Y87190D01*
X74813Y87412D01*
X74592Y87560D01*
X74331Y87612D01*
D02*
G37*
G36*
X67244D02*
X65039D01*
X64778Y87560D01*
X64557Y87412D01*
X64409Y87190D01*
X64357Y86929D01*
Y84724D01*
X64409Y84463D01*
X64557Y84242D01*
X64778Y84094D01*
X65039Y84042D01*
X67244D01*
X67505Y84094D01*
X67727Y84242D01*
X67874Y84463D01*
X67926Y84724D01*
Y86929D01*
X67874Y87190D01*
X67727Y87412D01*
X67505Y87560D01*
X67244Y87612D01*
D02*
G37*
G36*
X60157D02*
X57953D01*
X57692Y87560D01*
X57470Y87412D01*
X57322Y87190D01*
X57270Y86929D01*
Y84724D01*
X57322Y84463D01*
X57470Y84242D01*
X57692Y84094D01*
X57953Y84042D01*
X60157D01*
X60419Y84094D01*
X60640Y84242D01*
X60788Y84463D01*
X60840Y84724D01*
Y86929D01*
X60788Y87190D01*
X60640Y87412D01*
X60419Y87560D01*
X60157Y87612D01*
D02*
G37*
G36*
X53071D02*
X50866D01*
X50605Y87560D01*
X50384Y87412D01*
X50236Y87190D01*
X50184Y86929D01*
Y84724D01*
X50236Y84463D01*
X50384Y84242D01*
X50605Y84094D01*
X50866Y84042D01*
X53071D01*
X53332Y84094D01*
X53553Y84242D01*
X53701Y84463D01*
X53753Y84724D01*
Y86929D01*
X53701Y87190D01*
X53553Y87412D01*
X53332Y87560D01*
X53071Y87612D01*
D02*
G37*
G36*
X45984D02*
X43780D01*
X43518Y87560D01*
X43297Y87412D01*
X43149Y87190D01*
X43097Y86929D01*
Y84724D01*
X43149Y84463D01*
X43297Y84242D01*
X43518Y84094D01*
X43780Y84042D01*
X45984D01*
X46245Y84094D01*
X46467Y84242D01*
X46615Y84463D01*
X46667Y84724D01*
Y86929D01*
X46615Y87190D01*
X46467Y87412D01*
X46245Y87560D01*
X45984Y87612D01*
D02*
G37*
G36*
X38898D02*
X36693D01*
X36432Y87560D01*
X36210Y87412D01*
X36062Y87190D01*
X36011Y86929D01*
Y84724D01*
X36062Y84463D01*
X36210Y84242D01*
X36432Y84094D01*
X36693Y84042D01*
X38898D01*
X39159Y84094D01*
X39380Y84242D01*
X39528Y84463D01*
X39580Y84724D01*
Y86929D01*
X39528Y87190D01*
X39380Y87412D01*
X39159Y87560D01*
X38898Y87612D01*
D02*
G37*
G36*
X31811D02*
X29606D01*
X29345Y87560D01*
X29124Y87412D01*
X28976Y87190D01*
X28924Y86929D01*
Y84724D01*
X28976Y84463D01*
X29124Y84242D01*
X29345Y84094D01*
X29606Y84042D01*
X31811D01*
X32072Y84094D01*
X32293Y84242D01*
X32441Y84463D01*
X32493Y84724D01*
Y86929D01*
X32441Y87190D01*
X32293Y87412D01*
X32072Y87560D01*
X31811Y87612D01*
D02*
G37*
G36*
X24724D02*
X22520D01*
X22258Y87560D01*
X22037Y87412D01*
X21889Y87190D01*
X21837Y86929D01*
Y84724D01*
X21889Y84463D01*
X22037Y84242D01*
X22258Y84094D01*
X22520Y84042D01*
X24724D01*
X24985Y84094D01*
X25207Y84242D01*
X25355Y84463D01*
X25407Y84724D01*
Y86929D01*
X25355Y87190D01*
X25207Y87412D01*
X24985Y87560D01*
X24724Y87612D01*
D02*
G37*
G36*
X17638D02*
X15433D01*
X15172Y87560D01*
X14951Y87412D01*
X14803Y87190D01*
X14751Y86929D01*
Y84724D01*
X14803Y84463D01*
X14951Y84242D01*
X15172Y84094D01*
X15433Y84042D01*
X17638D01*
X17899Y84094D01*
X18120Y84242D01*
X18268Y84463D01*
X18320Y84724D01*
Y86929D01*
X18268Y87190D01*
X18120Y87412D01*
X17899Y87560D01*
X17638Y87612D01*
D02*
G37*
G36*
X10551D02*
X8347D01*
X8085Y87560D01*
X7864Y87412D01*
X7716Y87190D01*
X7664Y86929D01*
Y84724D01*
X7716Y84463D01*
X7864Y84242D01*
X8085Y84094D01*
X8347Y84042D01*
X10551D01*
X10812Y84094D01*
X11034Y84242D01*
X11182Y84463D01*
X11234Y84724D01*
Y86929D01*
X11182Y87190D01*
X11034Y87412D01*
X10812Y87560D01*
X10551Y87612D01*
D02*
G37*
G36*
X112205Y84303D02*
X111898Y84242D01*
X111637Y84068D01*
X111463Y83807D01*
X111402Y83500D01*
X111463Y83193D01*
X111637Y82932D01*
X111898Y82758D01*
X112205Y82697D01*
X112512Y82758D01*
X112772Y82932D01*
X112946Y83193D01*
X113007Y83500D01*
X112946Y83807D01*
X112772Y84068D01*
X112512Y84242D01*
X112205Y84303D01*
D02*
G37*
G36*
X69685Y83086D02*
X69378Y83025D01*
X69117Y82851D01*
X68943Y82591D01*
X68882Y82284D01*
X68943Y81976D01*
X69117Y81716D01*
X69378Y81542D01*
X69685Y81481D01*
X69992Y81542D01*
X70253Y81716D01*
X70427Y81976D01*
X70488Y82284D01*
X70427Y82591D01*
X70253Y82851D01*
X69992Y83025D01*
X69685Y83086D01*
D02*
G37*
G36*
X62598D02*
X62291Y83025D01*
X62031Y82851D01*
X61857Y82591D01*
X61796Y82284D01*
X61857Y81976D01*
X62031Y81716D01*
X62291Y81542D01*
X62598Y81481D01*
X62906Y81542D01*
X63166Y81716D01*
X63340Y81976D01*
X63401Y82284D01*
X63340Y82591D01*
X63166Y82851D01*
X62906Y83025D01*
X62598Y83086D01*
D02*
G37*
G36*
X55512D02*
X55204Y83025D01*
X54944Y82851D01*
X54770Y82591D01*
X54709Y82284D01*
X54770Y81976D01*
X54944Y81716D01*
X55204Y81542D01*
X55512Y81481D01*
X55819Y81542D01*
X56080Y81716D01*
X56253Y81976D01*
X56315Y82284D01*
X56253Y82591D01*
X56080Y82851D01*
X55819Y83025D01*
X55512Y83086D01*
D02*
G37*
G36*
X48425D02*
X48118Y83025D01*
X47857Y82851D01*
X47683Y82591D01*
X47622Y82284D01*
X47683Y81976D01*
X47857Y81716D01*
X48118Y81542D01*
X48425Y81481D01*
X48732Y81542D01*
X48993Y81716D01*
X49167Y81976D01*
X49228Y82284D01*
X49167Y82591D01*
X48993Y82851D01*
X48732Y83025D01*
X48425Y83086D01*
D02*
G37*
G36*
X41339D02*
X41031Y83025D01*
X40771Y82851D01*
X40597Y82591D01*
X40536Y82284D01*
X40597Y81976D01*
X40771Y81716D01*
X41031Y81542D01*
X41339Y81481D01*
X41646Y81542D01*
X41906Y81716D01*
X42080Y81976D01*
X42141Y82284D01*
X42080Y82591D01*
X41906Y82851D01*
X41646Y83025D01*
X41339Y83086D01*
D02*
G37*
G36*
X5906Y82299D02*
X5598Y82238D01*
X5338Y82064D01*
X5164Y81803D01*
X5103Y81496D01*
X5164Y81189D01*
X5338Y80928D01*
X5598Y80754D01*
X5906Y80693D01*
X6213Y80754D01*
X6473Y80928D01*
X6647Y81189D01*
X6708Y81496D01*
X6647Y81803D01*
X6473Y82064D01*
X6213Y82238D01*
X5906Y82299D01*
D02*
G37*
G36*
X102677Y80525D02*
X101968D01*
Y79134D01*
X103359D01*
Y79843D01*
X103308Y80104D01*
X103160Y80325D01*
X102938Y80473D01*
X102677Y80525D01*
D02*
G37*
G36*
X101181D02*
X100472D01*
X100211Y80473D01*
X99990Y80325D01*
X99842Y80104D01*
X99790Y79843D01*
Y79134D01*
X101181D01*
Y80525D01*
D02*
G37*
G36*
X17638D02*
X16929D01*
Y79134D01*
X18320D01*
Y79843D01*
X18268Y80104D01*
X18120Y80325D01*
X17899Y80473D01*
X17638Y80525D01*
D02*
G37*
G36*
X16142D02*
X15433D01*
X15172Y80473D01*
X14951Y80325D01*
X14803Y80104D01*
X14751Y79843D01*
Y79134D01*
X16142D01*
Y80525D01*
D02*
G37*
G36*
X103359Y78347D02*
X101968D01*
Y76955D01*
X102677D01*
X102938Y77007D01*
X103160Y77155D01*
X103308Y77377D01*
X103359Y77638D01*
Y78347D01*
D02*
G37*
G36*
X101181D02*
X99790D01*
Y77638D01*
X99842Y77377D01*
X99990Y77155D01*
X100211Y77007D01*
X100472Y76955D01*
X101181D01*
Y78347D01*
D02*
G37*
G36*
X95591Y80525D02*
X93386D01*
X93125Y80473D01*
X92903Y80325D01*
X92755Y80104D01*
X92703Y79843D01*
Y77638D01*
X92755Y77377D01*
X92903Y77155D01*
X93125Y77007D01*
X93386Y76955D01*
X95591D01*
X95852Y77007D01*
X96073Y77155D01*
X96221Y77377D01*
X96273Y77638D01*
Y79843D01*
X96221Y80104D01*
X96073Y80325D01*
X95852Y80473D01*
X95591Y80525D01*
D02*
G37*
G36*
X88504D02*
X86299D01*
X86038Y80473D01*
X85817Y80325D01*
X85669Y80104D01*
X85617Y79843D01*
Y77638D01*
X85669Y77377D01*
X85817Y77155D01*
X86038Y77007D01*
X86299Y76955D01*
X88504D01*
X88765Y77007D01*
X88986Y77155D01*
X89134Y77377D01*
X89186Y77638D01*
Y79843D01*
X89134Y80104D01*
X88986Y80325D01*
X88765Y80473D01*
X88504Y80525D01*
D02*
G37*
G36*
X81417D02*
X79212D01*
X78951Y80473D01*
X78730Y80325D01*
X78582Y80104D01*
X78530Y79843D01*
Y77638D01*
X78582Y77377D01*
X78730Y77155D01*
X78951Y77007D01*
X79212Y76955D01*
X81417D01*
X81678Y77007D01*
X81900Y77155D01*
X82048Y77377D01*
X82100Y77638D01*
Y79843D01*
X82048Y80104D01*
X81900Y80325D01*
X81678Y80473D01*
X81417Y80525D01*
D02*
G37*
G36*
X74331D02*
X72126D01*
X71865Y80473D01*
X71643Y80325D01*
X71495Y80104D01*
X71443Y79843D01*
Y77638D01*
X71495Y77377D01*
X71643Y77155D01*
X71865Y77007D01*
X72126Y76955D01*
X74331D01*
X74592Y77007D01*
X74813Y77155D01*
X74961Y77377D01*
X75013Y77638D01*
Y79843D01*
X74961Y80104D01*
X74813Y80325D01*
X74592Y80473D01*
X74331Y80525D01*
D02*
G37*
G36*
X67244D02*
X65039D01*
X64778Y80473D01*
X64557Y80325D01*
X64409Y80104D01*
X64357Y79843D01*
Y77638D01*
X64409Y77377D01*
X64557Y77155D01*
X64778Y77007D01*
X65039Y76955D01*
X67244D01*
X67505Y77007D01*
X67727Y77155D01*
X67874Y77377D01*
X67926Y77638D01*
Y79843D01*
X67874Y80104D01*
X67727Y80325D01*
X67505Y80473D01*
X67244Y80525D01*
D02*
G37*
G36*
X60157D02*
X57953D01*
X57692Y80473D01*
X57470Y80325D01*
X57322Y80104D01*
X57270Y79843D01*
Y77638D01*
X57322Y77377D01*
X57470Y77155D01*
X57692Y77007D01*
X57953Y76955D01*
X60157D01*
X60419Y77007D01*
X60640Y77155D01*
X60788Y77377D01*
X60840Y77638D01*
Y79843D01*
X60788Y80104D01*
X60640Y80325D01*
X60419Y80473D01*
X60157Y80525D01*
D02*
G37*
G36*
X53071D02*
X50866D01*
X50605Y80473D01*
X50384Y80325D01*
X50236Y80104D01*
X50184Y79843D01*
Y77638D01*
X50236Y77377D01*
X50384Y77155D01*
X50605Y77007D01*
X50866Y76955D01*
X53071D01*
X53332Y77007D01*
X53553Y77155D01*
X53701Y77377D01*
X53753Y77638D01*
Y79843D01*
X53701Y80104D01*
X53553Y80325D01*
X53332Y80473D01*
X53071Y80525D01*
D02*
G37*
G36*
X45984D02*
X43780D01*
X43518Y80473D01*
X43297Y80325D01*
X43149Y80104D01*
X43097Y79843D01*
Y77638D01*
X43149Y77377D01*
X43297Y77155D01*
X43518Y77007D01*
X43780Y76955D01*
X45984D01*
X46245Y77007D01*
X46467Y77155D01*
X46615Y77377D01*
X46667Y77638D01*
Y79843D01*
X46615Y80104D01*
X46467Y80325D01*
X46245Y80473D01*
X45984Y80525D01*
D02*
G37*
G36*
X34252Y83720D02*
X33714Y83613D01*
X33259Y83308D01*
X32954Y82853D01*
X32847Y82315D01*
X32954Y81777D01*
X33259Y81322D01*
X33714Y81017D01*
X34252Y80910D01*
X34451Y80949D01*
X36011Y79390D01*
Y77638D01*
X36062Y77377D01*
X36210Y77155D01*
X36432Y77007D01*
X36693Y76955D01*
X38898D01*
X39159Y77007D01*
X39380Y77155D01*
X39528Y77377D01*
X39580Y77638D01*
Y79843D01*
X39528Y80104D01*
X39380Y80325D01*
X39159Y80473D01*
X38898Y80525D01*
X37146D01*
X35607Y82064D01*
X35657Y82315D01*
X35550Y82853D01*
X35245Y83308D01*
X34790Y83613D01*
X34252Y83720D01*
D02*
G37*
G36*
X31811Y80525D02*
X29606D01*
X29345Y80473D01*
X29124Y80325D01*
X28976Y80104D01*
X28924Y79843D01*
Y77638D01*
X28976Y77377D01*
X29124Y77155D01*
X29345Y77007D01*
X29606Y76955D01*
X31811D01*
X32072Y77007D01*
X32293Y77155D01*
X32441Y77377D01*
X32493Y77638D01*
Y79843D01*
X32441Y80104D01*
X32293Y80325D01*
X32072Y80473D01*
X31811Y80525D01*
D02*
G37*
G36*
X24724D02*
X22520D01*
X22258Y80473D01*
X22037Y80325D01*
X21889Y80104D01*
X21837Y79843D01*
Y77638D01*
X21889Y77377D01*
X22037Y77155D01*
X22258Y77007D01*
X22520Y76955D01*
X24724D01*
X24985Y77007D01*
X25207Y77155D01*
X25355Y77377D01*
X25407Y77638D01*
Y79843D01*
X25355Y80104D01*
X25207Y80325D01*
X24985Y80473D01*
X24724Y80525D01*
D02*
G37*
G36*
X18320Y78347D02*
X16929D01*
Y76955D01*
X17638D01*
X17899Y77007D01*
X18120Y77155D01*
X18268Y77377D01*
X18320Y77638D01*
Y78347D01*
D02*
G37*
G36*
X16142D02*
X14751D01*
Y77638D01*
X14803Y77377D01*
X14951Y77155D01*
X15172Y77007D01*
X15433Y76955D01*
X16142D01*
Y78347D01*
D02*
G37*
G36*
X76772Y76602D02*
X76234Y76495D01*
X75778Y76190D01*
X75474Y75735D01*
X75367Y75197D01*
X75411Y74972D01*
X73878Y73438D01*
X72126D01*
X71865Y73386D01*
X71643Y73238D01*
X71495Y73017D01*
X71443Y72756D01*
Y70551D01*
X71495Y70290D01*
X71643Y70069D01*
X71865Y69921D01*
X72126Y69869D01*
X74331D01*
X74592Y69921D01*
X74813Y70069D01*
X74961Y70290D01*
X75013Y70551D01*
Y72303D01*
X76547Y73837D01*
X76772Y73792D01*
X77309Y73899D01*
X77765Y74203D01*
X78070Y74659D01*
X78177Y75197D01*
X78070Y75735D01*
X77765Y76190D01*
X77309Y76495D01*
X76772Y76602D01*
D02*
G37*
G36*
X109764Y80525D02*
X107559D01*
X107298Y80473D01*
X107077Y80325D01*
X106929Y80104D01*
X106877Y79843D01*
Y77638D01*
X106929Y77377D01*
X107077Y77155D01*
X107298Y77007D01*
X107559Y76955D01*
X109311D01*
X110845Y75422D01*
X110800Y75197D01*
X110907Y74659D01*
X111211Y74203D01*
X111667Y73899D01*
X112205Y73792D01*
X112742Y73899D01*
X113198Y74203D01*
X113503Y74659D01*
X113610Y75197D01*
X113503Y75735D01*
X113198Y76190D01*
X112742Y76495D01*
X112205Y76602D01*
X111980Y76557D01*
X110446Y78091D01*
Y79843D01*
X110394Y80104D01*
X110246Y80325D01*
X110025Y80473D01*
X109764Y80525D01*
D02*
G37*
G36*
X10551D02*
X8347D01*
X8085Y80473D01*
X7864Y80325D01*
X7716Y80104D01*
X7664Y79843D01*
Y77638D01*
X7716Y77377D01*
X7864Y77155D01*
X8085Y77007D01*
X8347Y76955D01*
X10098D01*
X11632Y75422D01*
X11587Y75197D01*
X11694Y74659D01*
X11999Y74203D01*
X12455Y73899D01*
X12992Y73792D01*
X13530Y73899D01*
X13986Y74203D01*
X14290Y74659D01*
X14397Y75197D01*
X14290Y75735D01*
X13986Y76190D01*
X13530Y76495D01*
X12992Y76602D01*
X12767Y76557D01*
X11234Y78091D01*
Y79843D01*
X11182Y80104D01*
X11034Y80325D01*
X10812Y80473D01*
X10551Y80525D01*
D02*
G37*
G36*
X38898Y73438D02*
X38189D01*
Y72047D01*
X39580D01*
Y72756D01*
X39528Y73017D01*
X39380Y73238D01*
X39159Y73386D01*
X38898Y73438D01*
D02*
G37*
G36*
X37402D02*
X36693D01*
X36432Y73386D01*
X36210Y73238D01*
X36062Y73017D01*
X36011Y72756D01*
Y72047D01*
X37402D01*
Y73438D01*
D02*
G37*
G36*
X102677D02*
X100472D01*
X100211Y73386D01*
X99990Y73238D01*
X99842Y73017D01*
X99790Y72756D01*
Y70551D01*
X99842Y70290D01*
X99990Y70069D01*
X100211Y69921D01*
X100472Y69869D01*
X102677D01*
X102938Y69921D01*
X103160Y70069D01*
X103308Y70290D01*
X103359Y70551D01*
Y72756D01*
X103308Y73017D01*
X103160Y73238D01*
X102938Y73386D01*
X102677Y73438D01*
D02*
G37*
G36*
X95591D02*
X93386D01*
X93125Y73386D01*
X92903Y73238D01*
X92755Y73017D01*
X92703Y72756D01*
Y70551D01*
X92755Y70290D01*
X92903Y70069D01*
X93125Y69921D01*
X93386Y69869D01*
X95591D01*
X95852Y69921D01*
X96073Y70069D01*
X96221Y70290D01*
X96273Y70551D01*
Y72756D01*
X96221Y73017D01*
X96073Y73238D01*
X95852Y73386D01*
X95591Y73438D01*
D02*
G37*
G36*
X88504D02*
X86299D01*
X86038Y73386D01*
X85817Y73238D01*
X85669Y73017D01*
X85617Y72756D01*
Y70551D01*
X85669Y70290D01*
X85817Y70069D01*
X86038Y69921D01*
X86299Y69869D01*
X88504D01*
X88765Y69921D01*
X88986Y70069D01*
X89134Y70290D01*
X89186Y70551D01*
Y72756D01*
X89134Y73017D01*
X88986Y73238D01*
X88765Y73386D01*
X88504Y73438D01*
D02*
G37*
G36*
X81417D02*
X79212D01*
X78951Y73386D01*
X78730Y73238D01*
X78582Y73017D01*
X78530Y72756D01*
Y70551D01*
X78582Y70290D01*
X78730Y70069D01*
X78951Y69921D01*
X79212Y69869D01*
X81417D01*
X81678Y69921D01*
X81900Y70069D01*
X82048Y70290D01*
X82100Y70551D01*
Y72756D01*
X82048Y73017D01*
X81900Y73238D01*
X81678Y73386D01*
X81417Y73438D01*
D02*
G37*
G36*
X60157D02*
X57953D01*
X57692Y73386D01*
X57470Y73238D01*
X57322Y73017D01*
X57270Y72756D01*
Y70551D01*
X57322Y70290D01*
X57470Y70069D01*
X57692Y69921D01*
X57953Y69869D01*
X60157D01*
X60419Y69921D01*
X60640Y70069D01*
X60788Y70290D01*
X60840Y70551D01*
Y72756D01*
X60788Y73017D01*
X60640Y73238D01*
X60419Y73386D01*
X60157Y73438D01*
D02*
G37*
G36*
X39580Y71260D02*
X38189D01*
Y69869D01*
X38898D01*
X39159Y69921D01*
X39380Y70069D01*
X39528Y70290D01*
X39580Y70551D01*
Y71260D01*
D02*
G37*
G36*
X37402D02*
X36011D01*
Y70551D01*
X36062Y70290D01*
X36210Y70069D01*
X36432Y69921D01*
X36693Y69869D01*
X37402D01*
Y71260D01*
D02*
G37*
G36*
X31811Y73438D02*
X29606D01*
X29345Y73386D01*
X29124Y73238D01*
X28976Y73017D01*
X28924Y72756D01*
Y70551D01*
X28976Y70290D01*
X29124Y70069D01*
X29345Y69921D01*
X29606Y69869D01*
X31811D01*
X32072Y69921D01*
X32293Y70069D01*
X32441Y70290D01*
X32493Y70551D01*
Y72756D01*
X32441Y73017D01*
X32293Y73238D01*
X32072Y73386D01*
X31811Y73438D01*
D02*
G37*
G36*
X24724D02*
X22520D01*
X22258Y73386D01*
X22037Y73238D01*
X21889Y73017D01*
X21837Y72756D01*
Y70551D01*
X21889Y70290D01*
X22037Y70069D01*
X22258Y69921D01*
X22520Y69869D01*
X24724D01*
X24985Y69921D01*
X25207Y70069D01*
X25355Y70290D01*
X25407Y70551D01*
Y72756D01*
X25355Y73017D01*
X25207Y73238D01*
X24985Y73386D01*
X24724Y73438D01*
D02*
G37*
G36*
X17638D02*
X15433D01*
X15172Y73386D01*
X14951Y73238D01*
X14803Y73017D01*
X14751Y72756D01*
Y70551D01*
X14803Y70290D01*
X14951Y70069D01*
X15172Y69921D01*
X15433Y69869D01*
X17638D01*
X17899Y69921D01*
X18120Y70069D01*
X18268Y70290D01*
X18320Y70551D01*
Y72756D01*
X18268Y73017D01*
X18120Y73238D01*
X17899Y73386D01*
X17638Y73438D01*
D02*
G37*
G36*
X10551D02*
X8347D01*
X8085Y73386D01*
X7864Y73238D01*
X7716Y73017D01*
X7664Y72756D01*
Y70551D01*
X7716Y70290D01*
X7864Y70069D01*
X8085Y69921D01*
X8347Y69869D01*
X10551D01*
X10812Y69921D01*
X11034Y70069D01*
X11182Y70290D01*
X11234Y70551D01*
Y72756D01*
X11182Y73017D01*
X11034Y73238D01*
X10812Y73386D01*
X10551Y73438D01*
D02*
G37*
G36*
X109764D02*
X107559D01*
X107298Y73386D01*
X107077Y73238D01*
X106929Y73017D01*
X106877Y72756D01*
Y71004D01*
X105343Y69471D01*
X105118Y69515D01*
X104580Y69408D01*
X104125Y69104D01*
X103820Y68648D01*
X103713Y68110D01*
X103820Y67573D01*
X104125Y67117D01*
X104580Y66812D01*
X105118Y66705D01*
X105656Y66812D01*
X106112Y67117D01*
X106416Y67573D01*
X106523Y68110D01*
X106478Y68335D01*
X108012Y69869D01*
X109764D01*
X110025Y69921D01*
X110246Y70069D01*
X110394Y70290D01*
X110446Y70551D01*
Y72756D01*
X110394Y73017D01*
X110246Y73238D01*
X110025Y73386D01*
X109764Y73438D01*
D02*
G37*
G36*
X67244D02*
X65039D01*
X64778Y73386D01*
X64557Y73238D01*
X64409Y73017D01*
X64357Y72756D01*
Y71004D01*
X62823Y69471D01*
X62598Y69515D01*
X62061Y69408D01*
X61605Y69104D01*
X61300Y68648D01*
X61193Y68110D01*
X61300Y67573D01*
X61605Y67117D01*
X62061Y66812D01*
X62598Y66705D01*
X63136Y66812D01*
X63592Y67117D01*
X63896Y67573D01*
X64003Y68110D01*
X63959Y68335D01*
X65492Y69869D01*
X67244D01*
X67505Y69921D01*
X67727Y70069D01*
X67874Y70290D01*
X67926Y70551D01*
Y72756D01*
X67874Y73017D01*
X67727Y73238D01*
X67505Y73386D01*
X67244Y73438D01*
D02*
G37*
G36*
X98032Y69515D02*
X97494Y69408D01*
X97038Y69104D01*
X96733Y68648D01*
X96627Y68110D01*
X96671Y67885D01*
X95138Y66352D01*
X93386D01*
X93125Y66300D01*
X92903Y66152D01*
X92755Y65930D01*
X92703Y65669D01*
Y63465D01*
X92755Y63203D01*
X92903Y62982D01*
X93125Y62834D01*
X93386Y62782D01*
X95591D01*
X95852Y62834D01*
X96073Y62982D01*
X96221Y63203D01*
X96273Y63465D01*
Y65216D01*
X97807Y66750D01*
X98032Y66705D01*
X98569Y66812D01*
X99025Y67117D01*
X99330Y67573D01*
X99436Y68110D01*
X99330Y68648D01*
X99025Y69104D01*
X98569Y69408D01*
X98032Y69515D01*
D02*
G37*
G36*
X90945D02*
X90407Y69408D01*
X89951Y69104D01*
X89647Y68648D01*
X89540Y68110D01*
X89585Y67885D01*
X88051Y66352D01*
X86299D01*
X86038Y66300D01*
X85817Y66152D01*
X85669Y65930D01*
X85617Y65669D01*
Y63465D01*
X85669Y63203D01*
X85817Y62982D01*
X86038Y62834D01*
X86299Y62782D01*
X88504D01*
X88765Y62834D01*
X88986Y62982D01*
X89134Y63203D01*
X89186Y63465D01*
Y65216D01*
X90720Y66750D01*
X90945Y66705D01*
X91483Y66812D01*
X91938Y67117D01*
X92243Y67573D01*
X92350Y68110D01*
X92243Y68648D01*
X91938Y69104D01*
X91483Y69408D01*
X90945Y69515D01*
D02*
G37*
G36*
X76772D02*
X76234Y69408D01*
X75778Y69104D01*
X75474Y68648D01*
X75367Y68110D01*
X75411Y67885D01*
X73878Y66352D01*
X72126D01*
X71865Y66300D01*
X71643Y66152D01*
X71495Y65930D01*
X71443Y65669D01*
Y63465D01*
X71495Y63203D01*
X71643Y62982D01*
X71865Y62834D01*
X72126Y62782D01*
X74331D01*
X74592Y62834D01*
X74813Y62982D01*
X74961Y63203D01*
X75013Y63465D01*
Y65216D01*
X76547Y66750D01*
X76772Y66705D01*
X77309Y66812D01*
X77765Y67117D01*
X78070Y67573D01*
X78177Y68110D01*
X78070Y68648D01*
X77765Y69104D01*
X77309Y69408D01*
X76772Y69515D01*
D02*
G37*
G36*
X53071Y73438D02*
X50866D01*
X50605Y73386D01*
X50384Y73238D01*
X50236Y73017D01*
X50184Y72756D01*
Y70551D01*
X50236Y70290D01*
X50384Y70069D01*
X50605Y69921D01*
X50866Y69869D01*
X52618D01*
X54152Y68335D01*
X54107Y68110D01*
X54214Y67572D01*
X54518Y67117D01*
X54974Y66812D01*
X55512Y66705D01*
X56049Y66812D01*
X56505Y67117D01*
X56810Y67572D01*
X56917Y68110D01*
X56810Y68648D01*
X56505Y69104D01*
X56049Y69408D01*
X55512Y69515D01*
X55287Y69470D01*
X53753Y71004D01*
Y72756D01*
X53701Y73017D01*
X53553Y73238D01*
X53332Y73386D01*
X53071Y73438D01*
D02*
G37*
G36*
X45984D02*
X43780D01*
X43518Y73386D01*
X43297Y73238D01*
X43149Y73017D01*
X43097Y72756D01*
Y70551D01*
X43149Y70290D01*
X43297Y70069D01*
X43518Y69921D01*
X43780Y69869D01*
X45531D01*
X47065Y68335D01*
X47020Y68110D01*
X47127Y67572D01*
X47432Y67117D01*
X47888Y66812D01*
X48425Y66705D01*
X48963Y66812D01*
X49419Y67117D01*
X49723Y67572D01*
X49830Y68110D01*
X49723Y68648D01*
X49419Y69104D01*
X48963Y69408D01*
X48425Y69515D01*
X48200Y69470D01*
X46667Y71004D01*
Y72756D01*
X46615Y73017D01*
X46467Y73238D01*
X46245Y73386D01*
X45984Y73438D01*
D02*
G37*
G36*
X102677Y66352D02*
X100472D01*
X100211Y66300D01*
X99990Y66152D01*
X99842Y65930D01*
X99790Y65669D01*
Y63465D01*
X99842Y63203D01*
X99990Y62982D01*
X100211Y62834D01*
X100472Y62782D01*
X102677D01*
X102938Y62834D01*
X103160Y62982D01*
X103308Y63203D01*
X103359Y63465D01*
Y65669D01*
X103308Y65930D01*
X103160Y66152D01*
X102938Y66300D01*
X102677Y66352D01*
D02*
G37*
G36*
X81417D02*
X79212D01*
X78951Y66300D01*
X78730Y66152D01*
X78582Y65930D01*
X78530Y65669D01*
Y63465D01*
X78582Y63203D01*
X78730Y62982D01*
X78951Y62834D01*
X79212Y62782D01*
X81417D01*
X81678Y62834D01*
X81900Y62982D01*
X82048Y63203D01*
X82100Y63465D01*
Y65669D01*
X82048Y65930D01*
X81900Y66152D01*
X81678Y66300D01*
X81417Y66352D01*
D02*
G37*
G36*
X67244D02*
X65039D01*
X64778Y66300D01*
X64557Y66152D01*
X64409Y65930D01*
X64357Y65669D01*
Y63465D01*
X64409Y63203D01*
X64557Y62982D01*
X64778Y62834D01*
X65039Y62782D01*
X67244D01*
X67505Y62834D01*
X67727Y62982D01*
X67874Y63203D01*
X67926Y63465D01*
Y65669D01*
X67874Y65930D01*
X67727Y66152D01*
X67505Y66300D01*
X67244Y66352D01*
D02*
G37*
G36*
X60157D02*
X57953D01*
X57692Y66300D01*
X57470Y66152D01*
X57322Y65930D01*
X57270Y65669D01*
Y63465D01*
X57322Y63203D01*
X57470Y62982D01*
X57692Y62834D01*
X57953Y62782D01*
X60157D01*
X60419Y62834D01*
X60640Y62982D01*
X60788Y63203D01*
X60840Y63465D01*
Y65669D01*
X60788Y65930D01*
X60640Y66152D01*
X60419Y66300D01*
X60157Y66352D01*
D02*
G37*
G36*
X53071D02*
X50866D01*
X50605Y66300D01*
X50384Y66152D01*
X50236Y65930D01*
X50184Y65669D01*
Y63465D01*
X50236Y63203D01*
X50384Y62982D01*
X50605Y62834D01*
X50866Y62782D01*
X53071D01*
X53332Y62834D01*
X53553Y62982D01*
X53701Y63203D01*
X53753Y63465D01*
Y65669D01*
X53701Y65930D01*
X53553Y66152D01*
X53332Y66300D01*
X53071Y66352D01*
D02*
G37*
G36*
X45984D02*
X43780D01*
X43518Y66300D01*
X43297Y66152D01*
X43149Y65930D01*
X43097Y65669D01*
Y63465D01*
X43149Y63203D01*
X43297Y62982D01*
X43518Y62834D01*
X43780Y62782D01*
X45984D01*
X46245Y62834D01*
X46467Y62982D01*
X46615Y63203D01*
X46667Y63465D01*
Y65669D01*
X46615Y65930D01*
X46467Y66152D01*
X46245Y66300D01*
X45984Y66352D01*
D02*
G37*
G36*
X34252Y69515D02*
X33714Y69408D01*
X33259Y69104D01*
X32954Y68648D01*
X32847Y68110D01*
X32954Y67573D01*
X33259Y67117D01*
X33714Y66812D01*
X34252Y66705D01*
X34477Y66750D01*
X36011Y65216D01*
Y63465D01*
X36062Y63203D01*
X36210Y62982D01*
X36432Y62834D01*
X36693Y62782D01*
X38898D01*
X39159Y62834D01*
X39380Y62982D01*
X39528Y63203D01*
X39580Y63465D01*
Y65669D01*
X39528Y65930D01*
X39380Y66152D01*
X39159Y66300D01*
X38898Y66352D01*
X37146D01*
X35612Y67885D01*
X35657Y68110D01*
X35550Y68648D01*
X35245Y69104D01*
X34790Y69408D01*
X34252Y69515D01*
D02*
G37*
G36*
X27165D02*
X26628Y69408D01*
X26172Y69104D01*
X25867Y68648D01*
X25760Y68110D01*
X25867Y67573D01*
X26172Y67117D01*
X26628Y66812D01*
X27165Y66705D01*
X27390Y66750D01*
X28924Y65216D01*
Y63465D01*
X28976Y63203D01*
X29124Y62982D01*
X29345Y62834D01*
X29606Y62782D01*
X31811D01*
X32072Y62834D01*
X32293Y62982D01*
X32441Y63203D01*
X32493Y63465D01*
Y65669D01*
X32441Y65930D01*
X32293Y66152D01*
X32072Y66300D01*
X31811Y66352D01*
X30059D01*
X28526Y67885D01*
X28570Y68110D01*
X28463Y68648D01*
X28159Y69104D01*
X27703Y69408D01*
X27165Y69515D01*
D02*
G37*
G36*
X20079D02*
X19541Y69408D01*
X19085Y69104D01*
X18781Y68648D01*
X18674Y68110D01*
X18781Y67573D01*
X19085Y67117D01*
X19541Y66812D01*
X20079Y66705D01*
X20303Y66750D01*
X21837Y65216D01*
Y63465D01*
X21889Y63203D01*
X22037Y62982D01*
X22258Y62834D01*
X22520Y62782D01*
X24724D01*
X24985Y62834D01*
X25207Y62982D01*
X25355Y63203D01*
X25407Y63465D01*
Y65669D01*
X25355Y65930D01*
X25207Y66152D01*
X24985Y66300D01*
X24724Y66352D01*
X22973D01*
X21439Y67885D01*
X21484Y68110D01*
X21377Y68648D01*
X21072Y69104D01*
X20616Y69408D01*
X20079Y69515D01*
D02*
G37*
G36*
X12992D02*
X12455Y69408D01*
X11999Y69104D01*
X11694Y68648D01*
X11587Y68110D01*
X11694Y67573D01*
X11999Y67117D01*
X12455Y66812D01*
X12992Y66705D01*
X13217Y66750D01*
X14751Y65216D01*
Y63465D01*
X14803Y63203D01*
X14951Y62982D01*
X15172Y62834D01*
X15433Y62782D01*
X17638D01*
X17899Y62834D01*
X18120Y62982D01*
X18268Y63203D01*
X18320Y63465D01*
Y65669D01*
X18268Y65930D01*
X18120Y66152D01*
X17899Y66300D01*
X17638Y66352D01*
X15886D01*
X14352Y67885D01*
X14397Y68110D01*
X14290Y68648D01*
X13986Y69104D01*
X13530Y69408D01*
X12992Y69515D01*
D02*
G37*
G36*
X90453Y61826D02*
X90145Y61765D01*
X89885Y61591D01*
X89711Y61331D01*
X89650Y61024D01*
X89711Y60716D01*
X89885Y60456D01*
X90145Y60282D01*
X90453Y60221D01*
X90760Y60282D01*
X91021Y60456D01*
X91194Y60716D01*
X91256Y61024D01*
X91194Y61331D01*
X91021Y61591D01*
X90760Y61765D01*
X90453Y61826D01*
D02*
G37*
G36*
X97539Y60842D02*
X97232Y60781D01*
X96972Y60607D01*
X96798Y60347D01*
X96737Y60039D01*
X96798Y59732D01*
X96972Y59472D01*
X97232Y59298D01*
X97539Y59237D01*
X97847Y59298D01*
X98107Y59472D01*
X98281Y59732D01*
X98342Y60039D01*
X98281Y60347D01*
X98107Y60607D01*
X97847Y60781D01*
X97539Y60842D01*
D02*
G37*
G36*
X29854Y58126D02*
X29547Y58065D01*
X29287Y57890D01*
X29113Y57630D01*
X29052Y57323D01*
X29113Y57016D01*
X29287Y56755D01*
X29547Y56581D01*
X29854Y56520D01*
X30162Y56581D01*
X30422Y56755D01*
X30596Y57016D01*
X30657Y57323D01*
X30596Y57630D01*
X30422Y57890D01*
X30162Y58065D01*
X29854Y58126D01*
D02*
G37*
G36*
X25315Y55640D02*
X25008Y55579D01*
X24747Y55405D01*
X24573Y55145D01*
X24512Y54838D01*
X24573Y54530D01*
X24747Y54270D01*
X25008Y54096D01*
X25315Y54035D01*
X25622Y54096D01*
X25883Y54270D01*
X26057Y54530D01*
X26118Y54838D01*
X26057Y55145D01*
X25883Y55405D01*
X25622Y55579D01*
X25315Y55640D01*
D02*
G37*
G36*
X90500Y55303D02*
X90193Y55242D01*
X89932Y55068D01*
X89758Y54807D01*
X89697Y54500D01*
X89758Y54193D01*
X89932Y53932D01*
X90193Y53758D01*
X90500Y53697D01*
X90807Y53758D01*
X91068Y53932D01*
X91242Y54193D01*
X91303Y54500D01*
X91242Y54807D01*
X91068Y55068D01*
X90807Y55242D01*
X90500Y55303D01*
D02*
G37*
G36*
X86457Y52224D02*
X86272Y52224D01*
X85433D01*
Y50906D01*
Y49587D01*
X86272D01*
X86772Y49587D01*
X86957Y49587D01*
X87795D01*
Y50906D01*
Y52224D01*
X86957D01*
X86624Y52224D01*
X86457Y52224D01*
D02*
G37*
G36*
X54961D02*
X54776Y52224D01*
X53937D01*
Y50906D01*
Y49587D01*
X54776D01*
X55276Y49587D01*
X55461Y49587D01*
X56299D01*
Y50906D01*
Y52224D01*
X55461D01*
X54961Y52224D01*
D02*
G37*
G36*
X31339Y52224D02*
X31154Y52224D01*
X28504D01*
Y51748D01*
X26772D01*
Y52165D01*
X24409D01*
Y49803D01*
X26772D01*
Y50142D01*
X28504D01*
Y49587D01*
X31154D01*
X31654Y49587D01*
X31839Y49587D01*
X32677D01*
Y50906D01*
Y52224D01*
X31339D01*
D02*
G37*
G36*
X98268Y52224D02*
X98083Y52224D01*
X95433D01*
Y51708D01*
X93701D01*
Y52165D01*
X91339D01*
Y49803D01*
X93701D01*
Y50103D01*
X95433D01*
Y49587D01*
X98083D01*
X98583Y49587D01*
X98768Y49587D01*
X99606D01*
Y50906D01*
Y52224D01*
X98768D01*
X98435Y52224D01*
X98268Y52224D01*
D02*
G37*
G36*
X66772D02*
X66587Y52224D01*
X63937D01*
Y51708D01*
X62205D01*
Y52165D01*
X59842D01*
Y49803D01*
X62205D01*
Y50103D01*
X63937D01*
Y49587D01*
X66587D01*
X67087Y49587D01*
X67272Y49587D01*
X68110D01*
Y50906D01*
Y52224D01*
X67272D01*
X66939Y52224D01*
X66772Y52224D01*
D02*
G37*
G36*
X57087Y52224D02*
Y51299D01*
X58110D01*
Y52224D01*
X57087D01*
D02*
G37*
G36*
X33465D02*
Y51299D01*
X34488D01*
Y52224D01*
X33465D01*
D02*
G37*
G36*
X22677D02*
X21654D01*
Y51299D01*
X22677D01*
Y52224D01*
D02*
G37*
G36*
X100394D02*
Y51299D01*
X101417D01*
Y52224D01*
X100394D01*
D02*
G37*
G36*
X88583D02*
Y51299D01*
X89606D01*
Y52224D01*
X88583D01*
D02*
G37*
G36*
X68898D02*
Y51299D01*
X69921D01*
Y52224D01*
X68898D01*
D02*
G37*
G36*
X20866D02*
X19842D01*
Y51299D01*
X20866D01*
Y52224D01*
D02*
G37*
G36*
X83622Y52224D02*
X83122Y52224D01*
X80472D01*
Y51275D01*
X80000D01*
X79693Y51214D01*
X79432Y51040D01*
X79432Y51040D01*
X78965Y50573D01*
X78740Y50617D01*
X78202Y50511D01*
X77747Y50206D01*
X77442Y49750D01*
X77335Y49213D01*
X77442Y48675D01*
X77747Y48219D01*
X78202Y47915D01*
X78740Y47808D01*
X79278Y47915D01*
X79734Y48219D01*
X79771Y48276D01*
X80150Y48546D01*
X80472Y48490D01*
X80472Y48388D01*
X80472Y48388D01*
X80472Y48383D01*
Y46201D01*
X83307D01*
Y46201D01*
X83622Y46201D01*
Y46201D01*
X86457D01*
Y46201D01*
X86772Y46201D01*
Y46201D01*
X87945D01*
X88096Y45701D01*
X87786Y45494D01*
X87481Y45038D01*
X87375Y44500D01*
X87481Y43962D01*
X87786Y43507D01*
X87665Y42994D01*
X87588Y42913D01*
X87402D01*
Y39764D01*
X88016D01*
Y38819D01*
X87539D01*
Y35984D01*
X90177D01*
Y38819D01*
X89622D01*
Y39764D01*
X90158D01*
Y42913D01*
X89971D01*
X89894Y42994D01*
X89773Y43507D01*
X90078Y43962D01*
X90184Y44500D01*
X90078Y45038D01*
X89773Y45494D01*
X89463Y45701D01*
X89606Y46201D01*
X89862Y46260D01*
Y46260D01*
X92224D01*
Y48622D01*
X89862D01*
X89606Y48839D01*
Y48839D01*
X86772D01*
Y48839D01*
X86457Y48839D01*
Y48839D01*
X83622D01*
Y48839D01*
X83307Y48839D01*
Y48839D01*
X80581Y48839D01*
X80520Y48889D01*
X80519Y48990D01*
X80517Y49103D01*
X80997Y49587D01*
X83122D01*
X83307Y49587D01*
X83807Y49587D01*
X84646D01*
Y50906D01*
Y52224D01*
X83807D01*
X83622Y52224D01*
D02*
G37*
G36*
X50394Y55539D02*
X49856Y55432D01*
X49400Y55127D01*
X49096Y54672D01*
X48989Y54134D01*
X49096Y53596D01*
X49400Y53140D01*
X49591Y53013D01*
Y52224D01*
X48976D01*
Y49587D01*
X51626D01*
X51811Y49587D01*
X52311Y49587D01*
X53150D01*
Y50906D01*
Y52224D01*
X52311D01*
X52126Y52224D01*
X51696Y52224D01*
X51196Y52395D01*
Y53013D01*
X51387Y53140D01*
X51692Y53596D01*
X51799Y54134D01*
X51692Y54672D01*
X51387Y55127D01*
X50931Y55432D01*
X50394Y55539D01*
D02*
G37*
G36*
X101417Y50512D02*
X100394D01*
Y49587D01*
X101417D01*
Y50512D01*
D02*
G37*
G36*
X89606D02*
X88583D01*
Y49587D01*
X89606D01*
Y50512D01*
D02*
G37*
G36*
X69921D02*
X68898D01*
Y49587D01*
X69921D01*
Y50512D01*
D02*
G37*
G36*
X58110D02*
X57087D01*
Y49587D01*
X58110D01*
Y50512D01*
D02*
G37*
G36*
X34488D02*
X33465D01*
Y49587D01*
X34488D01*
Y50512D01*
D02*
G37*
G36*
X22677D02*
X21654D01*
Y49587D01*
X22677D01*
Y50512D01*
D02*
G37*
G36*
X20866D02*
X19842D01*
Y49587D01*
X20866D01*
Y50512D01*
D02*
G37*
G36*
X98268Y48839D02*
Y48839D01*
X95433Y48839D01*
X95023Y48622D01*
X94933Y48622D01*
X94390D01*
Y47441D01*
Y46260D01*
X94958D01*
X95433Y46201D01*
X95548Y46201D01*
X96048Y45947D01*
Y43187D01*
X95002Y42141D01*
X93701D01*
Y42913D01*
X90945D01*
Y39764D01*
X93701D01*
Y40536D01*
X95335D01*
X95642Y40597D01*
X95902Y40771D01*
X97418Y42287D01*
X97418Y42287D01*
X97592Y42547D01*
X97653Y42854D01*
Y46201D01*
X98268D01*
Y46201D01*
X98583Y46201D01*
Y46201D01*
X101417D01*
Y48839D01*
X98583D01*
Y48839D01*
X98268Y48839D01*
D02*
G37*
G36*
X66772D02*
Y48839D01*
X63937Y48839D01*
X63527Y48622D01*
X63437Y48622D01*
X62894D01*
Y47441D01*
Y46260D01*
X63462D01*
X63937Y46201D01*
X64052Y46201D01*
X64552Y45947D01*
Y43187D01*
X63506Y42141D01*
X62205D01*
Y42913D01*
X59449D01*
Y39764D01*
X62205D01*
Y40536D01*
X63839D01*
X64146Y40597D01*
X64406Y40771D01*
X65922Y42287D01*
X65922Y42287D01*
X66096Y42547D01*
X66157Y42854D01*
Y46201D01*
X66772D01*
Y46201D01*
X67087Y46201D01*
Y46201D01*
X69921D01*
Y48839D01*
X67087D01*
Y48839D01*
X66772Y48839D01*
D02*
G37*
G36*
X54961D02*
Y48839D01*
X52297D01*
X52126Y48839D01*
Y48839D01*
X51811Y48839D01*
X51811Y48839D01*
X51640Y48839D01*
X48976D01*
Y46201D01*
X51811D01*
Y46201D01*
X52126Y46201D01*
Y46201D01*
X54961D01*
Y46201D01*
X55276Y46201D01*
Y46201D01*
X57891D01*
X58110Y46201D01*
X58110Y46201D01*
X58366Y46260D01*
Y46260D01*
X60728D01*
Y48622D01*
X58366D01*
X58110Y48839D01*
Y48839D01*
X55276D01*
Y48839D01*
X54961Y48839D01*
D02*
G37*
G36*
X31339Y48839D02*
Y48839D01*
X28504Y48839D01*
X28094Y48622D01*
X28004Y48622D01*
X27461D01*
Y47441D01*
Y46260D01*
X28028D01*
X28504Y46201D01*
X28724Y46201D01*
X29165D01*
X29317Y45701D01*
X29006Y45494D01*
X28879Y45303D01*
X25332D01*
X24917Y45718D01*
Y46260D01*
X25295D01*
Y48622D01*
X22933D01*
X22677Y48839D01*
Y48839D01*
X19842D01*
Y46201D01*
X22457D01*
X22677Y46201D01*
Y46201D01*
X22811Y46232D01*
X23311Y45962D01*
Y45386D01*
X23372Y45079D01*
X23547Y44818D01*
X24432Y43932D01*
X24432Y43932D01*
X24693Y43758D01*
X25000Y43697D01*
X25000Y43697D01*
X28781D01*
X29020Y43403D01*
X28840Y42913D01*
X27953D01*
Y39764D01*
X30709D01*
Y40536D01*
X31839D01*
X32146Y40597D01*
X32406Y40771D01*
X33639Y42003D01*
X33813Y42264D01*
X33874Y42571D01*
Y46201D01*
X34488D01*
Y48839D01*
X31654D01*
Y48839D01*
X31339D01*
D02*
G37*
G36*
X93602Y48622D02*
X92815D01*
Y47835D01*
X93602D01*
Y48622D01*
D02*
G37*
G36*
X62106D02*
X61319D01*
Y47835D01*
X62106D01*
Y48622D01*
D02*
G37*
G36*
X26673Y48622D02*
X25886D01*
Y47835D01*
X26673D01*
Y48622D01*
D02*
G37*
G36*
X93602Y47047D02*
X92815D01*
Y46260D01*
X93602D01*
Y47047D01*
D02*
G37*
G36*
X62106D02*
X61319D01*
Y46260D01*
X62106D01*
Y47047D01*
D02*
G37*
G36*
X26673Y47047D02*
X25886D01*
Y46260D01*
X26673D01*
Y47047D01*
D02*
G37*
G36*
X10020Y42141D02*
X9713Y42080D01*
X9452Y41906D01*
X9278Y41646D01*
X9217Y41339D01*
X9278Y41031D01*
X9452Y40771D01*
X9713Y40597D01*
X10020Y40536D01*
X10327Y40597D01*
X10587Y40771D01*
X10761Y41031D01*
X10823Y41339D01*
X10761Y41646D01*
X10587Y41906D01*
X10327Y42080D01*
X10020Y42141D01*
D02*
G37*
G36*
X68307Y42031D02*
X68000Y41970D01*
X67739Y41796D01*
X67565Y41536D01*
X67504Y41228D01*
X67565Y40921D01*
X67739Y40661D01*
X68000Y40487D01*
X68307Y40426D01*
X68614Y40487D01*
X68875Y40661D01*
X69049Y40921D01*
X69110Y41228D01*
X69049Y41536D01*
X68875Y41796D01*
X68614Y41970D01*
X68307Y42031D01*
D02*
G37*
G36*
X85000Y41803D02*
X84693Y41742D01*
X84432Y41568D01*
X84258Y41307D01*
X84197Y41000D01*
X84258Y40693D01*
X84432Y40432D01*
X84693Y40258D01*
X85000Y40197D01*
X85307Y40258D01*
X85568Y40432D01*
X85742Y40693D01*
X85803Y41000D01*
X85742Y41307D01*
X85568Y41568D01*
X85307Y41742D01*
X85000Y41803D01*
D02*
G37*
G36*
X106201Y40173D02*
X105894Y40112D01*
X105633Y39938D01*
X105459Y39677D01*
X105398Y39370D01*
X105459Y39063D01*
X105633Y38802D01*
X105894Y38628D01*
X106201Y38567D01*
X106508Y38628D01*
X106769Y38802D01*
X106942Y39063D01*
X107004Y39370D01*
X106942Y39677D01*
X106769Y39938D01*
X106508Y40112D01*
X106201Y40173D01*
D02*
G37*
G36*
X68307Y39484D02*
X68000Y39423D01*
X67739Y39249D01*
X67565Y38988D01*
X67504Y38681D01*
X67565Y38374D01*
X67739Y38113D01*
X68000Y37939D01*
X68307Y37878D01*
X68614Y37939D01*
X68875Y38113D01*
X69049Y38374D01*
X69110Y38681D01*
X69049Y38988D01*
X68875Y39249D01*
X68614Y39423D01*
X68307Y39484D01*
D02*
G37*
G36*
X52756D02*
X52449Y39423D01*
X52188Y39249D01*
X52014Y38988D01*
X51953Y38681D01*
X52014Y38374D01*
X52188Y38113D01*
X52449Y37939D01*
X52756Y37878D01*
X53063Y37939D01*
X53324Y38113D01*
X53498Y38374D01*
X53559Y38681D01*
X53498Y38988D01*
X53324Y39249D01*
X53063Y39423D01*
X52756Y39484D01*
D02*
G37*
G36*
X93563Y38819D02*
X92638D01*
Y37795D01*
X93563D01*
Y38819D01*
D02*
G37*
G36*
X62067D02*
X61142D01*
Y37795D01*
X62067D01*
Y38819D01*
D02*
G37*
G36*
X30571D02*
X29646D01*
Y37795D01*
X30571D01*
Y38819D01*
D02*
G37*
G36*
X60354D02*
X59429D01*
Y37795D01*
X60354D01*
Y38819D01*
D02*
G37*
G36*
X28858D02*
X27933D01*
Y37795D01*
X28858D01*
Y38819D01*
D02*
G37*
G36*
X91850D02*
X90925D01*
Y37795D01*
X91850D01*
Y38819D01*
D02*
G37*
G36*
X93563Y37008D02*
X92638D01*
Y35984D01*
X93563D01*
Y37008D01*
D02*
G37*
G36*
X91850D02*
X90925D01*
Y35984D01*
X91850D01*
Y37008D01*
D02*
G37*
G36*
X62067D02*
X61142D01*
Y35984D01*
X62067D01*
Y37008D01*
D02*
G37*
G36*
X60354D02*
X59429D01*
Y35984D01*
X60354D01*
Y37008D01*
D02*
G37*
G36*
X58661Y42913D02*
X55905D01*
Y39764D01*
X55905D01*
X55918Y39370D01*
X55936Y39277D01*
X56025Y38833D01*
X56043Y38805D01*
Y35984D01*
X58681D01*
Y38819D01*
X58681Y38819D01*
X58681D01*
X58715Y39305D01*
X58728Y39370D01*
X58661Y39764D01*
X58661D01*
Y42913D01*
D02*
G37*
G36*
X30571Y37008D02*
X29646D01*
Y35984D01*
X30571D01*
Y37008D01*
D02*
G37*
G36*
X28858D02*
X27933D01*
Y35984D01*
X28858D01*
Y37008D01*
D02*
G37*
G36*
X68307Y36925D02*
X68000Y36864D01*
X67739Y36690D01*
X67565Y36429D01*
X67504Y36122D01*
X67565Y35815D01*
X67739Y35554D01*
X68000Y35380D01*
X68307Y35319D01*
X68614Y35380D01*
X68875Y35554D01*
X69049Y35815D01*
X69110Y36122D01*
X69049Y36429D01*
X68875Y36690D01*
X68614Y36864D01*
X68307Y36925D01*
D02*
G37*
G36*
X52756D02*
X52449Y36864D01*
X52188Y36690D01*
X52014Y36429D01*
X51953Y36122D01*
X52014Y35815D01*
X52188Y35554D01*
X52449Y35380D01*
X52756Y35319D01*
X53063Y35380D01*
X53324Y35554D01*
X53498Y35815D01*
X53559Y36122D01*
X53498Y36429D01*
X53324Y36690D01*
X53063Y36864D01*
X52756Y36925D01*
D02*
G37*
G36*
Y34366D02*
X52449Y34305D01*
X52188Y34131D01*
X52014Y33870D01*
X51953Y33563D01*
X52014Y33256D01*
X52188Y32995D01*
X52449Y32821D01*
X52756Y32760D01*
X53063Y32821D01*
X53324Y32995D01*
X53498Y33256D01*
X53559Y33563D01*
X53498Y33870D01*
X53324Y34131D01*
X53063Y34305D01*
X52756Y34366D01*
D02*
G37*
G36*
X68332Y34341D02*
X68024Y34280D01*
X67764Y34106D01*
X67590Y33846D01*
X67529Y33538D01*
X67590Y33231D01*
X67764Y32971D01*
X68024Y32797D01*
X68332Y32736D01*
X68639Y32797D01*
X68899Y32971D01*
X69073Y33231D01*
X69134Y33538D01*
X69073Y33846D01*
X68899Y34106D01*
X68639Y34280D01*
X68332Y34341D01*
D02*
G37*
G36*
X29528Y34267D02*
X29220Y34206D01*
X28960Y34032D01*
X28786Y33772D01*
X28725Y33465D01*
X28786Y33157D01*
X28960Y32897D01*
X29220Y32723D01*
X29528Y32662D01*
X29835Y32723D01*
X30095Y32897D01*
X30269Y33157D01*
X30330Y33465D01*
X30269Y33772D01*
X30095Y34032D01*
X29835Y34206D01*
X29528Y34267D01*
D02*
G37*
G36*
X85016Y33944D02*
X84708Y33883D01*
X84448Y33709D01*
X84274Y33449D01*
X84213Y33142D01*
X84274Y32835D01*
X84448Y32574D01*
X84708Y32400D01*
X85016Y32339D01*
X85323Y32400D01*
X85583Y32574D01*
X85757Y32835D01*
X85819Y33142D01*
X85757Y33449D01*
X85583Y33709D01*
X85323Y33883D01*
X85016Y33944D01*
D02*
G37*
G36*
X21654Y33382D02*
X21346Y33321D01*
X21086Y33146D01*
X20912Y32886D01*
X20851Y32579D01*
X20912Y32272D01*
X21086Y32011D01*
X21346Y31837D01*
X21654Y31776D01*
X21961Y31837D01*
X22221Y32011D01*
X22395Y32272D01*
X22456Y32579D01*
X22395Y32886D01*
X22221Y33146D01*
X21961Y33321D01*
X21654Y33382D01*
D02*
G37*
G36*
X13780Y32299D02*
X13472Y32238D01*
X13212Y32064D01*
X13038Y31803D01*
X12977Y31496D01*
X13038Y31189D01*
X13212Y30928D01*
X13472Y30754D01*
X13780Y30693D01*
X14087Y30754D01*
X14347Y30928D01*
X14521Y31189D01*
X14582Y31496D01*
X14521Y31803D01*
X14347Y32064D01*
X14087Y32238D01*
X13780Y32299D01*
D02*
G37*
G36*
X106201Y32299D02*
X105894Y32238D01*
X105633Y32064D01*
X105459Y31803D01*
X105398Y31496D01*
X105459Y31189D01*
X105633Y30928D01*
X105894Y30754D01*
X106201Y30693D01*
X106508Y30754D01*
X106769Y30928D01*
X106942Y31189D01*
X107004Y31496D01*
X106942Y31803D01*
X106769Y32064D01*
X106508Y32238D01*
X106201Y32299D01*
D02*
G37*
G36*
X68307Y31807D02*
X68000Y31746D01*
X67739Y31572D01*
X67565Y31311D01*
X67504Y31004D01*
X67565Y30697D01*
X67739Y30436D01*
X68000Y30262D01*
X68307Y30201D01*
X68614Y30262D01*
X68875Y30436D01*
X69049Y30697D01*
X69110Y31004D01*
X69049Y31311D01*
X68875Y31572D01*
X68614Y31746D01*
X68307Y31807D01*
D02*
G37*
G36*
X52756D02*
X52449Y31746D01*
X52188Y31572D01*
X52014Y31311D01*
X51953Y31004D01*
X52014Y30697D01*
X52188Y30436D01*
X52449Y30262D01*
X52756Y30201D01*
X53063Y30262D01*
X53324Y30436D01*
X53498Y30697D01*
X53559Y31004D01*
X53498Y31311D01*
X53324Y31572D01*
X53063Y31746D01*
X52756Y31807D01*
D02*
G37*
G36*
X29528Y30330D02*
X29220Y30269D01*
X28960Y30095D01*
X28786Y29835D01*
X28725Y29528D01*
X28786Y29220D01*
X28960Y28960D01*
X29220Y28786D01*
X29528Y28725D01*
X29835Y28786D01*
X30095Y28960D01*
X30269Y29220D01*
X30330Y29528D01*
X30269Y29835D01*
X30095Y30095D01*
X29835Y30269D01*
X29528Y30330D01*
D02*
G37*
G36*
X68307Y29248D02*
X68000Y29187D01*
X67739Y29013D01*
X67565Y28752D01*
X67504Y28445D01*
X67565Y28138D01*
X67739Y27877D01*
X68000Y27703D01*
X68307Y27642D01*
X68614Y27703D01*
X68875Y27877D01*
X69049Y28138D01*
X69110Y28445D01*
X69049Y28752D01*
X68875Y29013D01*
X68614Y29187D01*
X68307Y29248D01*
D02*
G37*
G36*
X52756D02*
X52449Y29187D01*
X52188Y29013D01*
X52014Y28752D01*
X51953Y28445D01*
X52014Y28138D01*
X52188Y27877D01*
X52449Y27703D01*
X52756Y27642D01*
X53063Y27703D01*
X53324Y27877D01*
X53498Y28138D01*
X53559Y28445D01*
X53498Y28752D01*
X53324Y29013D01*
X53063Y29187D01*
X52756Y29248D01*
D02*
G37*
G36*
X29528Y26393D02*
X29220Y26332D01*
X28960Y26158D01*
X28786Y25898D01*
X28725Y25591D01*
X28786Y25283D01*
X28960Y25023D01*
X29220Y24849D01*
X29528Y24788D01*
X29835Y24849D01*
X30095Y25023D01*
X30269Y25283D01*
X30330Y25591D01*
X30269Y25898D01*
X30095Y26158D01*
X29835Y26332D01*
X29528Y26393D01*
D02*
G37*
G36*
X85016Y26070D02*
X84708Y26009D01*
X84448Y25835D01*
X84274Y25575D01*
X84213Y25268D01*
X84274Y24961D01*
X84448Y24700D01*
X84708Y24526D01*
X85016Y24465D01*
X85323Y24526D01*
X85583Y24700D01*
X85757Y24961D01*
X85819Y25268D01*
X85757Y25575D01*
X85583Y25835D01*
X85323Y26009D01*
X85016Y26070D01*
D02*
G37*
G36*
X106201Y24425D02*
X105894Y24364D01*
X105633Y24190D01*
X105459Y23929D01*
X105398Y23622D01*
X105459Y23315D01*
X105633Y23054D01*
X105894Y22880D01*
X106201Y22819D01*
X106508Y22880D01*
X106769Y23054D01*
X106942Y23315D01*
X107004Y23622D01*
X106942Y23929D01*
X106769Y24190D01*
X106508Y24364D01*
X106201Y24425D01*
D02*
G37*
G36*
X68307Y24130D02*
X68000Y24069D01*
X67739Y23895D01*
X67565Y23634D01*
X67504Y23327D01*
X67565Y23020D01*
X67739Y22759D01*
X68000Y22585D01*
X68307Y22524D01*
X68614Y22585D01*
X68875Y22759D01*
X69049Y23020D01*
X69110Y23327D01*
X69049Y23634D01*
X68875Y23895D01*
X68614Y24069D01*
X68307Y24130D01*
D02*
G37*
G36*
X52756D02*
X52449Y24069D01*
X52188Y23895D01*
X52014Y23634D01*
X51953Y23327D01*
X52014Y23020D01*
X52188Y22759D01*
X52449Y22585D01*
X52756Y22524D01*
X53063Y22585D01*
X53324Y22759D01*
X53498Y23020D01*
X53559Y23327D01*
X53498Y23634D01*
X53324Y23895D01*
X53063Y24069D01*
X52756Y24130D01*
D02*
G37*
G36*
X35157Y20212D02*
X34850Y20151D01*
X34590Y19977D01*
X34416Y19717D01*
X34355Y19410D01*
X34416Y19102D01*
X34590Y18842D01*
X34850Y18668D01*
X35157Y18607D01*
X35465Y18668D01*
X35725Y18842D01*
X35899Y19102D01*
X35960Y19410D01*
X35899Y19717D01*
X35725Y19977D01*
X35465Y20151D01*
X35157Y20212D01*
D02*
G37*
G36*
X86614Y16551D02*
X86307Y16490D01*
X86046Y16316D01*
X85872Y16055D01*
X85811Y15748D01*
X85872Y15441D01*
X86046Y15180D01*
X86307Y15006D01*
X86614Y14945D01*
X86921Y15006D01*
X87182Y15180D01*
X87356Y15441D01*
X87417Y15748D01*
X87356Y16055D01*
X87182Y16316D01*
X86921Y16490D01*
X86614Y16551D01*
D02*
G37*
G36*
X80315D02*
X80008Y16490D01*
X79747Y16316D01*
X79573Y16055D01*
X79512Y15748D01*
X79573Y15441D01*
X79747Y15180D01*
X80008Y15006D01*
X80315Y14945D01*
X80622Y15006D01*
X80883Y15180D01*
X81057Y15441D01*
X81118Y15748D01*
X81057Y16055D01*
X80883Y16316D01*
X80622Y16490D01*
X80315Y16551D01*
D02*
G37*
G36*
X77165D02*
X76858Y16490D01*
X76598Y16316D01*
X76424Y16055D01*
X76363Y15748D01*
X76424Y15441D01*
X76598Y15180D01*
X76858Y15006D01*
X77165Y14945D01*
X77473Y15006D01*
X77733Y15180D01*
X77907Y15441D01*
X77968Y15748D01*
X77907Y16055D01*
X77733Y16316D01*
X77473Y16490D01*
X77165Y16551D01*
D02*
G37*
G36*
X74016D02*
X73708Y16490D01*
X73448Y16316D01*
X73274Y16055D01*
X73213Y15748D01*
X73274Y15441D01*
X73448Y15180D01*
X73708Y15006D01*
X74016Y14945D01*
X74323Y15006D01*
X74583Y15180D01*
X74757Y15441D01*
X74818Y15748D01*
X74757Y16055D01*
X74583Y16316D01*
X74323Y16490D01*
X74016Y16551D01*
D02*
G37*
G36*
X70866D02*
X70559Y16490D01*
X70298Y16316D01*
X70124Y16055D01*
X70063Y15748D01*
X70124Y15441D01*
X70298Y15180D01*
X70559Y15006D01*
X70866Y14945D01*
X71173Y15006D01*
X71434Y15180D01*
X71608Y15441D01*
X71669Y15748D01*
X71608Y16055D01*
X71434Y16316D01*
X71173Y16490D01*
X70866Y16551D01*
D02*
G37*
G36*
X67716D02*
X67409Y16490D01*
X67149Y16316D01*
X66975Y16055D01*
X66914Y15748D01*
X66975Y15441D01*
X67149Y15180D01*
X67409Y15006D01*
X67716Y14945D01*
X68024Y15006D01*
X68284Y15180D01*
X68458Y15441D01*
X68519Y15748D01*
X68458Y16055D01*
X68284Y16316D01*
X68024Y16490D01*
X67716Y16551D01*
D02*
G37*
G36*
X64567D02*
X64260Y16490D01*
X63999Y16316D01*
X63825Y16055D01*
X63764Y15748D01*
X63825Y15441D01*
X63999Y15180D01*
X64260Y15006D01*
X64567Y14945D01*
X64874Y15006D01*
X65135Y15180D01*
X65309Y15441D01*
X65370Y15748D01*
X65309Y16055D01*
X65135Y16316D01*
X64874Y16490D01*
X64567Y16551D01*
D02*
G37*
G36*
X58268D02*
X57960Y16490D01*
X57700Y16316D01*
X57526Y16055D01*
X57465Y15748D01*
X57526Y15441D01*
X57700Y15180D01*
X57960Y15006D01*
X58268Y14945D01*
X58575Y15006D01*
X58835Y15180D01*
X59009Y15441D01*
X59070Y15748D01*
X59009Y16055D01*
X58835Y16316D01*
X58575Y16490D01*
X58268Y16551D01*
D02*
G37*
G36*
X55118D02*
X54811Y16490D01*
X54550Y16316D01*
X54376Y16055D01*
X54315Y15748D01*
X54376Y15441D01*
X54550Y15180D01*
X54811Y15006D01*
X55118Y14945D01*
X55425Y15006D01*
X55686Y15180D01*
X55860Y15441D01*
X55921Y15748D01*
X55860Y16055D01*
X55686Y16316D01*
X55425Y16490D01*
X55118Y16551D01*
D02*
G37*
G36*
X29921D02*
X29614Y16490D01*
X29353Y16316D01*
X29179Y16055D01*
X29118Y15748D01*
X29179Y15441D01*
X29353Y15180D01*
X29614Y15006D01*
X29921Y14945D01*
X30228Y15006D01*
X30489Y15180D01*
X30663Y15441D01*
X30724Y15748D01*
X30663Y16055D01*
X30489Y16316D01*
X30228Y16490D01*
X29921Y16551D01*
D02*
G37*
%LPD*%
D13*
X76772Y188976D02*
D03*
X64961Y188976D02*
D03*
D14*
X70866Y194783D02*
D03*
Y183169D02*
D03*
D15*
X35433Y183071D02*
D03*
X35433Y194882D02*
D03*
D16*
X41240Y188976D02*
D03*
X29626D02*
D03*
D17*
X57284Y41339D02*
D03*
X60827D02*
D03*
X88779D02*
D03*
X92323D02*
D03*
X25787D02*
D03*
X29331D02*
D03*
D18*
X64173Y173701D02*
D03*
Y177087D02*
D03*
X49606Y173701D02*
D03*
Y177087D02*
D03*
X46063Y173701D02*
D03*
Y177087D02*
D03*
X60630Y173701D02*
D03*
Y177087D02*
D03*
X65354Y50906D02*
D03*
Y47520D02*
D03*
X50394Y47520D02*
D03*
Y50906D02*
D03*
X68504Y47520D02*
D03*
Y50906D02*
D03*
X56693Y47520D02*
D03*
Y50906D02*
D03*
X53543Y50906D02*
D03*
Y47520D02*
D03*
X96850Y50906D02*
D03*
Y47520D02*
D03*
X81890Y47520D02*
D03*
Y50906D02*
D03*
X100000Y47520D02*
D03*
Y50906D02*
D03*
X88189Y47520D02*
D03*
Y50906D02*
D03*
X85039Y50906D02*
D03*
Y47520D02*
D03*
X29921Y50906D02*
D03*
Y47520D02*
D03*
X33071D02*
D03*
Y50906D02*
D03*
X21260Y47520D02*
D03*
Y50906D02*
D03*
D19*
X53425Y173228D02*
D03*
X56811D02*
D03*
X25866Y37402D02*
D03*
X29252D02*
D03*
X57362D02*
D03*
X60748D02*
D03*
X88858D02*
D03*
X92244D02*
D03*
D20*
X88583Y188976D02*
D03*
Y183071D02*
D03*
X82677Y188976D02*
D03*
Y182776D02*
D03*
D21*
X59547Y47441D02*
D03*
X62500D02*
D03*
X61024Y50984D02*
D03*
X91043Y47441D02*
D03*
X93996D02*
D03*
X92520Y50984D02*
D03*
X24114Y47441D02*
D03*
X27067D02*
D03*
X25591Y50984D02*
D03*
D22*
X73228Y85827D02*
D03*
X80315D02*
D03*
X59055D02*
D03*
X66142D02*
D03*
X44882D02*
D03*
X51968D02*
D03*
X37795D02*
D03*
X87401Y135433D02*
D03*
Y128346D02*
D03*
Y114173D02*
D03*
Y121260D02*
D03*
Y100000D02*
D03*
Y92913D02*
D03*
Y107087D02*
D03*
X80315Y142520D02*
D03*
X73228D02*
D03*
X66142D02*
D03*
X59055D02*
D03*
X44882D02*
D03*
X51968D02*
D03*
X37795D02*
D03*
X30709Y93173D02*
D03*
Y100000D02*
D03*
Y107087D02*
D03*
Y114173D02*
D03*
Y121260D02*
D03*
Y128346D02*
D03*
Y135433D02*
D03*
X101575Y163779D02*
D03*
X108661Y156693D02*
D03*
X101575D02*
D03*
X108661Y142520D02*
D03*
Y149606D02*
D03*
X94488Y156693D02*
D03*
X101575Y149606D02*
D03*
X94488Y163779D02*
D03*
X101575Y142520D02*
D03*
X94488Y149606D02*
D03*
X108661Y135433D02*
D03*
Y128346D02*
D03*
X101575Y135433D02*
D03*
X108661Y114173D02*
D03*
Y121260D02*
D03*
X94488Y135433D02*
D03*
X101575Y128346D02*
D03*
X94488Y142520D02*
D03*
X101575Y121260D02*
D03*
X94488Y128346D02*
D03*
X80315Y163779D02*
D03*
X87401D02*
D03*
X73228D02*
D03*
X87401Y156693D02*
D03*
X80315D02*
D03*
X66142Y163779D02*
D03*
X73228Y156693D02*
D03*
X59055Y163779D02*
D03*
X66142Y156693D02*
D03*
X51968D02*
D03*
X87401Y149606D02*
D03*
Y142520D02*
D03*
X80315Y149606D02*
D03*
X94488Y114173D02*
D03*
Y121260D02*
D03*
X73228Y149606D02*
D03*
X59055Y156693D02*
D03*
X66142Y149606D02*
D03*
X59055D02*
D03*
X108661Y100000D02*
D03*
Y92913D02*
D03*
Y107087D02*
D03*
X101575D02*
D03*
Y100000D02*
D03*
Y114173D02*
D03*
Y92913D02*
D03*
X94488Y100000D02*
D03*
X108661Y85827D02*
D03*
Y78740D02*
D03*
X101575Y85827D02*
D03*
X108661Y71653D02*
D03*
X101575Y64567D02*
D03*
X94488Y85827D02*
D03*
X101575Y78740D02*
D03*
X94488Y92913D02*
D03*
X101575Y71653D02*
D03*
X94488Y64567D02*
D03*
Y107087D02*
D03*
Y78740D02*
D03*
X87401Y85827D02*
D03*
Y71653D02*
D03*
Y78740D02*
D03*
X73228D02*
D03*
X80315D02*
D03*
X59055D02*
D03*
X80315Y71653D02*
D03*
X66142Y78740D02*
D03*
X94488Y71653D02*
D03*
X87401Y64567D02*
D03*
X73228Y71653D02*
D03*
X80315Y64567D02*
D03*
X73228D02*
D03*
X66142Y71653D02*
D03*
X59055D02*
D03*
X66142Y64567D02*
D03*
X59055D02*
D03*
X44882Y163779D02*
D03*
X51968D02*
D03*
X37795D02*
D03*
X44882Y156693D02*
D03*
X37795D02*
D03*
X30709Y163779D02*
D03*
Y156693D02*
D03*
X23622Y163779D02*
D03*
X44882Y149606D02*
D03*
X51968D02*
D03*
X37795D02*
D03*
X30709Y142520D02*
D03*
Y149606D02*
D03*
X23622D02*
D03*
Y128346D02*
D03*
Y156693D02*
D03*
Y114173D02*
D03*
Y121260D02*
D03*
X16535Y156693D02*
D03*
Y149606D02*
D03*
Y163779D02*
D03*
X23622Y135433D02*
D03*
Y142520D02*
D03*
X9449Y156693D02*
D03*
Y149606D02*
D03*
X16535Y142520D02*
D03*
X9449D02*
D03*
X16535Y128346D02*
D03*
Y121260D02*
D03*
Y135433D02*
D03*
X23622Y107087D02*
D03*
X16535Y114173D02*
D03*
X9449Y128346D02*
D03*
Y135433D02*
D03*
Y114173D02*
D03*
Y121260D02*
D03*
X44882Y78740D02*
D03*
X51968D02*
D03*
X30709Y85827D02*
D03*
X51968Y71653D02*
D03*
X37795Y78740D02*
D03*
X23622Y85827D02*
D03*
X30709Y78740D02*
D03*
X23622Y100000D02*
D03*
X44882Y71653D02*
D03*
X51968Y64567D02*
D03*
X37795Y71653D02*
D03*
X44882Y64567D02*
D03*
X37795D02*
D03*
X30709D02*
D03*
Y71653D02*
D03*
X16535Y100000D02*
D03*
X23622Y92913D02*
D03*
X16535Y107087D02*
D03*
Y85827D02*
D03*
Y92913D02*
D03*
X9449Y100000D02*
D03*
Y92913D02*
D03*
Y107087D02*
D03*
X23622Y78740D02*
D03*
Y71653D02*
D03*
X16535Y78740D02*
D03*
X23622Y64567D02*
D03*
X16535D02*
D03*
X9449Y78740D02*
D03*
Y85827D02*
D03*
X16535Y71653D02*
D03*
X9449D02*
D03*
X51968Y114173D02*
D03*
Y121260D02*
D03*
Y107087D02*
D03*
X66142Y121260D02*
D03*
X59055Y114173D02*
D03*
Y121260D02*
D03*
X66142Y107087D02*
D03*
Y114173D02*
D03*
X59055Y107087D02*
D03*
D36*
X110087Y107087D02*
G03*
X114000Y111000I0J3913D01*
G01*
Y161500D02*
G03*
X102000Y173500I-12000J0D01*
G01*
X88583Y180417D02*
G03*
X95500Y173500I6917J0D01*
G01*
X73228Y167228D02*
G03*
X67228Y173228I-6000J0D01*
G01*
X35433Y177567D02*
G03*
X39772Y173228I4339J0D01*
G01*
X114000Y111000D02*
Y161500D01*
X108661Y107087D02*
X110087D01*
X95500Y173500D02*
X102000D01*
X88583Y180417D02*
Y183071D01*
X76772Y188976D02*
X88583D01*
X73228Y163779D02*
Y167228D01*
X57500Y173228D02*
X67228D01*
X39772D02*
X52500D01*
X35433Y177567D02*
Y183071D01*
D37*
X103937Y5512D02*
D03*
X100787D02*
D03*
X97638D02*
D03*
X94488D02*
D03*
X91338D02*
D03*
X88189D02*
D03*
X85039D02*
D03*
X81890D02*
D03*
X78740D02*
D03*
X75590D02*
D03*
X72441D02*
D03*
X69291D02*
D03*
X66142D02*
D03*
X62992D02*
D03*
X59842D02*
D03*
X56693D02*
D03*
X53543D02*
D03*
X50394D02*
D03*
X34646D02*
D03*
X31496D02*
D03*
X28346D02*
D03*
X25197D02*
D03*
X22047D02*
D03*
X18898D02*
D03*
X15748D02*
D03*
X12598D02*
D03*
D38*
X105118Y89370D02*
X108661Y92913D01*
X25197Y14173D02*
X26772Y15748D01*
X25197Y5512D02*
Y14173D01*
X31890Y5906D02*
Y12598D01*
X31496Y5512D02*
X31890Y5906D01*
X27953Y5905D02*
Y12598D01*
Y5905D02*
X28346Y5512D01*
X62598Y68110D02*
X66142Y71653D01*
X57323Y39370D02*
Y41299D01*
Y37441D02*
Y39370D01*
X73228Y71653D02*
X76772Y75197D01*
X23622Y114173D02*
X27165Y117717D01*
X34252Y82284D02*
Y82315D01*
Y82284D02*
X37795Y78740D01*
X108661D02*
X112205Y75197D01*
X108661Y85827D02*
X112205Y89370D01*
X87401Y64567D02*
X90945Y68110D01*
X90945D01*
X25315Y31815D02*
X25866Y32366D01*
Y37402D01*
X25315Y29528D02*
Y31815D01*
X88779Y41339D02*
Y44500D01*
X24114Y45386D02*
X25000Y44500D01*
X30000D01*
X24114Y45386D02*
Y47441D01*
X50394Y50906D02*
Y54134D01*
X81457Y50472D02*
X81890Y50906D01*
X80000Y50472D02*
X81457D01*
X78740Y49213D02*
X80000Y50472D01*
X78740Y49213D02*
Y49213D01*
X73228Y64567D02*
X76772Y68110D01*
X44882Y71653D02*
X48425Y68110D01*
X51968Y71653D02*
X55512Y68110D01*
X34252Y68110D02*
X37795Y64567D01*
X27165Y68110D02*
X30709Y64567D01*
X20079Y68110D02*
X23622Y64567D01*
X12992Y68110D02*
X16535Y64567D01*
X9449Y78740D02*
X12992Y75197D01*
X9449Y121260D02*
X12992Y117717D01*
X9449Y128346D02*
X12992Y124803D01*
X9449Y135433D02*
X12992Y131890D01*
X9449Y142520D02*
X12992Y138976D01*
X9449Y149606D02*
X12992Y146063D01*
X73228Y142520D02*
X76772Y138976D01*
X83858Y124803D02*
X87401Y128346D01*
X105118Y117717D02*
X108661Y121260D01*
X90945Y103543D02*
X94488Y107087D01*
X105118Y68110D02*
X108661Y71653D01*
X94488Y64567D02*
X98031Y68110D01*
X91004Y47480D02*
X91043Y47441D01*
X81890Y47520D02*
X81929Y47480D01*
X91004D01*
X96850Y47520D02*
X100000D01*
X100000Y47520D01*
X88779Y41339D02*
X88819Y41299D01*
Y37441D02*
X88858Y37402D01*
X88819Y37441D02*
Y41299D01*
X92323Y41339D02*
X95335D01*
X96850Y42854D02*
Y47520D01*
X95335Y41339D02*
X96850Y42854D01*
X92520Y50906D02*
X96850D01*
X61024D02*
X65354D01*
X63839Y41339D02*
X65354Y42854D01*
Y47520D01*
X60827Y41339D02*
X63839D01*
X57323Y37441D02*
X57362Y37402D01*
X57284Y41339D02*
X57323Y41299D01*
X68504Y47520D02*
X68504Y47520D01*
X65354Y47520D02*
X68504D01*
X50433Y47480D02*
X59508D01*
X50394Y47520D02*
X50433Y47480D01*
X59508D02*
X59547Y47441D01*
X25827Y37441D02*
Y41299D01*
Y37441D02*
X25866Y37402D01*
X25787Y41339D02*
X25827Y41299D01*
X21299Y47480D02*
X24075D01*
X24114Y47441D01*
X21260Y47520D02*
X21299Y47480D01*
X25630Y50945D02*
X29882D01*
X25591Y50984D02*
X25630Y50945D01*
X29882D02*
X29921Y50906D01*
X33071Y42571D02*
Y47520D01*
X31839Y41339D02*
X33071Y42571D01*
X29331Y41339D02*
X31839D01*
X29921Y47520D02*
X33071D01*
D39*
X82677Y179000D02*
Y182776D01*
D40*
X21748Y15748D02*
X25315Y19315D01*
X17324Y15748D02*
X21748D01*
X25315Y19315D02*
Y29528D01*
X17324Y15748D02*
X17764D01*
X12598Y5512D02*
Y13780D01*
X15748Y5512D02*
Y13780D01*
X18898Y5512D02*
Y13780D01*
X34646Y5512D02*
Y13780D01*
X50394Y5512D02*
Y13780D01*
X59842Y5512D02*
Y13780D01*
X88189Y5512D02*
Y13780D01*
X94488Y5512D02*
Y13780D01*
X103937Y5512D02*
Y13780D01*
D41*
X15748Y15748D02*
D03*
D42*
X94562Y160347D02*
D03*
D43*
X11417Y189173D02*
D03*
X106693D02*
D03*
D44*
X20000Y75500D02*
D03*
X75500Y60500D02*
D03*
X105000Y62992D02*
D03*
X63500Y31000D02*
D03*
X20000Y30000D02*
D03*
X37000Y27500D02*
D03*
X48500Y17000D02*
D03*
X9500Y55500D02*
D03*
X3000D02*
D03*
X10000Y36000D02*
D03*
X3000Y38000D02*
D03*
X4000Y17000D02*
D03*
X108000Y16000D02*
D03*
X114000Y28000D02*
D03*
X114500Y41500D02*
D03*
Y54000D02*
D03*
X108500Y53500D02*
D03*
X107500Y43500D02*
D03*
Y35500D02*
D03*
X106000Y27500D02*
D03*
X72000Y54000D02*
D03*
X65000Y37000D02*
D03*
X34000Y38000D02*
D03*
X38500Y52500D02*
D03*
X14500Y59000D02*
D03*
X5500Y103500D02*
D03*
Y118000D02*
D03*
Y138500D02*
D03*
X27000Y139000D02*
D03*
Y124500D02*
D03*
X27500Y160000D02*
D03*
X83500D02*
D03*
X105500Y146000D02*
D03*
X98000Y139000D02*
D03*
Y118000D02*
D03*
X91000Y110500D02*
D03*
X98000Y82000D02*
D03*
X81000Y96000D02*
D03*
X54000Y128500D02*
D03*
X43000Y116000D02*
D03*
X50500Y99500D02*
D03*
X63500Y95500D02*
D03*
X37000D02*
D03*
X38000Y136500D02*
D03*
X66000D02*
D03*
X81500Y136000D02*
D03*
X79500Y125000D02*
D03*
X81500Y106500D02*
D03*
X71500Y91000D02*
D03*
X72000Y99500D02*
D03*
Y133500D02*
D03*
X85932Y176684D02*
D03*
X87541Y173976D02*
D03*
X89860Y171845D02*
D03*
X92734Y170556D02*
D03*
X95857Y170148D02*
D03*
X99007D02*
D03*
X102156Y170142D02*
D03*
X105239Y169497D02*
D03*
X107898Y167809D02*
D03*
X109774Y165279D02*
D03*
X110596Y162239D02*
D03*
X115233Y169231D02*
D03*
X113375Y171774D02*
D03*
X111046Y173896D02*
D03*
X108317Y175468D02*
D03*
X105327Y176459D02*
D03*
X102203Y176854D02*
D03*
X99053Y176852D02*
D03*
X95903D02*
D03*
X92943Y177926D02*
D03*
X105118Y89370D02*
D03*
X82677Y179000D02*
D03*
X53345Y169877D02*
D03*
X32081Y178151D02*
D03*
X32481Y175210D02*
D03*
X33925Y172616D02*
D03*
X36246Y170765D02*
D03*
X39096Y169936D02*
D03*
X42064Y169877D02*
D03*
X45033D02*
D03*
X48001D02*
D03*
X50969D02*
D03*
X41365Y176580D02*
D03*
X38785Y178047D02*
D03*
X53543Y176580D02*
D03*
X55721Y169877D02*
D03*
X57087Y176580D02*
D03*
X58690Y169877D02*
D03*
X61658D02*
D03*
X64627D02*
D03*
X67595Y169831D02*
D03*
X69798Y167841D02*
D03*
X76580Y166898D02*
D03*
X76178Y169839D02*
D03*
X74925Y172530D02*
D03*
X72862Y174664D02*
D03*
X70240Y176056D02*
D03*
X67316Y176569D02*
D03*
X17324Y15748D02*
D03*
X31890Y12598D02*
D03*
X27953D02*
D03*
X91000Y160500D02*
D03*
X62598Y68110D02*
D03*
X26772Y15748D02*
D03*
X76772Y75197D02*
D03*
X27165Y117717D02*
D03*
X34252Y82315D02*
D03*
X112205Y75197D02*
D03*
X112205Y89370D02*
D03*
X90945Y68110D02*
D03*
X25315Y29528D02*
D03*
X88779Y44500D02*
D03*
X57323Y39370D02*
D03*
X30000Y44500D02*
D03*
X50394Y54134D02*
D03*
X78740Y49213D02*
D03*
X76772Y68110D02*
D03*
X48425Y68110D02*
D03*
X55512D02*
D03*
X34252Y68110D02*
D03*
X27165D02*
D03*
X20079D02*
D03*
X12992D02*
D03*
X12992Y75197D02*
D03*
Y117717D02*
D03*
Y124803D02*
D03*
Y131890D02*
D03*
Y138976D02*
D03*
Y146063D02*
D03*
X76772Y138976D02*
D03*
X83858Y124803D02*
D03*
X105118Y117717D02*
D03*
X90945Y103543D02*
D03*
X105118Y68110D02*
D03*
X98032Y68110D02*
D03*
M02*
