G04*
G04 #@! TF.GenerationSoftware,Altium Limited,Altium Designer,22.1.2 (22)*
G04*
G04 Layer_Color=8388736*
%FSLAX25Y25*%
%MOIN*%
G70*
G04*
G04 #@! TF.SameCoordinates,3D425B39-A101-4537-954C-310EEB490880*
G04*
G04*
G04 #@! TF.FilePolarity,Positive*
G04*
G01*
G75*
%ADD12C,0.00197*%
%ADD64C,0.00039*%
%ADD65C,0.00079*%
D12*
X62992Y181102D02*
X78740D01*
X62992Y196850D02*
X78740D01*
X62992Y181102D02*
Y196850D01*
X78740Y181102D02*
Y196850D01*
X27559Y181102D02*
Y196850D01*
X43307Y181102D02*
Y196850D01*
X27559D02*
X43307D01*
X27559Y181102D02*
X43307D01*
D64*
X56102Y39862D02*
Y42815D01*
X62008Y39862D02*
Y42815D01*
X56102Y39862D02*
X62008D01*
X56102Y42815D02*
X62008D01*
X52165Y171752D02*
Y174705D01*
Y171752D02*
X58071D01*
X52165Y174705D02*
X58071D01*
Y171752D02*
Y174705D01*
X86122Y181102D02*
X91043D01*
Y190945D01*
X86122Y181102D02*
Y190945D01*
X91043D01*
X80216Y190797D02*
X85138D01*
X80216Y180955D02*
Y190797D01*
X85138Y180955D02*
Y190797D01*
X80216Y180955D02*
X85138D01*
X63878Y52165D02*
X66831D01*
X63878Y46260D02*
Y52165D01*
X66831Y46260D02*
Y52165D01*
X63878Y46260D02*
X66831D01*
X58661D02*
X63386D01*
X58661D02*
Y52165D01*
X63386D01*
Y46260D02*
Y52165D01*
X48917Y46260D02*
X51870D01*
Y52165D01*
X48917Y46260D02*
Y52165D01*
X51870D01*
X52067Y52165D02*
X55020D01*
X52067Y46260D02*
Y52165D01*
X55020Y46260D02*
Y52165D01*
X52067Y46260D02*
X55020D01*
X87598Y39862D02*
Y42815D01*
X93504Y39862D02*
Y42815D01*
X87598Y39862D02*
X93504D01*
X87598Y42815D02*
X93504D01*
X95374Y52165D02*
X98327D01*
X95374Y46260D02*
Y52165D01*
X98327Y46260D02*
Y52165D01*
X95374Y46260D02*
X98327D01*
X90158D02*
X94882D01*
X90158D02*
Y52165D01*
X94882D01*
Y46260D02*
Y52165D01*
X80413Y46260D02*
X83366D01*
Y52165D01*
X80413Y46260D02*
Y52165D01*
X83366D01*
X83563Y52165D02*
X86516D01*
X83563Y46260D02*
Y52165D01*
X86516Y46260D02*
Y52165D01*
X83563Y46260D02*
X86516D01*
X24606Y39862D02*
Y42815D01*
X30512Y39862D02*
Y42815D01*
X24606Y39862D02*
X30512D01*
X24606Y42815D02*
X30512D01*
X28445Y52165D02*
X31398D01*
X28445Y46260D02*
Y52165D01*
X31398Y46260D02*
Y52165D01*
X28445Y46260D02*
X31398D01*
X23228D02*
X27953D01*
X23228D02*
Y52165D01*
X27953D01*
Y46260D02*
Y52165D01*
D65*
X62697Y172441D02*
Y178347D01*
X65650Y172441D02*
Y178347D01*
X62697Y172441D02*
X65650D01*
X62697Y178347D02*
X65650D01*
X48130Y172441D02*
Y178347D01*
X51083Y172441D02*
Y178347D01*
X48130Y172441D02*
X51083D01*
X48130Y178347D02*
X51083D01*
X44587Y172441D02*
Y178347D01*
X47539Y172441D02*
Y178347D01*
X44587Y172441D02*
X47539D01*
X44587Y178347D02*
X47539D01*
X59153Y172441D02*
Y178347D01*
X62106Y172441D02*
Y178347D01*
X59153Y172441D02*
X62106D01*
X59153Y178347D02*
X62106D01*
X24606Y38878D02*
X30512D01*
X24606Y35925D02*
X30512D01*
X24606D02*
Y38878D01*
X30512Y35925D02*
Y38878D01*
X56102D02*
X62008D01*
X56102Y35925D02*
X62008D01*
X56102D02*
Y38878D01*
X62008Y35925D02*
Y38878D01*
X67028Y46260D02*
Y52165D01*
X69980Y46260D02*
Y52165D01*
X67028Y46260D02*
X69980D01*
X67028Y52165D02*
X69980D01*
X55216Y46260D02*
Y52165D01*
X58169Y46260D02*
Y52165D01*
X55216Y46260D02*
X58169D01*
X55216Y52165D02*
X58169D01*
X87598Y38878D02*
X93504D01*
X87598Y35925D02*
X93504D01*
X87598D02*
Y38878D01*
X93504Y35925D02*
Y38878D01*
X98524Y46260D02*
Y52165D01*
X101476Y46260D02*
Y52165D01*
X98524Y46260D02*
X101476D01*
X98524Y52165D02*
X101476D01*
X86713Y46260D02*
Y52165D01*
X89665Y46260D02*
Y52165D01*
X86713Y46260D02*
X89665D01*
X86713Y52165D02*
X89665D01*
X31594Y46260D02*
Y52165D01*
X34547Y46260D02*
Y52165D01*
X31594Y46260D02*
X34547D01*
X31594Y52165D02*
X34547D01*
X19783Y46260D02*
Y52165D01*
X22736Y46260D02*
Y52165D01*
X19783Y46260D02*
X22736D01*
X19783Y52165D02*
X22736D01*
M02*
