%TF.GenerationSoftware,Altium Limited,Altium Designer,24.7.2 (38)*%
G04 Layer_Physical_Order=4*
G04 Layer_Color=16711680*
%FSLAX45Y45*%
%MOMM*%
%TF.SameCoordinates,C1245C4B-2411-4F97-9DC6-EC8D337214EE*%
%TF.FilePolarity,Positive*%
%TF.FileFunction,Copper,L4,Bot,Signal*%
%TF.Part,Single*%
G01*
G75*
%TA.AperFunction,SMDPad,CuDef*%
%ADD14R,0.47000X0.52000*%
%ADD15R,0.52000X0.47000*%
%TA.AperFunction,ConnectorPad*%
%ADD23R,0.60000X2.30000*%
%TA.AperFunction,Conductor*%
%ADD25C,0.20000*%
%ADD27C,0.30000*%
%ADD28C,0.40000*%
%ADD29C,0.38100*%
%TA.AperFunction,ViaPad*%
%ADD30C,0.75000*%
%ADD31R,5.30000X5.30000*%
%ADD32C,0.50000*%
%TA.AperFunction,SMDPad,CuDef*%
%ADD34R,1.82000X1.16000*%
%ADD35R,1.00000X0.70000*%
%TA.AperFunction,TestPad*%
%ADD36C,1.50000*%
%TA.AperFunction,ConnectorPad*%
%ADD37R,1.30000X0.45000*%
%ADD38R,1.70000X1.30000*%
%ADD39R,1.15000X0.65000*%
%TA.AperFunction,Conductor*%
%ADD40R,1.68000X1.68000*%
%ADD41R,2.56375X1.17243*%
G36*
X1474510Y345489D02*
X1364999D01*
X1364376Y345365D01*
X1363748Y345458D01*
X1355906Y345072D01*
X1354074Y344613D01*
X1352184D01*
X1336803Y341554D01*
X1334483Y340593D01*
X1332021Y340103D01*
X1317533Y334102D01*
X1315446Y332707D01*
X1313126Y331747D01*
X1300086Y323034D01*
X1298311Y321258D01*
X1296224Y319864D01*
X1285135Y308775D01*
X1283740Y306688D01*
X1281964Y304912D01*
X1273252Y291872D01*
X1272291Y289553D01*
X1270896Y287466D01*
X1266074Y275824D01*
X500050D01*
X493401Y288524D01*
X495684Y300000D01*
X494548Y305711D01*
X508445Y319608D01*
X845000D01*
X852803Y321160D01*
X859419Y325581D01*
X1005845Y472007D01*
X1020826Y469027D01*
X1025753Y457133D01*
X1039377Y439377D01*
X1057134Y425753D01*
X1077811Y417188D01*
X1100000Y414267D01*
X1122190Y417188D01*
X1142867Y425753D01*
X1160623Y439377D01*
X1174247Y457133D01*
X1182812Y477811D01*
X1185733Y500000D01*
X1182812Y522189D01*
X1174247Y542867D01*
X1160623Y560623D01*
X1142867Y574247D01*
X1122190Y582812D01*
X1100000Y585733D01*
X1077811Y582812D01*
X1057134Y574247D01*
X1039377Y560623D01*
X1025753Y542867D01*
X1017188Y522189D01*
X1016951Y520392D01*
X1005000D01*
X997196Y518840D01*
X990581Y514419D01*
X990580Y514419D01*
X941317Y465155D01*
X930550Y472349D01*
X932812Y477811D01*
X935733Y500000D01*
X932812Y522189D01*
X924247Y542867D01*
X910623Y560623D01*
X892867Y574247D01*
X872190Y582812D01*
X850000Y585733D01*
X827811Y582812D01*
X807134Y574247D01*
X789377Y560623D01*
X775753Y542867D01*
X767188Y522189D01*
X764267Y500000D01*
X767188Y477811D01*
X775753Y457133D01*
X776856Y455695D01*
X716553Y395392D01*
X515970D01*
X511110Y407125D01*
X541632Y437647D01*
X557133Y425753D01*
X577811Y417188D01*
X600000Y414267D01*
X622190Y417188D01*
X642867Y425753D01*
X660623Y439377D01*
X674247Y457133D01*
X682812Y477811D01*
X685733Y500000D01*
X682812Y522189D01*
X674247Y542867D01*
X660623Y560623D01*
X642867Y574247D01*
X622190Y582812D01*
X600000Y585733D01*
X577811Y582812D01*
X557133Y574247D01*
X539377Y560623D01*
X525753Y542867D01*
X517188Y522189D01*
X514267Y500000D01*
X517188Y477811D01*
X519218Y472910D01*
X471699Y425392D01*
X413259D01*
X408948Y438092D01*
X410623Y439377D01*
X424247Y457133D01*
X432812Y477811D01*
X435733Y500000D01*
X432812Y522189D01*
X424247Y542867D01*
X410623Y560623D01*
X392867Y574247D01*
X372190Y582812D01*
X350000Y585733D01*
X327811Y582812D01*
X307133Y574247D01*
X289377Y560623D01*
X275753Y542867D01*
X267188Y522189D01*
X264267Y500000D01*
X267188Y477811D01*
X275753Y457133D01*
X276856Y455695D01*
X205579Y384418D01*
X201159Y377802D01*
X199606Y369998D01*
Y328469D01*
X194765Y325234D01*
X187029Y313656D01*
X186473Y310860D01*
X173524D01*
X172968Y313656D01*
X165232Y325234D01*
X160390Y328469D01*
Y379997D01*
X158838Y387800D01*
X154418Y394416D01*
X154417Y394417D01*
X138596Y410237D01*
X140816Y424903D01*
X142867Y425753D01*
X160623Y439377D01*
X174247Y457133D01*
X182812Y477811D01*
X185733Y500000D01*
X182812Y522189D01*
X174247Y542867D01*
X160623Y560623D01*
X142867Y574247D01*
X122189Y582812D01*
X100000Y585733D01*
X77811Y582812D01*
X57133Y574247D01*
X39377Y560623D01*
X25753Y542867D01*
X17188Y522189D01*
X14267Y500000D01*
X17188Y477811D01*
X25753Y457133D01*
X39377Y439377D01*
X57133Y425753D01*
X77811Y417188D01*
X92888Y415203D01*
Y406716D01*
X94440Y398912D01*
X98860Y392296D01*
X119607Y371550D01*
Y328469D01*
X114765Y325234D01*
X107029Y313656D01*
X104313Y300000D01*
X106595Y288524D01*
X99946Y275824D01*
X-14257D01*
X-15304Y281088D01*
X-19724Y287704D01*
X-19725Y287704D01*
X-25594Y293573D01*
X-24316Y300000D01*
X-27032Y313656D01*
X-34768Y325234D01*
X-46345Y332969D01*
X-60001Y335686D01*
X-73658Y332969D01*
X-85235Y325234D01*
X-92971Y313656D01*
X-93527Y310860D01*
X-106476D01*
X-107032Y313656D01*
X-114768Y325234D01*
X-126345Y332969D01*
X-140001Y335686D01*
X-153658Y332969D01*
X-165235Y325234D01*
X-172970Y313656D01*
X-175687Y300000D01*
X-173404Y288524D01*
X-180053Y275824D01*
X-284513D01*
Y325000D01*
X-284678Y325829D01*
X-284568Y326668D01*
X-285209Y336457D01*
X-285859Y338881D01*
X-286023Y341386D01*
X-291091Y360298D01*
X-292566Y363290D01*
X-293637Y366446D01*
X-303426Y383401D01*
X-305624Y385908D01*
X-307477Y388680D01*
X-321321Y402524D01*
X-324093Y404377D01*
X-326601Y406575D01*
X-343556Y416365D01*
X-346713Y417436D01*
X-349704Y418911D01*
X-368615Y423978D01*
X-371941Y424196D01*
X-375212Y424847D01*
X-394791D01*
X-398061Y424196D01*
X-401388Y423978D01*
X-420300Y418911D01*
X-423291Y417436D01*
X-426447Y416364D01*
X-443403Y406575D01*
X-445909Y404377D01*
X-448682Y402524D01*
X-462526Y388680D01*
X-464378Y385908D01*
X-466577Y383401D01*
X-476366Y366446D01*
X-477438Y363289D01*
X-478913Y360298D01*
X-483980Y341387D01*
X-484144Y338882D01*
X-484794Y336456D01*
X-485435Y326667D01*
X-485325Y325829D01*
X-485490Y325000D01*
Y275824D01*
X-619949D01*
X-626598Y288524D01*
X-624316Y300000D01*
X-627032Y313656D01*
X-634768Y325234D01*
X-646345Y332969D01*
X-660001Y335686D01*
X-673658Y332969D01*
X-685235Y325234D01*
X-692971Y313656D01*
X-693527Y310859D01*
X-706476D01*
X-707032Y313656D01*
X-714768Y325234D01*
X-726345Y332969D01*
X-740002Y335686D01*
X-753658Y332969D01*
X-765235Y325234D01*
X-772971Y313656D01*
X-775687Y300000D01*
X-773405Y288524D01*
X-780054Y275824D01*
X-859950D01*
X-866598Y288524D01*
X-864316Y300000D01*
X-867032Y313656D01*
X-874768Y325234D01*
X-886345Y332969D01*
X-900002Y335686D01*
X-913658Y332969D01*
X-925235Y325234D01*
X-932971Y313656D01*
X-935687Y300000D01*
X-934648Y294774D01*
X-944586Y284139D01*
X-949414Y285327D01*
Y330851D01*
X-942472Y333727D01*
X-939301Y341380D01*
Y458624D01*
X-942472Y466277D01*
X-950125Y469448D01*
X-969412D01*
Y520667D01*
X-957133Y525753D01*
X-939377Y539377D01*
X-925753Y557134D01*
X-917188Y577811D01*
X-914267Y600000D01*
X-917188Y622190D01*
X-925753Y642867D01*
X-939377Y660623D01*
X-957133Y674247D01*
X-977811Y682812D01*
X-1000000Y685733D01*
X-1022189Y682812D01*
X-1042867Y674247D01*
X-1060623Y660623D01*
X-1074247Y642867D01*
X-1082812Y622190D01*
X-1085733Y600000D01*
X-1082812Y577811D01*
X-1074247Y557134D01*
X-1060623Y539377D01*
X-1042867Y525753D01*
X-1030588Y520667D01*
Y469448D01*
X-1206500D01*
X-1214154Y466277D01*
X-1217324Y458624D01*
Y341380D01*
X-1214154Y333727D01*
X-1206500Y330556D01*
X-1170589D01*
Y275824D01*
X-1266078D01*
X-1270900Y287466D01*
X-1272294Y289552D01*
X-1273255Y291872D01*
X-1281968Y304912D01*
X-1283743Y306688D01*
X-1285138Y308775D01*
X-1296227Y319864D01*
X-1298314Y321258D01*
X-1300090Y323034D01*
X-1313129Y331747D01*
X-1315449Y332707D01*
X-1317536Y334102D01*
X-1332025Y340103D01*
X-1334487Y340593D01*
X-1336806Y341554D01*
X-1352188Y344613D01*
X-1354077D01*
X-1355909Y345072D01*
X-1363750Y345458D01*
X-1364379Y345365D01*
X-1365002Y345489D01*
X-1474513D01*
Y5069512D01*
X1474510D01*
Y345489D01*
D02*
G37*
%LPC*%
G36*
X1251000Y4176500D02*
X1225000D01*
Y4153000D01*
X1251000D01*
Y4176500D01*
D02*
G37*
G36*
X1205000D02*
X1179000D01*
Y4153000D01*
X1205000D01*
Y4176500D01*
D02*
G37*
G36*
X651000D02*
X624999D01*
Y4153000D01*
X651000D01*
Y4176500D01*
D02*
G37*
G36*
X604999D02*
X579000D01*
Y4153000D01*
X604999D01*
Y4176500D01*
D02*
G37*
G36*
X760255Y4361079D02*
X679743D01*
X672089Y4357908D01*
X668919Y4350255D01*
Y4110408D01*
X662993Y4107794D01*
X655904Y4111476D01*
X651000Y4116276D01*
Y4133000D01*
X614999D01*
X579000D01*
Y4114024D01*
X579000Y4109500D01*
X569686Y4101324D01*
X524000D01*
X524000Y4101324D01*
X516346Y4098154D01*
X441346Y4023154D01*
X438176Y4015500D01*
Y3879500D01*
X441346Y3871846D01*
X449000Y3868676D01*
X650999D01*
X651000Y3868676D01*
X658653Y3871846D01*
X701483Y3914676D01*
X810000D01*
X817654Y3917846D01*
X820824Y3925500D01*
Y4050821D01*
X817654Y4058475D01*
X771079Y4105050D01*
Y4350255D01*
X767909Y4357908D01*
X760255Y4361079D01*
D02*
G37*
G36*
X1120255D02*
X859743D01*
X852089Y4357908D01*
X848919Y4350255D01*
Y4089742D01*
Y4068759D01*
X848918Y4068758D01*
X852088Y4061104D01*
X852090Y4061103D01*
X879176Y4034017D01*
Y3925500D01*
X882346Y3917846D01*
X890000Y3914676D01*
X998517D01*
X1041346Y3871846D01*
X1049000Y3868676D01*
X1251000D01*
X1258654Y3871846D01*
X1261824Y3879500D01*
Y4090500D01*
X1258654Y4098154D01*
X1256461Y4099062D01*
X1251000Y4109500D01*
X1251000Y4114024D01*
Y4133000D01*
X1215000D01*
X1179000D01*
Y4114024D01*
X1179000Y4109500D01*
X1169687Y4101324D01*
X1131079D01*
Y4350255D01*
X1127909Y4357908D01*
X1120255Y4361079D01*
D02*
G37*
G36*
X100000Y3985733D02*
X77811Y3982812D01*
X57133Y3974247D01*
X39377Y3960623D01*
X25753Y3942867D01*
X17188Y3922190D01*
X14267Y3900000D01*
X17188Y3877811D01*
X25753Y3857133D01*
X39377Y3839377D01*
X57133Y3825753D01*
X77811Y3817188D01*
X100000Y3814267D01*
X122189Y3817188D01*
X142867Y3825753D01*
X160623Y3839377D01*
X174247Y3857133D01*
X181445Y3874510D01*
X219441D01*
X234403Y3859548D01*
X237030Y3846344D01*
X244765Y3834766D01*
X256343Y3827031D01*
X269999Y3824314D01*
X283655Y3827031D01*
X295233Y3834766D01*
X302968Y3846344D01*
X305685Y3860000D01*
X302968Y3873656D01*
X295233Y3885234D01*
X283655Y3892969D01*
X270451Y3895596D01*
X248023Y3918024D01*
X239753Y3923549D01*
X229999Y3925490D01*
X181445D01*
X174247Y3942867D01*
X160623Y3960623D01*
X142867Y3974247D01*
X122189Y3982812D01*
X100000Y3985733D01*
D02*
G37*
G36*
X-1170000Y3895683D02*
X-1183656Y3892967D01*
X-1195234Y3885231D01*
X-1202969Y3873654D01*
X-1205686Y3859998D01*
X-1202969Y3846341D01*
X-1195234Y3834764D01*
X-1183656Y3827028D01*
X-1170000Y3824312D01*
X-1156344Y3827028D01*
X-1144766Y3834764D01*
X-1137031Y3846341D01*
X-1134314Y3859998D01*
X-1137031Y3873654D01*
X-1144766Y3885231D01*
X-1156344Y3892967D01*
X-1170000Y3895683D01*
D02*
G37*
G36*
X1251000Y3720500D02*
X1159999D01*
Y3662500D01*
X1251000D01*
Y3720500D01*
D02*
G37*
G36*
X1139999D02*
X1049000D01*
Y3662500D01*
X1139999D01*
Y3720500D01*
D02*
G37*
G36*
X651000D02*
X560000D01*
Y3662500D01*
X651000D01*
Y3720500D01*
D02*
G37*
G36*
X540000D02*
X449000D01*
Y3662500D01*
X540000D01*
Y3720500D01*
D02*
G37*
G36*
X1010000Y3868824D02*
X690000D01*
X682346Y3865654D01*
X679176Y3858000D01*
Y3662500D01*
X682346Y3654846D01*
X690000Y3651676D01*
X1010000D01*
X1017654Y3654846D01*
X1020824Y3662500D01*
Y3858000D01*
X1017654Y3865654D01*
X1010000Y3868824D01*
D02*
G37*
G36*
X-124000Y3641000D02*
X-189000D01*
Y3618500D01*
X-124000D01*
Y3641000D01*
D02*
G37*
G36*
X-324000D02*
X-389000D01*
Y3618500D01*
X-324000D01*
Y3641000D01*
D02*
G37*
G36*
X-209000D02*
X-274000D01*
Y3618500D01*
X-209000D01*
Y3641000D01*
D02*
G37*
G36*
X-409000D02*
X-474000D01*
Y3618500D01*
X-409000D01*
Y3641000D01*
D02*
G37*
G36*
X-1260000Y3650500D02*
X-1345000D01*
Y3585500D01*
X-1260000D01*
Y3650500D01*
D02*
G37*
G36*
X-1365000D02*
X-1450000D01*
Y3585500D01*
X-1365000D01*
Y3650500D01*
D02*
G37*
G36*
X1251000Y3642500D02*
X1159999D01*
Y3584500D01*
X1251000D01*
Y3642500D01*
D02*
G37*
G36*
X1139999D02*
X1049000D01*
Y3584500D01*
X1139999D01*
Y3642500D01*
D02*
G37*
G36*
X651000Y3642500D02*
X560000D01*
Y3584500D01*
X651000D01*
Y3642500D01*
D02*
G37*
G36*
X540000D02*
X449000D01*
Y3584500D01*
X540000D01*
Y3642500D01*
D02*
G37*
G36*
X-124000Y3598500D02*
X-189000D01*
Y3576000D01*
X-124000D01*
Y3598500D01*
D02*
G37*
G36*
X-209000D02*
X-274000D01*
Y3576000D01*
X-209000D01*
Y3598500D01*
D02*
G37*
G36*
X-324000D02*
X-389000D01*
Y3576000D01*
X-324000D01*
Y3598500D01*
D02*
G37*
G36*
X-409000D02*
X-474000D01*
Y3576000D01*
X-409000D01*
Y3598500D01*
D02*
G37*
G36*
X-1260000Y3565500D02*
X-1345000D01*
Y3500500D01*
X-1260000D01*
Y3565500D01*
D02*
G37*
G36*
X-1365000D02*
X-1450000D01*
Y3500500D01*
X-1365000D01*
Y3565500D01*
D02*
G37*
G36*
X326500Y3420998D02*
X302999D01*
Y3394998D01*
X326500D01*
Y3420998D01*
D02*
G37*
G36*
X282999D02*
X259500D01*
Y3394998D01*
X282999D01*
Y3420998D01*
D02*
G37*
G36*
X85500Y3427000D02*
X28000D01*
Y3394500D01*
X85500D01*
Y3427000D01*
D02*
G37*
G36*
X8000D02*
X-49500D01*
Y3394500D01*
X8000D01*
Y3427000D01*
D02*
G37*
G36*
X1000000Y3385733D02*
X977811Y3382812D01*
X957133Y3374247D01*
X939377Y3360623D01*
X927764Y3345488D01*
X834849D01*
X823655Y3352967D01*
X809999Y3355684D01*
X796343Y3352967D01*
X784765Y3345232D01*
X777030Y3333654D01*
X774313Y3319998D01*
X777030Y3306342D01*
X784765Y3294764D01*
X796343Y3287029D01*
X809999Y3284312D01*
X823655Y3287029D01*
X834849Y3294508D01*
X914990D01*
X917188Y3277811D01*
X925753Y3257133D01*
X939377Y3239377D01*
X957133Y3225753D01*
X977811Y3217188D01*
X1000000Y3214267D01*
X1022189Y3217188D01*
X1042867Y3225753D01*
X1060623Y3239377D01*
X1074247Y3257133D01*
X1082812Y3277811D01*
X1085733Y3300000D01*
X1082812Y3322189D01*
X1074247Y3342867D01*
X1060623Y3360623D01*
X1042867Y3374247D01*
X1022189Y3382812D01*
X1000000Y3385733D01*
D02*
G37*
G36*
X85500Y3374500D02*
X28000D01*
Y3342000D01*
X85500D01*
Y3374500D01*
D02*
G37*
G36*
X8000D02*
X-49500D01*
Y3342000D01*
X8000D01*
Y3374500D01*
D02*
G37*
G36*
X240500Y3420998D02*
X173500D01*
Y3348999D01*
X173500D01*
Y3341185D01*
X173500D01*
Y3325578D01*
X141844D01*
X141843Y3325578D01*
X134039Y3324026D01*
X127424Y3319605D01*
X127423Y3319604D01*
X108710Y3300892D01*
X40500D01*
X36016Y3300000D01*
X-49500D01*
Y3277892D01*
X-71531D01*
X-74766Y3282734D01*
X-86344Y3290469D01*
X-100000Y3293186D01*
X-113656Y3290469D01*
X-125234Y3282734D01*
X-132969Y3271157D01*
X-135686Y3257500D01*
X-132969Y3243844D01*
X-125234Y3232267D01*
X-113656Y3224531D01*
X-100000Y3221814D01*
X-86344Y3224531D01*
X-74766Y3232267D01*
X-71531Y3237108D01*
X-49500D01*
Y3215000D01*
X85500D01*
Y3260108D01*
X117157D01*
X124961Y3261660D01*
X131577Y3266081D01*
X150290Y3284794D01*
X173500D01*
Y3269187D01*
X173500D01*
Y3262373D01*
X173500D01*
X173500Y3186718D01*
X173500Y3177674D01*
Y3111062D01*
X173500D01*
Y3103249D01*
X173500D01*
Y3087641D01*
X135088D01*
X127284Y3086089D01*
X120668Y3081668D01*
X85000Y3046000D01*
X-49500D01*
Y3023892D01*
X-71531D01*
X-74766Y3028734D01*
X-86344Y3036469D01*
X-100000Y3039186D01*
X-113656Y3036469D01*
X-125234Y3028734D01*
X-132969Y3017157D01*
X-135686Y3003500D01*
X-132969Y2989844D01*
X-125234Y2978267D01*
X-113656Y2970531D01*
X-100000Y2967814D01*
X-86344Y2970531D01*
X-74766Y2978267D01*
X-71531Y2983108D01*
X-49500D01*
Y2961000D01*
X85500D01*
Y3002652D01*
X90882D01*
X98686Y3004204D01*
X105302Y3008625D01*
X143534Y3046857D01*
X164520D01*
X173500Y3037877D01*
X173500Y3027843D01*
X173500Y3018549D01*
Y2952438D01*
X173500D01*
Y2944624D01*
X173500D01*
Y2919392D01*
X40500D01*
X38530Y2919000D01*
X-49500D01*
Y2896892D01*
X-71531D01*
X-74766Y2901734D01*
X-86344Y2909469D01*
X-100000Y2912186D01*
X-113656Y2909469D01*
X-125234Y2901734D01*
X-132969Y2890157D01*
X-135686Y2876500D01*
X-132969Y2862844D01*
X-125234Y2851267D01*
X-113656Y2843531D01*
X-100000Y2840814D01*
X-86344Y2843531D01*
X-74766Y2851267D01*
X-71531Y2856108D01*
X-49500D01*
Y2834000D01*
X85500D01*
Y2878608D01*
X164520D01*
X173500Y2869628D01*
X173500Y2859924D01*
Y2793813D01*
X173500D01*
Y2786000D01*
X173500D01*
Y2770392D01*
X85500D01*
Y2792000D01*
X-49500D01*
Y2769892D01*
X-71531D01*
X-74766Y2774734D01*
X-86344Y2782469D01*
X-100000Y2785186D01*
X-113656Y2782469D01*
X-125234Y2774734D01*
X-132969Y2763157D01*
X-135686Y2749500D01*
X-132969Y2735844D01*
X-125234Y2724267D01*
X-113656Y2716531D01*
X-100000Y2713814D01*
X-86344Y2716531D01*
X-74766Y2724267D01*
X-71531Y2729108D01*
X-49500D01*
Y2707000D01*
X85500D01*
Y2729608D01*
X173500D01*
Y2714000D01*
X240500D01*
Y2786000D01*
X240500D01*
Y2793813D01*
X240500D01*
X240500Y2869219D01*
X240500Y2878513D01*
Y2944624D01*
X240500D01*
Y2952438D01*
X240500D01*
X240500Y3027843D01*
X240500Y3037137D01*
Y3103249D01*
X240500D01*
Y3111062D01*
X240500D01*
X240500Y3186718D01*
X240500Y3195762D01*
Y3262373D01*
X240500D01*
Y3269187D01*
X240500D01*
Y3341185D01*
X240500D01*
Y3348999D01*
X240500D01*
Y3420998D01*
D02*
G37*
G36*
X326500Y3374998D02*
X292999D01*
X259500D01*
Y3353886D01*
X259500Y3341186D01*
X259500Y3336298D01*
Y3315186D01*
X326500D01*
Y3336298D01*
X326500Y3348998D01*
X326500Y3353886D01*
Y3374998D01*
D02*
G37*
G36*
X-1170000Y3535684D02*
X-1183656Y3532967D01*
X-1195234Y3525231D01*
X-1202969Y3513654D01*
X-1205686Y3499998D01*
X-1202969Y3486342D01*
X-1198075Y3479016D01*
X-1203709Y3466316D01*
X-1419437D01*
X-1427090Y3463146D01*
X-1430261Y3455492D01*
Y3305492D01*
X-1427090Y3297838D01*
X-1419437Y3294668D01*
X-1054437D01*
X-1046783Y3297838D01*
X-1043613Y3305492D01*
Y3329708D01*
X-1030913Y3333265D01*
X-1025234Y3324766D01*
X-1013656Y3317031D01*
X-1000000Y3314314D01*
X-986344Y3317031D01*
X-974766Y3324766D01*
X-967031Y3336344D01*
X-964314Y3350000D01*
X-967031Y3363656D01*
X-974766Y3375234D01*
X-986344Y3382969D01*
X-1000000Y3385686D01*
X-1013656Y3382969D01*
X-1025234Y3375234D01*
X-1030913Y3366734D01*
X-1043613Y3370291D01*
Y3455492D01*
X-1046783Y3463146D01*
X-1054437Y3466316D01*
X-1136291D01*
X-1141925Y3479016D01*
X-1137031Y3486342D01*
X-1134314Y3499998D01*
X-1137031Y3513654D01*
X-1144766Y3525231D01*
X-1156344Y3532967D01*
X-1170000Y3535684D01*
D02*
G37*
G36*
X-314452Y3466316D02*
X-679452D01*
X-687106Y3463146D01*
X-690276Y3455492D01*
Y3305492D01*
X-687106Y3297838D01*
X-679452Y3294668D01*
X-314452D01*
X-306798Y3297838D01*
X-303628Y3305492D01*
Y3455492D01*
X-306798Y3463146D01*
X-314452Y3466316D01*
D02*
G37*
G36*
X326500Y3295186D02*
X259500D01*
X259500Y3265780D01*
X259500Y3256486D01*
Y3236374D01*
X292999D01*
X326500D01*
X326500Y3265780D01*
X326500Y3275074D01*
Y3295186D01*
D02*
G37*
G36*
Y3216374D02*
X292999D01*
X259500D01*
X259500Y3186718D01*
X259500Y3177674D01*
Y3157062D01*
X292999D01*
X326500D01*
X326500Y3186718D01*
X326500Y3195762D01*
Y3216374D01*
D02*
G37*
G36*
X-1054437Y3212316D02*
X-1419437D01*
X-1427090Y3209146D01*
X-1430261Y3201492D01*
Y3051492D01*
X-1427090Y3043838D01*
X-1419437Y3040668D01*
X-1054437D01*
X-1046783Y3043838D01*
X-1043613Y3051492D01*
Y3129708D01*
X-1030913Y3133266D01*
X-1025234Y3124766D01*
X-1013656Y3117031D01*
X-1000000Y3114314D01*
X-986344Y3117031D01*
X-974766Y3124766D01*
X-967031Y3136344D01*
X-964314Y3150000D01*
X-967031Y3163656D01*
X-974766Y3175234D01*
X-986344Y3182969D01*
X-1000000Y3185686D01*
X-1013656Y3182969D01*
X-1025234Y3175234D01*
X-1030913Y3166735D01*
X-1043613Y3170292D01*
Y3201492D01*
X-1046783Y3209146D01*
X-1054437Y3212316D01*
D02*
G37*
G36*
X-809999Y3175685D02*
X-823655Y3172969D01*
X-835233Y3165233D01*
X-842968Y3153656D01*
X-845685Y3139999D01*
X-842968Y3126343D01*
X-835233Y3114766D01*
X-823655Y3107030D01*
X-809999Y3104314D01*
X-796343Y3107030D01*
X-784766Y3114766D01*
X-777030Y3126343D01*
X-774313Y3139999D01*
X-777030Y3153656D01*
X-784766Y3165233D01*
X-796343Y3172969D01*
X-809999Y3175685D01*
D02*
G37*
G36*
X85500Y3173000D02*
X-49500D01*
Y3088000D01*
X85500D01*
Y3173000D01*
D02*
G37*
G36*
X326500Y3137062D02*
X292999D01*
X259500D01*
Y3115949D01*
X259500Y3103249D01*
X259500Y3098361D01*
Y3077249D01*
X326500D01*
Y3098361D01*
X326500Y3111062D01*
X326500Y3115949D01*
Y3137062D01*
D02*
G37*
G36*
X-314452Y3212316D02*
X-679452D01*
X-687106Y3209146D01*
X-690276Y3201492D01*
Y3051492D01*
X-687106Y3043838D01*
X-679452Y3040668D01*
X-314452D01*
X-306798Y3043838D01*
X-303628Y3051492D01*
Y3201492D01*
X-306798Y3209146D01*
X-314452Y3212316D01*
D02*
G37*
G36*
X326500Y3057249D02*
X259500D01*
X259500Y3027843D01*
X259500Y3018549D01*
Y2998437D01*
X292999D01*
X326500D01*
X326500Y3027843D01*
X326500Y3037137D01*
Y3057249D01*
D02*
G37*
G36*
Y2978437D02*
X292999D01*
X259500D01*
Y2957325D01*
X259500Y2944625D01*
X259500Y2939737D01*
Y2918625D01*
X326500D01*
Y2939737D01*
X326500Y2952437D01*
X326500Y2957325D01*
Y2978437D01*
D02*
G37*
G36*
Y2898625D02*
X259500D01*
X259500Y2869219D01*
X259500Y2859924D01*
Y2839812D01*
X292999D01*
X326500D01*
X326500Y2869219D01*
X326500Y2878513D01*
Y2898625D01*
D02*
G37*
G36*
X1000000Y2885733D02*
X977811Y2882812D01*
X957133Y2874247D01*
X939377Y2860623D01*
X925753Y2842867D01*
X917188Y2822189D01*
X914989Y2805488D01*
X834849D01*
X823655Y2812967D01*
X809999Y2815684D01*
X796343Y2812967D01*
X784765Y2805232D01*
X777030Y2793655D01*
X774313Y2779998D01*
X777030Y2766342D01*
X784765Y2754765D01*
X796343Y2747029D01*
X809999Y2744313D01*
X823655Y2747029D01*
X834849Y2754509D01*
X927767D01*
X939377Y2739377D01*
X957133Y2725753D01*
X977811Y2717188D01*
X1000000Y2714267D01*
X1022189Y2717188D01*
X1042867Y2725753D01*
X1060623Y2739377D01*
X1074247Y2757133D01*
X1082812Y2777811D01*
X1085733Y2800000D01*
X1082812Y2822189D01*
X1074247Y2842867D01*
X1060623Y2860623D01*
X1042867Y2874247D01*
X1022189Y2882812D01*
X1000000Y2885733D01*
D02*
G37*
G36*
X-314459Y2958340D02*
X-679459D01*
X-687113Y2955170D01*
X-690283Y2947516D01*
Y2797516D01*
X-687113Y2789862D01*
X-679459Y2786692D01*
X-314459D01*
X-306806Y2789862D01*
X-303635Y2797516D01*
Y2947516D01*
X-306806Y2955170D01*
X-314459Y2958340D01*
D02*
G37*
G36*
X-1054444D02*
X-1419444D01*
X-1427098Y2955170D01*
X-1430268Y2947516D01*
Y2797516D01*
X-1427098Y2789862D01*
X-1419444Y2786692D01*
X-1054444D01*
X-1046790Y2789862D01*
X-1043620Y2797516D01*
Y2947516D01*
X-1046790Y2955170D01*
X-1054444Y2958340D01*
D02*
G37*
G36*
X326500Y2819812D02*
X292999D01*
X259500D01*
Y2798700D01*
X259500Y2786000D01*
X259500Y2781112D01*
Y2760000D01*
X326500D01*
Y2781112D01*
X326500Y2793813D01*
X326500Y2798700D01*
Y2819812D01*
D02*
G37*
G36*
Y2740000D02*
X303000D01*
Y2714000D01*
X326500D01*
Y2740000D01*
D02*
G37*
G36*
X283000D02*
X259500D01*
Y2714000D01*
X283000D01*
Y2740000D01*
D02*
G37*
G36*
X-1260000Y2464500D02*
X-1345000D01*
Y2399500D01*
X-1260000D01*
Y2464500D01*
D02*
G37*
G36*
X-1365000D02*
X-1450000D01*
Y2399500D01*
X-1365000D01*
Y2464500D01*
D02*
G37*
G36*
X1000000Y2485733D02*
X977811Y2482812D01*
X957133Y2474247D01*
X939377Y2460623D01*
X925753Y2442867D01*
X917188Y2422189D01*
X914267Y2400000D01*
X917188Y2377811D01*
X925753Y2357133D01*
X939377Y2339377D01*
X957133Y2325753D01*
X977811Y2317188D01*
X1000000Y2314267D01*
X1022189Y2317188D01*
X1042867Y2325753D01*
X1060623Y2339377D01*
X1074247Y2357133D01*
X1082812Y2377811D01*
X1085011Y2394510D01*
X1145147D01*
X1156341Y2387030D01*
X1169997Y2384314D01*
X1183654Y2387030D01*
X1195231Y2394766D01*
X1202967Y2406343D01*
X1205683Y2419999D01*
X1202967Y2433656D01*
X1195231Y2445233D01*
X1183654Y2452969D01*
X1169997Y2455685D01*
X1156341Y2452969D01*
X1145147Y2445489D01*
X1072235D01*
X1060623Y2460623D01*
X1042867Y2474247D01*
X1022189Y2482812D01*
X1000000Y2485733D01*
D02*
G37*
G36*
X-124000Y2387000D02*
X-189000D01*
Y2364500D01*
X-124000D01*
Y2387000D01*
D02*
G37*
G36*
X-324000D02*
X-389000D01*
Y2364500D01*
X-324000D01*
Y2387000D01*
D02*
G37*
G36*
X-209000D02*
X-274000D01*
Y2364500D01*
X-209000D01*
Y2387000D01*
D02*
G37*
G36*
X-409000D02*
X-474000D01*
Y2364500D01*
X-409000D01*
Y2387000D01*
D02*
G37*
G36*
X-124000Y2344500D02*
X-189000D01*
Y2322000D01*
X-124000D01*
Y2344500D01*
D02*
G37*
G36*
X-209000D02*
X-274000D01*
Y2322000D01*
X-209000D01*
Y2344500D01*
D02*
G37*
G36*
X-324000D02*
X-389000D01*
Y2322000D01*
X-324000D01*
Y2344500D01*
D02*
G37*
G36*
X-409000D02*
X-474000D01*
Y2322000D01*
X-409000D01*
Y2344500D01*
D02*
G37*
G36*
X-1260000Y2379500D02*
X-1345000D01*
Y2314500D01*
X-1260000D01*
Y2379500D01*
D02*
G37*
G36*
X-1365000D02*
X-1450000D01*
Y2314500D01*
X-1365000D01*
Y2379500D01*
D02*
G37*
G36*
X1169997Y2275685D02*
X1156341Y2272969D01*
X1144764Y2265233D01*
X1137028Y2253656D01*
X1134312Y2240000D01*
X1137028Y2226343D01*
X1144764Y2214766D01*
X1156341Y2207030D01*
X1169997Y2204314D01*
X1183654Y2207030D01*
X1195231Y2214766D01*
X1202967Y2226343D01*
X1205683Y2240000D01*
X1202967Y2253656D01*
X1195231Y2265233D01*
X1183654Y2272969D01*
X1169997Y2275685D01*
D02*
G37*
G36*
X630000Y2095686D02*
X616344Y2092969D01*
X604766Y2085234D01*
X597031Y2073656D01*
X594314Y2060000D01*
X597031Y2046344D01*
X604766Y2034766D01*
X616344Y2027031D01*
X630000Y2024314D01*
X643656Y2027031D01*
X655234Y2034766D01*
X662969Y2046344D01*
X665686Y2060000D01*
X662969Y2073656D01*
X655234Y2085234D01*
X643656Y2092969D01*
X630000Y2095686D01*
D02*
G37*
G36*
X1169997Y2095685D02*
X1156341Y2092969D01*
X1144764Y2085233D01*
X1137028Y2073656D01*
X1134312Y2060000D01*
X1137028Y2046343D01*
X1144764Y2034766D01*
X1156341Y2027030D01*
X1169997Y2024314D01*
X1183654Y2027030D01*
X1195231Y2034766D01*
X1202967Y2046343D01*
X1205683Y2060000D01*
X1202967Y2073656D01*
X1195231Y2085233D01*
X1183654Y2092969D01*
X1169997Y2095685D01*
D02*
G37*
G36*
X-630002D02*
X-643658Y2092969D01*
X-655235Y2085233D01*
X-662971Y2073656D01*
X-665687Y2060000D01*
X-662971Y2046343D01*
X-655235Y2034766D01*
X-643658Y2027030D01*
X-630002Y2024314D01*
X-616345Y2027030D01*
X-604768Y2034766D01*
X-597032Y2046343D01*
X-594316Y2060000D01*
X-597032Y2073656D01*
X-604768Y2085233D01*
X-616345Y2092969D01*
X-630002Y2095685D01*
D02*
G37*
G36*
X-200000Y2085733D02*
X-222190Y2082812D01*
X-242867Y2074247D01*
X-260623Y2060623D01*
X-274247Y2042867D01*
X-282812Y2022190D01*
X-285733Y2000000D01*
X-282812Y1977811D01*
X-274247Y1957134D01*
X-273143Y1955695D01*
X-284420Y1944419D01*
X-288840Y1937803D01*
X-290392Y1929999D01*
Y1908468D01*
X-295234Y1905232D01*
X-302970Y1893655D01*
X-305686Y1879999D01*
X-302970Y1866342D01*
X-295234Y1854765D01*
X-283657Y1847030D01*
X-270000Y1844313D01*
X-256344Y1847030D01*
X-244767Y1854765D01*
X-237031Y1866342D01*
X-234315Y1879999D01*
X-237031Y1893655D01*
X-244708Y1905145D01*
X-244765Y1905296D01*
X-244485Y1913760D01*
X-232556Y1921482D01*
X-222190Y1917188D01*
X-200000Y1914267D01*
X-177811Y1917188D01*
X-157134Y1925753D01*
X-139377Y1939377D01*
X-125753Y1957134D01*
X-117188Y1977811D01*
X-114267Y2000000D01*
X-117188Y2022190D01*
X-125753Y2042867D01*
X-139377Y2060623D01*
X-157134Y2074247D01*
X-177811Y2082812D01*
X-200000Y2085733D01*
D02*
G37*
G36*
X-1169999Y2275686D02*
X-1183655Y2272969D01*
X-1195233Y2265233D01*
X-1202968Y2253656D01*
X-1205685Y2240000D01*
X-1202968Y2226344D01*
X-1195233Y2214766D01*
X-1190391Y2211531D01*
Y2089974D01*
X-1188839Y2082170D01*
X-1184418Y2075554D01*
X-1164471Y2055608D01*
X-1174247Y2042867D01*
X-1182812Y2022190D01*
X-1185733Y2000000D01*
X-1182812Y1977811D01*
X-1174247Y1957133D01*
X-1160623Y1939377D01*
X-1142867Y1925753D01*
X-1122190Y1917188D01*
X-1100000Y1914267D01*
X-1077811Y1917188D01*
X-1057134Y1925753D01*
X-1039377Y1939377D01*
X-1025753Y1957133D01*
X-1017188Y1977811D01*
X-1014267Y2000000D01*
X-1017188Y2022190D01*
X-1025753Y2042867D01*
X-1039377Y2060623D01*
X-1057134Y2074247D01*
X-1077811Y2082812D01*
X-1100000Y2085733D01*
X-1122190Y2082812D01*
X-1130540Y2079353D01*
X-1149607Y2098420D01*
Y2211531D01*
X-1144765Y2214766D01*
X-1137030Y2226344D01*
X-1134313Y2240000D01*
X-1137030Y2253656D01*
X-1144765Y2265233D01*
X-1156343Y2272969D01*
X-1169999Y2275686D01*
D02*
G37*
G36*
X809999Y1915687D02*
X796342Y1912970D01*
X784765Y1905235D01*
X777029Y1893657D01*
X774313Y1880001D01*
X777029Y1866345D01*
X784765Y1854767D01*
X796342Y1847032D01*
X809999Y1844315D01*
X823655Y1847032D01*
X835232Y1854767D01*
X842968Y1866345D01*
X845684Y1880001D01*
X842968Y1893657D01*
X835232Y1905235D01*
X823655Y1912970D01*
X809999Y1915687D01*
D02*
G37*
G36*
X629999D02*
X616342Y1912970D01*
X604765Y1905235D01*
X597030Y1893657D01*
X594313Y1880001D01*
X597030Y1866345D01*
X604765Y1854767D01*
X616342Y1847032D01*
X629999Y1844315D01*
X643655Y1847032D01*
X655232Y1854767D01*
X662968Y1866345D01*
X665684Y1880001D01*
X662968Y1893657D01*
X655232Y1905235D01*
X643655Y1912970D01*
X629999Y1915687D01*
D02*
G37*
G36*
X400000Y2085733D02*
X377811Y2082812D01*
X357133Y2074247D01*
X339377Y2060623D01*
X325753Y2042867D01*
X317188Y2022190D01*
X314267Y2000000D01*
X317188Y1977811D01*
X325753Y1957133D01*
X339377Y1939377D01*
X357133Y1925753D01*
X377811Y1917188D01*
X400000Y1914267D01*
X409962Y1915578D01*
X420682Y1905880D01*
Y1899124D01*
X417030Y1893657D01*
X414313Y1880001D01*
X417030Y1866345D01*
X424765Y1854767D01*
X436343Y1847032D01*
X449999Y1844315D01*
X463655Y1847032D01*
X475232Y1854767D01*
X482968Y1866345D01*
X485685Y1880001D01*
X482968Y1893657D01*
X475232Y1905235D01*
X471662Y1907621D01*
Y1921356D01*
X469721Y1931110D01*
X464196Y1939380D01*
X462175Y1941401D01*
X474247Y1957133D01*
X482812Y1977811D01*
X485733Y2000000D01*
X482812Y2022190D01*
X474247Y2042867D01*
X460623Y2060623D01*
X442867Y2074247D01*
X422189Y2082812D01*
X400000Y2085733D01*
D02*
G37*
G36*
X269999Y1915687D02*
X256343Y1912970D01*
X244765Y1905235D01*
X237030Y1893657D01*
X234313Y1880001D01*
X237030Y1866345D01*
X244765Y1854767D01*
X256343Y1847032D01*
X269999Y1844315D01*
X283655Y1847032D01*
X295233Y1854767D01*
X302968Y1866345D01*
X305685Y1880001D01*
X302968Y1893657D01*
X295233Y1905235D01*
X283655Y1912970D01*
X269999Y1915687D01*
D02*
G37*
G36*
X-800000Y2085733D02*
X-822189Y2082812D01*
X-842866Y2074247D01*
X-860623Y2060623D01*
X-874247Y2042867D01*
X-882812Y2022190D01*
X-885733Y2000000D01*
X-882812Y1977811D01*
X-874247Y1957134D01*
X-860623Y1939377D01*
X-842866Y1925753D01*
X-835490Y1922697D01*
Y1904851D01*
X-842970Y1893657D01*
X-845686Y1880001D01*
X-842970Y1866345D01*
X-835234Y1854767D01*
X-823657Y1847032D01*
X-810000Y1844315D01*
X-796344Y1847032D01*
X-784767Y1854767D01*
X-777031Y1866345D01*
X-774315Y1880001D01*
X-777031Y1893657D01*
X-783947Y1904007D01*
X-781188Y1916743D01*
X-777810Y1917188D01*
X-757133Y1925753D01*
X-739377Y1939377D01*
X-725753Y1957134D01*
X-717188Y1977811D01*
X-714267Y2000000D01*
X-717188Y2022190D01*
X-725753Y2042867D01*
X-739377Y2060623D01*
X-757133Y2074247D01*
X-777810Y2082812D01*
X-800000Y2085733D01*
D02*
G37*
G36*
X-500000D02*
X-522189Y2082812D01*
X-542867Y2074247D01*
X-560623Y2060623D01*
X-574247Y2042867D01*
X-582812Y2022190D01*
X-585733Y2000000D01*
X-582812Y1977811D01*
X-574247Y1957134D01*
X-560623Y1939377D01*
X-542867Y1925753D01*
X-522189Y1917188D01*
X-505637Y1915009D01*
Y1910148D01*
X-503696Y1900393D01*
X-498171Y1892124D01*
X-485595Y1879548D01*
X-482969Y1866344D01*
X-475233Y1854766D01*
X-463656Y1847031D01*
X-449999Y1844314D01*
X-436343Y1847031D01*
X-424766Y1854766D01*
X-417030Y1866344D01*
X-414314Y1880000D01*
X-417030Y1893656D01*
X-424766Y1905234D01*
X-436343Y1912969D01*
X-449547Y1915596D01*
X-450556Y1916604D01*
X-449788Y1931389D01*
X-439377Y1939377D01*
X-425753Y1957134D01*
X-417188Y1977811D01*
X-414267Y2000000D01*
X-417188Y2022190D01*
X-425753Y2042867D01*
X-439377Y2060623D01*
X-457133Y2074247D01*
X-477811Y2082812D01*
X-500000Y2085733D01*
D02*
G37*
G36*
X1169997Y1915686D02*
X1156341Y1912969D01*
X1144764Y1905233D01*
X1137028Y1893656D01*
X1134312Y1880000D01*
X1137028Y1866343D01*
X1144764Y1854766D01*
X1156341Y1847031D01*
X1169997Y1844314D01*
X1183654Y1847031D01*
X1195231Y1854766D01*
X1202967Y1866343D01*
X1205683Y1880000D01*
X1202967Y1893656D01*
X1195231Y1905233D01*
X1183654Y1912969D01*
X1169997Y1915686D01*
D02*
G37*
G36*
X-990000Y1735685D02*
X-1003656Y1732968D01*
X-1015234Y1725233D01*
X-1016717Y1723013D01*
X-1023222Y1718666D01*
X-1064563Y1677325D01*
X-1077811Y1682812D01*
X-1100000Y1685733D01*
X-1122190Y1682812D01*
X-1142867Y1674247D01*
X-1160623Y1660623D01*
X-1174247Y1642867D01*
X-1182812Y1622190D01*
X-1185733Y1600000D01*
X-1182812Y1577811D01*
X-1174247Y1557133D01*
X-1160623Y1539377D01*
X-1142867Y1525753D01*
X-1122190Y1517188D01*
X-1100000Y1514267D01*
X-1077811Y1517188D01*
X-1057133Y1525753D01*
X-1039377Y1539377D01*
X-1025753Y1557133D01*
X-1017188Y1577811D01*
X-1014267Y1600000D01*
X-1017188Y1622190D01*
X-1022675Y1635437D01*
X-993169Y1664944D01*
X-990000Y1664313D01*
X-976344Y1667030D01*
X-964766Y1674765D01*
X-957031Y1686343D01*
X-954314Y1699999D01*
X-957031Y1713655D01*
X-964766Y1725233D01*
X-976344Y1732968D01*
X-990000Y1735685D01*
D02*
G37*
G36*
X907000Y1663286D02*
X893344Y1660570D01*
X881767Y1652834D01*
X874031Y1641257D01*
X871314Y1627601D01*
X874031Y1613944D01*
X881767Y1602367D01*
X893344Y1594631D01*
X907000Y1591915D01*
X920657Y1594631D01*
X932234Y1602367D01*
X939969Y1613944D01*
X942686Y1627601D01*
X939969Y1641257D01*
X932234Y1652834D01*
X920657Y1660570D01*
X907000Y1663286D01*
D02*
G37*
G36*
X-810000Y1735685D02*
X-823656Y1732968D01*
X-835234Y1725233D01*
X-842969Y1713655D01*
X-845686Y1699999D01*
X-842969Y1686343D01*
X-842867Y1674247D01*
X-860623Y1660623D01*
X-874247Y1642867D01*
X-882812Y1622190D01*
X-885733Y1600000D01*
X-882812Y1577811D01*
X-874247Y1557134D01*
X-860623Y1539377D01*
X-842867Y1525753D01*
X-822189Y1517188D01*
X-800000Y1514267D01*
X-777810Y1517188D01*
X-757133Y1525753D01*
X-739377Y1539377D01*
X-725753Y1557134D01*
X-717188Y1577811D01*
X-714267Y1600000D01*
X-717188Y1622190D01*
X-725753Y1642867D01*
X-739377Y1660623D01*
X-757133Y1674247D01*
X-767084Y1678369D01*
X-777031Y1686343D01*
X-774314Y1699999D01*
X-777031Y1713655D01*
X-784767Y1725233D01*
X-796344Y1732968D01*
X-810000Y1735685D01*
D02*
G37*
G36*
X200000Y1463186D02*
X186344Y1460469D01*
X174766Y1452733D01*
X167031Y1441156D01*
X164314Y1427500D01*
X167031Y1413844D01*
X174766Y1402266D01*
X186344Y1394531D01*
X200000Y1391814D01*
X213656Y1394531D01*
X225233Y1402266D01*
X232969Y1413844D01*
X235686Y1427500D01*
X232969Y1441156D01*
X225233Y1452733D01*
X213656Y1460469D01*
X200000Y1463186D01*
D02*
G37*
G36*
X-200000Y1428186D02*
X-213656Y1425469D01*
X-225233Y1417734D01*
X-232969Y1406156D01*
X-235686Y1392500D01*
X-232969Y1378844D01*
X-225233Y1367266D01*
X-213656Y1359531D01*
X-200000Y1356814D01*
X-186344Y1359531D01*
X-174766Y1367266D01*
X-167031Y1378844D01*
X-164314Y1392500D01*
X-167031Y1406156D01*
X-174766Y1417734D01*
X-186344Y1425469D01*
X-200000Y1428186D01*
D02*
G37*
G36*
X-800000Y1385733D02*
X-822189Y1382812D01*
X-842866Y1374247D01*
X-860623Y1360623D01*
X-874247Y1342867D01*
X-882812Y1322189D01*
X-883049Y1320392D01*
X-921531D01*
X-924767Y1325234D01*
X-936344Y1332969D01*
X-950000Y1335686D01*
X-963656Y1332969D01*
X-975234Y1325234D01*
X-982969Y1313656D01*
X-985686Y1300000D01*
X-982969Y1286344D01*
X-975234Y1274766D01*
X-970392Y1271531D01*
Y1142500D01*
X-968840Y1134696D01*
X-964419Y1128081D01*
X-800392Y964054D01*
Y885469D01*
X-805234Y882234D01*
X-812969Y870656D01*
X-815686Y857000D01*
X-812969Y843344D01*
X-805234Y831766D01*
X-793657Y824031D01*
X-780000Y821314D01*
X-766344Y824031D01*
X-754767Y831766D01*
X-747031Y843344D01*
X-744314Y857000D01*
X-747031Y870656D01*
X-754767Y882234D01*
X-759608Y885469D01*
Y972500D01*
X-761161Y980304D01*
X-765581Y986920D01*
X-765582Y986920D01*
X-929608Y1150947D01*
Y1271531D01*
X-924767Y1274766D01*
X-921531Y1279608D01*
X-883049D01*
X-882812Y1277810D01*
X-874247Y1257133D01*
X-860623Y1239377D01*
X-842866Y1225753D01*
X-822189Y1217188D01*
X-800000Y1214267D01*
X-777810Y1217188D01*
X-757133Y1225753D01*
X-739377Y1239377D01*
X-725753Y1257133D01*
X-717188Y1277810D01*
X-714267Y1300000D01*
X-717188Y1322189D01*
X-725753Y1342867D01*
X-739377Y1360623D01*
X-757133Y1374247D01*
X-777810Y1382812D01*
X-800000Y1385733D01*
D02*
G37*
G36*
X557000Y1361936D02*
X543344Y1359219D01*
X531767Y1351484D01*
X524031Y1339906D01*
X521315Y1326250D01*
X524031Y1312594D01*
X526379Y1309080D01*
X518742Y1297650D01*
X517528Y1297892D01*
X227634D01*
X225233Y1301484D01*
X213656Y1309219D01*
X200000Y1311936D01*
X186344Y1309219D01*
X174766Y1301484D01*
X167031Y1289906D01*
X164314Y1276250D01*
X167031Y1262594D01*
X174766Y1251017D01*
X175202Y1250725D01*
Y1238025D01*
X174766Y1237734D01*
X167031Y1226156D01*
X164314Y1212500D01*
X167031Y1198844D01*
X174766Y1187266D01*
X176138Y1186350D01*
Y1173650D01*
X174766Y1172733D01*
X167031Y1161156D01*
X164314Y1147500D01*
X167031Y1133844D01*
X174766Y1122266D01*
X176138Y1121350D01*
Y1108650D01*
X174766Y1107734D01*
X167031Y1096156D01*
X164314Y1082500D01*
X167031Y1068844D01*
X174766Y1057266D01*
X176138Y1056350D01*
Y1043650D01*
X174766Y1042733D01*
X167031Y1031156D01*
X164314Y1017500D01*
X167031Y1003844D01*
X174766Y992266D01*
X186344Y984531D01*
X200000Y981814D01*
X213656Y984531D01*
X225233Y992266D01*
X232969Y1003844D01*
X235686Y1017500D01*
X232969Y1031156D01*
X225233Y1042733D01*
X223862Y1043650D01*
Y1056350D01*
X225233Y1057266D01*
X232969Y1068844D01*
X235686Y1082500D01*
X232969Y1096156D01*
X225233Y1107734D01*
X223862Y1108650D01*
Y1121350D01*
X225233Y1122266D01*
X232969Y1133844D01*
X235686Y1147500D01*
X232969Y1161156D01*
X225233Y1172733D01*
X223862Y1173650D01*
Y1186350D01*
X225233Y1187266D01*
X232969Y1198844D01*
X235686Y1212500D01*
X232969Y1226156D01*
X225233Y1237733D01*
X227707Y1249409D01*
X234854Y1257108D01*
X509081D01*
X525041Y1241148D01*
X517188Y1222189D01*
X514267Y1200000D01*
X517188Y1177810D01*
X525753Y1157133D01*
X539377Y1139377D01*
X557133Y1125753D01*
X577811Y1117188D01*
X600000Y1114267D01*
X622190Y1117188D01*
X642867Y1125753D01*
X660623Y1139377D01*
X674247Y1157133D01*
X682812Y1177810D01*
X685733Y1200000D01*
X682812Y1222189D01*
X674247Y1242867D01*
X660623Y1260623D01*
X642867Y1274247D01*
X622190Y1282812D01*
X600000Y1285733D01*
X582253Y1283397D01*
X576230Y1285831D01*
X573188Y1291639D01*
X577574Y1297903D01*
X582234Y1301016D01*
X589970Y1312594D01*
X592686Y1326250D01*
X589970Y1339906D01*
X582234Y1351484D01*
X570657Y1359219D01*
X557000Y1361936D01*
D02*
G37*
G36*
X1325000Y1363185D02*
X1311344Y1360469D01*
X1299766Y1352733D01*
X1292031Y1341156D01*
X1289314Y1327500D01*
X1292031Y1313843D01*
X1299766Y1302266D01*
X1311344Y1294531D01*
X1325000Y1291814D01*
X1338656Y1294531D01*
X1350234Y1302266D01*
X1357969Y1313843D01*
X1360686Y1327500D01*
X1357969Y1341156D01*
X1350234Y1352733D01*
X1338656Y1360469D01*
X1325000Y1363185D01*
D02*
G37*
G36*
X-1050000Y1335686D02*
X-1063656Y1332969D01*
X-1075234Y1325234D01*
X-1082969Y1313656D01*
X-1085686Y1300000D01*
X-1082969Y1286344D01*
X-1075234Y1274766D01*
X-1063656Y1267031D01*
X-1050000Y1264314D01*
X-1036344Y1267031D01*
X-1024767Y1274766D01*
X-1017031Y1286344D01*
X-1014314Y1300000D01*
X-1017031Y1313656D01*
X-1024767Y1325234D01*
X-1036344Y1332969D01*
X-1050000Y1335686D01*
D02*
G37*
G36*
X-1150000D02*
X-1163656Y1332969D01*
X-1175234Y1325234D01*
X-1182969Y1313656D01*
X-1185686Y1300000D01*
X-1182969Y1286344D01*
X-1175234Y1274766D01*
X-1163656Y1267031D01*
X-1150000Y1264314D01*
X-1136344Y1267031D01*
X-1124766Y1274766D01*
X-1117031Y1286344D01*
X-1114314Y1300000D01*
X-1117031Y1313656D01*
X-1124766Y1325234D01*
X-1136344Y1332969D01*
X-1150000Y1335686D01*
D02*
G37*
G36*
X812500Y1279286D02*
X798843Y1276569D01*
X787266Y1268834D01*
X779531Y1257257D01*
X776814Y1243600D01*
X779531Y1229944D01*
X787266Y1218367D01*
X798843Y1210631D01*
X812500Y1207915D01*
X826156Y1210631D01*
X837733Y1218367D01*
X845469Y1229944D01*
X848186Y1243600D01*
X845469Y1257257D01*
X837733Y1268834D01*
X826156Y1276569D01*
X812500Y1279286D01*
D02*
G37*
G36*
X1093000Y1199286D02*
X1079344Y1196569D01*
X1067766Y1188834D01*
X1060031Y1177256D01*
X1057314Y1163600D01*
X1060031Y1149944D01*
X1067766Y1138367D01*
X1079344Y1130631D01*
X1093000Y1127914D01*
X1106656Y1130631D01*
X1118233Y1138367D01*
X1125969Y1149944D01*
X1128686Y1163600D01*
X1125969Y1177256D01*
X1118233Y1188834D01*
X1106656Y1196569D01*
X1093000Y1199286D01*
D02*
G37*
G36*
X-200000Y1313186D02*
X-213656Y1310469D01*
X-225233Y1302733D01*
X-232969Y1291156D01*
X-235686Y1277500D01*
X-232969Y1263844D01*
X-225233Y1252266D01*
X-223862Y1251350D01*
Y1238650D01*
X-225233Y1237734D01*
X-232969Y1226156D01*
X-235686Y1212500D01*
X-232969Y1198844D01*
X-225233Y1187266D01*
X-223862Y1186350D01*
Y1173650D01*
X-225233Y1172733D01*
X-232969Y1161156D01*
X-235686Y1147500D01*
X-232969Y1133844D01*
X-225233Y1122266D01*
X-227313Y1110073D01*
X-234177Y1102892D01*
X-374054D01*
X-426856Y1155695D01*
X-425753Y1157133D01*
X-417188Y1177810D01*
X-414267Y1200000D01*
X-417188Y1222189D01*
X-425753Y1242866D01*
X-439377Y1260623D01*
X-457133Y1274247D01*
X-477811Y1282812D01*
X-500000Y1285733D01*
X-522189Y1282812D01*
X-542867Y1274247D01*
X-560623Y1260623D01*
X-574247Y1242866D01*
X-582812Y1222189D01*
X-585733Y1200000D01*
X-582812Y1177810D01*
X-574247Y1157133D01*
X-560623Y1139377D01*
X-542867Y1125753D01*
X-522189Y1117188D01*
X-500000Y1114267D01*
X-477811Y1117188D01*
X-457133Y1125753D01*
X-455695Y1126856D01*
X-396920Y1068081D01*
X-396919Y1068081D01*
X-390304Y1063660D01*
X-382500Y1062108D01*
X-228469D01*
X-225233Y1057266D01*
X-213656Y1049531D01*
X-200000Y1046814D01*
X-186344Y1049531D01*
X-174766Y1057266D01*
X-167031Y1068844D01*
X-164314Y1082500D01*
X-167031Y1096156D01*
X-174766Y1107734D01*
X-176138Y1108650D01*
Y1121350D01*
X-174766Y1122266D01*
X-167031Y1133844D01*
X-164314Y1147500D01*
X-167031Y1161156D01*
X-174766Y1172733D01*
X-176138Y1173650D01*
Y1186350D01*
X-174766Y1187266D01*
X-167031Y1198844D01*
X-164314Y1212500D01*
X-167031Y1226156D01*
X-174766Y1237734D01*
X-176138Y1238650D01*
Y1251350D01*
X-174766Y1252266D01*
X-167031Y1263844D01*
X-164314Y1277500D01*
X-167031Y1291156D01*
X-174766Y1302733D01*
X-186344Y1310469D01*
X-200000Y1313186D01*
D02*
G37*
G36*
X-1139001Y1025686D02*
X-1152657Y1022969D01*
X-1164234Y1015234D01*
X-1171970Y1003656D01*
X-1174686Y990000D01*
X-1171970Y976344D01*
X-1164234Y964766D01*
X-1152657Y957031D01*
X-1139001Y954314D01*
X-1125344Y957031D01*
X-1113767Y964766D01*
X-1106031Y976344D01*
X-1103315Y990000D01*
X-1106031Y1003656D01*
X-1113767Y1015234D01*
X-1125344Y1022969D01*
X-1139001Y1025686D01*
D02*
G37*
G36*
X-962700Y948861D02*
X-969665Y947476D01*
X-986336Y936336D01*
X-992363Y927317D01*
X-1007637D01*
X-1013664Y936336D01*
X-1030335Y947476D01*
X-1037300Y948861D01*
Y900000D01*
X-1050000D01*
Y887300D01*
X-1098861D01*
X-1097476Y880335D01*
X-1086336Y863664D01*
X-1077317Y857637D01*
Y842363D01*
X-1086336Y836336D01*
X-1097476Y819665D01*
X-1098861Y812700D01*
X-1050000D01*
Y800000D01*
X-1037300D01*
Y751139D01*
X-1030335Y752525D01*
X-1013664Y763664D01*
X-1007637Y772683D01*
X-992363D01*
X-986336Y763664D01*
X-969665Y752525D01*
X-962700Y751139D01*
Y800000D01*
X-950000D01*
Y812700D01*
X-901139D01*
X-902524Y819665D01*
X-913664Y836336D01*
X-922683Y842363D01*
Y857637D01*
X-913664Y863664D01*
X-902524Y880335D01*
X-901139Y887300D01*
X-950000D01*
Y900000D01*
X-962700D01*
Y948861D01*
D02*
G37*
G36*
X-937300D02*
Y912700D01*
X-901139D01*
X-902524Y919665D01*
X-913664Y936336D01*
X-930335Y947476D01*
X-937300Y948861D01*
D02*
G37*
G36*
X-1062700D02*
X-1069665Y947476D01*
X-1086336Y936336D01*
X-1097476Y919665D01*
X-1098861Y912700D01*
X-1062700D01*
Y948861D01*
D02*
G37*
G36*
X814000Y944286D02*
X800344Y941569D01*
X788767Y933834D01*
X781031Y922256D01*
X778315Y908600D01*
X781031Y894944D01*
X788767Y883367D01*
X800344Y875631D01*
X814000Y872914D01*
X827657Y875631D01*
X839234Y883367D01*
X846970Y894944D01*
X849686Y908600D01*
X846970Y922256D01*
X839234Y933834D01*
X827657Y941569D01*
X814000Y944286D01*
D02*
G37*
G36*
X614000D02*
X600344Y941569D01*
X588767Y933834D01*
X581031Y922256D01*
X578315Y908600D01*
X581031Y894944D01*
X588767Y883367D01*
X600344Y875631D01*
X614000Y872914D01*
X627657Y875631D01*
X639234Y883367D01*
X646969Y894944D01*
X649686Y908600D01*
X646969Y922256D01*
X639234Y933834D01*
X627657Y941569D01*
X614000Y944286D01*
D02*
G37*
G36*
X-500000Y985733D02*
X-522189Y982812D01*
X-542867Y974247D01*
X-560623Y960623D01*
X-574247Y942867D01*
X-582812Y922189D01*
X-585733Y900000D01*
X-582812Y877811D01*
X-574247Y857133D01*
X-560623Y839377D01*
X-542867Y825753D01*
X-522189Y817188D01*
X-500000Y814267D01*
X-477811Y817188D01*
X-457133Y825753D01*
X-439377Y839377D01*
X-425753Y857133D01*
X-419244Y872848D01*
X-232304D01*
X-225233Y862266D01*
X-213656Y854531D01*
X-200000Y851814D01*
X-186344Y854531D01*
X-174766Y862266D01*
X-167031Y873844D01*
X-164314Y887500D01*
X-167031Y901156D01*
X-174766Y912734D01*
X-186344Y920469D01*
X-200000Y923186D01*
X-213656Y920469D01*
X-223889Y913632D01*
X-416061D01*
X-417188Y922189D01*
X-425753Y942867D01*
X-439377Y960623D01*
X-457133Y974247D01*
X-477811Y982812D01*
X-500000Y985733D01*
D02*
G37*
G36*
X1325000Y863185D02*
X1311344Y860469D01*
X1299766Y852733D01*
X1292031Y841156D01*
X1289314Y827500D01*
X1292031Y813843D01*
X1299766Y802266D01*
X1311344Y794531D01*
X1325000Y791814D01*
X1338656Y794531D01*
X1350234Y802266D01*
X1357969Y813843D01*
X1360686Y827500D01*
X1357969Y841156D01*
X1350234Y852733D01*
X1338656Y860469D01*
X1325000Y863185D01*
D02*
G37*
G36*
X200000Y858186D02*
X186344Y855469D01*
X174766Y847734D01*
X167031Y836156D01*
X164314Y822500D01*
X167031Y808844D01*
X174766Y797266D01*
X186344Y789531D01*
X200000Y786814D01*
X213656Y789531D01*
X225233Y797266D01*
X232969Y808844D01*
X235686Y822500D01*
X232969Y836156D01*
X225233Y847734D01*
X213656Y855469D01*
X200000Y858186D01*
D02*
G37*
G36*
X-901139Y787300D02*
X-937300D01*
Y751139D01*
X-930335Y752525D01*
X-913664Y763664D01*
X-902524Y780335D01*
X-901139Y787300D01*
D02*
G37*
G36*
X-1062700D02*
X-1098861D01*
X-1097476Y780335D01*
X-1086336Y763664D01*
X-1069665Y752525D01*
X-1062700Y751139D01*
Y787300D01*
D02*
G37*
G36*
X-557000Y793186D02*
X-570656Y790469D01*
X-582234Y782734D01*
X-589969Y771156D01*
X-592686Y757500D01*
X-589969Y743844D01*
X-582234Y732267D01*
X-570656Y724531D01*
X-557000Y721814D01*
X-543344Y724531D01*
X-531766Y732267D01*
X-524031Y743844D01*
X-521314Y757500D01*
X-524031Y771156D01*
X-531766Y782734D01*
X-543344Y790469D01*
X-557000Y793186D01*
D02*
G37*
G36*
X1093000Y699286D02*
X1079344Y696569D01*
X1067766Y688834D01*
X1060031Y677256D01*
X1057314Y663600D01*
X1060031Y649944D01*
X1067766Y638367D01*
X1079344Y630631D01*
X1093000Y627914D01*
X1106656Y630631D01*
X1118233Y638367D01*
X1125969Y649944D01*
X1128686Y663600D01*
X1125969Y677256D01*
X1118233Y688834D01*
X1106656Y696569D01*
X1093000Y699286D01*
D02*
G37*
G36*
X-636000Y828686D02*
X-649656Y825969D01*
X-661233Y818234D01*
X-668969Y806656D01*
X-671685Y793000D01*
X-668969Y779344D01*
X-661233Y767766D01*
X-656392Y764531D01*
Y736000D01*
X-654839Y728196D01*
X-650419Y721580D01*
X-573144Y644305D01*
X-574247Y642867D01*
X-582812Y622190D01*
X-585733Y600000D01*
X-582812Y577811D01*
X-574247Y557134D01*
X-560623Y539377D01*
X-542867Y525753D01*
X-522189Y517188D01*
X-500000Y514267D01*
X-477811Y517188D01*
X-457133Y525753D01*
X-439377Y539377D01*
X-425753Y557134D01*
X-417188Y577811D01*
X-414267Y600000D01*
X-417188Y622190D01*
X-425753Y642867D01*
X-439377Y660623D01*
X-457133Y674247D01*
X-477811Y682812D01*
X-500000Y685733D01*
X-522189Y682812D01*
X-542867Y674247D01*
X-544305Y673144D01*
X-615608Y744447D01*
Y764531D01*
X-610766Y767766D01*
X-603031Y779344D01*
X-600314Y793000D01*
X-603031Y806656D01*
X-610766Y818234D01*
X-622343Y825969D01*
X-636000Y828686D01*
D02*
G37*
%LPD*%
G36*
X760255Y4100566D02*
X810000Y4050821D01*
Y3925500D01*
X697000D01*
X651000Y3879500D01*
X449000D01*
Y4015500D01*
X524000Y4090500D01*
X668161D01*
X668919Y4089742D01*
X679743Y4100566D01*
Y4350255D01*
X760255D01*
Y4100566D01*
D02*
G37*
G36*
X1120255Y4091257D02*
X1121012Y4090500D01*
X1251000D01*
Y3879500D01*
X1049000D01*
X1003000Y3925500D01*
X890000D01*
Y4038500D01*
X859743Y4068758D01*
Y4089742D01*
Y4350255D01*
X1120255D01*
Y4091257D01*
D02*
G37*
G36*
X1010000Y3662500D02*
X690000D01*
Y3858000D01*
X1010000D01*
Y3662500D01*
D02*
G37*
D14*
X293000Y3384998D02*
D03*
X207000D02*
D03*
Y3305186D02*
D03*
X293000D02*
D03*
Y3226374D02*
D03*
X207000D02*
D03*
X293000Y3147062D02*
D03*
X207000D02*
D03*
Y3067249D02*
D03*
X293000D02*
D03*
Y2988437D02*
D03*
X207000D02*
D03*
Y2908625D02*
D03*
X293000D02*
D03*
Y2829812D02*
D03*
X207000D02*
D03*
Y2750000D02*
D03*
X293000D02*
D03*
D15*
X1215000Y4143000D02*
D03*
Y4057000D02*
D03*
X615000Y4143000D02*
D03*
Y4057000D02*
D03*
D23*
X1179998Y140000D02*
D03*
X1099998D02*
D03*
X1019998D02*
D03*
X939998D02*
D03*
X859998D02*
D03*
X779998D02*
D03*
X699998D02*
D03*
X619999D02*
D03*
X539998D02*
D03*
X459998D02*
D03*
X379998D02*
D03*
X299998D02*
D03*
X219998D02*
D03*
X139998D02*
D03*
X59998D02*
D03*
X-20002D02*
D03*
X-100002D02*
D03*
X-180002D02*
D03*
X-580002D02*
D03*
X-660001D02*
D03*
X-740002D02*
D03*
X-820002D02*
D03*
X-900002D02*
D03*
X-980002D02*
D03*
X-1060001D02*
D03*
X-1140002D02*
D03*
D25*
X845000Y340000D02*
X1005000Y500000D01*
X499998Y340000D02*
X845000D01*
X1005000Y500000D02*
X1100000D01*
X454999Y375000D02*
X725000D01*
X459998Y300000D02*
X499998Y340000D01*
X725000Y375000D02*
X850000Y500000D01*
X480146Y405000D02*
X575146Y500000D01*
X600000D01*
X404998Y405000D02*
X480146D01*
X299998Y300000D02*
X404998Y405000D01*
X379998Y300000D02*
X454999Y375000D01*
X379998Y140000D02*
Y300000D01*
X219998Y369998D02*
X350000Y500000D01*
X219998Y300000D02*
Y369998D01*
X100000Y500000D02*
X113279Y486721D01*
Y406716D02*
X139998Y379997D01*
Y300000D02*
Y379997D01*
X113279Y406716D02*
Y486721D01*
X201250Y1277500D02*
X517528D01*
X200000Y1276250D02*
X201250Y1277500D01*
X-100000Y2749500D02*
X18000D01*
Y2876500D02*
X40500Y2899000D01*
X-100000Y2876500D02*
X18000D01*
Y2749500D02*
X18500Y2750000D01*
X-382500Y1082500D02*
X-200000D01*
X-205740Y893240D02*
X-200000Y887500D01*
X-493240Y893240D02*
X-205740D01*
X517528Y1277500D02*
X595028Y1200000D01*
X600000D01*
X-636000Y736000D02*
Y793000D01*
Y736000D02*
X-500000Y600000D01*
X-900002Y140000D02*
Y300000D01*
X-660001Y140000D02*
Y300000D01*
X-740002Y140000D02*
Y300000D01*
X-500000Y1200000D02*
X-382500Y1082500D01*
X-500000Y900000D02*
X-493240Y893240D01*
X-270000Y1879999D02*
Y1929999D01*
X-200000Y2000000D02*
Y2000000D01*
X-270000Y1929999D02*
X-200000Y2000000D01*
X-1169999Y2089974D02*
X-1100000Y2019975D01*
Y2000000D02*
Y2019975D01*
X-1169999Y2089974D02*
Y2240000D01*
X-950000Y1142500D02*
X-780000Y972500D01*
X-950000Y1142500D02*
Y1300000D01*
X-800000D01*
X-780000Y857000D02*
Y972500D01*
X-100000Y3257500D02*
X18000D01*
X-100000Y3003500D02*
X18000D01*
X37544Y3023044D01*
X90882D01*
X135088Y3067249D01*
X207000D01*
X40500Y2899000D02*
X197376D01*
X207000Y2908625D01*
Y2750000D02*
Y2829812D01*
X18500Y2750000D02*
X207000D01*
Y2908625D02*
Y2988437D01*
Y3067249D02*
Y3147062D01*
Y3305186D02*
Y3384998D01*
Y3226374D02*
Y3305186D01*
X40500Y3280500D02*
X117157D01*
X18000Y3258000D02*
X40500Y3280500D01*
X117157D02*
X141843Y3305186D01*
X207000D01*
X-60001Y299142D02*
X-34144Y273284D01*
Y154142D02*
Y273284D01*
X-114144Y154142D02*
X-100002Y140000D01*
X-114144Y154142D02*
Y273284D01*
X-140001Y299142D02*
X-114144Y273284D01*
X-140001Y299142D02*
Y300000D01*
X459998Y140000D02*
Y300000D01*
X299998Y140000D02*
Y300000D01*
X219998Y140000D02*
Y300000D01*
X139998Y140000D02*
Y300000D01*
D27*
X980002Y3319998D02*
X1000000Y3300000D01*
X809999Y3319998D02*
X980002D01*
X979998Y2779998D02*
X1000000Y2800000D01*
X809999Y2779998D02*
X979998D01*
X1000000Y2400000D02*
X1019999Y2419999D01*
X1169997D01*
X-810000Y1990000D02*
X-800000Y2000000D01*
X-810000Y1880001D02*
Y1990000D01*
X-500000Y2000000D02*
X-480147Y1980147D01*
Y1910148D02*
Y1980147D01*
Y1910148D02*
X-449999Y1880000D01*
X400000Y1967528D02*
Y2000000D01*
Y1967528D02*
X446172Y1921356D01*
Y1883828D02*
Y1921356D01*
Y1883828D02*
X449999Y1880001D01*
X100000Y3900000D02*
X229999D01*
X269999Y3860000D01*
D28*
X779998Y140000D02*
Y300000D01*
X-1000000Y419998D02*
Y600000D01*
Y419998D02*
X-980002Y400000D01*
Y140000D02*
Y350002D01*
X-1060001Y140000D02*
Y350002D01*
X-1140002Y140000D02*
Y350002D01*
X-580002Y232798D02*
X-520700Y292100D01*
X-241300D02*
X-180002Y230802D01*
X-580002Y140000D02*
Y232798D01*
X-180002Y140000D02*
Y230802D01*
X59998Y140000D02*
Y350002D01*
X939998Y140000D02*
Y350002D01*
X1179998Y140000D02*
Y350002D01*
D29*
X-807724Y1607724D02*
X-800000Y1600000D01*
X-807724Y1607724D02*
Y1697722D01*
X-810000Y1699999D02*
X-807724Y1697722D01*
X-1002278D02*
X-992277D01*
X-990000Y1699999D01*
X-1100000Y1600000D02*
X-1002278Y1697722D01*
D30*
X-1425000Y400000D02*
D03*
Y500000D02*
D03*
Y600000D02*
D03*
Y700000D02*
D03*
Y800000D02*
D03*
Y900000D02*
D03*
Y1100000D02*
D03*
Y1200000D02*
D03*
Y1300000D02*
D03*
Y1000000D02*
D03*
Y1400000D02*
D03*
Y1500000D02*
D03*
Y1600000D02*
D03*
Y1700000D02*
D03*
Y1900000D02*
D03*
Y2000000D02*
D03*
Y2100000D02*
D03*
Y1800000D02*
D03*
Y2200000D02*
D03*
Y3700000D02*
D03*
Y4200000D02*
D03*
Y4300000D02*
D03*
Y4400000D02*
D03*
Y4100000D02*
D03*
Y4000000D02*
D03*
Y3900000D02*
D03*
Y3800000D02*
D03*
Y4500000D02*
D03*
X1425000Y400000D02*
D03*
Y600000D02*
D03*
Y500000D02*
D03*
Y1500000D02*
D03*
Y1700000D02*
D03*
Y1600000D02*
D03*
Y1100000D02*
D03*
Y1400000D02*
D03*
Y1300000D02*
D03*
Y1200000D02*
D03*
Y700000D02*
D03*
Y1000000D02*
D03*
Y900000D02*
D03*
Y800000D02*
D03*
Y2600000D02*
D03*
Y2800000D02*
D03*
Y2700000D02*
D03*
Y2200000D02*
D03*
Y2500000D02*
D03*
Y2400000D02*
D03*
Y2300000D02*
D03*
Y1800000D02*
D03*
Y2100000D02*
D03*
Y2000000D02*
D03*
Y1900000D02*
D03*
Y3000000D02*
D03*
Y3100000D02*
D03*
Y3200000D02*
D03*
Y2900000D02*
D03*
Y3400000D02*
D03*
Y3500000D02*
D03*
Y3600000D02*
D03*
Y3300000D02*
D03*
Y3800000D02*
D03*
Y3900000D02*
D03*
Y4000000D02*
D03*
Y3700000D02*
D03*
Y4100000D02*
D03*
Y4400000D02*
D03*
Y4300000D02*
D03*
Y4200000D02*
D03*
Y4500000D02*
D03*
D31*
X-1210001Y4805000D02*
D03*
X1209999D02*
D03*
D32*
X1169997Y1880000D02*
D03*
X-625000Y1877500D02*
D03*
X200000Y1427500D02*
D03*
X100000Y1342500D02*
D03*
X821820Y1396820D02*
D03*
X907000Y1627601D02*
D03*
X137500Y1595000D02*
D03*
X560000D02*
D03*
X1147500D02*
D03*
X-651783Y1469283D02*
D03*
X-200000Y1392500D02*
D03*
X-809999Y3139999D02*
D03*
X217500Y4887500D02*
D03*
X280000Y4875000D02*
D03*
X345000Y4837500D02*
D03*
X395000Y4787500D02*
D03*
X430000Y4727500D02*
D03*
X250000Y4660000D02*
D03*
X450000Y4660000D02*
D03*
Y4590000D02*
D03*
Y4520000D02*
D03*
X270000Y4590000D02*
D03*
Y4520000D02*
D03*
Y4450000D02*
D03*
X450000D02*
D03*
X-170000Y4900000D02*
D03*
X-100000D02*
D03*
X-29999D02*
D03*
X180001Y4700000D02*
D03*
X110001D02*
D03*
X40001D02*
D03*
X-29999D02*
D03*
X-100000D02*
D03*
X-170000D02*
D03*
X-240000D02*
D03*
X-310000D02*
D03*
X-380000D02*
D03*
X-450000D02*
D03*
Y4900000D02*
D03*
X-950000Y800000D02*
D03*
X-1050000Y900000D02*
D03*
Y800000D02*
D03*
X-1000000Y850000D02*
D03*
X-950000Y900000D02*
D03*
X269999Y1880001D02*
D03*
X-810000Y3517500D02*
D03*
X-995000Y2777500D02*
D03*
X-1170000Y1062500D02*
D03*
X-995000Y3740000D02*
D03*
X-635000Y4032500D02*
D03*
X205000Y3600000D02*
D03*
X-782500Y3320000D02*
D03*
X-245000Y3435000D02*
D03*
X-252500Y2962500D02*
D03*
X567500Y2462500D02*
D03*
X-272500Y2235000D02*
D03*
X87500Y2060000D02*
D03*
X275000Y2082500D02*
D03*
X985000Y1792500D02*
D03*
X987500Y2060000D02*
D03*
X625000Y1717500D02*
D03*
X1025000Y355000D02*
D03*
X-287500Y450000D02*
D03*
X-547500Y392500D02*
D03*
X-807500Y377500D02*
D03*
X-782500Y710000D02*
D03*
X-702500Y1077500D02*
D03*
X-150000Y1335000D02*
D03*
X-147500Y987500D02*
D03*
X-117500Y690000D02*
D03*
X427500Y615000D02*
D03*
X1120000Y1045000D02*
D03*
X712500Y977500D02*
D03*
X70000Y915000D02*
D03*
X67500Y1147500D02*
D03*
X760000Y3692500D02*
D03*
X820000D02*
D03*
X880000D02*
D03*
X940000D02*
D03*
X200000Y1276250D02*
D03*
X-1000000Y3150000D02*
D03*
X-100000Y2749500D02*
D03*
Y2876500D02*
D03*
X-200000Y1147500D02*
D03*
Y1212500D02*
D03*
Y1082500D02*
D03*
X614000Y908600D02*
D03*
X814000D02*
D03*
X-636000Y793000D02*
D03*
X557000Y1326250D02*
D03*
X-557000Y757500D02*
D03*
X-900002Y300000D02*
D03*
X-660001D02*
D03*
X-740002D02*
D03*
X-270000Y1879999D02*
D03*
X-1169999Y2240000D02*
D03*
X200000Y1082500D02*
D03*
Y1212500D02*
D03*
Y1147500D02*
D03*
Y1017500D02*
D03*
Y822500D02*
D03*
X-200000Y1277500D02*
D03*
Y887500D02*
D03*
X1093000Y663600D02*
D03*
Y1163600D02*
D03*
X1325000Y1327500D02*
D03*
Y827500D02*
D03*
X812500Y1243600D02*
D03*
X-1150000Y1300000D02*
D03*
X-1050000D02*
D03*
X-950000D02*
D03*
X-980002Y400000D02*
D03*
X-1060001D02*
D03*
X-1140002D02*
D03*
X-1139001Y990000D02*
D03*
X-780000Y857000D02*
D03*
X-100000Y3257500D02*
D03*
Y3003500D02*
D03*
X-1000000Y3350000D02*
D03*
X269999Y3860000D02*
D03*
X809999Y3319998D02*
D03*
Y2779998D02*
D03*
X990000Y4130000D02*
D03*
Y4190000D02*
D03*
Y4250000D02*
D03*
Y4310000D02*
D03*
X720000Y4190000D02*
D03*
Y4250000D02*
D03*
X-449999Y1880000D02*
D03*
X-810000Y1880001D02*
D03*
X630000Y2060000D02*
D03*
X449999Y1880001D02*
D03*
X-60001Y300000D02*
D03*
X-140001D02*
D03*
X459998D02*
D03*
X379998D02*
D03*
X299998D02*
D03*
X219998D02*
D03*
X139998D02*
D03*
X-1170000Y3679998D02*
D03*
Y3499998D02*
D03*
X-990000Y1699999D02*
D03*
X-810000D02*
D03*
X1169997Y2060000D02*
D03*
Y2240000D02*
D03*
Y2419999D02*
D03*
X-630002Y2060000D02*
D03*
X-1170000Y3859998D02*
D03*
X629999Y1880001D02*
D03*
X809999D02*
D03*
D34*
X1150000Y3947500D02*
D03*
Y3652500D02*
D03*
X550000Y3947500D02*
D03*
Y3652500D02*
D03*
D35*
X950000Y3813000D02*
D03*
Y3970500D02*
D03*
X750000Y3813000D02*
D03*
Y3970500D02*
D03*
D36*
X-1100000Y1600000D02*
D03*
X-800000D02*
D03*
X-200000Y2000000D02*
D03*
X1100000Y500000D02*
D03*
X850000D02*
D03*
X-800000Y2000000D02*
D03*
X-500000D02*
D03*
X600000Y1200000D02*
D03*
Y500000D02*
D03*
X350000D02*
D03*
X100000D02*
D03*
X-1100000Y2000000D02*
D03*
X1000000Y3300000D02*
D03*
X100000Y3900000D02*
D03*
X-800000Y1300000D02*
D03*
X-1000000Y600000D02*
D03*
X-500000D02*
D03*
Y900000D02*
D03*
Y1200000D02*
D03*
X1000000Y2400000D02*
D03*
Y2800000D02*
D03*
X400000Y2000000D02*
D03*
D37*
X-199000Y3608500D02*
D03*
X-399000D02*
D03*
X-199000Y2354500D02*
D03*
X-399000D02*
D03*
D38*
X-1355000Y3575500D02*
D03*
Y2389500D02*
D03*
D39*
X18000Y3384500D02*
D03*
Y3257500D02*
D03*
Y3130500D02*
D03*
Y3003500D02*
D03*
Y2876500D02*
D03*
Y2749500D02*
D03*
D40*
X-999996Y850000D02*
D03*
D41*
X-1078313Y400002D02*
D03*
%TF.MD5,1647247b31119d76e3d0831f5e3f0376*%
M02*
