%TF.GenerationSoftware,Altium Limited,Altium Designer,24.7.2 (38)*%
G04 Layer_Color=16711935*
%FSLAX45Y45*%
%MOMM*%
%TF.SameCoordinates,C1245C4B-2411-4F97-9DC6-EC8D337214EE*%
%TF.FilePolarity,Negative*%
%TF.FileFunction,Soldermask,Bot*%
%TF.Part,Single*%
G01*
G75*
%TA.AperFunction,NonConductor*%
%ADD47R,1.00000X42.00000*%
%ADD48R,26.20000X2.92500*%
%TA.AperFunction,SMDPad,CuDef*%
%ADD52R,0.49000X0.54000*%
%ADD53R,0.54000X0.49000*%
%TA.AperFunction,ConnectorPad*%
%ADD61R,0.62000X2.32000*%
%TA.AperFunction,ViaPad*%
%ADD63C,0.77000*%
%ADD64R,5.32000X5.32000*%
%TA.AperFunction,NonConductor*%
%ADD65R,1.68000X1.68000*%
%ADD66R,1.00000X8.85001*%
%ADD67R,1.00000X19.65000*%
%TA.AperFunction,SMDPad,CuDef*%
%ADD68R,1.84000X1.18000*%
%ADD69R,1.02000X0.72000*%
%TA.AperFunction,TestPad*%
%ADD70C,1.52000*%
%TA.AperFunction,ConnectorPad*%
%ADD71R,1.40000X0.55000*%
%ADD72R,1.80000X1.40000*%
%ADD73R,1.25000X0.75000*%
D47*
X1425000Y2445000D02*
D03*
D48*
X-2Y121250D02*
D03*
D52*
X293000Y3384998D02*
D03*
X207000D02*
D03*
Y3305186D02*
D03*
X293000D02*
D03*
Y3226374D02*
D03*
X207000D02*
D03*
X293000Y3147062D02*
D03*
X207000D02*
D03*
Y3067249D02*
D03*
X293000D02*
D03*
Y2988437D02*
D03*
X207000D02*
D03*
Y2908625D02*
D03*
X293000D02*
D03*
Y2829812D02*
D03*
X207000D02*
D03*
Y2750000D02*
D03*
X293000D02*
D03*
D53*
X1215000Y4143000D02*
D03*
Y4057000D02*
D03*
X615000Y4143000D02*
D03*
Y4057000D02*
D03*
D61*
X1179998Y140000D02*
D03*
X1099998D02*
D03*
X1019998D02*
D03*
X939998D02*
D03*
X859998D02*
D03*
X779998D02*
D03*
X699998D02*
D03*
X619999D02*
D03*
X539998D02*
D03*
X459998D02*
D03*
X379998D02*
D03*
X299998D02*
D03*
X219998D02*
D03*
X139998D02*
D03*
X59998D02*
D03*
X-20002D02*
D03*
X-100002D02*
D03*
X-180002D02*
D03*
X-580002D02*
D03*
X-660001D02*
D03*
X-740002D02*
D03*
X-820002D02*
D03*
X-900002D02*
D03*
X-980002D02*
D03*
X-1060001D02*
D03*
X-1140002D02*
D03*
D63*
X-1425000Y400000D02*
D03*
Y500000D02*
D03*
Y600000D02*
D03*
Y700000D02*
D03*
Y800000D02*
D03*
Y900000D02*
D03*
Y1100000D02*
D03*
Y1200000D02*
D03*
Y1300000D02*
D03*
Y1000000D02*
D03*
Y1400000D02*
D03*
Y1500000D02*
D03*
Y1600000D02*
D03*
Y1700000D02*
D03*
Y1900000D02*
D03*
Y2000000D02*
D03*
Y2100000D02*
D03*
Y1800000D02*
D03*
Y2200000D02*
D03*
Y3700000D02*
D03*
Y4200000D02*
D03*
Y4300000D02*
D03*
Y4400000D02*
D03*
Y4100000D02*
D03*
Y4000000D02*
D03*
Y3900000D02*
D03*
Y3800000D02*
D03*
Y4500000D02*
D03*
X1425000Y400000D02*
D03*
Y600000D02*
D03*
Y500000D02*
D03*
Y1500000D02*
D03*
Y1700000D02*
D03*
Y1600000D02*
D03*
Y1100000D02*
D03*
Y1400000D02*
D03*
Y1300000D02*
D03*
Y1200000D02*
D03*
Y700000D02*
D03*
Y1000000D02*
D03*
Y900000D02*
D03*
Y800000D02*
D03*
Y2600000D02*
D03*
Y2800000D02*
D03*
Y2700000D02*
D03*
Y2200000D02*
D03*
Y2500000D02*
D03*
Y2400000D02*
D03*
Y2300000D02*
D03*
Y1800000D02*
D03*
Y2100000D02*
D03*
Y2000000D02*
D03*
Y1900000D02*
D03*
Y3000000D02*
D03*
Y3100000D02*
D03*
Y3200000D02*
D03*
Y2900000D02*
D03*
Y3400000D02*
D03*
Y3500000D02*
D03*
Y3600000D02*
D03*
Y3300000D02*
D03*
Y3800000D02*
D03*
Y3900000D02*
D03*
Y4000000D02*
D03*
Y3700000D02*
D03*
Y4100000D02*
D03*
Y4400000D02*
D03*
Y4300000D02*
D03*
Y4200000D02*
D03*
Y4500000D02*
D03*
D64*
X-1210001Y4805000D02*
D03*
X1209999D02*
D03*
D65*
X-999996Y850000D02*
D03*
D66*
X-1424999Y4102500D02*
D03*
D67*
X-1425000Y1327500D02*
D03*
D68*
X1150000Y3947500D02*
D03*
Y3652500D02*
D03*
X550000Y3947500D02*
D03*
Y3652500D02*
D03*
D69*
X950000Y3813000D02*
D03*
Y3970500D02*
D03*
X750000Y3813000D02*
D03*
Y3970500D02*
D03*
D70*
X-1100000Y1600000D02*
D03*
X-800000D02*
D03*
X-200000Y2000000D02*
D03*
X1100000Y500000D02*
D03*
X850000D02*
D03*
X-800000Y2000000D02*
D03*
X-500000D02*
D03*
X600000Y1200000D02*
D03*
Y500000D02*
D03*
X350000D02*
D03*
X100000D02*
D03*
X-1100000Y2000000D02*
D03*
X1000000Y3300000D02*
D03*
X100000Y3900000D02*
D03*
X-800000Y1300000D02*
D03*
X-1000000Y600000D02*
D03*
X-500000D02*
D03*
Y900000D02*
D03*
Y1200000D02*
D03*
X1000000Y2400000D02*
D03*
Y2800000D02*
D03*
X400000Y2000000D02*
D03*
D71*
X-199000Y3608500D02*
D03*
X-399000D02*
D03*
X-199000Y2354500D02*
D03*
X-399000D02*
D03*
D72*
X-1355000Y3575500D02*
D03*
Y2389500D02*
D03*
D73*
X18000Y3384500D02*
D03*
Y3257500D02*
D03*
Y3130500D02*
D03*
Y3003500D02*
D03*
Y2876500D02*
D03*
Y2749500D02*
D03*
%TF.MD5,1bdea8d3b1bbe7c213cbadb9f783dfc3*%
M02*
