%TF.GenerationSoftware,Altium Limited,Altium Designer,24.7.2 (38)*%
G04 Layer_Physical_Order=3*
G04 Layer_Color=16440176*
%FSLAX45Y45*%
%MOMM*%
%TF.SameCoordinates,C1245C4B-2411-4F97-9DC6-EC8D337214EE*%
%TF.FilePolarity,Positive*%
%TF.FileFunction,Copper,L3,Inr,Signal*%
%TF.Part,Single*%
G01*
G75*
%TA.AperFunction,Conductor*%
%ADD25C,0.20000*%
%TA.AperFunction,ViaPad*%
%ADD30C,0.75000*%
%ADD31R,5.30000X5.30000*%
%ADD32C,0.50000*%
G36*
X1474510Y345489D02*
X1364999D01*
X1364376Y345365D01*
X1363748Y345458D01*
X1355906Y345072D01*
X1354074Y344613D01*
X1352184D01*
X1336803Y341554D01*
X1334483Y340593D01*
X1332021Y340103D01*
X1317533Y334102D01*
X1315446Y332707D01*
X1313126Y331747D01*
X1300086Y323034D01*
X1298311Y321258D01*
X1296224Y319864D01*
X1285135Y308775D01*
X1283740Y306688D01*
X1281964Y304912D01*
X1273252Y291872D01*
X1272291Y289553D01*
X1270896Y287466D01*
X1264895Y272977D01*
X1264405Y270515D01*
X1263445Y268196D01*
X1260385Y252814D01*
Y250924D01*
X1259926Y249091D01*
X1259541Y241250D01*
X1259634Y240623D01*
X1259510Y240000D01*
Y25488D01*
X-284513D01*
X-284513Y325000D01*
X-284678Y325829D01*
X-284568Y326668D01*
X-285209Y336457D01*
X-285859Y338881D01*
X-286023Y341386D01*
X-291091Y360298D01*
X-292566Y363290D01*
X-293637Y366446D01*
X-303426Y383401D01*
X-305624Y385908D01*
X-307477Y388680D01*
X-321321Y402524D01*
X-324093Y404377D01*
X-326601Y406575D01*
X-343556Y416365D01*
X-346713Y417436D01*
X-349704Y418911D01*
X-368615Y423978D01*
X-371941Y424196D01*
X-375212Y424847D01*
X-394791D01*
X-398061Y424196D01*
X-401388Y423978D01*
X-420300Y418911D01*
X-423291Y417436D01*
X-426447Y416364D01*
X-443403Y406575D01*
X-445909Y404377D01*
X-448682Y402524D01*
X-462526Y388680D01*
X-464378Y385908D01*
X-466577Y383401D01*
X-476366Y366446D01*
X-477438Y363289D01*
X-478913Y360298D01*
X-483980Y341387D01*
X-484144Y338882D01*
X-484794Y336456D01*
X-485435Y326667D01*
X-485325Y325829D01*
X-485490Y325000D01*
Y25488D01*
X-1259513D01*
Y240000D01*
X-1259637Y240623D01*
X-1259544Y241251D01*
X-1259929Y249092D01*
X-1260388Y250924D01*
Y252814D01*
X-1263448Y268195D01*
X-1264409Y270515D01*
X-1264898Y272977D01*
X-1270900Y287466D01*
X-1272294Y289552D01*
X-1273255Y291872D01*
X-1281968Y304912D01*
X-1283743Y306688D01*
X-1285138Y308775D01*
X-1296227Y319864D01*
X-1298314Y321258D01*
X-1300090Y323034D01*
X-1313129Y331747D01*
X-1315449Y332707D01*
X-1317536Y334102D01*
X-1332025Y340103D01*
X-1334487Y340593D01*
X-1336806Y341554D01*
X-1352188Y344613D01*
X-1354077D01*
X-1355909Y345072D01*
X-1363750Y345458D01*
X-1364379Y345365D01*
X-1365002Y345489D01*
X-1474513D01*
Y5069512D01*
X1474510D01*
Y345489D01*
D02*
G37*
%LPC*%
G36*
X990000Y4330392D02*
X982196Y4328839D01*
X975581Y4324419D01*
X971160Y4317803D01*
X969608Y4310000D01*
X971160Y4302196D01*
X975581Y4295580D01*
X982196Y4291160D01*
X990000Y4289608D01*
X997804Y4291160D01*
X1004419Y4295580D01*
X1008840Y4302196D01*
X1010392Y4310000D01*
X1008840Y4317803D01*
X1004419Y4324419D01*
X997804Y4328839D01*
X990000Y4330392D01*
D02*
G37*
G36*
X178400Y4855542D02*
Y4855466D01*
X-550000D01*
X-571226Y4851244D01*
X-589220Y4839220D01*
X-601244Y4821226D01*
X-605466Y4800000D01*
X-601244Y4778774D01*
X-589220Y4760780D01*
X-571226Y4748756D01*
X-550000Y4744534D01*
X178400D01*
X181069Y4745065D01*
X211275Y4741089D01*
X241909Y4728400D01*
X268215Y4708214D01*
X288400Y4681908D01*
X301089Y4651274D01*
X305065Y4621073D01*
X304533Y4618400D01*
Y4309998D01*
X308755Y4288773D01*
X320779Y4270778D01*
X338773Y4258755D01*
X359999Y4254533D01*
X381225Y4258755D01*
X399219Y4270778D01*
X411243Y4288773D01*
X415465Y4309998D01*
Y4618394D01*
X415466Y4618400D01*
X415542D01*
X410986Y4664664D01*
X397491Y4709150D01*
X375577Y4750149D01*
X346085Y4786085D01*
X310149Y4815576D01*
X269151Y4837491D01*
X224664Y4850985D01*
X178400Y4855542D01*
D02*
G37*
G36*
X990000Y4270392D02*
X982196Y4268840D01*
X975581Y4264419D01*
X971160Y4257804D01*
X969608Y4250000D01*
X971160Y4242196D01*
X975581Y4235581D01*
X982196Y4231160D01*
X990000Y4229608D01*
X997804Y4231160D01*
X1004419Y4235581D01*
X1008840Y4242196D01*
X1010392Y4250000D01*
X1008840Y4257804D01*
X1004419Y4264419D01*
X997804Y4268840D01*
X990000Y4270392D01*
D02*
G37*
G36*
X720000D02*
X712196Y4268840D01*
X705581Y4264419D01*
X701160Y4257804D01*
X699608Y4250000D01*
X701160Y4242196D01*
X705581Y4235581D01*
X712196Y4231160D01*
X720000Y4229608D01*
X727804Y4231160D01*
X734419Y4235581D01*
X738840Y4242196D01*
X740392Y4250000D01*
X738840Y4257804D01*
X734419Y4264419D01*
X727804Y4268840D01*
X720000Y4270392D01*
D02*
G37*
G36*
X990000Y4210392D02*
X982196Y4208840D01*
X975581Y4204419D01*
X971160Y4197804D01*
X969608Y4190000D01*
X971160Y4182196D01*
X975581Y4175581D01*
X982196Y4171160D01*
X990000Y4169608D01*
X997804Y4171160D01*
X1004419Y4175581D01*
X1008840Y4182196D01*
X1010392Y4190000D01*
X1008840Y4197804D01*
X1004419Y4204419D01*
X997804Y4208840D01*
X990000Y4210392D01*
D02*
G37*
G36*
X720000D02*
X712196Y4208840D01*
X705581Y4204419D01*
X701160Y4197804D01*
X699608Y4190000D01*
X701160Y4182196D01*
X705581Y4175581D01*
X712196Y4171160D01*
X720000Y4169608D01*
X727804Y4171160D01*
X734419Y4175581D01*
X738840Y4182196D01*
X740392Y4190000D01*
X738840Y4197804D01*
X734419Y4204419D01*
X727804Y4208840D01*
X720000Y4210392D01*
D02*
G37*
G36*
X990000Y4150392D02*
X982196Y4148840D01*
X975581Y4144419D01*
X971160Y4137804D01*
X969608Y4130000D01*
X971160Y4122196D01*
X975581Y4115581D01*
X982196Y4111160D01*
X990000Y4109608D01*
X997804Y4111160D01*
X1004419Y4115581D01*
X1008840Y4122196D01*
X1010392Y4130000D01*
X1008840Y4137804D01*
X1004419Y4144419D01*
X997804Y4148840D01*
X990000Y4150392D01*
D02*
G37*
G36*
X269999Y3880392D02*
X262195Y3878840D01*
X255580Y3874419D01*
X251159Y3867804D01*
X249607Y3860000D01*
X251159Y3852196D01*
X255580Y3845581D01*
X262195Y3841160D01*
X269999Y3839608D01*
X277803Y3841160D01*
X284418Y3845581D01*
X288839Y3852196D01*
X290391Y3860000D01*
X288839Y3867804D01*
X284418Y3874419D01*
X277803Y3878840D01*
X269999Y3880392D01*
D02*
G37*
G36*
X940000Y3712892D02*
X932196Y3711340D01*
X925581Y3706919D01*
X921160Y3700304D01*
X919608Y3692500D01*
X921160Y3684696D01*
X925581Y3678081D01*
X932196Y3673660D01*
X940000Y3672108D01*
X947804Y3673660D01*
X954419Y3678081D01*
X958840Y3684696D01*
X960392Y3692500D01*
X958840Y3700304D01*
X954419Y3706919D01*
X947804Y3711340D01*
X940000Y3712892D01*
D02*
G37*
G36*
X880000D02*
X872196Y3711340D01*
X865581Y3706919D01*
X861160Y3700304D01*
X859608Y3692500D01*
X861160Y3684696D01*
X865581Y3678081D01*
X872196Y3673660D01*
X880000Y3672108D01*
X887804Y3673660D01*
X894419Y3678081D01*
X898840Y3684696D01*
X900392Y3692500D01*
X898840Y3700304D01*
X894419Y3706919D01*
X887804Y3711340D01*
X880000Y3712892D01*
D02*
G37*
G36*
X820000D02*
X812196Y3711340D01*
X805581Y3706919D01*
X801160Y3700304D01*
X799608Y3692500D01*
X801160Y3684696D01*
X805581Y3678081D01*
X812196Y3673660D01*
X820000Y3672108D01*
X827804Y3673660D01*
X834419Y3678081D01*
X838840Y3684696D01*
X840392Y3692500D01*
X838840Y3700304D01*
X834419Y3706919D01*
X827804Y3711340D01*
X820000Y3712892D01*
D02*
G37*
G36*
X760000D02*
X752197Y3711340D01*
X745581Y3706919D01*
X741161Y3700304D01*
X739608Y3692500D01*
X741161Y3684696D01*
X745581Y3678081D01*
X752197Y3673660D01*
X760000Y3672108D01*
X767804Y3673660D01*
X774420Y3678081D01*
X778840Y3684696D01*
X780392Y3692500D01*
X778840Y3700304D01*
X774420Y3706919D01*
X767804Y3711340D01*
X760000Y3712892D01*
D02*
G37*
G36*
X-1170000Y3895683D02*
X-1183656Y3892967D01*
X-1195234Y3885231D01*
X-1202969Y3873654D01*
X-1205686Y3859998D01*
X-1202969Y3846341D01*
X-1195234Y3834764D01*
X-1183656Y3827028D01*
X-1170000Y3824312D01*
X-1156344Y3827028D01*
X-1144766Y3834764D01*
X-1141531Y3839606D01*
X-955944D01*
X-890392Y3774053D01*
Y3465824D01*
X-902125Y3460964D01*
X-955578Y3514417D01*
X-962194Y3518838D01*
X-969998Y3520390D01*
X-1141531D01*
X-1144766Y3525231D01*
X-1156344Y3532967D01*
X-1170000Y3535684D01*
X-1183656Y3532967D01*
X-1195234Y3525231D01*
X-1202969Y3513654D01*
X-1205686Y3499998D01*
X-1202969Y3486342D01*
X-1195234Y3474764D01*
X-1183656Y3467029D01*
X-1170000Y3464312D01*
X-1156344Y3467029D01*
X-1144766Y3474764D01*
X-1141531Y3479606D01*
X-978444D01*
X-920392Y3421554D01*
Y3350824D01*
X-932125Y3345964D01*
X-949190Y3363029D01*
X-955806Y3367449D01*
X-963609Y3369001D01*
X-970602D01*
X-974766Y3375234D01*
X-986344Y3382969D01*
X-1000000Y3385686D01*
X-1013656Y3382969D01*
X-1025234Y3375234D01*
X-1032969Y3363656D01*
X-1035686Y3350000D01*
X-1032969Y3336344D01*
X-1025234Y3324766D01*
X-1013656Y3317031D01*
X-1000000Y3314314D01*
X-986344Y3317031D01*
X-974767Y3324766D01*
X-963142Y3319304D01*
X-950392Y3306553D01*
Y3158265D01*
X-963092Y3152029D01*
X-965013Y3153514D01*
X-967031Y3163656D01*
X-974766Y3175234D01*
X-986344Y3182969D01*
X-1000000Y3185686D01*
X-1013656Y3182969D01*
X-1025234Y3175234D01*
X-1032969Y3163656D01*
X-1035686Y3150000D01*
X-1032969Y3136344D01*
X-1025234Y3124766D01*
X-1013656Y3117031D01*
X-1000000Y3114314D01*
X-994289Y3115450D01*
X-980392Y3101554D01*
Y2870148D01*
X-978840Y2862344D01*
X-974419Y2855729D01*
X-861771Y2743081D01*
X-855156Y2738660D01*
X-847352Y2737108D01*
X-460799D01*
X-386772Y2663082D01*
X-386771Y2663081D01*
X-380156Y2658660D01*
X-372352Y2657108D01*
X-372351Y2657108D01*
X-105000D01*
X-97196Y2658660D01*
X-90580Y2663081D01*
X-35581Y2718080D01*
X-35581Y2718081D01*
X-31160Y2724696D01*
X-29608Y2732500D01*
X-29608Y2732501D01*
Y2907500D01*
X-31160Y2915304D01*
X-35581Y2921919D01*
X-35581Y2921920D01*
X-77207Y2963546D01*
X-76268Y2977264D01*
X-74766Y2978267D01*
X-67031Y2989844D01*
X-64314Y3003500D01*
X-67031Y3017157D01*
X-74766Y3028734D01*
X-86344Y3036469D01*
X-100000Y3039186D01*
X-113656Y3036469D01*
X-121908Y3030956D01*
X-132938Y3035183D01*
X-134608Y3036582D01*
Y3194054D01*
X-105711Y3222951D01*
X-100000Y3221814D01*
X-86344Y3224531D01*
X-74766Y3232267D01*
X-67031Y3243844D01*
X-64314Y3257500D01*
X-67031Y3271157D01*
X-74766Y3282734D01*
X-86344Y3290469D01*
X-100000Y3293186D01*
X-113656Y3290469D01*
X-125234Y3282734D01*
X-132969Y3271157D01*
X-135686Y3257500D01*
X-134550Y3251789D01*
X-169419Y3216920D01*
X-173840Y3210304D01*
X-175392Y3202500D01*
Y2872373D01*
X-259873Y2787892D01*
X-326627D01*
X-400654Y2861919D01*
X-407270Y2866340D01*
X-415074Y2867892D01*
X-801627D01*
X-849608Y2915873D01*
Y3113420D01*
X-836908Y3117273D01*
X-835233Y3114766D01*
X-823655Y3107030D01*
X-809999Y3104314D01*
X-796343Y3107030D01*
X-784766Y3114766D01*
X-777030Y3126343D01*
X-774313Y3139999D01*
X-777030Y3153656D01*
X-784766Y3165233D01*
X-789607Y3168468D01*
Y3204999D01*
X-791159Y3212803D01*
X-795580Y3219418D01*
X-795581Y3219419D01*
X-819608Y3243447D01*
Y3391553D01*
X-724053Y3487108D01*
X1176553D01*
X1287108Y3376553D01*
Y2510824D01*
X1275375Y2505964D01*
X1254419Y2526919D01*
X1247804Y2531340D01*
X1240000Y2532892D01*
X692500D01*
X684696Y2531340D01*
X678080Y2526919D01*
X678080Y2526918D01*
X615581Y2464420D01*
X611160Y2457804D01*
X609608Y2450000D01*
Y2088469D01*
X604766Y2085234D01*
X597031Y2073656D01*
X594314Y2060000D01*
X597031Y2046344D01*
X604766Y2034766D01*
X616344Y2027031D01*
X630000Y2024314D01*
X643656Y2027031D01*
X655234Y2034766D01*
X662969Y2046344D01*
X665686Y2060000D01*
X662969Y2073656D01*
X655234Y2085234D01*
X650392Y2088469D01*
Y2441553D01*
X700946Y2492108D01*
X1231553D01*
X1257108Y2466553D01*
Y2018321D01*
X1245375Y2013461D01*
X1204547Y2054289D01*
X1205683Y2060000D01*
X1202967Y2073656D01*
X1195231Y2085233D01*
X1183654Y2092969D01*
X1169997Y2095685D01*
X1157700Y2093239D01*
X1153934Y2094086D01*
X1145000Y2098862D01*
Y2186164D01*
X1164286Y2205450D01*
X1169997Y2204314D01*
X1183654Y2207030D01*
X1195231Y2214766D01*
X1202967Y2226343D01*
X1205683Y2240000D01*
X1202967Y2253656D01*
X1195231Y2265233D01*
X1183654Y2272969D01*
X1169997Y2275685D01*
X1156341Y2272969D01*
X1144764Y2265233D01*
X1137028Y2253656D01*
X1134312Y2240000D01*
X1135448Y2234289D01*
X1126733Y2225574D01*
X1115000Y2230434D01*
Y2336163D01*
X1164286Y2385450D01*
X1169997Y2384314D01*
X1183654Y2387030D01*
X1195231Y2394766D01*
X1202967Y2406343D01*
X1205683Y2419999D01*
X1202967Y2433656D01*
X1195231Y2445233D01*
X1183654Y2452969D01*
X1169997Y2455685D01*
X1156341Y2452969D01*
X1144764Y2445233D01*
X1137028Y2433656D01*
X1134312Y2419999D01*
X1135448Y2414289D01*
X1080189Y2359030D01*
X1075768Y2352414D01*
X1074216Y2344610D01*
Y2040555D01*
X1009053Y1975392D01*
X257500D01*
X249696Y1973840D01*
X243081Y1969419D01*
X243080Y1969418D01*
X203081Y1929419D01*
X198660Y1922804D01*
X197108Y1915000D01*
Y1860000D01*
X198660Y1852197D01*
X203081Y1845581D01*
X267108Y1781554D01*
Y1248373D01*
X251627Y1232892D01*
X228469D01*
X225233Y1237734D01*
X224797Y1238025D01*
Y1250725D01*
X225233Y1251017D01*
X232969Y1262594D01*
X235686Y1276250D01*
X232969Y1289906D01*
X225233Y1301484D01*
X213656Y1309219D01*
X200000Y1311936D01*
X186344Y1309219D01*
X174766Y1301484D01*
X172366Y1297892D01*
X35947D01*
X-2108Y1335947D01*
Y1415515D01*
X9625Y1420375D01*
X16920Y1413080D01*
X23535Y1408660D01*
X31339Y1407108D01*
X31340Y1407108D01*
X171531D01*
X174766Y1402266D01*
X186344Y1394531D01*
X200000Y1391814D01*
X213656Y1394531D01*
X225233Y1402266D01*
X232969Y1413844D01*
X235686Y1427500D01*
X232969Y1441156D01*
X225233Y1452733D01*
X213656Y1460469D01*
X200000Y1463186D01*
X186344Y1460469D01*
X174766Y1452733D01*
X171531Y1447892D01*
X39786D01*
X-91150Y1578827D01*
X-97766Y1583248D01*
X-105569Y1584800D01*
X-598461D01*
X-677108Y1663447D01*
Y1984054D01*
X-635712Y2025450D01*
X-630002Y2024314D01*
X-616345Y2027030D01*
X-604768Y2034766D01*
X-597032Y2046343D01*
X-594316Y2060000D01*
X-597032Y2073656D01*
X-604768Y2085233D01*
X-616345Y2092969D01*
X-630002Y2095685D01*
X-643658Y2092969D01*
X-655235Y2085233D01*
X-662971Y2073656D01*
X-665687Y2060000D01*
X-664551Y2054289D01*
X-711919Y2006921D01*
X-716340Y2000305D01*
X-717892Y1992501D01*
Y1655000D01*
X-716340Y1647197D01*
X-711919Y1640581D01*
X-621328Y1549990D01*
X-621327Y1549989D01*
X-614711Y1545568D01*
X-606908Y1544016D01*
X-344093D01*
X-339233Y1532283D01*
X-429811Y1441705D01*
X-434232Y1435089D01*
X-435784Y1427285D01*
Y530555D01*
X-483447Y482892D01*
X-597500D01*
X-597501Y482892D01*
X-605305Y481340D01*
X-611921Y476919D01*
X-611921Y476919D01*
X-674421Y414419D01*
X-678841Y407804D01*
X-680393Y400000D01*
Y328469D01*
X-685235Y325234D01*
X-692971Y313656D01*
X-693527Y310859D01*
X-706476D01*
X-707032Y313656D01*
X-714768Y325234D01*
X-719610Y328469D01*
Y479052D01*
X-621581Y577080D01*
X-621580Y577081D01*
X-617160Y583697D01*
X-615608Y591500D01*
Y764531D01*
X-610766Y767766D01*
X-603031Y779344D01*
X-600314Y793000D01*
X-603031Y806656D01*
X-610766Y818234D01*
X-622343Y825969D01*
X-636000Y828686D01*
X-649656Y825969D01*
X-661233Y818234D01*
X-668969Y806656D01*
X-671685Y793000D01*
X-668969Y779344D01*
X-661233Y767766D01*
X-656392Y764531D01*
Y599947D01*
X-754421Y501918D01*
X-758841Y495302D01*
X-760393Y487498D01*
Y328469D01*
X-765235Y325234D01*
X-772971Y313656D01*
X-775687Y300000D01*
X-772971Y286344D01*
X-765235Y274766D01*
X-753658Y267031D01*
X-740002Y264314D01*
X-726345Y267031D01*
X-714768Y274766D01*
X-707032Y286344D01*
X-706476Y289141D01*
X-693527D01*
X-692971Y286344D01*
X-685235Y274766D01*
X-673658Y267031D01*
X-660001Y264314D01*
X-646345Y267031D01*
X-634768Y274766D01*
X-627032Y286344D01*
X-624316Y300000D01*
X-627032Y313656D01*
X-634768Y325234D01*
X-639610Y328469D01*
Y391553D01*
X-589055Y442108D01*
X-475000D01*
X-467196Y443660D01*
X-460581Y448081D01*
X-400973Y507689D01*
X-396552Y514305D01*
X-395000Y522108D01*
X-395000Y522109D01*
Y626512D01*
X-383267Y631372D01*
X-160393Y408499D01*
Y328469D01*
X-165235Y325234D01*
X-172970Y313656D01*
X-175687Y300000D01*
X-172970Y286344D01*
X-165235Y274766D01*
X-153658Y267031D01*
X-140001Y264314D01*
X-126345Y267031D01*
X-114768Y274766D01*
X-107032Y286344D01*
X-106476Y289140D01*
X-93527D01*
X-92971Y286344D01*
X-85235Y274766D01*
X-73658Y267031D01*
X-60001Y264314D01*
X-46345Y267031D01*
X-34768Y274766D01*
X-27032Y286344D01*
X-24316Y300000D01*
X-27032Y313656D01*
X-34768Y325234D01*
X-39610Y328469D01*
Y410583D01*
X-41162Y418387D01*
X-45582Y425002D01*
X-45583Y425003D01*
X-61536Y440956D01*
X-56676Y452690D01*
X83619D01*
X119607Y416703D01*
Y328469D01*
X114765Y325234D01*
X107029Y313656D01*
X104313Y300000D01*
X107029Y286344D01*
X114765Y274766D01*
X126342Y267031D01*
X139998Y264314D01*
X153655Y267031D01*
X165232Y274766D01*
X172968Y286344D01*
X173524Y289140D01*
X186473D01*
X187029Y286344D01*
X194765Y274766D01*
X206342Y267031D01*
X219998Y264314D01*
X233655Y267031D01*
X245232Y274766D01*
X252967Y286344D01*
X253524Y289141D01*
X266473D01*
X267029Y286344D01*
X274765Y274766D01*
X286342Y267031D01*
X299998Y264314D01*
X313655Y267031D01*
X325232Y274766D01*
X332968Y286344D01*
X335684Y300000D01*
X332968Y313656D01*
X325232Y325234D01*
X320390Y328469D01*
Y350002D01*
X318838Y357805D01*
X314418Y364421D01*
X126919Y551919D01*
X120304Y556340D01*
X112500Y557892D01*
X-82405D01*
X-245000Y720488D01*
Y864982D01*
X-242972Y866351D01*
X-225722Y862998D01*
X-225233Y862266D01*
X-213656Y854531D01*
X-200000Y851814D01*
X-186344Y854531D01*
X-174766Y862266D01*
X-171531Y867108D01*
X-112500D01*
X-104697Y868660D01*
X-98081Y873081D01*
X-40581Y930580D01*
X-40581Y930581D01*
X-36160Y937196D01*
X-34608Y945000D01*
Y1294176D01*
X-22875Y1299036D01*
X13080Y1263081D01*
X13081Y1263081D01*
X19696Y1258660D01*
X27500Y1257108D01*
X170696D01*
X174766Y1251017D01*
X175202Y1250725D01*
Y1238025D01*
X174766Y1237734D01*
X167031Y1226156D01*
X164314Y1212500D01*
X167031Y1198844D01*
X174766Y1187266D01*
X176138Y1186350D01*
Y1173650D01*
X174766Y1172733D01*
X167031Y1161156D01*
X164314Y1147500D01*
X167031Y1133844D01*
X174766Y1122266D01*
X176138Y1121350D01*
Y1108650D01*
X174766Y1107734D01*
X167031Y1096156D01*
X164314Y1082500D01*
X167031Y1068844D01*
X174766Y1057266D01*
X176138Y1056350D01*
Y1043650D01*
X174766Y1042733D01*
X167031Y1031156D01*
X164314Y1017500D01*
X167031Y1003844D01*
X174766Y992266D01*
X186344Y984531D01*
X200000Y981814D01*
X213656Y984531D01*
X225233Y992266D01*
X228469Y997108D01*
X240000D01*
X247804Y998660D01*
X254419Y1003081D01*
X375375Y1124036D01*
X387108Y1119176D01*
Y973446D01*
X256553Y842892D01*
X228469D01*
X225233Y847734D01*
X213656Y855469D01*
X200000Y858186D01*
X186344Y855469D01*
X174766Y847734D01*
X167031Y836156D01*
X164314Y822500D01*
X167031Y808844D01*
X174766Y797266D01*
X186344Y789531D01*
X200000Y786814D01*
X213656Y789531D01*
X225233Y797266D01*
X228469Y802108D01*
X265000D01*
X272804Y803660D01*
X279419Y808081D01*
X421918Y950580D01*
X421919Y950581D01*
X426340Y957196D01*
X427892Y965000D01*
Y1669275D01*
X573226Y1814609D01*
X684120D01*
X691923Y1816161D01*
X698539Y1820582D01*
X737566Y1859609D01*
X781530D01*
X784765Y1854767D01*
X796342Y1847032D01*
X809999Y1844315D01*
X823655Y1847032D01*
X835232Y1854767D01*
X842968Y1866345D01*
X845684Y1880001D01*
X843316Y1891908D01*
X846289Y1899870D01*
X848821Y1904608D01*
X1116550D01*
X1135448Y1885711D01*
X1134312Y1880000D01*
X1137028Y1866343D01*
X1144764Y1854766D01*
X1156341Y1847031D01*
X1169997Y1844314D01*
X1183654Y1847031D01*
X1184408Y1847535D01*
X1197108Y1840746D01*
Y1783225D01*
X1161775Y1747892D01*
X842500D01*
X834696Y1746340D01*
X828081Y1741919D01*
X828080Y1741919D01*
X685189Y1599028D01*
X680769Y1592412D01*
X679216Y1584608D01*
Y1080555D01*
X599581Y1000920D01*
X595161Y994304D01*
X593608Y986500D01*
Y937069D01*
X588767Y933834D01*
X581031Y922256D01*
X578315Y908600D01*
X581031Y894944D01*
X588767Y883367D01*
X600344Y875631D01*
X614000Y872914D01*
X627657Y875631D01*
X639234Y883367D01*
X646969Y894944D01*
X649686Y908600D01*
X646969Y922256D01*
X639234Y933834D01*
X634392Y937069D01*
Y978053D01*
X706504Y1050165D01*
X714214Y1057540D01*
X723653Y1050009D01*
X793609Y980053D01*
Y937069D01*
X788767Y933834D01*
X781031Y922256D01*
X778315Y908600D01*
X781031Y894944D01*
X788767Y883367D01*
X800344Y875631D01*
X814000Y872914D01*
X827657Y875631D01*
X839234Y883367D01*
X846970Y894944D01*
X849686Y908600D01*
X846970Y922256D01*
X839234Y933834D01*
X834392Y937069D01*
Y988499D01*
X834393Y988500D01*
X832840Y996304D01*
X828420Y1002919D01*
X828419Y1002920D01*
X750000Y1081339D01*
Y1563735D01*
X863373Y1677108D01*
X898507D01*
X904771Y1664408D01*
X903355Y1662561D01*
X893344Y1660570D01*
X881767Y1652834D01*
X874031Y1641257D01*
X871314Y1627601D01*
X874031Y1613944D01*
X881767Y1602367D01*
X893344Y1594631D01*
X907000Y1591915D01*
X920657Y1594631D01*
X932234Y1602367D01*
X939969Y1613944D01*
X942686Y1627601D01*
X941550Y1633312D01*
X955346Y1647108D01*
X1183775D01*
X1189608Y1640000D01*
Y725947D01*
X1147653Y683992D01*
X1121469D01*
X1118233Y688834D01*
X1106656Y696569D01*
X1093000Y699286D01*
X1079344Y696569D01*
X1067766Y688834D01*
X1060031Y677256D01*
X1057314Y663600D01*
X1060031Y649944D01*
X1067766Y638367D01*
X1079344Y630631D01*
X1093000Y627914D01*
X1106656Y630631D01*
X1118233Y638367D01*
X1121469Y643208D01*
X1156100D01*
X1163904Y644760D01*
X1170519Y649181D01*
X1224419Y703081D01*
X1228840Y709697D01*
X1230392Y717500D01*
Y1631554D01*
X1321919Y1723081D01*
X1326340Y1729697D01*
X1327892Y1737500D01*
Y3385000D01*
X1326340Y3392804D01*
X1321919Y3399419D01*
X1199419Y3521919D01*
X1192804Y3526340D01*
X1185000Y3527892D01*
X-732500D01*
X-740304Y3526340D01*
X-746919Y3521919D01*
X-837875Y3430964D01*
X-849608Y3435824D01*
Y3782499D01*
X-849608Y3782500D01*
X-851160Y3790304D01*
X-855581Y3796920D01*
X-933078Y3874417D01*
X-939694Y3878837D01*
X-947497Y3880389D01*
X-1141531D01*
X-1144766Y3885231D01*
X-1156344Y3892967D01*
X-1170000Y3895683D01*
D02*
G37*
G36*
X809999Y3340390D02*
X802195Y3338838D01*
X795580Y3334417D01*
X791159Y3327802D01*
X789607Y3319998D01*
X791159Y3312194D01*
X795580Y3305579D01*
X802195Y3301158D01*
X809999Y3299606D01*
X817803Y3301158D01*
X824418Y3305579D01*
X828839Y3312194D01*
X830391Y3319998D01*
X828839Y3327802D01*
X824418Y3334417D01*
X817803Y3338838D01*
X809999Y3340390D01*
D02*
G37*
G36*
Y2800390D02*
X802195Y2798838D01*
X795580Y2794418D01*
X791159Y2787802D01*
X789607Y2779998D01*
X791159Y2772195D01*
X795580Y2765579D01*
X802195Y2761159D01*
X809999Y2759606D01*
X817803Y2761159D01*
X824418Y2765579D01*
X828839Y2772195D01*
X830391Y2779998D01*
X828839Y2787802D01*
X824418Y2794418D01*
X817803Y2798838D01*
X809999Y2800390D01*
D02*
G37*
G36*
X-1169999Y2260392D02*
X-1177803Y2258840D01*
X-1184418Y2254419D01*
X-1188839Y2247803D01*
X-1190391Y2240000D01*
X-1188839Y2232196D01*
X-1184418Y2225581D01*
X-1177803Y2221160D01*
X-1169999Y2219608D01*
X-1162195Y2221160D01*
X-1155580Y2225581D01*
X-1151159Y2232196D01*
X-1149607Y2240000D01*
X-1151159Y2247803D01*
X-1155580Y2254419D01*
X-1162195Y2258840D01*
X-1169999Y2260392D01*
D02*
G37*
G36*
X-810000Y1900393D02*
X-817804Y1898841D01*
X-824420Y1894420D01*
X-828840Y1887805D01*
X-830392Y1880001D01*
X-828840Y1872197D01*
X-824420Y1865582D01*
X-817804Y1861161D01*
X-810000Y1859609D01*
X-802197Y1861161D01*
X-795581Y1865582D01*
X-791161Y1872197D01*
X-789609Y1880001D01*
X-791161Y1887805D01*
X-795581Y1894420D01*
X-802197Y1898841D01*
X-810000Y1900393D01*
D02*
G37*
G36*
X-449999Y1900392D02*
X-457803Y1898840D01*
X-464419Y1894419D01*
X-468839Y1887804D01*
X-470391Y1880000D01*
X-468839Y1872196D01*
X-464419Y1865581D01*
X-457803Y1861160D01*
X-449999Y1859608D01*
X-442196Y1861160D01*
X-435580Y1865581D01*
X-431160Y1872196D01*
X-429607Y1880000D01*
X-431160Y1887804D01*
X-435580Y1894419D01*
X-442196Y1898840D01*
X-449999Y1900392D01*
D02*
G37*
G36*
X-270000Y1900391D02*
X-277804Y1898838D01*
X-284420Y1894418D01*
X-288840Y1887802D01*
X-290392Y1879999D01*
X-288840Y1872195D01*
X-284420Y1865579D01*
X-277804Y1861159D01*
X-270000Y1859607D01*
X-262197Y1861159D01*
X-255581Y1865579D01*
X-251161Y1872195D01*
X-249609Y1879999D01*
X-251161Y1887802D01*
X-255581Y1894418D01*
X-262197Y1898838D01*
X-270000Y1900391D01*
D02*
G37*
G36*
X-810000Y1720391D02*
X-817804Y1718839D01*
X-824419Y1714418D01*
X-828840Y1707803D01*
X-830392Y1699999D01*
X-828840Y1692195D01*
X-824419Y1685580D01*
X-817804Y1681159D01*
X-810000Y1679607D01*
X-802197Y1681159D01*
X-795581Y1685580D01*
X-791160Y1692195D01*
X-789608Y1699999D01*
X-791160Y1707803D01*
X-795581Y1714418D01*
X-802197Y1718839D01*
X-810000Y1720391D01*
D02*
G37*
G36*
X-990000D02*
X-997804Y1718839D01*
X-1004419Y1714418D01*
X-1008840Y1707803D01*
X-1010392Y1699999D01*
X-1008840Y1692195D01*
X-1004419Y1685580D01*
X-997804Y1681159D01*
X-990000Y1679607D01*
X-982196Y1681159D01*
X-975581Y1685580D01*
X-971160Y1692195D01*
X-969608Y1699999D01*
X-971160Y1707803D01*
X-975581Y1714418D01*
X-982196Y1718839D01*
X-990000Y1720391D01*
D02*
G37*
G36*
X1325000Y1347892D02*
X1317196Y1346339D01*
X1310581Y1341919D01*
X1306160Y1335303D01*
X1304608Y1327500D01*
X1306160Y1319696D01*
X1310581Y1313080D01*
X1317196Y1308660D01*
X1325000Y1307108D01*
X1332804Y1308660D01*
X1339419Y1313080D01*
X1343840Y1319696D01*
X1345392Y1327500D01*
X1343840Y1335303D01*
X1339419Y1341919D01*
X1332804Y1346339D01*
X1325000Y1347892D01*
D02*
G37*
G36*
X557000Y1346642D02*
X549197Y1345090D01*
X542581Y1340669D01*
X538161Y1334054D01*
X536609Y1326250D01*
X538161Y1318446D01*
X542581Y1311831D01*
X549197Y1307410D01*
X557000Y1305858D01*
X564804Y1307410D01*
X571420Y1311831D01*
X575840Y1318446D01*
X577392Y1326250D01*
X575840Y1334054D01*
X571420Y1340669D01*
X564804Y1345090D01*
X557000Y1346642D01*
D02*
G37*
G36*
X-950000Y1320392D02*
X-957804Y1318840D01*
X-964419Y1314419D01*
X-968840Y1307804D01*
X-970392Y1300000D01*
X-968840Y1292196D01*
X-964419Y1285581D01*
X-957804Y1281160D01*
X-950000Y1279608D01*
X-942196Y1281160D01*
X-935581Y1285581D01*
X-931160Y1292196D01*
X-929608Y1300000D01*
X-931160Y1307804D01*
X-935581Y1314419D01*
X-942196Y1318840D01*
X-950000Y1320392D01*
D02*
G37*
G36*
X-1050000D02*
X-1057804Y1318840D01*
X-1064420Y1314419D01*
X-1068840Y1307804D01*
X-1070392Y1300000D01*
X-1068840Y1292196D01*
X-1064420Y1285581D01*
X-1057804Y1281160D01*
X-1050000Y1279608D01*
X-1042197Y1281160D01*
X-1035581Y1285581D01*
X-1031160Y1292196D01*
X-1029608Y1300000D01*
X-1031160Y1307804D01*
X-1035581Y1314419D01*
X-1042197Y1318840D01*
X-1050000Y1320392D01*
D02*
G37*
G36*
X-1150000D02*
X-1157804Y1318840D01*
X-1164419Y1314419D01*
X-1168840Y1307804D01*
X-1170392Y1300000D01*
X-1168840Y1292196D01*
X-1164419Y1285581D01*
X-1157804Y1281160D01*
X-1150000Y1279608D01*
X-1142196Y1281160D01*
X-1135581Y1285581D01*
X-1131160Y1292196D01*
X-1129608Y1300000D01*
X-1131160Y1307804D01*
X-1135581Y1314419D01*
X-1142196Y1318840D01*
X-1150000Y1320392D01*
D02*
G37*
G36*
X812500Y1263992D02*
X804696Y1262440D01*
X798080Y1258020D01*
X793660Y1251404D01*
X792108Y1243600D01*
X793660Y1235797D01*
X798080Y1229181D01*
X804696Y1224761D01*
X812500Y1223208D01*
X820303Y1224761D01*
X826919Y1229181D01*
X831339Y1235797D01*
X832892Y1243600D01*
X831339Y1251404D01*
X826919Y1258020D01*
X820303Y1262440D01*
X812500Y1263992D01*
D02*
G37*
G36*
X1093000Y1183992D02*
X1085196Y1182440D01*
X1078581Y1178019D01*
X1074160Y1171404D01*
X1072608Y1163600D01*
X1074160Y1155797D01*
X1078581Y1149181D01*
X1085196Y1144760D01*
X1093000Y1143208D01*
X1100803Y1144760D01*
X1107419Y1149181D01*
X1111840Y1155797D01*
X1113392Y1163600D01*
X1111840Y1171404D01*
X1107419Y1178019D01*
X1100803Y1182440D01*
X1093000Y1183992D01*
D02*
G37*
G36*
X-1139001Y1010392D02*
X-1146804Y1008840D01*
X-1153420Y1004419D01*
X-1157840Y997804D01*
X-1159392Y990000D01*
X-1157840Y982196D01*
X-1153420Y975581D01*
X-1146804Y971160D01*
X-1139001Y969608D01*
X-1131197Y971160D01*
X-1124581Y975581D01*
X-1120161Y982196D01*
X-1118609Y990000D01*
X-1120161Y997804D01*
X-1124581Y1004419D01*
X-1131197Y1008840D01*
X-1139001Y1010392D01*
D02*
G37*
G36*
X-962700Y948861D02*
X-969665Y947476D01*
X-986336Y936336D01*
X-992363Y927317D01*
X-1007637D01*
X-1013664Y936336D01*
X-1030335Y947476D01*
X-1037300Y948861D01*
Y900000D01*
X-1050000D01*
Y887300D01*
X-1098861D01*
X-1097476Y880335D01*
X-1086336Y863664D01*
X-1077317Y857637D01*
Y842363D01*
X-1086336Y836336D01*
X-1097476Y819665D01*
X-1098861Y812700D01*
X-1050000D01*
Y800000D01*
X-1037300D01*
Y751139D01*
X-1030335Y752525D01*
X-1013664Y763664D01*
X-1007637Y772683D01*
X-992363D01*
X-986336Y763664D01*
X-969665Y752525D01*
X-962700Y751139D01*
Y800000D01*
X-950000D01*
Y812700D01*
X-901139D01*
X-902524Y819665D01*
X-913664Y836336D01*
X-922683Y842363D01*
Y857637D01*
X-913664Y863664D01*
X-902524Y880335D01*
X-901139Y887300D01*
X-950000D01*
Y900000D01*
X-962700D01*
Y948861D01*
D02*
G37*
G36*
X-937300D02*
Y912700D01*
X-901139D01*
X-902524Y919665D01*
X-913664Y936336D01*
X-930335Y947476D01*
X-937300Y948861D01*
D02*
G37*
G36*
X-1062700D02*
X-1069665Y947476D01*
X-1086336Y936336D01*
X-1097476Y919665D01*
X-1098861Y912700D01*
X-1062700D01*
Y948861D01*
D02*
G37*
G36*
X-780000Y877392D02*
X-787804Y875840D01*
X-794420Y871419D01*
X-798840Y864804D01*
X-800392Y857000D01*
X-798840Y849196D01*
X-794420Y842581D01*
X-787804Y838160D01*
X-780000Y836608D01*
X-772197Y838160D01*
X-765581Y842581D01*
X-761161Y849196D01*
X-759608Y857000D01*
X-761161Y864804D01*
X-765581Y871419D01*
X-772197Y875840D01*
X-780000Y877392D01*
D02*
G37*
G36*
X1325000Y847892D02*
X1317196Y846339D01*
X1310581Y841919D01*
X1306160Y835303D01*
X1304608Y827500D01*
X1306160Y819696D01*
X1310581Y813080D01*
X1317196Y808660D01*
X1325000Y807108D01*
X1332804Y808660D01*
X1339419Y813080D01*
X1343840Y819696D01*
X1345392Y827500D01*
X1343840Y835303D01*
X1339419Y841919D01*
X1332804Y846339D01*
X1325000Y847892D01*
D02*
G37*
G36*
X-901139Y787300D02*
X-937300D01*
Y751139D01*
X-930335Y752525D01*
X-913664Y763664D01*
X-902524Y780335D01*
X-901139Y787300D01*
D02*
G37*
G36*
X-1062700D02*
X-1098861D01*
X-1097476Y780335D01*
X-1086336Y763664D01*
X-1069665Y752525D01*
X-1062700Y751139D01*
Y787300D01*
D02*
G37*
G36*
X-557000Y777892D02*
X-564804Y776340D01*
X-571419Y771919D01*
X-575840Y765304D01*
X-577392Y757500D01*
X-575840Y749696D01*
X-571419Y743081D01*
X-564804Y738660D01*
X-557000Y737108D01*
X-549196Y738660D01*
X-542581Y743081D01*
X-538160Y749696D01*
X-536608Y757500D01*
X-538160Y765304D01*
X-542581Y771919D01*
X-549196Y776340D01*
X-557000Y777892D01*
D02*
G37*
G36*
X-980002Y420392D02*
X-987805Y418840D01*
X-994421Y414419D01*
X-998841Y407804D01*
X-1000393Y400000D01*
X-998841Y392196D01*
X-994421Y385581D01*
X-987805Y381160D01*
X-980002Y379608D01*
X-972198Y381160D01*
X-965582Y385581D01*
X-961162Y392196D01*
X-959610Y400000D01*
X-961162Y407804D01*
X-965582Y414419D01*
X-972198Y418840D01*
X-980002Y420392D01*
D02*
G37*
G36*
X-1060001D02*
X-1067805Y418840D01*
X-1074421Y414419D01*
X-1078841Y407804D01*
X-1080393Y400000D01*
X-1078841Y392196D01*
X-1074421Y385581D01*
X-1067805Y381160D01*
X-1060001Y379608D01*
X-1052198Y381160D01*
X-1045582Y385581D01*
X-1041162Y392196D01*
X-1039610Y400000D01*
X-1041162Y407804D01*
X-1045582Y414419D01*
X-1052198Y418840D01*
X-1060001Y420392D01*
D02*
G37*
G36*
X-1140002D02*
X-1147805Y418840D01*
X-1154421Y414419D01*
X-1158841Y407804D01*
X-1160393Y400000D01*
X-1158841Y392196D01*
X-1154421Y385581D01*
X-1147805Y381160D01*
X-1140002Y379608D01*
X-1132198Y381160D01*
X-1125582Y385581D01*
X-1121162Y392196D01*
X-1119610Y400000D01*
X-1121162Y407804D01*
X-1125582Y414419D01*
X-1132198Y418840D01*
X-1140002Y420392D01*
D02*
G37*
G36*
X459998Y320392D02*
X452195Y318840D01*
X445579Y314419D01*
X441159Y307804D01*
X439606Y300000D01*
X441159Y292196D01*
X445579Y285581D01*
X452195Y281160D01*
X459998Y279608D01*
X467802Y281160D01*
X474418Y285581D01*
X478838Y292196D01*
X480390Y300000D01*
X478838Y307804D01*
X474418Y314419D01*
X467802Y318840D01*
X459998Y320392D01*
D02*
G37*
G36*
X379998D02*
X372195Y318840D01*
X365579Y314419D01*
X361159Y307804D01*
X359607Y300000D01*
X361159Y292196D01*
X365579Y285581D01*
X372195Y281160D01*
X379998Y279608D01*
X387802Y281160D01*
X394418Y285581D01*
X398838Y292196D01*
X400390Y300000D01*
X398838Y307804D01*
X394418Y314419D01*
X387802Y318840D01*
X379998Y320392D01*
D02*
G37*
G36*
X-900002D02*
X-907805Y318840D01*
X-914421Y314419D01*
X-918841Y307804D01*
X-920393Y300000D01*
X-918841Y292196D01*
X-914421Y285581D01*
X-907805Y281160D01*
X-900002Y279608D01*
X-892198Y281160D01*
X-885582Y285581D01*
X-881162Y292196D01*
X-879610Y300000D01*
X-881162Y307804D01*
X-885582Y314419D01*
X-892198Y318840D01*
X-900002Y320392D01*
D02*
G37*
%LPD*%
G36*
X-105392Y1408114D02*
Y1125947D01*
X-128447Y1102892D01*
X-171531D01*
X-174766Y1107734D01*
X-176138Y1108650D01*
Y1121350D01*
X-174766Y1122266D01*
X-167031Y1133844D01*
X-164314Y1147500D01*
X-167031Y1161156D01*
X-174766Y1172733D01*
X-176138Y1173650D01*
Y1186350D01*
X-174766Y1187266D01*
X-167031Y1198844D01*
X-164314Y1212500D01*
X-167031Y1226156D01*
X-174766Y1237734D01*
X-176138Y1238650D01*
Y1251350D01*
X-174766Y1252266D01*
X-167031Y1263844D01*
X-164314Y1277500D01*
X-167031Y1291156D01*
X-174766Y1302733D01*
X-186344Y1310469D01*
X-200000Y1313186D01*
X-213656Y1310469D01*
X-225233Y1302733D01*
X-228469Y1297892D01*
X-280000D01*
X-287804Y1296340D01*
X-294420Y1291919D01*
X-294420Y1291918D01*
X-323267Y1263072D01*
X-335000Y1267932D01*
Y1393986D01*
X-274970Y1454016D01*
X-151295D01*
X-105392Y1408114D01*
D02*
G37*
G36*
X-75392Y1081676D02*
Y953447D01*
X-120947Y907892D01*
X-171531D01*
X-174766Y912734D01*
X-186344Y920469D01*
X-200000Y923186D01*
X-213656Y920469D01*
X-225233Y912734D01*
X-225722Y912002D01*
X-242972Y908648D01*
X-245000Y910017D01*
Y1059982D01*
X-242972Y1061351D01*
X-225722Y1057998D01*
X-225233Y1057266D01*
X-213656Y1049531D01*
X-200000Y1046814D01*
X-186344Y1049531D01*
X-174766Y1057266D01*
X-171531Y1062108D01*
X-120000D01*
X-112196Y1063660D01*
X-105581Y1068081D01*
X-87125Y1086536D01*
X-75392Y1081676D01*
D02*
G37*
%LPC*%
G36*
X-200000Y1412892D02*
X-207803Y1411340D01*
X-214419Y1406919D01*
X-218840Y1400304D01*
X-220392Y1392500D01*
X-218840Y1384696D01*
X-214419Y1378081D01*
X-207803Y1373660D01*
X-200000Y1372108D01*
X-192196Y1373660D01*
X-185581Y1378081D01*
X-181160Y1384696D01*
X-179608Y1392500D01*
X-181160Y1400304D01*
X-185581Y1406919D01*
X-192196Y1411340D01*
X-200000Y1412892D01*
D02*
G37*
%LPD*%
D25*
X630000Y2060000D02*
Y2450000D01*
X692500Y2512500D01*
X1240000D01*
X1277500Y2475000D01*
X1169997Y2060000D02*
X1247500Y1982497D01*
X1170221Y1727500D02*
X1217500Y1774779D01*
X1210000Y1640000D02*
X1307500Y1737500D01*
Y3385000D01*
X1195074Y1667500D02*
X1277500Y1749926D01*
X1217500Y1774779D02*
Y1930000D01*
X1247500Y1762353D02*
Y1982497D01*
X1185000Y3507500D02*
X1307500Y3385000D01*
X1277500Y1749926D02*
Y2475000D01*
X1124608Y2022892D02*
X1217500Y1930000D01*
X1182648Y1697500D02*
X1247500Y1762353D01*
X569926Y1925000D02*
X1124997D01*
X1169997Y1880000D01*
X-732500Y3507500D02*
X1185000D01*
X1094608Y2344610D02*
X1169997Y2419999D01*
X1124608Y2194610D02*
X1169997Y2240000D01*
X1124608Y2022892D02*
Y2194610D01*
X1017500Y1955000D02*
X1094608Y2032108D01*
Y2344610D01*
X257500Y1955000D02*
X1017500D01*
X217500Y1915000D02*
X257500Y1955000D01*
X217500Y1860000D02*
Y1915000D01*
X-247500Y1147500D02*
X-200000D01*
X-265392Y1129608D02*
X-247500Y1147500D01*
X-265392Y712041D02*
Y1129608D01*
X-697500Y1655000D02*
X-606908Y1564408D01*
X-697500Y1655000D02*
Y1992501D01*
X-606908Y1564408D02*
X-105569D01*
X-385392Y1414859D02*
X-295843Y1504408D01*
X-283417Y1474408D02*
X-142848D01*
X-355392Y1402433D02*
X-283417Y1474408D01*
X-105569Y1564408D02*
X31339Y1427500D01*
X-415392Y1427285D02*
X-308269Y1534408D01*
X-117995D01*
X-22500Y1438913D01*
X-130422Y1504408D02*
X-55000Y1428986D01*
X-295843Y1504408D02*
X-130422D01*
X-142848Y1474408D02*
X-85000Y1416560D01*
X31339Y1427500D02*
X200000D01*
X-22500Y1327500D02*
Y1438913D01*
X-55000Y945000D02*
Y1428986D01*
X-85000Y1117500D02*
Y1416560D01*
X-697500Y1992501D02*
X-630002Y2060000D01*
X907000Y1627601D02*
X946900Y1667500D01*
X1195074D01*
X-1000000Y3350000D02*
X-998609Y3348609D01*
X-930000Y2919926D02*
Y3315000D01*
X-998609Y3348609D02*
X-963609D01*
X-930000Y3315000D01*
X-840000Y3235000D02*
Y3400000D01*
X-809999Y3139999D02*
Y3204999D01*
X-840000Y3235000D02*
X-809999Y3204999D01*
X217500Y1860000D02*
X287500Y1790000D01*
X269999Y1880001D02*
X317500Y1832500D01*
X27500Y1277500D02*
X198750D01*
X200000Y1276250D01*
X1151717Y1697500D02*
X1182648D01*
X1210000Y717500D02*
Y1640000D01*
X842500Y1727500D02*
X1170221D01*
X-840000Y3400000D02*
X-732500Y3507500D01*
X-930000Y2882574D02*
X-834926Y2787500D01*
X-960000Y2870148D02*
X-847352Y2757500D01*
X-870000Y2907426D02*
X-810074Y2847500D01*
X-900000Y2895000D02*
X-822500Y2817500D01*
X-930000Y2882574D02*
Y2919926D01*
X-1000000Y3150000D02*
X-960000Y3110000D01*
Y2870148D02*
Y3110000D01*
X-947497Y3859998D02*
X-870000Y3782500D01*
Y2907426D02*
Y3782500D01*
X-969998Y3499998D02*
X-900000Y3430000D01*
Y2895000D02*
Y3430000D01*
X1156100Y663600D02*
X1210000Y717500D01*
X1093000Y663600D02*
X1156100D01*
X-251426Y2767500D02*
X-155000Y2863926D01*
Y3202500D02*
X-100000Y3257500D01*
X-155000Y2863926D02*
Y3202500D01*
X-335073Y2767500D02*
X-251426D01*
X-415074Y2847500D02*
X-335073Y2767500D01*
X-810074Y2847500D02*
X-415074D01*
X-427500Y2817500D02*
X-347500Y2737500D01*
X-452352Y2757500D02*
X-372352Y2677500D01*
X-847352Y2757500D02*
X-452352D01*
X-797574Y2787500D02*
X-439926D01*
X-822500Y2817500D02*
X-427500D01*
X-439926Y2787500D02*
X-359926Y2707500D01*
X-1170000Y3859998D02*
X-947497D01*
X-834926Y2787500D02*
X-797574D01*
X-1170000Y3499998D02*
X-969998D01*
X-105000Y2677500D02*
X-50000Y2732500D01*
X-372352Y2677500D02*
X-105000D01*
X-50000Y2732500D02*
Y2907500D01*
X-183000Y2749500D02*
X-100000D01*
Y2957500D02*
X-50000Y2907500D01*
X-100000Y2957500D02*
Y3003500D01*
X-239000Y2737500D02*
X-100000Y2876500D01*
X-225000Y2707500D02*
X-183000Y2749500D01*
X-359926Y2707500D02*
X-225000D01*
X-347500Y2737500D02*
X-239000D01*
X854926Y1697500D02*
X1151717D01*
X729608Y1572182D02*
X854926Y1697500D01*
X699608Y1584608D02*
X842500Y1727500D01*
X699608Y1072108D02*
Y1584608D01*
X729608Y1072892D02*
Y1572182D01*
X614000Y986500D02*
X699608Y1072108D01*
X614000Y908600D02*
Y986500D01*
X729608Y1072892D02*
X814000Y988500D01*
X684120Y1835001D02*
X729120Y1880001D01*
X564780Y1835001D02*
X684120D01*
X814000Y908600D02*
Y988500D01*
X287500Y1239926D02*
Y1790000D01*
X200000Y1017500D02*
X240000D01*
X377500Y1155000D02*
Y1690147D01*
X240000Y1017500D02*
X377500Y1155000D01*
X242500Y1082500D02*
X347500Y1187500D01*
X200000Y1082500D02*
X242500D01*
X347500Y1187500D02*
Y1702574D01*
X205740Y1153240D02*
X243240D01*
X317500Y1227500D02*
Y1832500D01*
X260074Y1212500D02*
X287500Y1239926D01*
X243240Y1153240D02*
X317500Y1227500D01*
X200000Y1212500D02*
X260074D01*
X265000Y822500D02*
X407500Y965000D01*
Y1677721D02*
X564780Y1835001D01*
X347500Y1702574D02*
X569926Y1925000D01*
X377500Y1690147D02*
X567353Y1880001D01*
X407500Y965000D02*
Y1677721D01*
X729120Y1880001D02*
X809999D01*
X567353D02*
X629999D01*
X200000Y1147500D02*
X205740Y1153240D01*
X200000Y822500D02*
X265000D01*
X-660001Y300000D02*
Y400000D01*
X-475000Y462500D02*
X-415392Y522108D01*
Y1427285D01*
X-385392Y662336D02*
X-140001Y416945D01*
X-355392Y674762D02*
X-123711Y443082D01*
X-355392Y674762D02*
Y1402433D01*
X-295392Y699615D02*
X-98859Y503082D01*
X-295392Y699615D02*
Y1182108D01*
X-325392Y687188D02*
X-111285Y473082D01*
X-385392Y662336D02*
Y1414859D01*
X-265392Y712041D02*
X-90851Y537500D01*
X-325392Y687188D02*
Y1232108D01*
X-597501Y462500D02*
X-475000D01*
X-660001Y400000D02*
X-597501Y462500D01*
X-22500Y1327500D02*
X27500Y1277500D01*
X-280000D02*
X-200000D01*
X-325392Y1232108D02*
X-280000Y1277500D01*
X-265000Y1212500D02*
X-200000D01*
X-295392Y1182108D02*
X-265000Y1212500D01*
X-200000Y1082500D02*
X-120000D01*
X-636000Y591500D02*
Y793000D01*
X-740002Y487498D02*
X-636000Y591500D01*
X-740002Y300000D02*
Y487498D01*
X-200000Y887500D02*
X-112500D01*
X-55000Y945000D01*
X-120000Y1082500D02*
X-85000Y1117500D01*
X-140001Y300000D02*
Y416945D01*
X-90851Y537500D02*
X112500D01*
X-111285Y473082D02*
X92066D01*
X-98859Y503082D02*
X104492D01*
X-123711Y443082D02*
X-92500D01*
X-60001Y300000D02*
Y410583D01*
X-92500Y443082D02*
X-60001Y410583D01*
X219998Y300000D02*
Y387576D01*
X104492Y503082D02*
X219998Y387576D01*
X92066Y473082D02*
X139998Y425149D01*
X112500Y537500D02*
X299998Y350002D01*
Y300000D02*
Y350002D01*
X139998Y300000D02*
Y425149D01*
D30*
X-1425000Y400000D02*
D03*
Y500000D02*
D03*
Y600000D02*
D03*
Y700000D02*
D03*
Y800000D02*
D03*
Y900000D02*
D03*
Y1100000D02*
D03*
Y1200000D02*
D03*
Y1300000D02*
D03*
Y1000000D02*
D03*
Y1400000D02*
D03*
Y1500000D02*
D03*
Y1600000D02*
D03*
Y1700000D02*
D03*
Y1900000D02*
D03*
Y2000000D02*
D03*
Y2100000D02*
D03*
Y1800000D02*
D03*
Y2200000D02*
D03*
Y3700000D02*
D03*
Y4200000D02*
D03*
Y4300000D02*
D03*
Y4400000D02*
D03*
Y4100000D02*
D03*
Y4000000D02*
D03*
Y3900000D02*
D03*
Y3800000D02*
D03*
Y4500000D02*
D03*
X1425000Y400000D02*
D03*
Y600000D02*
D03*
Y500000D02*
D03*
Y1500000D02*
D03*
Y1700000D02*
D03*
Y1600000D02*
D03*
Y1100000D02*
D03*
Y1400000D02*
D03*
Y1300000D02*
D03*
Y1200000D02*
D03*
Y700000D02*
D03*
Y1000000D02*
D03*
Y900000D02*
D03*
Y800000D02*
D03*
Y2600000D02*
D03*
Y2800000D02*
D03*
Y2700000D02*
D03*
Y2200000D02*
D03*
Y2500000D02*
D03*
Y2400000D02*
D03*
Y2300000D02*
D03*
Y1800000D02*
D03*
Y2100000D02*
D03*
Y2000000D02*
D03*
Y1900000D02*
D03*
Y3000000D02*
D03*
Y3100000D02*
D03*
Y3200000D02*
D03*
Y2900000D02*
D03*
Y3400000D02*
D03*
Y3500000D02*
D03*
Y3600000D02*
D03*
Y3300000D02*
D03*
Y3800000D02*
D03*
Y3900000D02*
D03*
Y4000000D02*
D03*
Y3700000D02*
D03*
Y4100000D02*
D03*
Y4400000D02*
D03*
Y4300000D02*
D03*
Y4200000D02*
D03*
Y4500000D02*
D03*
D31*
X-1210001Y4805000D02*
D03*
X1209999D02*
D03*
D32*
X1169997Y1880000D02*
D03*
X-625000Y1877500D02*
D03*
X200000Y1427500D02*
D03*
X100000Y1342500D02*
D03*
X821820Y1396820D02*
D03*
X907000Y1627601D02*
D03*
X137500Y1595000D02*
D03*
X560000D02*
D03*
X1147500D02*
D03*
X-651783Y1469283D02*
D03*
X-809999Y3139999D02*
D03*
X217500Y4887500D02*
D03*
X280000Y4875000D02*
D03*
X345000Y4837500D02*
D03*
X395000Y4787500D02*
D03*
X430000Y4727500D02*
D03*
X250000Y4660000D02*
D03*
X450000Y4660000D02*
D03*
Y4590000D02*
D03*
Y4520000D02*
D03*
X270000Y4590000D02*
D03*
Y4520000D02*
D03*
Y4450000D02*
D03*
X450000D02*
D03*
X-170000Y4900000D02*
D03*
X-100000D02*
D03*
X-29999D02*
D03*
X180001Y4700000D02*
D03*
X110001D02*
D03*
X40001D02*
D03*
X-29999D02*
D03*
X-100000D02*
D03*
X-170000D02*
D03*
X-240000D02*
D03*
X-310000D02*
D03*
X-380000D02*
D03*
X-450000D02*
D03*
Y4900000D02*
D03*
X-950000Y800000D02*
D03*
X-1050000Y900000D02*
D03*
Y800000D02*
D03*
X-950000Y900000D02*
D03*
X269999Y1880001D02*
D03*
X-810000Y3517500D02*
D03*
X-995000Y2777500D02*
D03*
X-1170000Y1062500D02*
D03*
X-995000Y3740000D02*
D03*
X-635000Y4032500D02*
D03*
X205000Y3600000D02*
D03*
X-782500Y3320000D02*
D03*
X-245000Y3435000D02*
D03*
X-252500Y2962500D02*
D03*
X567500Y2462500D02*
D03*
X-272500Y2235000D02*
D03*
X87500Y2060000D02*
D03*
X275000Y2082500D02*
D03*
X985000Y1792500D02*
D03*
X987500Y2060000D02*
D03*
X625000Y1717500D02*
D03*
X1025000Y355000D02*
D03*
X-287500Y450000D02*
D03*
X-547500Y392500D02*
D03*
X-807500Y377500D02*
D03*
X-782500Y710000D02*
D03*
X-702500Y1077500D02*
D03*
X-150000Y1335000D02*
D03*
X-147500Y987500D02*
D03*
X-117500Y690000D02*
D03*
X427500Y615000D02*
D03*
X1120000Y1045000D02*
D03*
X712500Y977500D02*
D03*
X70000Y915000D02*
D03*
X67500Y1147500D02*
D03*
X200000Y1276250D02*
D03*
X-1000000Y3150000D02*
D03*
X-100000Y2749500D02*
D03*
Y2876500D02*
D03*
X-200000Y1147500D02*
D03*
Y1212500D02*
D03*
Y1082500D02*
D03*
X614000Y908600D02*
D03*
X814000D02*
D03*
X-636000Y793000D02*
D03*
X-660001Y300000D02*
D03*
X-740002D02*
D03*
X200000Y1082500D02*
D03*
Y1212500D02*
D03*
Y1147500D02*
D03*
Y1017500D02*
D03*
Y822500D02*
D03*
X-200000Y1277500D02*
D03*
Y887500D02*
D03*
X1093000Y663600D02*
D03*
X-100000Y3257500D02*
D03*
Y3003500D02*
D03*
X-1000000Y3350000D02*
D03*
X630000Y2060000D02*
D03*
X-60001Y300000D02*
D03*
X-140001D02*
D03*
X299998D02*
D03*
X219998D02*
D03*
X139998D02*
D03*
X-1170000Y3679998D02*
D03*
Y3499998D02*
D03*
X1169997Y2060000D02*
D03*
Y2240000D02*
D03*
Y2419999D02*
D03*
X-630002Y2060000D02*
D03*
X-1170000Y3859998D02*
D03*
X629999Y1880001D02*
D03*
X809999D02*
D03*
%TF.MD5,fe9c3a2b210cd413725e083a42e86be4*%
M02*
