%TF.GenerationSoftware,Altium Limited,Altium Designer,24.7.2 (38)*%
G04 Layer_Physical_Order=1*
G04 Layer_Color=255*
%FSLAX45Y45*%
%MOMM*%
%TF.SameCoordinates,C1245C4B-2411-4F97-9DC6-EC8D337214EE*%
%TF.FilePolarity,Positive*%
%TF.FileFunction,Copper,L1,Top,Signal*%
%TF.Part,Single*%
G01*
G75*
%TA.AperFunction,Conductor*%
%ADD10C,0.77000*%
%TA.AperFunction,SMDPad,CuDef*%
G04:AMPARAMS|DCode=11|XSize=0.24mm|YSize=0.6mm|CornerRadius=0.0504mm|HoleSize=0mm|Usage=FLASHONLY|Rotation=0.000|XOffset=0mm|YOffset=0mm|HoleType=Round|Shape=RoundedRectangle|*
%AMROUNDEDRECTD11*
21,1,0.24000,0.49920,0,0,0.0*
21,1,0.13920,0.60000,0,0,0.0*
1,1,0.10080,0.06960,-0.24960*
1,1,0.10080,-0.06960,-0.24960*
1,1,0.10080,-0.06960,0.24960*
1,1,0.10080,0.06960,0.24960*
%
%ADD11ROUNDEDRECTD11*%
G04:AMPARAMS|DCode=12|XSize=0.24mm|YSize=0.6mm|CornerRadius=0.0504mm|HoleSize=0mm|Usage=FLASHONLY|Rotation=270.000|XOffset=0mm|YOffset=0mm|HoleType=Round|Shape=RoundedRectangle|*
%AMROUNDEDRECTD12*
21,1,0.24000,0.49920,0,0,270.0*
21,1,0.13920,0.60000,0,0,270.0*
1,1,0.10080,-0.24960,-0.06960*
1,1,0.10080,-0.24960,0.06960*
1,1,0.10080,0.24960,0.06960*
1,1,0.10080,0.24960,-0.06960*
%
%ADD12ROUNDEDRECTD12*%
G04:AMPARAMS|DCode=13|XSize=1.68mm|YSize=1.68mm|CornerRadius=0.042mm|HoleSize=0mm|Usage=FLASHONLY|Rotation=270.000|XOffset=0mm|YOffset=0mm|HoleType=Round|Shape=RoundedRectangle|*
%AMROUNDEDRECTD13*
21,1,1.68000,1.59600,0,0,270.0*
21,1,1.59600,1.68000,0,0,270.0*
1,1,0.08400,-0.79800,-0.79800*
1,1,0.08400,-0.79800,0.79800*
1,1,0.08400,0.79800,0.79800*
1,1,0.08400,0.79800,-0.79800*
%
%ADD13ROUNDEDRECTD13*%
%ADD14R,0.47000X0.52000*%
%ADD15R,0.52000X0.47000*%
%ADD16R,0.40000X0.40000*%
%ADD17R,0.80000X0.30000*%
%ADD18R,0.50000X0.60000*%
%ADD19R,0.70000X1.00000*%
%ADD20R,2.70000X0.80000*%
%ADD21R,1.00000X1.00000*%
%ADD22R,2.20000X1.05000*%
%TA.AperFunction,ConnectorPad*%
%ADD23R,0.60000X2.30000*%
%TA.AperFunction,SMDPad,CuDef*%
G04:AMPARAMS|DCode=24|XSize=0.7mm|YSize=0.7mm|CornerRadius=0.07mm|HoleSize=0mm|Usage=FLASHONLY|Rotation=0.000|XOffset=0mm|YOffset=0mm|HoleType=Round|Shape=RoundedRectangle|*
%AMROUNDEDRECTD24*
21,1,0.70000,0.56000,0,0,0.0*
21,1,0.56000,0.70000,0,0,0.0*
1,1,0.14000,0.28000,-0.28000*
1,1,0.14000,-0.28000,-0.28000*
1,1,0.14000,-0.28000,0.28000*
1,1,0.14000,0.28000,0.28000*
%
%ADD24ROUNDEDRECTD24*%
%TA.AperFunction,Conductor*%
%ADD25C,0.20000*%
%ADD26C,0.25000*%
%ADD27C,0.30000*%
%ADD28C,0.40000*%
%ADD29C,0.38100*%
%TA.AperFunction,ViaPad*%
%ADD30C,0.75000*%
%ADD31R,5.30000X5.30000*%
%ADD32C,0.50000*%
G36*
X1474510Y345489D02*
X1364999D01*
X1364376Y345365D01*
X1363748Y345458D01*
X1355906Y345072D01*
X1354074Y344613D01*
X1352184D01*
X1336803Y341554D01*
X1334483Y340593D01*
X1332021Y340103D01*
X1317533Y334102D01*
X1315446Y332707D01*
X1313126Y331747D01*
X1300086Y323034D01*
X1298311Y321258D01*
X1296224Y319864D01*
X1285135Y308775D01*
X1283740Y306688D01*
X1281964Y304912D01*
X1273252Y291872D01*
X1272291Y289553D01*
X1270896Y287466D01*
X1266074Y275824D01*
X500050D01*
X493401Y288524D01*
X495684Y300000D01*
X492968Y313656D01*
X485232Y325234D01*
X480390Y328469D01*
Y396626D01*
X510872Y427108D01*
X725000D01*
X732804Y428660D01*
X739419Y433081D01*
X807419Y501080D01*
X807419Y501081D01*
X811840Y507696D01*
X813392Y515500D01*
X813392Y515501D01*
Y552600D01*
X826500D01*
Y614900D01*
X826500Y624600D01*
X826500Y637300D01*
Y653600D01*
X792999D01*
X759500D01*
Y637300D01*
X759500Y627600D01*
X759500Y614900D01*
Y552600D01*
X772608D01*
Y523946D01*
X716553Y467892D01*
X593324D01*
X588464Y479625D01*
X607418Y498580D01*
X607419Y498580D01*
X611840Y505196D01*
X613392Y513000D01*
X613392Y513001D01*
Y552600D01*
X626500D01*
Y614900D01*
X626500Y624600D01*
X626500Y637300D01*
Y653600D01*
X593000D01*
X559500D01*
Y637300D01*
X559500Y627600D01*
X559500Y614900D01*
Y552600D01*
X572608D01*
Y521446D01*
X549053Y497892D01*
X490001D01*
X490000Y497892D01*
X482196Y496340D01*
X475580Y491919D01*
X365579Y381918D01*
X361159Y375302D01*
X359607Y367499D01*
Y328469D01*
X354765Y325234D01*
X347029Y313656D01*
X346473Y310859D01*
X333524D01*
X332968Y313656D01*
X325232Y325234D01*
X320390Y328469D01*
Y423500D01*
X335998D01*
Y490500D01*
X263999D01*
Y490500D01*
X255998D01*
Y490500D01*
X183999D01*
Y490500D01*
X175998D01*
Y490500D01*
X103999D01*
Y423500D01*
X119607D01*
Y328469D01*
X114765Y325234D01*
X107029Y313656D01*
X104313Y300000D01*
X106595Y288524D01*
X99946Y275824D01*
X-19949D01*
X-26598Y288524D01*
X-24316Y300000D01*
X-27032Y313656D01*
X-34768Y325234D01*
X-39610Y328469D01*
Y423500D01*
X-24001D01*
Y490500D01*
X-96001D01*
Y490500D01*
X-104002D01*
Y490500D01*
X-176001D01*
Y423500D01*
X-160393D01*
Y328469D01*
X-165235Y325234D01*
X-172970Y313656D01*
X-175687Y300000D01*
X-173404Y288524D01*
X-180053Y275824D01*
X-284513D01*
Y325000D01*
X-284678Y325829D01*
X-284568Y326668D01*
X-285209Y336457D01*
X-285859Y338881D01*
X-286023Y341386D01*
X-291091Y360298D01*
X-292566Y363290D01*
X-293637Y366446D01*
X-303426Y383401D01*
X-305624Y385908D01*
X-307477Y388680D01*
X-321321Y402524D01*
X-324093Y404377D01*
X-326601Y406575D01*
X-343556Y416365D01*
X-346713Y417436D01*
X-349704Y418911D01*
X-368615Y423978D01*
X-371941Y424196D01*
X-375212Y424847D01*
X-394791D01*
X-398061Y424196D01*
X-401388Y423978D01*
X-420300Y418911D01*
X-423291Y417436D01*
X-426447Y416364D01*
X-443403Y406575D01*
X-445909Y404377D01*
X-448682Y402524D01*
X-462526Y388680D01*
X-464378Y385908D01*
X-466577Y383401D01*
X-476366Y366446D01*
X-477438Y363289D01*
X-478913Y360298D01*
X-483980Y341387D01*
X-484144Y338882D01*
X-484794Y336456D01*
X-485435Y326667D01*
X-485325Y325829D01*
X-485490Y325000D01*
Y275824D01*
X-619949D01*
X-626598Y288524D01*
X-624316Y300000D01*
X-627032Y313656D01*
X-634768Y325234D01*
X-639610Y328469D01*
Y423500D01*
X-624002D01*
Y490500D01*
X-696001D01*
Y423500D01*
X-680393D01*
Y328469D01*
X-685235Y325234D01*
X-692971Y313656D01*
X-693527Y310859D01*
X-706476D01*
X-707032Y313656D01*
X-714768Y325234D01*
X-726345Y332969D01*
X-740002Y335686D01*
X-753658Y332969D01*
X-765235Y325234D01*
X-772971Y313656D01*
X-775687Y300000D01*
X-773405Y288524D01*
X-780054Y275824D01*
X-859950D01*
X-866598Y288524D01*
X-864316Y300000D01*
X-867032Y313656D01*
X-874768Y325234D01*
X-886345Y332969D01*
X-900002Y335686D01*
X-907548Y334184D01*
X-913804Y345889D01*
X-820692Y439000D01*
X-816000D01*
Y445596D01*
X-814176Y450000D01*
Y502500D01*
X-816000Y506903D01*
Y511000D01*
X-819389D01*
X-825000Y513324D01*
X-873017D01*
X-879176Y519483D01*
X-879176Y705242D01*
X-879600Y706266D01*
X-879384Y707353D01*
X-881138Y709979D01*
X-882346Y712895D01*
X-883371Y713320D01*
X-883987Y714241D01*
X-885747Y715418D01*
X-887354Y715737D01*
X-888619Y716776D01*
X-889060Y716732D01*
X-896072Y719824D01*
X-901761Y727038D01*
Y734960D01*
X-906529Y746471D01*
X-905672Y755672D01*
X-896471Y756529D01*
X-884960Y751761D01*
X-835040D01*
X-834319Y752059D01*
X-789000D01*
X-780221Y753806D01*
X-772778Y758779D01*
X-761498Y770059D01*
X-736000D01*
Y759500D01*
X-664001D01*
X-664000Y759500D01*
Y759500D01*
X-651300Y761129D01*
X-649656Y760031D01*
X-636000Y757314D01*
X-622343Y760031D01*
X-610766Y767766D01*
X-603031Y779344D01*
X-600314Y793000D01*
X-603031Y806656D01*
X-610766Y818234D01*
X-622343Y825969D01*
X-636000Y828686D01*
X-649656Y825969D01*
X-651300Y824871D01*
X-664000Y831659D01*
Y890500D01*
X-736000D01*
Y875343D01*
X-748700Y873154D01*
X-754767Y882234D01*
X-766344Y889969D01*
X-780000Y892686D01*
X-793657Y889969D01*
X-805234Y882234D01*
X-812969Y870656D01*
X-815686Y857000D01*
X-815495Y856041D01*
X-824721Y845392D01*
X-828166D01*
X-835040Y848239D01*
X-884960D01*
X-896471Y843471D01*
X-899030Y837294D01*
X-912904Y835312D01*
X-913067Y835443D01*
X-913664Y836336D01*
X-916672Y838346D01*
X-922683Y843188D01*
Y857637D01*
X-913664Y863664D01*
X-902524Y880335D01*
X-901139Y887300D01*
X-950000D01*
Y912700D01*
X-901139D01*
X-902524Y919665D01*
X-913664Y936336D01*
X-913873Y936476D01*
X-913080Y943810D01*
X-910969Y949810D01*
X-904846Y952346D01*
X-901676Y960000D01*
Y1070516D01*
X-852192Y1120000D01*
X-847500D01*
Y1128010D01*
X-846676Y1130000D01*
Y1210000D01*
X-847500Y1211989D01*
Y1220000D01*
X-855510D01*
X-857500Y1220824D01*
X-1127500D01*
X-1129490Y1220000D01*
X-1137500D01*
Y1211989D01*
X-1138324Y1210000D01*
Y1110502D01*
X-1138325Y1110500D01*
X-1135154Y1102846D01*
X-1135153Y1102846D01*
X-1076247Y1043939D01*
X-1081507Y1031239D01*
X-1081960D01*
X-1093471Y1026471D01*
X-1098239Y1014960D01*
Y1010392D01*
X-1110532D01*
X-1113767Y1015234D01*
X-1125344Y1022969D01*
X-1139001Y1025686D01*
X-1152657Y1022969D01*
X-1164234Y1015234D01*
X-1171970Y1003656D01*
X-1174686Y990000D01*
X-1172606Y979545D01*
X-1178862Y971680D01*
X-1182488Y969226D01*
X-1189000Y970857D01*
Y976500D01*
X-1260999D01*
Y976500D01*
X-1264001Y976500D01*
Y976500D01*
X-1325608D01*
Y1007051D01*
X-1320551Y1012108D01*
X-1275000D01*
X-1267196Y1013660D01*
X-1260581Y1018081D01*
X-1217582Y1061080D01*
X-1217581Y1061081D01*
X-1213160Y1067696D01*
X-1211608Y1075500D01*
X-1211608Y1075501D01*
Y1123176D01*
X-1198500D01*
X-1190846Y1126346D01*
X-1187676Y1134000D01*
Y1253176D01*
X-931001D01*
X-931000Y1253176D01*
X-923346Y1256346D01*
X-839846Y1339846D01*
X-836676Y1347500D01*
Y1480000D01*
X-839846Y1487654D01*
X-847500Y1490824D01*
X-1251499D01*
X-1251500Y1490825D01*
X-1259154Y1487654D01*
Y1487653D01*
X-1273154Y1473654D01*
X-1274062Y1471461D01*
X-1284500Y1466000D01*
X-1289024Y1466000D01*
X-1308000D01*
Y1430000D01*
Y1394000D01*
X-1289024D01*
X-1284500Y1394000D01*
X-1276324Y1384687D01*
Y1345313D01*
X-1284500Y1336000D01*
X-1289024Y1336000D01*
X-1308000D01*
Y1300000D01*
Y1264000D01*
X-1289024D01*
X-1284500Y1264000D01*
X-1276324Y1254687D01*
Y1215313D01*
X-1284500Y1206000D01*
X-1289024Y1206000D01*
X-1308000D01*
Y1170000D01*
Y1134000D01*
X-1289024D01*
X-1284500Y1134000D01*
X-1274062Y1128539D01*
X-1273154Y1126346D01*
X-1265500Y1123176D01*
X-1252392D01*
Y1083947D01*
X-1283447Y1052892D01*
X-1328998D01*
X-1336801Y1051340D01*
X-1343417Y1046919D01*
X-1360419Y1029917D01*
X-1364840Y1023301D01*
X-1366392Y1015498D01*
Y887503D01*
X-1364840Y879699D01*
X-1360419Y873084D01*
X-1343417Y856081D01*
X-1336801Y851661D01*
X-1336000Y851501D01*
Y823501D01*
X-1264000D01*
Y890500D01*
X-1311529D01*
X-1313500Y890892D01*
X-1320551D01*
X-1325608Y895950D01*
Y909500D01*
X-1264001D01*
Y909500D01*
X-1260999Y909500D01*
Y909500D01*
X-1189000D01*
X-1189000Y909500D01*
Y909500D01*
X-1177001Y907808D01*
X-1176471Y906529D01*
X-1164960Y901761D01*
X-1115040D01*
X-1113803Y902274D01*
X-1111626Y901875D01*
X-1100224Y894152D01*
X-1097476Y880335D01*
X-1086336Y863664D01*
X-1077317Y857637D01*
Y842363D01*
X-1086336Y836336D01*
X-1097476Y819665D01*
X-1098861Y812700D01*
X-1050000D01*
Y787300D01*
X-1098861D01*
X-1097476Y780335D01*
X-1086336Y763664D01*
X-1085302Y762973D01*
X-1087294Y749030D01*
X-1093471Y746471D01*
X-1098239Y734960D01*
Y733990D01*
X-1189000D01*
Y740500D01*
X-1261000D01*
Y673500D01*
X-1189000D01*
Y683011D01*
X-1113739D01*
X-1112500Y670824D01*
X-1120154Y667653D01*
X-1123324Y660000D01*
Y504883D01*
X-1214154Y414054D01*
X-1217324Y406400D01*
X-1217324Y288524D01*
X-1228294Y275824D01*
X-1266078D01*
X-1270900Y287466D01*
X-1272294Y289552D01*
X-1273255Y291872D01*
X-1281968Y304912D01*
X-1283743Y306688D01*
X-1285138Y308775D01*
X-1296227Y319864D01*
X-1298314Y321258D01*
X-1300090Y323034D01*
X-1313129Y331747D01*
X-1315449Y332707D01*
X-1317536Y334102D01*
X-1332025Y340103D01*
X-1334487Y340593D01*
X-1336806Y341554D01*
X-1352188Y344613D01*
X-1354077D01*
X-1355909Y345072D01*
X-1363750Y345458D01*
X-1364379Y345365D01*
X-1365002Y345489D01*
X-1474513D01*
Y5069512D01*
X1474510D01*
Y345489D01*
D02*
G37*
G36*
X-847500Y1347500D02*
X-931000Y1264000D01*
X-1198500D01*
Y1134000D01*
X-1265500D01*
Y1466000D01*
X-1251500Y1480000D01*
X-847500D01*
Y1347500D01*
D02*
G37*
G36*
X-857500Y1130000D02*
X-912500Y1075000D01*
Y960000D01*
X-1040000D01*
Y1023000D01*
X-1127500Y1110500D01*
Y1210000D01*
X-857500D01*
Y1130000D01*
D02*
G37*
G36*
X-915000Y670020D02*
X-906529Y673529D01*
X-901761Y685040D01*
Y701073D01*
X-891761Y706418D01*
X-890000Y705242D01*
X-890000Y514999D01*
X-877501Y502500D01*
X-825000D01*
Y450000D01*
X-995001Y280000D01*
X-1206500D01*
X-1206500Y406400D01*
X-1112500Y500400D01*
Y660000D01*
X-1062500D01*
X-1048059Y674441D01*
X-1043471Y673529D01*
X-1035000Y670020D01*
Y710000D01*
X-1015000D01*
Y670020D01*
X-1006529Y673529D01*
X-1005412Y676225D01*
X-994588D01*
X-993471Y673529D01*
X-985000Y670020D01*
Y710000D01*
X-965000D01*
Y670020D01*
X-956529Y673529D01*
X-955412Y676225D01*
X-944588D01*
X-943471Y673529D01*
X-935000Y670020D01*
Y710000D01*
X-915000D01*
Y670020D01*
D02*
G37*
%LPC*%
G36*
X-580000Y5010000D02*
X-690000D01*
Y4957500D01*
X-580000D01*
Y5010000D01*
D02*
G37*
G36*
X-710000D02*
X-820000D01*
Y4957500D01*
X-710000D01*
Y5010000D01*
D02*
G37*
G36*
X86000Y4919500D02*
X60000D01*
Y4896000D01*
X86000D01*
Y4919500D01*
D02*
G37*
G36*
X-214000D02*
X-240000D01*
Y4896000D01*
X-214000D01*
Y4919500D01*
D02*
G37*
G36*
X-314000D02*
X-340000D01*
Y4896000D01*
X-314000D01*
Y4919500D01*
D02*
G37*
G36*
X40000D02*
X14000D01*
Y4896000D01*
X40000D01*
Y4919500D01*
D02*
G37*
G36*
X-260000D02*
X-286000D01*
Y4896000D01*
X-260000D01*
Y4919500D01*
D02*
G37*
G36*
X-360000D02*
X-386000D01*
Y4896000D01*
X-360000D01*
Y4919500D01*
D02*
G37*
G36*
X186000D02*
X160000D01*
Y4896000D01*
X186000D01*
Y4919500D01*
D02*
G37*
G36*
X140000D02*
X114000D01*
Y4896000D01*
X140000D01*
Y4919500D01*
D02*
G37*
G36*
X-860000Y4860000D02*
X-910000D01*
Y4810001D01*
X-860000D01*
Y4860000D01*
D02*
G37*
G36*
Y4790001D02*
X-910000D01*
Y4740000D01*
X-860000D01*
Y4790001D01*
D02*
G37*
G36*
X-580000Y4642500D02*
X-690000D01*
Y4590000D01*
X-580000D01*
Y4642500D01*
D02*
G37*
G36*
X-710000D02*
X-820000D01*
Y4590000D01*
X-710000D01*
Y4642500D01*
D02*
G37*
G36*
X-580000Y4937500D02*
X-700000D01*
X-820000D01*
Y4901994D01*
X-820824Y4900004D01*
Y4860000D01*
X-840000D01*
Y4800001D01*
Y4740000D01*
X-820824D01*
Y4700004D01*
X-820000Y4698014D01*
Y4662500D01*
X-700000D01*
X-580000D01*
Y4698015D01*
X-579176Y4700004D01*
Y4740000D01*
X-490000D01*
Y4744534D01*
X178400D01*
X181069Y4745065D01*
X211275Y4741089D01*
X241909Y4728400D01*
X268215Y4708214D01*
X288400Y4681908D01*
X301089Y4651274D01*
X305065Y4621073D01*
X304533Y4618400D01*
Y4397367D01*
X292800Y4392507D01*
X254517Y4430790D01*
X246863Y4433961D01*
X239209Y4430790D01*
X239209Y4430789D01*
X233058Y4424639D01*
X232820Y4424064D01*
X232274Y4423764D01*
X221378Y4410202D01*
X221204Y4409604D01*
X220693Y4409247D01*
X211332Y4394583D01*
X211223Y4393970D01*
X210754Y4393560D01*
X203038Y4377967D01*
X202997Y4377346D01*
X202575Y4376888D01*
X199585Y4368719D01*
X199614Y4368032D01*
X198972Y4365112D01*
X198925Y4364999D01*
X192799Y4357784D01*
X189999Y4355783D01*
Y4309998D01*
Y4264413D01*
X192698Y4262464D01*
X197225Y4257149D01*
X199050Y4254665D01*
X199535Y4253493D01*
X199760Y4251965D01*
X199718Y4250914D01*
X205738Y4234585D01*
X206565Y4233690D01*
X206780Y4232490D01*
X225558Y4203185D01*
X226558Y4202488D01*
X227026Y4201362D01*
X251665Y4176779D01*
X252791Y4176314D01*
X253490Y4175315D01*
X282838Y4156604D01*
X284039Y4156392D01*
X284936Y4155566D01*
X301278Y4149584D01*
X301966Y4149613D01*
X304882Y4148973D01*
X304998Y4148925D01*
X312213Y4142799D01*
X314215Y4139999D01*
X405585D01*
X407534Y4142698D01*
X412850Y4147227D01*
X415331Y4149050D01*
X416503Y4149534D01*
X418032Y4149760D01*
X419083Y4149718D01*
X435412Y4155737D01*
X436307Y4156565D01*
X437507Y4156780D01*
X466812Y4175557D01*
X467509Y4176558D01*
X468635Y4177026D01*
X493218Y4201664D01*
X493683Y4202791D01*
X494682Y4203490D01*
X513393Y4232837D01*
X513605Y4234038D01*
X514431Y4234935D01*
X520413Y4251277D01*
X520384Y4251965D01*
X521024Y4254880D01*
X521073Y4254998D01*
X527201Y4262215D01*
X529999Y4264214D01*
Y4309998D01*
Y4355584D01*
X527295Y4357537D01*
X520984Y4364955D01*
X520947Y4365007D01*
X520947Y4365346D01*
X520947Y4365347D01*
X520456Y4366530D01*
X520237Y4368032D01*
X520279Y4369083D01*
X517286Y4377202D01*
X516866Y4377657D01*
X516823Y4378275D01*
X509121Y4393772D01*
X508654Y4394179D01*
X508545Y4394790D01*
X499217Y4409366D01*
X498709Y4409720D01*
X498535Y4410315D01*
X487689Y4423800D01*
X487145Y4424098D01*
X486908Y4424670D01*
X480790Y4430789D01*
X473136Y4433960D01*
X465482Y4430789D01*
Y4430788D01*
X427198Y4392505D01*
X415465Y4397365D01*
Y4618394D01*
X415466Y4618400D01*
X415542D01*
X410986Y4664664D01*
X397491Y4709150D01*
X375577Y4750149D01*
X346085Y4786085D01*
X310149Y4815576D01*
X269151Y4837491D01*
X224664Y4850985D01*
X186000Y4854793D01*
Y4876000D01*
X150000D01*
X114000D01*
Y4855466D01*
X86000D01*
Y4876000D01*
X50000D01*
X14000D01*
Y4855466D01*
X-214000D01*
Y4876000D01*
X-250000D01*
X-286000D01*
Y4855466D01*
X-314000D01*
Y4876000D01*
X-350000D01*
X-386000D01*
Y4855466D01*
X-490000D01*
Y4860000D01*
X-579176D01*
Y4900004D01*
X-580000Y4901993D01*
Y4937500D01*
D02*
G37*
G36*
X567999Y4355331D02*
X549999D01*
Y4319998D01*
X585332D01*
Y4337998D01*
X584013Y4344631D01*
X580255Y4350255D01*
X574632Y4354012D01*
X567999Y4355331D01*
D02*
G37*
G36*
X169999D02*
X151999D01*
X145366Y4354012D01*
X139743Y4350255D01*
X135986Y4344631D01*
X134666Y4337998D01*
Y4319998D01*
X169999D01*
Y4355331D01*
D02*
G37*
G36*
X27999D02*
X9999D01*
Y4319998D01*
X45332D01*
Y4337998D01*
X44013Y4344631D01*
X40255Y4350255D01*
X34632Y4354012D01*
X27999Y4355331D01*
D02*
G37*
G36*
X-10001D02*
X-28001D01*
X-34634Y4354012D01*
X-40257Y4350255D01*
X-44014Y4344631D01*
X-45334Y4337998D01*
Y4319998D01*
X-10001D01*
Y4355331D01*
D02*
G37*
G36*
X-152001D02*
X-170001D01*
Y4319998D01*
X-134668D01*
Y4337998D01*
X-135987Y4344631D01*
X-139744Y4350255D01*
X-145368Y4354012D01*
X-152001Y4355331D01*
D02*
G37*
G36*
X-550000D02*
X-568000D01*
X-574633Y4354012D01*
X-580257Y4350255D01*
X-584014Y4344631D01*
X-585333Y4337998D01*
Y4319998D01*
X-550000D01*
Y4355331D01*
D02*
G37*
G36*
X585332Y4299999D02*
X549999D01*
Y4264666D01*
X567999D01*
X574632Y4265985D01*
X580255Y4269742D01*
X584013Y4275366D01*
X585332Y4281999D01*
Y4299999D01*
D02*
G37*
G36*
X169999D02*
X134666D01*
Y4281999D01*
X135986Y4275366D01*
X139743Y4269742D01*
X145366Y4265985D01*
X151999Y4264666D01*
X169999D01*
Y4299999D01*
D02*
G37*
G36*
X45332D02*
X9999D01*
Y4264666D01*
X27999D01*
X34632Y4265985D01*
X40255Y4269742D01*
X44013Y4275366D01*
X45332Y4281999D01*
Y4299999D01*
D02*
G37*
G36*
X-10001D02*
X-45334D01*
Y4281999D01*
X-44014Y4275366D01*
X-40257Y4269742D01*
X-34634Y4265985D01*
X-28001Y4264666D01*
X-10001D01*
Y4299999D01*
D02*
G37*
G36*
X-134668D02*
X-170001D01*
Y4264666D01*
X-152001D01*
X-145368Y4265985D01*
X-139744Y4269742D01*
X-135987Y4275366D01*
X-134668Y4281999D01*
Y4299999D01*
D02*
G37*
G36*
X-550000D02*
X-585333D01*
Y4281999D01*
X-584014Y4275366D01*
X-580257Y4269742D01*
X-574633Y4265985D01*
X-568000Y4264666D01*
X-550000D01*
Y4299999D01*
D02*
G37*
G36*
X-692000Y4355331D02*
X-748000D01*
X-754633Y4354012D01*
X-760257Y4350255D01*
X-764014Y4344631D01*
X-765333Y4337998D01*
Y4281999D01*
X-764014Y4275366D01*
X-760257Y4269742D01*
X-754633Y4265985D01*
X-748000Y4264666D01*
X-692000D01*
X-685367Y4265985D01*
X-679744Y4269742D01*
X-675987Y4275366D01*
X-674667Y4281999D01*
Y4337998D01*
X-675987Y4344631D01*
X-679744Y4350255D01*
X-685367Y4354012D01*
X-692000Y4355331D01*
D02*
G37*
G36*
X-872000D02*
X-928000D01*
X-934633Y4354012D01*
X-940256Y4350255D01*
X-944014Y4344631D01*
X-945333Y4337998D01*
Y4281999D01*
X-944014Y4275366D01*
X-940256Y4269742D01*
X-934633Y4265985D01*
X-928000Y4264666D01*
X-872000D01*
X-865367Y4265985D01*
X-859744Y4269742D01*
X-855987Y4275366D01*
X-854667Y4281999D01*
Y4337998D01*
X-855987Y4344631D01*
X-859744Y4350255D01*
X-865367Y4354012D01*
X-872000Y4355331D01*
D02*
G37*
G36*
X-1052000D02*
X-1108000D01*
X-1114633Y4354012D01*
X-1120256Y4350255D01*
X-1124014Y4344631D01*
X-1125333Y4337998D01*
Y4281999D01*
X-1124014Y4275366D01*
X-1120256Y4269742D01*
X-1114633Y4265985D01*
X-1108000Y4264666D01*
X-1052000D01*
X-1045367Y4265985D01*
X-1039744Y4269742D01*
X-1035986Y4275366D01*
X-1034667Y4281999D01*
Y4337998D01*
X-1035986Y4344631D01*
X-1039744Y4350255D01*
X-1045367Y4354012D01*
X-1052000Y4355331D01*
D02*
G37*
G36*
X-473136Y4433961D02*
X-480791Y4430790D01*
X-480791Y4430789D01*
X-486941Y4424639D01*
X-487180Y4424064D01*
X-487725Y4423764D01*
X-498621Y4410202D01*
X-498796Y4409604D01*
X-499307Y4409247D01*
X-508668Y4394583D01*
X-508776Y4393970D01*
X-509245Y4393560D01*
X-516961Y4377967D01*
X-517003Y4377346D01*
X-517425Y4376888D01*
X-520415Y4368719D01*
X-520386Y4368032D01*
X-521027Y4365112D01*
X-521074Y4364999D01*
X-527200Y4357784D01*
X-530000Y4355783D01*
Y4309998D01*
Y4264413D01*
X-527302Y4262464D01*
X-522774Y4257149D01*
X-520949Y4254665D01*
X-520465Y4253493D01*
X-520239Y4251965D01*
X-520281Y4250914D01*
X-514262Y4234585D01*
X-513434Y4233690D01*
X-513219Y4232490D01*
X-494442Y4203185D01*
X-493441Y4202488D01*
X-492973Y4201362D01*
X-468335Y4176779D01*
X-467208Y4176314D01*
X-466509Y4175315D01*
X-437162Y4156604D01*
X-435961Y4156392D01*
X-435064Y4155566D01*
X-418722Y4149584D01*
X-418034Y4149613D01*
X-415119Y4148973D01*
X-415001Y4148924D01*
X-407786Y4142799D01*
X-405785Y4139999D01*
X-314415D01*
X-312466Y4142698D01*
X-307149Y4147227D01*
X-304668Y4149050D01*
X-303496Y4149534D01*
X-301967Y4149760D01*
X-300916Y4149718D01*
X-284588Y4155737D01*
X-283692Y4156565D01*
X-282492Y4156780D01*
X-253187Y4175557D01*
X-252490Y4176558D01*
X-251364Y4177026D01*
X-226782Y4201664D01*
X-226317Y4202791D01*
X-225318Y4203490D01*
X-206607Y4232837D01*
X-206395Y4234038D01*
X-205569Y4234935D01*
X-199587Y4251277D01*
X-199616Y4251965D01*
X-198976Y4254879D01*
X-198927Y4254998D01*
X-192799Y4262215D01*
X-190001Y4264214D01*
Y4309998D01*
Y4355584D01*
X-192705Y4357537D01*
X-199016Y4364955D01*
X-199052Y4365007D01*
X-199052Y4365346D01*
X-199052Y4365347D01*
X-199543Y4366530D01*
X-199762Y4368032D01*
X-199720Y4369083D01*
X-202713Y4377202D01*
X-203134Y4377657D01*
X-203176Y4378275D01*
X-210878Y4393772D01*
X-211345Y4394179D01*
X-211454Y4394790D01*
X-220783Y4409366D01*
X-221291Y4409720D01*
X-221465Y4410315D01*
X-232311Y4423800D01*
X-232855Y4424098D01*
X-233091Y4424670D01*
X-239210Y4430789D01*
X-246863Y4433960D01*
X-254518Y4430789D01*
Y4430788D01*
X-312654Y4372652D01*
X-315824Y4364998D01*
Y4362910D01*
X-318944Y4360002D01*
X-328525Y4354640D01*
X-332001Y4355331D01*
X-388000D01*
X-391476Y4354640D01*
X-401057Y4360002D01*
X-404176Y4362910D01*
Y4365000D01*
X-404176Y4365001D01*
X-407347Y4372654D01*
X-465483Y4430790D01*
X-469006Y4432249D01*
X-469135Y4432303D01*
X-469135D01*
X-473136Y4433961D01*
D02*
G37*
G36*
X1287998Y4175332D02*
X1269998D01*
Y4139999D01*
X1305331D01*
Y4157999D01*
X1304012Y4164631D01*
X1300255Y4170255D01*
X1294631Y4174012D01*
X1287998Y4175332D01*
D02*
G37*
G36*
X1249999D02*
X1231999D01*
X1225366Y4174012D01*
X1219742Y4170255D01*
X1215985Y4164631D01*
X1214666Y4157999D01*
Y4139999D01*
X1249999D01*
Y4175332D01*
D02*
G37*
G36*
X567999D02*
X549999D01*
Y4139999D01*
X585332D01*
Y4157999D01*
X584013Y4164631D01*
X580255Y4170255D01*
X574632Y4174012D01*
X567999Y4175332D01*
D02*
G37*
G36*
X529999D02*
X511999D01*
X505366Y4174012D01*
X499743Y4170255D01*
X495985Y4164631D01*
X494666Y4157999D01*
Y4139999D01*
X529999D01*
Y4175332D01*
D02*
G37*
G36*
X207999D02*
X189999D01*
Y4139999D01*
X225332D01*
Y4157999D01*
X224013Y4164631D01*
X220255Y4170255D01*
X214632Y4174012D01*
X207999Y4175332D01*
D02*
G37*
G36*
X169999D02*
X151999D01*
X145366Y4174012D01*
X139743Y4170255D01*
X135986Y4164631D01*
X134666Y4157999D01*
Y4139999D01*
X169999D01*
Y4175332D01*
D02*
G37*
G36*
X27999D02*
X9999D01*
Y4139999D01*
X45332D01*
Y4157999D01*
X44013Y4164631D01*
X40255Y4170255D01*
X34632Y4174012D01*
X27999Y4175332D01*
D02*
G37*
G36*
X-10001D02*
X-28001D01*
X-34634Y4174012D01*
X-40257Y4170255D01*
X-44014Y4164631D01*
X-45334Y4157999D01*
Y4139999D01*
X-10001D01*
Y4175332D01*
D02*
G37*
G36*
X-152001D02*
X-170001D01*
Y4139999D01*
X-134668D01*
Y4157999D01*
X-135987Y4164631D01*
X-139744Y4170255D01*
X-145368Y4174012D01*
X-152001Y4175332D01*
D02*
G37*
G36*
X-190001D02*
X-208001D01*
X-214634Y4174012D01*
X-220257Y4170255D01*
X-224014Y4164631D01*
X-225334Y4157999D01*
Y4139999D01*
X-190001D01*
Y4175332D01*
D02*
G37*
G36*
X-512000D02*
X-530000D01*
Y4139999D01*
X-494668D01*
Y4157999D01*
X-495987Y4164631D01*
X-499744Y4170255D01*
X-505368Y4174012D01*
X-512000Y4175332D01*
D02*
G37*
G36*
X-550000D02*
X-568000D01*
X-574633Y4174012D01*
X-580257Y4170255D01*
X-584014Y4164631D01*
X-585333Y4157999D01*
Y4139999D01*
X-550000D01*
Y4175332D01*
D02*
G37*
G36*
X-1232000D02*
X-1250000D01*
Y4139999D01*
X-1214667D01*
Y4157999D01*
X-1215986Y4164631D01*
X-1219744Y4170255D01*
X-1225367Y4174012D01*
X-1232000Y4175332D01*
D02*
G37*
G36*
X-1270000D02*
X-1288000D01*
X-1294633Y4174012D01*
X-1300256Y4170255D01*
X-1304014Y4164631D01*
X-1305333Y4157999D01*
Y4139999D01*
X-1270000D01*
Y4175332D01*
D02*
G37*
G36*
X1305331Y4119999D02*
X1269998D01*
Y4084666D01*
X1287998D01*
X1294631Y4085985D01*
X1300255Y4089742D01*
X1304012Y4095366D01*
X1305331Y4101999D01*
Y4119999D01*
D02*
G37*
G36*
X1249999D02*
X1214666D01*
Y4101999D01*
X1215985Y4095366D01*
X1219742Y4089742D01*
X1225366Y4085985D01*
X1231999Y4084666D01*
X1249999D01*
Y4119999D01*
D02*
G37*
G36*
X585332D02*
X549999D01*
Y4084666D01*
X567999D01*
X574632Y4085985D01*
X580255Y4089742D01*
X584013Y4095366D01*
X585332Y4101999D01*
Y4119999D01*
D02*
G37*
G36*
X529999D02*
X494666D01*
Y4101999D01*
X495985Y4095366D01*
X499743Y4089742D01*
X505366Y4085985D01*
X511999Y4084666D01*
X529999D01*
Y4119999D01*
D02*
G37*
G36*
X405332D02*
X369999D01*
Y4084666D01*
X387999D01*
X394632Y4085985D01*
X400255Y4089742D01*
X404013Y4095366D01*
X405332Y4101999D01*
Y4119999D01*
D02*
G37*
G36*
X349999D02*
X314666D01*
Y4101999D01*
X315985Y4095366D01*
X319743Y4089742D01*
X325366Y4085985D01*
X331999Y4084666D01*
X349999D01*
Y4119999D01*
D02*
G37*
G36*
X225332D02*
X189999D01*
Y4084666D01*
X207999D01*
X214632Y4085985D01*
X220255Y4089742D01*
X224013Y4095366D01*
X225332Y4101999D01*
Y4119999D01*
D02*
G37*
G36*
X169999D02*
X134666D01*
Y4101999D01*
X135986Y4095366D01*
X139743Y4089742D01*
X145366Y4085985D01*
X151999Y4084666D01*
X169999D01*
Y4119999D01*
D02*
G37*
G36*
X45332D02*
X9999D01*
Y4084666D01*
X27999D01*
X34632Y4085985D01*
X40255Y4089742D01*
X44013Y4095366D01*
X45332Y4101999D01*
Y4119999D01*
D02*
G37*
G36*
X-10001D02*
X-45334D01*
Y4101999D01*
X-44014Y4095366D01*
X-40257Y4089742D01*
X-34634Y4085985D01*
X-28001Y4084666D01*
X-10001D01*
Y4119999D01*
D02*
G37*
G36*
X-134668D02*
X-170001D01*
Y4084666D01*
X-152001D01*
X-145368Y4085985D01*
X-139744Y4089742D01*
X-135987Y4095366D01*
X-134668Y4101999D01*
Y4119999D01*
D02*
G37*
G36*
X-190001D02*
X-225334D01*
Y4101999D01*
X-224014Y4095366D01*
X-220257Y4089742D01*
X-214634Y4085985D01*
X-208001Y4084666D01*
X-190001D01*
Y4119999D01*
D02*
G37*
G36*
X-314668D02*
X-350001D01*
Y4084666D01*
X-332001D01*
X-325368Y4085985D01*
X-319744Y4089742D01*
X-315987Y4095366D01*
X-314668Y4101999D01*
Y4119999D01*
D02*
G37*
G36*
X-370001D02*
X-405333D01*
Y4101999D01*
X-404014Y4095366D01*
X-400257Y4089742D01*
X-394633Y4085985D01*
X-388000Y4084666D01*
X-370001D01*
Y4119999D01*
D02*
G37*
G36*
X-494668D02*
X-530000D01*
Y4084666D01*
X-512000D01*
X-505368Y4085985D01*
X-499744Y4089742D01*
X-495987Y4095366D01*
X-494668Y4101999D01*
Y4119999D01*
D02*
G37*
G36*
X-550000D02*
X-585333D01*
Y4101999D01*
X-584014Y4095366D01*
X-580257Y4089742D01*
X-574633Y4085985D01*
X-568000Y4084666D01*
X-550000D01*
Y4119999D01*
D02*
G37*
G36*
X-692000Y4175332D02*
X-748000D01*
X-754633Y4174012D01*
X-760257Y4170255D01*
X-764014Y4164631D01*
X-765333Y4157999D01*
Y4101999D01*
X-764014Y4095366D01*
X-760257Y4089742D01*
X-754633Y4085985D01*
X-748000Y4084666D01*
X-692000D01*
X-685367Y4085985D01*
X-679744Y4089742D01*
X-675987Y4095366D01*
X-674667Y4101999D01*
Y4157999D01*
X-675987Y4164631D01*
X-679744Y4170255D01*
X-685367Y4174012D01*
X-692000Y4175332D01*
D02*
G37*
G36*
X-872000D02*
X-928000D01*
X-934633Y4174012D01*
X-940256Y4170255D01*
X-944014Y4164631D01*
X-945333Y4157999D01*
Y4101999D01*
X-944014Y4095366D01*
X-940256Y4089742D01*
X-934633Y4085985D01*
X-928000Y4084666D01*
X-872000D01*
X-865367Y4085985D01*
X-859744Y4089742D01*
X-855987Y4095366D01*
X-854667Y4101999D01*
Y4157999D01*
X-855987Y4164631D01*
X-859744Y4170255D01*
X-865367Y4174012D01*
X-872000Y4175332D01*
D02*
G37*
G36*
X-1052000D02*
X-1108000D01*
X-1114633Y4174012D01*
X-1120256Y4170255D01*
X-1124014Y4164631D01*
X-1125333Y4157999D01*
Y4101999D01*
X-1124014Y4095366D01*
X-1120256Y4089742D01*
X-1114633Y4085985D01*
X-1108000Y4084666D01*
X-1052000D01*
X-1045367Y4085985D01*
X-1039744Y4089742D01*
X-1035986Y4095366D01*
X-1034667Y4101999D01*
Y4157999D01*
X-1035986Y4164631D01*
X-1039744Y4170255D01*
X-1045367Y4174012D01*
X-1052000Y4175332D01*
D02*
G37*
G36*
X-1214667Y4119999D02*
X-1250000D01*
Y4084666D01*
X-1232000D01*
X-1225367Y4085985D01*
X-1219744Y4089742D01*
X-1215986Y4095366D01*
X-1214667Y4101999D01*
Y4119999D01*
D02*
G37*
G36*
X-1270000D02*
X-1305333D01*
Y4101999D01*
X-1304014Y4095366D01*
X-1300256Y4089742D01*
X-1294633Y4085985D01*
X-1288000Y4084666D01*
X-1270000D01*
Y4119999D01*
D02*
G37*
G36*
X1120255Y4361079D02*
X859743D01*
X852089Y4357908D01*
X848919Y4350255D01*
Y4089742D01*
X852089Y4082089D01*
X859743Y4078918D01*
X1120255D01*
X1127909Y4082089D01*
X1131079Y4089742D01*
Y4350255D01*
X1127909Y4357908D01*
X1120255Y4361079D01*
D02*
G37*
G36*
X760255D02*
X679743D01*
X672089Y4357908D01*
X668919Y4350255D01*
Y4089742D01*
X672089Y4082089D01*
X679743Y4078918D01*
X760255D01*
X767909Y4082089D01*
X771079Y4089742D01*
Y4350255D01*
X767909Y4357908D01*
X760255Y4361079D01*
D02*
G37*
G36*
X1287998Y3995332D02*
X1269998D01*
Y3959999D01*
X1305331D01*
Y3977999D01*
X1304012Y3984632D01*
X1300255Y3990255D01*
X1294631Y3994012D01*
X1287998Y3995332D01*
D02*
G37*
G36*
X1249999D02*
X1231999D01*
X1225366Y3994012D01*
X1219742Y3990255D01*
X1215985Y3984632D01*
X1214666Y3977999D01*
Y3959999D01*
X1249999D01*
Y3995332D01*
D02*
G37*
G36*
X1107999D02*
X1089999D01*
Y3959999D01*
X1125332D01*
Y3977999D01*
X1124012Y3984632D01*
X1120255Y3990255D01*
X1114632Y3994012D01*
X1107999Y3995332D01*
D02*
G37*
G36*
X1069999D02*
X1051999D01*
X1045366Y3994012D01*
X1039742Y3990255D01*
X1035985Y3984632D01*
X1034666Y3977999D01*
Y3959999D01*
X1069999D01*
Y3995332D01*
D02*
G37*
G36*
X927999D02*
X909999D01*
Y3959999D01*
X945332D01*
Y3977999D01*
X944012Y3984632D01*
X940255Y3990255D01*
X934632Y3994012D01*
X927999Y3995332D01*
D02*
G37*
G36*
X889999D02*
X871999D01*
X865366Y3994012D01*
X859743Y3990255D01*
X855985Y3984632D01*
X854666Y3977999D01*
Y3959999D01*
X889999D01*
Y3995332D01*
D02*
G37*
G36*
X747999D02*
X729999D01*
Y3959999D01*
X765332D01*
Y3977999D01*
X764012Y3984632D01*
X760255Y3990255D01*
X754632Y3994012D01*
X747999Y3995332D01*
D02*
G37*
G36*
X709999D02*
X691999D01*
X685366Y3994012D01*
X679743Y3990255D01*
X675985Y3984632D01*
X674666Y3977999D01*
Y3959999D01*
X709999D01*
Y3995332D01*
D02*
G37*
G36*
X1305331Y3939999D02*
X1269998D01*
Y3904666D01*
X1287998D01*
X1294631Y3905985D01*
X1300255Y3909742D01*
X1304012Y3915366D01*
X1305331Y3921999D01*
Y3939999D01*
D02*
G37*
G36*
X1249999D02*
X1214666D01*
Y3921999D01*
X1215985Y3915366D01*
X1219742Y3909742D01*
X1225366Y3905985D01*
X1231999Y3904666D01*
X1249999D01*
Y3939999D01*
D02*
G37*
G36*
X1125332D02*
X1089999D01*
Y3904666D01*
X1107999D01*
X1114632Y3905985D01*
X1120255Y3909742D01*
X1124012Y3915366D01*
X1125332Y3921999D01*
Y3939999D01*
D02*
G37*
G36*
X1069999D02*
X1034666D01*
Y3921999D01*
X1035985Y3915366D01*
X1039742Y3909742D01*
X1045366Y3905985D01*
X1051999Y3904666D01*
X1069999D01*
Y3939999D01*
D02*
G37*
G36*
X945332D02*
X909999D01*
Y3904666D01*
X927999D01*
X934632Y3905985D01*
X940255Y3909742D01*
X944012Y3915366D01*
X945332Y3921999D01*
Y3939999D01*
D02*
G37*
G36*
X889999D02*
X854666D01*
Y3921999D01*
X855985Y3915366D01*
X859743Y3909742D01*
X865366Y3905985D01*
X871999Y3904666D01*
X889999D01*
Y3939999D01*
D02*
G37*
G36*
X765332D02*
X729999D01*
Y3904666D01*
X747999D01*
X754632Y3905985D01*
X760255Y3909742D01*
X764012Y3915366D01*
X765332Y3921999D01*
Y3939999D01*
D02*
G37*
G36*
X709999D02*
X674666D01*
Y3921999D01*
X675985Y3915366D01*
X679743Y3909742D01*
X685366Y3905985D01*
X691999Y3904666D01*
X709999D01*
Y3939999D01*
D02*
G37*
G36*
X567999Y3995332D02*
X511999D01*
X505366Y3994012D01*
X499743Y3990255D01*
X495985Y3984632D01*
X494666Y3977999D01*
Y3921999D01*
X495985Y3915366D01*
X499743Y3909742D01*
X505366Y3905985D01*
X511999Y3904666D01*
X567999D01*
X574632Y3905985D01*
X580255Y3909742D01*
X584013Y3915366D01*
X585332Y3921999D01*
Y3977999D01*
X584013Y3984632D01*
X580255Y3990255D01*
X574632Y3994012D01*
X567999Y3995332D01*
D02*
G37*
G36*
X387999D02*
X331999D01*
X325366Y3994012D01*
X319743Y3990255D01*
X315985Y3984632D01*
X314666Y3977999D01*
Y3921999D01*
X315985Y3915366D01*
X319743Y3909742D01*
X325366Y3905985D01*
X331999Y3904666D01*
X387999D01*
X394632Y3905985D01*
X400255Y3909742D01*
X404013Y3915366D01*
X405332Y3921999D01*
Y3977999D01*
X404013Y3984632D01*
X400255Y3990255D01*
X394632Y3994012D01*
X387999Y3995332D01*
D02*
G37*
G36*
X207999D02*
X151999D01*
X145366Y3994012D01*
X139743Y3990255D01*
X135986Y3984632D01*
X134666Y3977999D01*
Y3921999D01*
X135986Y3915366D01*
X139743Y3909742D01*
X145366Y3905985D01*
X151999Y3904666D01*
X207999D01*
X214632Y3905985D01*
X220255Y3909742D01*
X224013Y3915366D01*
X225332Y3921999D01*
Y3977999D01*
X224013Y3984632D01*
X220255Y3990255D01*
X214632Y3994012D01*
X207999Y3995332D01*
D02*
G37*
G36*
X27999D02*
X-28001D01*
X-34634Y3994012D01*
X-40257Y3990255D01*
X-44014Y3984632D01*
X-45334Y3977999D01*
Y3921999D01*
X-44014Y3915366D01*
X-40257Y3909742D01*
X-34634Y3905985D01*
X-28001Y3904666D01*
X27999D01*
X34632Y3905985D01*
X40255Y3909742D01*
X44013Y3915366D01*
X45332Y3921999D01*
Y3977999D01*
X44013Y3984632D01*
X40255Y3990255D01*
X34632Y3994012D01*
X27999Y3995332D01*
D02*
G37*
G36*
X-152001D02*
X-208001D01*
X-214634Y3994012D01*
X-220257Y3990255D01*
X-224014Y3984632D01*
X-225334Y3977999D01*
Y3921999D01*
X-224014Y3915366D01*
X-220257Y3909742D01*
X-214634Y3905985D01*
X-208001Y3904666D01*
X-152001D01*
X-145368Y3905985D01*
X-139744Y3909742D01*
X-135987Y3915366D01*
X-134668Y3921999D01*
Y3977999D01*
X-135987Y3984632D01*
X-139744Y3990255D01*
X-145368Y3994012D01*
X-152001Y3995332D01*
D02*
G37*
G36*
X-332001D02*
X-388000D01*
X-394633Y3994012D01*
X-400257Y3990255D01*
X-404014Y3984632D01*
X-405333Y3977999D01*
Y3921999D01*
X-404014Y3915366D01*
X-400257Y3909742D01*
X-394633Y3905985D01*
X-388000Y3904666D01*
X-332001D01*
X-325368Y3905985D01*
X-319744Y3909742D01*
X-315987Y3915366D01*
X-314668Y3921999D01*
Y3977999D01*
X-315987Y3984632D01*
X-319744Y3990255D01*
X-325368Y3994012D01*
X-332001Y3995332D01*
D02*
G37*
G36*
X-512000D02*
X-568000D01*
X-574633Y3994012D01*
X-580257Y3990255D01*
X-584014Y3984632D01*
X-585333Y3977999D01*
Y3921999D01*
X-584014Y3915366D01*
X-580257Y3909742D01*
X-574633Y3905985D01*
X-568000Y3904666D01*
X-512000D01*
X-505368Y3905985D01*
X-499744Y3909742D01*
X-495987Y3915366D01*
X-494668Y3921999D01*
Y3977999D01*
X-495987Y3984632D01*
X-499744Y3990255D01*
X-505368Y3994012D01*
X-512000Y3995332D01*
D02*
G37*
G36*
X-692000D02*
X-748000D01*
X-754633Y3994012D01*
X-760257Y3990255D01*
X-764014Y3984632D01*
X-765333Y3977999D01*
Y3921999D01*
X-764014Y3915366D01*
X-760257Y3909742D01*
X-754633Y3905985D01*
X-748000Y3904666D01*
X-692000D01*
X-685367Y3905985D01*
X-679744Y3909742D01*
X-675987Y3915366D01*
X-674667Y3921999D01*
Y3977999D01*
X-675987Y3984632D01*
X-679744Y3990255D01*
X-685367Y3994012D01*
X-692000Y3995332D01*
D02*
G37*
G36*
X-872000D02*
X-928000D01*
X-934633Y3994012D01*
X-940256Y3990255D01*
X-944014Y3984632D01*
X-945333Y3977999D01*
Y3921999D01*
X-944014Y3915366D01*
X-940256Y3909742D01*
X-934633Y3905985D01*
X-928000Y3904666D01*
X-872000D01*
X-865367Y3905985D01*
X-859744Y3909742D01*
X-855987Y3915366D01*
X-854667Y3921999D01*
Y3977999D01*
X-855987Y3984632D01*
X-859744Y3990255D01*
X-865367Y3994012D01*
X-872000Y3995332D01*
D02*
G37*
G36*
X-1052000D02*
X-1108000D01*
X-1114633Y3994012D01*
X-1120256Y3990255D01*
X-1124014Y3984632D01*
X-1125333Y3977999D01*
Y3921999D01*
X-1124014Y3915366D01*
X-1120256Y3909742D01*
X-1114633Y3905985D01*
X-1108000Y3904666D01*
X-1052000D01*
X-1045367Y3905985D01*
X-1039744Y3909742D01*
X-1035986Y3915366D01*
X-1034667Y3921999D01*
Y3977999D01*
X-1035986Y3984632D01*
X-1039744Y3990255D01*
X-1045367Y3994012D01*
X-1052000Y3995332D01*
D02*
G37*
G36*
X-1232000D02*
X-1288000D01*
X-1294633Y3994012D01*
X-1300256Y3990255D01*
X-1304014Y3984632D01*
X-1305333Y3977999D01*
Y3921999D01*
X-1304014Y3915366D01*
X-1300256Y3909742D01*
X-1294633Y3905985D01*
X-1288000Y3904666D01*
X-1243506D01*
X-1204550Y3865710D01*
X-1205686Y3859998D01*
X-1202969Y3846341D01*
X-1195234Y3834764D01*
X-1183656Y3827028D01*
X-1170000Y3824312D01*
X-1156344Y3827028D01*
X-1144766Y3834764D01*
X-1137031Y3846341D01*
X-1134314Y3859998D01*
X-1137031Y3873654D01*
X-1144766Y3885231D01*
X-1156344Y3892967D01*
X-1170000Y3895683D01*
X-1175710Y3894547D01*
X-1214667Y3933504D01*
Y3977999D01*
X-1215986Y3984632D01*
X-1219744Y3990255D01*
X-1225367Y3994012D01*
X-1232000Y3995332D01*
D02*
G37*
G36*
X1107999Y3815332D02*
X1089999D01*
Y3779999D01*
X1125332D01*
Y3797999D01*
X1124012Y3804632D01*
X1120255Y3810255D01*
X1114632Y3814012D01*
X1107999Y3815332D01*
D02*
G37*
G36*
X1069999D02*
X1051999D01*
X1045366Y3814012D01*
X1039742Y3810255D01*
X1035985Y3804632D01*
X1034666Y3797999D01*
Y3779999D01*
X1069999D01*
Y3815332D01*
D02*
G37*
G36*
X927999D02*
X909999D01*
Y3779999D01*
X945332D01*
Y3797999D01*
X944012Y3804632D01*
X940255Y3810255D01*
X934632Y3814012D01*
X927999Y3815332D01*
D02*
G37*
G36*
X889999D02*
X871999D01*
X865366Y3814012D01*
X859743Y3810255D01*
X855985Y3804632D01*
X854666Y3797999D01*
Y3779999D01*
X889999D01*
Y3815332D01*
D02*
G37*
G36*
X747999D02*
X729999D01*
Y3779999D01*
X765332D01*
Y3797999D01*
X764012Y3804632D01*
X760255Y3810255D01*
X754632Y3814012D01*
X747999Y3815332D01*
D02*
G37*
G36*
X709999D02*
X691999D01*
X685366Y3814012D01*
X679743Y3810255D01*
X675985Y3804632D01*
X674666Y3797999D01*
Y3779999D01*
X709999D01*
Y3815332D01*
D02*
G37*
G36*
X-692000D02*
X-710000D01*
Y3779999D01*
X-674667D01*
Y3797999D01*
X-675987Y3804632D01*
X-679744Y3810255D01*
X-685367Y3814012D01*
X-692000Y3815332D01*
D02*
G37*
G36*
X-730000D02*
X-748000D01*
X-754633Y3814012D01*
X-760257Y3810255D01*
X-764014Y3804632D01*
X-765333Y3797999D01*
Y3779999D01*
X-730000D01*
Y3815332D01*
D02*
G37*
G36*
X-1232000D02*
X-1250000D01*
Y3779999D01*
X-1214667D01*
Y3797999D01*
X-1215986Y3804632D01*
X-1219744Y3810255D01*
X-1225367Y3814012D01*
X-1232000Y3815332D01*
D02*
G37*
G36*
X-1270000D02*
X-1288000D01*
X-1294633Y3814012D01*
X-1300256Y3810255D01*
X-1304014Y3804632D01*
X-1305333Y3797999D01*
Y3779999D01*
X-1270000D01*
Y3815332D01*
D02*
G37*
G36*
X1287998D02*
X1231999D01*
X1225366Y3814012D01*
X1219742Y3810255D01*
X1215985Y3804632D01*
X1214666Y3797999D01*
Y3741999D01*
X1215985Y3735366D01*
X1219742Y3729743D01*
X1225366Y3725985D01*
X1231999Y3724666D01*
X1287998D01*
X1294631Y3725985D01*
X1300255Y3729743D01*
X1304012Y3735366D01*
X1305331Y3741999D01*
Y3797999D01*
X1304012Y3804632D01*
X1300255Y3810255D01*
X1294631Y3814012D01*
X1287998Y3815332D01*
D02*
G37*
G36*
X1125332Y3759999D02*
X1089999D01*
Y3724666D01*
X1107999D01*
X1114632Y3725985D01*
X1120255Y3729743D01*
X1124012Y3735366D01*
X1125332Y3741999D01*
Y3759999D01*
D02*
G37*
G36*
X1069999D02*
X1034666D01*
Y3741999D01*
X1035985Y3735366D01*
X1039742Y3729743D01*
X1045366Y3725985D01*
X1051999Y3724666D01*
X1069999D01*
Y3759999D01*
D02*
G37*
G36*
X567999Y3815332D02*
X511999D01*
X505366Y3814012D01*
X499743Y3810255D01*
X495985Y3804632D01*
X494666Y3797999D01*
Y3741999D01*
X495985Y3735366D01*
X499743Y3729743D01*
X505366Y3725985D01*
X511999Y3724666D01*
X567999D01*
X574632Y3725985D01*
X580255Y3729743D01*
X584013Y3735366D01*
X585332Y3741999D01*
Y3797999D01*
X584013Y3804632D01*
X580255Y3810255D01*
X574632Y3814012D01*
X567999Y3815332D01*
D02*
G37*
G36*
X269999Y3895686D02*
X256343Y3892969D01*
X244765Y3885234D01*
X237030Y3873656D01*
X234313Y3860000D01*
X237030Y3846344D01*
X244765Y3834766D01*
X256343Y3827031D01*
X269999Y3824314D01*
X275709Y3825450D01*
X314666Y3786493D01*
Y3741999D01*
X315985Y3735366D01*
X319743Y3729743D01*
X325366Y3725985D01*
X331999Y3724666D01*
X387999D01*
X394632Y3725985D01*
X400255Y3729743D01*
X404013Y3735366D01*
X405332Y3741999D01*
Y3797999D01*
X404013Y3804632D01*
X400255Y3810255D01*
X394632Y3814012D01*
X387999Y3815332D01*
X343505D01*
X304549Y3854288D01*
X305685Y3860000D01*
X302968Y3873656D01*
X295233Y3885234D01*
X283655Y3892969D01*
X269999Y3895686D01*
D02*
G37*
G36*
X207999Y3815332D02*
X151999D01*
X145366Y3814012D01*
X139743Y3810255D01*
X135986Y3804632D01*
X134666Y3797999D01*
Y3741999D01*
X135986Y3735366D01*
X139743Y3729743D01*
X145366Y3725985D01*
X151999Y3724666D01*
X207999D01*
X214632Y3725985D01*
X220255Y3729743D01*
X224013Y3735366D01*
X225332Y3741999D01*
Y3797999D01*
X224013Y3804632D01*
X220255Y3810255D01*
X214632Y3814012D01*
X207999Y3815332D01*
D02*
G37*
G36*
X27999D02*
X-28001D01*
X-34634Y3814012D01*
X-40257Y3810255D01*
X-44014Y3804632D01*
X-45334Y3797999D01*
Y3741999D01*
X-44014Y3735366D01*
X-40257Y3729743D01*
X-34634Y3725985D01*
X-28001Y3724666D01*
X27999D01*
X34632Y3725985D01*
X40255Y3729743D01*
X44013Y3735366D01*
X45332Y3741999D01*
Y3797999D01*
X44013Y3804632D01*
X40255Y3810255D01*
X34632Y3814012D01*
X27999Y3815332D01*
D02*
G37*
G36*
X-152001D02*
X-208001D01*
X-214634Y3814012D01*
X-220257Y3810255D01*
X-224014Y3804632D01*
X-225334Y3797999D01*
Y3741999D01*
X-224014Y3735366D01*
X-220257Y3729743D01*
X-214634Y3725985D01*
X-208001Y3724666D01*
X-152001D01*
X-145368Y3725985D01*
X-139744Y3729743D01*
X-135987Y3735366D01*
X-134668Y3741999D01*
Y3797999D01*
X-135987Y3804632D01*
X-139744Y3810255D01*
X-145368Y3814012D01*
X-152001Y3815332D01*
D02*
G37*
G36*
X-332001D02*
X-388000D01*
X-394633Y3814012D01*
X-400257Y3810255D01*
X-404014Y3804632D01*
X-405333Y3797999D01*
Y3741999D01*
X-404014Y3735366D01*
X-400257Y3729743D01*
X-394633Y3725985D01*
X-388000Y3724666D01*
X-332001D01*
X-325368Y3725985D01*
X-319744Y3729743D01*
X-315987Y3735366D01*
X-314668Y3741999D01*
Y3797999D01*
X-315987Y3804632D01*
X-319744Y3810255D01*
X-325368Y3814012D01*
X-332001Y3815332D01*
D02*
G37*
G36*
X-512000D02*
X-568000D01*
X-574633Y3814012D01*
X-580257Y3810255D01*
X-584014Y3804632D01*
X-585333Y3797999D01*
Y3741999D01*
X-584014Y3735366D01*
X-580257Y3729743D01*
X-574633Y3725985D01*
X-568000Y3724666D01*
X-512000D01*
X-505368Y3725985D01*
X-499744Y3729743D01*
X-495987Y3735366D01*
X-494668Y3741999D01*
Y3797999D01*
X-495987Y3804632D01*
X-499744Y3810255D01*
X-505368Y3814012D01*
X-512000Y3815332D01*
D02*
G37*
G36*
X-674667Y3759999D02*
X-710000D01*
Y3724666D01*
X-692000D01*
X-685367Y3725985D01*
X-679744Y3729743D01*
X-675987Y3735366D01*
X-674667Y3741999D01*
Y3759999D01*
D02*
G37*
G36*
X-730000D02*
X-765333D01*
Y3741999D01*
X-764014Y3735366D01*
X-760257Y3729743D01*
X-754633Y3725985D01*
X-748000Y3724666D01*
X-730000D01*
Y3759999D01*
D02*
G37*
G36*
X-872000Y3815332D02*
X-928000D01*
X-934633Y3814012D01*
X-940256Y3810255D01*
X-944014Y3804632D01*
X-945333Y3797999D01*
Y3741999D01*
X-944014Y3735366D01*
X-940256Y3729743D01*
X-934633Y3725985D01*
X-928000Y3724666D01*
X-872000D01*
X-865367Y3725985D01*
X-859744Y3729743D01*
X-855987Y3735366D01*
X-854667Y3741999D01*
Y3797999D01*
X-855987Y3804632D01*
X-859744Y3810255D01*
X-865367Y3814012D01*
X-872000Y3815332D01*
D02*
G37*
G36*
X-1052000D02*
X-1108000D01*
X-1114633Y3814012D01*
X-1120256Y3810255D01*
X-1124014Y3804632D01*
X-1125333Y3797999D01*
Y3741999D01*
X-1124014Y3735366D01*
X-1120256Y3729743D01*
X-1114633Y3725985D01*
X-1108000Y3724666D01*
X-1052000D01*
X-1045367Y3725985D01*
X-1039744Y3729743D01*
X-1035986Y3735366D01*
X-1034667Y3741999D01*
Y3797999D01*
X-1035986Y3804632D01*
X-1039744Y3810255D01*
X-1045367Y3814012D01*
X-1052000Y3815332D01*
D02*
G37*
G36*
X-1214667Y3759999D02*
X-1250000D01*
Y3724666D01*
X-1232000D01*
X-1225367Y3725985D01*
X-1219744Y3729743D01*
X-1215986Y3735366D01*
X-1214667Y3741999D01*
Y3759999D01*
D02*
G37*
G36*
X-1270000D02*
X-1305333D01*
Y3741999D01*
X-1304014Y3735366D01*
X-1300256Y3729743D01*
X-1294633Y3725985D01*
X-1288000Y3724666D01*
X-1270000D01*
Y3759999D01*
D02*
G37*
G36*
X945332D02*
X854666D01*
Y3741999D01*
X855985Y3735366D01*
X856556Y3734512D01*
X853882Y3722069D01*
X846277Y3719424D01*
X843075Y3719176D01*
X833656Y3725469D01*
X820000Y3728186D01*
X806344Y3725469D01*
X794767Y3717734D01*
X785234D01*
X773657Y3725469D01*
X772789Y3725642D01*
X764012Y3735366D01*
X765332Y3741999D01*
Y3759999D01*
X674666D01*
Y3741999D01*
X675985Y3735366D01*
X679743Y3729743D01*
X685366Y3725985D01*
X691999Y3724666D01*
X724124D01*
X730913Y3711966D01*
X727031Y3706156D01*
X724315Y3692500D01*
X727031Y3678844D01*
X734767Y3667266D01*
X746344Y3659531D01*
X760000Y3656814D01*
X773657Y3659531D01*
X785234Y3667266D01*
X794767D01*
X806344Y3659531D01*
X820000Y3656814D01*
X833656Y3659531D01*
X845234Y3667266D01*
X854767D01*
X866344Y3659531D01*
X880000Y3656814D01*
X893656Y3659531D01*
X905233Y3667266D01*
X914767D01*
X926344Y3659531D01*
X940000Y3656814D01*
X953656Y3659531D01*
X965234Y3667266D01*
X972969Y3678844D01*
X975686Y3692500D01*
X972969Y3706156D01*
X965234Y3717734D01*
X953656Y3725469D01*
X952789Y3725642D01*
X944012Y3735366D01*
X945332Y3741999D01*
Y3759999D01*
D02*
G37*
G36*
X1287998Y3635332D02*
X1269998D01*
Y3599999D01*
X1305331D01*
Y3617999D01*
X1304012Y3624632D01*
X1300255Y3630255D01*
X1294631Y3634013D01*
X1287998Y3635332D01*
D02*
G37*
G36*
X1249999D02*
X1231999D01*
X1225366Y3634013D01*
X1219742Y3630255D01*
X1215985Y3624632D01*
X1214666Y3617999D01*
Y3599999D01*
X1249999D01*
Y3635332D01*
D02*
G37*
G36*
X1107999D02*
X1089999D01*
Y3599999D01*
X1125332D01*
Y3617999D01*
X1124012Y3624632D01*
X1120255Y3630255D01*
X1114632Y3634013D01*
X1107999Y3635332D01*
D02*
G37*
G36*
X1069999D02*
X1051999D01*
X1045366Y3634013D01*
X1039742Y3630255D01*
X1035985Y3624632D01*
X1034666Y3617999D01*
Y3599999D01*
X1069999D01*
Y3635332D01*
D02*
G37*
G36*
X927999D02*
X909999D01*
Y3599999D01*
X945332D01*
Y3617999D01*
X944012Y3624632D01*
X940255Y3630255D01*
X934632Y3634013D01*
X927999Y3635332D01*
D02*
G37*
G36*
X889999D02*
X871999D01*
X865366Y3634013D01*
X859743Y3630255D01*
X855985Y3624632D01*
X854666Y3617999D01*
Y3599999D01*
X889999D01*
Y3635332D01*
D02*
G37*
G36*
X1305331Y3579999D02*
X1269998D01*
Y3544666D01*
X1287998D01*
X1294631Y3545985D01*
X1300255Y3549743D01*
X1304012Y3555366D01*
X1305331Y3561999D01*
Y3579999D01*
D02*
G37*
G36*
X1249999D02*
X1214666D01*
Y3561999D01*
X1215985Y3555366D01*
X1219742Y3549743D01*
X1225366Y3545985D01*
X1231999Y3544666D01*
X1249999D01*
Y3579999D01*
D02*
G37*
G36*
X1125332D02*
X1089999D01*
Y3544666D01*
X1107999D01*
X1114632Y3545985D01*
X1120255Y3549743D01*
X1124012Y3555366D01*
X1125332Y3561999D01*
Y3579999D01*
D02*
G37*
G36*
X1069999D02*
X1034666D01*
Y3561999D01*
X1035985Y3555366D01*
X1039742Y3549743D01*
X1045366Y3545985D01*
X1051999Y3544666D01*
X1069999D01*
Y3579999D01*
D02*
G37*
G36*
X945332D02*
X909999D01*
Y3544666D01*
X927999D01*
X934632Y3545985D01*
X940255Y3549743D01*
X944012Y3555366D01*
X945332Y3561999D01*
Y3579999D01*
D02*
G37*
G36*
X889999D02*
X854666D01*
Y3561999D01*
X855985Y3555366D01*
X859743Y3549743D01*
X865366Y3545985D01*
X871999Y3544666D01*
X889999D01*
Y3579999D01*
D02*
G37*
G36*
X747999Y3635332D02*
X691999D01*
X685366Y3634013D01*
X679743Y3630255D01*
X675985Y3624632D01*
X674666Y3617999D01*
Y3561999D01*
X675985Y3555366D01*
X679743Y3549743D01*
X685366Y3545985D01*
X691999Y3544666D01*
X747999D01*
X754632Y3545985D01*
X760255Y3549743D01*
X764012Y3555366D01*
X765332Y3561999D01*
Y3617999D01*
X764012Y3624632D01*
X760255Y3630255D01*
X754632Y3634013D01*
X747999Y3635332D01*
D02*
G37*
G36*
X-692000D02*
X-748000D01*
X-754633Y3634013D01*
X-760257Y3630255D01*
X-764014Y3624632D01*
X-765333Y3617999D01*
Y3561999D01*
X-764014Y3555366D01*
X-760257Y3549743D01*
X-754633Y3545985D01*
X-748000Y3544666D01*
X-692000D01*
X-685367Y3545985D01*
X-679744Y3549743D01*
X-675987Y3555366D01*
X-674667Y3561999D01*
Y3617999D01*
X-675987Y3624632D01*
X-679744Y3630255D01*
X-685367Y3634013D01*
X-692000Y3635332D01*
D02*
G37*
G36*
X-872000D02*
X-928000D01*
X-934633Y3634013D01*
X-940256Y3630255D01*
X-944014Y3624632D01*
X-945333Y3617999D01*
Y3561999D01*
X-944014Y3555366D01*
X-940256Y3549743D01*
X-934633Y3545985D01*
X-928000Y3544666D01*
X-872000D01*
X-865367Y3545985D01*
X-859744Y3549743D01*
X-855987Y3555366D01*
X-854667Y3561999D01*
Y3617999D01*
X-855987Y3624632D01*
X-859744Y3630255D01*
X-865367Y3634013D01*
X-872000Y3635332D01*
D02*
G37*
G36*
X-1052000D02*
X-1108000D01*
X-1114633Y3634013D01*
X-1120256Y3630255D01*
X-1124014Y3624632D01*
X-1125333Y3617999D01*
Y3561999D01*
X-1124014Y3555366D01*
X-1120256Y3549743D01*
X-1114633Y3545985D01*
X-1108000Y3544666D01*
X-1052000D01*
X-1045367Y3545985D01*
X-1039744Y3549743D01*
X-1035986Y3555366D01*
X-1034667Y3561999D01*
Y3617999D01*
X-1035986Y3624632D01*
X-1039744Y3630255D01*
X-1045367Y3634013D01*
X-1052000Y3635332D01*
D02*
G37*
G36*
X-1232000D02*
X-1288000D01*
X-1294633Y3634013D01*
X-1300256Y3630255D01*
X-1304014Y3624632D01*
X-1305333Y3617999D01*
Y3561999D01*
X-1304014Y3555366D01*
X-1300256Y3549743D01*
X-1294633Y3545985D01*
X-1288000Y3544666D01*
X-1243506D01*
X-1204550Y3505710D01*
X-1205686Y3499998D01*
X-1202969Y3486342D01*
X-1195234Y3474764D01*
X-1183656Y3467029D01*
X-1170000Y3464312D01*
X-1156344Y3467029D01*
X-1144766Y3474764D01*
X-1137031Y3486342D01*
X-1134314Y3499998D01*
X-1137031Y3513654D01*
X-1144766Y3525231D01*
X-1156344Y3532967D01*
X-1170000Y3535684D01*
X-1175710Y3534548D01*
X-1214667Y3573505D01*
Y3617999D01*
X-1215986Y3624632D01*
X-1219744Y3630255D01*
X-1225367Y3634013D01*
X-1232000Y3635332D01*
D02*
G37*
G36*
X1287998Y3455332D02*
X1269998D01*
Y3419999D01*
X1305331D01*
Y3437999D01*
X1304012Y3444632D01*
X1300255Y3450255D01*
X1294631Y3454013D01*
X1287998Y3455332D01*
D02*
G37*
G36*
X1249999D02*
X1231999D01*
X1225366Y3454013D01*
X1219742Y3450255D01*
X1215985Y3444632D01*
X1214666Y3437999D01*
Y3419999D01*
X1249999D01*
Y3455332D01*
D02*
G37*
G36*
X1107999D02*
X1089999D01*
Y3419999D01*
X1125332D01*
Y3437999D01*
X1124012Y3444632D01*
X1120255Y3450255D01*
X1114632Y3454013D01*
X1107999Y3455332D01*
D02*
G37*
G36*
X1069999D02*
X1051999D01*
X1045366Y3454013D01*
X1039742Y3450255D01*
X1035985Y3444632D01*
X1034666Y3437999D01*
Y3419999D01*
X1069999D01*
Y3455332D01*
D02*
G37*
G36*
X927999D02*
X909999D01*
Y3419999D01*
X945332D01*
Y3437999D01*
X944012Y3444632D01*
X940255Y3450255D01*
X934632Y3454013D01*
X927999Y3455332D01*
D02*
G37*
G36*
X889999D02*
X871999D01*
X865366Y3454013D01*
X859743Y3450255D01*
X855985Y3444632D01*
X854666Y3437999D01*
Y3419999D01*
X889999D01*
Y3455332D01*
D02*
G37*
G36*
X-1052000D02*
X-1108000D01*
X-1114633Y3454013D01*
X-1120256Y3450255D01*
X-1124014Y3444632D01*
X-1125333Y3437999D01*
Y3381999D01*
X-1134802Y3370392D01*
X-1205199D01*
X-1214667Y3381999D01*
Y3437999D01*
X-1215986Y3444632D01*
X-1219744Y3450255D01*
X-1225367Y3454013D01*
X-1232000Y3455332D01*
X-1288000D01*
X-1294633Y3454013D01*
X-1300256Y3450255D01*
X-1304014Y3444632D01*
X-1305333Y3437999D01*
Y3381999D01*
X-1304014Y3375366D01*
X-1300256Y3369743D01*
X-1294633Y3365985D01*
X-1288000Y3364666D01*
X-1260349D01*
Y3361716D01*
X-1258797Y3353912D01*
X-1254377Y3347296D01*
X-1242661Y3335581D01*
X-1242661Y3335581D01*
X-1236045Y3331160D01*
X-1228242Y3329608D01*
X-1228240Y3329608D01*
X-1028469D01*
X-1025234Y3324766D01*
X-1013656Y3317031D01*
X-1000000Y3314314D01*
X-986344Y3317031D01*
X-974766Y3324766D01*
X-967031Y3336344D01*
X-964314Y3350000D01*
X-967031Y3363656D01*
X-974766Y3375234D01*
X-986344Y3382969D01*
X-1000000Y3385686D01*
X-1013656Y3382969D01*
X-1022732Y3376905D01*
X-1032067Y3380889D01*
X-1034667Y3383042D01*
Y3437999D01*
X-1035986Y3444632D01*
X-1039744Y3450255D01*
X-1045367Y3454013D01*
X-1052000Y3455332D01*
D02*
G37*
G36*
X1305331Y3399999D02*
X1269998D01*
Y3364666D01*
X1287998D01*
X1294631Y3365985D01*
X1300255Y3369743D01*
X1304012Y3375366D01*
X1305331Y3381999D01*
Y3399999D01*
D02*
G37*
G36*
X1249999D02*
X1214666D01*
Y3381999D01*
X1215985Y3375366D01*
X1219742Y3369743D01*
X1225366Y3365985D01*
X1231999Y3364666D01*
X1249999D01*
Y3399999D01*
D02*
G37*
G36*
X1125332D02*
X1089999D01*
Y3364666D01*
X1107999D01*
X1114632Y3365985D01*
X1120255Y3369743D01*
X1124012Y3375366D01*
X1125332Y3381999D01*
Y3399999D01*
D02*
G37*
G36*
X1069999D02*
X1034666D01*
Y3381999D01*
X1035985Y3375366D01*
X1039742Y3369743D01*
X1045366Y3365985D01*
X1051999Y3364666D01*
X1069999D01*
Y3399999D01*
D02*
G37*
G36*
X945332D02*
X909999D01*
Y3364666D01*
X927999D01*
X934632Y3365985D01*
X940255Y3369743D01*
X944012Y3375366D01*
X945332Y3381999D01*
Y3399999D01*
D02*
G37*
G36*
X889999D02*
X854666D01*
Y3381999D01*
X855985Y3375366D01*
X859743Y3369743D01*
X865366Y3365985D01*
X871999Y3364666D01*
X889999D01*
Y3399999D01*
D02*
G37*
G36*
X-692000Y3455332D02*
X-748000D01*
X-754633Y3454013D01*
X-760257Y3450255D01*
X-764014Y3444632D01*
X-765333Y3437999D01*
Y3381999D01*
X-764014Y3375366D01*
X-760257Y3369743D01*
X-754633Y3365985D01*
X-748000Y3364666D01*
X-692000D01*
X-685367Y3365985D01*
X-679744Y3369743D01*
X-675987Y3375366D01*
X-674667Y3381999D01*
Y3437999D01*
X-675987Y3444632D01*
X-679744Y3450255D01*
X-685367Y3454013D01*
X-692000Y3455332D01*
D02*
G37*
G36*
X-872000D02*
X-928000D01*
X-934633Y3454013D01*
X-940256Y3450255D01*
X-944014Y3444632D01*
X-945333Y3437999D01*
Y3381999D01*
X-944014Y3375366D01*
X-940256Y3369743D01*
X-934633Y3365985D01*
X-928000Y3364666D01*
X-872000D01*
X-865367Y3365985D01*
X-859744Y3369743D01*
X-855987Y3375366D01*
X-854667Y3381999D01*
Y3437999D01*
X-855987Y3444632D01*
X-859744Y3450255D01*
X-865367Y3454013D01*
X-872000Y3455332D01*
D02*
G37*
G36*
X747999D02*
X691999D01*
X685366Y3454013D01*
X679743Y3450255D01*
X675985Y3444632D01*
X674666Y3437999D01*
Y3381999D01*
X675985Y3375366D01*
X679743Y3369743D01*
X685366Y3365985D01*
X691999Y3364666D01*
X736493D01*
X775449Y3325710D01*
X774313Y3319998D01*
X777030Y3306342D01*
X784765Y3294764D01*
X796343Y3287029D01*
X809999Y3284312D01*
X823655Y3287029D01*
X835233Y3294764D01*
X842968Y3306342D01*
X845685Y3319998D01*
X842968Y3333654D01*
X835233Y3345232D01*
X823655Y3352967D01*
X809999Y3355684D01*
X804288Y3354548D01*
X765332Y3393505D01*
Y3437999D01*
X764012Y3444632D01*
X760255Y3450255D01*
X754632Y3454013D01*
X747999Y3455332D01*
D02*
G37*
G36*
X-100000Y3293186D02*
X-113656Y3290469D01*
X-125234Y3282734D01*
X-129020Y3277067D01*
X-130718Y3275989D01*
X-143676Y3273572D01*
X-145232Y3273923D01*
X-145367Y3274014D01*
X-152000Y3275333D01*
X-170000D01*
Y3230000D01*
Y3184667D01*
X-152000D01*
X-145367Y3185986D01*
X-139744Y3189744D01*
X-135986Y3195367D01*
X-134667Y3202000D01*
Y3224458D01*
X-132867Y3225948D01*
X-121967Y3230084D01*
X-113656Y3224531D01*
X-100000Y3221814D01*
X-86344Y3224531D01*
X-74766Y3232267D01*
X-67031Y3243844D01*
X-64314Y3257500D01*
X-67031Y3271157D01*
X-74766Y3282734D01*
X-86344Y3290469D01*
X-100000Y3293186D01*
D02*
G37*
G36*
X208000Y3275333D02*
X190000D01*
Y3240000D01*
X225333D01*
Y3258000D01*
X224014Y3264633D01*
X220256Y3270256D01*
X214633Y3274014D01*
X208000Y3275333D01*
D02*
G37*
G36*
X170000D02*
X152000D01*
X145367Y3274014D01*
X139744Y3270256D01*
X135986Y3264633D01*
X134667Y3258000D01*
Y3240000D01*
X170000D01*
Y3275333D01*
D02*
G37*
G36*
X27999D02*
X9999D01*
Y3240000D01*
X45332D01*
Y3258000D01*
X44013Y3264633D01*
X40255Y3270256D01*
X34632Y3274014D01*
X27999Y3275333D01*
D02*
G37*
G36*
X-10001D02*
X-28001D01*
X-34634Y3274014D01*
X-40257Y3270256D01*
X-44014Y3264633D01*
X-45334Y3258000D01*
Y3240000D01*
X-10001D01*
Y3275333D01*
D02*
G37*
G36*
X-190000D02*
X-208000D01*
X-214633Y3274014D01*
X-220256Y3270256D01*
X-224014Y3264633D01*
X-225333Y3258000D01*
Y3240000D01*
X-190000D01*
Y3275333D01*
D02*
G37*
G36*
X225333Y3220000D02*
X190000D01*
Y3184667D01*
X208000D01*
X214633Y3185986D01*
X220256Y3189744D01*
X224014Y3195367D01*
X225333Y3202000D01*
Y3220000D01*
D02*
G37*
G36*
X170000D02*
X134667D01*
Y3202000D01*
X135986Y3195367D01*
X139744Y3189744D01*
X145367Y3185986D01*
X152000Y3184667D01*
X170000D01*
Y3220000D01*
D02*
G37*
G36*
X45332D02*
X9999D01*
Y3184667D01*
X27999D01*
X34632Y3185986D01*
X40255Y3189744D01*
X44013Y3195367D01*
X45332Y3202000D01*
Y3220000D01*
D02*
G37*
G36*
X-10001D02*
X-45334D01*
Y3202000D01*
X-44014Y3195367D01*
X-40257Y3189744D01*
X-34634Y3185986D01*
X-28001Y3184667D01*
X-10001D01*
Y3220000D01*
D02*
G37*
G36*
X-190000D02*
X-225333D01*
Y3202000D01*
X-224014Y3195367D01*
X-220256Y3189744D01*
X-214633Y3185986D01*
X-208000Y3184667D01*
X-190000D01*
Y3220000D01*
D02*
G37*
G36*
X1287998Y3275332D02*
X1231999D01*
X1225366Y3274013D01*
X1219742Y3270255D01*
X1215985Y3264632D01*
X1214666Y3257999D01*
Y3201999D01*
X1215985Y3195366D01*
X1219742Y3189743D01*
X1225366Y3185985D01*
X1231999Y3184666D01*
X1287998D01*
X1294631Y3185985D01*
X1300255Y3189743D01*
X1304012Y3195366D01*
X1305331Y3201999D01*
Y3257999D01*
X1304012Y3264632D01*
X1300255Y3270255D01*
X1294631Y3274013D01*
X1287998Y3275332D01*
D02*
G37*
G36*
X1107999D02*
X1051999D01*
X1045366Y3274013D01*
X1039742Y3270255D01*
X1035985Y3264632D01*
X1034666Y3257999D01*
Y3201999D01*
X1035985Y3195366D01*
X1039742Y3189743D01*
X1045366Y3185985D01*
X1051999Y3184666D01*
X1107999D01*
X1114632Y3185985D01*
X1120255Y3189743D01*
X1124012Y3195366D01*
X1125332Y3201999D01*
Y3257999D01*
X1124012Y3264632D01*
X1120255Y3270255D01*
X1114632Y3274013D01*
X1107999Y3275332D01*
D02*
G37*
G36*
X927999D02*
X871999D01*
X865366Y3274013D01*
X859743Y3270255D01*
X855985Y3264632D01*
X854666Y3257999D01*
Y3201999D01*
X855985Y3195366D01*
X859743Y3189743D01*
X865366Y3185985D01*
X871999Y3184666D01*
X927999D01*
X934632Y3185985D01*
X940255Y3189743D01*
X944012Y3195366D01*
X945332Y3201999D01*
Y3257999D01*
X944012Y3264632D01*
X940255Y3270255D01*
X934632Y3274013D01*
X927999Y3275332D01*
D02*
G37*
G36*
X747999D02*
X691999D01*
X685366Y3274013D01*
X679743Y3270255D01*
X675985Y3264632D01*
X674666Y3257999D01*
Y3201999D01*
X675985Y3195366D01*
X679743Y3189743D01*
X685366Y3185985D01*
X691999Y3184666D01*
X747999D01*
X754632Y3185985D01*
X760255Y3189743D01*
X764012Y3195366D01*
X765332Y3201999D01*
Y3257999D01*
X764012Y3264632D01*
X760255Y3270255D01*
X754632Y3274013D01*
X747999Y3275332D01*
D02*
G37*
G36*
X-692000D02*
X-748000D01*
X-754633Y3274013D01*
X-760257Y3270255D01*
X-764014Y3264632D01*
X-765333Y3257999D01*
Y3201999D01*
X-764014Y3195366D01*
X-760257Y3189743D01*
X-754633Y3185985D01*
X-748000Y3184666D01*
X-692000D01*
X-685367Y3185985D01*
X-679744Y3189743D01*
X-675987Y3195366D01*
X-674667Y3201999D01*
Y3257999D01*
X-675987Y3264632D01*
X-679744Y3270255D01*
X-685367Y3274013D01*
X-692000Y3275332D01*
D02*
G37*
G36*
X-872000D02*
X-928000D01*
X-934633Y3274013D01*
X-940256Y3270255D01*
X-944014Y3264632D01*
X-945333Y3257999D01*
Y3201999D01*
X-944014Y3195366D01*
X-940256Y3189743D01*
X-934633Y3185985D01*
X-928000Y3184666D01*
X-872000D01*
X-865367Y3185985D01*
X-859744Y3189743D01*
X-855987Y3195366D01*
X-854667Y3201999D01*
Y3257999D01*
X-855987Y3264632D01*
X-859744Y3270255D01*
X-865367Y3274013D01*
X-872000Y3275332D01*
D02*
G37*
G36*
X-1052000D02*
X-1108000D01*
X-1114633Y3274013D01*
X-1120256Y3270255D01*
X-1124014Y3264632D01*
X-1125333Y3257999D01*
Y3201999D01*
X-1124014Y3195366D01*
X-1120256Y3189743D01*
X-1114633Y3185985D01*
X-1108000Y3184666D01*
X-1052000D01*
X-1045367Y3185985D01*
X-1039744Y3189743D01*
X-1035986Y3195366D01*
X-1034667Y3201999D01*
Y3257999D01*
X-1035986Y3264632D01*
X-1039744Y3270255D01*
X-1045367Y3274013D01*
X-1052000Y3275332D01*
D02*
G37*
G36*
X-1232000D02*
X-1288000D01*
X-1294633Y3274013D01*
X-1300256Y3270255D01*
X-1304014Y3264632D01*
X-1305333Y3257999D01*
Y3201999D01*
X-1304014Y3195366D01*
X-1300256Y3189743D01*
X-1294633Y3185985D01*
X-1288000Y3184666D01*
X-1260648D01*
Y3181417D01*
X-1259096Y3173613D01*
X-1254676Y3166997D01*
X-1223259Y3135581D01*
X-1223259Y3135581D01*
X-1216643Y3131160D01*
X-1208840Y3129608D01*
X-1028469D01*
X-1025234Y3124766D01*
X-1013656Y3117031D01*
X-1000000Y3114314D01*
X-986344Y3117031D01*
X-974766Y3124766D01*
X-967031Y3136344D01*
X-964314Y3150000D01*
X-967031Y3163656D01*
X-974766Y3175234D01*
X-986344Y3182969D01*
X-1000000Y3185686D01*
X-1013656Y3182969D01*
X-1025234Y3175234D01*
X-1028469Y3170392D01*
X-1200393D01*
X-1210763Y3180762D01*
X-1219744Y3189743D01*
X-1215986Y3195366D01*
X-1214667Y3201999D01*
Y3257999D01*
X-1215986Y3264632D01*
X-1219744Y3270255D01*
X-1225367Y3274013D01*
X-1232000Y3275332D01*
D02*
G37*
G36*
X-809999Y3175685D02*
X-823655Y3172969D01*
X-835233Y3165233D01*
X-842968Y3153656D01*
X-845685Y3139999D01*
X-844549Y3134289D01*
X-883506Y3095332D01*
X-928000D01*
X-934633Y3094013D01*
X-940256Y3090255D01*
X-944014Y3084632D01*
X-945333Y3077999D01*
Y3021999D01*
X-944014Y3015366D01*
X-940256Y3009743D01*
X-934633Y3005986D01*
X-928000Y3004666D01*
X-872000D01*
X-865367Y3005986D01*
X-859744Y3009743D01*
X-855987Y3015366D01*
X-854667Y3021999D01*
Y3066493D01*
X-815711Y3105450D01*
X-809999Y3104314D01*
X-796343Y3107030D01*
X-784766Y3114766D01*
X-777030Y3126343D01*
X-774313Y3139999D01*
X-777030Y3153656D01*
X-784766Y3165233D01*
X-796343Y3172969D01*
X-809999Y3175685D01*
D02*
G37*
G36*
X1287998Y3095332D02*
X1269998D01*
Y3059999D01*
X1305331D01*
Y3077999D01*
X1304012Y3084632D01*
X1300255Y3090255D01*
X1294631Y3094013D01*
X1287998Y3095332D01*
D02*
G37*
G36*
X1249999D02*
X1231999D01*
X1225366Y3094013D01*
X1219742Y3090255D01*
X1215985Y3084632D01*
X1214666Y3077999D01*
Y3059999D01*
X1249999D01*
Y3095332D01*
D02*
G37*
G36*
X1107999D02*
X1089999D01*
Y3059999D01*
X1125332D01*
Y3077999D01*
X1124012Y3084632D01*
X1120255Y3090255D01*
X1114632Y3094013D01*
X1107999Y3095332D01*
D02*
G37*
G36*
X1069999D02*
X1051999D01*
X1045366Y3094013D01*
X1039742Y3090255D01*
X1035985Y3084632D01*
X1034666Y3077999D01*
Y3059999D01*
X1069999D01*
Y3095332D01*
D02*
G37*
G36*
X208000D02*
X190000D01*
Y3059999D01*
X225333D01*
Y3077999D01*
X224014Y3084632D01*
X220256Y3090255D01*
X214633Y3094013D01*
X208000Y3095332D01*
D02*
G37*
G36*
X170000D02*
X152000D01*
X145367Y3094013D01*
X139744Y3090255D01*
X135986Y3084632D01*
X134667Y3077999D01*
Y3059999D01*
X170000D01*
Y3095332D01*
D02*
G37*
G36*
X27999D02*
X9999D01*
Y3059999D01*
X45332D01*
Y3077999D01*
X44013Y3084632D01*
X40255Y3090255D01*
X34632Y3094013D01*
X27999Y3095332D01*
D02*
G37*
G36*
X-10001D02*
X-28001D01*
X-34634Y3094013D01*
X-40257Y3090255D01*
X-44014Y3084632D01*
X-45334Y3077999D01*
Y3059999D01*
X-10001D01*
Y3095332D01*
D02*
G37*
G36*
X-152000D02*
X-170000D01*
Y3059999D01*
X-134667D01*
Y3077999D01*
X-135986Y3084632D01*
X-139744Y3090255D01*
X-145367Y3094013D01*
X-152000Y3095332D01*
D02*
G37*
G36*
X-190000D02*
X-208000D01*
X-214633Y3094013D01*
X-220256Y3090255D01*
X-224014Y3084632D01*
X-225333Y3077999D01*
Y3059999D01*
X-190000D01*
Y3095332D01*
D02*
G37*
G36*
X1305783Y3039999D02*
X1214413D01*
X1212459Y3037294D01*
X1204998Y3030948D01*
X1204658D01*
X1204657Y3030948D01*
X1203479Y3030460D01*
X1201965Y3030238D01*
X1200914Y3030280D01*
X1184585Y3024260D01*
X1183690Y3023433D01*
X1182490Y3023218D01*
X1153185Y3004441D01*
X1152488Y3003440D01*
X1151362Y3002972D01*
X1126779Y2978333D01*
X1126314Y2977207D01*
X1125315Y2976508D01*
X1106604Y2947160D01*
X1106392Y2945960D01*
X1105566Y2945062D01*
X1099584Y2928721D01*
X1099613Y2928032D01*
X1098973Y2925117D01*
X1098924Y2925000D01*
Y2924999D01*
X1092798Y2917785D01*
X1089999Y2915784D01*
Y2869999D01*
Y2824414D01*
X1092697Y2822465D01*
X1097226Y2817149D01*
X1099050Y2814667D01*
X1099534Y2813494D01*
X1099760Y2811966D01*
X1099718Y2810915D01*
X1105737Y2794586D01*
X1106565Y2793691D01*
X1106780Y2792491D01*
X1125557Y2763186D01*
X1126558Y2762489D01*
X1127026Y2761363D01*
X1151664Y2736780D01*
X1152791Y2736315D01*
X1153490Y2735316D01*
X1182837Y2716605D01*
X1184038Y2716393D01*
X1184935Y2715568D01*
X1201277Y2709585D01*
X1201965Y2709614D01*
X1204882Y2708974D01*
X1204998Y2708926D01*
X1212213Y2702800D01*
X1214214Y2699999D01*
X1305584D01*
X1307539Y2702706D01*
X1314999Y2709051D01*
X1315339D01*
X1316516Y2709538D01*
X1318032Y2709761D01*
X1319083Y2709719D01*
X1327202Y2712712D01*
X1327657Y2713132D01*
X1328275Y2713175D01*
X1343772Y2720877D01*
X1344179Y2721344D01*
X1344790Y2721453D01*
X1359366Y2730781D01*
X1359720Y2731289D01*
X1360315Y2731463D01*
X1373800Y2742309D01*
X1374098Y2742853D01*
X1374670Y2743090D01*
X1380788Y2749207D01*
X1380790Y2749208D01*
X1383960Y2756862D01*
X1380790Y2764516D01*
X1380788Y2764517D01*
X1322652Y2822653D01*
X1314998Y2825823D01*
X1312910D01*
X1310002Y2828943D01*
X1304640Y2838523D01*
X1305331Y2841999D01*
Y2897999D01*
X1304640Y2901475D01*
X1310002Y2911056D01*
X1312910Y2914175D01*
X1315000D01*
X1315001Y2914175D01*
X1322654Y2917345D01*
X1380790Y2975481D01*
X1383961Y2983135D01*
X1380790Y2990789D01*
X1380789Y2990790D01*
X1374639Y2996940D01*
X1374064Y2997178D01*
X1373764Y2997724D01*
X1360202Y3008620D01*
X1359604Y3008794D01*
X1359247Y3009305D01*
X1344583Y3018666D01*
X1343970Y3018775D01*
X1343560Y3019244D01*
X1327967Y3026960D01*
X1327346Y3027002D01*
X1326888Y3027423D01*
X1318719Y3030413D01*
X1318032Y3030385D01*
X1315115Y3031025D01*
X1314999Y3031073D01*
X1314998D01*
X1307784Y3037200D01*
X1305783Y3039999D01*
D02*
G37*
G36*
X1125332D02*
X1089999D01*
Y3004666D01*
X1107999D01*
X1114632Y3005986D01*
X1120255Y3009743D01*
X1124012Y3015366D01*
X1125332Y3021999D01*
Y3039999D01*
D02*
G37*
G36*
X1069999D02*
X1034666D01*
Y3021999D01*
X1035985Y3015366D01*
X1039742Y3009743D01*
X1045366Y3005986D01*
X1051999Y3004666D01*
X1069999D01*
Y3039999D01*
D02*
G37*
G36*
X927999Y3095332D02*
X871999D01*
X865366Y3094013D01*
X859743Y3090255D01*
X855985Y3084632D01*
X854666Y3077999D01*
Y3021999D01*
X855985Y3015366D01*
X859743Y3009743D01*
X865366Y3005986D01*
X871999Y3004666D01*
X927999D01*
X934632Y3005986D01*
X940255Y3009743D01*
X944012Y3015366D01*
X945332Y3021999D01*
Y3077999D01*
X944012Y3084632D01*
X940255Y3090255D01*
X934632Y3094013D01*
X927999Y3095332D01*
D02*
G37*
G36*
X747999D02*
X691999D01*
X685366Y3094013D01*
X679743Y3090255D01*
X675985Y3084632D01*
X674666Y3077999D01*
Y3021999D01*
X675985Y3015366D01*
X679743Y3009743D01*
X685366Y3005986D01*
X691999Y3004666D01*
X747999D01*
X754632Y3005986D01*
X760255Y3009743D01*
X764012Y3015366D01*
X765332Y3021999D01*
Y3077999D01*
X764012Y3084632D01*
X760255Y3090255D01*
X754632Y3094013D01*
X747999Y3095332D01*
D02*
G37*
G36*
X225333Y3039999D02*
X190000D01*
Y3004666D01*
X208000D01*
X214633Y3005986D01*
X220256Y3009743D01*
X224014Y3015366D01*
X225333Y3021999D01*
Y3039999D01*
D02*
G37*
G36*
X170000D02*
X134667D01*
Y3021999D01*
X135986Y3015366D01*
X139744Y3009743D01*
X145367Y3005986D01*
X152000Y3004666D01*
X170000D01*
Y3039999D01*
D02*
G37*
G36*
X45332D02*
X9999D01*
Y3004666D01*
X27999D01*
X34632Y3005986D01*
X40255Y3009743D01*
X44013Y3015366D01*
X45332Y3021999D01*
Y3039999D01*
D02*
G37*
G36*
X-10001D02*
X-45334D01*
Y3021999D01*
X-44014Y3015366D01*
X-40257Y3009743D01*
X-34634Y3005986D01*
X-28001Y3004666D01*
X-10001D01*
Y3039999D01*
D02*
G37*
G36*
X-190000D02*
X-225333D01*
Y3021999D01*
X-224014Y3015366D01*
X-220256Y3009743D01*
X-214633Y3005986D01*
X-208000Y3004666D01*
X-190000D01*
Y3039999D01*
D02*
G37*
G36*
X-692000Y3095332D02*
X-748000D01*
X-754633Y3094013D01*
X-760257Y3090255D01*
X-764014Y3084632D01*
X-765333Y3077999D01*
Y3021999D01*
X-764014Y3015366D01*
X-760257Y3009743D01*
X-754633Y3005986D01*
X-748000Y3004666D01*
X-692000D01*
X-685367Y3005986D01*
X-679744Y3009743D01*
X-675987Y3015366D01*
X-674667Y3021999D01*
Y3077999D01*
X-675987Y3084632D01*
X-679744Y3090255D01*
X-685367Y3094013D01*
X-692000Y3095332D01*
D02*
G37*
G36*
X-1052000D02*
X-1108000D01*
X-1114633Y3094013D01*
X-1120256Y3090255D01*
X-1124014Y3084632D01*
X-1125333Y3077999D01*
Y3021999D01*
X-1124014Y3015366D01*
X-1120256Y3009743D01*
X-1114633Y3005986D01*
X-1108000Y3004666D01*
X-1052000D01*
X-1045367Y3005986D01*
X-1039744Y3009743D01*
X-1035986Y3015366D01*
X-1034667Y3021999D01*
Y3077999D01*
X-1035986Y3084632D01*
X-1039744Y3090255D01*
X-1045367Y3094013D01*
X-1052000Y3095332D01*
D02*
G37*
G36*
X-1232000D02*
X-1288000D01*
X-1294633Y3094013D01*
X-1300256Y3090255D01*
X-1304014Y3084632D01*
X-1305333Y3077999D01*
Y3021999D01*
X-1304014Y3015366D01*
X-1300256Y3009743D01*
X-1294633Y3005986D01*
X-1288000Y3004666D01*
X-1232000D01*
X-1225367Y3005986D01*
X-1219744Y3009743D01*
X-1215986Y3015366D01*
X-1214667Y3021999D01*
Y3077999D01*
X-1215986Y3084632D01*
X-1219744Y3090255D01*
X-1225367Y3094013D01*
X-1232000Y3095332D01*
D02*
G37*
G36*
X-134667Y3039999D02*
X-170000D01*
Y3004666D01*
X-152000D01*
X-148038Y3005454D01*
X-143748Y3004776D01*
X-134576Y2997922D01*
X-132969Y2989844D01*
X-125234Y2978267D01*
X-113656Y2970531D01*
X-100000Y2967814D01*
X-86344Y2970531D01*
X-74766Y2978267D01*
X-67031Y2989844D01*
X-64314Y3003500D01*
X-67031Y3017157D01*
X-74766Y3028734D01*
X-86344Y3036469D01*
X-100000Y3039186D01*
X-113656Y3036469D01*
X-121967Y3030917D01*
X-132867Y3035052D01*
X-134667Y3036542D01*
Y3039999D01*
D02*
G37*
G36*
X208000Y2915333D02*
X190000D01*
Y2880000D01*
X225333D01*
Y2898000D01*
X224014Y2904633D01*
X220256Y2910256D01*
X214633Y2914014D01*
X208000Y2915333D01*
D02*
G37*
G36*
X170000D02*
X152000D01*
X145367Y2914014D01*
X139744Y2910256D01*
X135986Y2904633D01*
X134667Y2898000D01*
Y2880000D01*
X170000D01*
Y2915333D01*
D02*
G37*
G36*
X27999D02*
X9999D01*
Y2880000D01*
X45332D01*
Y2898000D01*
X44013Y2904633D01*
X40255Y2910256D01*
X34632Y2914014D01*
X27999Y2915333D01*
D02*
G37*
G36*
X-10001D02*
X-28001D01*
X-34634Y2914014D01*
X-40257Y2910256D01*
X-44014Y2904633D01*
X-45334Y2898000D01*
Y2880000D01*
X-10001D01*
Y2915333D01*
D02*
G37*
G36*
X-190000D02*
X-208000D01*
X-214633Y2914014D01*
X-220256Y2910256D01*
X-224014Y2904633D01*
X-225333Y2898000D01*
Y2880000D01*
X-190000D01*
Y2915333D01*
D02*
G37*
G36*
X1069999Y2915332D02*
X1051999D01*
X1045366Y2914013D01*
X1039742Y2910256D01*
X1035985Y2904632D01*
X1034666Y2897999D01*
Y2879999D01*
X1069999D01*
Y2915332D01*
D02*
G37*
G36*
X-152000Y2915333D02*
X-170000D01*
Y2870000D01*
Y2824667D01*
X-152000D01*
X-145367Y2825986D01*
X-139744Y2829744D01*
X-135986Y2835367D01*
X-134667Y2842000D01*
Y2843458D01*
X-132867Y2844948D01*
X-121967Y2849084D01*
X-113656Y2843531D01*
X-100000Y2840814D01*
X-86344Y2843531D01*
X-74766Y2851267D01*
X-67031Y2862844D01*
X-64314Y2876500D01*
X-67031Y2890157D01*
X-74766Y2901734D01*
X-86344Y2909469D01*
X-100000Y2912186D01*
X-113656Y2909469D01*
X-122786Y2903369D01*
X-131354Y2904190D01*
X-137279Y2906567D01*
X-139744Y2910256D01*
X-145367Y2914014D01*
X-152000Y2915333D01*
D02*
G37*
G36*
X225333Y2860000D02*
X190000D01*
Y2824667D01*
X208000D01*
X214633Y2825986D01*
X220256Y2829744D01*
X224014Y2835367D01*
X225333Y2842000D01*
Y2860000D01*
D02*
G37*
G36*
X170000D02*
X134667D01*
Y2842000D01*
X135986Y2835367D01*
X139744Y2829744D01*
X145367Y2825986D01*
X152000Y2824667D01*
X170000D01*
Y2860000D01*
D02*
G37*
G36*
X45332D02*
X9999D01*
Y2824667D01*
X27999D01*
X34632Y2825986D01*
X40255Y2829744D01*
X44013Y2835367D01*
X45332Y2842000D01*
Y2860000D01*
D02*
G37*
G36*
X-10001D02*
X-45334D01*
Y2842000D01*
X-44014Y2835367D01*
X-40257Y2829744D01*
X-34634Y2825986D01*
X-28001Y2824667D01*
X-10001D01*
Y2860000D01*
D02*
G37*
G36*
X-190000D02*
X-225333D01*
Y2842000D01*
X-224014Y2835367D01*
X-220256Y2829744D01*
X-214633Y2825986D01*
X-208000Y2824667D01*
X-190000D01*
Y2860000D01*
D02*
G37*
G36*
X1069999Y2859999D02*
X1034666D01*
Y2841999D01*
X1035985Y2835366D01*
X1039742Y2829743D01*
X1045366Y2825986D01*
X1051999Y2824666D01*
X1069999D01*
Y2859999D01*
D02*
G37*
G36*
X927999Y2915332D02*
X871999D01*
X865366Y2914013D01*
X859743Y2910256D01*
X855985Y2904632D01*
X854666Y2897999D01*
Y2841999D01*
X855985Y2835366D01*
X859743Y2829743D01*
X865366Y2825986D01*
X871999Y2824666D01*
X927999D01*
X934632Y2825986D01*
X940255Y2829743D01*
X944012Y2835366D01*
X945332Y2841999D01*
Y2897999D01*
X944012Y2904632D01*
X940255Y2910256D01*
X934632Y2914013D01*
X927999Y2915332D01*
D02*
G37*
G36*
X-692000D02*
X-748000D01*
X-754633Y2914013D01*
X-760257Y2910256D01*
X-764014Y2904632D01*
X-765333Y2897999D01*
Y2841999D01*
X-764014Y2835366D01*
X-760257Y2829743D01*
X-754633Y2825986D01*
X-748000Y2824666D01*
X-692000D01*
X-685367Y2825986D01*
X-679744Y2829743D01*
X-675987Y2835366D01*
X-674667Y2841999D01*
Y2897999D01*
X-675987Y2904632D01*
X-679744Y2910256D01*
X-685367Y2914013D01*
X-692000Y2915332D01*
D02*
G37*
G36*
X-872000D02*
X-928000D01*
X-934633Y2914013D01*
X-940256Y2910256D01*
X-944014Y2904632D01*
X-945333Y2897999D01*
Y2841999D01*
X-944014Y2835366D01*
X-940256Y2829743D01*
X-934633Y2825986D01*
X-928000Y2824666D01*
X-872000D01*
X-865367Y2825986D01*
X-859744Y2829743D01*
X-855987Y2835366D01*
X-854667Y2841999D01*
Y2897999D01*
X-855987Y2904632D01*
X-859744Y2910256D01*
X-865367Y2914013D01*
X-872000Y2915332D01*
D02*
G37*
G36*
X-1052000D02*
X-1108000D01*
X-1114633Y2914013D01*
X-1120256Y2910256D01*
X-1124014Y2904632D01*
X-1125333Y2897999D01*
Y2841999D01*
X-1124014Y2835366D01*
X-1120256Y2829743D01*
X-1114633Y2825986D01*
X-1108000Y2824666D01*
X-1052000D01*
X-1045367Y2825986D01*
X-1039744Y2829743D01*
X-1035986Y2835366D01*
X-1034667Y2841999D01*
Y2897999D01*
X-1035986Y2904632D01*
X-1039744Y2910256D01*
X-1045367Y2914013D01*
X-1052000Y2915332D01*
D02*
G37*
G36*
X-1232000D02*
X-1288000D01*
X-1294633Y2914013D01*
X-1300256Y2910256D01*
X-1304014Y2904632D01*
X-1305333Y2897999D01*
Y2841999D01*
X-1304014Y2835366D01*
X-1300256Y2829743D01*
X-1294633Y2825986D01*
X-1288000Y2824666D01*
X-1232000D01*
X-1225367Y2825986D01*
X-1219744Y2829743D01*
X-1215986Y2835366D01*
X-1214667Y2841999D01*
Y2897999D01*
X-1215986Y2904632D01*
X-1219744Y2910256D01*
X-1225367Y2914013D01*
X-1232000Y2915332D01*
D02*
G37*
G36*
X747999D02*
X691999D01*
X685366Y2914013D01*
X679743Y2910256D01*
X675985Y2904632D01*
X674666Y2897999D01*
Y2841999D01*
X675985Y2835366D01*
X679743Y2829743D01*
X685366Y2825986D01*
X691999Y2824666D01*
X736493D01*
X775449Y2785710D01*
X774313Y2779998D01*
X777030Y2766342D01*
X784765Y2754765D01*
X796343Y2747029D01*
X809999Y2744313D01*
X823655Y2747029D01*
X835233Y2754765D01*
X842968Y2766342D01*
X845685Y2779998D01*
X842968Y2793655D01*
X835233Y2805232D01*
X823655Y2812967D01*
X809999Y2815684D01*
X804288Y2814548D01*
X765332Y2853505D01*
Y2897999D01*
X764012Y2904632D01*
X760255Y2910256D01*
X754632Y2914013D01*
X747999Y2915332D01*
D02*
G37*
G36*
X-100000Y2785186D02*
X-113656Y2782469D01*
X-125234Y2774734D01*
X-132969Y2763157D01*
X-135686Y2749500D01*
X-132969Y2735844D01*
X-125234Y2724267D01*
X-113656Y2716531D01*
X-100000Y2713814D01*
X-86344Y2716531D01*
X-74766Y2724267D01*
X-67031Y2735844D01*
X-64314Y2749500D01*
X-67031Y2763157D01*
X-74766Y2774734D01*
X-86344Y2782469D01*
X-100000Y2785186D01*
D02*
G37*
G36*
X1107999Y2735332D02*
X1089999D01*
Y2699999D01*
X1125332D01*
Y2717999D01*
X1124012Y2724632D01*
X1120255Y2730256D01*
X1114632Y2734013D01*
X1107999Y2735332D01*
D02*
G37*
G36*
X1069999D02*
X1051999D01*
X1045366Y2734013D01*
X1039742Y2730256D01*
X1035985Y2724632D01*
X1034666Y2717999D01*
Y2699999D01*
X1069999D01*
Y2735332D01*
D02*
G37*
G36*
X1305331Y2679999D02*
X1269998D01*
Y2644667D01*
X1287998D01*
X1294631Y2645986D01*
X1300255Y2649743D01*
X1304012Y2655367D01*
X1305331Y2662000D01*
Y2679999D01*
D02*
G37*
G36*
X1249999D02*
X1214666D01*
Y2662000D01*
X1215985Y2655367D01*
X1219742Y2649743D01*
X1225366Y2645986D01*
X1231999Y2644667D01*
X1249999D01*
Y2679999D01*
D02*
G37*
G36*
X1125332D02*
X1089999D01*
Y2644667D01*
X1107999D01*
X1114632Y2645986D01*
X1120255Y2649743D01*
X1124012Y2655367D01*
X1125332Y2662000D01*
Y2679999D01*
D02*
G37*
G36*
X1069999D02*
X1034666D01*
Y2662000D01*
X1035985Y2655367D01*
X1039742Y2649743D01*
X1045366Y2645986D01*
X1051999Y2644667D01*
X1069999D01*
Y2679999D01*
D02*
G37*
G36*
X927999Y2735332D02*
X871999D01*
X865366Y2734013D01*
X859743Y2730256D01*
X855985Y2724632D01*
X854666Y2717999D01*
Y2662000D01*
X855985Y2655367D01*
X859743Y2649743D01*
X865366Y2645986D01*
X871999Y2644667D01*
X927999D01*
X934632Y2645986D01*
X940255Y2649743D01*
X944012Y2655367D01*
X945332Y2662000D01*
Y2717999D01*
X944012Y2724632D01*
X940255Y2730256D01*
X934632Y2734013D01*
X927999Y2735332D01*
D02*
G37*
G36*
X747999D02*
X691999D01*
X685366Y2734013D01*
X679743Y2730256D01*
X675985Y2724632D01*
X674666Y2717999D01*
Y2662000D01*
X675985Y2655367D01*
X679743Y2649743D01*
X685366Y2645986D01*
X691999Y2644667D01*
X747999D01*
X754632Y2645986D01*
X760255Y2649743D01*
X764012Y2655367D01*
X765332Y2662000D01*
Y2717999D01*
X764012Y2724632D01*
X760255Y2730256D01*
X754632Y2734013D01*
X747999Y2735332D01*
D02*
G37*
G36*
X-692000D02*
X-748000D01*
X-754633Y2734013D01*
X-760257Y2730256D01*
X-764014Y2724632D01*
X-765333Y2717999D01*
Y2662000D01*
X-764014Y2655367D01*
X-760257Y2649743D01*
X-754633Y2645986D01*
X-748000Y2644667D01*
X-692000D01*
X-685367Y2645986D01*
X-679744Y2649743D01*
X-675987Y2655367D01*
X-674667Y2662000D01*
Y2717999D01*
X-675987Y2724632D01*
X-679744Y2730256D01*
X-685367Y2734013D01*
X-692000Y2735332D01*
D02*
G37*
G36*
X-872000D02*
X-928000D01*
X-934633Y2734013D01*
X-940256Y2730256D01*
X-944014Y2724632D01*
X-945333Y2717999D01*
Y2662000D01*
X-944014Y2655367D01*
X-940256Y2649743D01*
X-934633Y2645986D01*
X-928000Y2644667D01*
X-872000D01*
X-865367Y2645986D01*
X-859744Y2649743D01*
X-855987Y2655367D01*
X-854667Y2662000D01*
Y2717999D01*
X-855987Y2724632D01*
X-859744Y2730256D01*
X-865367Y2734013D01*
X-872000Y2735332D01*
D02*
G37*
G36*
X-1052000D02*
X-1108000D01*
X-1114633Y2734013D01*
X-1120256Y2730256D01*
X-1124014Y2724632D01*
X-1125333Y2717999D01*
Y2662000D01*
X-1124014Y2655367D01*
X-1120256Y2649743D01*
X-1114633Y2645986D01*
X-1108000Y2644667D01*
X-1052000D01*
X-1045367Y2645986D01*
X-1039744Y2649743D01*
X-1035986Y2655367D01*
X-1034667Y2662000D01*
Y2717999D01*
X-1035986Y2724632D01*
X-1039744Y2730256D01*
X-1045367Y2734013D01*
X-1052000Y2735332D01*
D02*
G37*
G36*
X-1232000D02*
X-1288000D01*
X-1294633Y2734013D01*
X-1300256Y2730256D01*
X-1304014Y2724632D01*
X-1305333Y2717999D01*
Y2662000D01*
X-1304014Y2655367D01*
X-1300256Y2649743D01*
X-1294633Y2645986D01*
X-1288000Y2644667D01*
X-1232000D01*
X-1225367Y2645986D01*
X-1219744Y2649743D01*
X-1215986Y2655367D01*
X-1214667Y2662000D01*
Y2717999D01*
X-1215986Y2724632D01*
X-1219744Y2730256D01*
X-1225367Y2734013D01*
X-1232000Y2735332D01*
D02*
G37*
G36*
X-692000Y2561933D02*
X-748000D01*
X-754633Y2560614D01*
X-760257Y2556856D01*
X-764014Y2551233D01*
X-765333Y2544600D01*
Y2488600D01*
X-764014Y2481967D01*
X-760257Y2476344D01*
X-754633Y2472586D01*
X-748000Y2471267D01*
X-692000D01*
X-685367Y2472586D01*
X-679744Y2476344D01*
X-675987Y2481967D01*
X-674667Y2488600D01*
Y2544600D01*
X-675987Y2551233D01*
X-679744Y2556856D01*
X-685367Y2560614D01*
X-692000Y2561933D01*
D02*
G37*
G36*
X1107999Y2555332D02*
X1051999D01*
X1045366Y2554013D01*
X1039742Y2550256D01*
X1035985Y2544632D01*
X1034666Y2537999D01*
Y2482000D01*
X1035985Y2475367D01*
X1039742Y2469743D01*
X1045366Y2465986D01*
X1051999Y2464667D01*
X1107999D01*
X1114632Y2465986D01*
X1120255Y2469743D01*
X1124012Y2475367D01*
X1125332Y2482000D01*
Y2537999D01*
X1124012Y2544632D01*
X1120255Y2550256D01*
X1114632Y2554013D01*
X1107999Y2555332D01*
D02*
G37*
G36*
X927999D02*
X871999D01*
X865366Y2554013D01*
X859743Y2550256D01*
X855985Y2544632D01*
X854666Y2537999D01*
Y2482000D01*
X855985Y2475367D01*
X859743Y2469743D01*
X865366Y2465986D01*
X871999Y2464667D01*
X927999D01*
X934632Y2465986D01*
X940255Y2469743D01*
X944012Y2475367D01*
X945332Y2482000D01*
Y2537999D01*
X944012Y2544632D01*
X940255Y2550256D01*
X934632Y2554013D01*
X927999Y2555332D01*
D02*
G37*
G36*
X747999D02*
X691999D01*
X685366Y2554013D01*
X679743Y2550256D01*
X675985Y2544632D01*
X674666Y2537999D01*
Y2482000D01*
X675985Y2475367D01*
X679743Y2469743D01*
X685366Y2465986D01*
X691999Y2464667D01*
X747999D01*
X754632Y2465986D01*
X760255Y2469743D01*
X764012Y2475367D01*
X765332Y2482000D01*
Y2537999D01*
X764012Y2544632D01*
X760255Y2550256D01*
X754632Y2554013D01*
X747999Y2555332D01*
D02*
G37*
G36*
X-872000D02*
X-928000D01*
X-934633Y2554013D01*
X-940256Y2550256D01*
X-944014Y2544632D01*
X-945333Y2537999D01*
Y2482000D01*
X-944014Y2475367D01*
X-940256Y2469743D01*
X-934633Y2465986D01*
X-928000Y2464667D01*
X-872000D01*
X-865367Y2465986D01*
X-859744Y2469743D01*
X-855987Y2475367D01*
X-854667Y2482000D01*
Y2537999D01*
X-855987Y2544632D01*
X-859744Y2550256D01*
X-865367Y2554013D01*
X-872000Y2555332D01*
D02*
G37*
G36*
X-1052000D02*
X-1108000D01*
X-1114633Y2554013D01*
X-1120256Y2550256D01*
X-1124014Y2544632D01*
X-1125333Y2537999D01*
Y2482000D01*
X-1124014Y2475367D01*
X-1120256Y2469743D01*
X-1114633Y2465986D01*
X-1108000Y2464667D01*
X-1052000D01*
X-1045367Y2465986D01*
X-1039744Y2469743D01*
X-1035986Y2475367D01*
X-1034667Y2482000D01*
Y2537999D01*
X-1035986Y2544632D01*
X-1039744Y2550256D01*
X-1045367Y2554013D01*
X-1052000Y2555332D01*
D02*
G37*
G36*
X-1232000D02*
X-1288000D01*
X-1294633Y2554013D01*
X-1300256Y2550256D01*
X-1304014Y2544632D01*
X-1305333Y2537999D01*
Y2482000D01*
X-1304014Y2475367D01*
X-1300256Y2469743D01*
X-1294633Y2465986D01*
X-1288000Y2464667D01*
X-1232000D01*
X-1225367Y2465986D01*
X-1219744Y2469743D01*
X-1215986Y2475367D01*
X-1214667Y2482000D01*
Y2537999D01*
X-1215986Y2544632D01*
X-1219744Y2550256D01*
X-1225367Y2554013D01*
X-1232000Y2555332D01*
D02*
G37*
G36*
X1287998D02*
X1231999D01*
X1225366Y2554013D01*
X1219742Y2550256D01*
X1215985Y2544632D01*
X1214666Y2537999D01*
Y2493505D01*
X1175709Y2454549D01*
X1169997Y2455685D01*
X1156341Y2452969D01*
X1144764Y2445233D01*
X1137028Y2433656D01*
X1134312Y2419999D01*
X1137028Y2406343D01*
X1144764Y2394766D01*
X1156341Y2387030D01*
X1169997Y2384314D01*
X1183654Y2387030D01*
X1195231Y2394766D01*
X1202967Y2406343D01*
X1205683Y2419999D01*
X1204547Y2425710D01*
X1243504Y2464667D01*
X1287998D01*
X1294631Y2465986D01*
X1300255Y2469743D01*
X1304012Y2475367D01*
X1305331Y2482000D01*
Y2537999D01*
X1304012Y2544632D01*
X1300255Y2550256D01*
X1294631Y2554013D01*
X1287998Y2555332D01*
D02*
G37*
G36*
X747999Y2375333D02*
X729999D01*
Y2340000D01*
X765332D01*
Y2358000D01*
X764012Y2364633D01*
X760255Y2370256D01*
X754632Y2374013D01*
X747999Y2375333D01*
D02*
G37*
G36*
X709999D02*
X691999D01*
X685366Y2374013D01*
X679743Y2370256D01*
X675985Y2364633D01*
X674666Y2358000D01*
Y2340000D01*
X709999D01*
Y2375333D01*
D02*
G37*
G36*
X1107999D02*
X1051999D01*
X1045366Y2374013D01*
X1039742Y2370256D01*
X1035985Y2364633D01*
X1034666Y2358000D01*
Y2302000D01*
X1035985Y2295367D01*
X1039742Y2289743D01*
X1045366Y2285986D01*
X1051999Y2284667D01*
X1107999D01*
X1114632Y2285986D01*
X1120255Y2289743D01*
X1124012Y2295367D01*
X1125332Y2302000D01*
Y2358000D01*
X1124012Y2364633D01*
X1120255Y2370256D01*
X1114632Y2374013D01*
X1107999Y2375333D01*
D02*
G37*
G36*
X927999D02*
X871999D01*
X865366Y2374013D01*
X859743Y2370256D01*
X855985Y2364633D01*
X854666Y2358000D01*
Y2302000D01*
X855985Y2295367D01*
X859743Y2289743D01*
X865366Y2285986D01*
X871999Y2284667D01*
X927999D01*
X934632Y2285986D01*
X940255Y2289743D01*
X944012Y2295367D01*
X945332Y2302000D01*
Y2358000D01*
X944012Y2364633D01*
X940255Y2370256D01*
X934632Y2374013D01*
X927999Y2375333D01*
D02*
G37*
G36*
X765332Y2320000D02*
X729999D01*
Y2284667D01*
X747999D01*
X754632Y2285986D01*
X760255Y2289743D01*
X764012Y2295367D01*
X765332Y2302000D01*
Y2320000D01*
D02*
G37*
G36*
X709999D02*
X674666D01*
Y2302000D01*
X675985Y2295367D01*
X679743Y2289743D01*
X685366Y2285986D01*
X691999Y2284667D01*
X709999D01*
Y2320000D01*
D02*
G37*
G36*
X567999Y2375333D02*
X511999D01*
X505366Y2374013D01*
X499743Y2370256D01*
X495985Y2364633D01*
X494666Y2358000D01*
Y2302000D01*
X495985Y2295367D01*
X499743Y2289743D01*
X505366Y2285986D01*
X511999Y2284667D01*
X567999D01*
X574632Y2285986D01*
X580255Y2289743D01*
X584013Y2295367D01*
X585332Y2302000D01*
Y2358000D01*
X584013Y2364633D01*
X580255Y2370256D01*
X574632Y2374013D01*
X567999Y2375333D01*
D02*
G37*
G36*
X387999D02*
X331999D01*
X325366Y2374013D01*
X319743Y2370256D01*
X315985Y2364633D01*
X314666Y2358000D01*
Y2302000D01*
X315985Y2295367D01*
X319743Y2289743D01*
X325366Y2285986D01*
X331999Y2284667D01*
X387999D01*
X394632Y2285986D01*
X400255Y2289743D01*
X404013Y2295367D01*
X405332Y2302000D01*
Y2358000D01*
X404013Y2364633D01*
X400255Y2370256D01*
X394632Y2374013D01*
X387999Y2375333D01*
D02*
G37*
G36*
X207999D02*
X151999D01*
X145366Y2374013D01*
X139743Y2370256D01*
X135986Y2364633D01*
X134666Y2358000D01*
Y2302000D01*
X135986Y2295367D01*
X139743Y2289743D01*
X145366Y2285986D01*
X151999Y2284667D01*
X207999D01*
X214632Y2285986D01*
X220255Y2289743D01*
X224013Y2295367D01*
X225332Y2302000D01*
Y2358000D01*
X224013Y2364633D01*
X220255Y2370256D01*
X214632Y2374013D01*
X207999Y2375333D01*
D02*
G37*
G36*
X27999D02*
X-28001D01*
X-34634Y2374013D01*
X-40257Y2370256D01*
X-44014Y2364633D01*
X-45334Y2358000D01*
Y2302000D01*
X-44014Y2295367D01*
X-40257Y2289743D01*
X-34634Y2285986D01*
X-28001Y2284667D01*
X27999D01*
X34632Y2285986D01*
X40255Y2289743D01*
X44013Y2295367D01*
X45332Y2302000D01*
Y2358000D01*
X44013Y2364633D01*
X40255Y2370256D01*
X34632Y2374013D01*
X27999Y2375333D01*
D02*
G37*
G36*
X-152001D02*
X-208001D01*
X-214634Y2374013D01*
X-220257Y2370256D01*
X-224014Y2364633D01*
X-225334Y2358000D01*
Y2302000D01*
X-224014Y2295367D01*
X-220257Y2289743D01*
X-214634Y2285986D01*
X-208001Y2284667D01*
X-152001D01*
X-145368Y2285986D01*
X-139744Y2289743D01*
X-135987Y2295367D01*
X-134668Y2302000D01*
Y2358000D01*
X-135987Y2364633D01*
X-139744Y2370256D01*
X-145368Y2374013D01*
X-152001Y2375333D01*
D02*
G37*
G36*
X-332001D02*
X-388000D01*
X-394633Y2374013D01*
X-400257Y2370256D01*
X-404014Y2364633D01*
X-405333Y2358000D01*
Y2302000D01*
X-404014Y2295367D01*
X-400257Y2289743D01*
X-394633Y2285986D01*
X-388000Y2284667D01*
X-332001D01*
X-325368Y2285986D01*
X-319744Y2289743D01*
X-315987Y2295367D01*
X-314668Y2302000D01*
Y2358000D01*
X-315987Y2364633D01*
X-319744Y2370256D01*
X-325368Y2374013D01*
X-332001Y2375333D01*
D02*
G37*
G36*
X-512000D02*
X-568000D01*
X-574633Y2374013D01*
X-580257Y2370256D01*
X-584014Y2364633D01*
X-585333Y2358000D01*
Y2302000D01*
X-584014Y2295367D01*
X-580257Y2289743D01*
X-574633Y2285986D01*
X-568000Y2284667D01*
X-512000D01*
X-505368Y2285986D01*
X-499744Y2289743D01*
X-495987Y2295367D01*
X-494668Y2302000D01*
Y2358000D01*
X-495987Y2364633D01*
X-499744Y2370256D01*
X-505368Y2374013D01*
X-512000Y2375333D01*
D02*
G37*
G36*
X-692000D02*
X-748000D01*
X-754633Y2374013D01*
X-760257Y2370256D01*
X-764014Y2364633D01*
X-765333Y2358000D01*
Y2302000D01*
X-764014Y2295367D01*
X-760257Y2289743D01*
X-754633Y2285986D01*
X-748000Y2284667D01*
X-692000D01*
X-685367Y2285986D01*
X-679744Y2289743D01*
X-675987Y2295367D01*
X-674667Y2302000D01*
Y2358000D01*
X-675987Y2364633D01*
X-679744Y2370256D01*
X-685367Y2374013D01*
X-692000Y2375333D01*
D02*
G37*
G36*
X-872000D02*
X-928000D01*
X-934633Y2374013D01*
X-940256Y2370256D01*
X-944014Y2364633D01*
X-945333Y2358000D01*
Y2302000D01*
X-944014Y2295367D01*
X-940256Y2289743D01*
X-934633Y2285986D01*
X-928000Y2284667D01*
X-872000D01*
X-865367Y2285986D01*
X-859744Y2289743D01*
X-855987Y2295367D01*
X-854667Y2302000D01*
Y2358000D01*
X-855987Y2364633D01*
X-859744Y2370256D01*
X-865367Y2374013D01*
X-872000Y2375333D01*
D02*
G37*
G36*
X-1052000D02*
X-1108000D01*
X-1114633Y2374013D01*
X-1120256Y2370256D01*
X-1124014Y2364633D01*
X-1125333Y2358000D01*
Y2302000D01*
X-1124014Y2295367D01*
X-1120256Y2289743D01*
X-1114633Y2285986D01*
X-1108000Y2284667D01*
X-1052000D01*
X-1045367Y2285986D01*
X-1039744Y2289743D01*
X-1035986Y2295367D01*
X-1034667Y2302000D01*
Y2358000D01*
X-1035986Y2364633D01*
X-1039744Y2370256D01*
X-1045367Y2374013D01*
X-1052000Y2375333D01*
D02*
G37*
G36*
X-1232000D02*
X-1288000D01*
X-1294633Y2374013D01*
X-1300256Y2370256D01*
X-1304014Y2364633D01*
X-1305333Y2358000D01*
Y2302000D01*
X-1304014Y2295367D01*
X-1300256Y2289743D01*
X-1294633Y2285986D01*
X-1288000Y2284667D01*
X-1232000D01*
X-1225367Y2285986D01*
X-1219744Y2289743D01*
X-1215986Y2295367D01*
X-1214667Y2302000D01*
Y2358000D01*
X-1215986Y2364633D01*
X-1219744Y2370256D01*
X-1225367Y2374013D01*
X-1232000Y2375333D01*
D02*
G37*
G36*
X1287998D02*
X1231999D01*
X1225366Y2374013D01*
X1219742Y2370256D01*
X1215985Y2364633D01*
X1214666Y2358000D01*
Y2313505D01*
X1175709Y2274549D01*
X1169997Y2275685D01*
X1156341Y2272969D01*
X1144764Y2265233D01*
X1137028Y2253656D01*
X1134312Y2240000D01*
X1137028Y2226343D01*
X1144764Y2214766D01*
X1156341Y2207030D01*
X1169997Y2204314D01*
X1183654Y2207030D01*
X1195231Y2214766D01*
X1202967Y2226343D01*
X1205683Y2240000D01*
X1204547Y2245710D01*
X1243504Y2284667D01*
X1287998D01*
X1294631Y2285986D01*
X1300255Y2289743D01*
X1304012Y2295367D01*
X1305331Y2302000D01*
Y2358000D01*
X1304012Y2364633D01*
X1300255Y2370256D01*
X1294631Y2374013D01*
X1287998Y2375333D01*
D02*
G37*
G36*
X-1169999Y2275686D02*
X-1183655Y2272969D01*
X-1195233Y2265233D01*
X-1202968Y2253656D01*
X-1205685Y2240000D01*
X-1204549Y2234289D01*
X-1243506Y2195333D01*
X-1288000D01*
X-1294633Y2194013D01*
X-1300256Y2190256D01*
X-1304014Y2184633D01*
X-1305333Y2178000D01*
Y2122000D01*
X-1304014Y2115367D01*
X-1300256Y2109744D01*
X-1294633Y2105986D01*
X-1288000Y2104667D01*
X-1232000D01*
X-1225367Y2105986D01*
X-1219744Y2109744D01*
X-1215986Y2115367D01*
X-1214667Y2122000D01*
Y2166494D01*
X-1175711Y2205450D01*
X-1169999Y2204314D01*
X-1156343Y2207031D01*
X-1144765Y2214766D01*
X-1137030Y2226344D01*
X-1134313Y2240000D01*
X-1137030Y2253656D01*
X-1144765Y2265233D01*
X-1156343Y2272969D01*
X-1169999Y2275686D01*
D02*
G37*
G36*
X1107999Y2195333D02*
X1089999D01*
Y2160000D01*
X1125332D01*
Y2178000D01*
X1124012Y2184633D01*
X1120255Y2190256D01*
X1114632Y2194013D01*
X1107999Y2195333D01*
D02*
G37*
G36*
X1069999D02*
X1051999D01*
X1045366Y2194013D01*
X1039742Y2190256D01*
X1035985Y2184633D01*
X1034666Y2178000D01*
Y2160000D01*
X1069999D01*
Y2195333D01*
D02*
G37*
G36*
X-1052000D02*
X-1070000D01*
Y2160000D01*
X-1034667D01*
Y2178000D01*
X-1035986Y2184633D01*
X-1039744Y2190256D01*
X-1045367Y2194013D01*
X-1052000Y2195333D01*
D02*
G37*
G36*
X-1090000D02*
X-1108000D01*
X-1114633Y2194013D01*
X-1120256Y2190256D01*
X-1124014Y2184633D01*
X-1125333Y2178000D01*
Y2160000D01*
X-1090000D01*
Y2195333D01*
D02*
G37*
G36*
X1125332Y2140000D02*
X1089999D01*
Y2104667D01*
X1107999D01*
X1114632Y2105986D01*
X1120255Y2109744D01*
X1124012Y2115367D01*
X1125332Y2122000D01*
Y2140000D01*
D02*
G37*
G36*
X1069999D02*
X1034666D01*
Y2122000D01*
X1035985Y2115367D01*
X1039742Y2109744D01*
X1045366Y2105986D01*
X1051999Y2104667D01*
X1069999D01*
Y2140000D01*
D02*
G37*
G36*
X927999Y2195333D02*
X871999D01*
X865366Y2194013D01*
X859743Y2190256D01*
X855985Y2184633D01*
X854666Y2178000D01*
Y2122000D01*
X855985Y2115367D01*
X859743Y2109744D01*
X865366Y2105986D01*
X871999Y2104667D01*
X927999D01*
X934632Y2105986D01*
X940255Y2109744D01*
X944012Y2115367D01*
X945332Y2122000D01*
Y2178000D01*
X944012Y2184633D01*
X940255Y2190256D01*
X934632Y2194013D01*
X927999Y2195333D01*
D02*
G37*
G36*
X747999D02*
X691999D01*
X685366Y2194013D01*
X679743Y2190256D01*
X675985Y2184633D01*
X674666Y2178000D01*
Y2122000D01*
X675985Y2115367D01*
X679743Y2109744D01*
X685366Y2105986D01*
X691999Y2104667D01*
X747999D01*
X754632Y2105986D01*
X760255Y2109744D01*
X764012Y2115367D01*
X765332Y2122000D01*
Y2178000D01*
X764012Y2184633D01*
X760255Y2190256D01*
X754632Y2194013D01*
X747999Y2195333D01*
D02*
G37*
G36*
X567999D02*
X511999D01*
X505366Y2194013D01*
X499743Y2190256D01*
X495985Y2184633D01*
X494666Y2178000D01*
Y2122000D01*
X495985Y2115367D01*
X499743Y2109744D01*
X505366Y2105986D01*
X511999Y2104667D01*
X567999D01*
X574632Y2105986D01*
X580255Y2109744D01*
X584013Y2115367D01*
X585332Y2122000D01*
Y2178000D01*
X584013Y2184633D01*
X580255Y2190256D01*
X574632Y2194013D01*
X567999Y2195333D01*
D02*
G37*
G36*
X387999D02*
X331999D01*
X325366Y2194013D01*
X319743Y2190256D01*
X315985Y2184633D01*
X314666Y2178000D01*
Y2122000D01*
X315985Y2115367D01*
X319743Y2109744D01*
X325366Y2105986D01*
X331999Y2104667D01*
X387999D01*
X394632Y2105986D01*
X400255Y2109744D01*
X404013Y2115367D01*
X405332Y2122000D01*
Y2178000D01*
X404013Y2184633D01*
X400255Y2190256D01*
X394632Y2194013D01*
X387999Y2195333D01*
D02*
G37*
G36*
X207999D02*
X151999D01*
X145366Y2194013D01*
X139743Y2190256D01*
X135986Y2184633D01*
X134666Y2178000D01*
Y2122000D01*
X135986Y2115367D01*
X139743Y2109744D01*
X145366Y2105986D01*
X151999Y2104667D01*
X207999D01*
X214632Y2105986D01*
X220255Y2109744D01*
X224013Y2115367D01*
X225332Y2122000D01*
Y2178000D01*
X224013Y2184633D01*
X220255Y2190256D01*
X214632Y2194013D01*
X207999Y2195333D01*
D02*
G37*
G36*
X27999D02*
X-28001D01*
X-34634Y2194013D01*
X-40257Y2190256D01*
X-44014Y2184633D01*
X-45334Y2178000D01*
Y2122000D01*
X-44014Y2115367D01*
X-40257Y2109744D01*
X-34634Y2105986D01*
X-28001Y2104667D01*
X27999D01*
X34632Y2105986D01*
X40255Y2109744D01*
X44013Y2115367D01*
X45332Y2122000D01*
Y2178000D01*
X44013Y2184633D01*
X40255Y2190256D01*
X34632Y2194013D01*
X27999Y2195333D01*
D02*
G37*
G36*
X-152001D02*
X-208001D01*
X-214634Y2194013D01*
X-220257Y2190256D01*
X-224014Y2184633D01*
X-225334Y2178000D01*
Y2122000D01*
X-224014Y2115367D01*
X-220257Y2109744D01*
X-214634Y2105986D01*
X-208001Y2104667D01*
X-152001D01*
X-145368Y2105986D01*
X-139744Y2109744D01*
X-135987Y2115367D01*
X-134668Y2122000D01*
Y2178000D01*
X-135987Y2184633D01*
X-139744Y2190256D01*
X-145368Y2194013D01*
X-152001Y2195333D01*
D02*
G37*
G36*
X-332001D02*
X-388000D01*
X-394633Y2194013D01*
X-400257Y2190256D01*
X-404014Y2184633D01*
X-405333Y2178000D01*
Y2122000D01*
X-404014Y2115367D01*
X-400257Y2109744D01*
X-394633Y2105986D01*
X-388000Y2104667D01*
X-332001D01*
X-325368Y2105986D01*
X-319744Y2109744D01*
X-315987Y2115367D01*
X-314668Y2122000D01*
Y2178000D01*
X-315987Y2184633D01*
X-319744Y2190256D01*
X-325368Y2194013D01*
X-332001Y2195333D01*
D02*
G37*
G36*
X-692000D02*
X-748000D01*
X-754633Y2194013D01*
X-760257Y2190256D01*
X-764014Y2184633D01*
X-765333Y2178000D01*
Y2122000D01*
X-764014Y2115367D01*
X-760257Y2109744D01*
X-754633Y2105986D01*
X-748000Y2104667D01*
X-692000D01*
X-685367Y2105986D01*
X-679744Y2109744D01*
X-675987Y2115367D01*
X-674667Y2122000D01*
Y2178000D01*
X-675987Y2184633D01*
X-679744Y2190256D01*
X-685367Y2194013D01*
X-692000Y2195333D01*
D02*
G37*
G36*
X-872000D02*
X-928000D01*
X-934633Y2194013D01*
X-940256Y2190256D01*
X-944014Y2184633D01*
X-945333Y2178000D01*
Y2122000D01*
X-944014Y2115367D01*
X-940256Y2109744D01*
X-934633Y2105986D01*
X-928000Y2104667D01*
X-872000D01*
X-865367Y2105986D01*
X-859744Y2109744D01*
X-855987Y2115367D01*
X-854667Y2122000D01*
Y2178000D01*
X-855987Y2184633D01*
X-859744Y2190256D01*
X-865367Y2194013D01*
X-872000Y2195333D01*
D02*
G37*
G36*
X-1034667Y2140000D02*
X-1070000D01*
Y2104667D01*
X-1052000D01*
X-1045367Y2105986D01*
X-1039744Y2109744D01*
X-1035986Y2115367D01*
X-1034667Y2122000D01*
Y2140000D01*
D02*
G37*
G36*
X-1090000D02*
X-1125333D01*
Y2122000D01*
X-1124014Y2115367D01*
X-1120256Y2109744D01*
X-1114633Y2105986D01*
X-1108000Y2104667D01*
X-1090000D01*
Y2140000D01*
D02*
G37*
G36*
X1287998Y2195333D02*
X1231999D01*
X1225366Y2194013D01*
X1219742Y2190256D01*
X1215985Y2184633D01*
X1214666Y2178000D01*
Y2133505D01*
X1175709Y2094549D01*
X1169997Y2095685D01*
X1156341Y2092969D01*
X1144764Y2085233D01*
X1137028Y2073656D01*
X1134312Y2060000D01*
X1137028Y2046343D01*
X1144764Y2034766D01*
X1156341Y2027030D01*
X1169997Y2024314D01*
X1183654Y2027030D01*
X1195231Y2034766D01*
X1202967Y2046343D01*
X1205683Y2060000D01*
X1204547Y2065710D01*
X1243504Y2104667D01*
X1287998D01*
X1294631Y2105986D01*
X1300255Y2109744D01*
X1304012Y2115367D01*
X1305331Y2122000D01*
Y2178000D01*
X1304012Y2184633D01*
X1300255Y2190256D01*
X1294631Y2194013D01*
X1287998Y2195333D01*
D02*
G37*
G36*
X-512000D02*
X-568000D01*
X-574633Y2194013D01*
X-580257Y2190256D01*
X-584014Y2184633D01*
X-585333Y2178000D01*
Y2133505D01*
X-624290Y2094549D01*
X-630002Y2095685D01*
X-643658Y2092969D01*
X-655235Y2085233D01*
X-662971Y2073656D01*
X-665687Y2060000D01*
X-662971Y2046343D01*
X-655235Y2034766D01*
X-643658Y2027030D01*
X-630002Y2024314D01*
X-616345Y2027030D01*
X-604768Y2034766D01*
X-597032Y2046343D01*
X-594316Y2060000D01*
X-595452Y2065710D01*
X-556495Y2104667D01*
X-512000D01*
X-505368Y2105986D01*
X-499744Y2109744D01*
X-495987Y2115367D01*
X-494668Y2122000D01*
Y2178000D01*
X-495987Y2184633D01*
X-499744Y2190256D01*
X-505368Y2194013D01*
X-512000Y2195333D01*
D02*
G37*
G36*
X630000Y2095686D02*
X616344Y2092969D01*
X604766Y2085234D01*
X597031Y2073656D01*
X594314Y2060000D01*
X595450Y2054290D01*
X556493Y2015333D01*
X511999D01*
X505366Y2014013D01*
X499743Y2010256D01*
X495985Y2004633D01*
X494666Y1998000D01*
Y1942000D01*
X495985Y1935367D01*
X499743Y1929744D01*
X505366Y1925986D01*
X511999Y1924667D01*
X567999D01*
X574632Y1925986D01*
X580255Y1929744D01*
X584013Y1935367D01*
X585332Y1942000D01*
Y1986494D01*
X624288Y2025450D01*
X630000Y2024314D01*
X643656Y2027031D01*
X655234Y2034766D01*
X662969Y2046344D01*
X665686Y2060000D01*
X662969Y2073656D01*
X655234Y2085234D01*
X643656Y2092969D01*
X630000Y2095686D01*
D02*
G37*
G36*
X-512000Y2015333D02*
X-530000D01*
Y1980000D01*
X-494668D01*
Y1998000D01*
X-495987Y2004633D01*
X-499744Y2010256D01*
X-505368Y2014013D01*
X-512000Y2015333D01*
D02*
G37*
G36*
X-550000D02*
X-568000D01*
X-574633Y2014013D01*
X-580257Y2010256D01*
X-584014Y2004633D01*
X-585333Y1998000D01*
Y1980000D01*
X-550000D01*
Y2015333D01*
D02*
G37*
G36*
X1107999D02*
X1051999D01*
X1045366Y2014013D01*
X1039742Y2010256D01*
X1035985Y2004633D01*
X1034666Y1998000D01*
Y1942000D01*
X1035985Y1935367D01*
X1039742Y1929744D01*
X1045366Y1925986D01*
X1051999Y1924667D01*
X1107999D01*
X1114632Y1925986D01*
X1120255Y1929744D01*
X1124012Y1935367D01*
X1125332Y1942000D01*
Y1998000D01*
X1124012Y2004633D01*
X1120255Y2010256D01*
X1114632Y2014013D01*
X1107999Y2015333D01*
D02*
G37*
G36*
X927999D02*
X871999D01*
X865366Y2014013D01*
X859743Y2010256D01*
X855985Y2004633D01*
X854666Y1998000D01*
Y1942000D01*
X855985Y1935367D01*
X859743Y1929744D01*
X865366Y1925986D01*
X871999Y1924667D01*
X927999D01*
X934632Y1925986D01*
X940255Y1929744D01*
X944012Y1935367D01*
X945332Y1942000D01*
Y1998000D01*
X944012Y2004633D01*
X940255Y2010256D01*
X934632Y2014013D01*
X927999Y2015333D01*
D02*
G37*
G36*
X747999D02*
X691999D01*
X685366Y2014013D01*
X679743Y2010256D01*
X675985Y2004633D01*
X674666Y1998000D01*
Y1942000D01*
X675985Y1935367D01*
X679743Y1929744D01*
X685366Y1925986D01*
X691999Y1924667D01*
X747999D01*
X754632Y1925986D01*
X760255Y1929744D01*
X764012Y1935367D01*
X765332Y1942000D01*
Y1998000D01*
X764012Y2004633D01*
X760255Y2010256D01*
X754632Y2014013D01*
X747999Y2015333D01*
D02*
G37*
G36*
X387999D02*
X331999D01*
X325366Y2014013D01*
X319743Y2010256D01*
X315985Y2004633D01*
X314666Y1998000D01*
Y1942000D01*
X315985Y1935367D01*
X319743Y1929744D01*
X325366Y1925986D01*
X331999Y1924667D01*
X387999D01*
X394632Y1925986D01*
X400255Y1929744D01*
X404013Y1935367D01*
X405332Y1942000D01*
Y1998000D01*
X404013Y2004633D01*
X400255Y2010256D01*
X394632Y2014013D01*
X387999Y2015333D01*
D02*
G37*
G36*
X207999D02*
X151999D01*
X145366Y2014013D01*
X139743Y2010256D01*
X135986Y2004633D01*
X134666Y1998000D01*
Y1942000D01*
X135986Y1935367D01*
X139743Y1929744D01*
X145366Y1925986D01*
X151999Y1924667D01*
X207999D01*
X214632Y1925986D01*
X220255Y1929744D01*
X224013Y1935367D01*
X225332Y1942000D01*
Y1998000D01*
X224013Y2004633D01*
X220255Y2010256D01*
X214632Y2014013D01*
X207999Y2015333D01*
D02*
G37*
G36*
X27999D02*
X-28001D01*
X-34634Y2014013D01*
X-40257Y2010256D01*
X-44014Y2004633D01*
X-45334Y1998000D01*
Y1942000D01*
X-44014Y1935367D01*
X-40257Y1929744D01*
X-34634Y1925986D01*
X-28001Y1924667D01*
X27999D01*
X34632Y1925986D01*
X40255Y1929744D01*
X44013Y1935367D01*
X45332Y1942000D01*
Y1998000D01*
X44013Y2004633D01*
X40255Y2010256D01*
X34632Y2014013D01*
X27999Y2015333D01*
D02*
G37*
G36*
X-152001D02*
X-208001D01*
X-214634Y2014013D01*
X-220257Y2010256D01*
X-224014Y2004633D01*
X-225334Y1998000D01*
Y1942000D01*
X-224014Y1935367D01*
X-220257Y1929744D01*
X-214634Y1925986D01*
X-208001Y1924667D01*
X-152001D01*
X-145368Y1925986D01*
X-139744Y1929744D01*
X-135987Y1935367D01*
X-134668Y1942000D01*
Y1998000D01*
X-135987Y2004633D01*
X-139744Y2010256D01*
X-145368Y2014013D01*
X-152001Y2015333D01*
D02*
G37*
G36*
X-494668Y1960000D02*
X-530000D01*
Y1924667D01*
X-512000D01*
X-505368Y1925986D01*
X-499744Y1929744D01*
X-495987Y1935367D01*
X-494668Y1942000D01*
Y1960000D01*
D02*
G37*
G36*
X-550000D02*
X-585333D01*
Y1942000D01*
X-584014Y1935367D01*
X-580257Y1929744D01*
X-574633Y1925986D01*
X-568000Y1924667D01*
X-550000D01*
Y1960000D01*
D02*
G37*
G36*
X-692000Y2015333D02*
X-748000D01*
X-754633Y2014013D01*
X-760257Y2010256D01*
X-764014Y2004633D01*
X-765333Y1998000D01*
Y1942000D01*
X-764014Y1935367D01*
X-760257Y1929744D01*
X-754633Y1925986D01*
X-748000Y1924667D01*
X-692000D01*
X-685367Y1925986D01*
X-679744Y1929744D01*
X-675987Y1935367D01*
X-674667Y1942000D01*
Y1998000D01*
X-675987Y2004633D01*
X-679744Y2010256D01*
X-685367Y2014013D01*
X-692000Y2015333D01*
D02*
G37*
G36*
X-872000D02*
X-928000D01*
X-934633Y2014013D01*
X-940256Y2010256D01*
X-944014Y2004633D01*
X-945333Y1998000D01*
Y1942000D01*
X-944014Y1935367D01*
X-940256Y1929744D01*
X-934633Y1925986D01*
X-928000Y1924667D01*
X-872000D01*
X-865367Y1925986D01*
X-859744Y1929744D01*
X-855987Y1935367D01*
X-854667Y1942000D01*
Y1998000D01*
X-855987Y2004633D01*
X-859744Y2010256D01*
X-865367Y2014013D01*
X-872000Y2015333D01*
D02*
G37*
G36*
X-1052000D02*
X-1108000D01*
X-1114633Y2014013D01*
X-1120256Y2010256D01*
X-1124014Y2004633D01*
X-1125333Y1998000D01*
Y1942000D01*
X-1124014Y1935367D01*
X-1120256Y1929744D01*
X-1114633Y1925986D01*
X-1108000Y1924667D01*
X-1052000D01*
X-1045367Y1925986D01*
X-1039744Y1929744D01*
X-1035986Y1935367D01*
X-1034667Y1942000D01*
Y1998000D01*
X-1035986Y2004633D01*
X-1039744Y2010256D01*
X-1045367Y2014013D01*
X-1052000Y2015333D01*
D02*
G37*
G36*
X-1232000D02*
X-1288000D01*
X-1294633Y2014013D01*
X-1300256Y2010256D01*
X-1304014Y2004633D01*
X-1305333Y1998000D01*
Y1942000D01*
X-1304014Y1935367D01*
X-1300256Y1929744D01*
X-1294633Y1925986D01*
X-1288000Y1924667D01*
X-1232000D01*
X-1225367Y1925986D01*
X-1219744Y1929744D01*
X-1215986Y1935367D01*
X-1214667Y1942000D01*
Y1998000D01*
X-1215986Y2004633D01*
X-1219744Y2010256D01*
X-1225367Y2014013D01*
X-1232000Y2015333D01*
D02*
G37*
G36*
X1287998D02*
X1231999D01*
X1225366Y2014013D01*
X1219742Y2010256D01*
X1215985Y2004633D01*
X1214666Y1998000D01*
Y1953505D01*
X1175709Y1914549D01*
X1169997Y1915686D01*
X1156341Y1912969D01*
X1144764Y1905233D01*
X1137028Y1893656D01*
X1134312Y1880000D01*
X1137028Y1866343D01*
X1144764Y1854766D01*
X1156341Y1847031D01*
X1169997Y1844314D01*
X1183654Y1847031D01*
X1195231Y1854766D01*
X1202967Y1866343D01*
X1205683Y1880000D01*
X1204547Y1885710D01*
X1243504Y1924667D01*
X1287998D01*
X1294631Y1925986D01*
X1300255Y1929744D01*
X1304012Y1935367D01*
X1305331Y1942000D01*
Y1998000D01*
X1304012Y2004633D01*
X1300255Y2010256D01*
X1294631Y2014013D01*
X1287998Y2015333D01*
D02*
G37*
G36*
X-449999Y1915686D02*
X-463656Y1912969D01*
X-475233Y1905234D01*
X-482969Y1893656D01*
X-485685Y1880000D01*
X-484549Y1874290D01*
X-523506Y1835333D01*
X-568000D01*
X-574633Y1834014D01*
X-580257Y1830256D01*
X-584014Y1824633D01*
X-585333Y1818000D01*
Y1762000D01*
X-584014Y1755367D01*
X-580257Y1749744D01*
X-574633Y1745986D01*
X-568000Y1744667D01*
X-512000D01*
X-505368Y1745986D01*
X-499744Y1749744D01*
X-495987Y1755367D01*
X-494668Y1762000D01*
Y1806494D01*
X-455711Y1845450D01*
X-449999Y1844314D01*
X-436343Y1847031D01*
X-424766Y1854766D01*
X-417030Y1866344D01*
X-414314Y1880000D01*
X-417030Y1893656D01*
X-424766Y1905234D01*
X-436343Y1912969D01*
X-449999Y1915686D01*
D02*
G37*
G36*
X-332001Y2015333D02*
X-388000D01*
X-394633Y2014013D01*
X-400257Y2010256D01*
X-404014Y2004633D01*
X-405333Y1998000D01*
Y1942000D01*
X-404014Y1935367D01*
X-400257Y1929744D01*
X-394633Y1925986D01*
X-388000Y1924667D01*
X-343506D01*
X-304550Y1885711D01*
X-305686Y1879999D01*
X-302970Y1866342D01*
X-295234Y1854765D01*
X-283657Y1847030D01*
X-270000Y1844313D01*
X-256344Y1847030D01*
X-244767Y1854765D01*
X-237031Y1866342D01*
X-234315Y1879999D01*
X-237031Y1893655D01*
X-244767Y1905232D01*
X-256344Y1912968D01*
X-270000Y1915685D01*
X-275711Y1914549D01*
X-314668Y1953506D01*
Y1998000D01*
X-315987Y2004633D01*
X-319744Y2010256D01*
X-325368Y2014013D01*
X-332001Y2015333D01*
D02*
G37*
G36*
X1107999Y1835333D02*
X1051999D01*
X1045366Y1834014D01*
X1039742Y1830256D01*
X1035985Y1824633D01*
X1034666Y1818000D01*
Y1762000D01*
X1035985Y1755367D01*
X1039742Y1749744D01*
X1045366Y1745986D01*
X1051999Y1744667D01*
X1107999D01*
X1114632Y1745986D01*
X1120255Y1749744D01*
X1124012Y1755367D01*
X1125332Y1762000D01*
Y1818000D01*
X1124012Y1824633D01*
X1120255Y1830256D01*
X1114632Y1834014D01*
X1107999Y1835333D01*
D02*
G37*
G36*
X809999Y1915687D02*
X796342Y1912970D01*
X784765Y1905235D01*
X777029Y1893657D01*
X774313Y1880001D01*
X777029Y1866345D01*
X784765Y1854767D01*
X796342Y1847032D01*
X809999Y1844315D01*
X815709Y1845451D01*
X854666Y1806494D01*
Y1762000D01*
X855985Y1755367D01*
X859743Y1749744D01*
X865366Y1745986D01*
X871999Y1744667D01*
X927999D01*
X934632Y1745986D01*
X940255Y1749744D01*
X944012Y1755367D01*
X945332Y1762000D01*
Y1818000D01*
X944012Y1824633D01*
X940255Y1830256D01*
X934632Y1834014D01*
X927999Y1835333D01*
X883504D01*
X844548Y1874289D01*
X845684Y1880001D01*
X842968Y1893657D01*
X835232Y1905235D01*
X823655Y1912970D01*
X809999Y1915687D01*
D02*
G37*
G36*
X629999D02*
X616342Y1912970D01*
X604765Y1905235D01*
X597030Y1893657D01*
X594313Y1880001D01*
X597030Y1866345D01*
X604765Y1854767D01*
X616342Y1847032D01*
X629999Y1844315D01*
X635709Y1845451D01*
X674666Y1806494D01*
Y1762000D01*
X675985Y1755367D01*
X679743Y1749744D01*
X685366Y1745986D01*
X691999Y1744667D01*
X747999D01*
X754632Y1745986D01*
X760255Y1749744D01*
X764012Y1755367D01*
X765332Y1762000D01*
Y1818000D01*
X764012Y1824633D01*
X760255Y1830256D01*
X754632Y1834014D01*
X747999Y1835333D01*
X703504D01*
X664548Y1874289D01*
X665684Y1880001D01*
X662968Y1893657D01*
X655232Y1905235D01*
X643655Y1912970D01*
X629999Y1915687D01*
D02*
G37*
G36*
X449999D02*
X436343Y1912970D01*
X424765Y1905235D01*
X417030Y1893657D01*
X414313Y1880001D01*
X417030Y1866345D01*
X424765Y1854767D01*
X436343Y1847032D01*
X449999Y1844315D01*
X455709Y1845451D01*
X494666Y1806494D01*
Y1762000D01*
X495985Y1755367D01*
X499743Y1749744D01*
X505366Y1745986D01*
X511999Y1744667D01*
X567999D01*
X574632Y1745986D01*
X580255Y1749744D01*
X584013Y1755367D01*
X585332Y1762000D01*
Y1818000D01*
X584013Y1824633D01*
X580255Y1830256D01*
X574632Y1834014D01*
X567999Y1835333D01*
X523504D01*
X484548Y1874289D01*
X485685Y1880001D01*
X482968Y1893657D01*
X475232Y1905235D01*
X463655Y1912970D01*
X449999Y1915687D01*
D02*
G37*
G36*
X269999D02*
X256343Y1912970D01*
X244765Y1905235D01*
X237030Y1893657D01*
X234313Y1880001D01*
X237030Y1866345D01*
X244765Y1854767D01*
X256343Y1847032D01*
X269999Y1844315D01*
X275709Y1845451D01*
X314666Y1806494D01*
Y1762000D01*
X315985Y1755367D01*
X319743Y1749744D01*
X325366Y1745986D01*
X331999Y1744667D01*
X387999D01*
X394632Y1745986D01*
X400255Y1749744D01*
X404013Y1755367D01*
X405332Y1762000D01*
Y1818000D01*
X404013Y1824633D01*
X400255Y1830256D01*
X394632Y1834014D01*
X387999Y1835333D01*
X343505D01*
X304549Y1874289D01*
X305685Y1880001D01*
X302968Y1893657D01*
X295233Y1905235D01*
X283655Y1912970D01*
X269999Y1915687D01*
D02*
G37*
G36*
X207999Y1835333D02*
X151999D01*
X145366Y1834014D01*
X139743Y1830256D01*
X135986Y1824633D01*
X134666Y1818000D01*
Y1762000D01*
X135986Y1755367D01*
X139743Y1749744D01*
X145366Y1745986D01*
X151999Y1744667D01*
X207999D01*
X214632Y1745986D01*
X220255Y1749744D01*
X224013Y1755367D01*
X225332Y1762000D01*
Y1818000D01*
X224013Y1824633D01*
X220255Y1830256D01*
X214632Y1834014D01*
X207999Y1835333D01*
D02*
G37*
G36*
X27999D02*
X-28001D01*
X-34634Y1834014D01*
X-40257Y1830256D01*
X-44014Y1824633D01*
X-45334Y1818000D01*
Y1762000D01*
X-44014Y1755367D01*
X-40257Y1749744D01*
X-34634Y1745986D01*
X-28001Y1744667D01*
X27999D01*
X34632Y1745986D01*
X40255Y1749744D01*
X44013Y1755367D01*
X45332Y1762000D01*
Y1818000D01*
X44013Y1824633D01*
X40255Y1830256D01*
X34632Y1834014D01*
X27999Y1835333D01*
D02*
G37*
G36*
X-152001D02*
X-208001D01*
X-214634Y1834014D01*
X-220257Y1830256D01*
X-224014Y1824633D01*
X-225334Y1818000D01*
Y1762000D01*
X-224014Y1755367D01*
X-220257Y1749744D01*
X-214634Y1745986D01*
X-208001Y1744667D01*
X-152001D01*
X-145368Y1745986D01*
X-139744Y1749744D01*
X-135987Y1755367D01*
X-134668Y1762000D01*
Y1818000D01*
X-135987Y1824633D01*
X-139744Y1830256D01*
X-145368Y1834014D01*
X-152001Y1835333D01*
D02*
G37*
G36*
X-332001D02*
X-388000D01*
X-394633Y1834014D01*
X-400257Y1830256D01*
X-404014Y1824633D01*
X-405333Y1818000D01*
Y1762000D01*
X-404014Y1755367D01*
X-400257Y1749744D01*
X-394633Y1745986D01*
X-388000Y1744667D01*
X-332001D01*
X-325368Y1745986D01*
X-319744Y1749744D01*
X-315987Y1755367D01*
X-314668Y1762000D01*
Y1818000D01*
X-315987Y1824633D01*
X-319744Y1830256D01*
X-325368Y1834014D01*
X-332001Y1835333D01*
D02*
G37*
G36*
X-810000Y1915687D02*
X-823657Y1912970D01*
X-835234Y1905235D01*
X-842970Y1893657D01*
X-845686Y1880001D01*
X-842970Y1866345D01*
X-835234Y1854767D01*
X-823657Y1847032D01*
X-810000Y1844315D01*
X-804290Y1845451D01*
X-765333Y1806494D01*
Y1762000D01*
X-764014Y1755367D01*
X-760257Y1749744D01*
X-754633Y1745986D01*
X-748000Y1744667D01*
X-692000D01*
X-685367Y1745986D01*
X-679744Y1749744D01*
X-675987Y1755367D01*
X-674667Y1762000D01*
Y1818000D01*
X-675987Y1824633D01*
X-679744Y1830256D01*
X-685367Y1834014D01*
X-692000Y1835333D01*
X-736495D01*
X-775451Y1874289D01*
X-774315Y1880001D01*
X-777031Y1893657D01*
X-784767Y1905235D01*
X-796344Y1912970D01*
X-810000Y1915687D01*
D02*
G37*
G36*
X-872000Y1835333D02*
X-928000D01*
X-934633Y1834014D01*
X-940256Y1830256D01*
X-944014Y1824633D01*
X-945333Y1818000D01*
Y1762000D01*
X-944014Y1755367D01*
X-940256Y1749744D01*
X-934633Y1745986D01*
X-928000Y1744667D01*
X-896555D01*
X-844146Y1692258D01*
X-842969Y1686343D01*
X-835234Y1674765D01*
X-823656Y1667030D01*
X-810000Y1664313D01*
X-796344Y1667030D01*
X-784767Y1674765D01*
X-777031Y1686343D01*
X-774314Y1699999D01*
X-777031Y1713655D01*
X-784767Y1725233D01*
X-796344Y1732968D01*
X-802257Y1734144D01*
X-854667Y1786555D01*
Y1818000D01*
X-855987Y1824633D01*
X-859744Y1830256D01*
X-865367Y1834014D01*
X-872000Y1835333D01*
D02*
G37*
G36*
X-1052000D02*
X-1108000D01*
X-1114633Y1834014D01*
X-1120256Y1830256D01*
X-1124014Y1824633D01*
X-1125333Y1818000D01*
Y1762000D01*
X-1124014Y1755367D01*
X-1120256Y1749744D01*
X-1114633Y1745986D01*
X-1108000Y1744667D01*
X-1076555D01*
X-1024146Y1692258D01*
X-1022969Y1686343D01*
X-1015234Y1674765D01*
X-1003656Y1667030D01*
X-990000Y1664313D01*
X-976344Y1667030D01*
X-964766Y1674765D01*
X-957031Y1686343D01*
X-954314Y1699999D01*
X-957031Y1713655D01*
X-964766Y1725233D01*
X-976344Y1732968D01*
X-982257Y1734144D01*
X-1034667Y1786555D01*
Y1818000D01*
X-1035986Y1824633D01*
X-1039744Y1830256D01*
X-1045367Y1834014D01*
X-1052000Y1835333D01*
D02*
G37*
G36*
X1026500Y1599600D02*
X1003001D01*
Y1573600D01*
X1026500D01*
Y1599600D01*
D02*
G37*
G36*
X983001D02*
X959500D01*
Y1573600D01*
X983001D01*
Y1599600D01*
D02*
G37*
G36*
X907000Y1663286D02*
X893344Y1660570D01*
X881767Y1652834D01*
X874031Y1641257D01*
X871314Y1627601D01*
X874031Y1613944D01*
X875130Y1612300D01*
X873500Y1599600D01*
X873500D01*
X873500Y1599600D01*
Y1537300D01*
X873500Y1524600D01*
X873500Y1514900D01*
Y1498600D01*
X940500D01*
Y1514900D01*
X940500Y1527600D01*
X940500Y1537300D01*
Y1599600D01*
X940501Y1599600D01*
X940500D01*
X938871Y1612300D01*
X939969Y1613944D01*
X942686Y1627601D01*
X939969Y1641257D01*
X932234Y1652834D01*
X920657Y1660570D01*
X907000Y1663286D01*
D02*
G37*
G36*
X526500Y1524600D02*
X503001D01*
Y1498600D01*
X526500D01*
Y1524600D01*
D02*
G37*
G36*
X483001D02*
X459500D01*
Y1498600D01*
X483001D01*
Y1524600D01*
D02*
G37*
G36*
X-1328000Y1466000D02*
X-1351500D01*
Y1440000D01*
X-1328000D01*
Y1466000D01*
D02*
G37*
G36*
X440500Y1524600D02*
X373500D01*
Y1452601D01*
X373500D01*
Y1443399D01*
X373500D01*
Y1427842D01*
X350000D01*
Y1432500D01*
X250000D01*
Y1427892D01*
X236564D01*
X235370Y1429086D01*
X232969Y1441156D01*
X225233Y1452733D01*
X213656Y1460469D01*
X200000Y1463186D01*
X186344Y1460469D01*
X174766Y1452733D01*
X167031Y1441156D01*
X164314Y1427500D01*
X167031Y1413844D01*
X174766Y1402266D01*
X186344Y1394531D01*
X200000Y1391814D01*
X212482Y1394297D01*
X213698Y1393082D01*
X213698Y1393081D01*
X220314Y1388660D01*
X228117Y1387108D01*
X228119Y1387108D01*
X250000D01*
Y1382500D01*
X279608D01*
Y1367500D01*
X250000D01*
Y1317500D01*
X306783D01*
X313572Y1304800D01*
X312035Y1302500D01*
X250000D01*
Y1297267D01*
X228051D01*
X225233Y1301484D01*
X213656Y1309219D01*
X200000Y1311936D01*
X186344Y1309219D01*
X174766Y1301484D01*
X167031Y1289906D01*
X164314Y1276250D01*
X167031Y1262594D01*
X174766Y1251017D01*
X175202Y1250725D01*
Y1238025D01*
X174766Y1237734D01*
X167031Y1226156D01*
X164314Y1212500D01*
X167031Y1198844D01*
X174766Y1187266D01*
X176138Y1186350D01*
Y1173650D01*
X174766Y1172733D01*
X167031Y1161156D01*
X164314Y1147500D01*
X167031Y1133844D01*
X174766Y1122266D01*
X176138Y1121350D01*
Y1108650D01*
X174766Y1107734D01*
X167031Y1096156D01*
X164314Y1082500D01*
X167031Y1068844D01*
X174766Y1057266D01*
X176138Y1056350D01*
Y1043650D01*
X174766Y1042733D01*
X167031Y1031156D01*
X164314Y1017500D01*
X167031Y1003844D01*
X174766Y992266D01*
X186344Y984531D01*
X200000Y981814D01*
X213656Y984531D01*
X225233Y992266D01*
X228469Y997108D01*
X250000D01*
Y992500D01*
X303029D01*
X305000Y992108D01*
X305001Y992108D01*
X373500D01*
Y971500D01*
X440500D01*
Y1043499D01*
X440501D01*
Y1046501D01*
X440500D01*
Y1118499D01*
X440501Y1118500D01*
Y1127751D01*
X440500D01*
X440500Y1131200D01*
Y1199749D01*
X440501Y1199750D01*
Y1209001D01*
X440500D01*
X440500Y1212450D01*
Y1280999D01*
X440501Y1281000D01*
Y1290251D01*
X440500D01*
X440500Y1293700D01*
Y1362249D01*
X440501D01*
Y1371401D01*
X440500D01*
Y1443399D01*
X440501D01*
Y1452601D01*
X440500D01*
Y1524600D01*
D02*
G37*
G36*
X-459500Y1443500D02*
X-483000D01*
Y1417500D01*
X-459500D01*
Y1443500D01*
D02*
G37*
G36*
X-503000D02*
X-526500D01*
Y1417500D01*
X-503000D01*
Y1443500D01*
D02*
G37*
G36*
X526500Y1478600D02*
X493001D01*
X459500D01*
Y1456100D01*
X459500Y1452600D01*
Y1443400D01*
X459500Y1439900D01*
Y1417400D01*
X493001D01*
X526500D01*
Y1439900D01*
X526500Y1443400D01*
Y1452600D01*
X526500Y1456100D01*
Y1478600D01*
D02*
G37*
G36*
X-1328000Y1420000D02*
X-1351500D01*
Y1394000D01*
X-1328000D01*
Y1420000D01*
D02*
G37*
G36*
X-373500Y1443500D02*
X-440500D01*
Y1374950D01*
X-440500Y1371500D01*
Y1362250D01*
X-440500Y1358800D01*
Y1290251D01*
X-440500Y1290250D01*
Y1280999D01*
X-440500D01*
X-440500Y1277550D01*
Y1209001D01*
X-440500Y1209000D01*
Y1199749D01*
X-440500D01*
X-440500Y1196300D01*
Y1127751D01*
X-440500Y1127750D01*
Y1118499D01*
X-440500D01*
X-440500Y1115050D01*
Y1046500D01*
X-373500D01*
Y1089661D01*
X-362700Y1100461D01*
X-350000Y1095201D01*
Y1057500D01*
X-250000D01*
Y1062108D01*
X-228469D01*
X-225233Y1057266D01*
X-213656Y1049531D01*
X-200000Y1046814D01*
X-186344Y1049531D01*
X-174766Y1057266D01*
X-167031Y1068844D01*
X-164314Y1082500D01*
X-167031Y1096156D01*
X-174766Y1107734D01*
X-176138Y1108650D01*
Y1121350D01*
X-174766Y1122266D01*
X-167031Y1133844D01*
X-164314Y1147500D01*
X-167031Y1161156D01*
X-174766Y1172733D01*
X-176138Y1173650D01*
Y1186350D01*
X-174766Y1187266D01*
X-167031Y1198844D01*
X-164314Y1212500D01*
X-167031Y1226156D01*
X-174766Y1237734D01*
X-176138Y1238650D01*
Y1251350D01*
X-174766Y1252266D01*
X-167031Y1263844D01*
X-164314Y1277500D01*
X-167031Y1291156D01*
X-174766Y1302733D01*
X-186344Y1310469D01*
X-200000Y1313186D01*
X-213656Y1310469D01*
X-225233Y1302733D01*
X-228469Y1297892D01*
X-250000D01*
Y1302500D01*
X-350000D01*
Y1297892D01*
X-373500D01*
Y1322108D01*
X-350000D01*
Y1317500D01*
X-250000D01*
Y1367500D01*
X-350000D01*
Y1362892D01*
X-364366D01*
X-373500Y1371500D01*
X-373500Y1374408D01*
X-370642Y1387108D01*
X-350000D01*
Y1382500D01*
X-250000D01*
Y1387108D01*
X-234613D01*
X-232969Y1378844D01*
X-225233Y1367266D01*
X-213656Y1359531D01*
X-200000Y1356814D01*
X-186344Y1359531D01*
X-174766Y1367266D01*
X-167031Y1378844D01*
X-164314Y1392500D01*
X-167031Y1406156D01*
X-174766Y1417734D01*
X-186344Y1425469D01*
X-200000Y1428186D01*
X-213656Y1425469D01*
X-213834Y1425350D01*
X-215314Y1426340D01*
X-223118Y1427892D01*
X-250000D01*
Y1432500D01*
X-350000D01*
Y1427892D01*
X-373500D01*
Y1443500D01*
D02*
G37*
G36*
X-459500Y1397500D02*
X-526500D01*
Y1374950D01*
X-526500Y1371500D01*
Y1362250D01*
X-526500Y1358800D01*
Y1336250D01*
X-459500D01*
Y1358800D01*
X-459500Y1362250D01*
Y1371500D01*
X-459500Y1374950D01*
Y1397500D01*
D02*
G37*
G36*
X-1328000Y1336000D02*
X-1351500D01*
Y1310000D01*
X-1328000D01*
Y1336000D01*
D02*
G37*
G36*
X940500Y1478600D02*
X873500D01*
Y1462300D01*
X873500Y1452600D01*
X873500Y1439900D01*
Y1377600D01*
X891324D01*
Y1371884D01*
X892876Y1364081D01*
X897296Y1357465D01*
X920000Y1334762D01*
Y1303600D01*
X980000D01*
Y1363600D01*
X948838D01*
X945580Y1366859D01*
X940500Y1377600D01*
X940500D01*
X940500Y1377601D01*
Y1439900D01*
X940500Y1449600D01*
X940500Y1462300D01*
Y1478600D01*
D02*
G37*
G36*
X1288500Y1367500D02*
X1218500D01*
Y1287500D01*
X1288500D01*
Y1296268D01*
X1294885Y1299668D01*
X1301200Y1301308D01*
X1311344Y1294531D01*
X1325000Y1291814D01*
X1338656Y1294531D01*
X1350234Y1302266D01*
X1357969Y1313843D01*
X1360686Y1327500D01*
X1357969Y1341156D01*
X1350234Y1352733D01*
X1338656Y1360469D01*
X1325000Y1363185D01*
X1311344Y1360469D01*
X1301200Y1353691D01*
X1294885Y1355332D01*
X1288500Y1358731D01*
Y1367500D01*
D02*
G37*
G36*
X526500Y1397400D02*
X493001D01*
X459500D01*
Y1374950D01*
X459500Y1371400D01*
Y1362250D01*
X459500Y1358700D01*
Y1293700D01*
X459500Y1290250D01*
Y1281000D01*
X459500Y1277550D01*
Y1255000D01*
X493001D01*
X526500D01*
Y1277550D01*
X526500Y1281000D01*
Y1290250D01*
X539200Y1296050D01*
X543344Y1293281D01*
X557000Y1290564D01*
X570657Y1293281D01*
X582234Y1301016D01*
X589970Y1312594D01*
X592686Y1326250D01*
X589970Y1339906D01*
X582234Y1351484D01*
X570657Y1359219D01*
X557000Y1361936D01*
X543344Y1359219D01*
X539200Y1356450D01*
X526500Y1362250D01*
Y1371400D01*
X526500Y1374950D01*
Y1397400D01*
D02*
G37*
G36*
X1026500Y1553600D02*
X993001D01*
X959500D01*
Y1537300D01*
X959500Y1524600D01*
X959500Y1514900D01*
Y1452601D01*
X959499D01*
Y1449600D01*
X959500D01*
Y1377600D01*
X1026500D01*
Y1393208D01*
X1073953D01*
X1128500Y1338661D01*
Y1287500D01*
X1198500D01*
Y1367500D01*
X1157338D01*
X1096819Y1428019D01*
X1090203Y1432440D01*
X1082399Y1433992D01*
X1026500D01*
Y1449600D01*
X1026500D01*
Y1452601D01*
X1026500D01*
Y1514900D01*
X1026500Y1527600D01*
X1026500Y1537300D01*
Y1553600D01*
D02*
G37*
G36*
X-1328000Y1290000D02*
X-1351500D01*
Y1264000D01*
X-1328000D01*
Y1290000D01*
D02*
G37*
G36*
X-459500Y1316250D02*
X-526500D01*
Y1293700D01*
X-526500Y1290250D01*
Y1281000D01*
X-526500Y1277550D01*
Y1255000D01*
X-459500D01*
Y1277550D01*
X-459500Y1281000D01*
Y1290250D01*
X-459500Y1293700D01*
Y1316250D01*
D02*
G37*
G36*
X1017500Y1273600D02*
X997499D01*
Y1253600D01*
X1017500D01*
Y1273600D01*
D02*
G37*
G36*
X977499D02*
X957500D01*
Y1253600D01*
X977499D01*
Y1273600D01*
D02*
G37*
G36*
X1017500Y1233600D02*
X997499D01*
Y1213600D01*
X1017500D01*
Y1233600D01*
D02*
G37*
G36*
X977499D02*
X957500D01*
Y1213600D01*
X977499D01*
Y1233600D01*
D02*
G37*
G36*
X-1328000Y1206000D02*
X-1351500D01*
Y1180000D01*
X-1328000D01*
Y1206000D01*
D02*
G37*
G36*
X-459500Y1235000D02*
X-526500D01*
Y1212450D01*
X-526500Y1209000D01*
Y1199750D01*
X-526500Y1196300D01*
Y1173750D01*
X-459500D01*
Y1196300D01*
X-459500Y1199750D01*
Y1209000D01*
X-459500Y1212450D01*
Y1235000D01*
D02*
G37*
G36*
X526500D02*
X493001D01*
X459500D01*
Y1212450D01*
X459500Y1209000D01*
Y1199750D01*
X459500Y1196300D01*
Y1173750D01*
X493001D01*
X526500D01*
Y1196300D01*
X526500Y1199750D01*
Y1209000D01*
X526500Y1212450D01*
Y1235000D01*
D02*
G37*
G36*
X-1328000Y1160000D02*
X-1351500D01*
Y1134000D01*
X-1328000D01*
Y1160000D01*
D02*
G37*
G36*
X1026500Y1199600D02*
X959500D01*
Y1137300D01*
X959500Y1127600D01*
X959500Y1114900D01*
Y1098600D01*
X993000D01*
X1026500D01*
Y1114900D01*
X1026500Y1124600D01*
X1026500Y1134228D01*
X1035480Y1143208D01*
X1064531D01*
X1067766Y1138367D01*
X1079344Y1130631D01*
X1093000Y1127914D01*
X1106656Y1130631D01*
X1118233Y1138367D01*
X1125969Y1149944D01*
X1128686Y1163600D01*
X1125969Y1177256D01*
X1118233Y1188834D01*
X1106656Y1196569D01*
X1093000Y1199286D01*
X1079344Y1196569D01*
X1067766Y1188834D01*
X1064531Y1183992D01*
X1026500D01*
Y1199600D01*
D02*
G37*
G36*
X-459500Y1153750D02*
X-526500D01*
Y1131200D01*
X-526500Y1127750D01*
Y1118500D01*
X-526500Y1115050D01*
Y1092500D01*
X-459500D01*
Y1115050D01*
X-459500Y1118500D01*
Y1127750D01*
X-459500Y1131200D01*
Y1153750D01*
D02*
G37*
G36*
X526500D02*
X493001D01*
X459500D01*
Y1131200D01*
X459500Y1127750D01*
Y1118500D01*
X459500Y1115050D01*
Y1092500D01*
X493001D01*
X526500D01*
Y1115050D01*
X526500Y1118500D01*
Y1127750D01*
X526500Y1131200D01*
Y1153750D01*
D02*
G37*
G36*
X1026500Y1078600D02*
X1003000D01*
Y1052600D01*
X1026500D01*
Y1078600D01*
D02*
G37*
G36*
X983000D02*
X959500D01*
Y1052600D01*
X983000D01*
Y1078600D01*
D02*
G37*
G36*
X812500Y1279286D02*
X798843Y1276569D01*
X787266Y1268834D01*
X779531Y1257257D01*
X776814Y1243600D01*
X779531Y1229944D01*
X787266Y1218367D01*
X798843Y1210631D01*
X812500Y1207915D01*
X826156Y1210631D01*
X837733Y1218367D01*
X840969Y1223208D01*
X882500D01*
Y1213600D01*
X889358D01*
Y1199600D01*
X873500D01*
Y1127601D01*
X873500D01*
Y1124600D01*
X873500D01*
Y1052600D01*
X940500D01*
Y1124600D01*
X940500D01*
Y1127601D01*
X940500D01*
Y1199600D01*
X930142D01*
Y1213600D01*
X942500D01*
Y1273600D01*
X882500D01*
Y1263992D01*
X840969D01*
X837733Y1268834D01*
X826156Y1276569D01*
X812500Y1279286D01*
D02*
G37*
G36*
X-459500Y1072500D02*
X-483000D01*
Y1046500D01*
X-459500D01*
Y1072500D01*
D02*
G37*
G36*
X-503000D02*
X-526500D01*
Y1046500D01*
X-503000D01*
Y1072500D01*
D02*
G37*
G36*
X526500D02*
X493001D01*
X459500D01*
Y1056200D01*
X459500Y1046500D01*
X459500Y1033800D01*
Y1017500D01*
X493001D01*
X526500D01*
Y1033800D01*
X526500Y1043500D01*
X526500Y1056200D01*
Y1072500D01*
D02*
G37*
G36*
X-250000Y1042500D02*
X-350000D01*
Y992500D01*
X-250000D01*
Y1042500D01*
D02*
G37*
G36*
X526500Y997500D02*
X503001D01*
Y971500D01*
X526500D01*
Y997500D01*
D02*
G37*
G36*
X483001D02*
X459500D01*
Y971500D01*
X483001D01*
Y997500D01*
D02*
G37*
G36*
X-664000Y976500D02*
X-690000D01*
Y953000D01*
X-664000D01*
Y976500D01*
D02*
G37*
G36*
X-710000D02*
X-736000D01*
Y953000D01*
X-710000D01*
Y976500D01*
D02*
G37*
G36*
X814000Y944286D02*
X800344Y941569D01*
X792700Y936462D01*
X780000Y938600D01*
Y938600D01*
X720000D01*
Y878600D01*
X780000D01*
X780000Y878600D01*
X792700Y880738D01*
X800344Y875631D01*
X814000Y872914D01*
X827657Y875631D01*
X839234Y883367D01*
X846970Y894944D01*
X849686Y908600D01*
X846970Y922256D01*
X839234Y933834D01*
X827657Y941569D01*
X814000Y944286D01*
D02*
G37*
G36*
X614000D02*
X600344Y941569D01*
X592700Y936462D01*
X580000Y938600D01*
Y938600D01*
X520000D01*
Y878600D01*
X580000D01*
X580000Y878600D01*
X592700Y880738D01*
X600344Y875631D01*
X614000Y872914D01*
X627657Y875631D01*
X639234Y883367D01*
X646969Y894944D01*
X649686Y908600D01*
X646969Y922256D01*
X639234Y933834D01*
X627657Y941569D01*
X614000Y944286D01*
D02*
G37*
G36*
X350000Y977500D02*
X250000D01*
Y927500D01*
X350000D01*
Y977500D01*
D02*
G37*
G36*
X-250000D02*
X-350000D01*
Y927500D01*
X-250000D01*
Y977500D01*
D02*
G37*
G36*
X443000Y942000D02*
X417000D01*
Y918500D01*
X443000D01*
Y942000D01*
D02*
G37*
G36*
X397000D02*
X371000D01*
Y918500D01*
X397000D01*
Y942000D01*
D02*
G37*
G36*
X-664000Y933000D02*
X-690000D01*
Y909500D01*
X-664000D01*
Y933000D01*
D02*
G37*
G36*
X-710000D02*
X-736000D01*
Y909500D01*
X-710000D01*
Y933000D01*
D02*
G37*
G36*
X-200000Y923186D02*
X-213656Y920469D01*
X-225233Y912734D01*
X-228469Y907892D01*
X-250000D01*
Y912500D01*
X-350000D01*
Y862500D01*
X-250000D01*
Y867108D01*
X-228469D01*
X-225233Y862266D01*
X-213656Y854531D01*
X-200000Y851814D01*
X-186344Y854531D01*
X-174766Y862266D01*
X-167031Y873844D01*
X-164314Y887500D01*
X-167031Y901156D01*
X-174766Y912734D01*
X-186344Y920469D01*
X-200000Y923186D01*
D02*
G37*
G36*
X940500Y1024600D02*
X873500D01*
Y952600D01*
X891324D01*
Y946884D01*
X892876Y939081D01*
X897296Y932465D01*
X920000Y909762D01*
Y878600D01*
X980000D01*
Y938600D01*
X948838D01*
X945580Y941859D01*
X940500Y952601D01*
X940500D01*
X940500Y952601D01*
Y1024600D01*
D02*
G37*
G36*
X443000Y898500D02*
X417000D01*
Y875000D01*
X443000D01*
Y898500D01*
D02*
G37*
G36*
X397000D02*
X371000D01*
Y875000D01*
X397000D01*
Y898500D01*
D02*
G37*
G36*
X350000Y912500D02*
X250000D01*
Y862500D01*
X350000D01*
Y912500D01*
D02*
G37*
G36*
X817500Y848600D02*
X797500D01*
Y828600D01*
X817500D01*
Y848600D01*
D02*
G37*
G36*
X617500D02*
X597500D01*
Y828600D01*
X617500D01*
Y848600D01*
D02*
G37*
G36*
X1017500D02*
X997499D01*
Y828600D01*
X1017500D01*
Y848600D01*
D02*
G37*
G36*
X977499D02*
X957500D01*
Y828600D01*
X977499D01*
Y848600D01*
D02*
G37*
G36*
X777500D02*
X757500D01*
Y828600D01*
X777500D01*
Y848600D01*
D02*
G37*
G36*
X577500D02*
X557500D01*
Y828600D01*
X577500D01*
Y848600D01*
D02*
G37*
G36*
X-250000Y847500D02*
X-350000D01*
Y797500D01*
X-250000D01*
Y847500D01*
D02*
G37*
G36*
X1288500Y867500D02*
X1218500D01*
Y787500D01*
X1288500D01*
Y796268D01*
X1294885Y799668D01*
X1301200Y801308D01*
X1311344Y794531D01*
X1325000Y791814D01*
X1338656Y794531D01*
X1350234Y802266D01*
X1357969Y813843D01*
X1360686Y827500D01*
X1357969Y841156D01*
X1350234Y852733D01*
X1338656Y860469D01*
X1325000Y863185D01*
X1311344Y860469D01*
X1301200Y853691D01*
X1294885Y855332D01*
X1288500Y858731D01*
Y867500D01*
D02*
G37*
G36*
X200000Y858186D02*
X186344Y855469D01*
X174766Y847734D01*
X167031Y836156D01*
X164314Y822500D01*
X167031Y808844D01*
X174766Y797266D01*
X186344Y789531D01*
X200000Y786814D01*
X213656Y789531D01*
X225233Y797266D01*
X228469Y802108D01*
X250000D01*
Y797500D01*
X350000D01*
Y802108D01*
X371000D01*
Y789000D01*
X443000D01*
Y856000D01*
X371000D01*
Y842892D01*
X350000D01*
Y847500D01*
X250000D01*
Y842892D01*
X228469D01*
X225233Y847734D01*
X213656Y855469D01*
X200000Y858186D01*
D02*
G37*
G36*
X1017500Y808600D02*
X997499D01*
Y788600D01*
X1017500D01*
Y808600D01*
D02*
G37*
G36*
X977499D02*
X957500D01*
Y788600D01*
X977499D01*
Y808600D01*
D02*
G37*
G36*
X817500D02*
X797500D01*
Y788600D01*
X817500D01*
Y808600D01*
D02*
G37*
G36*
X777500D02*
X757500D01*
Y788600D01*
X777500D01*
Y808600D01*
D02*
G37*
G36*
X617500D02*
X597500D01*
Y788600D01*
X617500D01*
Y808600D01*
D02*
G37*
G36*
X577500D02*
X557500D01*
Y788600D01*
X577500D01*
Y808600D01*
D02*
G37*
G36*
X-526499Y793500D02*
X-539199Y787700D01*
X-543344Y790469D01*
X-557000Y793186D01*
X-570656Y790469D01*
X-582234Y782734D01*
X-589969Y771156D01*
X-592686Y757500D01*
X-589969Y743844D01*
X-582234Y732267D01*
X-570656Y724531D01*
X-557000Y721814D01*
X-543344Y724531D01*
X-539199Y727300D01*
X-526499Y721500D01*
Y721500D01*
X-459500D01*
Y793500D01*
X-526499D01*
Y793500D01*
D02*
G37*
G36*
X1026500Y1024600D02*
X959500D01*
Y952600D01*
X1026500D01*
Y968208D01*
X1085453D01*
X1143108Y910554D01*
Y867500D01*
X1128500D01*
Y787500D01*
X1198500D01*
Y867500D01*
X1183892D01*
Y918999D01*
X1183892Y919000D01*
X1182340Y926804D01*
X1177919Y933420D01*
X1177918Y933420D01*
X1108319Y1003020D01*
X1101704Y1007440D01*
X1093900Y1008992D01*
X1026500D01*
Y1024600D01*
D02*
G37*
G36*
X1026500Y774600D02*
X1003001D01*
Y748600D01*
X1026500D01*
Y774600D01*
D02*
G37*
G36*
X626500D02*
X603000D01*
Y748600D01*
X626500D01*
Y774600D01*
D02*
G37*
G36*
X826500D02*
X802999D01*
Y748600D01*
X826500D01*
Y774600D01*
D02*
G37*
G36*
X782999D02*
X759500D01*
Y748600D01*
X782999D01*
Y774600D01*
D02*
G37*
G36*
X983001D02*
X959500D01*
Y748600D01*
X983001D01*
Y774600D01*
D02*
G37*
G36*
X583000D02*
X559500D01*
Y748600D01*
X583000D01*
Y774600D01*
D02*
G37*
G36*
X350000Y782500D02*
X250000D01*
Y732500D01*
X350000D01*
Y782500D01*
D02*
G37*
G36*
X-373500Y793500D02*
X-440499D01*
Y721500D01*
X-373500D01*
Y737108D01*
X-350000D01*
Y732500D01*
X-250000D01*
Y782500D01*
X-350000D01*
Y777892D01*
X-373500D01*
Y793500D01*
D02*
G37*
G36*
X-664000Y740500D02*
X-690000D01*
Y717000D01*
X-664000D01*
Y740500D01*
D02*
G37*
G36*
X-710000D02*
X-736000D01*
Y717000D01*
X-710000D01*
Y740500D01*
D02*
G37*
G36*
X350000Y717500D02*
X310000D01*
Y702500D01*
X350000D01*
Y717500D01*
D02*
G37*
G36*
X290000D02*
X250000D01*
Y702500D01*
X290000D01*
Y717500D01*
D02*
G37*
G36*
X-250000D02*
X-290000D01*
Y702500D01*
X-250000D01*
Y717500D01*
D02*
G37*
G36*
X-310000D02*
X-350000D01*
Y702500D01*
X-310000D01*
Y717500D01*
D02*
G37*
G36*
X826500Y728600D02*
X792999D01*
X759500D01*
Y712300D01*
X759500Y702600D01*
X759500Y689900D01*
Y673600D01*
X792999D01*
X826500D01*
Y689900D01*
X826500Y699600D01*
X826500Y712300D01*
Y728600D01*
D02*
G37*
G36*
X626500D02*
X593000D01*
X559500D01*
Y712300D01*
X559500Y702600D01*
X559500Y689900D01*
Y673600D01*
X593000D01*
X626500D01*
Y689900D01*
X626500Y699600D01*
X626500Y712300D01*
Y728600D01*
D02*
G37*
G36*
X-664000Y697000D02*
X-690000D01*
Y673500D01*
X-664000D01*
Y697000D01*
D02*
G37*
G36*
X-710000D02*
X-736000D01*
Y673500D01*
X-710000D01*
Y697000D01*
D02*
G37*
G36*
X350000Y682500D02*
X310000D01*
Y667500D01*
X350000D01*
Y682500D01*
D02*
G37*
G36*
X290000D02*
X250000D01*
Y667500D01*
X290000D01*
Y682500D01*
D02*
G37*
G36*
X-250000D02*
X-290000D01*
Y667500D01*
X-250000D01*
Y682500D01*
D02*
G37*
G36*
X-310000D02*
X-350000D01*
Y667500D01*
X-310000D01*
Y682500D01*
D02*
G37*
G36*
X1026500Y728600D02*
X993001D01*
X959500D01*
Y712300D01*
X959500Y699600D01*
X959500Y689900D01*
Y637300D01*
X959500Y627600D01*
X959500Y614900D01*
Y598600D01*
X993000D01*
X1026500D01*
Y614900D01*
X1026500Y624600D01*
X1026500Y634228D01*
X1035480Y643208D01*
X1064531D01*
X1067766Y638367D01*
X1079344Y630631D01*
X1093000Y627914D01*
X1106656Y630631D01*
X1118233Y638367D01*
X1125969Y649944D01*
X1128686Y663600D01*
X1125969Y677256D01*
X1118233Y688834D01*
X1106656Y696569D01*
X1093000Y699286D01*
X1079344Y696569D01*
X1067766Y688834D01*
X1064531Y683992D01*
X1035480D01*
X1026500Y692972D01*
X1026500Y702600D01*
X1026500Y712300D01*
Y728600D01*
D02*
G37*
G36*
X-730000Y660000D02*
X-765000D01*
Y610000D01*
X-730000D01*
Y660000D01*
D02*
G37*
G36*
X-1180000D02*
X-1215000D01*
Y610000D01*
X-1180000D01*
Y660000D01*
D02*
G37*
G36*
X-1235000D02*
X-1270000D01*
Y610000D01*
X-1235000D01*
Y660000D01*
D02*
G37*
G36*
X-785000D02*
X-820000D01*
Y610000D01*
X-785000D01*
Y660000D01*
D02*
G37*
G36*
X255998Y576500D02*
X251298Y576500D01*
X229998D01*
Y543000D01*
Y509500D01*
X251298D01*
X263998Y509500D01*
X268698Y509500D01*
X289998D01*
Y543000D01*
Y576500D01*
X255998D01*
D02*
G37*
G36*
X309998Y576500D02*
Y553000D01*
X335998D01*
Y576500D01*
X309998D01*
D02*
G37*
G36*
X-50001D02*
Y553000D01*
X-24001D01*
Y576500D01*
X-50001D01*
D02*
G37*
G36*
X-624002D02*
X-650001D01*
Y553000D01*
X-624002D01*
Y576500D01*
D02*
G37*
G36*
X-150001D02*
X-176001D01*
Y553000D01*
X-150001D01*
Y576500D01*
D02*
G37*
G36*
X-670001D02*
X-696001D01*
Y553000D01*
X-670001D01*
Y576500D01*
D02*
G37*
G36*
X129998D02*
X103999D01*
Y553000D01*
X129998D01*
Y576500D01*
D02*
G37*
G36*
X1026500Y578600D02*
X1003000D01*
Y552600D01*
X1026500D01*
Y578600D01*
D02*
G37*
G36*
X983000D02*
X959500D01*
Y552600D01*
X983000D01*
Y578600D01*
D02*
G37*
G36*
X942500Y848600D02*
X882500D01*
Y788600D01*
X889358D01*
Y774600D01*
X873500D01*
Y702601D01*
X873500D01*
X873500Y699600D01*
X873500D01*
Y627601D01*
X873500D01*
Y624600D01*
X873500D01*
Y552600D01*
X940500D01*
Y614900D01*
X940500Y624600D01*
X940500D01*
Y627601D01*
X940500D01*
Y699600D01*
X940500D01*
X940501Y702601D01*
X940500D01*
Y774600D01*
X930142D01*
Y788600D01*
X942500D01*
Y848600D01*
D02*
G37*
G36*
X742500D02*
X682500D01*
Y788600D01*
X689358D01*
Y774600D01*
X673500D01*
Y702601D01*
X673500D01*
Y699600D01*
X673500D01*
Y627601D01*
X673500D01*
Y624600D01*
X673500D01*
Y552600D01*
X740500D01*
Y614900D01*
X740500Y624600D01*
X740500D01*
Y627601D01*
X740500D01*
Y689900D01*
X740500Y699600D01*
X740500D01*
Y702601D01*
X740500D01*
Y774600D01*
X730142D01*
Y788600D01*
X742500D01*
Y848600D01*
D02*
G37*
G36*
X542500D02*
X482500D01*
Y788600D01*
X489358D01*
Y774600D01*
X473500D01*
Y702601D01*
X473500D01*
Y699600D01*
X473500D01*
Y627601D01*
X473500D01*
Y624600D01*
X473500D01*
Y552600D01*
X540500D01*
Y614900D01*
X540500Y624600D01*
X540500D01*
Y627601D01*
X540500D01*
Y689900D01*
X540500Y699600D01*
X540500D01*
Y702601D01*
X540500D01*
Y774600D01*
X530142D01*
Y788600D01*
X542500D01*
Y848600D01*
D02*
G37*
G36*
X-730000Y590000D02*
X-765000D01*
Y540000D01*
X-730000D01*
Y590000D01*
D02*
G37*
G36*
X-785000D02*
X-820000D01*
Y540000D01*
X-785000D01*
Y590000D01*
D02*
G37*
G36*
X-1180000D02*
X-1215000D01*
Y540000D01*
X-1180000D01*
Y590000D01*
D02*
G37*
G36*
X-1235000D02*
X-1270000D01*
Y540000D01*
X-1235000D01*
Y590000D01*
D02*
G37*
G36*
X335998Y533000D02*
X309998D01*
Y509500D01*
X335998D01*
Y533000D01*
D02*
G37*
G36*
X-24001D02*
X-50001D01*
Y509500D01*
X-24001D01*
Y533000D01*
D02*
G37*
G36*
X-624002D02*
X-650001D01*
Y509500D01*
X-624002D01*
Y533000D01*
D02*
G37*
G36*
X-670001D02*
X-696001D01*
Y509500D01*
X-670001D01*
Y533000D01*
D02*
G37*
G36*
X175998Y576500D02*
X171298Y576500D01*
X149998D01*
Y543000D01*
Y509500D01*
X171298D01*
X183998Y509500D01*
X188699Y509500D01*
X209998D01*
Y543000D01*
Y576500D01*
X188699D01*
X175998Y576500D01*
D02*
G37*
G36*
X129998Y533000D02*
X103999D01*
Y509500D01*
X129998D01*
Y533000D01*
D02*
G37*
G36*
X-150001Y533000D02*
X-176001D01*
Y509500D01*
X-150001D01*
Y533000D01*
D02*
G37*
G36*
X-104001Y576500D02*
X-108702Y576500D01*
X-130001D01*
Y543000D01*
Y509500D01*
X-108702D01*
X-96001Y509500D01*
X-91301Y509500D01*
X-70001D01*
Y543000D01*
Y576500D01*
X-104001D01*
D02*
G37*
G36*
X-730000Y511000D02*
X-753500D01*
Y485000D01*
X-730000D01*
Y511000D01*
D02*
G37*
G36*
X-773500D02*
X-797000D01*
Y485000D01*
X-773500D01*
Y511000D01*
D02*
G37*
G36*
X-730000Y465000D02*
X-753500D01*
Y439000D01*
X-730000D01*
Y465000D01*
D02*
G37*
G36*
X-773500D02*
X-797000D01*
Y439000D01*
X-773500D01*
Y465000D01*
D02*
G37*
%LPD*%
G36*
X1120255Y4089742D02*
X859743D01*
Y4350255D01*
X1120255D01*
Y4089742D01*
D02*
G37*
G36*
X760255D02*
X679743D01*
Y4350255D01*
X760255D01*
Y4089742D01*
D02*
G37*
D10*
X359999Y4618401D02*
G03*
X178400Y4800000I-181599J0D01*
G01*
X359999Y4330000D02*
Y4618401D01*
X50000Y4800000D02*
X178400D01*
X-40000D02*
X50000D01*
X-550000D02*
X-160000D01*
D11*
X-925000Y990000D02*
D03*
X-1025000Y710000D02*
D03*
X-975000D02*
D03*
X-1075000D02*
D03*
Y990000D02*
D03*
X-1025000D02*
D03*
X-975000D02*
D03*
X-925000Y710000D02*
D03*
D12*
X-1140000Y925000D02*
D03*
Y875000D02*
D03*
Y825000D02*
D03*
Y775000D02*
D03*
X-860000Y925000D02*
D03*
Y875000D02*
D03*
Y825000D02*
D03*
Y775000D02*
D03*
D13*
X-1000000Y850000D02*
D03*
D14*
X593000Y588600D02*
D03*
X507000D02*
D03*
X993000Y1088600D02*
D03*
X907000D02*
D03*
X993000Y988600D02*
D03*
X907000D02*
D03*
X993000Y1163600D02*
D03*
X907000D02*
D03*
X407000Y1326250D02*
D03*
X493000D02*
D03*
Y1082500D02*
D03*
X407000D02*
D03*
X493000Y1488600D02*
D03*
X407000D02*
D03*
X493000Y1245000D02*
D03*
X407000D02*
D03*
X493000Y1407400D02*
D03*
X407000D02*
D03*
X493000Y1163750D02*
D03*
X407000D02*
D03*
X907000Y1488600D02*
D03*
X993000D02*
D03*
Y1413600D02*
D03*
X907000D02*
D03*
X907000Y1563600D02*
D03*
X993000D02*
D03*
X907000Y738600D02*
D03*
X993000D02*
D03*
X993000Y588600D02*
D03*
X907000D02*
D03*
X993000Y663600D02*
D03*
X907000D02*
D03*
X-407000Y1326250D02*
D03*
X-493000D02*
D03*
Y1407500D02*
D03*
X-407000D02*
D03*
X-493000Y1245000D02*
D03*
X-407000D02*
D03*
X-407000Y757500D02*
D03*
X-493000D02*
D03*
X-407000Y1082500D02*
D03*
X-493000D02*
D03*
Y1163750D02*
D03*
X-407000D02*
D03*
X-1318000Y1300000D02*
D03*
X-1232000D02*
D03*
Y1170000D02*
D03*
X-1318000D02*
D03*
Y1430000D02*
D03*
X-1232000D02*
D03*
X793000Y588600D02*
D03*
X707000D02*
D03*
X507000Y738600D02*
D03*
X593000D02*
D03*
X-763500Y475000D02*
D03*
X-849500D02*
D03*
X707000Y738600D02*
D03*
X793000D02*
D03*
X593000Y663600D02*
D03*
X507000D02*
D03*
X793000D02*
D03*
X707000D02*
D03*
X-57000Y4800000D02*
D03*
X-143000D02*
D03*
X407000Y1007500D02*
D03*
X493000D02*
D03*
D15*
X-660001Y543000D02*
D03*
Y457000D02*
D03*
X299998Y543000D02*
D03*
Y457000D02*
D03*
X-140001Y543000D02*
D03*
Y457000D02*
D03*
X219998Y543000D02*
D03*
Y457000D02*
D03*
X139998Y543000D02*
D03*
Y457000D02*
D03*
X-700000Y857000D02*
D03*
Y943000D02*
D03*
Y707000D02*
D03*
Y793000D02*
D03*
X-1225000D02*
D03*
Y707000D02*
D03*
X-1300000Y857000D02*
D03*
Y943000D02*
D03*
X-1225000Y857000D02*
D03*
Y943000D02*
D03*
X-60001Y543000D02*
D03*
Y457000D02*
D03*
X150000Y4886000D02*
D03*
Y4800000D02*
D03*
X50000Y4886000D02*
D03*
Y4800000D02*
D03*
X-250000Y4886000D02*
D03*
Y4800000D02*
D03*
X-350000Y4886000D02*
D03*
Y4800000D02*
D03*
X407000Y822500D02*
D03*
Y908500D02*
D03*
D16*
X950000Y908600D02*
D03*
X987500Y818600D02*
D03*
X912500D02*
D03*
X950000Y1333600D02*
D03*
X987500Y1243600D02*
D03*
X912500D02*
D03*
X712500Y818600D02*
D03*
X787500D02*
D03*
X750000Y908600D02*
D03*
X512500Y818600D02*
D03*
X587500D02*
D03*
X550000Y908600D02*
D03*
D17*
X300000Y1082500D02*
D03*
Y1147500D02*
D03*
Y1212500D02*
D03*
Y1017500D02*
D03*
Y952500D02*
D03*
Y887500D02*
D03*
Y822500D02*
D03*
Y1277500D02*
D03*
X-300000Y1082500D02*
D03*
Y1147500D02*
D03*
Y1212500D02*
D03*
Y1017500D02*
D03*
Y952500D02*
D03*
Y887500D02*
D03*
Y822500D02*
D03*
Y1277500D02*
D03*
Y1342500D02*
D03*
Y757500D02*
D03*
X300000Y1342500D02*
D03*
Y757500D02*
D03*
X-300000Y1407500D02*
D03*
Y692500D02*
D03*
X300000D02*
D03*
Y1407500D02*
D03*
D18*
X1163500Y1327500D02*
D03*
X1253500D02*
D03*
X1163500Y827500D02*
D03*
X1253500D02*
D03*
D19*
X-925000Y600000D02*
D03*
X-775000D02*
D03*
X-1075000D02*
D03*
X-1225000D02*
D03*
D20*
X-992500Y1430000D02*
D03*
Y1170000D02*
D03*
D21*
X-550000Y4800000D02*
D03*
X-850000Y4800000D02*
D03*
D22*
X-700000Y4947500D02*
D03*
Y4652500D02*
D03*
D23*
X1139999Y140000D02*
D03*
X1059999D02*
D03*
X979999D02*
D03*
X899999D02*
D03*
X819999D02*
D03*
X739999D02*
D03*
X659999D02*
D03*
X579999D02*
D03*
X499998D02*
D03*
X419999D02*
D03*
X339999D02*
D03*
X259999D02*
D03*
X179999D02*
D03*
X99999D02*
D03*
X19999D02*
D03*
X-60001D02*
D03*
X-140001D02*
D03*
X-220001D02*
D03*
X-620002D02*
D03*
X-700001D02*
D03*
X-780001D02*
D03*
X-860002D02*
D03*
X-940001D02*
D03*
X-1020002D02*
D03*
X-1100001D02*
D03*
X-1180001D02*
D03*
D24*
X359999Y2330000D02*
D03*
X539999D02*
D03*
X-1D02*
D03*
X179999D02*
D03*
X-360001D02*
D03*
X-180001D02*
D03*
X-540000D02*
D03*
X719999Y3589999D02*
D03*
Y3409999D02*
D03*
Y3049999D02*
D03*
Y3229999D02*
D03*
Y2689999D02*
D03*
Y2510000D02*
D03*
Y2869999D02*
D03*
X539999Y3769999D02*
D03*
X359999D02*
D03*
X179999D02*
D03*
X-1D02*
D03*
X-360001D02*
D03*
X-180001D02*
D03*
X-540000D02*
D03*
X-720000Y2516600D02*
D03*
Y2689999D02*
D03*
Y2869999D02*
D03*
Y3049999D02*
D03*
Y3229999D02*
D03*
Y3409999D02*
D03*
Y3589999D02*
D03*
X1079999Y4309998D02*
D03*
X1259998Y4129999D02*
D03*
X1079999D02*
D03*
X1259998Y3769999D02*
D03*
Y3949999D02*
D03*
X899999Y4129999D02*
D03*
X1079999Y3949999D02*
D03*
X899999Y4309998D02*
D03*
X1079999Y3769999D02*
D03*
X899999Y3949999D02*
D03*
X1259998Y3589999D02*
D03*
Y3409999D02*
D03*
X1079999Y3589999D02*
D03*
X1259998Y3049999D02*
D03*
Y3229999D02*
D03*
X899999Y3589999D02*
D03*
X1079999Y3409999D02*
D03*
X899999Y3769999D02*
D03*
X1079999Y3229999D02*
D03*
X899999Y3409999D02*
D03*
X539999Y4309998D02*
D03*
X719999D02*
D03*
X359999D02*
D03*
X719999Y4129999D02*
D03*
X539999D02*
D03*
X179999Y4309998D02*
D03*
X359999Y4129999D02*
D03*
X-1Y4309998D02*
D03*
X179999Y4129999D02*
D03*
X-180001D02*
D03*
X719999Y3949999D02*
D03*
Y3769999D02*
D03*
X539999Y3949999D02*
D03*
X899999Y3049999D02*
D03*
Y3229999D02*
D03*
X359999Y3949999D02*
D03*
X-1Y4129999D02*
D03*
X179999Y3949999D02*
D03*
X-1D02*
D03*
X1259998Y2689999D02*
D03*
Y2510000D02*
D03*
Y2869999D02*
D03*
X1079999D02*
D03*
Y2689999D02*
D03*
Y3049999D02*
D03*
Y2510000D02*
D03*
X899999Y2689999D02*
D03*
X1259998Y2330000D02*
D03*
Y2150000D02*
D03*
X1079999Y2330000D02*
D03*
X1259998Y1970000D02*
D03*
X1079999Y1790000D02*
D03*
X899999Y2330000D02*
D03*
X1079999Y2150000D02*
D03*
X899999Y2510000D02*
D03*
X1079999Y1970000D02*
D03*
X899999Y1790000D02*
D03*
Y2869999D02*
D03*
Y2150000D02*
D03*
X719999Y2330000D02*
D03*
Y1970000D02*
D03*
Y2150000D02*
D03*
X359999D02*
D03*
X539999D02*
D03*
X-1D02*
D03*
X539999Y1970000D02*
D03*
X179999Y2150000D02*
D03*
X899999Y1970000D02*
D03*
X719999Y1790000D02*
D03*
X359999Y1970000D02*
D03*
X539999Y1790000D02*
D03*
X359999D02*
D03*
X179999Y1970000D02*
D03*
X-1D02*
D03*
X179999Y1790000D02*
D03*
X-1D02*
D03*
X-360001Y4309998D02*
D03*
X-180001D02*
D03*
X-540000D02*
D03*
X-360001Y4129999D02*
D03*
X-540000D02*
D03*
X-720000Y4309998D02*
D03*
Y4129999D02*
D03*
X-900000Y4309998D02*
D03*
X-360001Y3949999D02*
D03*
X-180001D02*
D03*
X-540000D02*
D03*
X-720000Y3769999D02*
D03*
Y3949999D02*
D03*
X-900000D02*
D03*
Y3409999D02*
D03*
Y4129999D02*
D03*
Y3049999D02*
D03*
Y3229999D02*
D03*
X-1080000Y4129999D02*
D03*
Y3949999D02*
D03*
Y4309998D02*
D03*
X-900000Y3589999D02*
D03*
Y3769999D02*
D03*
X-1260000Y4129999D02*
D03*
Y3949999D02*
D03*
X-1080000Y3769999D02*
D03*
X-1260000D02*
D03*
X-1080000Y3409999D02*
D03*
Y3229999D02*
D03*
Y3589999D02*
D03*
X-900000Y2869999D02*
D03*
X-1080000Y3049999D02*
D03*
X-1260000Y3409999D02*
D03*
Y3589999D02*
D03*
Y3049999D02*
D03*
Y3229999D02*
D03*
X-360001Y2150000D02*
D03*
X-180001D02*
D03*
X-720000Y2330000D02*
D03*
X-180001Y1970000D02*
D03*
X-540000Y2150000D02*
D03*
X-900000Y2330000D02*
D03*
X-720000Y2150000D02*
D03*
X-900000Y2689999D02*
D03*
X-360001Y1970000D02*
D03*
X-180001Y1790000D02*
D03*
X-540000Y1970000D02*
D03*
X-360001Y1790000D02*
D03*
X-540000D02*
D03*
X-720000D02*
D03*
Y1970000D02*
D03*
X-1080000Y2689999D02*
D03*
X-900000Y2510000D02*
D03*
X-1080000Y2869999D02*
D03*
Y2330000D02*
D03*
Y2510000D02*
D03*
X-1260000Y2689999D02*
D03*
Y2510000D02*
D03*
Y2869999D02*
D03*
X-900000Y2150000D02*
D03*
Y1970000D02*
D03*
X-1080000Y2150000D02*
D03*
X-900000Y1790000D02*
D03*
X-1080000D02*
D03*
X-1260000Y2150000D02*
D03*
Y2330000D02*
D03*
X-1080000Y1970000D02*
D03*
X-1260000D02*
D03*
X-180000Y3049999D02*
D03*
Y3230000D02*
D03*
Y2870000D02*
D03*
X180000Y3230000D02*
D03*
X-1Y3049999D02*
D03*
Y3230000D02*
D03*
X180000Y2870000D02*
D03*
Y3049999D02*
D03*
X-1Y2870000D02*
D03*
D25*
X1169998Y1880000D02*
X1259998Y1970000D01*
X200000Y1427500D02*
X208118D01*
X228117Y1407500D01*
X300000D01*
X-208118Y1392500D02*
X-200000D01*
X-223118Y1407500D02*
X-208118Y1392500D01*
X907000Y1563600D02*
Y1627601D01*
X896340Y1574260D02*
X907000Y1563600D01*
X-407000Y1407500D02*
X-223118D01*
X-900000Y3049999D02*
X-810000Y3139999D01*
X269999Y1880000D02*
X359999Y1790000D01*
X-1328998Y870500D02*
X-1313500D01*
X-1346000Y887503D02*
Y1015498D01*
X-1328998Y1032500D01*
X-1313500Y870500D02*
X-1300000Y857000D01*
X-1346000Y887503D02*
X-1328998Y870500D01*
Y1032500D02*
X-1275000D01*
X1253500Y827500D02*
X1325000D01*
X200000Y1276250D02*
X200625Y1276875D01*
X299375D02*
X300000Y1277500D01*
X200625Y1276875D02*
X299375D01*
X-1208840Y3150000D02*
X-1000000D01*
X-300000Y1212500D02*
X-200000D01*
X-300000Y1082500D02*
X-200000D01*
X-300000Y1147500D02*
X-200000D01*
X509750Y591350D02*
Y815850D01*
X507000Y588600D02*
X509750Y591350D01*
Y815850D02*
X512500Y818600D01*
X709750Y591350D02*
Y815850D01*
X707000Y588600D02*
X709750Y591350D01*
Y815850D02*
X712500Y818600D01*
X379998Y367499D02*
X490000Y477500D01*
X557500D01*
X502426Y447500D02*
X725000D01*
X459998Y300000D02*
Y405072D01*
X379998Y300000D02*
Y367499D01*
X459998Y405072D02*
X502426Y447500D01*
X557500Y477500D02*
X593000Y513000D01*
X725000Y447500D02*
X793000Y515500D01*
X593000Y513000D02*
Y588600D01*
X793000Y515500D02*
Y588600D01*
X550000Y908600D02*
X614000D01*
X750000D02*
X814000D01*
X-660001Y300000D02*
Y457000D01*
X-700000Y793000D02*
X-636000D01*
X493000Y1326250D02*
X557000D01*
X-557000Y757500D02*
X-493000D01*
X-920001Y271882D02*
X-900002Y291882D01*
X-940001Y140000D02*
X-920001Y160000D01*
Y271882D01*
X-900002Y291882D02*
Y300000D01*
X-360001Y1970000D02*
X-270000Y1880000D01*
X-1260000Y2150000D02*
X-1170000Y2240000D01*
X300000Y822500D02*
X407000D01*
X402000Y1012500D02*
X407000Y1007500D01*
X300000Y1017500D02*
X305000Y1012500D01*
X402000D01*
X200000Y822500D02*
X300000D01*
X200000Y1147500D02*
X300000D01*
X200000Y1017500D02*
X300000D01*
X200000Y1082500D02*
X300000D01*
X200000Y1212500D02*
X300000D01*
X907000Y988600D02*
X911716Y983884D01*
Y946884D02*
Y983884D01*
X993000Y988600D02*
X996784Y984816D01*
X911716Y946884D02*
X950000Y908600D01*
X909750Y815850D02*
X912500Y818600D01*
X1163500Y827500D02*
Y919000D01*
X1093900Y988600D02*
X1163500Y919000D01*
X993000Y988600D02*
X1093900D01*
X300000Y1082500D02*
X407000D01*
X300000Y1212500D02*
X377000D01*
X393250Y1147500D02*
X407000Y1161250D01*
X300000Y1147500D02*
X393250D01*
X407000Y1161250D02*
Y1163750D01*
X993000Y663600D02*
X1093000D01*
X907000Y588600D02*
X909750Y591350D01*
Y815850D01*
X-407000Y1328750D02*
X-393500Y1342250D01*
X-300000Y1277500D02*
X-200000D01*
X-377000D02*
X-300000D01*
X-390750Y1342500D02*
X-300000D01*
X-391000Y1342250D02*
X-390750Y1342500D01*
X-407000Y1326250D02*
Y1328750D01*
X-393500Y1342250D02*
X-391000D01*
X-407000Y1247500D02*
X-377000Y1277500D01*
X-407000Y1245000D02*
Y1247500D01*
Y1163750D02*
Y1166250D01*
X-300000Y757500D02*
X-300000Y757500D01*
X-407000Y757500D02*
X-300000D01*
X-300000Y887500D02*
X-200000D01*
X-349500Y1142500D02*
X-305000D01*
Y1207500D02*
X-300000Y1212500D01*
X-365750Y1207500D02*
X-305000D01*
Y1142500D02*
X-300000Y1147500D01*
X-407000Y1166250D02*
X-365750Y1207500D01*
X-407000Y1082500D02*
Y1085000D01*
X-349500Y1142500D01*
X909750Y1240850D02*
X912500Y1243600D01*
X812500D02*
X912500D01*
X407000Y1407500D02*
Y1488600D01*
X406950Y1407450D02*
X407000Y1407500D01*
X907000Y1088600D02*
X909750Y1091350D01*
X993000Y1163600D02*
X1093000D01*
X909750Y1091350D02*
Y1240850D01*
X911716Y1371884D02*
X950000Y1333600D01*
X911716Y1371884D02*
Y1408884D01*
X993000Y1413600D02*
Y1488600D01*
X907000Y1413600D02*
X911716Y1408884D01*
X1082399Y1413600D02*
X1163500Y1332500D01*
X993000Y1413600D02*
X1082399D01*
X300000Y1407500D02*
X300050Y1407450D01*
X357750Y1310250D02*
X393500D01*
X407000Y1323750D01*
Y1326250D01*
X300050Y1407450D02*
X406950D01*
X300000Y1342500D02*
Y1407500D01*
X377000Y1212500D02*
X407000Y1242500D01*
X325000Y1277500D02*
X357750Y1310250D01*
X407000Y1242500D02*
Y1245000D01*
X300000Y1277500D02*
X325000D01*
X1163500Y1327500D02*
Y1332500D01*
X1253500Y1327500D02*
X1325000D01*
X299998Y300000D02*
Y457000D01*
X219998Y300000D02*
Y457000D01*
X139998Y300000D02*
Y457000D01*
X-60001Y300000D02*
Y457000D01*
X-140001Y300000D02*
Y457000D01*
X-1232000Y1075500D02*
Y1170000D01*
X-1275000Y1032500D02*
X-1232000Y1075500D01*
X-1139001Y990000D02*
X-1075000D01*
X-860000Y825000D02*
X-812000D01*
X-780000Y857000D01*
X-1160000Y927000D02*
X-1158000Y925000D01*
X-1140000D01*
X-1160000Y927000D02*
Y931284D01*
X-1171716Y943000D02*
X-1160000Y931284D01*
X-1225000Y943000D02*
X-1171716D01*
X-1225000Y943000D02*
X-1225000Y943000D01*
X-1300000Y943000D02*
X-1225000D01*
X-1228242Y3350000D02*
X-1000000D01*
X-1260000Y3409999D02*
X-1239957Y3389956D01*
Y3361716D02*
Y3389956D01*
Y3361716D02*
X-1228242Y3350000D01*
X-1240256Y3181417D02*
X-1208840Y3150000D01*
X-1260000Y3229999D02*
X-1240256Y3210255D01*
Y3181417D02*
Y3210255D01*
X269999Y3859999D02*
X359999Y3769999D01*
X719999Y3409999D02*
X809999Y3319999D01*
X719999Y2869999D02*
X809999Y2779999D01*
X-540000Y1790000D02*
X-450000Y1880000D01*
X-810000D02*
X-720000Y1790000D01*
X539999Y1970000D02*
X629999Y2060000D01*
X449999Y1880000D02*
X539999Y1790000D01*
X-1260000Y3769999D02*
X-1170000Y3679999D01*
X-1260000Y3589999D02*
X-1170000Y3499999D01*
X1169998Y2060000D02*
X1259998Y2150000D01*
X1169998Y2240000D02*
X1259998Y2330000D01*
X1169998Y2419999D02*
X1259998Y2510000D01*
X-630001Y2060000D02*
X-540000Y2150000D01*
X-1260000Y3949999D02*
X-1170000Y3859999D01*
X629999Y1880000D02*
X719999Y1790000D01*
X809999Y1880000D02*
X899999Y1790000D01*
D26*
X-860000Y775000D02*
X-789000D01*
X-771000Y793000D01*
X-700000D01*
Y857000D01*
D27*
X-1223500Y708500D02*
X-1080000D01*
X-1225000Y707000D02*
X-1223500Y708500D01*
D28*
X-1020002Y140000D02*
Y350002D01*
X-1100001Y140000D02*
Y350002D01*
X-1180001Y140000D02*
Y350002D01*
X-620002Y218198D02*
X-546100Y292100D01*
X-620002Y140000D02*
Y218198D01*
X-220001Y140000D02*
Y350002D01*
X19999Y140000D02*
Y350002D01*
X739999Y140000D02*
Y350002D01*
X899999Y140000D02*
Y350002D01*
X1139999Y140000D02*
Y350002D01*
D29*
X-1080000Y1790000D02*
X-990000Y1700000D01*
X-900000Y1790000D02*
X-810000Y1700000D01*
D30*
X-1425000Y400000D02*
D03*
Y500000D02*
D03*
Y600000D02*
D03*
Y700000D02*
D03*
Y800000D02*
D03*
Y900000D02*
D03*
Y1100000D02*
D03*
Y1200000D02*
D03*
Y1300000D02*
D03*
Y1000000D02*
D03*
Y1400000D02*
D03*
Y1500000D02*
D03*
Y1600000D02*
D03*
Y1700000D02*
D03*
Y1900000D02*
D03*
Y2000000D02*
D03*
Y2100000D02*
D03*
Y1800000D02*
D03*
Y2200000D02*
D03*
Y3700000D02*
D03*
Y4200000D02*
D03*
Y4300000D02*
D03*
Y4400000D02*
D03*
Y4100000D02*
D03*
Y4000000D02*
D03*
Y3900000D02*
D03*
Y3800000D02*
D03*
Y4500000D02*
D03*
X1425000Y400000D02*
D03*
Y600000D02*
D03*
Y500000D02*
D03*
Y1500000D02*
D03*
Y1700000D02*
D03*
Y1600000D02*
D03*
Y1100000D02*
D03*
Y1400000D02*
D03*
Y1300000D02*
D03*
Y1200000D02*
D03*
Y700000D02*
D03*
Y1000000D02*
D03*
Y900000D02*
D03*
Y800000D02*
D03*
Y2600000D02*
D03*
Y2800000D02*
D03*
Y2700000D02*
D03*
Y2200000D02*
D03*
Y2500000D02*
D03*
Y2400000D02*
D03*
Y2300000D02*
D03*
Y1800000D02*
D03*
Y2100000D02*
D03*
Y2000000D02*
D03*
Y1900000D02*
D03*
Y3000000D02*
D03*
Y3100000D02*
D03*
Y3200000D02*
D03*
Y2900000D02*
D03*
Y3400000D02*
D03*
Y3500000D02*
D03*
Y3600000D02*
D03*
Y3300000D02*
D03*
Y3800000D02*
D03*
Y3900000D02*
D03*
Y4000000D02*
D03*
Y3700000D02*
D03*
Y4100000D02*
D03*
Y4400000D02*
D03*
Y4300000D02*
D03*
Y4200000D02*
D03*
Y4500000D02*
D03*
D31*
X-1210001Y4805000D02*
D03*
X1209999D02*
D03*
D32*
X1169997Y1880000D02*
D03*
X-625000Y1877500D02*
D03*
X200000Y1427500D02*
D03*
X100000Y1342500D02*
D03*
X821820Y1396820D02*
D03*
X907000Y1627601D02*
D03*
X137500Y1595000D02*
D03*
X560000D02*
D03*
X1147500D02*
D03*
X-651783Y1469283D02*
D03*
X-200000Y1392500D02*
D03*
X-809999Y3139999D02*
D03*
X217500Y4887500D02*
D03*
X280000Y4875000D02*
D03*
X345000Y4837500D02*
D03*
X395000Y4787500D02*
D03*
X430000Y4727500D02*
D03*
X250000Y4660000D02*
D03*
X450000Y4660000D02*
D03*
Y4590000D02*
D03*
Y4520000D02*
D03*
X270000Y4590000D02*
D03*
Y4520000D02*
D03*
Y4450000D02*
D03*
X450000D02*
D03*
X-170000Y4900000D02*
D03*
X-100000D02*
D03*
X-29999D02*
D03*
X180001Y4700000D02*
D03*
X110001D02*
D03*
X40001D02*
D03*
X-29999D02*
D03*
X-100000D02*
D03*
X-170000D02*
D03*
X-240000D02*
D03*
X-310000D02*
D03*
X-380000D02*
D03*
X-450000D02*
D03*
Y4900000D02*
D03*
X-950000Y800000D02*
D03*
X-1050000Y900000D02*
D03*
Y800000D02*
D03*
X-1000000Y850000D02*
D03*
X-950000Y900000D02*
D03*
X269999Y1880001D02*
D03*
X-810000Y3517500D02*
D03*
X-995000Y2777500D02*
D03*
X-1170000Y1062500D02*
D03*
X-995000Y3740000D02*
D03*
X-635000Y4032500D02*
D03*
X205000Y3600000D02*
D03*
X-782500Y3320000D02*
D03*
X-245000Y3435000D02*
D03*
X-252500Y2962500D02*
D03*
X567500Y2462500D02*
D03*
X-272500Y2235000D02*
D03*
X87500Y2060000D02*
D03*
X275000Y2082500D02*
D03*
X985000Y1792500D02*
D03*
X987500Y2060000D02*
D03*
X625000Y1717500D02*
D03*
X1025000Y355000D02*
D03*
X-287500Y450000D02*
D03*
X-547500Y392500D02*
D03*
X-807500Y377500D02*
D03*
X-782500Y710000D02*
D03*
X-702500Y1077500D02*
D03*
X-150000Y1335000D02*
D03*
X-147500Y987500D02*
D03*
X-117500Y690000D02*
D03*
X427500Y615000D02*
D03*
X1120000Y1045000D02*
D03*
X712500Y977500D02*
D03*
X70000Y915000D02*
D03*
X67500Y1147500D02*
D03*
X760000Y3692500D02*
D03*
X820000D02*
D03*
X880000D02*
D03*
X940000D02*
D03*
X200000Y1276250D02*
D03*
X-1000000Y3150000D02*
D03*
X-100000Y2749500D02*
D03*
Y2876500D02*
D03*
X-200000Y1147500D02*
D03*
Y1212500D02*
D03*
Y1082500D02*
D03*
X614000Y908600D02*
D03*
X814000D02*
D03*
X-636000Y793000D02*
D03*
X557000Y1326250D02*
D03*
X-557000Y757500D02*
D03*
X-900002Y300000D02*
D03*
X-660001D02*
D03*
X-740002D02*
D03*
X-270000Y1879999D02*
D03*
X-1169999Y2240000D02*
D03*
X200000Y1082500D02*
D03*
Y1212500D02*
D03*
Y1147500D02*
D03*
Y1017500D02*
D03*
Y822500D02*
D03*
X-200000Y1277500D02*
D03*
Y887500D02*
D03*
X1093000Y663600D02*
D03*
Y1163600D02*
D03*
X1325000Y1327500D02*
D03*
Y827500D02*
D03*
X812500Y1243600D02*
D03*
X-1150000Y1300000D02*
D03*
X-1050000D02*
D03*
X-950000D02*
D03*
X-980002Y400000D02*
D03*
X-1060001D02*
D03*
X-1140002D02*
D03*
X-1139001Y990000D02*
D03*
X-780000Y857000D02*
D03*
X-100000Y3257500D02*
D03*
Y3003500D02*
D03*
X-1000000Y3350000D02*
D03*
X269999Y3860000D02*
D03*
X809999Y3319998D02*
D03*
Y2779998D02*
D03*
X990000Y4130000D02*
D03*
Y4190000D02*
D03*
Y4250000D02*
D03*
Y4310000D02*
D03*
X720000Y4190000D02*
D03*
Y4250000D02*
D03*
X-449999Y1880000D02*
D03*
X-810000Y1880001D02*
D03*
X630000Y2060000D02*
D03*
X449999Y1880001D02*
D03*
X-60001Y300000D02*
D03*
X-140001D02*
D03*
X459998D02*
D03*
X379998D02*
D03*
X299998D02*
D03*
X219998D02*
D03*
X139998D02*
D03*
X-1170000Y3679998D02*
D03*
Y3499998D02*
D03*
X-990000Y1699999D02*
D03*
X-810000D02*
D03*
X1169997Y2060000D02*
D03*
Y2240000D02*
D03*
Y2419999D02*
D03*
X-630002Y2060000D02*
D03*
X-1170000Y3859998D02*
D03*
X629999Y1880001D02*
D03*
X809999D02*
D03*
%TF.MD5,b0c8f7b7ef7f22c827d8261a287cb1c5*%
M02*
